%TF.GenerationSoftware,KiCad,Pcbnew,9.0.5*%
%TF.CreationDate,2025-11-11T22:40:46+01:00*%
%TF.ProjectId,mobile_robot,6d6f6269-6c65-45f7-926f-626f742e6b69,rev?*%
%TF.SameCoordinates,Original*%
%TF.FileFunction,Paste,Top*%
%TF.FilePolarity,Positive*%
%FSLAX46Y46*%
G04 Gerber Fmt 4.6, Leading zero omitted, Abs format (unit mm)*
G04 Created by KiCad (PCBNEW 9.0.5) date 2025-11-11 22:40:46*
%MOMM*%
%LPD*%
G01*
G04 APERTURE LIST*
G04 Aperture macros list*
%AMRoundRect*
0 Rectangle with rounded corners*
0 $1 Rounding radius*
0 $2 $3 $4 $5 $6 $7 $8 $9 X,Y pos of 4 corners*
0 Add a 4 corners polygon primitive as box body*
4,1,4,$2,$3,$4,$5,$6,$7,$8,$9,$2,$3,0*
0 Add four circle primitives for the rounded corners*
1,1,$1+$1,$2,$3*
1,1,$1+$1,$4,$5*
1,1,$1+$1,$6,$7*
1,1,$1+$1,$8,$9*
0 Add four rect primitives between the rounded corners*
20,1,$1+$1,$2,$3,$4,$5,0*
20,1,$1+$1,$4,$5,$6,$7,0*
20,1,$1+$1,$6,$7,$8,$9,0*
20,1,$1+$1,$8,$9,$2,$3,0*%
G04 Aperture macros list end*
%ADD10R,2.400000X0.740000*%
%ADD11RoundRect,0.237500X-0.237500X0.287500X-0.237500X-0.287500X0.237500X-0.287500X0.237500X0.287500X0*%
%ADD12RoundRect,0.250000X0.450000X-0.350000X0.450000X0.350000X-0.450000X0.350000X-0.450000X-0.350000X0*%
%ADD13RoundRect,0.237500X-0.237500X0.300000X-0.237500X-0.300000X0.237500X-0.300000X0.237500X0.300000X0*%
%ADD14RoundRect,0.250000X0.412500X0.650000X-0.412500X0.650000X-0.412500X-0.650000X0.412500X-0.650000X0*%
%ADD15RoundRect,0.237500X-0.237500X0.250000X-0.237500X-0.250000X0.237500X-0.250000X0.237500X0.250000X0*%
%ADD16RoundRect,0.250000X1.750000X-1.375000X1.750000X1.375000X-1.750000X1.375000X-1.750000X-1.375000X0*%
%ADD17R,3.810000X4.240000*%
%ADD18RoundRect,0.237500X0.237500X-0.287500X0.237500X0.287500X-0.237500X0.287500X-0.237500X-0.287500X0*%
%ADD19RoundRect,0.250000X-0.450000X0.350000X-0.450000X-0.350000X0.450000X-0.350000X0.450000X0.350000X0*%
%ADD20RoundRect,0.237500X-0.300000X-0.237500X0.300000X-0.237500X0.300000X0.237500X-0.300000X0.237500X0*%
%ADD21RoundRect,0.250000X-0.625000X0.400000X-0.625000X-0.400000X0.625000X-0.400000X0.625000X0.400000X0*%
%ADD22RoundRect,0.250000X-0.337500X-0.475000X0.337500X-0.475000X0.337500X0.475000X-0.337500X0.475000X0*%
%ADD23RoundRect,0.237500X0.237500X-0.250000X0.237500X0.250000X-0.237500X0.250000X-0.237500X-0.250000X0*%
%ADD24RoundRect,0.250000X-1.000000X1.950000X-1.000000X-1.950000X1.000000X-1.950000X1.000000X1.950000X0*%
%ADD25RoundRect,0.250000X-1.375000X-1.750000X1.375000X-1.750000X1.375000X1.750000X-1.375000X1.750000X0*%
%ADD26RoundRect,0.075000X-0.548008X0.441942X0.441942X-0.548008X0.548008X-0.441942X-0.441942X0.548008X0*%
%ADD27RoundRect,0.075000X-0.548008X-0.441942X-0.441942X-0.548008X0.548008X0.441942X0.441942X0.548008X0*%
%ADD28RoundRect,0.250000X-1.950000X-1.000000X1.950000X-1.000000X1.950000X1.000000X-1.950000X1.000000X0*%
%ADD29RoundRect,0.237500X-0.250000X-0.237500X0.250000X-0.237500X0.250000X0.237500X-0.250000X0.237500X0*%
%ADD30RoundRect,0.250000X1.375000X1.750000X-1.375000X1.750000X-1.375000X-1.750000X1.375000X-1.750000X0*%
G04 APERTURE END LIST*
D10*
%TO.C,J2*%
X182708000Y-59690000D03*
X186608000Y-59690000D03*
X182708000Y-60960000D03*
X186608000Y-60960000D03*
X182708000Y-62230000D03*
X186608000Y-62230000D03*
X182708000Y-63500000D03*
X186608000Y-63500000D03*
X182708000Y-64770000D03*
X186608000Y-64770000D03*
X182708000Y-66040000D03*
X186608000Y-66040000D03*
X182708000Y-67310000D03*
X186608000Y-67310000D03*
%TD*%
D11*
%TO.C,D26*%
X178308000Y-95645000D03*
X178308000Y-97395000D03*
%TD*%
D12*
%TO.C,R84*%
X180340000Y-92694000D03*
X180340000Y-90694000D03*
%TD*%
D13*
%TO.C,C47*%
X167132000Y-72543500D03*
X167132000Y-74268500D03*
%TD*%
D14*
%TO.C,C31*%
X113322500Y-56388000D03*
X110197500Y-56388000D03*
%TD*%
D15*
%TO.C,R46*%
X131318000Y-41505500D03*
X131318000Y-43330500D03*
%TD*%
D12*
%TO.C,R3*%
X172847000Y-45450000D03*
X172847000Y-43450000D03*
%TD*%
D16*
%TO.C,L3*%
X130470613Y-75621355D03*
X130470613Y-66371355D03*
%TD*%
D17*
%TO.C,F1*%
X121992802Y-79322534D03*
X121992802Y-72952534D03*
%TD*%
D18*
%TO.C,D20*%
X174498000Y-97141000D03*
X174498000Y-95391000D03*
%TD*%
D11*
%TO.C,D2*%
X180086000Y-95645000D03*
X180086000Y-97395000D03*
%TD*%
D19*
%TO.C,R56*%
X171450000Y-90694000D03*
X171450000Y-92694000D03*
%TD*%
D20*
%TO.C,C48*%
X185319500Y-56134000D03*
X187044500Y-56134000D03*
%TD*%
D14*
%TO.C,C32*%
X113322500Y-53594000D03*
X110197500Y-53594000D03*
%TD*%
D21*
%TO.C,R78*%
X178816000Y-40360000D03*
X178816000Y-43460000D03*
%TD*%
D22*
%TO.C,C42*%
X183112500Y-47752000D03*
X185187500Y-47752000D03*
%TD*%
D14*
%TO.C,C39*%
X135674500Y-61468000D03*
X132549500Y-61468000D03*
%TD*%
D23*
%TO.C,R5*%
X158242000Y-87677000D03*
X158242000Y-85852000D03*
%TD*%
%TO.C,R45*%
X129794000Y-43330500D03*
X129794000Y-41505500D03*
%TD*%
D18*
%TO.C,D19*%
X172720000Y-97141000D03*
X172720000Y-95391000D03*
%TD*%
D12*
%TO.C,R85*%
X178054000Y-92694000D03*
X178054000Y-90694000D03*
%TD*%
D24*
%TO.C,C28*%
X140970000Y-74024000D03*
X140970000Y-81424000D03*
%TD*%
D25*
%TO.C,L1*%
X125175000Y-92800000D03*
X134425000Y-92800000D03*
%TD*%
D24*
%TO.C,C24*%
X141732000Y-89772000D03*
X141732000Y-97172000D03*
%TD*%
D15*
%TO.C,R76*%
X157734000Y-40870500D03*
X157734000Y-42695500D03*
%TD*%
D19*
%TO.C,R57*%
X173736000Y-90694000D03*
X173736000Y-92694000D03*
%TD*%
D26*
%TO.C,U1*%
X147482819Y-58613519D03*
X147129266Y-58967072D03*
X146775713Y-59320625D03*
X146422159Y-59674179D03*
X146068606Y-60027732D03*
X145715052Y-60381286D03*
X145361499Y-60734839D03*
X145007946Y-61088392D03*
X144654392Y-61441946D03*
X144300839Y-61795499D03*
X143947286Y-62149052D03*
X143593732Y-62502606D03*
X143240179Y-62856159D03*
X142886625Y-63209713D03*
X142533072Y-63563266D03*
X142179519Y-63916819D03*
D27*
X142179519Y-66639181D03*
X142533072Y-66992734D03*
X142886625Y-67346287D03*
X143240179Y-67699841D03*
X143593732Y-68053394D03*
X143947286Y-68406948D03*
X144300839Y-68760501D03*
X144654392Y-69114054D03*
X145007946Y-69467608D03*
X145361499Y-69821161D03*
X145715052Y-70174714D03*
X146068606Y-70528268D03*
X146422159Y-70881821D03*
X146775713Y-71235375D03*
X147129266Y-71588928D03*
X147482819Y-71942481D03*
D26*
X150205181Y-71942481D03*
X150558734Y-71588928D03*
X150912287Y-71235375D03*
X151265841Y-70881821D03*
X151619394Y-70528268D03*
X151972948Y-70174714D03*
X152326501Y-69821161D03*
X152680054Y-69467608D03*
X153033608Y-69114054D03*
X153387161Y-68760501D03*
X153740714Y-68406948D03*
X154094268Y-68053394D03*
X154447821Y-67699841D03*
X154801375Y-67346287D03*
X155154928Y-66992734D03*
X155508481Y-66639181D03*
D27*
X155508481Y-63916819D03*
X155154928Y-63563266D03*
X154801375Y-63209713D03*
X154447821Y-62856159D03*
X154094268Y-62502606D03*
X153740714Y-62149052D03*
X153387161Y-61795499D03*
X153033608Y-61441946D03*
X152680054Y-61088392D03*
X152326501Y-60734839D03*
X151972948Y-60381286D03*
X151619394Y-60027732D03*
X151265841Y-59674179D03*
X150912287Y-59320625D03*
X150558734Y-58967072D03*
X150205181Y-58613519D03*
%TD*%
D28*
%TO.C,C27*%
X117458000Y-53848000D03*
X124858000Y-53848000D03*
%TD*%
D11*
%TO.C,D21*%
X176276000Y-95504000D03*
X176276000Y-97254000D03*
%TD*%
D29*
%TO.C,R19*%
X142851500Y-86106000D03*
X144676500Y-86106000D03*
%TD*%
D12*
%TO.C,R58*%
X175768000Y-92694000D03*
X175768000Y-90694000D03*
%TD*%
D30*
%TO.C,L2*%
X120299664Y-64837053D03*
X111049664Y-64837053D03*
%TD*%
D23*
%TO.C,R77*%
X159512000Y-42695500D03*
X159512000Y-40870500D03*
%TD*%
M02*
