%TF.GenerationSoftware,KiCad,Pcbnew,9.0.5*%
%TF.CreationDate,2025-11-12T00:35:56+01:00*%
%TF.ProjectId,mobile_robot,6d6f6269-6c65-45f7-926f-626f742e6b69,rev?*%
%TF.SameCoordinates,Original*%
%TF.FileFunction,Legend,Top*%
%TF.FilePolarity,Positive*%
%FSLAX46Y46*%
G04 Gerber Fmt 4.6, Leading zero omitted, Abs format (unit mm)*
G04 Created by KiCad (PCBNEW 9.0.5) date 2025-11-12 00:35:56*
%MOMM*%
%LPD*%
G01*
G04 APERTURE LIST*
%ADD10C,0.150000*%
%ADD11C,0.100000*%
%ADD12C,0.254000*%
%ADD13C,0.120000*%
%ADD14C,0.200000*%
%ADD15C,0.600000*%
G04 APERTURE END LIST*
D10*
X159125620Y-39812740D02*
X159136379Y-40197259D01*
X157607000Y-39878000D02*
X156845000Y-39878000D01*
D11*
X157966455Y-72553133D02*
X157966455Y-71853133D01*
X157966455Y-71853133D02*
X158233122Y-71853133D01*
X158233122Y-71853133D02*
X158299789Y-71886466D01*
X158299789Y-71886466D02*
X158333122Y-71919800D01*
X158333122Y-71919800D02*
X158366455Y-71986466D01*
X158366455Y-71986466D02*
X158366455Y-72086466D01*
X158366455Y-72086466D02*
X158333122Y-72153133D01*
X158333122Y-72153133D02*
X158299789Y-72186466D01*
X158299789Y-72186466D02*
X158233122Y-72219800D01*
X158233122Y-72219800D02*
X157966455Y-72219800D01*
X158599789Y-71853133D02*
X158766455Y-72553133D01*
X158766455Y-72553133D02*
X158899789Y-72053133D01*
X158899789Y-72053133D02*
X159033122Y-72553133D01*
X159033122Y-72553133D02*
X159199789Y-71853133D01*
X159466455Y-72553133D02*
X159466455Y-71853133D01*
X159466455Y-71853133D02*
X159699789Y-72353133D01*
X159699789Y-72353133D02*
X159933122Y-71853133D01*
X159933122Y-71853133D02*
X159933122Y-72553133D01*
X161666455Y-71853133D02*
X161333121Y-71853133D01*
X161333121Y-71853133D02*
X161299788Y-72186466D01*
X161299788Y-72186466D02*
X161333121Y-72153133D01*
X161333121Y-72153133D02*
X161399788Y-72119800D01*
X161399788Y-72119800D02*
X161566455Y-72119800D01*
X161566455Y-72119800D02*
X161633121Y-72153133D01*
X161633121Y-72153133D02*
X161666455Y-72186466D01*
X161666455Y-72186466D02*
X161699788Y-72253133D01*
X161699788Y-72253133D02*
X161699788Y-72419800D01*
X161699788Y-72419800D02*
X161666455Y-72486466D01*
X161666455Y-72486466D02*
X161633121Y-72519800D01*
X161633121Y-72519800D02*
X161566455Y-72553133D01*
X161566455Y-72553133D02*
X161399788Y-72553133D01*
X161399788Y-72553133D02*
X161333121Y-72519800D01*
X161333121Y-72519800D02*
X161299788Y-72486466D01*
X161899788Y-71853133D02*
X162133122Y-72553133D01*
X162133122Y-72553133D02*
X162366455Y-71853133D01*
X163499788Y-71886466D02*
X163433121Y-71853133D01*
X163433121Y-71853133D02*
X163333121Y-71853133D01*
X163333121Y-71853133D02*
X163233121Y-71886466D01*
X163233121Y-71886466D02*
X163166455Y-71953133D01*
X163166455Y-71953133D02*
X163133121Y-72019800D01*
X163133121Y-72019800D02*
X163099788Y-72153133D01*
X163099788Y-72153133D02*
X163099788Y-72253133D01*
X163099788Y-72253133D02*
X163133121Y-72386466D01*
X163133121Y-72386466D02*
X163166455Y-72453133D01*
X163166455Y-72453133D02*
X163233121Y-72519800D01*
X163233121Y-72519800D02*
X163333121Y-72553133D01*
X163333121Y-72553133D02*
X163399788Y-72553133D01*
X163399788Y-72553133D02*
X163499788Y-72519800D01*
X163499788Y-72519800D02*
X163533121Y-72486466D01*
X163533121Y-72486466D02*
X163533121Y-72253133D01*
X163533121Y-72253133D02*
X163399788Y-72253133D01*
X163833121Y-72553133D02*
X163833121Y-71853133D01*
X163833121Y-71853133D02*
X164233121Y-72553133D01*
X164233121Y-72553133D02*
X164233121Y-71853133D01*
X164566454Y-72553133D02*
X164566454Y-71853133D01*
X164566454Y-71853133D02*
X164733121Y-71853133D01*
X164733121Y-71853133D02*
X164833121Y-71886466D01*
X164833121Y-71886466D02*
X164899788Y-71953133D01*
X164899788Y-71953133D02*
X164933121Y-72019800D01*
X164933121Y-72019800D02*
X164966454Y-72153133D01*
X164966454Y-72153133D02*
X164966454Y-72253133D01*
X164966454Y-72253133D02*
X164933121Y-72386466D01*
X164933121Y-72386466D02*
X164899788Y-72453133D01*
X164899788Y-72453133D02*
X164833121Y-72519800D01*
X164833121Y-72519800D02*
X164733121Y-72553133D01*
X164733121Y-72553133D02*
X164566454Y-72553133D01*
X133844360Y-40342371D02*
X133558646Y-40342371D01*
X133558646Y-40342371D02*
X133530074Y-40628085D01*
X133530074Y-40628085D02*
X133558646Y-40599514D01*
X133558646Y-40599514D02*
X133615789Y-40570942D01*
X133615789Y-40570942D02*
X133758646Y-40570942D01*
X133758646Y-40570942D02*
X133815789Y-40599514D01*
X133815789Y-40599514D02*
X133844360Y-40628085D01*
X133844360Y-40628085D02*
X133872931Y-40685228D01*
X133872931Y-40685228D02*
X133872931Y-40828085D01*
X133872931Y-40828085D02*
X133844360Y-40885228D01*
X133844360Y-40885228D02*
X133815789Y-40913800D01*
X133815789Y-40913800D02*
X133758646Y-40942371D01*
X133758646Y-40942371D02*
X133615789Y-40942371D01*
X133615789Y-40942371D02*
X133558646Y-40913800D01*
X133558646Y-40913800D02*
X133530074Y-40885228D01*
X134044360Y-40342371D02*
X134244360Y-40942371D01*
X134244360Y-40942371D02*
X134444360Y-40342371D01*
X135872932Y-40370942D02*
X135815790Y-40342371D01*
X135815790Y-40342371D02*
X135730075Y-40342371D01*
X135730075Y-40342371D02*
X135644361Y-40370942D01*
X135644361Y-40370942D02*
X135587218Y-40428085D01*
X135587218Y-40428085D02*
X135558647Y-40485228D01*
X135558647Y-40485228D02*
X135530075Y-40599514D01*
X135530075Y-40599514D02*
X135530075Y-40685228D01*
X135530075Y-40685228D02*
X135558647Y-40799514D01*
X135558647Y-40799514D02*
X135587218Y-40856657D01*
X135587218Y-40856657D02*
X135644361Y-40913800D01*
X135644361Y-40913800D02*
X135730075Y-40942371D01*
X135730075Y-40942371D02*
X135787218Y-40942371D01*
X135787218Y-40942371D02*
X135872932Y-40913800D01*
X135872932Y-40913800D02*
X135901504Y-40885228D01*
X135901504Y-40885228D02*
X135901504Y-40685228D01*
X135901504Y-40685228D02*
X135787218Y-40685228D01*
X136158647Y-40942371D02*
X136158647Y-40342371D01*
X136158647Y-40342371D02*
X136501504Y-40942371D01*
X136501504Y-40942371D02*
X136501504Y-40342371D01*
X136787218Y-40942371D02*
X136787218Y-40342371D01*
X136787218Y-40342371D02*
X136930075Y-40342371D01*
X136930075Y-40342371D02*
X137015789Y-40370942D01*
X137015789Y-40370942D02*
X137072932Y-40428085D01*
X137072932Y-40428085D02*
X137101503Y-40485228D01*
X137101503Y-40485228D02*
X137130075Y-40599514D01*
X137130075Y-40599514D02*
X137130075Y-40685228D01*
X137130075Y-40685228D02*
X137101503Y-40799514D01*
X137101503Y-40799514D02*
X137072932Y-40856657D01*
X137072932Y-40856657D02*
X137015789Y-40913800D01*
X137015789Y-40913800D02*
X136930075Y-40942371D01*
X136930075Y-40942371D02*
X136787218Y-40942371D01*
X138272932Y-40913800D02*
X138358647Y-40942371D01*
X138358647Y-40942371D02*
X138501504Y-40942371D01*
X138501504Y-40942371D02*
X138558647Y-40913800D01*
X138558647Y-40913800D02*
X138587218Y-40885228D01*
X138587218Y-40885228D02*
X138615789Y-40828085D01*
X138615789Y-40828085D02*
X138615789Y-40770942D01*
X138615789Y-40770942D02*
X138587218Y-40713800D01*
X138587218Y-40713800D02*
X138558647Y-40685228D01*
X138558647Y-40685228D02*
X138501504Y-40656657D01*
X138501504Y-40656657D02*
X138387218Y-40628085D01*
X138387218Y-40628085D02*
X138330075Y-40599514D01*
X138330075Y-40599514D02*
X138301504Y-40570942D01*
X138301504Y-40570942D02*
X138272932Y-40513800D01*
X138272932Y-40513800D02*
X138272932Y-40456657D01*
X138272932Y-40456657D02*
X138301504Y-40399514D01*
X138301504Y-40399514D02*
X138330075Y-40370942D01*
X138330075Y-40370942D02*
X138387218Y-40342371D01*
X138387218Y-40342371D02*
X138530075Y-40342371D01*
X138530075Y-40342371D02*
X138615789Y-40370942D01*
X138872933Y-40942371D02*
X138872933Y-40342371D01*
X138872933Y-40342371D02*
X139015790Y-40342371D01*
X139015790Y-40342371D02*
X139101504Y-40370942D01*
X139101504Y-40370942D02*
X139158647Y-40428085D01*
X139158647Y-40428085D02*
X139187218Y-40485228D01*
X139187218Y-40485228D02*
X139215790Y-40599514D01*
X139215790Y-40599514D02*
X139215790Y-40685228D01*
X139215790Y-40685228D02*
X139187218Y-40799514D01*
X139187218Y-40799514D02*
X139158647Y-40856657D01*
X139158647Y-40856657D02*
X139101504Y-40913800D01*
X139101504Y-40913800D02*
X139015790Y-40942371D01*
X139015790Y-40942371D02*
X138872933Y-40942371D01*
X139444361Y-40770942D02*
X139730076Y-40770942D01*
X139387218Y-40942371D02*
X139587218Y-40342371D01*
X139587218Y-40342371D02*
X139787218Y-40942371D01*
X140872933Y-40913800D02*
X140958648Y-40942371D01*
X140958648Y-40942371D02*
X141101505Y-40942371D01*
X141101505Y-40942371D02*
X141158648Y-40913800D01*
X141158648Y-40913800D02*
X141187219Y-40885228D01*
X141187219Y-40885228D02*
X141215790Y-40828085D01*
X141215790Y-40828085D02*
X141215790Y-40770942D01*
X141215790Y-40770942D02*
X141187219Y-40713800D01*
X141187219Y-40713800D02*
X141158648Y-40685228D01*
X141158648Y-40685228D02*
X141101505Y-40656657D01*
X141101505Y-40656657D02*
X140987219Y-40628085D01*
X140987219Y-40628085D02*
X140930076Y-40599514D01*
X140930076Y-40599514D02*
X140901505Y-40570942D01*
X140901505Y-40570942D02*
X140872933Y-40513800D01*
X140872933Y-40513800D02*
X140872933Y-40456657D01*
X140872933Y-40456657D02*
X140901505Y-40399514D01*
X140901505Y-40399514D02*
X140930076Y-40370942D01*
X140930076Y-40370942D02*
X140987219Y-40342371D01*
X140987219Y-40342371D02*
X141130076Y-40342371D01*
X141130076Y-40342371D02*
X141215790Y-40370942D01*
X141815791Y-40885228D02*
X141787219Y-40913800D01*
X141787219Y-40913800D02*
X141701505Y-40942371D01*
X141701505Y-40942371D02*
X141644362Y-40942371D01*
X141644362Y-40942371D02*
X141558648Y-40913800D01*
X141558648Y-40913800D02*
X141501505Y-40856657D01*
X141501505Y-40856657D02*
X141472934Y-40799514D01*
X141472934Y-40799514D02*
X141444362Y-40685228D01*
X141444362Y-40685228D02*
X141444362Y-40599514D01*
X141444362Y-40599514D02*
X141472934Y-40485228D01*
X141472934Y-40485228D02*
X141501505Y-40428085D01*
X141501505Y-40428085D02*
X141558648Y-40370942D01*
X141558648Y-40370942D02*
X141644362Y-40342371D01*
X141644362Y-40342371D02*
X141701505Y-40342371D01*
X141701505Y-40342371D02*
X141787219Y-40370942D01*
X141787219Y-40370942D02*
X141815791Y-40399514D01*
X142358648Y-40942371D02*
X142072934Y-40942371D01*
X142072934Y-40942371D02*
X142072934Y-40342371D01*
X145701506Y-40342371D02*
X146072934Y-40342371D01*
X146072934Y-40342371D02*
X145872934Y-40570942D01*
X145872934Y-40570942D02*
X145958649Y-40570942D01*
X145958649Y-40570942D02*
X146015792Y-40599514D01*
X146015792Y-40599514D02*
X146044363Y-40628085D01*
X146044363Y-40628085D02*
X146072934Y-40685228D01*
X146072934Y-40685228D02*
X146072934Y-40828085D01*
X146072934Y-40828085D02*
X146044363Y-40885228D01*
X146044363Y-40885228D02*
X146015792Y-40913800D01*
X146015792Y-40913800D02*
X145958649Y-40942371D01*
X145958649Y-40942371D02*
X145787220Y-40942371D01*
X145787220Y-40942371D02*
X145730077Y-40913800D01*
X145730077Y-40913800D02*
X145701506Y-40885228D01*
X146244363Y-40342371D02*
X146444363Y-40942371D01*
X146444363Y-40942371D02*
X146644363Y-40342371D01*
X146787221Y-40342371D02*
X147158649Y-40342371D01*
X147158649Y-40342371D02*
X146958649Y-40570942D01*
X146958649Y-40570942D02*
X147044364Y-40570942D01*
X147044364Y-40570942D02*
X147101507Y-40599514D01*
X147101507Y-40599514D02*
X147130078Y-40628085D01*
X147130078Y-40628085D02*
X147158649Y-40685228D01*
X147158649Y-40685228D02*
X147158649Y-40828085D01*
X147158649Y-40828085D02*
X147130078Y-40885228D01*
X147130078Y-40885228D02*
X147101507Y-40913800D01*
X147101507Y-40913800D02*
X147044364Y-40942371D01*
X147044364Y-40942371D02*
X146872935Y-40942371D01*
X146872935Y-40942371D02*
X146815792Y-40913800D01*
X146815792Y-40913800D02*
X146787221Y-40885228D01*
X148644364Y-40370942D02*
X148587222Y-40342371D01*
X148587222Y-40342371D02*
X148501507Y-40342371D01*
X148501507Y-40342371D02*
X148415793Y-40370942D01*
X148415793Y-40370942D02*
X148358650Y-40428085D01*
X148358650Y-40428085D02*
X148330079Y-40485228D01*
X148330079Y-40485228D02*
X148301507Y-40599514D01*
X148301507Y-40599514D02*
X148301507Y-40685228D01*
X148301507Y-40685228D02*
X148330079Y-40799514D01*
X148330079Y-40799514D02*
X148358650Y-40856657D01*
X148358650Y-40856657D02*
X148415793Y-40913800D01*
X148415793Y-40913800D02*
X148501507Y-40942371D01*
X148501507Y-40942371D02*
X148558650Y-40942371D01*
X148558650Y-40942371D02*
X148644364Y-40913800D01*
X148644364Y-40913800D02*
X148672936Y-40885228D01*
X148672936Y-40885228D02*
X148672936Y-40685228D01*
X148672936Y-40685228D02*
X148558650Y-40685228D01*
X148930079Y-40942371D02*
X148930079Y-40342371D01*
X148930079Y-40342371D02*
X149272936Y-40942371D01*
X149272936Y-40942371D02*
X149272936Y-40342371D01*
X149558650Y-40942371D02*
X149558650Y-40342371D01*
X149558650Y-40342371D02*
X149701507Y-40342371D01*
X149701507Y-40342371D02*
X149787221Y-40370942D01*
X149787221Y-40370942D02*
X149844364Y-40428085D01*
X149844364Y-40428085D02*
X149872935Y-40485228D01*
X149872935Y-40485228D02*
X149901507Y-40599514D01*
X149901507Y-40599514D02*
X149901507Y-40685228D01*
X149901507Y-40685228D02*
X149872935Y-40799514D01*
X149872935Y-40799514D02*
X149844364Y-40856657D01*
X149844364Y-40856657D02*
X149787221Y-40913800D01*
X149787221Y-40913800D02*
X149701507Y-40942371D01*
X149701507Y-40942371D02*
X149558650Y-40942371D01*
X151044364Y-40913800D02*
X151130079Y-40942371D01*
X151130079Y-40942371D02*
X151272936Y-40942371D01*
X151272936Y-40942371D02*
X151330079Y-40913800D01*
X151330079Y-40913800D02*
X151358650Y-40885228D01*
X151358650Y-40885228D02*
X151387221Y-40828085D01*
X151387221Y-40828085D02*
X151387221Y-40770942D01*
X151387221Y-40770942D02*
X151358650Y-40713800D01*
X151358650Y-40713800D02*
X151330079Y-40685228D01*
X151330079Y-40685228D02*
X151272936Y-40656657D01*
X151272936Y-40656657D02*
X151158650Y-40628085D01*
X151158650Y-40628085D02*
X151101507Y-40599514D01*
X151101507Y-40599514D02*
X151072936Y-40570942D01*
X151072936Y-40570942D02*
X151044364Y-40513800D01*
X151044364Y-40513800D02*
X151044364Y-40456657D01*
X151044364Y-40456657D02*
X151072936Y-40399514D01*
X151072936Y-40399514D02*
X151101507Y-40370942D01*
X151101507Y-40370942D02*
X151158650Y-40342371D01*
X151158650Y-40342371D02*
X151301507Y-40342371D01*
X151301507Y-40342371D02*
X151387221Y-40370942D01*
X151987222Y-40885228D02*
X151958650Y-40913800D01*
X151958650Y-40913800D02*
X151872936Y-40942371D01*
X151872936Y-40942371D02*
X151815793Y-40942371D01*
X151815793Y-40942371D02*
X151730079Y-40913800D01*
X151730079Y-40913800D02*
X151672936Y-40856657D01*
X151672936Y-40856657D02*
X151644365Y-40799514D01*
X151644365Y-40799514D02*
X151615793Y-40685228D01*
X151615793Y-40685228D02*
X151615793Y-40599514D01*
X151615793Y-40599514D02*
X151644365Y-40485228D01*
X151644365Y-40485228D02*
X151672936Y-40428085D01*
X151672936Y-40428085D02*
X151730079Y-40370942D01*
X151730079Y-40370942D02*
X151815793Y-40342371D01*
X151815793Y-40342371D02*
X151872936Y-40342371D01*
X151872936Y-40342371D02*
X151958650Y-40370942D01*
X151958650Y-40370942D02*
X151987222Y-40399514D01*
X152530079Y-40942371D02*
X152244365Y-40942371D01*
X152244365Y-40942371D02*
X152244365Y-40342371D01*
X153615793Y-40913800D02*
X153701508Y-40942371D01*
X153701508Y-40942371D02*
X153844365Y-40942371D01*
X153844365Y-40942371D02*
X153901508Y-40913800D01*
X153901508Y-40913800D02*
X153930079Y-40885228D01*
X153930079Y-40885228D02*
X153958650Y-40828085D01*
X153958650Y-40828085D02*
X153958650Y-40770942D01*
X153958650Y-40770942D02*
X153930079Y-40713800D01*
X153930079Y-40713800D02*
X153901508Y-40685228D01*
X153901508Y-40685228D02*
X153844365Y-40656657D01*
X153844365Y-40656657D02*
X153730079Y-40628085D01*
X153730079Y-40628085D02*
X153672936Y-40599514D01*
X153672936Y-40599514D02*
X153644365Y-40570942D01*
X153644365Y-40570942D02*
X153615793Y-40513800D01*
X153615793Y-40513800D02*
X153615793Y-40456657D01*
X153615793Y-40456657D02*
X153644365Y-40399514D01*
X153644365Y-40399514D02*
X153672936Y-40370942D01*
X153672936Y-40370942D02*
X153730079Y-40342371D01*
X153730079Y-40342371D02*
X153872936Y-40342371D01*
X153872936Y-40342371D02*
X153958650Y-40370942D01*
X154215794Y-40942371D02*
X154215794Y-40342371D01*
X154215794Y-40342371D02*
X154358651Y-40342371D01*
X154358651Y-40342371D02*
X154444365Y-40370942D01*
X154444365Y-40370942D02*
X154501508Y-40428085D01*
X154501508Y-40428085D02*
X154530079Y-40485228D01*
X154530079Y-40485228D02*
X154558651Y-40599514D01*
X154558651Y-40599514D02*
X154558651Y-40685228D01*
X154558651Y-40685228D02*
X154530079Y-40799514D01*
X154530079Y-40799514D02*
X154501508Y-40856657D01*
X154501508Y-40856657D02*
X154444365Y-40913800D01*
X154444365Y-40913800D02*
X154358651Y-40942371D01*
X154358651Y-40942371D02*
X154215794Y-40942371D01*
X154787222Y-40770942D02*
X155072937Y-40770942D01*
X154730079Y-40942371D02*
X154930079Y-40342371D01*
X154930079Y-40342371D02*
X155130079Y-40942371D01*
D10*
X110048561Y-83410588D02*
X110096180Y-83315350D01*
X110096180Y-83315350D02*
X110096180Y-83172493D01*
X110096180Y-83172493D02*
X110048561Y-83029636D01*
X110048561Y-83029636D02*
X109953323Y-82934398D01*
X109953323Y-82934398D02*
X109858085Y-82886779D01*
X109858085Y-82886779D02*
X109667609Y-82839160D01*
X109667609Y-82839160D02*
X109524752Y-82839160D01*
X109524752Y-82839160D02*
X109334276Y-82886779D01*
X109334276Y-82886779D02*
X109239038Y-82934398D01*
X109239038Y-82934398D02*
X109143800Y-83029636D01*
X109143800Y-83029636D02*
X109096180Y-83172493D01*
X109096180Y-83172493D02*
X109096180Y-83267731D01*
X109096180Y-83267731D02*
X109143800Y-83410588D01*
X109143800Y-83410588D02*
X109191419Y-83458207D01*
X109191419Y-83458207D02*
X109524752Y-83458207D01*
X109524752Y-83458207D02*
X109524752Y-83267731D01*
X109096180Y-83886779D02*
X110096180Y-83886779D01*
X110096180Y-83886779D02*
X109096180Y-84458207D01*
X109096180Y-84458207D02*
X110096180Y-84458207D01*
X109096180Y-84934398D02*
X110096180Y-84934398D01*
X110096180Y-84934398D02*
X110096180Y-85172493D01*
X110096180Y-85172493D02*
X110048561Y-85315350D01*
X110048561Y-85315350D02*
X109953323Y-85410588D01*
X109953323Y-85410588D02*
X109858085Y-85458207D01*
X109858085Y-85458207D02*
X109667609Y-85505826D01*
X109667609Y-85505826D02*
X109524752Y-85505826D01*
X109524752Y-85505826D02*
X109334276Y-85458207D01*
X109334276Y-85458207D02*
X109239038Y-85410588D01*
X109239038Y-85410588D02*
X109143800Y-85315350D01*
X109143800Y-85315350D02*
X109096180Y-85172493D01*
X109096180Y-85172493D02*
X109096180Y-84934398D01*
X110096180Y-87315351D02*
X109096180Y-87648684D01*
X109096180Y-87648684D02*
X110096180Y-87982017D01*
X109096180Y-88315351D02*
X110096180Y-88315351D01*
X110096180Y-88315351D02*
X110096180Y-88553446D01*
X110096180Y-88553446D02*
X110048561Y-88696303D01*
X110048561Y-88696303D02*
X109953323Y-88791541D01*
X109953323Y-88791541D02*
X109858085Y-88839160D01*
X109858085Y-88839160D02*
X109667609Y-88886779D01*
X109667609Y-88886779D02*
X109524752Y-88886779D01*
X109524752Y-88886779D02*
X109334276Y-88839160D01*
X109334276Y-88839160D02*
X109239038Y-88791541D01*
X109239038Y-88791541D02*
X109143800Y-88696303D01*
X109143800Y-88696303D02*
X109096180Y-88553446D01*
X109096180Y-88553446D02*
X109096180Y-88315351D01*
X109096180Y-89315351D02*
X110096180Y-89315351D01*
X110096180Y-89315351D02*
X110096180Y-89553446D01*
X110096180Y-89553446D02*
X110048561Y-89696303D01*
X110048561Y-89696303D02*
X109953323Y-89791541D01*
X109953323Y-89791541D02*
X109858085Y-89839160D01*
X109858085Y-89839160D02*
X109667609Y-89886779D01*
X109667609Y-89886779D02*
X109524752Y-89886779D01*
X109524752Y-89886779D02*
X109334276Y-89839160D01*
X109334276Y-89839160D02*
X109239038Y-89791541D01*
X109239038Y-89791541D02*
X109143800Y-89696303D01*
X109143800Y-89696303D02*
X109096180Y-89553446D01*
X109096180Y-89553446D02*
X109096180Y-89315351D01*
D11*
X162363789Y-46453133D02*
X162030455Y-46453133D01*
X162030455Y-46453133D02*
X161997122Y-46786466D01*
X161997122Y-46786466D02*
X162030455Y-46753133D01*
X162030455Y-46753133D02*
X162097122Y-46719800D01*
X162097122Y-46719800D02*
X162263789Y-46719800D01*
X162263789Y-46719800D02*
X162330455Y-46753133D01*
X162330455Y-46753133D02*
X162363789Y-46786466D01*
X162363789Y-46786466D02*
X162397122Y-46853133D01*
X162397122Y-46853133D02*
X162397122Y-47019800D01*
X162397122Y-47019800D02*
X162363789Y-47086466D01*
X162363789Y-47086466D02*
X162330455Y-47119800D01*
X162330455Y-47119800D02*
X162263789Y-47153133D01*
X162263789Y-47153133D02*
X162097122Y-47153133D01*
X162097122Y-47153133D02*
X162030455Y-47119800D01*
X162030455Y-47119800D02*
X161997122Y-47086466D01*
X162597122Y-46453133D02*
X162830456Y-47153133D01*
X162830456Y-47153133D02*
X163063789Y-46453133D01*
X164197122Y-46486466D02*
X164130455Y-46453133D01*
X164130455Y-46453133D02*
X164030455Y-46453133D01*
X164030455Y-46453133D02*
X163930455Y-46486466D01*
X163930455Y-46486466D02*
X163863789Y-46553133D01*
X163863789Y-46553133D02*
X163830455Y-46619800D01*
X163830455Y-46619800D02*
X163797122Y-46753133D01*
X163797122Y-46753133D02*
X163797122Y-46853133D01*
X163797122Y-46853133D02*
X163830455Y-46986466D01*
X163830455Y-46986466D02*
X163863789Y-47053133D01*
X163863789Y-47053133D02*
X163930455Y-47119800D01*
X163930455Y-47119800D02*
X164030455Y-47153133D01*
X164030455Y-47153133D02*
X164097122Y-47153133D01*
X164097122Y-47153133D02*
X164197122Y-47119800D01*
X164197122Y-47119800D02*
X164230455Y-47086466D01*
X164230455Y-47086466D02*
X164230455Y-46853133D01*
X164230455Y-46853133D02*
X164097122Y-46853133D01*
X164530455Y-47153133D02*
X164530455Y-46453133D01*
X164530455Y-46453133D02*
X164930455Y-47153133D01*
X164930455Y-47153133D02*
X164930455Y-46453133D01*
X165263788Y-47153133D02*
X165263788Y-46453133D01*
X165263788Y-46453133D02*
X165430455Y-46453133D01*
X165430455Y-46453133D02*
X165530455Y-46486466D01*
X165530455Y-46486466D02*
X165597122Y-46553133D01*
X165597122Y-46553133D02*
X165630455Y-46619800D01*
X165630455Y-46619800D02*
X165663788Y-46753133D01*
X165663788Y-46753133D02*
X165663788Y-46853133D01*
X165663788Y-46853133D02*
X165630455Y-46986466D01*
X165630455Y-46986466D02*
X165597122Y-47053133D01*
X165597122Y-47053133D02*
X165530455Y-47119800D01*
X165530455Y-47119800D02*
X165430455Y-47153133D01*
X165430455Y-47153133D02*
X165263788Y-47153133D01*
X166463788Y-46953133D02*
X166797121Y-46953133D01*
X166397121Y-47153133D02*
X166630455Y-46453133D01*
X166630455Y-46453133D02*
X166863788Y-47153133D01*
X167097121Y-47153133D02*
X167097121Y-46453133D01*
X167097121Y-46453133D02*
X167263788Y-46453133D01*
X167263788Y-46453133D02*
X167363788Y-46486466D01*
X167363788Y-46486466D02*
X167430455Y-46553133D01*
X167430455Y-46553133D02*
X167463788Y-46619800D01*
X167463788Y-46619800D02*
X167497121Y-46753133D01*
X167497121Y-46753133D02*
X167497121Y-46853133D01*
X167497121Y-46853133D02*
X167463788Y-46986466D01*
X167463788Y-46986466D02*
X167430455Y-47053133D01*
X167430455Y-47053133D02*
X167363788Y-47119800D01*
X167363788Y-47119800D02*
X167263788Y-47153133D01*
X167263788Y-47153133D02*
X167097121Y-47153133D01*
X168197121Y-47086466D02*
X168163788Y-47119800D01*
X168163788Y-47119800D02*
X168063788Y-47153133D01*
X168063788Y-47153133D02*
X167997121Y-47153133D01*
X167997121Y-47153133D02*
X167897121Y-47119800D01*
X167897121Y-47119800D02*
X167830455Y-47053133D01*
X167830455Y-47053133D02*
X167797121Y-46986466D01*
X167797121Y-46986466D02*
X167763788Y-46853133D01*
X167763788Y-46853133D02*
X167763788Y-46753133D01*
X167763788Y-46753133D02*
X167797121Y-46619800D01*
X167797121Y-46619800D02*
X167830455Y-46553133D01*
X167830455Y-46553133D02*
X167897121Y-46486466D01*
X167897121Y-46486466D02*
X167997121Y-46453133D01*
X167997121Y-46453133D02*
X168063788Y-46453133D01*
X168063788Y-46453133D02*
X168163788Y-46486466D01*
X168163788Y-46486466D02*
X168197121Y-46519800D01*
X120961789Y-47215133D02*
X120628455Y-47215133D01*
X120628455Y-47215133D02*
X120595122Y-47548466D01*
X120595122Y-47548466D02*
X120628455Y-47515133D01*
X120628455Y-47515133D02*
X120695122Y-47481800D01*
X120695122Y-47481800D02*
X120861789Y-47481800D01*
X120861789Y-47481800D02*
X120928455Y-47515133D01*
X120928455Y-47515133D02*
X120961789Y-47548466D01*
X120961789Y-47548466D02*
X120995122Y-47615133D01*
X120995122Y-47615133D02*
X120995122Y-47781800D01*
X120995122Y-47781800D02*
X120961789Y-47848466D01*
X120961789Y-47848466D02*
X120928455Y-47881800D01*
X120928455Y-47881800D02*
X120861789Y-47915133D01*
X120861789Y-47915133D02*
X120695122Y-47915133D01*
X120695122Y-47915133D02*
X120628455Y-47881800D01*
X120628455Y-47881800D02*
X120595122Y-47848466D01*
X121195122Y-47215133D02*
X121428456Y-47915133D01*
X121428456Y-47915133D02*
X121661789Y-47215133D01*
X122795122Y-47248466D02*
X122728455Y-47215133D01*
X122728455Y-47215133D02*
X122628455Y-47215133D01*
X122628455Y-47215133D02*
X122528455Y-47248466D01*
X122528455Y-47248466D02*
X122461789Y-47315133D01*
X122461789Y-47315133D02*
X122428455Y-47381800D01*
X122428455Y-47381800D02*
X122395122Y-47515133D01*
X122395122Y-47515133D02*
X122395122Y-47615133D01*
X122395122Y-47615133D02*
X122428455Y-47748466D01*
X122428455Y-47748466D02*
X122461789Y-47815133D01*
X122461789Y-47815133D02*
X122528455Y-47881800D01*
X122528455Y-47881800D02*
X122628455Y-47915133D01*
X122628455Y-47915133D02*
X122695122Y-47915133D01*
X122695122Y-47915133D02*
X122795122Y-47881800D01*
X122795122Y-47881800D02*
X122828455Y-47848466D01*
X122828455Y-47848466D02*
X122828455Y-47615133D01*
X122828455Y-47615133D02*
X122695122Y-47615133D01*
X123128455Y-47915133D02*
X123128455Y-47215133D01*
X123128455Y-47215133D02*
X123528455Y-47915133D01*
X123528455Y-47915133D02*
X123528455Y-47215133D01*
X123861788Y-47915133D02*
X123861788Y-47215133D01*
X123861788Y-47215133D02*
X124028455Y-47215133D01*
X124028455Y-47215133D02*
X124128455Y-47248466D01*
X124128455Y-47248466D02*
X124195122Y-47315133D01*
X124195122Y-47315133D02*
X124228455Y-47381800D01*
X124228455Y-47381800D02*
X124261788Y-47515133D01*
X124261788Y-47515133D02*
X124261788Y-47615133D01*
X124261788Y-47615133D02*
X124228455Y-47748466D01*
X124228455Y-47748466D02*
X124195122Y-47815133D01*
X124195122Y-47815133D02*
X124128455Y-47881800D01*
X124128455Y-47881800D02*
X124028455Y-47915133D01*
X124028455Y-47915133D02*
X123861788Y-47915133D01*
X125061788Y-47715133D02*
X125395121Y-47715133D01*
X124995121Y-47915133D02*
X125228455Y-47215133D01*
X125228455Y-47215133D02*
X125461788Y-47915133D01*
X125695121Y-47915133D02*
X125695121Y-47215133D01*
X125695121Y-47215133D02*
X125861788Y-47215133D01*
X125861788Y-47215133D02*
X125961788Y-47248466D01*
X125961788Y-47248466D02*
X126028455Y-47315133D01*
X126028455Y-47315133D02*
X126061788Y-47381800D01*
X126061788Y-47381800D02*
X126095121Y-47515133D01*
X126095121Y-47515133D02*
X126095121Y-47615133D01*
X126095121Y-47615133D02*
X126061788Y-47748466D01*
X126061788Y-47748466D02*
X126028455Y-47815133D01*
X126028455Y-47815133D02*
X125961788Y-47881800D01*
X125961788Y-47881800D02*
X125861788Y-47915133D01*
X125861788Y-47915133D02*
X125695121Y-47915133D01*
X126795121Y-47848466D02*
X126761788Y-47881800D01*
X126761788Y-47881800D02*
X126661788Y-47915133D01*
X126661788Y-47915133D02*
X126595121Y-47915133D01*
X126595121Y-47915133D02*
X126495121Y-47881800D01*
X126495121Y-47881800D02*
X126428455Y-47815133D01*
X126428455Y-47815133D02*
X126395121Y-47748466D01*
X126395121Y-47748466D02*
X126361788Y-47615133D01*
X126361788Y-47615133D02*
X126361788Y-47515133D01*
X126361788Y-47515133D02*
X126395121Y-47381800D01*
X126395121Y-47381800D02*
X126428455Y-47315133D01*
X126428455Y-47315133D02*
X126495121Y-47248466D01*
X126495121Y-47248466D02*
X126595121Y-47215133D01*
X126595121Y-47215133D02*
X126661788Y-47215133D01*
X126661788Y-47215133D02*
X126761788Y-47248466D01*
X126761788Y-47248466D02*
X126795121Y-47281800D01*
D10*
X101428779Y-40001819D02*
X101428779Y-39001819D01*
X101428779Y-39382771D02*
X101524017Y-39335152D01*
X101524017Y-39335152D02*
X101714493Y-39335152D01*
X101714493Y-39335152D02*
X101809731Y-39382771D01*
X101809731Y-39382771D02*
X101857350Y-39430390D01*
X101857350Y-39430390D02*
X101904969Y-39525628D01*
X101904969Y-39525628D02*
X101904969Y-39811342D01*
X101904969Y-39811342D02*
X101857350Y-39906580D01*
X101857350Y-39906580D02*
X101809731Y-39954200D01*
X101809731Y-39954200D02*
X101714493Y-40001819D01*
X101714493Y-40001819D02*
X101524017Y-40001819D01*
X101524017Y-40001819D02*
X101428779Y-39954200D01*
X102238303Y-39335152D02*
X102476398Y-40001819D01*
X102714493Y-39335152D02*
X102476398Y-40001819D01*
X102476398Y-40001819D02*
X102381160Y-40239914D01*
X102381160Y-40239914D02*
X102333541Y-40287533D01*
X102333541Y-40287533D02*
X102238303Y-40335152D01*
X104190684Y-39478009D02*
X104333541Y-39525628D01*
X104333541Y-39525628D02*
X104381160Y-39573247D01*
X104381160Y-39573247D02*
X104428779Y-39668485D01*
X104428779Y-39668485D02*
X104428779Y-39811342D01*
X104428779Y-39811342D02*
X104381160Y-39906580D01*
X104381160Y-39906580D02*
X104333541Y-39954200D01*
X104333541Y-39954200D02*
X104238303Y-40001819D01*
X104238303Y-40001819D02*
X103857351Y-40001819D01*
X103857351Y-40001819D02*
X103857351Y-39001819D01*
X103857351Y-39001819D02*
X104190684Y-39001819D01*
X104190684Y-39001819D02*
X104285922Y-39049438D01*
X104285922Y-39049438D02*
X104333541Y-39097057D01*
X104333541Y-39097057D02*
X104381160Y-39192295D01*
X104381160Y-39192295D02*
X104381160Y-39287533D01*
X104381160Y-39287533D02*
X104333541Y-39382771D01*
X104333541Y-39382771D02*
X104285922Y-39430390D01*
X104285922Y-39430390D02*
X104190684Y-39478009D01*
X104190684Y-39478009D02*
X103857351Y-39478009D01*
X105285922Y-40001819D02*
X105285922Y-39478009D01*
X105285922Y-39478009D02*
X105238303Y-39382771D01*
X105238303Y-39382771D02*
X105143065Y-39335152D01*
X105143065Y-39335152D02*
X104952589Y-39335152D01*
X104952589Y-39335152D02*
X104857351Y-39382771D01*
X105285922Y-39954200D02*
X105190684Y-40001819D01*
X105190684Y-40001819D02*
X104952589Y-40001819D01*
X104952589Y-40001819D02*
X104857351Y-39954200D01*
X104857351Y-39954200D02*
X104809732Y-39858961D01*
X104809732Y-39858961D02*
X104809732Y-39763723D01*
X104809732Y-39763723D02*
X104857351Y-39668485D01*
X104857351Y-39668485D02*
X104952589Y-39620866D01*
X104952589Y-39620866D02*
X105190684Y-39620866D01*
X105190684Y-39620866D02*
X105285922Y-39573247D01*
X105762113Y-40001819D02*
X105762113Y-39335152D01*
X105762113Y-39525628D02*
X105809732Y-39430390D01*
X105809732Y-39430390D02*
X105857351Y-39382771D01*
X105857351Y-39382771D02*
X105952589Y-39335152D01*
X105952589Y-39335152D02*
X106047827Y-39335152D01*
X106238304Y-39335152D02*
X106619256Y-39335152D01*
X106381161Y-39001819D02*
X106381161Y-39858961D01*
X106381161Y-39858961D02*
X106428780Y-39954200D01*
X106428780Y-39954200D02*
X106524018Y-40001819D01*
X106524018Y-40001819D02*
X106619256Y-40001819D01*
X107095447Y-40001819D02*
X107000209Y-39954200D01*
X107000209Y-39954200D02*
X106952590Y-39906580D01*
X106952590Y-39906580D02*
X106904971Y-39811342D01*
X106904971Y-39811342D02*
X106904971Y-39525628D01*
X106904971Y-39525628D02*
X106952590Y-39430390D01*
X106952590Y-39430390D02*
X107000209Y-39382771D01*
X107000209Y-39382771D02*
X107095447Y-39335152D01*
X107095447Y-39335152D02*
X107238304Y-39335152D01*
X107238304Y-39335152D02*
X107333542Y-39382771D01*
X107333542Y-39382771D02*
X107381161Y-39430390D01*
X107381161Y-39430390D02*
X107428780Y-39525628D01*
X107428780Y-39525628D02*
X107428780Y-39811342D01*
X107428780Y-39811342D02*
X107381161Y-39906580D01*
X107381161Y-39906580D02*
X107333542Y-39954200D01*
X107333542Y-39954200D02*
X107238304Y-40001819D01*
X107238304Y-40001819D02*
X107095447Y-40001819D01*
X107809733Y-39954200D02*
X107904971Y-40001819D01*
X107904971Y-40001819D02*
X108095447Y-40001819D01*
X108095447Y-40001819D02*
X108190685Y-39954200D01*
X108190685Y-39954200D02*
X108238304Y-39858961D01*
X108238304Y-39858961D02*
X108238304Y-39811342D01*
X108238304Y-39811342D02*
X108190685Y-39716104D01*
X108190685Y-39716104D02*
X108095447Y-39668485D01*
X108095447Y-39668485D02*
X107952590Y-39668485D01*
X107952590Y-39668485D02*
X107857352Y-39620866D01*
X107857352Y-39620866D02*
X107809733Y-39525628D01*
X107809733Y-39525628D02*
X107809733Y-39478009D01*
X107809733Y-39478009D02*
X107857352Y-39382771D01*
X107857352Y-39382771D02*
X107952590Y-39335152D01*
X107952590Y-39335152D02*
X108095447Y-39335152D01*
X108095447Y-39335152D02*
X108190685Y-39382771D01*
X108571638Y-39335152D02*
X109095447Y-39335152D01*
X109095447Y-39335152D02*
X108571638Y-40001819D01*
X108571638Y-40001819D02*
X109095447Y-40001819D01*
X109476400Y-39620866D02*
X110238305Y-39620866D01*
X110619257Y-39001819D02*
X110857352Y-40001819D01*
X110857352Y-40001819D02*
X111047828Y-39287533D01*
X111047828Y-39287533D02*
X111238304Y-40001819D01*
X111238304Y-40001819D02*
X111476400Y-39001819D01*
X112000209Y-40001819D02*
X111904971Y-39954200D01*
X111904971Y-39954200D02*
X111857352Y-39906580D01*
X111857352Y-39906580D02*
X111809733Y-39811342D01*
X111809733Y-39811342D02*
X111809733Y-39525628D01*
X111809733Y-39525628D02*
X111857352Y-39430390D01*
X111857352Y-39430390D02*
X111904971Y-39382771D01*
X111904971Y-39382771D02*
X112000209Y-39335152D01*
X112000209Y-39335152D02*
X112143066Y-39335152D01*
X112143066Y-39335152D02*
X112238304Y-39382771D01*
X112238304Y-39382771D02*
X112285923Y-39430390D01*
X112285923Y-39430390D02*
X112333542Y-39525628D01*
X112333542Y-39525628D02*
X112333542Y-39811342D01*
X112333542Y-39811342D02*
X112285923Y-39906580D01*
X112285923Y-39906580D02*
X112238304Y-39954200D01*
X112238304Y-39954200D02*
X112143066Y-40001819D01*
X112143066Y-40001819D02*
X112000209Y-40001819D01*
X112762114Y-39335152D02*
X112762114Y-40192295D01*
X112762114Y-40192295D02*
X112714495Y-40287533D01*
X112714495Y-40287533D02*
X112619257Y-40335152D01*
X112619257Y-40335152D02*
X112571638Y-40335152D01*
X112762114Y-39001819D02*
X112714495Y-39049438D01*
X112714495Y-39049438D02*
X112762114Y-39097057D01*
X112762114Y-39097057D02*
X112809733Y-39049438D01*
X112809733Y-39049438D02*
X112762114Y-39001819D01*
X112762114Y-39001819D02*
X112762114Y-39097057D01*
D11*
X157966455Y-76871133D02*
X157966455Y-76171133D01*
X157966455Y-76171133D02*
X158233122Y-76171133D01*
X158233122Y-76171133D02*
X158299789Y-76204466D01*
X158299789Y-76204466D02*
X158333122Y-76237800D01*
X158333122Y-76237800D02*
X158366455Y-76304466D01*
X158366455Y-76304466D02*
X158366455Y-76404466D01*
X158366455Y-76404466D02*
X158333122Y-76471133D01*
X158333122Y-76471133D02*
X158299789Y-76504466D01*
X158299789Y-76504466D02*
X158233122Y-76537800D01*
X158233122Y-76537800D02*
X157966455Y-76537800D01*
X158599789Y-76171133D02*
X158766455Y-76871133D01*
X158766455Y-76871133D02*
X158899789Y-76371133D01*
X158899789Y-76371133D02*
X159033122Y-76871133D01*
X159033122Y-76871133D02*
X159199789Y-76171133D01*
X159466455Y-76871133D02*
X159466455Y-76171133D01*
X159466455Y-76171133D02*
X159699789Y-76671133D01*
X159699789Y-76671133D02*
X159933122Y-76171133D01*
X159933122Y-76171133D02*
X159933122Y-76871133D01*
X161666455Y-76171133D02*
X161333121Y-76171133D01*
X161333121Y-76171133D02*
X161299788Y-76504466D01*
X161299788Y-76504466D02*
X161333121Y-76471133D01*
X161333121Y-76471133D02*
X161399788Y-76437800D01*
X161399788Y-76437800D02*
X161566455Y-76437800D01*
X161566455Y-76437800D02*
X161633121Y-76471133D01*
X161633121Y-76471133D02*
X161666455Y-76504466D01*
X161666455Y-76504466D02*
X161699788Y-76571133D01*
X161699788Y-76571133D02*
X161699788Y-76737800D01*
X161699788Y-76737800D02*
X161666455Y-76804466D01*
X161666455Y-76804466D02*
X161633121Y-76837800D01*
X161633121Y-76837800D02*
X161566455Y-76871133D01*
X161566455Y-76871133D02*
X161399788Y-76871133D01*
X161399788Y-76871133D02*
X161333121Y-76837800D01*
X161333121Y-76837800D02*
X161299788Y-76804466D01*
X161899788Y-76171133D02*
X162133122Y-76871133D01*
X162133122Y-76871133D02*
X162366455Y-76171133D01*
X163499788Y-76204466D02*
X163433121Y-76171133D01*
X163433121Y-76171133D02*
X163333121Y-76171133D01*
X163333121Y-76171133D02*
X163233121Y-76204466D01*
X163233121Y-76204466D02*
X163166455Y-76271133D01*
X163166455Y-76271133D02*
X163133121Y-76337800D01*
X163133121Y-76337800D02*
X163099788Y-76471133D01*
X163099788Y-76471133D02*
X163099788Y-76571133D01*
X163099788Y-76571133D02*
X163133121Y-76704466D01*
X163133121Y-76704466D02*
X163166455Y-76771133D01*
X163166455Y-76771133D02*
X163233121Y-76837800D01*
X163233121Y-76837800D02*
X163333121Y-76871133D01*
X163333121Y-76871133D02*
X163399788Y-76871133D01*
X163399788Y-76871133D02*
X163499788Y-76837800D01*
X163499788Y-76837800D02*
X163533121Y-76804466D01*
X163533121Y-76804466D02*
X163533121Y-76571133D01*
X163533121Y-76571133D02*
X163399788Y-76571133D01*
X163833121Y-76871133D02*
X163833121Y-76171133D01*
X163833121Y-76171133D02*
X164233121Y-76871133D01*
X164233121Y-76871133D02*
X164233121Y-76171133D01*
X164566454Y-76871133D02*
X164566454Y-76171133D01*
X164566454Y-76171133D02*
X164733121Y-76171133D01*
X164733121Y-76171133D02*
X164833121Y-76204466D01*
X164833121Y-76204466D02*
X164899788Y-76271133D01*
X164899788Y-76271133D02*
X164933121Y-76337800D01*
X164933121Y-76337800D02*
X164966454Y-76471133D01*
X164966454Y-76471133D02*
X164966454Y-76571133D01*
X164966454Y-76571133D02*
X164933121Y-76704466D01*
X164933121Y-76704466D02*
X164899788Y-76771133D01*
X164899788Y-76771133D02*
X164833121Y-76837800D01*
X164833121Y-76837800D02*
X164733121Y-76871133D01*
X164733121Y-76871133D02*
X164566454Y-76871133D01*
X166816741Y-58131419D02*
X166769122Y-58107609D01*
X166769122Y-58107609D02*
X166697693Y-58107609D01*
X166697693Y-58107609D02*
X166626265Y-58131419D01*
X166626265Y-58131419D02*
X166578646Y-58179038D01*
X166578646Y-58179038D02*
X166554836Y-58226657D01*
X166554836Y-58226657D02*
X166531027Y-58321895D01*
X166531027Y-58321895D02*
X166531027Y-58393323D01*
X166531027Y-58393323D02*
X166554836Y-58488561D01*
X166554836Y-58488561D02*
X166578646Y-58536180D01*
X166578646Y-58536180D02*
X166626265Y-58583800D01*
X166626265Y-58583800D02*
X166697693Y-58607609D01*
X166697693Y-58607609D02*
X166745312Y-58607609D01*
X166745312Y-58607609D02*
X166816741Y-58583800D01*
X166816741Y-58583800D02*
X166840550Y-58559990D01*
X166840550Y-58559990D02*
X166840550Y-58393323D01*
X166840550Y-58393323D02*
X166745312Y-58393323D01*
X167054836Y-58607609D02*
X167054836Y-58107609D01*
X167054836Y-58107609D02*
X167340550Y-58607609D01*
X167340550Y-58607609D02*
X167340550Y-58107609D01*
X167578646Y-58607609D02*
X167578646Y-58107609D01*
X167578646Y-58107609D02*
X167697694Y-58107609D01*
X167697694Y-58107609D02*
X167769122Y-58131419D01*
X167769122Y-58131419D02*
X167816741Y-58179038D01*
X167816741Y-58179038D02*
X167840551Y-58226657D01*
X167840551Y-58226657D02*
X167864360Y-58321895D01*
X167864360Y-58321895D02*
X167864360Y-58393323D01*
X167864360Y-58393323D02*
X167840551Y-58488561D01*
X167840551Y-58488561D02*
X167816741Y-58536180D01*
X167816741Y-58536180D02*
X167769122Y-58583800D01*
X167769122Y-58583800D02*
X167697694Y-58607609D01*
X167697694Y-58607609D02*
X167578646Y-58607609D01*
X168435789Y-58583800D02*
X168507217Y-58607609D01*
X168507217Y-58607609D02*
X168626265Y-58607609D01*
X168626265Y-58607609D02*
X168673884Y-58583800D01*
X168673884Y-58583800D02*
X168697693Y-58559990D01*
X168697693Y-58559990D02*
X168721503Y-58512371D01*
X168721503Y-58512371D02*
X168721503Y-58464752D01*
X168721503Y-58464752D02*
X168697693Y-58417133D01*
X168697693Y-58417133D02*
X168673884Y-58393323D01*
X168673884Y-58393323D02*
X168626265Y-58369514D01*
X168626265Y-58369514D02*
X168531027Y-58345704D01*
X168531027Y-58345704D02*
X168483408Y-58321895D01*
X168483408Y-58321895D02*
X168459598Y-58298085D01*
X168459598Y-58298085D02*
X168435789Y-58250466D01*
X168435789Y-58250466D02*
X168435789Y-58202847D01*
X168435789Y-58202847D02*
X168459598Y-58155228D01*
X168459598Y-58155228D02*
X168483408Y-58131419D01*
X168483408Y-58131419D02*
X168531027Y-58107609D01*
X168531027Y-58107609D02*
X168650074Y-58107609D01*
X168650074Y-58107609D02*
X168721503Y-58131419D01*
X168888169Y-58107609D02*
X169007217Y-58607609D01*
X169007217Y-58607609D02*
X169102455Y-58250466D01*
X169102455Y-58250466D02*
X169197693Y-58607609D01*
X169197693Y-58607609D02*
X169316741Y-58107609D01*
X169792931Y-58559990D02*
X169769122Y-58583800D01*
X169769122Y-58583800D02*
X169697693Y-58607609D01*
X169697693Y-58607609D02*
X169650074Y-58607609D01*
X169650074Y-58607609D02*
X169578646Y-58583800D01*
X169578646Y-58583800D02*
X169531027Y-58536180D01*
X169531027Y-58536180D02*
X169507217Y-58488561D01*
X169507217Y-58488561D02*
X169483408Y-58393323D01*
X169483408Y-58393323D02*
X169483408Y-58321895D01*
X169483408Y-58321895D02*
X169507217Y-58226657D01*
X169507217Y-58226657D02*
X169531027Y-58179038D01*
X169531027Y-58179038D02*
X169578646Y-58131419D01*
X169578646Y-58131419D02*
X169650074Y-58107609D01*
X169650074Y-58107609D02*
X169697693Y-58107609D01*
X169697693Y-58107609D02*
X169769122Y-58131419D01*
X169769122Y-58131419D02*
X169792931Y-58155228D01*
X170245312Y-58607609D02*
X170007217Y-58607609D01*
X170007217Y-58607609D02*
X170007217Y-58107609D01*
X170411979Y-58607609D02*
X170411979Y-58107609D01*
X170697693Y-58607609D02*
X170483408Y-58321895D01*
X170697693Y-58107609D02*
X170411979Y-58393323D01*
X171650074Y-58583800D02*
X171721502Y-58607609D01*
X171721502Y-58607609D02*
X171840550Y-58607609D01*
X171840550Y-58607609D02*
X171888169Y-58583800D01*
X171888169Y-58583800D02*
X171911978Y-58559990D01*
X171911978Y-58559990D02*
X171935788Y-58512371D01*
X171935788Y-58512371D02*
X171935788Y-58464752D01*
X171935788Y-58464752D02*
X171911978Y-58417133D01*
X171911978Y-58417133D02*
X171888169Y-58393323D01*
X171888169Y-58393323D02*
X171840550Y-58369514D01*
X171840550Y-58369514D02*
X171745312Y-58345704D01*
X171745312Y-58345704D02*
X171697693Y-58321895D01*
X171697693Y-58321895D02*
X171673883Y-58298085D01*
X171673883Y-58298085D02*
X171650074Y-58250466D01*
X171650074Y-58250466D02*
X171650074Y-58202847D01*
X171650074Y-58202847D02*
X171673883Y-58155228D01*
X171673883Y-58155228D02*
X171697693Y-58131419D01*
X171697693Y-58131419D02*
X171745312Y-58107609D01*
X171745312Y-58107609D02*
X171864359Y-58107609D01*
X171864359Y-58107609D02*
X171935788Y-58131419D01*
X172102454Y-58107609D02*
X172221502Y-58607609D01*
X172221502Y-58607609D02*
X172316740Y-58250466D01*
X172316740Y-58250466D02*
X172411978Y-58607609D01*
X172411978Y-58607609D02*
X172531026Y-58107609D01*
X172721502Y-58607609D02*
X172721502Y-58107609D01*
X172721502Y-58107609D02*
X172840550Y-58107609D01*
X172840550Y-58107609D02*
X172911978Y-58131419D01*
X172911978Y-58131419D02*
X172959597Y-58179038D01*
X172959597Y-58179038D02*
X172983407Y-58226657D01*
X172983407Y-58226657D02*
X173007216Y-58321895D01*
X173007216Y-58321895D02*
X173007216Y-58393323D01*
X173007216Y-58393323D02*
X172983407Y-58488561D01*
X172983407Y-58488561D02*
X172959597Y-58536180D01*
X172959597Y-58536180D02*
X172911978Y-58583800D01*
X172911978Y-58583800D02*
X172840550Y-58607609D01*
X172840550Y-58607609D02*
X172721502Y-58607609D01*
X173221502Y-58607609D02*
X173221502Y-58107609D01*
X173554835Y-58107609D02*
X173650073Y-58107609D01*
X173650073Y-58107609D02*
X173697692Y-58131419D01*
X173697692Y-58131419D02*
X173745311Y-58179038D01*
X173745311Y-58179038D02*
X173769121Y-58274276D01*
X173769121Y-58274276D02*
X173769121Y-58440942D01*
X173769121Y-58440942D02*
X173745311Y-58536180D01*
X173745311Y-58536180D02*
X173697692Y-58583800D01*
X173697692Y-58583800D02*
X173650073Y-58607609D01*
X173650073Y-58607609D02*
X173554835Y-58607609D01*
X173554835Y-58607609D02*
X173507216Y-58583800D01*
X173507216Y-58583800D02*
X173459597Y-58536180D01*
X173459597Y-58536180D02*
X173435788Y-58440942D01*
X173435788Y-58440942D02*
X173435788Y-58274276D01*
X173435788Y-58274276D02*
X173459597Y-58179038D01*
X173459597Y-58179038D02*
X173507216Y-58131419D01*
X173507216Y-58131419D02*
X173554835Y-58107609D01*
X174364359Y-58607609D02*
X174364359Y-58107609D01*
X174364359Y-58107609D02*
X174650073Y-58607609D01*
X174650073Y-58607609D02*
X174650073Y-58107609D01*
X175173883Y-58607609D02*
X175007217Y-58369514D01*
X174888169Y-58607609D02*
X174888169Y-58107609D01*
X174888169Y-58107609D02*
X175078645Y-58107609D01*
X175078645Y-58107609D02*
X175126264Y-58131419D01*
X175126264Y-58131419D02*
X175150074Y-58155228D01*
X175150074Y-58155228D02*
X175173883Y-58202847D01*
X175173883Y-58202847D02*
X175173883Y-58274276D01*
X175173883Y-58274276D02*
X175150074Y-58321895D01*
X175150074Y-58321895D02*
X175126264Y-58345704D01*
X175126264Y-58345704D02*
X175078645Y-58369514D01*
X175078645Y-58369514D02*
X174888169Y-58369514D01*
X175364360Y-58583800D02*
X175435788Y-58607609D01*
X175435788Y-58607609D02*
X175554836Y-58607609D01*
X175554836Y-58607609D02*
X175602455Y-58583800D01*
X175602455Y-58583800D02*
X175626264Y-58559990D01*
X175626264Y-58559990D02*
X175650074Y-58512371D01*
X175650074Y-58512371D02*
X175650074Y-58464752D01*
X175650074Y-58464752D02*
X175626264Y-58417133D01*
X175626264Y-58417133D02*
X175602455Y-58393323D01*
X175602455Y-58393323D02*
X175554836Y-58369514D01*
X175554836Y-58369514D02*
X175459598Y-58345704D01*
X175459598Y-58345704D02*
X175411979Y-58321895D01*
X175411979Y-58321895D02*
X175388169Y-58298085D01*
X175388169Y-58298085D02*
X175364360Y-58250466D01*
X175364360Y-58250466D02*
X175364360Y-58202847D01*
X175364360Y-58202847D02*
X175388169Y-58155228D01*
X175388169Y-58155228D02*
X175411979Y-58131419D01*
X175411979Y-58131419D02*
X175459598Y-58107609D01*
X175459598Y-58107609D02*
X175578645Y-58107609D01*
X175578645Y-58107609D02*
X175650074Y-58131419D01*
X175792931Y-58107609D02*
X176078645Y-58107609D01*
X175935788Y-58607609D02*
X175935788Y-58107609D01*
X176959596Y-58107609D02*
X177269120Y-58107609D01*
X177269120Y-58107609D02*
X177102453Y-58298085D01*
X177102453Y-58298085D02*
X177173882Y-58298085D01*
X177173882Y-58298085D02*
X177221501Y-58321895D01*
X177221501Y-58321895D02*
X177245310Y-58345704D01*
X177245310Y-58345704D02*
X177269120Y-58393323D01*
X177269120Y-58393323D02*
X177269120Y-58512371D01*
X177269120Y-58512371D02*
X177245310Y-58559990D01*
X177245310Y-58559990D02*
X177221501Y-58583800D01*
X177221501Y-58583800D02*
X177173882Y-58607609D01*
X177173882Y-58607609D02*
X177031025Y-58607609D01*
X177031025Y-58607609D02*
X176983406Y-58583800D01*
X176983406Y-58583800D02*
X176959596Y-58559990D01*
X177411977Y-58107609D02*
X177578643Y-58607609D01*
X177578643Y-58607609D02*
X177745310Y-58107609D01*
X177864357Y-58107609D02*
X178173881Y-58107609D01*
X178173881Y-58107609D02*
X178007214Y-58298085D01*
X178007214Y-58298085D02*
X178078643Y-58298085D01*
X178078643Y-58298085D02*
X178126262Y-58321895D01*
X178126262Y-58321895D02*
X178150071Y-58345704D01*
X178150071Y-58345704D02*
X178173881Y-58393323D01*
X178173881Y-58393323D02*
X178173881Y-58512371D01*
X178173881Y-58512371D02*
X178150071Y-58559990D01*
X178150071Y-58559990D02*
X178126262Y-58583800D01*
X178126262Y-58583800D02*
X178078643Y-58607609D01*
X178078643Y-58607609D02*
X177935786Y-58607609D01*
X177935786Y-58607609D02*
X177888167Y-58583800D01*
X177888167Y-58583800D02*
X177864357Y-58559990D01*
X166483408Y-63695609D02*
X166769122Y-63695609D01*
X166626265Y-64195609D02*
X166626265Y-63695609D01*
X166888169Y-63695609D02*
X167221502Y-64195609D01*
X167221502Y-63695609D02*
X166888169Y-64195609D01*
X169221500Y-64195609D02*
X169054834Y-63957514D01*
X168935786Y-64195609D02*
X168935786Y-63695609D01*
X168935786Y-63695609D02*
X169126262Y-63695609D01*
X169126262Y-63695609D02*
X169173881Y-63719419D01*
X169173881Y-63719419D02*
X169197691Y-63743228D01*
X169197691Y-63743228D02*
X169221500Y-63790847D01*
X169221500Y-63790847D02*
X169221500Y-63862276D01*
X169221500Y-63862276D02*
X169197691Y-63909895D01*
X169197691Y-63909895D02*
X169173881Y-63933704D01*
X169173881Y-63933704D02*
X169126262Y-63957514D01*
X169126262Y-63957514D02*
X168935786Y-63957514D01*
X169388167Y-63695609D02*
X169721500Y-64195609D01*
X169721500Y-63695609D02*
X169388167Y-64195609D01*
X171316737Y-63719419D02*
X171269118Y-63695609D01*
X171269118Y-63695609D02*
X171197689Y-63695609D01*
X171197689Y-63695609D02*
X171126261Y-63719419D01*
X171126261Y-63719419D02*
X171078642Y-63767038D01*
X171078642Y-63767038D02*
X171054832Y-63814657D01*
X171054832Y-63814657D02*
X171031023Y-63909895D01*
X171031023Y-63909895D02*
X171031023Y-63981323D01*
X171031023Y-63981323D02*
X171054832Y-64076561D01*
X171054832Y-64076561D02*
X171078642Y-64124180D01*
X171078642Y-64124180D02*
X171126261Y-64171800D01*
X171126261Y-64171800D02*
X171197689Y-64195609D01*
X171197689Y-64195609D02*
X171245308Y-64195609D01*
X171245308Y-64195609D02*
X171316737Y-64171800D01*
X171316737Y-64171800D02*
X171340546Y-64147990D01*
X171340546Y-64147990D02*
X171340546Y-63981323D01*
X171340546Y-63981323D02*
X171245308Y-63981323D01*
X171554832Y-64195609D02*
X171554832Y-63695609D01*
X171554832Y-63695609D02*
X171840546Y-64195609D01*
X171840546Y-64195609D02*
X171840546Y-63695609D01*
X172078642Y-64195609D02*
X172078642Y-63695609D01*
X172078642Y-63695609D02*
X172197690Y-63695609D01*
X172197690Y-63695609D02*
X172269118Y-63719419D01*
X172269118Y-63719419D02*
X172316737Y-63767038D01*
X172316737Y-63767038D02*
X172340547Y-63814657D01*
X172340547Y-63814657D02*
X172364356Y-63909895D01*
X172364356Y-63909895D02*
X172364356Y-63981323D01*
X172364356Y-63981323D02*
X172340547Y-64076561D01*
X172340547Y-64076561D02*
X172316737Y-64124180D01*
X172316737Y-64124180D02*
X172269118Y-64171800D01*
X172269118Y-64171800D02*
X172197690Y-64195609D01*
X172197690Y-64195609D02*
X172078642Y-64195609D01*
X174054831Y-63695609D02*
X174364355Y-63695609D01*
X174364355Y-63695609D02*
X174197688Y-63886085D01*
X174197688Y-63886085D02*
X174269117Y-63886085D01*
X174269117Y-63886085D02*
X174316736Y-63909895D01*
X174316736Y-63909895D02*
X174340545Y-63933704D01*
X174340545Y-63933704D02*
X174364355Y-63981323D01*
X174364355Y-63981323D02*
X174364355Y-64100371D01*
X174364355Y-64100371D02*
X174340545Y-64147990D01*
X174340545Y-64147990D02*
X174316736Y-64171800D01*
X174316736Y-64171800D02*
X174269117Y-64195609D01*
X174269117Y-64195609D02*
X174126260Y-64195609D01*
X174126260Y-64195609D02*
X174078641Y-64171800D01*
X174078641Y-64171800D02*
X174054831Y-64147990D01*
X174507212Y-63695609D02*
X174673878Y-64195609D01*
X174673878Y-64195609D02*
X174840545Y-63695609D01*
X174959592Y-63695609D02*
X175269116Y-63695609D01*
X175269116Y-63695609D02*
X175102449Y-63886085D01*
X175102449Y-63886085D02*
X175173878Y-63886085D01*
X175173878Y-63886085D02*
X175221497Y-63909895D01*
X175221497Y-63909895D02*
X175245306Y-63933704D01*
X175245306Y-63933704D02*
X175269116Y-63981323D01*
X175269116Y-63981323D02*
X175269116Y-64100371D01*
X175269116Y-64100371D02*
X175245306Y-64147990D01*
X175245306Y-64147990D02*
X175221497Y-64171800D01*
X175221497Y-64171800D02*
X175173878Y-64195609D01*
X175173878Y-64195609D02*
X175031021Y-64195609D01*
X175031021Y-64195609D02*
X174983402Y-64171800D01*
X174983402Y-64171800D02*
X174959592Y-64147990D01*
D10*
X180371905Y-38570819D02*
X180371905Y-39380342D01*
X180371905Y-39380342D02*
X180419524Y-39475580D01*
X180419524Y-39475580D02*
X180467143Y-39523200D01*
X180467143Y-39523200D02*
X180562381Y-39570819D01*
X180562381Y-39570819D02*
X180752857Y-39570819D01*
X180752857Y-39570819D02*
X180848095Y-39523200D01*
X180848095Y-39523200D02*
X180895714Y-39475580D01*
X180895714Y-39475580D02*
X180943333Y-39380342D01*
X180943333Y-39380342D02*
X180943333Y-38570819D01*
X181943333Y-39570819D02*
X181371905Y-39570819D01*
X181657619Y-39570819D02*
X181657619Y-38570819D01*
X181657619Y-38570819D02*
X181562381Y-38713676D01*
X181562381Y-38713676D02*
X181467143Y-38808914D01*
X181467143Y-38808914D02*
X181371905Y-38856533D01*
X182324286Y-38666057D02*
X182371905Y-38618438D01*
X182371905Y-38618438D02*
X182467143Y-38570819D01*
X182467143Y-38570819D02*
X182705238Y-38570819D01*
X182705238Y-38570819D02*
X182800476Y-38618438D01*
X182800476Y-38618438D02*
X182848095Y-38666057D01*
X182848095Y-38666057D02*
X182895714Y-38761295D01*
X182895714Y-38761295D02*
X182895714Y-38856533D01*
X182895714Y-38856533D02*
X182848095Y-38999390D01*
X182848095Y-38999390D02*
X182276667Y-39570819D01*
X182276667Y-39570819D02*
X182895714Y-39570819D01*
D12*
X118666380Y-97602318D02*
X118666380Y-98630413D01*
X118666380Y-98630413D02*
X118726857Y-98751365D01*
X118726857Y-98751365D02*
X118787333Y-98811842D01*
X118787333Y-98811842D02*
X118908285Y-98872318D01*
X118908285Y-98872318D02*
X119150190Y-98872318D01*
X119150190Y-98872318D02*
X119271142Y-98811842D01*
X119271142Y-98811842D02*
X119331619Y-98751365D01*
X119331619Y-98751365D02*
X119392095Y-98630413D01*
X119392095Y-98630413D02*
X119392095Y-97602318D01*
X119875904Y-97602318D02*
X120722571Y-97602318D01*
X120722571Y-97602318D02*
X120178285Y-98872318D01*
D10*
X153923343Y-59121160D02*
X153350923Y-59693580D01*
X153350923Y-59693580D02*
X153317251Y-59794595D01*
X153317251Y-59794595D02*
X153317251Y-59861939D01*
X153317251Y-59861939D02*
X153350923Y-59962954D01*
X153350923Y-59962954D02*
X153485610Y-60097641D01*
X153485610Y-60097641D02*
X153586625Y-60131313D01*
X153586625Y-60131313D02*
X153653969Y-60131313D01*
X153653969Y-60131313D02*
X153754984Y-60097641D01*
X153754984Y-60097641D02*
X154327404Y-59525221D01*
X154327404Y-60939435D02*
X153923343Y-60535374D01*
X154125373Y-60737404D02*
X154832480Y-60030298D01*
X154832480Y-60030298D02*
X154664121Y-60063969D01*
X154664121Y-60063969D02*
X154529434Y-60063969D01*
X154529434Y-60063969D02*
X154428419Y-60030298D01*
X104076667Y-58065200D02*
X104219524Y-58112819D01*
X104219524Y-58112819D02*
X104457619Y-58112819D01*
X104457619Y-58112819D02*
X104552857Y-58065200D01*
X104552857Y-58065200D02*
X104600476Y-58017580D01*
X104600476Y-58017580D02*
X104648095Y-57922342D01*
X104648095Y-57922342D02*
X104648095Y-57827104D01*
X104648095Y-57827104D02*
X104600476Y-57731866D01*
X104600476Y-57731866D02*
X104552857Y-57684247D01*
X104552857Y-57684247D02*
X104457619Y-57636628D01*
X104457619Y-57636628D02*
X104267143Y-57589009D01*
X104267143Y-57589009D02*
X104171905Y-57541390D01*
X104171905Y-57541390D02*
X104124286Y-57493771D01*
X104124286Y-57493771D02*
X104076667Y-57398533D01*
X104076667Y-57398533D02*
X104076667Y-57303295D01*
X104076667Y-57303295D02*
X104124286Y-57208057D01*
X104124286Y-57208057D02*
X104171905Y-57160438D01*
X104171905Y-57160438D02*
X104267143Y-57112819D01*
X104267143Y-57112819D02*
X104505238Y-57112819D01*
X104505238Y-57112819D02*
X104648095Y-57160438D01*
X104981429Y-57112819D02*
X105219524Y-58112819D01*
X105219524Y-58112819D02*
X105410000Y-57398533D01*
X105410000Y-57398533D02*
X105600476Y-58112819D01*
X105600476Y-58112819D02*
X105838572Y-57112819D01*
X106171905Y-57208057D02*
X106219524Y-57160438D01*
X106219524Y-57160438D02*
X106314762Y-57112819D01*
X106314762Y-57112819D02*
X106552857Y-57112819D01*
X106552857Y-57112819D02*
X106648095Y-57160438D01*
X106648095Y-57160438D02*
X106695714Y-57208057D01*
X106695714Y-57208057D02*
X106743333Y-57303295D01*
X106743333Y-57303295D02*
X106743333Y-57398533D01*
X106743333Y-57398533D02*
X106695714Y-57541390D01*
X106695714Y-57541390D02*
X106124286Y-58112819D01*
X106124286Y-58112819D02*
X106743333Y-58112819D01*
X157125200Y-61785332D02*
X157172819Y-61642475D01*
X157172819Y-61642475D02*
X157172819Y-61404380D01*
X157172819Y-61404380D02*
X157125200Y-61309142D01*
X157125200Y-61309142D02*
X157077580Y-61261523D01*
X157077580Y-61261523D02*
X156982342Y-61213904D01*
X156982342Y-61213904D02*
X156887104Y-61213904D01*
X156887104Y-61213904D02*
X156791866Y-61261523D01*
X156791866Y-61261523D02*
X156744247Y-61309142D01*
X156744247Y-61309142D02*
X156696628Y-61404380D01*
X156696628Y-61404380D02*
X156649009Y-61594856D01*
X156649009Y-61594856D02*
X156601390Y-61690094D01*
X156601390Y-61690094D02*
X156553771Y-61737713D01*
X156553771Y-61737713D02*
X156458533Y-61785332D01*
X156458533Y-61785332D02*
X156363295Y-61785332D01*
X156363295Y-61785332D02*
X156268057Y-61737713D01*
X156268057Y-61737713D02*
X156220438Y-61690094D01*
X156220438Y-61690094D02*
X156172819Y-61594856D01*
X156172819Y-61594856D02*
X156172819Y-61356761D01*
X156172819Y-61356761D02*
X156220438Y-61213904D01*
X156172819Y-60880570D02*
X157172819Y-60642475D01*
X157172819Y-60642475D02*
X156458533Y-60451999D01*
X156458533Y-60451999D02*
X157172819Y-60261523D01*
X157172819Y-60261523D02*
X156172819Y-60023428D01*
X157172819Y-59118666D02*
X157172819Y-59690094D01*
X157172819Y-59404380D02*
X156172819Y-59404380D01*
X156172819Y-59404380D02*
X156315676Y-59499618D01*
X156315676Y-59499618D02*
X156410914Y-59594856D01*
X156410914Y-59594856D02*
X156458533Y-59690094D01*
X178458879Y-89143161D02*
X178077926Y-89409828D01*
X178458879Y-89600304D02*
X177658879Y-89600304D01*
X177658879Y-89600304D02*
X177658879Y-89295542D01*
X177658879Y-89295542D02*
X177696974Y-89219352D01*
X177696974Y-89219352D02*
X177735069Y-89181257D01*
X177735069Y-89181257D02*
X177811260Y-89143161D01*
X177811260Y-89143161D02*
X177925545Y-89143161D01*
X177925545Y-89143161D02*
X178001736Y-89181257D01*
X178001736Y-89181257D02*
X178039831Y-89219352D01*
X178039831Y-89219352D02*
X178077926Y-89295542D01*
X178077926Y-89295542D02*
X178077926Y-89600304D01*
X178001736Y-88686019D02*
X177963641Y-88762209D01*
X177963641Y-88762209D02*
X177925545Y-88800304D01*
X177925545Y-88800304D02*
X177849355Y-88838400D01*
X177849355Y-88838400D02*
X177811260Y-88838400D01*
X177811260Y-88838400D02*
X177735069Y-88800304D01*
X177735069Y-88800304D02*
X177696974Y-88762209D01*
X177696974Y-88762209D02*
X177658879Y-88686019D01*
X177658879Y-88686019D02*
X177658879Y-88533638D01*
X177658879Y-88533638D02*
X177696974Y-88457447D01*
X177696974Y-88457447D02*
X177735069Y-88419352D01*
X177735069Y-88419352D02*
X177811260Y-88381257D01*
X177811260Y-88381257D02*
X177849355Y-88381257D01*
X177849355Y-88381257D02*
X177925545Y-88419352D01*
X177925545Y-88419352D02*
X177963641Y-88457447D01*
X177963641Y-88457447D02*
X178001736Y-88533638D01*
X178001736Y-88533638D02*
X178001736Y-88686019D01*
X178001736Y-88686019D02*
X178039831Y-88762209D01*
X178039831Y-88762209D02*
X178077926Y-88800304D01*
X178077926Y-88800304D02*
X178154117Y-88838400D01*
X178154117Y-88838400D02*
X178306498Y-88838400D01*
X178306498Y-88838400D02*
X178382688Y-88800304D01*
X178382688Y-88800304D02*
X178420784Y-88762209D01*
X178420784Y-88762209D02*
X178458879Y-88686019D01*
X178458879Y-88686019D02*
X178458879Y-88533638D01*
X178458879Y-88533638D02*
X178420784Y-88457447D01*
X178420784Y-88457447D02*
X178382688Y-88419352D01*
X178382688Y-88419352D02*
X178306498Y-88381257D01*
X178306498Y-88381257D02*
X178154117Y-88381257D01*
X178154117Y-88381257D02*
X178077926Y-88419352D01*
X178077926Y-88419352D02*
X178039831Y-88457447D01*
X178039831Y-88457447D02*
X178001736Y-88533638D01*
X177658879Y-87657447D02*
X177658879Y-88038399D01*
X177658879Y-88038399D02*
X178039831Y-88076495D01*
X178039831Y-88076495D02*
X178001736Y-88038399D01*
X178001736Y-88038399D02*
X177963641Y-87962209D01*
X177963641Y-87962209D02*
X177963641Y-87771733D01*
X177963641Y-87771733D02*
X178001736Y-87695542D01*
X178001736Y-87695542D02*
X178039831Y-87657447D01*
X178039831Y-87657447D02*
X178116022Y-87619352D01*
X178116022Y-87619352D02*
X178306498Y-87619352D01*
X178306498Y-87619352D02*
X178382688Y-87657447D01*
X178382688Y-87657447D02*
X178420784Y-87695542D01*
X178420784Y-87695542D02*
X178458879Y-87771733D01*
X178458879Y-87771733D02*
X178458879Y-87962209D01*
X178458879Y-87962209D02*
X178420784Y-88038399D01*
X178420784Y-88038399D02*
X178382688Y-88076495D01*
X180701436Y-89063070D02*
X180320483Y-89329737D01*
X180701436Y-89520213D02*
X179901436Y-89520213D01*
X179901436Y-89520213D02*
X179901436Y-89215451D01*
X179901436Y-89215451D02*
X179939531Y-89139261D01*
X179939531Y-89139261D02*
X179977626Y-89101166D01*
X179977626Y-89101166D02*
X180053817Y-89063070D01*
X180053817Y-89063070D02*
X180168102Y-89063070D01*
X180168102Y-89063070D02*
X180244293Y-89101166D01*
X180244293Y-89101166D02*
X180282388Y-89139261D01*
X180282388Y-89139261D02*
X180320483Y-89215451D01*
X180320483Y-89215451D02*
X180320483Y-89520213D01*
X180244293Y-88605928D02*
X180206198Y-88682118D01*
X180206198Y-88682118D02*
X180168102Y-88720213D01*
X180168102Y-88720213D02*
X180091912Y-88758309D01*
X180091912Y-88758309D02*
X180053817Y-88758309D01*
X180053817Y-88758309D02*
X179977626Y-88720213D01*
X179977626Y-88720213D02*
X179939531Y-88682118D01*
X179939531Y-88682118D02*
X179901436Y-88605928D01*
X179901436Y-88605928D02*
X179901436Y-88453547D01*
X179901436Y-88453547D02*
X179939531Y-88377356D01*
X179939531Y-88377356D02*
X179977626Y-88339261D01*
X179977626Y-88339261D02*
X180053817Y-88301166D01*
X180053817Y-88301166D02*
X180091912Y-88301166D01*
X180091912Y-88301166D02*
X180168102Y-88339261D01*
X180168102Y-88339261D02*
X180206198Y-88377356D01*
X180206198Y-88377356D02*
X180244293Y-88453547D01*
X180244293Y-88453547D02*
X180244293Y-88605928D01*
X180244293Y-88605928D02*
X180282388Y-88682118D01*
X180282388Y-88682118D02*
X180320483Y-88720213D01*
X180320483Y-88720213D02*
X180396674Y-88758309D01*
X180396674Y-88758309D02*
X180549055Y-88758309D01*
X180549055Y-88758309D02*
X180625245Y-88720213D01*
X180625245Y-88720213D02*
X180663341Y-88682118D01*
X180663341Y-88682118D02*
X180701436Y-88605928D01*
X180701436Y-88605928D02*
X180701436Y-88453547D01*
X180701436Y-88453547D02*
X180663341Y-88377356D01*
X180663341Y-88377356D02*
X180625245Y-88339261D01*
X180625245Y-88339261D02*
X180549055Y-88301166D01*
X180549055Y-88301166D02*
X180396674Y-88301166D01*
X180396674Y-88301166D02*
X180320483Y-88339261D01*
X180320483Y-88339261D02*
X180282388Y-88377356D01*
X180282388Y-88377356D02*
X180244293Y-88453547D01*
X180168102Y-87615451D02*
X180701436Y-87615451D01*
X179863341Y-87805927D02*
X180434769Y-87996404D01*
X180434769Y-87996404D02*
X180434769Y-87501165D01*
X177919142Y-39570819D02*
X177585809Y-39094628D01*
X177347714Y-39570819D02*
X177347714Y-38570819D01*
X177347714Y-38570819D02*
X177728666Y-38570819D01*
X177728666Y-38570819D02*
X177823904Y-38618438D01*
X177823904Y-38618438D02*
X177871523Y-38666057D01*
X177871523Y-38666057D02*
X177919142Y-38761295D01*
X177919142Y-38761295D02*
X177919142Y-38904152D01*
X177919142Y-38904152D02*
X177871523Y-38999390D01*
X177871523Y-38999390D02*
X177823904Y-39047009D01*
X177823904Y-39047009D02*
X177728666Y-39094628D01*
X177728666Y-39094628D02*
X177347714Y-39094628D01*
X178252476Y-38570819D02*
X178919142Y-38570819D01*
X178919142Y-38570819D02*
X178490571Y-39570819D01*
X179442952Y-38999390D02*
X179347714Y-38951771D01*
X179347714Y-38951771D02*
X179300095Y-38904152D01*
X179300095Y-38904152D02*
X179252476Y-38808914D01*
X179252476Y-38808914D02*
X179252476Y-38761295D01*
X179252476Y-38761295D02*
X179300095Y-38666057D01*
X179300095Y-38666057D02*
X179347714Y-38618438D01*
X179347714Y-38618438D02*
X179442952Y-38570819D01*
X179442952Y-38570819D02*
X179633428Y-38570819D01*
X179633428Y-38570819D02*
X179728666Y-38618438D01*
X179728666Y-38618438D02*
X179776285Y-38666057D01*
X179776285Y-38666057D02*
X179823904Y-38761295D01*
X179823904Y-38761295D02*
X179823904Y-38808914D01*
X179823904Y-38808914D02*
X179776285Y-38904152D01*
X179776285Y-38904152D02*
X179728666Y-38951771D01*
X179728666Y-38951771D02*
X179633428Y-38999390D01*
X179633428Y-38999390D02*
X179442952Y-38999390D01*
X179442952Y-38999390D02*
X179347714Y-39047009D01*
X179347714Y-39047009D02*
X179300095Y-39094628D01*
X179300095Y-39094628D02*
X179252476Y-39189866D01*
X179252476Y-39189866D02*
X179252476Y-39380342D01*
X179252476Y-39380342D02*
X179300095Y-39475580D01*
X179300095Y-39475580D02*
X179347714Y-39523200D01*
X179347714Y-39523200D02*
X179442952Y-39570819D01*
X179442952Y-39570819D02*
X179633428Y-39570819D01*
X179633428Y-39570819D02*
X179728666Y-39523200D01*
X179728666Y-39523200D02*
X179776285Y-39475580D01*
X179776285Y-39475580D02*
X179823904Y-39380342D01*
X179823904Y-39380342D02*
X179823904Y-39189866D01*
X179823904Y-39189866D02*
X179776285Y-39094628D01*
X179776285Y-39094628D02*
X179728666Y-39047009D01*
X179728666Y-39047009D02*
X179633428Y-38999390D01*
X158869142Y-39570819D02*
X158535809Y-39094628D01*
X158297714Y-39570819D02*
X158297714Y-38570819D01*
X158297714Y-38570819D02*
X158678666Y-38570819D01*
X158678666Y-38570819D02*
X158773904Y-38618438D01*
X158773904Y-38618438D02*
X158821523Y-38666057D01*
X158821523Y-38666057D02*
X158869142Y-38761295D01*
X158869142Y-38761295D02*
X158869142Y-38904152D01*
X158869142Y-38904152D02*
X158821523Y-38999390D01*
X158821523Y-38999390D02*
X158773904Y-39047009D01*
X158773904Y-39047009D02*
X158678666Y-39094628D01*
X158678666Y-39094628D02*
X158297714Y-39094628D01*
X159202476Y-38570819D02*
X159869142Y-38570819D01*
X159869142Y-38570819D02*
X159440571Y-39570819D01*
X160154857Y-38570819D02*
X160821523Y-38570819D01*
X160821523Y-38570819D02*
X160392952Y-39570819D01*
X155567142Y-39570819D02*
X155233809Y-39094628D01*
X154995714Y-39570819D02*
X154995714Y-38570819D01*
X154995714Y-38570819D02*
X155376666Y-38570819D01*
X155376666Y-38570819D02*
X155471904Y-38618438D01*
X155471904Y-38618438D02*
X155519523Y-38666057D01*
X155519523Y-38666057D02*
X155567142Y-38761295D01*
X155567142Y-38761295D02*
X155567142Y-38904152D01*
X155567142Y-38904152D02*
X155519523Y-38999390D01*
X155519523Y-38999390D02*
X155471904Y-39047009D01*
X155471904Y-39047009D02*
X155376666Y-39094628D01*
X155376666Y-39094628D02*
X154995714Y-39094628D01*
X155900476Y-38570819D02*
X156567142Y-38570819D01*
X156567142Y-38570819D02*
X156138571Y-39570819D01*
X157376666Y-38570819D02*
X157186190Y-38570819D01*
X157186190Y-38570819D02*
X157090952Y-38618438D01*
X157090952Y-38618438D02*
X157043333Y-38666057D01*
X157043333Y-38666057D02*
X156948095Y-38808914D01*
X156948095Y-38808914D02*
X156900476Y-38999390D01*
X156900476Y-38999390D02*
X156900476Y-39380342D01*
X156900476Y-39380342D02*
X156948095Y-39475580D01*
X156948095Y-39475580D02*
X156995714Y-39523200D01*
X156995714Y-39523200D02*
X157090952Y-39570819D01*
X157090952Y-39570819D02*
X157281428Y-39570819D01*
X157281428Y-39570819D02*
X157376666Y-39523200D01*
X157376666Y-39523200D02*
X157424285Y-39475580D01*
X157424285Y-39475580D02*
X157471904Y-39380342D01*
X157471904Y-39380342D02*
X157471904Y-39142247D01*
X157471904Y-39142247D02*
X157424285Y-39047009D01*
X157424285Y-39047009D02*
X157376666Y-38999390D01*
X157376666Y-38999390D02*
X157281428Y-38951771D01*
X157281428Y-38951771D02*
X157090952Y-38951771D01*
X157090952Y-38951771D02*
X156995714Y-38999390D01*
X156995714Y-38999390D02*
X156948095Y-39047009D01*
X156948095Y-39047009D02*
X156900476Y-39142247D01*
X175915979Y-89103116D02*
X175535026Y-89369783D01*
X175915979Y-89560259D02*
X175115979Y-89560259D01*
X175115979Y-89560259D02*
X175115979Y-89255497D01*
X175115979Y-89255497D02*
X175154074Y-89179307D01*
X175154074Y-89179307D02*
X175192169Y-89141212D01*
X175192169Y-89141212D02*
X175268360Y-89103116D01*
X175268360Y-89103116D02*
X175382645Y-89103116D01*
X175382645Y-89103116D02*
X175458836Y-89141212D01*
X175458836Y-89141212D02*
X175496931Y-89179307D01*
X175496931Y-89179307D02*
X175535026Y-89255497D01*
X175535026Y-89255497D02*
X175535026Y-89560259D01*
X175115979Y-88379307D02*
X175115979Y-88760259D01*
X175115979Y-88760259D02*
X175496931Y-88798355D01*
X175496931Y-88798355D02*
X175458836Y-88760259D01*
X175458836Y-88760259D02*
X175420741Y-88684069D01*
X175420741Y-88684069D02*
X175420741Y-88493593D01*
X175420741Y-88493593D02*
X175458836Y-88417402D01*
X175458836Y-88417402D02*
X175496931Y-88379307D01*
X175496931Y-88379307D02*
X175573122Y-88341212D01*
X175573122Y-88341212D02*
X175763598Y-88341212D01*
X175763598Y-88341212D02*
X175839788Y-88379307D01*
X175839788Y-88379307D02*
X175877884Y-88417402D01*
X175877884Y-88417402D02*
X175915979Y-88493593D01*
X175915979Y-88493593D02*
X175915979Y-88684069D01*
X175915979Y-88684069D02*
X175877884Y-88760259D01*
X175877884Y-88760259D02*
X175839788Y-88798355D01*
X175458836Y-87884069D02*
X175420741Y-87960259D01*
X175420741Y-87960259D02*
X175382645Y-87998354D01*
X175382645Y-87998354D02*
X175306455Y-88036450D01*
X175306455Y-88036450D02*
X175268360Y-88036450D01*
X175268360Y-88036450D02*
X175192169Y-87998354D01*
X175192169Y-87998354D02*
X175154074Y-87960259D01*
X175154074Y-87960259D02*
X175115979Y-87884069D01*
X175115979Y-87884069D02*
X175115979Y-87731688D01*
X175115979Y-87731688D02*
X175154074Y-87655497D01*
X175154074Y-87655497D02*
X175192169Y-87617402D01*
X175192169Y-87617402D02*
X175268360Y-87579307D01*
X175268360Y-87579307D02*
X175306455Y-87579307D01*
X175306455Y-87579307D02*
X175382645Y-87617402D01*
X175382645Y-87617402D02*
X175420741Y-87655497D01*
X175420741Y-87655497D02*
X175458836Y-87731688D01*
X175458836Y-87731688D02*
X175458836Y-87884069D01*
X175458836Y-87884069D02*
X175496931Y-87960259D01*
X175496931Y-87960259D02*
X175535026Y-87998354D01*
X175535026Y-87998354D02*
X175611217Y-88036450D01*
X175611217Y-88036450D02*
X175763598Y-88036450D01*
X175763598Y-88036450D02*
X175839788Y-87998354D01*
X175839788Y-87998354D02*
X175877884Y-87960259D01*
X175877884Y-87960259D02*
X175915979Y-87884069D01*
X175915979Y-87884069D02*
X175915979Y-87731688D01*
X175915979Y-87731688D02*
X175877884Y-87655497D01*
X175877884Y-87655497D02*
X175839788Y-87617402D01*
X175839788Y-87617402D02*
X175763598Y-87579307D01*
X175763598Y-87579307D02*
X175611217Y-87579307D01*
X175611217Y-87579307D02*
X175535026Y-87617402D01*
X175535026Y-87617402D02*
X175496931Y-87655497D01*
X175496931Y-87655497D02*
X175458836Y-87731688D01*
X174098295Y-89083093D02*
X173717342Y-89349760D01*
X174098295Y-89540236D02*
X173298295Y-89540236D01*
X173298295Y-89540236D02*
X173298295Y-89235474D01*
X173298295Y-89235474D02*
X173336390Y-89159284D01*
X173336390Y-89159284D02*
X173374485Y-89121189D01*
X173374485Y-89121189D02*
X173450676Y-89083093D01*
X173450676Y-89083093D02*
X173564961Y-89083093D01*
X173564961Y-89083093D02*
X173641152Y-89121189D01*
X173641152Y-89121189D02*
X173679247Y-89159284D01*
X173679247Y-89159284D02*
X173717342Y-89235474D01*
X173717342Y-89235474D02*
X173717342Y-89540236D01*
X173298295Y-88359284D02*
X173298295Y-88740236D01*
X173298295Y-88740236D02*
X173679247Y-88778332D01*
X173679247Y-88778332D02*
X173641152Y-88740236D01*
X173641152Y-88740236D02*
X173603057Y-88664046D01*
X173603057Y-88664046D02*
X173603057Y-88473570D01*
X173603057Y-88473570D02*
X173641152Y-88397379D01*
X173641152Y-88397379D02*
X173679247Y-88359284D01*
X173679247Y-88359284D02*
X173755438Y-88321189D01*
X173755438Y-88321189D02*
X173945914Y-88321189D01*
X173945914Y-88321189D02*
X174022104Y-88359284D01*
X174022104Y-88359284D02*
X174060200Y-88397379D01*
X174060200Y-88397379D02*
X174098295Y-88473570D01*
X174098295Y-88473570D02*
X174098295Y-88664046D01*
X174098295Y-88664046D02*
X174060200Y-88740236D01*
X174060200Y-88740236D02*
X174022104Y-88778332D01*
X173298295Y-88054522D02*
X173298295Y-87521188D01*
X173298295Y-87521188D02*
X174098295Y-87864046D01*
X172066295Y-89083093D02*
X171685342Y-89349760D01*
X172066295Y-89540236D02*
X171266295Y-89540236D01*
X171266295Y-89540236D02*
X171266295Y-89235474D01*
X171266295Y-89235474D02*
X171304390Y-89159284D01*
X171304390Y-89159284D02*
X171342485Y-89121189D01*
X171342485Y-89121189D02*
X171418676Y-89083093D01*
X171418676Y-89083093D02*
X171532961Y-89083093D01*
X171532961Y-89083093D02*
X171609152Y-89121189D01*
X171609152Y-89121189D02*
X171647247Y-89159284D01*
X171647247Y-89159284D02*
X171685342Y-89235474D01*
X171685342Y-89235474D02*
X171685342Y-89540236D01*
X171266295Y-88359284D02*
X171266295Y-88740236D01*
X171266295Y-88740236D02*
X171647247Y-88778332D01*
X171647247Y-88778332D02*
X171609152Y-88740236D01*
X171609152Y-88740236D02*
X171571057Y-88664046D01*
X171571057Y-88664046D02*
X171571057Y-88473570D01*
X171571057Y-88473570D02*
X171609152Y-88397379D01*
X171609152Y-88397379D02*
X171647247Y-88359284D01*
X171647247Y-88359284D02*
X171723438Y-88321189D01*
X171723438Y-88321189D02*
X171913914Y-88321189D01*
X171913914Y-88321189D02*
X171990104Y-88359284D01*
X171990104Y-88359284D02*
X172028200Y-88397379D01*
X172028200Y-88397379D02*
X172066295Y-88473570D01*
X172066295Y-88473570D02*
X172066295Y-88664046D01*
X172066295Y-88664046D02*
X172028200Y-88740236D01*
X172028200Y-88740236D02*
X171990104Y-88778332D01*
X171266295Y-87635474D02*
X171266295Y-87787855D01*
X171266295Y-87787855D02*
X171304390Y-87864046D01*
X171304390Y-87864046D02*
X171342485Y-87902141D01*
X171342485Y-87902141D02*
X171456771Y-87978331D01*
X171456771Y-87978331D02*
X171609152Y-88016427D01*
X171609152Y-88016427D02*
X171913914Y-88016427D01*
X171913914Y-88016427D02*
X171990104Y-87978331D01*
X171990104Y-87978331D02*
X172028200Y-87940236D01*
X172028200Y-87940236D02*
X172066295Y-87864046D01*
X172066295Y-87864046D02*
X172066295Y-87711665D01*
X172066295Y-87711665D02*
X172028200Y-87635474D01*
X172028200Y-87635474D02*
X171990104Y-87597379D01*
X171990104Y-87597379D02*
X171913914Y-87559284D01*
X171913914Y-87559284D02*
X171723438Y-87559284D01*
X171723438Y-87559284D02*
X171647247Y-87597379D01*
X171647247Y-87597379D02*
X171609152Y-87635474D01*
X171609152Y-87635474D02*
X171571057Y-87711665D01*
X171571057Y-87711665D02*
X171571057Y-87864046D01*
X171571057Y-87864046D02*
X171609152Y-87940236D01*
X171609152Y-87940236D02*
X171647247Y-87978331D01*
X171647247Y-87978331D02*
X171723438Y-88016427D01*
D11*
X131502999Y-40196633D02*
X131269666Y-39863300D01*
X131102999Y-40196633D02*
X131102999Y-39496633D01*
X131102999Y-39496633D02*
X131369666Y-39496633D01*
X131369666Y-39496633D02*
X131436333Y-39529966D01*
X131436333Y-39529966D02*
X131469666Y-39563300D01*
X131469666Y-39563300D02*
X131502999Y-39629966D01*
X131502999Y-39629966D02*
X131502999Y-39729966D01*
X131502999Y-39729966D02*
X131469666Y-39796633D01*
X131469666Y-39796633D02*
X131436333Y-39829966D01*
X131436333Y-39829966D02*
X131369666Y-39863300D01*
X131369666Y-39863300D02*
X131102999Y-39863300D01*
X132102999Y-39729966D02*
X132102999Y-40196633D01*
X131936333Y-39463300D02*
X131769666Y-39963300D01*
X131769666Y-39963300D02*
X132202999Y-39963300D01*
X132769666Y-39496633D02*
X132636333Y-39496633D01*
X132636333Y-39496633D02*
X132569666Y-39529966D01*
X132569666Y-39529966D02*
X132536333Y-39563300D01*
X132536333Y-39563300D02*
X132469666Y-39663300D01*
X132469666Y-39663300D02*
X132436333Y-39796633D01*
X132436333Y-39796633D02*
X132436333Y-40063300D01*
X132436333Y-40063300D02*
X132469666Y-40129966D01*
X132469666Y-40129966D02*
X132503000Y-40163300D01*
X132503000Y-40163300D02*
X132569666Y-40196633D01*
X132569666Y-40196633D02*
X132703000Y-40196633D01*
X132703000Y-40196633D02*
X132769666Y-40163300D01*
X132769666Y-40163300D02*
X132803000Y-40129966D01*
X132803000Y-40129966D02*
X132836333Y-40063300D01*
X132836333Y-40063300D02*
X132836333Y-39896633D01*
X132836333Y-39896633D02*
X132803000Y-39829966D01*
X132803000Y-39829966D02*
X132769666Y-39796633D01*
X132769666Y-39796633D02*
X132703000Y-39763300D01*
X132703000Y-39763300D02*
X132569666Y-39763300D01*
X132569666Y-39763300D02*
X132503000Y-39796633D01*
X132503000Y-39796633D02*
X132469666Y-39829966D01*
X132469666Y-39829966D02*
X132436333Y-39896633D01*
X128962999Y-40196633D02*
X128729666Y-39863300D01*
X128562999Y-40196633D02*
X128562999Y-39496633D01*
X128562999Y-39496633D02*
X128829666Y-39496633D01*
X128829666Y-39496633D02*
X128896333Y-39529966D01*
X128896333Y-39529966D02*
X128929666Y-39563300D01*
X128929666Y-39563300D02*
X128962999Y-39629966D01*
X128962999Y-39629966D02*
X128962999Y-39729966D01*
X128962999Y-39729966D02*
X128929666Y-39796633D01*
X128929666Y-39796633D02*
X128896333Y-39829966D01*
X128896333Y-39829966D02*
X128829666Y-39863300D01*
X128829666Y-39863300D02*
X128562999Y-39863300D01*
X129562999Y-39729966D02*
X129562999Y-40196633D01*
X129396333Y-39463300D02*
X129229666Y-39963300D01*
X129229666Y-39963300D02*
X129662999Y-39963300D01*
X130263000Y-39496633D02*
X129929666Y-39496633D01*
X129929666Y-39496633D02*
X129896333Y-39829966D01*
X129896333Y-39829966D02*
X129929666Y-39796633D01*
X129929666Y-39796633D02*
X129996333Y-39763300D01*
X129996333Y-39763300D02*
X130163000Y-39763300D01*
X130163000Y-39763300D02*
X130229666Y-39796633D01*
X130229666Y-39796633D02*
X130263000Y-39829966D01*
X130263000Y-39829966D02*
X130296333Y-39896633D01*
X130296333Y-39896633D02*
X130296333Y-40063300D01*
X130296333Y-40063300D02*
X130263000Y-40129966D01*
X130263000Y-40129966D02*
X130229666Y-40163300D01*
X130229666Y-40163300D02*
X130163000Y-40196633D01*
X130163000Y-40196633D02*
X129996333Y-40196633D01*
X129996333Y-40196633D02*
X129929666Y-40163300D01*
X129929666Y-40163300D02*
X129896333Y-40129966D01*
D10*
X146758819Y-86748857D02*
X146282628Y-87082190D01*
X146758819Y-87320285D02*
X145758819Y-87320285D01*
X145758819Y-87320285D02*
X145758819Y-86939333D01*
X145758819Y-86939333D02*
X145806438Y-86844095D01*
X145806438Y-86844095D02*
X145854057Y-86796476D01*
X145854057Y-86796476D02*
X145949295Y-86748857D01*
X145949295Y-86748857D02*
X146092152Y-86748857D01*
X146092152Y-86748857D02*
X146187390Y-86796476D01*
X146187390Y-86796476D02*
X146235009Y-86844095D01*
X146235009Y-86844095D02*
X146282628Y-86939333D01*
X146282628Y-86939333D02*
X146282628Y-87320285D01*
X146758819Y-85796476D02*
X146758819Y-86367904D01*
X146758819Y-86082190D02*
X145758819Y-86082190D01*
X145758819Y-86082190D02*
X145901676Y-86177428D01*
X145901676Y-86177428D02*
X145996914Y-86272666D01*
X145996914Y-86272666D02*
X146044533Y-86367904D01*
X146758819Y-85320285D02*
X146758819Y-85129809D01*
X146758819Y-85129809D02*
X146711200Y-85034571D01*
X146711200Y-85034571D02*
X146663580Y-84986952D01*
X146663580Y-84986952D02*
X146520723Y-84891714D01*
X146520723Y-84891714D02*
X146330247Y-84844095D01*
X146330247Y-84844095D02*
X145949295Y-84844095D01*
X145949295Y-84844095D02*
X145854057Y-84891714D01*
X145854057Y-84891714D02*
X145806438Y-84939333D01*
X145806438Y-84939333D02*
X145758819Y-85034571D01*
X145758819Y-85034571D02*
X145758819Y-85225047D01*
X145758819Y-85225047D02*
X145806438Y-85320285D01*
X145806438Y-85320285D02*
X145854057Y-85367904D01*
X145854057Y-85367904D02*
X145949295Y-85415523D01*
X145949295Y-85415523D02*
X146187390Y-85415523D01*
X146187390Y-85415523D02*
X146282628Y-85367904D01*
X146282628Y-85367904D02*
X146330247Y-85320285D01*
X146330247Y-85320285D02*
X146377866Y-85225047D01*
X146377866Y-85225047D02*
X146377866Y-85034571D01*
X146377866Y-85034571D02*
X146330247Y-84939333D01*
X146330247Y-84939333D02*
X146282628Y-84891714D01*
X146282628Y-84891714D02*
X146187390Y-84844095D01*
X157172819Y-86931166D02*
X156696628Y-87264499D01*
X157172819Y-87502594D02*
X156172819Y-87502594D01*
X156172819Y-87502594D02*
X156172819Y-87121642D01*
X156172819Y-87121642D02*
X156220438Y-87026404D01*
X156220438Y-87026404D02*
X156268057Y-86978785D01*
X156268057Y-86978785D02*
X156363295Y-86931166D01*
X156363295Y-86931166D02*
X156506152Y-86931166D01*
X156506152Y-86931166D02*
X156601390Y-86978785D01*
X156601390Y-86978785D02*
X156649009Y-87026404D01*
X156649009Y-87026404D02*
X156696628Y-87121642D01*
X156696628Y-87121642D02*
X156696628Y-87502594D01*
X156172819Y-86026404D02*
X156172819Y-86502594D01*
X156172819Y-86502594D02*
X156649009Y-86550213D01*
X156649009Y-86550213D02*
X156601390Y-86502594D01*
X156601390Y-86502594D02*
X156553771Y-86407356D01*
X156553771Y-86407356D02*
X156553771Y-86169261D01*
X156553771Y-86169261D02*
X156601390Y-86074023D01*
X156601390Y-86074023D02*
X156649009Y-86026404D01*
X156649009Y-86026404D02*
X156744247Y-85978785D01*
X156744247Y-85978785D02*
X156982342Y-85978785D01*
X156982342Y-85978785D02*
X157077580Y-86026404D01*
X157077580Y-86026404D02*
X157125200Y-86074023D01*
X157125200Y-86074023D02*
X157172819Y-86169261D01*
X157172819Y-86169261D02*
X157172819Y-86407356D01*
X157172819Y-86407356D02*
X157125200Y-86502594D01*
X157125200Y-86502594D02*
X157077580Y-86550213D01*
X172680333Y-42110819D02*
X172347000Y-41634628D01*
X172108905Y-42110819D02*
X172108905Y-41110819D01*
X172108905Y-41110819D02*
X172489857Y-41110819D01*
X172489857Y-41110819D02*
X172585095Y-41158438D01*
X172585095Y-41158438D02*
X172632714Y-41206057D01*
X172632714Y-41206057D02*
X172680333Y-41301295D01*
X172680333Y-41301295D02*
X172680333Y-41444152D01*
X172680333Y-41444152D02*
X172632714Y-41539390D01*
X172632714Y-41539390D02*
X172585095Y-41587009D01*
X172585095Y-41587009D02*
X172489857Y-41634628D01*
X172489857Y-41634628D02*
X172108905Y-41634628D01*
X173013667Y-41110819D02*
X173632714Y-41110819D01*
X173632714Y-41110819D02*
X173299381Y-41491771D01*
X173299381Y-41491771D02*
X173442238Y-41491771D01*
X173442238Y-41491771D02*
X173537476Y-41539390D01*
X173537476Y-41539390D02*
X173585095Y-41587009D01*
X173585095Y-41587009D02*
X173632714Y-41682247D01*
X173632714Y-41682247D02*
X173632714Y-41920342D01*
X173632714Y-41920342D02*
X173585095Y-42015580D01*
X173585095Y-42015580D02*
X173537476Y-42063200D01*
X173537476Y-42063200D02*
X173442238Y-42110819D01*
X173442238Y-42110819D02*
X173156524Y-42110819D01*
X173156524Y-42110819D02*
X173061286Y-42063200D01*
X173061286Y-42063200D02*
X173013667Y-42015580D01*
X152138476Y-89314819D02*
X152138476Y-88314819D01*
X152138476Y-88314819D02*
X152471809Y-89029104D01*
X152471809Y-89029104D02*
X152805142Y-88314819D01*
X152805142Y-88314819D02*
X152805142Y-89314819D01*
X153233714Y-88410057D02*
X153281333Y-88362438D01*
X153281333Y-88362438D02*
X153376571Y-88314819D01*
X153376571Y-88314819D02*
X153614666Y-88314819D01*
X153614666Y-88314819D02*
X153709904Y-88362438D01*
X153709904Y-88362438D02*
X153757523Y-88410057D01*
X153757523Y-88410057D02*
X153805142Y-88505295D01*
X153805142Y-88505295D02*
X153805142Y-88600533D01*
X153805142Y-88600533D02*
X153757523Y-88743390D01*
X153757523Y-88743390D02*
X153186095Y-89314819D01*
X153186095Y-89314819D02*
X153805142Y-89314819D01*
X165814476Y-89444319D02*
X165814476Y-88444319D01*
X165814476Y-88444319D02*
X166147809Y-89158604D01*
X166147809Y-89158604D02*
X166481142Y-88444319D01*
X166481142Y-88444319D02*
X166481142Y-89444319D01*
X167481142Y-89444319D02*
X166909714Y-89444319D01*
X167195428Y-89444319D02*
X167195428Y-88444319D01*
X167195428Y-88444319D02*
X167100190Y-88587176D01*
X167100190Y-88587176D02*
X167004952Y-88682414D01*
X167004952Y-88682414D02*
X166909714Y-88730033D01*
X137433333Y-71451174D02*
X136957143Y-71451174D01*
X136957143Y-71451174D02*
X136957143Y-70451174D01*
X137671429Y-70451174D02*
X138290476Y-70451174D01*
X138290476Y-70451174D02*
X137957143Y-70832126D01*
X137957143Y-70832126D02*
X138100000Y-70832126D01*
X138100000Y-70832126D02*
X138195238Y-70879745D01*
X138195238Y-70879745D02*
X138242857Y-70927364D01*
X138242857Y-70927364D02*
X138290476Y-71022602D01*
X138290476Y-71022602D02*
X138290476Y-71260697D01*
X138290476Y-71260697D02*
X138242857Y-71355935D01*
X138242857Y-71355935D02*
X138195238Y-71403555D01*
X138195238Y-71403555D02*
X138100000Y-71451174D01*
X138100000Y-71451174D02*
X137814286Y-71451174D01*
X137814286Y-71451174D02*
X137719048Y-71403555D01*
X137719048Y-71403555D02*
X137671429Y-71355935D01*
X122233333Y-68654819D02*
X121757143Y-68654819D01*
X121757143Y-68654819D02*
X121757143Y-67654819D01*
X122519048Y-67750057D02*
X122566667Y-67702438D01*
X122566667Y-67702438D02*
X122661905Y-67654819D01*
X122661905Y-67654819D02*
X122900000Y-67654819D01*
X122900000Y-67654819D02*
X122995238Y-67702438D01*
X122995238Y-67702438D02*
X123042857Y-67750057D01*
X123042857Y-67750057D02*
X123090476Y-67845295D01*
X123090476Y-67845295D02*
X123090476Y-67940533D01*
X123090476Y-67940533D02*
X123042857Y-68083390D01*
X123042857Y-68083390D02*
X122471429Y-68654819D01*
X122471429Y-68654819D02*
X123090476Y-68654819D01*
X129633333Y-87054819D02*
X129157143Y-87054819D01*
X129157143Y-87054819D02*
X129157143Y-86054819D01*
X130490476Y-87054819D02*
X129919048Y-87054819D01*
X130204762Y-87054819D02*
X130204762Y-86054819D01*
X130204762Y-86054819D02*
X130109524Y-86197676D01*
X130109524Y-86197676D02*
X130014286Y-86292914D01*
X130014286Y-86292914D02*
X129919048Y-86340533D01*
X147502666Y-79210819D02*
X147502666Y-79925104D01*
X147502666Y-79925104D02*
X147455047Y-80067961D01*
X147455047Y-80067961D02*
X147359809Y-80163200D01*
X147359809Y-80163200D02*
X147216952Y-80210819D01*
X147216952Y-80210819D02*
X147121714Y-80210819D01*
X147978857Y-80210819D02*
X147978857Y-79210819D01*
X147978857Y-79210819D02*
X148359809Y-79210819D01*
X148359809Y-79210819D02*
X148455047Y-79258438D01*
X148455047Y-79258438D02*
X148502666Y-79306057D01*
X148502666Y-79306057D02*
X148550285Y-79401295D01*
X148550285Y-79401295D02*
X148550285Y-79544152D01*
X148550285Y-79544152D02*
X148502666Y-79639390D01*
X148502666Y-79639390D02*
X148455047Y-79687009D01*
X148455047Y-79687009D02*
X148359809Y-79734628D01*
X148359809Y-79734628D02*
X147978857Y-79734628D01*
X148931238Y-79306057D02*
X148978857Y-79258438D01*
X148978857Y-79258438D02*
X149074095Y-79210819D01*
X149074095Y-79210819D02*
X149312190Y-79210819D01*
X149312190Y-79210819D02*
X149407428Y-79258438D01*
X149407428Y-79258438D02*
X149455047Y-79306057D01*
X149455047Y-79306057D02*
X149502666Y-79401295D01*
X149502666Y-79401295D02*
X149502666Y-79496533D01*
X149502666Y-79496533D02*
X149455047Y-79639390D01*
X149455047Y-79639390D02*
X148883619Y-80210819D01*
X148883619Y-80210819D02*
X149502666Y-80210819D01*
X179760666Y-57620819D02*
X179760666Y-58335104D01*
X179760666Y-58335104D02*
X179713047Y-58477961D01*
X179713047Y-58477961D02*
X179617809Y-58573200D01*
X179617809Y-58573200D02*
X179474952Y-58620819D01*
X179474952Y-58620819D02*
X179379714Y-58620819D01*
X180236857Y-58620819D02*
X180236857Y-57620819D01*
X180236857Y-57620819D02*
X180617809Y-57620819D01*
X180617809Y-57620819D02*
X180713047Y-57668438D01*
X180713047Y-57668438D02*
X180760666Y-57716057D01*
X180760666Y-57716057D02*
X180808285Y-57811295D01*
X180808285Y-57811295D02*
X180808285Y-57954152D01*
X180808285Y-57954152D02*
X180760666Y-58049390D01*
X180760666Y-58049390D02*
X180713047Y-58097009D01*
X180713047Y-58097009D02*
X180617809Y-58144628D01*
X180617809Y-58144628D02*
X180236857Y-58144628D01*
X181760666Y-58620819D02*
X181189238Y-58620819D01*
X181474952Y-58620819D02*
X181474952Y-57620819D01*
X181474952Y-57620819D02*
X181379714Y-57763676D01*
X181379714Y-57763676D02*
X181284476Y-57858914D01*
X181284476Y-57858914D02*
X181189238Y-57906533D01*
X146637476Y-38697819D02*
X146637476Y-39412104D01*
X146637476Y-39412104D02*
X146589857Y-39554961D01*
X146589857Y-39554961D02*
X146494619Y-39650200D01*
X146494619Y-39650200D02*
X146351762Y-39697819D01*
X146351762Y-39697819D02*
X146256524Y-39697819D01*
X147066048Y-38793057D02*
X147113667Y-38745438D01*
X147113667Y-38745438D02*
X147208905Y-38697819D01*
X147208905Y-38697819D02*
X147447000Y-38697819D01*
X147447000Y-38697819D02*
X147542238Y-38745438D01*
X147542238Y-38745438D02*
X147589857Y-38793057D01*
X147589857Y-38793057D02*
X147637476Y-38888295D01*
X147637476Y-38888295D02*
X147637476Y-38983533D01*
X147637476Y-38983533D02*
X147589857Y-39126390D01*
X147589857Y-39126390D02*
X147018429Y-39697819D01*
X147018429Y-39697819D02*
X147637476Y-39697819D01*
X148256524Y-38697819D02*
X148351762Y-38697819D01*
X148351762Y-38697819D02*
X148447000Y-38745438D01*
X148447000Y-38745438D02*
X148494619Y-38793057D01*
X148494619Y-38793057D02*
X148542238Y-38888295D01*
X148542238Y-38888295D02*
X148589857Y-39078771D01*
X148589857Y-39078771D02*
X148589857Y-39316866D01*
X148589857Y-39316866D02*
X148542238Y-39507342D01*
X148542238Y-39507342D02*
X148494619Y-39602580D01*
X148494619Y-39602580D02*
X148447000Y-39650200D01*
X148447000Y-39650200D02*
X148351762Y-39697819D01*
X148351762Y-39697819D02*
X148256524Y-39697819D01*
X148256524Y-39697819D02*
X148161286Y-39650200D01*
X148161286Y-39650200D02*
X148113667Y-39602580D01*
X148113667Y-39602580D02*
X148066048Y-39507342D01*
X148066048Y-39507342D02*
X148018429Y-39316866D01*
X148018429Y-39316866D02*
X148018429Y-39078771D01*
X148018429Y-39078771D02*
X148066048Y-38888295D01*
X148066048Y-38888295D02*
X148113667Y-38793057D01*
X148113667Y-38793057D02*
X148161286Y-38745438D01*
X148161286Y-38745438D02*
X148256524Y-38697819D01*
X129464819Y-50269523D02*
X130179104Y-50269523D01*
X130179104Y-50269523D02*
X130321961Y-50317142D01*
X130321961Y-50317142D02*
X130417200Y-50412380D01*
X130417200Y-50412380D02*
X130464819Y-50555237D01*
X130464819Y-50555237D02*
X130464819Y-50650475D01*
X130464819Y-49269523D02*
X130464819Y-49840951D01*
X130464819Y-49555237D02*
X129464819Y-49555237D01*
X129464819Y-49555237D02*
X129607676Y-49650475D01*
X129607676Y-49650475D02*
X129702914Y-49745713D01*
X129702914Y-49745713D02*
X129750533Y-49840951D01*
X130464819Y-48793332D02*
X130464819Y-48602856D01*
X130464819Y-48602856D02*
X130417200Y-48507618D01*
X130417200Y-48507618D02*
X130369580Y-48459999D01*
X130369580Y-48459999D02*
X130226723Y-48364761D01*
X130226723Y-48364761D02*
X130036247Y-48317142D01*
X130036247Y-48317142D02*
X129655295Y-48317142D01*
X129655295Y-48317142D02*
X129560057Y-48364761D01*
X129560057Y-48364761D02*
X129512438Y-48412380D01*
X129512438Y-48412380D02*
X129464819Y-48507618D01*
X129464819Y-48507618D02*
X129464819Y-48698094D01*
X129464819Y-48698094D02*
X129512438Y-48793332D01*
X129512438Y-48793332D02*
X129560057Y-48840951D01*
X129560057Y-48840951D02*
X129655295Y-48888570D01*
X129655295Y-48888570D02*
X129893390Y-48888570D01*
X129893390Y-48888570D02*
X129988628Y-48840951D01*
X129988628Y-48840951D02*
X130036247Y-48793332D01*
X130036247Y-48793332D02*
X130083866Y-48698094D01*
X130083866Y-48698094D02*
X130083866Y-48507618D01*
X130083866Y-48507618D02*
X130036247Y-48412380D01*
X130036247Y-48412380D02*
X129988628Y-48364761D01*
X129988628Y-48364761D02*
X129893390Y-48317142D01*
X156143819Y-75231523D02*
X156858104Y-75231523D01*
X156858104Y-75231523D02*
X157000961Y-75279142D01*
X157000961Y-75279142D02*
X157096200Y-75374380D01*
X157096200Y-75374380D02*
X157143819Y-75517237D01*
X157143819Y-75517237D02*
X157143819Y-75612475D01*
X157143819Y-74231523D02*
X157143819Y-74802951D01*
X157143819Y-74517237D02*
X156143819Y-74517237D01*
X156143819Y-74517237D02*
X156286676Y-74612475D01*
X156286676Y-74612475D02*
X156381914Y-74707713D01*
X156381914Y-74707713D02*
X156429533Y-74802951D01*
X156572390Y-73660094D02*
X156524771Y-73755332D01*
X156524771Y-73755332D02*
X156477152Y-73802951D01*
X156477152Y-73802951D02*
X156381914Y-73850570D01*
X156381914Y-73850570D02*
X156334295Y-73850570D01*
X156334295Y-73850570D02*
X156239057Y-73802951D01*
X156239057Y-73802951D02*
X156191438Y-73755332D01*
X156191438Y-73755332D02*
X156143819Y-73660094D01*
X156143819Y-73660094D02*
X156143819Y-73469618D01*
X156143819Y-73469618D02*
X156191438Y-73374380D01*
X156191438Y-73374380D02*
X156239057Y-73326761D01*
X156239057Y-73326761D02*
X156334295Y-73279142D01*
X156334295Y-73279142D02*
X156381914Y-73279142D01*
X156381914Y-73279142D02*
X156477152Y-73326761D01*
X156477152Y-73326761D02*
X156524771Y-73374380D01*
X156524771Y-73374380D02*
X156572390Y-73469618D01*
X156572390Y-73469618D02*
X156572390Y-73660094D01*
X156572390Y-73660094D02*
X156620009Y-73755332D01*
X156620009Y-73755332D02*
X156667628Y-73802951D01*
X156667628Y-73802951D02*
X156762866Y-73850570D01*
X156762866Y-73850570D02*
X156953342Y-73850570D01*
X156953342Y-73850570D02*
X157048580Y-73802951D01*
X157048580Y-73802951D02*
X157096200Y-73755332D01*
X157096200Y-73755332D02*
X157143819Y-73660094D01*
X157143819Y-73660094D02*
X157143819Y-73469618D01*
X157143819Y-73469618D02*
X157096200Y-73374380D01*
X157096200Y-73374380D02*
X157048580Y-73326761D01*
X157048580Y-73326761D02*
X156953342Y-73279142D01*
X156953342Y-73279142D02*
X156762866Y-73279142D01*
X156762866Y-73279142D02*
X156667628Y-73326761D01*
X156667628Y-73326761D02*
X156620009Y-73374380D01*
X156620009Y-73374380D02*
X156572390Y-73469618D01*
X156382819Y-79295523D02*
X157097104Y-79295523D01*
X157097104Y-79295523D02*
X157239961Y-79343142D01*
X157239961Y-79343142D02*
X157335200Y-79438380D01*
X157335200Y-79438380D02*
X157382819Y-79581237D01*
X157382819Y-79581237D02*
X157382819Y-79676475D01*
X157382819Y-78295523D02*
X157382819Y-78866951D01*
X157382819Y-78581237D02*
X156382819Y-78581237D01*
X156382819Y-78581237D02*
X156525676Y-78676475D01*
X156525676Y-78676475D02*
X156620914Y-78771713D01*
X156620914Y-78771713D02*
X156668533Y-78866951D01*
X156382819Y-77962189D02*
X156382819Y-77295523D01*
X156382819Y-77295523D02*
X157382819Y-77724094D01*
X169370476Y-46444819D02*
X169370476Y-47159104D01*
X169370476Y-47159104D02*
X169322857Y-47301961D01*
X169322857Y-47301961D02*
X169227619Y-47397200D01*
X169227619Y-47397200D02*
X169084762Y-47444819D01*
X169084762Y-47444819D02*
X168989524Y-47444819D01*
X170370476Y-47444819D02*
X169799048Y-47444819D01*
X170084762Y-47444819D02*
X170084762Y-46444819D01*
X170084762Y-46444819D02*
X169989524Y-46587676D01*
X169989524Y-46587676D02*
X169894286Y-46682914D01*
X169894286Y-46682914D02*
X169799048Y-46730533D01*
X171227619Y-46444819D02*
X171037143Y-46444819D01*
X171037143Y-46444819D02*
X170941905Y-46492438D01*
X170941905Y-46492438D02*
X170894286Y-46540057D01*
X170894286Y-46540057D02*
X170799048Y-46682914D01*
X170799048Y-46682914D02*
X170751429Y-46873390D01*
X170751429Y-46873390D02*
X170751429Y-47254342D01*
X170751429Y-47254342D02*
X170799048Y-47349580D01*
X170799048Y-47349580D02*
X170846667Y-47397200D01*
X170846667Y-47397200D02*
X170941905Y-47444819D01*
X170941905Y-47444819D02*
X171132381Y-47444819D01*
X171132381Y-47444819D02*
X171227619Y-47397200D01*
X171227619Y-47397200D02*
X171275238Y-47349580D01*
X171275238Y-47349580D02*
X171322857Y-47254342D01*
X171322857Y-47254342D02*
X171322857Y-47016247D01*
X171322857Y-47016247D02*
X171275238Y-46921009D01*
X171275238Y-46921009D02*
X171227619Y-46873390D01*
X171227619Y-46873390D02*
X171132381Y-46825771D01*
X171132381Y-46825771D02*
X170941905Y-46825771D01*
X170941905Y-46825771D02*
X170846667Y-46873390D01*
X170846667Y-46873390D02*
X170799048Y-46921009D01*
X170799048Y-46921009D02*
X170751429Y-47016247D01*
X185626476Y-69685819D02*
X185626476Y-70400104D01*
X185626476Y-70400104D02*
X185578857Y-70542961D01*
X185578857Y-70542961D02*
X185483619Y-70638200D01*
X185483619Y-70638200D02*
X185340762Y-70685819D01*
X185340762Y-70685819D02*
X185245524Y-70685819D01*
X186626476Y-70685819D02*
X186055048Y-70685819D01*
X186340762Y-70685819D02*
X186340762Y-69685819D01*
X186340762Y-69685819D02*
X186245524Y-69828676D01*
X186245524Y-69828676D02*
X186150286Y-69923914D01*
X186150286Y-69923914D02*
X186055048Y-69971533D01*
X187531238Y-69685819D02*
X187055048Y-69685819D01*
X187055048Y-69685819D02*
X187007429Y-70162009D01*
X187007429Y-70162009D02*
X187055048Y-70114390D01*
X187055048Y-70114390D02*
X187150286Y-70066771D01*
X187150286Y-70066771D02*
X187388381Y-70066771D01*
X187388381Y-70066771D02*
X187483619Y-70114390D01*
X187483619Y-70114390D02*
X187531238Y-70162009D01*
X187531238Y-70162009D02*
X187578857Y-70257247D01*
X187578857Y-70257247D02*
X187578857Y-70495342D01*
X187578857Y-70495342D02*
X187531238Y-70590580D01*
X187531238Y-70590580D02*
X187483619Y-70638200D01*
X187483619Y-70638200D02*
X187388381Y-70685819D01*
X187388381Y-70685819D02*
X187150286Y-70685819D01*
X187150286Y-70685819D02*
X187055048Y-70638200D01*
X187055048Y-70638200D02*
X187007429Y-70590580D01*
X184864476Y-87465819D02*
X184864476Y-88180104D01*
X184864476Y-88180104D02*
X184816857Y-88322961D01*
X184816857Y-88322961D02*
X184721619Y-88418200D01*
X184721619Y-88418200D02*
X184578762Y-88465819D01*
X184578762Y-88465819D02*
X184483524Y-88465819D01*
X185864476Y-88465819D02*
X185293048Y-88465819D01*
X185578762Y-88465819D02*
X185578762Y-87465819D01*
X185578762Y-87465819D02*
X185483524Y-87608676D01*
X185483524Y-87608676D02*
X185388286Y-87703914D01*
X185388286Y-87703914D02*
X185293048Y-87751533D01*
X186721619Y-87799152D02*
X186721619Y-88465819D01*
X186483524Y-87418200D02*
X186245429Y-88132485D01*
X186245429Y-88132485D02*
X186864476Y-88132485D01*
X168481476Y-87465819D02*
X168481476Y-88180104D01*
X168481476Y-88180104D02*
X168433857Y-88322961D01*
X168433857Y-88322961D02*
X168338619Y-88418200D01*
X168338619Y-88418200D02*
X168195762Y-88465819D01*
X168195762Y-88465819D02*
X168100524Y-88465819D01*
X169481476Y-88465819D02*
X168910048Y-88465819D01*
X169195762Y-88465819D02*
X169195762Y-87465819D01*
X169195762Y-87465819D02*
X169100524Y-87608676D01*
X169100524Y-87608676D02*
X169005286Y-87703914D01*
X169005286Y-87703914D02*
X168910048Y-87751533D01*
X169814810Y-87465819D02*
X170433857Y-87465819D01*
X170433857Y-87465819D02*
X170100524Y-87846771D01*
X170100524Y-87846771D02*
X170243381Y-87846771D01*
X170243381Y-87846771D02*
X170338619Y-87894390D01*
X170338619Y-87894390D02*
X170386238Y-87942009D01*
X170386238Y-87942009D02*
X170433857Y-88037247D01*
X170433857Y-88037247D02*
X170433857Y-88275342D01*
X170433857Y-88275342D02*
X170386238Y-88370580D01*
X170386238Y-88370580D02*
X170338619Y-88418200D01*
X170338619Y-88418200D02*
X170243381Y-88465819D01*
X170243381Y-88465819D02*
X169957667Y-88465819D01*
X169957667Y-88465819D02*
X169862429Y-88418200D01*
X169862429Y-88418200D02*
X169814810Y-88370580D01*
X165433476Y-38680819D02*
X165433476Y-39395104D01*
X165433476Y-39395104D02*
X165385857Y-39537961D01*
X165385857Y-39537961D02*
X165290619Y-39633200D01*
X165290619Y-39633200D02*
X165147762Y-39680819D01*
X165147762Y-39680819D02*
X165052524Y-39680819D01*
X166433476Y-39680819D02*
X165862048Y-39680819D01*
X166147762Y-39680819D02*
X166147762Y-38680819D01*
X166147762Y-38680819D02*
X166052524Y-38823676D01*
X166052524Y-38823676D02*
X165957286Y-38918914D01*
X165957286Y-38918914D02*
X165862048Y-38966533D01*
X166814429Y-38776057D02*
X166862048Y-38728438D01*
X166862048Y-38728438D02*
X166957286Y-38680819D01*
X166957286Y-38680819D02*
X167195381Y-38680819D01*
X167195381Y-38680819D02*
X167290619Y-38728438D01*
X167290619Y-38728438D02*
X167338238Y-38776057D01*
X167338238Y-38776057D02*
X167385857Y-38871295D01*
X167385857Y-38871295D02*
X167385857Y-38966533D01*
X167385857Y-38966533D02*
X167338238Y-39109390D01*
X167338238Y-39109390D02*
X166766810Y-39680819D01*
X166766810Y-39680819D02*
X167385857Y-39680819D01*
X101308819Y-72437523D02*
X102023104Y-72437523D01*
X102023104Y-72437523D02*
X102165961Y-72485142D01*
X102165961Y-72485142D02*
X102261200Y-72580380D01*
X102261200Y-72580380D02*
X102308819Y-72723237D01*
X102308819Y-72723237D02*
X102308819Y-72818475D01*
X102308819Y-71437523D02*
X102308819Y-72008951D01*
X102308819Y-71723237D02*
X101308819Y-71723237D01*
X101308819Y-71723237D02*
X101451676Y-71818475D01*
X101451676Y-71818475D02*
X101546914Y-71913713D01*
X101546914Y-71913713D02*
X101594533Y-72008951D01*
X102308819Y-70485142D02*
X102308819Y-71056570D01*
X102308819Y-70770856D02*
X101308819Y-70770856D01*
X101308819Y-70770856D02*
X101451676Y-70866094D01*
X101451676Y-70866094D02*
X101546914Y-70961332D01*
X101546914Y-70961332D02*
X101594533Y-71056570D01*
X108664476Y-92418819D02*
X108664476Y-93133104D01*
X108664476Y-93133104D02*
X108616857Y-93275961D01*
X108616857Y-93275961D02*
X108521619Y-93371200D01*
X108521619Y-93371200D02*
X108378762Y-93418819D01*
X108378762Y-93418819D02*
X108283524Y-93418819D01*
X109664476Y-93418819D02*
X109093048Y-93418819D01*
X109378762Y-93418819D02*
X109378762Y-92418819D01*
X109378762Y-92418819D02*
X109283524Y-92561676D01*
X109283524Y-92561676D02*
X109188286Y-92656914D01*
X109188286Y-92656914D02*
X109093048Y-92704533D01*
X110283524Y-92418819D02*
X110378762Y-92418819D01*
X110378762Y-92418819D02*
X110474000Y-92466438D01*
X110474000Y-92466438D02*
X110521619Y-92514057D01*
X110521619Y-92514057D02*
X110569238Y-92609295D01*
X110569238Y-92609295D02*
X110616857Y-92799771D01*
X110616857Y-92799771D02*
X110616857Y-93037866D01*
X110616857Y-93037866D02*
X110569238Y-93228342D01*
X110569238Y-93228342D02*
X110521619Y-93323580D01*
X110521619Y-93323580D02*
X110474000Y-93371200D01*
X110474000Y-93371200D02*
X110378762Y-93418819D01*
X110378762Y-93418819D02*
X110283524Y-93418819D01*
X110283524Y-93418819D02*
X110188286Y-93371200D01*
X110188286Y-93371200D02*
X110140667Y-93323580D01*
X110140667Y-93323580D02*
X110093048Y-93228342D01*
X110093048Y-93228342D02*
X110045429Y-93037866D01*
X110045429Y-93037866D02*
X110045429Y-92799771D01*
X110045429Y-92799771D02*
X110093048Y-92609295D01*
X110093048Y-92609295D02*
X110140667Y-92514057D01*
X110140667Y-92514057D02*
X110188286Y-92466438D01*
X110188286Y-92466438D02*
X110283524Y-92418819D01*
X123110666Y-39084819D02*
X123110666Y-39799104D01*
X123110666Y-39799104D02*
X123063047Y-39941961D01*
X123063047Y-39941961D02*
X122967809Y-40037200D01*
X122967809Y-40037200D02*
X122824952Y-40084819D01*
X122824952Y-40084819D02*
X122729714Y-40084819D01*
X123634476Y-40084819D02*
X123824952Y-40084819D01*
X123824952Y-40084819D02*
X123920190Y-40037200D01*
X123920190Y-40037200D02*
X123967809Y-39989580D01*
X123967809Y-39989580D02*
X124063047Y-39846723D01*
X124063047Y-39846723D02*
X124110666Y-39656247D01*
X124110666Y-39656247D02*
X124110666Y-39275295D01*
X124110666Y-39275295D02*
X124063047Y-39180057D01*
X124063047Y-39180057D02*
X124015428Y-39132438D01*
X124015428Y-39132438D02*
X123920190Y-39084819D01*
X123920190Y-39084819D02*
X123729714Y-39084819D01*
X123729714Y-39084819D02*
X123634476Y-39132438D01*
X123634476Y-39132438D02*
X123586857Y-39180057D01*
X123586857Y-39180057D02*
X123539238Y-39275295D01*
X123539238Y-39275295D02*
X123539238Y-39513390D01*
X123539238Y-39513390D02*
X123586857Y-39608628D01*
X123586857Y-39608628D02*
X123634476Y-39656247D01*
X123634476Y-39656247D02*
X123729714Y-39703866D01*
X123729714Y-39703866D02*
X123920190Y-39703866D01*
X123920190Y-39703866D02*
X124015428Y-39656247D01*
X124015428Y-39656247D02*
X124063047Y-39608628D01*
X124063047Y-39608628D02*
X124110666Y-39513390D01*
X172640666Y-62446819D02*
X172640666Y-63161104D01*
X172640666Y-63161104D02*
X172593047Y-63303961D01*
X172593047Y-63303961D02*
X172497809Y-63399200D01*
X172497809Y-63399200D02*
X172354952Y-63446819D01*
X172354952Y-63446819D02*
X172259714Y-63446819D01*
X173259714Y-62875390D02*
X173164476Y-62827771D01*
X173164476Y-62827771D02*
X173116857Y-62780152D01*
X173116857Y-62780152D02*
X173069238Y-62684914D01*
X173069238Y-62684914D02*
X173069238Y-62637295D01*
X173069238Y-62637295D02*
X173116857Y-62542057D01*
X173116857Y-62542057D02*
X173164476Y-62494438D01*
X173164476Y-62494438D02*
X173259714Y-62446819D01*
X173259714Y-62446819D02*
X173450190Y-62446819D01*
X173450190Y-62446819D02*
X173545428Y-62494438D01*
X173545428Y-62494438D02*
X173593047Y-62542057D01*
X173593047Y-62542057D02*
X173640666Y-62637295D01*
X173640666Y-62637295D02*
X173640666Y-62684914D01*
X173640666Y-62684914D02*
X173593047Y-62780152D01*
X173593047Y-62780152D02*
X173545428Y-62827771D01*
X173545428Y-62827771D02*
X173450190Y-62875390D01*
X173450190Y-62875390D02*
X173259714Y-62875390D01*
X173259714Y-62875390D02*
X173164476Y-62923009D01*
X173164476Y-62923009D02*
X173116857Y-62970628D01*
X173116857Y-62970628D02*
X173069238Y-63065866D01*
X173069238Y-63065866D02*
X173069238Y-63256342D01*
X173069238Y-63256342D02*
X173116857Y-63351580D01*
X173116857Y-63351580D02*
X173164476Y-63399200D01*
X173164476Y-63399200D02*
X173259714Y-63446819D01*
X173259714Y-63446819D02*
X173450190Y-63446819D01*
X173450190Y-63446819D02*
X173545428Y-63399200D01*
X173545428Y-63399200D02*
X173593047Y-63351580D01*
X173593047Y-63351580D02*
X173640666Y-63256342D01*
X173640666Y-63256342D02*
X173640666Y-63065866D01*
X173640666Y-63065866D02*
X173593047Y-62970628D01*
X173593047Y-62970628D02*
X173545428Y-62923009D01*
X173545428Y-62923009D02*
X173450190Y-62875390D01*
X179032819Y-61547333D02*
X179747104Y-61547333D01*
X179747104Y-61547333D02*
X179889961Y-61594952D01*
X179889961Y-61594952D02*
X179985200Y-61690190D01*
X179985200Y-61690190D02*
X180032819Y-61833047D01*
X180032819Y-61833047D02*
X180032819Y-61928285D01*
X179032819Y-60642571D02*
X179032819Y-60833047D01*
X179032819Y-60833047D02*
X179080438Y-60928285D01*
X179080438Y-60928285D02*
X179128057Y-60975904D01*
X179128057Y-60975904D02*
X179270914Y-61071142D01*
X179270914Y-61071142D02*
X179461390Y-61118761D01*
X179461390Y-61118761D02*
X179842342Y-61118761D01*
X179842342Y-61118761D02*
X179937580Y-61071142D01*
X179937580Y-61071142D02*
X179985200Y-61023523D01*
X179985200Y-61023523D02*
X180032819Y-60928285D01*
X180032819Y-60928285D02*
X180032819Y-60737809D01*
X180032819Y-60737809D02*
X179985200Y-60642571D01*
X179985200Y-60642571D02*
X179937580Y-60594952D01*
X179937580Y-60594952D02*
X179842342Y-60547333D01*
X179842342Y-60547333D02*
X179604247Y-60547333D01*
X179604247Y-60547333D02*
X179509009Y-60594952D01*
X179509009Y-60594952D02*
X179461390Y-60642571D01*
X179461390Y-60642571D02*
X179413771Y-60737809D01*
X179413771Y-60737809D02*
X179413771Y-60928285D01*
X179413771Y-60928285D02*
X179461390Y-61023523D01*
X179461390Y-61023523D02*
X179509009Y-61071142D01*
X179509009Y-61071142D02*
X179604247Y-61118761D01*
X135071666Y-38926819D02*
X135071666Y-39641104D01*
X135071666Y-39641104D02*
X135024047Y-39783961D01*
X135024047Y-39783961D02*
X134928809Y-39879200D01*
X134928809Y-39879200D02*
X134785952Y-39926819D01*
X134785952Y-39926819D02*
X134690714Y-39926819D01*
X136024047Y-38926819D02*
X135547857Y-38926819D01*
X135547857Y-38926819D02*
X135500238Y-39403009D01*
X135500238Y-39403009D02*
X135547857Y-39355390D01*
X135547857Y-39355390D02*
X135643095Y-39307771D01*
X135643095Y-39307771D02*
X135881190Y-39307771D01*
X135881190Y-39307771D02*
X135976428Y-39355390D01*
X135976428Y-39355390D02*
X136024047Y-39403009D01*
X136024047Y-39403009D02*
X136071666Y-39498247D01*
X136071666Y-39498247D02*
X136071666Y-39736342D01*
X136071666Y-39736342D02*
X136024047Y-39831580D01*
X136024047Y-39831580D02*
X135976428Y-39879200D01*
X135976428Y-39879200D02*
X135881190Y-39926819D01*
X135881190Y-39926819D02*
X135643095Y-39926819D01*
X135643095Y-39926819D02*
X135547857Y-39879200D01*
X135547857Y-39879200D02*
X135500238Y-39831580D01*
X177974666Y-68337819D02*
X177974666Y-69052104D01*
X177974666Y-69052104D02*
X177927047Y-69194961D01*
X177927047Y-69194961D02*
X177831809Y-69290200D01*
X177831809Y-69290200D02*
X177688952Y-69337819D01*
X177688952Y-69337819D02*
X177593714Y-69337819D01*
X178879428Y-68671152D02*
X178879428Y-69337819D01*
X178641333Y-68290200D02*
X178403238Y-69004485D01*
X178403238Y-69004485D02*
X179022285Y-69004485D01*
X187880666Y-57874819D02*
X187880666Y-58589104D01*
X187880666Y-58589104D02*
X187833047Y-58731961D01*
X187833047Y-58731961D02*
X187737809Y-58827200D01*
X187737809Y-58827200D02*
X187594952Y-58874819D01*
X187594952Y-58874819D02*
X187499714Y-58874819D01*
X188309238Y-57970057D02*
X188356857Y-57922438D01*
X188356857Y-57922438D02*
X188452095Y-57874819D01*
X188452095Y-57874819D02*
X188690190Y-57874819D01*
X188690190Y-57874819D02*
X188785428Y-57922438D01*
X188785428Y-57922438D02*
X188833047Y-57970057D01*
X188833047Y-57970057D02*
X188880666Y-58065295D01*
X188880666Y-58065295D02*
X188880666Y-58160533D01*
X188880666Y-58160533D02*
X188833047Y-58303390D01*
X188833047Y-58303390D02*
X188261619Y-58874819D01*
X188261619Y-58874819D02*
X188880666Y-58874819D01*
X188292804Y-49083804D02*
X188292804Y-49798089D01*
X188292804Y-49798089D02*
X188245185Y-49940946D01*
X188245185Y-49940946D02*
X188149947Y-50036185D01*
X188149947Y-50036185D02*
X188007090Y-50083804D01*
X188007090Y-50083804D02*
X187911852Y-50083804D01*
X189292804Y-50083804D02*
X188721376Y-50083804D01*
X189007090Y-50083804D02*
X189007090Y-49083804D01*
X189007090Y-49083804D02*
X188911852Y-49226661D01*
X188911852Y-49226661D02*
X188816614Y-49321899D01*
X188816614Y-49321899D02*
X188721376Y-49369518D01*
X187452095Y-55318819D02*
X187452095Y-54318819D01*
X187452095Y-54795009D02*
X188023523Y-54795009D01*
X188023523Y-55318819D02*
X188023523Y-54318819D01*
X188928285Y-54652152D02*
X188928285Y-55318819D01*
X188690190Y-54271200D02*
X188452095Y-54985485D01*
X188452095Y-54985485D02*
X189071142Y-54985485D01*
X101600095Y-49008819D02*
X101600095Y-48008819D01*
X101600095Y-48485009D02*
X102171523Y-48485009D01*
X102171523Y-49008819D02*
X102171523Y-48008819D01*
X102552476Y-48008819D02*
X103171523Y-48008819D01*
X103171523Y-48008819D02*
X102838190Y-48389771D01*
X102838190Y-48389771D02*
X102981047Y-48389771D01*
X102981047Y-48389771D02*
X103076285Y-48437390D01*
X103076285Y-48437390D02*
X103123904Y-48485009D01*
X103123904Y-48485009D02*
X103171523Y-48580247D01*
X103171523Y-48580247D02*
X103171523Y-48818342D01*
X103171523Y-48818342D02*
X103123904Y-48913580D01*
X103123904Y-48913580D02*
X103076285Y-48961200D01*
X103076285Y-48961200D02*
X102981047Y-49008819D01*
X102981047Y-49008819D02*
X102695333Y-49008819D01*
X102695333Y-49008819D02*
X102600095Y-48961200D01*
X102600095Y-48961200D02*
X102552476Y-48913580D01*
X107188095Y-99006819D02*
X107188095Y-98006819D01*
X107188095Y-98483009D02*
X107759523Y-98483009D01*
X107759523Y-99006819D02*
X107759523Y-98006819D01*
X108188095Y-98102057D02*
X108235714Y-98054438D01*
X108235714Y-98054438D02*
X108330952Y-98006819D01*
X108330952Y-98006819D02*
X108569047Y-98006819D01*
X108569047Y-98006819D02*
X108664285Y-98054438D01*
X108664285Y-98054438D02*
X108711904Y-98102057D01*
X108711904Y-98102057D02*
X108759523Y-98197295D01*
X108759523Y-98197295D02*
X108759523Y-98292533D01*
X108759523Y-98292533D02*
X108711904Y-98435390D01*
X108711904Y-98435390D02*
X108140476Y-99006819D01*
X108140476Y-99006819D02*
X108759523Y-99006819D01*
X184238095Y-91704819D02*
X184238095Y-90704819D01*
X184238095Y-91181009D02*
X184809523Y-91181009D01*
X184809523Y-91704819D02*
X184809523Y-90704819D01*
X185809523Y-91704819D02*
X185238095Y-91704819D01*
X185523809Y-91704819D02*
X185523809Y-90704819D01*
X185523809Y-90704819D02*
X185428571Y-90847676D01*
X185428571Y-90847676D02*
X185333333Y-90942914D01*
X185333333Y-90942914D02*
X185238095Y-90990533D01*
X119298811Y-83430572D02*
X119298811Y-83763905D01*
X119822621Y-83763905D02*
X118822621Y-83763905D01*
X118822621Y-83763905D02*
X118822621Y-83287715D01*
X119822621Y-82382953D02*
X119822621Y-82954381D01*
X119822621Y-82668667D02*
X118822621Y-82668667D01*
X118822621Y-82668667D02*
X118965478Y-82763905D01*
X118965478Y-82763905D02*
X119060716Y-82859143D01*
X119060716Y-82859143D02*
X119108335Y-82954381D01*
X177844571Y-99422295D02*
X177844571Y-98622295D01*
X177844571Y-98622295D02*
X178035047Y-98622295D01*
X178035047Y-98622295D02*
X178149333Y-98660390D01*
X178149333Y-98660390D02*
X178225523Y-98736580D01*
X178225523Y-98736580D02*
X178263618Y-98812771D01*
X178263618Y-98812771D02*
X178301714Y-98965152D01*
X178301714Y-98965152D02*
X178301714Y-99079438D01*
X178301714Y-99079438D02*
X178263618Y-99231819D01*
X178263618Y-99231819D02*
X178225523Y-99308009D01*
X178225523Y-99308009D02*
X178149333Y-99384200D01*
X178149333Y-99384200D02*
X178035047Y-99422295D01*
X178035047Y-99422295D02*
X177844571Y-99422295D01*
X178606475Y-98698485D02*
X178644571Y-98660390D01*
X178644571Y-98660390D02*
X178720761Y-98622295D01*
X178720761Y-98622295D02*
X178911237Y-98622295D01*
X178911237Y-98622295D02*
X178987428Y-98660390D01*
X178987428Y-98660390D02*
X179025523Y-98698485D01*
X179025523Y-98698485D02*
X179063618Y-98774676D01*
X179063618Y-98774676D02*
X179063618Y-98850866D01*
X179063618Y-98850866D02*
X179025523Y-98965152D01*
X179025523Y-98965152D02*
X178568380Y-99422295D01*
X178568380Y-99422295D02*
X179063618Y-99422295D01*
X179749333Y-98622295D02*
X179596952Y-98622295D01*
X179596952Y-98622295D02*
X179520761Y-98660390D01*
X179520761Y-98660390D02*
X179482666Y-98698485D01*
X179482666Y-98698485D02*
X179406476Y-98812771D01*
X179406476Y-98812771D02*
X179368380Y-98965152D01*
X179368380Y-98965152D02*
X179368380Y-99269914D01*
X179368380Y-99269914D02*
X179406476Y-99346104D01*
X179406476Y-99346104D02*
X179444571Y-99384200D01*
X179444571Y-99384200D02*
X179520761Y-99422295D01*
X179520761Y-99422295D02*
X179673142Y-99422295D01*
X179673142Y-99422295D02*
X179749333Y-99384200D01*
X179749333Y-99384200D02*
X179787428Y-99346104D01*
X179787428Y-99346104D02*
X179825523Y-99269914D01*
X179825523Y-99269914D02*
X179825523Y-99079438D01*
X179825523Y-99079438D02*
X179787428Y-99003247D01*
X179787428Y-99003247D02*
X179749333Y-98965152D01*
X179749333Y-98965152D02*
X179673142Y-98927057D01*
X179673142Y-98927057D02*
X179520761Y-98927057D01*
X179520761Y-98927057D02*
X179444571Y-98965152D01*
X179444571Y-98965152D02*
X179406476Y-99003247D01*
X179406476Y-99003247D02*
X179368380Y-99079438D01*
X175558571Y-99422295D02*
X175558571Y-98622295D01*
X175558571Y-98622295D02*
X175749047Y-98622295D01*
X175749047Y-98622295D02*
X175863333Y-98660390D01*
X175863333Y-98660390D02*
X175939523Y-98736580D01*
X175939523Y-98736580D02*
X175977618Y-98812771D01*
X175977618Y-98812771D02*
X176015714Y-98965152D01*
X176015714Y-98965152D02*
X176015714Y-99079438D01*
X176015714Y-99079438D02*
X175977618Y-99231819D01*
X175977618Y-99231819D02*
X175939523Y-99308009D01*
X175939523Y-99308009D02*
X175863333Y-99384200D01*
X175863333Y-99384200D02*
X175749047Y-99422295D01*
X175749047Y-99422295D02*
X175558571Y-99422295D01*
X176320475Y-98698485D02*
X176358571Y-98660390D01*
X176358571Y-98660390D02*
X176434761Y-98622295D01*
X176434761Y-98622295D02*
X176625237Y-98622295D01*
X176625237Y-98622295D02*
X176701428Y-98660390D01*
X176701428Y-98660390D02*
X176739523Y-98698485D01*
X176739523Y-98698485D02*
X176777618Y-98774676D01*
X176777618Y-98774676D02*
X176777618Y-98850866D01*
X176777618Y-98850866D02*
X176739523Y-98965152D01*
X176739523Y-98965152D02*
X176282380Y-99422295D01*
X176282380Y-99422295D02*
X176777618Y-99422295D01*
X177539523Y-99422295D02*
X177082380Y-99422295D01*
X177310952Y-99422295D02*
X177310952Y-98622295D01*
X177310952Y-98622295D02*
X177234761Y-98736580D01*
X177234761Y-98736580D02*
X177158571Y-98812771D01*
X177158571Y-98812771D02*
X177082380Y-98850866D01*
X173272571Y-99422295D02*
X173272571Y-98622295D01*
X173272571Y-98622295D02*
X173463047Y-98622295D01*
X173463047Y-98622295D02*
X173577333Y-98660390D01*
X173577333Y-98660390D02*
X173653523Y-98736580D01*
X173653523Y-98736580D02*
X173691618Y-98812771D01*
X173691618Y-98812771D02*
X173729714Y-98965152D01*
X173729714Y-98965152D02*
X173729714Y-99079438D01*
X173729714Y-99079438D02*
X173691618Y-99231819D01*
X173691618Y-99231819D02*
X173653523Y-99308009D01*
X173653523Y-99308009D02*
X173577333Y-99384200D01*
X173577333Y-99384200D02*
X173463047Y-99422295D01*
X173463047Y-99422295D02*
X173272571Y-99422295D01*
X174034475Y-98698485D02*
X174072571Y-98660390D01*
X174072571Y-98660390D02*
X174148761Y-98622295D01*
X174148761Y-98622295D02*
X174339237Y-98622295D01*
X174339237Y-98622295D02*
X174415428Y-98660390D01*
X174415428Y-98660390D02*
X174453523Y-98698485D01*
X174453523Y-98698485D02*
X174491618Y-98774676D01*
X174491618Y-98774676D02*
X174491618Y-98850866D01*
X174491618Y-98850866D02*
X174453523Y-98965152D01*
X174453523Y-98965152D02*
X173996380Y-99422295D01*
X173996380Y-99422295D02*
X174491618Y-99422295D01*
X174986857Y-98622295D02*
X175063047Y-98622295D01*
X175063047Y-98622295D02*
X175139238Y-98660390D01*
X175139238Y-98660390D02*
X175177333Y-98698485D01*
X175177333Y-98698485D02*
X175215428Y-98774676D01*
X175215428Y-98774676D02*
X175253523Y-98927057D01*
X175253523Y-98927057D02*
X175253523Y-99117533D01*
X175253523Y-99117533D02*
X175215428Y-99269914D01*
X175215428Y-99269914D02*
X175177333Y-99346104D01*
X175177333Y-99346104D02*
X175139238Y-99384200D01*
X175139238Y-99384200D02*
X175063047Y-99422295D01*
X175063047Y-99422295D02*
X174986857Y-99422295D01*
X174986857Y-99422295D02*
X174910666Y-99384200D01*
X174910666Y-99384200D02*
X174872571Y-99346104D01*
X174872571Y-99346104D02*
X174834476Y-99269914D01*
X174834476Y-99269914D02*
X174796380Y-99117533D01*
X174796380Y-99117533D02*
X174796380Y-98927057D01*
X174796380Y-98927057D02*
X174834476Y-98774676D01*
X174834476Y-98774676D02*
X174872571Y-98698485D01*
X174872571Y-98698485D02*
X174910666Y-98660390D01*
X174910666Y-98660390D02*
X174986857Y-98622295D01*
X170986571Y-99422295D02*
X170986571Y-98622295D01*
X170986571Y-98622295D02*
X171177047Y-98622295D01*
X171177047Y-98622295D02*
X171291333Y-98660390D01*
X171291333Y-98660390D02*
X171367523Y-98736580D01*
X171367523Y-98736580D02*
X171405618Y-98812771D01*
X171405618Y-98812771D02*
X171443714Y-98965152D01*
X171443714Y-98965152D02*
X171443714Y-99079438D01*
X171443714Y-99079438D02*
X171405618Y-99231819D01*
X171405618Y-99231819D02*
X171367523Y-99308009D01*
X171367523Y-99308009D02*
X171291333Y-99384200D01*
X171291333Y-99384200D02*
X171177047Y-99422295D01*
X171177047Y-99422295D02*
X170986571Y-99422295D01*
X172205618Y-99422295D02*
X171748475Y-99422295D01*
X171977047Y-99422295D02*
X171977047Y-98622295D01*
X171977047Y-98622295D02*
X171900856Y-98736580D01*
X171900856Y-98736580D02*
X171824666Y-98812771D01*
X171824666Y-98812771D02*
X171748475Y-98850866D01*
X172586571Y-99422295D02*
X172738952Y-99422295D01*
X172738952Y-99422295D02*
X172815142Y-99384200D01*
X172815142Y-99384200D02*
X172853238Y-99346104D01*
X172853238Y-99346104D02*
X172929428Y-99231819D01*
X172929428Y-99231819D02*
X172967523Y-99079438D01*
X172967523Y-99079438D02*
X172967523Y-98774676D01*
X172967523Y-98774676D02*
X172929428Y-98698485D01*
X172929428Y-98698485D02*
X172891333Y-98660390D01*
X172891333Y-98660390D02*
X172815142Y-98622295D01*
X172815142Y-98622295D02*
X172662761Y-98622295D01*
X172662761Y-98622295D02*
X172586571Y-98660390D01*
X172586571Y-98660390D02*
X172548476Y-98698485D01*
X172548476Y-98698485D02*
X172510380Y-98774676D01*
X172510380Y-98774676D02*
X172510380Y-98965152D01*
X172510380Y-98965152D02*
X172548476Y-99041342D01*
X172548476Y-99041342D02*
X172586571Y-99079438D01*
X172586571Y-99079438D02*
X172662761Y-99117533D01*
X172662761Y-99117533D02*
X172815142Y-99117533D01*
X172815142Y-99117533D02*
X172891333Y-99079438D01*
X172891333Y-99079438D02*
X172929428Y-99041342D01*
X172929428Y-99041342D02*
X172967523Y-98965152D01*
X180257524Y-99422295D02*
X180257524Y-98622295D01*
X180257524Y-98622295D02*
X180448000Y-98622295D01*
X180448000Y-98622295D02*
X180562286Y-98660390D01*
X180562286Y-98660390D02*
X180638476Y-98736580D01*
X180638476Y-98736580D02*
X180676571Y-98812771D01*
X180676571Y-98812771D02*
X180714667Y-98965152D01*
X180714667Y-98965152D02*
X180714667Y-99079438D01*
X180714667Y-99079438D02*
X180676571Y-99231819D01*
X180676571Y-99231819D02*
X180638476Y-99308009D01*
X180638476Y-99308009D02*
X180562286Y-99384200D01*
X180562286Y-99384200D02*
X180448000Y-99422295D01*
X180448000Y-99422295D02*
X180257524Y-99422295D01*
X181019428Y-98698485D02*
X181057524Y-98660390D01*
X181057524Y-98660390D02*
X181133714Y-98622295D01*
X181133714Y-98622295D02*
X181324190Y-98622295D01*
X181324190Y-98622295D02*
X181400381Y-98660390D01*
X181400381Y-98660390D02*
X181438476Y-98698485D01*
X181438476Y-98698485D02*
X181476571Y-98774676D01*
X181476571Y-98774676D02*
X181476571Y-98850866D01*
X181476571Y-98850866D02*
X181438476Y-98965152D01*
X181438476Y-98965152D02*
X180981333Y-99422295D01*
X180981333Y-99422295D02*
X181476571Y-99422295D01*
X185539142Y-58017580D02*
X185491523Y-58065200D01*
X185491523Y-58065200D02*
X185348666Y-58112819D01*
X185348666Y-58112819D02*
X185253428Y-58112819D01*
X185253428Y-58112819D02*
X185110571Y-58065200D01*
X185110571Y-58065200D02*
X185015333Y-57969961D01*
X185015333Y-57969961D02*
X184967714Y-57874723D01*
X184967714Y-57874723D02*
X184920095Y-57684247D01*
X184920095Y-57684247D02*
X184920095Y-57541390D01*
X184920095Y-57541390D02*
X184967714Y-57350914D01*
X184967714Y-57350914D02*
X185015333Y-57255676D01*
X185015333Y-57255676D02*
X185110571Y-57160438D01*
X185110571Y-57160438D02*
X185253428Y-57112819D01*
X185253428Y-57112819D02*
X185348666Y-57112819D01*
X185348666Y-57112819D02*
X185491523Y-57160438D01*
X185491523Y-57160438D02*
X185539142Y-57208057D01*
X186396285Y-57446152D02*
X186396285Y-58112819D01*
X186158190Y-57065200D02*
X185920095Y-57779485D01*
X185920095Y-57779485D02*
X186539142Y-57779485D01*
X187062952Y-57541390D02*
X186967714Y-57493771D01*
X186967714Y-57493771D02*
X186920095Y-57446152D01*
X186920095Y-57446152D02*
X186872476Y-57350914D01*
X186872476Y-57350914D02*
X186872476Y-57303295D01*
X186872476Y-57303295D02*
X186920095Y-57208057D01*
X186920095Y-57208057D02*
X186967714Y-57160438D01*
X186967714Y-57160438D02*
X187062952Y-57112819D01*
X187062952Y-57112819D02*
X187253428Y-57112819D01*
X187253428Y-57112819D02*
X187348666Y-57160438D01*
X187348666Y-57160438D02*
X187396285Y-57208057D01*
X187396285Y-57208057D02*
X187443904Y-57303295D01*
X187443904Y-57303295D02*
X187443904Y-57350914D01*
X187443904Y-57350914D02*
X187396285Y-57446152D01*
X187396285Y-57446152D02*
X187348666Y-57493771D01*
X187348666Y-57493771D02*
X187253428Y-57541390D01*
X187253428Y-57541390D02*
X187062952Y-57541390D01*
X187062952Y-57541390D02*
X186967714Y-57589009D01*
X186967714Y-57589009D02*
X186920095Y-57636628D01*
X186920095Y-57636628D02*
X186872476Y-57731866D01*
X186872476Y-57731866D02*
X186872476Y-57922342D01*
X186872476Y-57922342D02*
X186920095Y-58017580D01*
X186920095Y-58017580D02*
X186967714Y-58065200D01*
X186967714Y-58065200D02*
X187062952Y-58112819D01*
X187062952Y-58112819D02*
X187253428Y-58112819D01*
X187253428Y-58112819D02*
X187348666Y-58065200D01*
X187348666Y-58065200D02*
X187396285Y-58017580D01*
X187396285Y-58017580D02*
X187443904Y-57922342D01*
X187443904Y-57922342D02*
X187443904Y-57731866D01*
X187443904Y-57731866D02*
X187396285Y-57636628D01*
X187396285Y-57636628D02*
X187348666Y-57589009D01*
X187348666Y-57589009D02*
X187253428Y-57541390D01*
X167491580Y-76842857D02*
X167539200Y-76890476D01*
X167539200Y-76890476D02*
X167586819Y-77033333D01*
X167586819Y-77033333D02*
X167586819Y-77128571D01*
X167586819Y-77128571D02*
X167539200Y-77271428D01*
X167539200Y-77271428D02*
X167443961Y-77366666D01*
X167443961Y-77366666D02*
X167348723Y-77414285D01*
X167348723Y-77414285D02*
X167158247Y-77461904D01*
X167158247Y-77461904D02*
X167015390Y-77461904D01*
X167015390Y-77461904D02*
X166824914Y-77414285D01*
X166824914Y-77414285D02*
X166729676Y-77366666D01*
X166729676Y-77366666D02*
X166634438Y-77271428D01*
X166634438Y-77271428D02*
X166586819Y-77128571D01*
X166586819Y-77128571D02*
X166586819Y-77033333D01*
X166586819Y-77033333D02*
X166634438Y-76890476D01*
X166634438Y-76890476D02*
X166682057Y-76842857D01*
X166920152Y-75985714D02*
X167586819Y-75985714D01*
X166539200Y-76223809D02*
X167253485Y-76461904D01*
X167253485Y-76461904D02*
X167253485Y-75842857D01*
X166586819Y-75557142D02*
X166586819Y-74890476D01*
X166586819Y-74890476D02*
X167586819Y-75319047D01*
X180205142Y-47349580D02*
X180157523Y-47397200D01*
X180157523Y-47397200D02*
X180014666Y-47444819D01*
X180014666Y-47444819D02*
X179919428Y-47444819D01*
X179919428Y-47444819D02*
X179776571Y-47397200D01*
X179776571Y-47397200D02*
X179681333Y-47301961D01*
X179681333Y-47301961D02*
X179633714Y-47206723D01*
X179633714Y-47206723D02*
X179586095Y-47016247D01*
X179586095Y-47016247D02*
X179586095Y-46873390D01*
X179586095Y-46873390D02*
X179633714Y-46682914D01*
X179633714Y-46682914D02*
X179681333Y-46587676D01*
X179681333Y-46587676D02*
X179776571Y-46492438D01*
X179776571Y-46492438D02*
X179919428Y-46444819D01*
X179919428Y-46444819D02*
X180014666Y-46444819D01*
X180014666Y-46444819D02*
X180157523Y-46492438D01*
X180157523Y-46492438D02*
X180205142Y-46540057D01*
X181062285Y-46778152D02*
X181062285Y-47444819D01*
X180824190Y-46397200D02*
X180586095Y-47111485D01*
X180586095Y-47111485D02*
X181205142Y-47111485D01*
X181538476Y-46540057D02*
X181586095Y-46492438D01*
X181586095Y-46492438D02*
X181681333Y-46444819D01*
X181681333Y-46444819D02*
X181919428Y-46444819D01*
X181919428Y-46444819D02*
X182014666Y-46492438D01*
X182014666Y-46492438D02*
X182062285Y-46540057D01*
X182062285Y-46540057D02*
X182109904Y-46635295D01*
X182109904Y-46635295D02*
X182109904Y-46730533D01*
X182109904Y-46730533D02*
X182062285Y-46873390D01*
X182062285Y-46873390D02*
X181490857Y-47444819D01*
X181490857Y-47444819D02*
X182109904Y-47444819D01*
X134739142Y-59541580D02*
X134691523Y-59589200D01*
X134691523Y-59589200D02*
X134548666Y-59636819D01*
X134548666Y-59636819D02*
X134453428Y-59636819D01*
X134453428Y-59636819D02*
X134310571Y-59589200D01*
X134310571Y-59589200D02*
X134215333Y-59493961D01*
X134215333Y-59493961D02*
X134167714Y-59398723D01*
X134167714Y-59398723D02*
X134120095Y-59208247D01*
X134120095Y-59208247D02*
X134120095Y-59065390D01*
X134120095Y-59065390D02*
X134167714Y-58874914D01*
X134167714Y-58874914D02*
X134215333Y-58779676D01*
X134215333Y-58779676D02*
X134310571Y-58684438D01*
X134310571Y-58684438D02*
X134453428Y-58636819D01*
X134453428Y-58636819D02*
X134548666Y-58636819D01*
X134548666Y-58636819D02*
X134691523Y-58684438D01*
X134691523Y-58684438D02*
X134739142Y-58732057D01*
X135072476Y-58636819D02*
X135691523Y-58636819D01*
X135691523Y-58636819D02*
X135358190Y-59017771D01*
X135358190Y-59017771D02*
X135501047Y-59017771D01*
X135501047Y-59017771D02*
X135596285Y-59065390D01*
X135596285Y-59065390D02*
X135643904Y-59113009D01*
X135643904Y-59113009D02*
X135691523Y-59208247D01*
X135691523Y-59208247D02*
X135691523Y-59446342D01*
X135691523Y-59446342D02*
X135643904Y-59541580D01*
X135643904Y-59541580D02*
X135596285Y-59589200D01*
X135596285Y-59589200D02*
X135501047Y-59636819D01*
X135501047Y-59636819D02*
X135215333Y-59636819D01*
X135215333Y-59636819D02*
X135120095Y-59589200D01*
X135120095Y-59589200D02*
X135072476Y-59541580D01*
X136167714Y-59636819D02*
X136358190Y-59636819D01*
X136358190Y-59636819D02*
X136453428Y-59589200D01*
X136453428Y-59589200D02*
X136501047Y-59541580D01*
X136501047Y-59541580D02*
X136596285Y-59398723D01*
X136596285Y-59398723D02*
X136643904Y-59208247D01*
X136643904Y-59208247D02*
X136643904Y-58827295D01*
X136643904Y-58827295D02*
X136596285Y-58732057D01*
X136596285Y-58732057D02*
X136548666Y-58684438D01*
X136548666Y-58684438D02*
X136453428Y-58636819D01*
X136453428Y-58636819D02*
X136262952Y-58636819D01*
X136262952Y-58636819D02*
X136167714Y-58684438D01*
X136167714Y-58684438D02*
X136120095Y-58732057D01*
X136120095Y-58732057D02*
X136072476Y-58827295D01*
X136072476Y-58827295D02*
X136072476Y-59065390D01*
X136072476Y-59065390D02*
X136120095Y-59160628D01*
X136120095Y-59160628D02*
X136167714Y-59208247D01*
X136167714Y-59208247D02*
X136262952Y-59255866D01*
X136262952Y-59255866D02*
X136453428Y-59255866D01*
X136453428Y-59255866D02*
X136548666Y-59208247D01*
X136548666Y-59208247D02*
X136596285Y-59160628D01*
X136596285Y-59160628D02*
X136643904Y-59065390D01*
X111117142Y-52157169D02*
X111069523Y-52204789D01*
X111069523Y-52204789D02*
X110926666Y-52252408D01*
X110926666Y-52252408D02*
X110831428Y-52252408D01*
X110831428Y-52252408D02*
X110688571Y-52204789D01*
X110688571Y-52204789D02*
X110593333Y-52109550D01*
X110593333Y-52109550D02*
X110545714Y-52014312D01*
X110545714Y-52014312D02*
X110498095Y-51823836D01*
X110498095Y-51823836D02*
X110498095Y-51680979D01*
X110498095Y-51680979D02*
X110545714Y-51490503D01*
X110545714Y-51490503D02*
X110593333Y-51395265D01*
X110593333Y-51395265D02*
X110688571Y-51300027D01*
X110688571Y-51300027D02*
X110831428Y-51252408D01*
X110831428Y-51252408D02*
X110926666Y-51252408D01*
X110926666Y-51252408D02*
X111069523Y-51300027D01*
X111069523Y-51300027D02*
X111117142Y-51347646D01*
X111450476Y-51252408D02*
X112069523Y-51252408D01*
X112069523Y-51252408D02*
X111736190Y-51633360D01*
X111736190Y-51633360D02*
X111879047Y-51633360D01*
X111879047Y-51633360D02*
X111974285Y-51680979D01*
X111974285Y-51680979D02*
X112021904Y-51728598D01*
X112021904Y-51728598D02*
X112069523Y-51823836D01*
X112069523Y-51823836D02*
X112069523Y-52061931D01*
X112069523Y-52061931D02*
X112021904Y-52157169D01*
X112021904Y-52157169D02*
X111974285Y-52204789D01*
X111974285Y-52204789D02*
X111879047Y-52252408D01*
X111879047Y-52252408D02*
X111593333Y-52252408D01*
X111593333Y-52252408D02*
X111498095Y-52204789D01*
X111498095Y-52204789D02*
X111450476Y-52157169D01*
X112450476Y-51347646D02*
X112498095Y-51300027D01*
X112498095Y-51300027D02*
X112593333Y-51252408D01*
X112593333Y-51252408D02*
X112831428Y-51252408D01*
X112831428Y-51252408D02*
X112926666Y-51300027D01*
X112926666Y-51300027D02*
X112974285Y-51347646D01*
X112974285Y-51347646D02*
X113021904Y-51442884D01*
X113021904Y-51442884D02*
X113021904Y-51538122D01*
X113021904Y-51538122D02*
X112974285Y-51680979D01*
X112974285Y-51680979D02*
X112402857Y-52252408D01*
X112402857Y-52252408D02*
X113021904Y-52252408D01*
X107053142Y-56747580D02*
X107005523Y-56795200D01*
X107005523Y-56795200D02*
X106862666Y-56842819D01*
X106862666Y-56842819D02*
X106767428Y-56842819D01*
X106767428Y-56842819D02*
X106624571Y-56795200D01*
X106624571Y-56795200D02*
X106529333Y-56699961D01*
X106529333Y-56699961D02*
X106481714Y-56604723D01*
X106481714Y-56604723D02*
X106434095Y-56414247D01*
X106434095Y-56414247D02*
X106434095Y-56271390D01*
X106434095Y-56271390D02*
X106481714Y-56080914D01*
X106481714Y-56080914D02*
X106529333Y-55985676D01*
X106529333Y-55985676D02*
X106624571Y-55890438D01*
X106624571Y-55890438D02*
X106767428Y-55842819D01*
X106767428Y-55842819D02*
X106862666Y-55842819D01*
X106862666Y-55842819D02*
X107005523Y-55890438D01*
X107005523Y-55890438D02*
X107053142Y-55938057D01*
X107386476Y-55842819D02*
X108005523Y-55842819D01*
X108005523Y-55842819D02*
X107672190Y-56223771D01*
X107672190Y-56223771D02*
X107815047Y-56223771D01*
X107815047Y-56223771D02*
X107910285Y-56271390D01*
X107910285Y-56271390D02*
X107957904Y-56319009D01*
X107957904Y-56319009D02*
X108005523Y-56414247D01*
X108005523Y-56414247D02*
X108005523Y-56652342D01*
X108005523Y-56652342D02*
X107957904Y-56747580D01*
X107957904Y-56747580D02*
X107910285Y-56795200D01*
X107910285Y-56795200D02*
X107815047Y-56842819D01*
X107815047Y-56842819D02*
X107529333Y-56842819D01*
X107529333Y-56842819D02*
X107434095Y-56795200D01*
X107434095Y-56795200D02*
X107386476Y-56747580D01*
X108957904Y-56842819D02*
X108386476Y-56842819D01*
X108672190Y-56842819D02*
X108672190Y-55842819D01*
X108672190Y-55842819D02*
X108576952Y-55985676D01*
X108576952Y-55985676D02*
X108481714Y-56080914D01*
X108481714Y-56080914D02*
X108386476Y-56128533D01*
X144899142Y-83417580D02*
X144851523Y-83465200D01*
X144851523Y-83465200D02*
X144708666Y-83512819D01*
X144708666Y-83512819D02*
X144613428Y-83512819D01*
X144613428Y-83512819D02*
X144470571Y-83465200D01*
X144470571Y-83465200D02*
X144375333Y-83369961D01*
X144375333Y-83369961D02*
X144327714Y-83274723D01*
X144327714Y-83274723D02*
X144280095Y-83084247D01*
X144280095Y-83084247D02*
X144280095Y-82941390D01*
X144280095Y-82941390D02*
X144327714Y-82750914D01*
X144327714Y-82750914D02*
X144375333Y-82655676D01*
X144375333Y-82655676D02*
X144470571Y-82560438D01*
X144470571Y-82560438D02*
X144613428Y-82512819D01*
X144613428Y-82512819D02*
X144708666Y-82512819D01*
X144708666Y-82512819D02*
X144851523Y-82560438D01*
X144851523Y-82560438D02*
X144899142Y-82608057D01*
X145280095Y-82608057D02*
X145327714Y-82560438D01*
X145327714Y-82560438D02*
X145422952Y-82512819D01*
X145422952Y-82512819D02*
X145661047Y-82512819D01*
X145661047Y-82512819D02*
X145756285Y-82560438D01*
X145756285Y-82560438D02*
X145803904Y-82608057D01*
X145803904Y-82608057D02*
X145851523Y-82703295D01*
X145851523Y-82703295D02*
X145851523Y-82798533D01*
X145851523Y-82798533D02*
X145803904Y-82941390D01*
X145803904Y-82941390D02*
X145232476Y-83512819D01*
X145232476Y-83512819D02*
X145851523Y-83512819D01*
X146422952Y-82941390D02*
X146327714Y-82893771D01*
X146327714Y-82893771D02*
X146280095Y-82846152D01*
X146280095Y-82846152D02*
X146232476Y-82750914D01*
X146232476Y-82750914D02*
X146232476Y-82703295D01*
X146232476Y-82703295D02*
X146280095Y-82608057D01*
X146280095Y-82608057D02*
X146327714Y-82560438D01*
X146327714Y-82560438D02*
X146422952Y-82512819D01*
X146422952Y-82512819D02*
X146613428Y-82512819D01*
X146613428Y-82512819D02*
X146708666Y-82560438D01*
X146708666Y-82560438D02*
X146756285Y-82608057D01*
X146756285Y-82608057D02*
X146803904Y-82703295D01*
X146803904Y-82703295D02*
X146803904Y-82750914D01*
X146803904Y-82750914D02*
X146756285Y-82846152D01*
X146756285Y-82846152D02*
X146708666Y-82893771D01*
X146708666Y-82893771D02*
X146613428Y-82941390D01*
X146613428Y-82941390D02*
X146422952Y-82941390D01*
X146422952Y-82941390D02*
X146327714Y-82989009D01*
X146327714Y-82989009D02*
X146280095Y-83036628D01*
X146280095Y-83036628D02*
X146232476Y-83131866D01*
X146232476Y-83131866D02*
X146232476Y-83322342D01*
X146232476Y-83322342D02*
X146280095Y-83417580D01*
X146280095Y-83417580D02*
X146327714Y-83465200D01*
X146327714Y-83465200D02*
X146422952Y-83512819D01*
X146422952Y-83512819D02*
X146613428Y-83512819D01*
X146613428Y-83512819D02*
X146708666Y-83465200D01*
X146708666Y-83465200D02*
X146756285Y-83417580D01*
X146756285Y-83417580D02*
X146803904Y-83322342D01*
X146803904Y-83322342D02*
X146803904Y-83131866D01*
X146803904Y-83131866D02*
X146756285Y-83036628D01*
X146756285Y-83036628D02*
X146708666Y-82989009D01*
X146708666Y-82989009D02*
X146613428Y-82941390D01*
X126611142Y-50905580D02*
X126563523Y-50953200D01*
X126563523Y-50953200D02*
X126420666Y-51000819D01*
X126420666Y-51000819D02*
X126325428Y-51000819D01*
X126325428Y-51000819D02*
X126182571Y-50953200D01*
X126182571Y-50953200D02*
X126087333Y-50857961D01*
X126087333Y-50857961D02*
X126039714Y-50762723D01*
X126039714Y-50762723D02*
X125992095Y-50572247D01*
X125992095Y-50572247D02*
X125992095Y-50429390D01*
X125992095Y-50429390D02*
X126039714Y-50238914D01*
X126039714Y-50238914D02*
X126087333Y-50143676D01*
X126087333Y-50143676D02*
X126182571Y-50048438D01*
X126182571Y-50048438D02*
X126325428Y-50000819D01*
X126325428Y-50000819D02*
X126420666Y-50000819D01*
X126420666Y-50000819D02*
X126563523Y-50048438D01*
X126563523Y-50048438D02*
X126611142Y-50096057D01*
X126992095Y-50096057D02*
X127039714Y-50048438D01*
X127039714Y-50048438D02*
X127134952Y-50000819D01*
X127134952Y-50000819D02*
X127373047Y-50000819D01*
X127373047Y-50000819D02*
X127468285Y-50048438D01*
X127468285Y-50048438D02*
X127515904Y-50096057D01*
X127515904Y-50096057D02*
X127563523Y-50191295D01*
X127563523Y-50191295D02*
X127563523Y-50286533D01*
X127563523Y-50286533D02*
X127515904Y-50429390D01*
X127515904Y-50429390D02*
X126944476Y-51000819D01*
X126944476Y-51000819D02*
X127563523Y-51000819D01*
X127896857Y-50000819D02*
X128563523Y-50000819D01*
X128563523Y-50000819D02*
X128134952Y-51000819D01*
X147391580Y-94114857D02*
X147439200Y-94162476D01*
X147439200Y-94162476D02*
X147486819Y-94305333D01*
X147486819Y-94305333D02*
X147486819Y-94400571D01*
X147486819Y-94400571D02*
X147439200Y-94543428D01*
X147439200Y-94543428D02*
X147343961Y-94638666D01*
X147343961Y-94638666D02*
X147248723Y-94686285D01*
X147248723Y-94686285D02*
X147058247Y-94733904D01*
X147058247Y-94733904D02*
X146915390Y-94733904D01*
X146915390Y-94733904D02*
X146724914Y-94686285D01*
X146724914Y-94686285D02*
X146629676Y-94638666D01*
X146629676Y-94638666D02*
X146534438Y-94543428D01*
X146534438Y-94543428D02*
X146486819Y-94400571D01*
X146486819Y-94400571D02*
X146486819Y-94305333D01*
X146486819Y-94305333D02*
X146534438Y-94162476D01*
X146534438Y-94162476D02*
X146582057Y-94114857D01*
X146582057Y-93733904D02*
X146534438Y-93686285D01*
X146534438Y-93686285D02*
X146486819Y-93591047D01*
X146486819Y-93591047D02*
X146486819Y-93352952D01*
X146486819Y-93352952D02*
X146534438Y-93257714D01*
X146534438Y-93257714D02*
X146582057Y-93210095D01*
X146582057Y-93210095D02*
X146677295Y-93162476D01*
X146677295Y-93162476D02*
X146772533Y-93162476D01*
X146772533Y-93162476D02*
X146915390Y-93210095D01*
X146915390Y-93210095D02*
X147486819Y-93781523D01*
X147486819Y-93781523D02*
X147486819Y-93162476D01*
X146820152Y-92305333D02*
X147486819Y-92305333D01*
X146439200Y-92543428D02*
X147153485Y-92781523D01*
X147153485Y-92781523D02*
X147153485Y-92162476D01*
D13*
%TO.C,U12*%
X181850000Y-40172000D02*
X181850000Y-39952000D01*
X185510000Y-45752000D02*
X185510000Y-42672000D01*
X181850000Y-45832000D02*
X181850000Y-45372000D01*
X181850000Y-45832000D02*
X183050000Y-45832000D01*
X181850000Y-45372000D02*
G75*
G02*
X181850000Y-40172000I1100000J2600000D01*
G01*
D11*
%TO.C,U7*%
X114877049Y-82266123D02*
X114877049Y-82266123D01*
X114877049Y-82366123D02*
X114877049Y-82366123D01*
D14*
X117277049Y-82816123D02*
X117277049Y-97616123D01*
X112477049Y-82816123D02*
X117277049Y-82816123D01*
X117277049Y-97616123D02*
X112477049Y-97616123D01*
X112477049Y-97616123D02*
X112477049Y-82816123D01*
D11*
X114877049Y-82266123D02*
G75*
G02*
X114877049Y-82366123I0J-50000D01*
G01*
X114877049Y-82366123D02*
G75*
G02*
X114877049Y-82266123I0J50000D01*
G01*
D13*
%TO.C,U1*%
X148844000Y-58051369D02*
X149515751Y-58723120D01*
X148172249Y-58723120D02*
X148844000Y-58051369D01*
X141617369Y-65278000D02*
X142289120Y-64606249D01*
X142289120Y-65949751D02*
X141617369Y-65278000D01*
X155398880Y-64606249D02*
X156070631Y-65278000D01*
X156070631Y-65278000D02*
X155398880Y-65949751D01*
X149515751Y-71832880D02*
X148844000Y-72504631D01*
X148844000Y-72504631D02*
X148172249Y-71832880D01*
X148292457Y-58178648D02*
X147719700Y-58270572D01*
X147811624Y-57697815D01*
X148292457Y-58178648D01*
G36*
X148292457Y-58178648D02*
G01*
X147719700Y-58270572D01*
X147811624Y-57697815D01*
X148292457Y-58178648D01*
G37*
%TO.C,SW2*%
X108726000Y-59737574D02*
X108726000Y-68337574D01*
X104126000Y-59737574D02*
X104126000Y-61937574D01*
X104126000Y-66037574D02*
X104126000Y-68337574D01*
%TO.C,SW1*%
X160540000Y-66798000D02*
X162040000Y-66798000D01*
X164540000Y-65548000D02*
X164540000Y-61048000D01*
X158040000Y-61048000D02*
X158040000Y-65548000D01*
X162040000Y-59798000D02*
X160540000Y-59798000D01*
%TO.C,R85*%
X177319000Y-91921064D02*
X177319000Y-91466936D01*
X178789000Y-91921064D02*
X178789000Y-91466936D01*
%TO.C,R84*%
X179605000Y-91921064D02*
X179605000Y-91466936D01*
X181075000Y-91921064D02*
X181075000Y-91466936D01*
%TO.C,R78*%
X179726000Y-41182936D02*
X179726000Y-42637064D01*
X177906000Y-41182936D02*
X177906000Y-42637064D01*
%TO.C,R77*%
X158989500Y-42037724D02*
X158989500Y-41528276D01*
X160034500Y-42037724D02*
X160034500Y-41528276D01*
%TO.C,R76*%
X158256500Y-41528276D02*
X158256500Y-42037724D01*
X157211500Y-41528276D02*
X157211500Y-42037724D01*
%TO.C,R58*%
X175033000Y-91921064D02*
X175033000Y-91466936D01*
X176503000Y-91921064D02*
X176503000Y-91466936D01*
%TO.C,R57*%
X174471000Y-91466936D02*
X174471000Y-91921064D01*
X173001000Y-91466936D02*
X173001000Y-91921064D01*
%TO.C,R56*%
X172185000Y-91466936D02*
X172185000Y-91921064D01*
X170715000Y-91466936D02*
X170715000Y-91921064D01*
%TO.C,R46*%
X131840500Y-42163276D02*
X131840500Y-42672724D01*
X130795500Y-42163276D02*
X130795500Y-42672724D01*
%TO.C,R45*%
X129271500Y-42672724D02*
X129271500Y-42163276D01*
X130316500Y-42672724D02*
X130316500Y-42163276D01*
%TO.C,R19*%
X143509276Y-85583500D02*
X144018724Y-85583500D01*
X143509276Y-86628500D02*
X144018724Y-86628500D01*
%TO.C,R5*%
X157719500Y-87019224D02*
X157719500Y-86509776D01*
X158764500Y-87019224D02*
X158764500Y-86509776D01*
%TO.C,R3*%
X172112000Y-44677064D02*
X172112000Y-44222936D01*
X173582000Y-44677064D02*
X173582000Y-44222936D01*
%TO.C,M2*%
X147828000Y-89860000D02*
X158068000Y-89860000D01*
X147828000Y-97480000D02*
X158068000Y-97480000D01*
X147828000Y-98580000D02*
X158068000Y-98580000D01*
X147828000Y-99100000D02*
X147828000Y-89860000D01*
X150148000Y-99100000D02*
X147828000Y-99100000D01*
X158068000Y-89860000D02*
X158068000Y-99100000D01*
X158068000Y-99100000D02*
X150748000Y-99100000D01*
X150888000Y-99710000D02*
X150008000Y-99710000D01*
X150448000Y-99100000D01*
X150888000Y-99710000D01*
G36*
X150888000Y-99710000D02*
G01*
X150008000Y-99710000D01*
X150448000Y-99100000D01*
X150888000Y-99710000D01*
G37*
%TO.C,M1*%
X159512000Y-89989500D02*
X169752000Y-89989500D01*
X159512000Y-97609500D02*
X169752000Y-97609500D01*
X159512000Y-98709500D02*
X169752000Y-98709500D01*
X159512000Y-99229500D02*
X159512000Y-89989500D01*
X161832000Y-99229500D02*
X159512000Y-99229500D01*
X169752000Y-89989500D02*
X169752000Y-99229500D01*
X169752000Y-99229500D02*
X162432000Y-99229500D01*
X162572000Y-99839500D02*
X161692000Y-99839500D01*
X162132000Y-99229500D01*
X162572000Y-99839500D01*
G36*
X162572000Y-99839500D02*
G01*
X161692000Y-99839500D01*
X162132000Y-99229500D01*
X162572000Y-99839500D01*
G37*
%TO.C,L3*%
X125110613Y-76606355D02*
X125110613Y-65386355D01*
X128210613Y-76606355D02*
X125110613Y-76606355D01*
X135830613Y-76606355D02*
X132730613Y-76606355D01*
X125110613Y-65386355D02*
X128210613Y-65386355D01*
X132730613Y-65386355D02*
X135830613Y-65386355D01*
X135830613Y-65386355D02*
X135830613Y-76606355D01*
%TO.C,L2*%
X121284664Y-70197053D02*
X110064664Y-70197053D01*
X121284664Y-67097053D02*
X121284664Y-70197053D01*
X121284664Y-59477053D02*
X121284664Y-62577053D01*
X110064664Y-70197053D02*
X110064664Y-67097053D01*
X110064664Y-62577053D02*
X110064664Y-59477053D01*
X110064664Y-59477053D02*
X121284664Y-59477053D01*
%TO.C,L1*%
X124190000Y-87440000D02*
X135410000Y-87440000D01*
X124190000Y-90540000D02*
X124190000Y-87440000D01*
X124190000Y-98160000D02*
X124190000Y-95060000D01*
X135410000Y-87440000D02*
X135410000Y-90540000D01*
X135410000Y-95060000D02*
X135410000Y-98160000D01*
X135410000Y-98160000D02*
X124190000Y-98160000D01*
%TO.C,JP2*%
X149482000Y-77424000D02*
X149482000Y-78024000D01*
X148782000Y-78724000D02*
X147382000Y-78724000D01*
X147382000Y-76724000D02*
X148782000Y-76724000D01*
X146682000Y-78024000D02*
X146682000Y-77424000D01*
X149482000Y-78024000D02*
G75*
G02*
X148782000Y-78724000I-699999J-1D01*
G01*
X148782000Y-76724000D02*
G75*
G02*
X149482000Y-77424000I1J-699999D01*
G01*
X147382000Y-78724000D02*
G75*
G02*
X146682000Y-78024000I0J700000D01*
G01*
X146682000Y-77424000D02*
G75*
G02*
X147382000Y-76724000I700000J0D01*
G01*
%TO.C,JP1*%
X183434000Y-58154000D02*
X182834000Y-58154000D01*
X182134000Y-57454000D02*
X182134000Y-56054000D01*
X184134000Y-56054000D02*
X184134000Y-57454000D01*
X182834000Y-55354000D02*
X183434000Y-55354000D01*
X182834000Y-58154000D02*
G75*
G02*
X182134000Y-57454000I-1J699999D01*
G01*
X184134000Y-57454000D02*
G75*
G02*
X183434000Y-58154000I-699999J-1D01*
G01*
X182134000Y-56054000D02*
G75*
G02*
X182834000Y-55354000I700000J0D01*
G01*
X183434000Y-55354000D02*
G75*
G02*
X184134000Y-56054000I0J-700000D01*
G01*
%TO.C,J20*%
X148727000Y-43977000D02*
X156407000Y-43977000D01*
X148727000Y-43977000D02*
X148727000Y-41317000D01*
X156407000Y-43977000D02*
X156407000Y-41317000D01*
X146127000Y-42647000D02*
X146127000Y-41317000D01*
X146127000Y-41317000D02*
X147457000Y-41317000D01*
X148727000Y-41317000D02*
X156407000Y-41317000D01*
%TO.C,J19*%
X135610000Y-55410000D02*
X136610000Y-55410000D01*
X136610000Y-55410000D02*
X136110000Y-54410000D01*
X136110000Y-54410000D02*
X135610000Y-55410000D01*
X130900000Y-54020000D02*
X130900000Y-44900000D01*
X142950000Y-54020000D02*
X142950000Y-52710000D01*
X159100000Y-54020000D02*
X130900000Y-54020000D01*
X132200000Y-52710000D02*
X132200000Y-46210000D01*
X142950000Y-52710000D02*
X132200000Y-52710000D01*
X147050000Y-52710000D02*
X147050000Y-54020000D01*
X157800000Y-52710000D02*
X147050000Y-52710000D01*
X132200000Y-46210000D02*
X157800000Y-46210000D01*
X157800000Y-46210000D02*
X157800000Y-52710000D01*
X130900000Y-44900000D02*
X159100000Y-44900000D01*
X159100000Y-44900000D02*
X159100000Y-54020000D01*
%TO.C,J18*%
X157639000Y-75802000D02*
X157639000Y-74422000D01*
X159019000Y-75802000D02*
X157639000Y-75802000D01*
X160289000Y-75802000D02*
X165479000Y-75802000D01*
X160289000Y-75802000D02*
X160289000Y-73042000D01*
X165479000Y-75802000D02*
X165479000Y-73042000D01*
X160289000Y-73042000D02*
X165479000Y-73042000D01*
%TO.C,J17*%
X157878000Y-79866000D02*
X157878000Y-78486000D01*
X159258000Y-79866000D02*
X157878000Y-79866000D01*
X160528000Y-79866000D02*
X165718000Y-79866000D01*
X160528000Y-79866000D02*
X160528000Y-77106000D01*
X165718000Y-79866000D02*
X165718000Y-77106000D01*
X160528000Y-77106000D02*
X165718000Y-77106000D01*
%TO.C,J16*%
X176776000Y-46628000D02*
X175776000Y-46628000D01*
X175776000Y-46628000D02*
X176276000Y-47628000D01*
X176276000Y-47628000D02*
X176776000Y-46628000D01*
X181486000Y-48018000D02*
X181486000Y-57138000D01*
X173246000Y-48018000D02*
X173246000Y-49328000D01*
X160906000Y-48018000D02*
X181486000Y-48018000D01*
X180186000Y-49328000D02*
X180186000Y-55828000D01*
X173246000Y-49328000D02*
X180186000Y-49328000D01*
X169146000Y-49328000D02*
X169146000Y-48018000D01*
X162206000Y-49328000D02*
X169146000Y-49328000D01*
X180186000Y-55828000D02*
X162206000Y-55828000D01*
X162206000Y-55828000D02*
X162206000Y-49328000D01*
X181486000Y-57138000D02*
X160906000Y-57138000D01*
X160906000Y-57138000D02*
X160906000Y-48018000D01*
%TO.C,J15*%
X184142000Y-69615000D02*
X183142000Y-69615000D01*
X183142000Y-69615000D02*
X183642000Y-70615000D01*
X183642000Y-70615000D02*
X184142000Y-69615000D01*
X188852000Y-71005000D02*
X188852000Y-80125000D01*
X180612000Y-71005000D02*
X180612000Y-72315000D01*
X168272000Y-71005000D02*
X188852000Y-71005000D01*
X187552000Y-72315000D02*
X187552000Y-78815000D01*
X180612000Y-72315000D02*
X187552000Y-72315000D01*
X176512000Y-72315000D02*
X176512000Y-71005000D01*
X169572000Y-72315000D02*
X176512000Y-72315000D01*
X187552000Y-78815000D02*
X169572000Y-78815000D01*
X169572000Y-78815000D02*
X169572000Y-72315000D01*
X188852000Y-80125000D02*
X168272000Y-80125000D01*
X168272000Y-80125000D02*
X168272000Y-71005000D01*
%TO.C,J14*%
X178162000Y-82074000D02*
X178162000Y-86074000D01*
X178452000Y-81044000D02*
X178452000Y-87064000D01*
X178452000Y-87064000D02*
X188832000Y-87064000D01*
X179032000Y-81044000D02*
X179032000Y-81644000D01*
X179032000Y-81644000D02*
X180632000Y-81644000D01*
X179832000Y-86064000D02*
X180082000Y-85534000D01*
X179832000Y-86064000D02*
X187452000Y-86064000D01*
X179832000Y-87064000D02*
X179832000Y-86064000D01*
X180082000Y-85534000D02*
X187202000Y-85534000D01*
X180082000Y-87064000D02*
X180082000Y-86064000D01*
X180632000Y-81644000D02*
X180632000Y-81044000D01*
X181572000Y-81044000D02*
X181572000Y-81644000D01*
X181572000Y-81644000D02*
X183172000Y-81644000D01*
X183172000Y-81644000D02*
X183172000Y-81044000D01*
X184112000Y-81044000D02*
X184112000Y-81644000D01*
X184112000Y-81644000D02*
X185712000Y-81644000D01*
X185712000Y-81644000D02*
X185712000Y-81044000D01*
X186652000Y-81044000D02*
X186652000Y-81644000D01*
X186652000Y-81644000D02*
X188252000Y-81644000D01*
X187202000Y-85534000D02*
X187452000Y-86064000D01*
X187202000Y-87064000D02*
X187202000Y-86064000D01*
X187452000Y-86064000D02*
X187452000Y-87064000D01*
X188252000Y-81644000D02*
X188252000Y-81044000D01*
X188832000Y-81044000D02*
X178452000Y-81044000D01*
X188832000Y-87064000D02*
X188832000Y-81044000D01*
%TO.C,J13*%
X166478000Y-82074000D02*
X166478000Y-86074000D01*
X166768000Y-81044000D02*
X166768000Y-87064000D01*
X166768000Y-87064000D02*
X177148000Y-87064000D01*
X167348000Y-81044000D02*
X167348000Y-81644000D01*
X167348000Y-81644000D02*
X168948000Y-81644000D01*
X168148000Y-86064000D02*
X168398000Y-85534000D01*
X168148000Y-86064000D02*
X175768000Y-86064000D01*
X168148000Y-87064000D02*
X168148000Y-86064000D01*
X168398000Y-85534000D02*
X175518000Y-85534000D01*
X168398000Y-87064000D02*
X168398000Y-86064000D01*
X168948000Y-81644000D02*
X168948000Y-81044000D01*
X169888000Y-81044000D02*
X169888000Y-81644000D01*
X169888000Y-81644000D02*
X171488000Y-81644000D01*
X171488000Y-81644000D02*
X171488000Y-81044000D01*
X172428000Y-81044000D02*
X172428000Y-81644000D01*
X172428000Y-81644000D02*
X174028000Y-81644000D01*
X174028000Y-81644000D02*
X174028000Y-81044000D01*
X174968000Y-81044000D02*
X174968000Y-81644000D01*
X174968000Y-81644000D02*
X176568000Y-81644000D01*
X175518000Y-85534000D02*
X175768000Y-86064000D01*
X175518000Y-87064000D02*
X175518000Y-86064000D01*
X175768000Y-86064000D02*
X175768000Y-87064000D01*
X176568000Y-81644000D02*
X176568000Y-81044000D01*
X177148000Y-81044000D02*
X166768000Y-81044000D01*
X177148000Y-87064000D02*
X177148000Y-81044000D01*
%TO.C,J12*%
X160893000Y-39778000D02*
X160893000Y-41028000D01*
X161183000Y-40068000D02*
X161183000Y-46038000D01*
X161183000Y-46038000D02*
X171303000Y-46038000D01*
X161193000Y-40078000D02*
X161193000Y-40828000D01*
X161193000Y-40828000D02*
X162993000Y-40828000D01*
X161193000Y-42328000D02*
X161943000Y-42328000D01*
X161943000Y-42328000D02*
X161943000Y-45278000D01*
X161943000Y-45278000D02*
X166243000Y-45278000D01*
X162143000Y-39778000D02*
X160893000Y-39778000D01*
X162993000Y-40078000D02*
X161193000Y-40078000D01*
X162993000Y-40828000D02*
X162993000Y-40078000D01*
X164493000Y-40078000D02*
X164493000Y-40828000D01*
X164493000Y-40828000D02*
X167993000Y-40828000D01*
X167993000Y-40078000D02*
X164493000Y-40078000D01*
X167993000Y-40828000D02*
X167993000Y-40078000D01*
X169493000Y-40078000D02*
X169493000Y-40828000D01*
X169493000Y-40828000D02*
X171293000Y-40828000D01*
X170543000Y-42328000D02*
X170543000Y-45278000D01*
X170543000Y-45278000D02*
X166243000Y-45278000D01*
X171293000Y-40078000D02*
X169493000Y-40078000D01*
X171293000Y-40828000D02*
X171293000Y-40078000D01*
X171293000Y-42328000D02*
X170543000Y-42328000D01*
X171303000Y-40068000D02*
X161183000Y-40068000D01*
X171303000Y-46038000D02*
X171303000Y-40068000D01*
%TO.C,J11*%
X118313143Y-70508302D02*
X117013143Y-70508302D01*
X118013143Y-70808302D02*
X118013143Y-72808302D01*
X103513143Y-70808302D02*
X118013143Y-70808302D01*
X118313143Y-72208302D02*
X118313143Y-70508302D01*
X118013143Y-78008302D02*
X118013143Y-80008302D01*
X118013143Y-80008302D02*
X116713143Y-80008302D01*
X112113143Y-80008302D02*
X103513143Y-80008302D01*
X103513143Y-80008302D02*
X103513143Y-70808302D01*
%TO.C,J10*%
X110800000Y-81280000D02*
X110800000Y-91520000D01*
X103180000Y-81280000D02*
X103180000Y-91520000D01*
X102080000Y-81280000D02*
X102080000Y-91520000D01*
X101560000Y-81280000D02*
X110800000Y-81280000D01*
X101560000Y-83600000D02*
X101560000Y-81280000D01*
X110800000Y-91520000D02*
X101560000Y-91520000D01*
X101560000Y-91520000D02*
X101560000Y-84200000D01*
X101560000Y-83900000D02*
X100950000Y-84340000D01*
X100950000Y-83460000D01*
X101560000Y-83900000D01*
G36*
X101560000Y-83900000D02*
G01*
X100950000Y-84340000D01*
X100950000Y-83460000D01*
X101560000Y-83900000D01*
G37*
%TO.C,J9*%
X118094000Y-40430000D02*
X118094000Y-41680000D01*
X118384000Y-40720000D02*
X118384000Y-46690000D01*
X118384000Y-46690000D02*
X128504000Y-46690000D01*
X118394000Y-40730000D02*
X118394000Y-41480000D01*
X118394000Y-41480000D02*
X120194000Y-41480000D01*
X118394000Y-42980000D02*
X119144000Y-42980000D01*
X119144000Y-42980000D02*
X119144000Y-45930000D01*
X119144000Y-45930000D02*
X123444000Y-45930000D01*
X119344000Y-40430000D02*
X118094000Y-40430000D01*
X120194000Y-40730000D02*
X118394000Y-40730000D01*
X120194000Y-41480000D02*
X120194000Y-40730000D01*
X121694000Y-40730000D02*
X121694000Y-41480000D01*
X121694000Y-41480000D02*
X125194000Y-41480000D01*
X125194000Y-40730000D02*
X121694000Y-40730000D01*
X125194000Y-41480000D02*
X125194000Y-40730000D01*
X126694000Y-40730000D02*
X126694000Y-41480000D01*
X126694000Y-41480000D02*
X128494000Y-41480000D01*
X127744000Y-42980000D02*
X127744000Y-45930000D01*
X127744000Y-45930000D02*
X123444000Y-45930000D01*
X128494000Y-40730000D02*
X126694000Y-40730000D01*
X128494000Y-41480000D02*
X128494000Y-40730000D01*
X128494000Y-42980000D02*
X127744000Y-42980000D01*
X128504000Y-40720000D02*
X118384000Y-40720000D01*
X128504000Y-46690000D02*
X128504000Y-40720000D01*
%TO.C,J8*%
X173228000Y-64456000D02*
X165548000Y-64456000D01*
X173228000Y-64456000D02*
X173228000Y-67116000D01*
X165548000Y-64456000D02*
X165548000Y-67116000D01*
X175828000Y-65786000D02*
X175828000Y-67116000D01*
X175828000Y-67116000D02*
X174498000Y-67116000D01*
X173228000Y-67116000D02*
X165548000Y-67116000D01*
%TO.C,J6*%
X178926000Y-58818000D02*
X178926000Y-60198000D01*
X177546000Y-58818000D02*
X178926000Y-58818000D01*
X176276000Y-58818000D02*
X166006000Y-58818000D01*
X176276000Y-58818000D02*
X176276000Y-61578000D01*
X166006000Y-58818000D02*
X166006000Y-61578000D01*
X176276000Y-61578000D02*
X166006000Y-61578000D01*
%TO.C,J5*%
X135255000Y-44002000D02*
X142935000Y-44002000D01*
X135255000Y-44002000D02*
X135255000Y-41342000D01*
X142935000Y-44002000D02*
X142935000Y-41342000D01*
X132655000Y-42672000D02*
X132655000Y-41342000D01*
X132655000Y-41342000D02*
X133985000Y-41342000D01*
X135255000Y-41342000D02*
X142935000Y-41342000D01*
%TO.C,J4*%
X179688000Y-67933000D02*
X178308000Y-67933000D01*
X179688000Y-66553000D02*
X179688000Y-67933000D01*
X179688000Y-65283000D02*
X179688000Y-62633000D01*
X179688000Y-65283000D02*
X176928000Y-65283000D01*
X179688000Y-62633000D02*
X176928000Y-62633000D01*
X176928000Y-65283000D02*
X176928000Y-62633000D01*
%TO.C,J2*%
X181568000Y-59010000D02*
X182843000Y-59010000D01*
X182843000Y-58945000D02*
X182843000Y-59010000D01*
X182843000Y-58945000D02*
X186473000Y-58945000D01*
X182843000Y-67990000D02*
X182843000Y-68055000D01*
X182843000Y-68055000D02*
X186473000Y-68055000D01*
X186473000Y-58945000D02*
X186473000Y-59010000D01*
X186473000Y-67990000D02*
X186473000Y-68055000D01*
%TO.C,J1*%
X186657988Y-41087150D02*
X186657988Y-48767150D01*
X186657988Y-41087150D02*
X189317988Y-41087150D01*
X186657988Y-48767150D02*
X189317988Y-48767150D01*
X187987988Y-38487150D02*
X189317988Y-38487150D01*
X189317988Y-38487150D02*
X189317988Y-39817150D01*
X189317988Y-41087150D02*
X189317988Y-48767150D01*
%TO.C,F1*%
X119367802Y-81112534D02*
X119827802Y-81112534D01*
X119367802Y-81112534D02*
X119367802Y-71162534D01*
X124157802Y-81112534D02*
X124617802Y-81112534D01*
X124617802Y-81112534D02*
X124617802Y-71162534D01*
X119367802Y-71162534D02*
X119827802Y-71162534D01*
X124617802Y-71162534D02*
X124157802Y-71162534D01*
%TO.C,D26*%
X179043000Y-94860000D02*
X177573000Y-94860000D01*
X177573000Y-94860000D02*
X177573000Y-97320000D01*
X179043000Y-97320000D02*
X179043000Y-94860000D01*
%TO.C,D21*%
X177011000Y-94719000D02*
X175541000Y-94719000D01*
X175541000Y-94719000D02*
X175541000Y-97179000D01*
X177011000Y-97179000D02*
X177011000Y-94719000D01*
%TO.C,D20*%
X173763000Y-97926000D02*
X175233000Y-97926000D01*
X175233000Y-97926000D02*
X175233000Y-95466000D01*
X173763000Y-95466000D02*
X173763000Y-97926000D01*
%TO.C,D19*%
X171985000Y-97926000D02*
X173455000Y-97926000D01*
X173455000Y-97926000D02*
X173455000Y-95466000D01*
X171985000Y-95466000D02*
X171985000Y-97926000D01*
%TO.C,D2*%
X180821000Y-94860000D02*
X179351000Y-94860000D01*
X179351000Y-94860000D02*
X179351000Y-97320000D01*
X180821000Y-97320000D02*
X180821000Y-94860000D01*
%TO.C,C48*%
X186035733Y-55624000D02*
X186328267Y-55624000D01*
X186035733Y-56644000D02*
X186328267Y-56644000D01*
%TO.C,C47*%
X167642000Y-73259733D02*
X167642000Y-73552267D01*
X166622000Y-73259733D02*
X166622000Y-73552267D01*
%TO.C,C42*%
X183888748Y-47017000D02*
X184411252Y-47017000D01*
X183888748Y-48487000D02*
X184411252Y-48487000D01*
%TO.C,C39*%
X134823252Y-62378000D02*
X133400748Y-62378000D01*
X134823252Y-60558000D02*
X133400748Y-60558000D01*
%TO.C,C32*%
X112471252Y-54504000D02*
X111048748Y-54504000D01*
X112471252Y-52684000D02*
X111048748Y-52684000D01*
%TO.C,C31*%
X112471252Y-57298000D02*
X111048748Y-57298000D01*
X112471252Y-55478000D02*
X111048748Y-55478000D01*
%TO.C,C28*%
X143480000Y-72124000D02*
X143480000Y-73124000D01*
X143980000Y-72624000D02*
X142980000Y-72624000D01*
X144265563Y-73364000D02*
X142480000Y-73364000D01*
X144265563Y-73364000D02*
X145330000Y-74428437D01*
X137674437Y-73364000D02*
X139460000Y-73364000D01*
X137674437Y-73364000D02*
X136610000Y-74428437D01*
X145330000Y-74428437D02*
X145330000Y-82084000D01*
X136610000Y-74428437D02*
X136610000Y-82084000D01*
X145330000Y-82084000D02*
X142480000Y-82084000D01*
X136610000Y-82084000D02*
X139460000Y-82084000D01*
%TO.C,C27*%
X115558000Y-51338000D02*
X116558000Y-51338000D01*
X116058000Y-50838000D02*
X116058000Y-51838000D01*
X116798000Y-50552437D02*
X116798000Y-52338000D01*
X116798000Y-50552437D02*
X117862437Y-49488000D01*
X116798000Y-57143563D02*
X116798000Y-55358000D01*
X116798000Y-57143563D02*
X117862437Y-58208000D01*
X117862437Y-49488000D02*
X125518000Y-49488000D01*
X117862437Y-58208000D02*
X125518000Y-58208000D01*
X125518000Y-49488000D02*
X125518000Y-52338000D01*
X125518000Y-58208000D02*
X125518000Y-55358000D01*
%TO.C,C24*%
X144242000Y-87872000D02*
X144242000Y-88872000D01*
X144742000Y-88372000D02*
X143742000Y-88372000D01*
X145027563Y-89112000D02*
X143242000Y-89112000D01*
X145027563Y-89112000D02*
X146092000Y-90176437D01*
X138436437Y-89112000D02*
X140222000Y-89112000D01*
X138436437Y-89112000D02*
X137372000Y-90176437D01*
X146092000Y-90176437D02*
X146092000Y-97832000D01*
X137372000Y-90176437D02*
X137372000Y-97832000D01*
X146092000Y-97832000D02*
X143242000Y-97832000D01*
X137372000Y-97832000D02*
X140222000Y-97832000D01*
%TD*%
D15*
%TO.C,U8*%
X128784323Y-83913662D03*
%TD*%
M02*
