%TF.GenerationSoftware,KiCad,Pcbnew,9.0.5*%
%TF.CreationDate,2026-04-28T10:36:50+02:00*%
%TF.ProjectId,mobile_robot,6d6f6269-6c65-45f7-926f-626f742e6b69,rev?*%
%TF.SameCoordinates,Original*%
%TF.FileFunction,Legend,Top*%
%TF.FilePolarity,Positive*%
%FSLAX46Y46*%
G04 Gerber Fmt 4.6, Leading zero omitted, Abs format (unit mm)*
G04 Created by KiCad (PCBNEW 9.0.5) date 2026-04-28 10:36:50*
%MOMM*%
%LPD*%
G01*
G04 APERTURE LIST*
%ADD10C,0.150000*%
%ADD11C,0.100000*%
%ADD12C,0.254000*%
%ADD13C,0.120000*%
%ADD14C,0.200000*%
%ADD15C,0.600000*%
G04 APERTURE END LIST*
D10*
X159125620Y-39812740D02*
X159136379Y-40197259D01*
X157607000Y-39878000D02*
X156845000Y-39878000D01*
D11*
X157966455Y-72553133D02*
X157966455Y-71853133D01*
X157966455Y-71853133D02*
X158233122Y-71853133D01*
X158233122Y-71853133D02*
X158299789Y-71886466D01*
X158299789Y-71886466D02*
X158333122Y-71919800D01*
X158333122Y-71919800D02*
X158366455Y-71986466D01*
X158366455Y-71986466D02*
X158366455Y-72086466D01*
X158366455Y-72086466D02*
X158333122Y-72153133D01*
X158333122Y-72153133D02*
X158299789Y-72186466D01*
X158299789Y-72186466D02*
X158233122Y-72219800D01*
X158233122Y-72219800D02*
X157966455Y-72219800D01*
X158599789Y-71853133D02*
X158766455Y-72553133D01*
X158766455Y-72553133D02*
X158899789Y-72053133D01*
X158899789Y-72053133D02*
X159033122Y-72553133D01*
X159033122Y-72553133D02*
X159199789Y-71853133D01*
X159466455Y-72553133D02*
X159466455Y-71853133D01*
X159466455Y-71853133D02*
X159699789Y-72353133D01*
X159699789Y-72353133D02*
X159933122Y-71853133D01*
X159933122Y-71853133D02*
X159933122Y-72553133D01*
X161666455Y-71853133D02*
X161333121Y-71853133D01*
X161333121Y-71853133D02*
X161299788Y-72186466D01*
X161299788Y-72186466D02*
X161333121Y-72153133D01*
X161333121Y-72153133D02*
X161399788Y-72119800D01*
X161399788Y-72119800D02*
X161566455Y-72119800D01*
X161566455Y-72119800D02*
X161633121Y-72153133D01*
X161633121Y-72153133D02*
X161666455Y-72186466D01*
X161666455Y-72186466D02*
X161699788Y-72253133D01*
X161699788Y-72253133D02*
X161699788Y-72419800D01*
X161699788Y-72419800D02*
X161666455Y-72486466D01*
X161666455Y-72486466D02*
X161633121Y-72519800D01*
X161633121Y-72519800D02*
X161566455Y-72553133D01*
X161566455Y-72553133D02*
X161399788Y-72553133D01*
X161399788Y-72553133D02*
X161333121Y-72519800D01*
X161333121Y-72519800D02*
X161299788Y-72486466D01*
X161899788Y-71853133D02*
X162133122Y-72553133D01*
X162133122Y-72553133D02*
X162366455Y-71853133D01*
X163499788Y-71886466D02*
X163433121Y-71853133D01*
X163433121Y-71853133D02*
X163333121Y-71853133D01*
X163333121Y-71853133D02*
X163233121Y-71886466D01*
X163233121Y-71886466D02*
X163166455Y-71953133D01*
X163166455Y-71953133D02*
X163133121Y-72019800D01*
X163133121Y-72019800D02*
X163099788Y-72153133D01*
X163099788Y-72153133D02*
X163099788Y-72253133D01*
X163099788Y-72253133D02*
X163133121Y-72386466D01*
X163133121Y-72386466D02*
X163166455Y-72453133D01*
X163166455Y-72453133D02*
X163233121Y-72519800D01*
X163233121Y-72519800D02*
X163333121Y-72553133D01*
X163333121Y-72553133D02*
X163399788Y-72553133D01*
X163399788Y-72553133D02*
X163499788Y-72519800D01*
X163499788Y-72519800D02*
X163533121Y-72486466D01*
X163533121Y-72486466D02*
X163533121Y-72253133D01*
X163533121Y-72253133D02*
X163399788Y-72253133D01*
X163833121Y-72553133D02*
X163833121Y-71853133D01*
X163833121Y-71853133D02*
X164233121Y-72553133D01*
X164233121Y-72553133D02*
X164233121Y-71853133D01*
X164566454Y-72553133D02*
X164566454Y-71853133D01*
X164566454Y-71853133D02*
X164733121Y-71853133D01*
X164733121Y-71853133D02*
X164833121Y-71886466D01*
X164833121Y-71886466D02*
X164899788Y-71953133D01*
X164899788Y-71953133D02*
X164933121Y-72019800D01*
X164933121Y-72019800D02*
X164966454Y-72153133D01*
X164966454Y-72153133D02*
X164966454Y-72253133D01*
X164966454Y-72253133D02*
X164933121Y-72386466D01*
X164933121Y-72386466D02*
X164899788Y-72453133D01*
X164899788Y-72453133D02*
X164833121Y-72519800D01*
X164833121Y-72519800D02*
X164733121Y-72553133D01*
X164733121Y-72553133D02*
X164566454Y-72553133D01*
X133844360Y-40342371D02*
X133558646Y-40342371D01*
X133558646Y-40342371D02*
X133530074Y-40628085D01*
X133530074Y-40628085D02*
X133558646Y-40599514D01*
X133558646Y-40599514D02*
X133615789Y-40570942D01*
X133615789Y-40570942D02*
X133758646Y-40570942D01*
X133758646Y-40570942D02*
X133815789Y-40599514D01*
X133815789Y-40599514D02*
X133844360Y-40628085D01*
X133844360Y-40628085D02*
X133872931Y-40685228D01*
X133872931Y-40685228D02*
X133872931Y-40828085D01*
X133872931Y-40828085D02*
X133844360Y-40885228D01*
X133844360Y-40885228D02*
X133815789Y-40913800D01*
X133815789Y-40913800D02*
X133758646Y-40942371D01*
X133758646Y-40942371D02*
X133615789Y-40942371D01*
X133615789Y-40942371D02*
X133558646Y-40913800D01*
X133558646Y-40913800D02*
X133530074Y-40885228D01*
X134044360Y-40342371D02*
X134244360Y-40942371D01*
X134244360Y-40942371D02*
X134444360Y-40342371D01*
X135872932Y-40370942D02*
X135815790Y-40342371D01*
X135815790Y-40342371D02*
X135730075Y-40342371D01*
X135730075Y-40342371D02*
X135644361Y-40370942D01*
X135644361Y-40370942D02*
X135587218Y-40428085D01*
X135587218Y-40428085D02*
X135558647Y-40485228D01*
X135558647Y-40485228D02*
X135530075Y-40599514D01*
X135530075Y-40599514D02*
X135530075Y-40685228D01*
X135530075Y-40685228D02*
X135558647Y-40799514D01*
X135558647Y-40799514D02*
X135587218Y-40856657D01*
X135587218Y-40856657D02*
X135644361Y-40913800D01*
X135644361Y-40913800D02*
X135730075Y-40942371D01*
X135730075Y-40942371D02*
X135787218Y-40942371D01*
X135787218Y-40942371D02*
X135872932Y-40913800D01*
X135872932Y-40913800D02*
X135901504Y-40885228D01*
X135901504Y-40885228D02*
X135901504Y-40685228D01*
X135901504Y-40685228D02*
X135787218Y-40685228D01*
X136158647Y-40942371D02*
X136158647Y-40342371D01*
X136158647Y-40342371D02*
X136501504Y-40942371D01*
X136501504Y-40942371D02*
X136501504Y-40342371D01*
X136787218Y-40942371D02*
X136787218Y-40342371D01*
X136787218Y-40342371D02*
X136930075Y-40342371D01*
X136930075Y-40342371D02*
X137015789Y-40370942D01*
X137015789Y-40370942D02*
X137072932Y-40428085D01*
X137072932Y-40428085D02*
X137101503Y-40485228D01*
X137101503Y-40485228D02*
X137130075Y-40599514D01*
X137130075Y-40599514D02*
X137130075Y-40685228D01*
X137130075Y-40685228D02*
X137101503Y-40799514D01*
X137101503Y-40799514D02*
X137072932Y-40856657D01*
X137072932Y-40856657D02*
X137015789Y-40913800D01*
X137015789Y-40913800D02*
X136930075Y-40942371D01*
X136930075Y-40942371D02*
X136787218Y-40942371D01*
X138272932Y-40913800D02*
X138358647Y-40942371D01*
X138358647Y-40942371D02*
X138501504Y-40942371D01*
X138501504Y-40942371D02*
X138558647Y-40913800D01*
X138558647Y-40913800D02*
X138587218Y-40885228D01*
X138587218Y-40885228D02*
X138615789Y-40828085D01*
X138615789Y-40828085D02*
X138615789Y-40770942D01*
X138615789Y-40770942D02*
X138587218Y-40713800D01*
X138587218Y-40713800D02*
X138558647Y-40685228D01*
X138558647Y-40685228D02*
X138501504Y-40656657D01*
X138501504Y-40656657D02*
X138387218Y-40628085D01*
X138387218Y-40628085D02*
X138330075Y-40599514D01*
X138330075Y-40599514D02*
X138301504Y-40570942D01*
X138301504Y-40570942D02*
X138272932Y-40513800D01*
X138272932Y-40513800D02*
X138272932Y-40456657D01*
X138272932Y-40456657D02*
X138301504Y-40399514D01*
X138301504Y-40399514D02*
X138330075Y-40370942D01*
X138330075Y-40370942D02*
X138387218Y-40342371D01*
X138387218Y-40342371D02*
X138530075Y-40342371D01*
X138530075Y-40342371D02*
X138615789Y-40370942D01*
X138872933Y-40942371D02*
X138872933Y-40342371D01*
X138872933Y-40342371D02*
X139015790Y-40342371D01*
X139015790Y-40342371D02*
X139101504Y-40370942D01*
X139101504Y-40370942D02*
X139158647Y-40428085D01*
X139158647Y-40428085D02*
X139187218Y-40485228D01*
X139187218Y-40485228D02*
X139215790Y-40599514D01*
X139215790Y-40599514D02*
X139215790Y-40685228D01*
X139215790Y-40685228D02*
X139187218Y-40799514D01*
X139187218Y-40799514D02*
X139158647Y-40856657D01*
X139158647Y-40856657D02*
X139101504Y-40913800D01*
X139101504Y-40913800D02*
X139015790Y-40942371D01*
X139015790Y-40942371D02*
X138872933Y-40942371D01*
X139444361Y-40770942D02*
X139730076Y-40770942D01*
X139387218Y-40942371D02*
X139587218Y-40342371D01*
X139587218Y-40342371D02*
X139787218Y-40942371D01*
X140872933Y-40913800D02*
X140958648Y-40942371D01*
X140958648Y-40942371D02*
X141101505Y-40942371D01*
X141101505Y-40942371D02*
X141158648Y-40913800D01*
X141158648Y-40913800D02*
X141187219Y-40885228D01*
X141187219Y-40885228D02*
X141215790Y-40828085D01*
X141215790Y-40828085D02*
X141215790Y-40770942D01*
X141215790Y-40770942D02*
X141187219Y-40713800D01*
X141187219Y-40713800D02*
X141158648Y-40685228D01*
X141158648Y-40685228D02*
X141101505Y-40656657D01*
X141101505Y-40656657D02*
X140987219Y-40628085D01*
X140987219Y-40628085D02*
X140930076Y-40599514D01*
X140930076Y-40599514D02*
X140901505Y-40570942D01*
X140901505Y-40570942D02*
X140872933Y-40513800D01*
X140872933Y-40513800D02*
X140872933Y-40456657D01*
X140872933Y-40456657D02*
X140901505Y-40399514D01*
X140901505Y-40399514D02*
X140930076Y-40370942D01*
X140930076Y-40370942D02*
X140987219Y-40342371D01*
X140987219Y-40342371D02*
X141130076Y-40342371D01*
X141130076Y-40342371D02*
X141215790Y-40370942D01*
X141815791Y-40885228D02*
X141787219Y-40913800D01*
X141787219Y-40913800D02*
X141701505Y-40942371D01*
X141701505Y-40942371D02*
X141644362Y-40942371D01*
X141644362Y-40942371D02*
X141558648Y-40913800D01*
X141558648Y-40913800D02*
X141501505Y-40856657D01*
X141501505Y-40856657D02*
X141472934Y-40799514D01*
X141472934Y-40799514D02*
X141444362Y-40685228D01*
X141444362Y-40685228D02*
X141444362Y-40599514D01*
X141444362Y-40599514D02*
X141472934Y-40485228D01*
X141472934Y-40485228D02*
X141501505Y-40428085D01*
X141501505Y-40428085D02*
X141558648Y-40370942D01*
X141558648Y-40370942D02*
X141644362Y-40342371D01*
X141644362Y-40342371D02*
X141701505Y-40342371D01*
X141701505Y-40342371D02*
X141787219Y-40370942D01*
X141787219Y-40370942D02*
X141815791Y-40399514D01*
X142358648Y-40942371D02*
X142072934Y-40942371D01*
X142072934Y-40942371D02*
X142072934Y-40342371D01*
X145701506Y-40342371D02*
X146072934Y-40342371D01*
X146072934Y-40342371D02*
X145872934Y-40570942D01*
X145872934Y-40570942D02*
X145958649Y-40570942D01*
X145958649Y-40570942D02*
X146015792Y-40599514D01*
X146015792Y-40599514D02*
X146044363Y-40628085D01*
X146044363Y-40628085D02*
X146072934Y-40685228D01*
X146072934Y-40685228D02*
X146072934Y-40828085D01*
X146072934Y-40828085D02*
X146044363Y-40885228D01*
X146044363Y-40885228D02*
X146015792Y-40913800D01*
X146015792Y-40913800D02*
X145958649Y-40942371D01*
X145958649Y-40942371D02*
X145787220Y-40942371D01*
X145787220Y-40942371D02*
X145730077Y-40913800D01*
X145730077Y-40913800D02*
X145701506Y-40885228D01*
X146244363Y-40342371D02*
X146444363Y-40942371D01*
X146444363Y-40942371D02*
X146644363Y-40342371D01*
X146787221Y-40342371D02*
X147158649Y-40342371D01*
X147158649Y-40342371D02*
X146958649Y-40570942D01*
X146958649Y-40570942D02*
X147044364Y-40570942D01*
X147044364Y-40570942D02*
X147101507Y-40599514D01*
X147101507Y-40599514D02*
X147130078Y-40628085D01*
X147130078Y-40628085D02*
X147158649Y-40685228D01*
X147158649Y-40685228D02*
X147158649Y-40828085D01*
X147158649Y-40828085D02*
X147130078Y-40885228D01*
X147130078Y-40885228D02*
X147101507Y-40913800D01*
X147101507Y-40913800D02*
X147044364Y-40942371D01*
X147044364Y-40942371D02*
X146872935Y-40942371D01*
X146872935Y-40942371D02*
X146815792Y-40913800D01*
X146815792Y-40913800D02*
X146787221Y-40885228D01*
X148644364Y-40370942D02*
X148587222Y-40342371D01*
X148587222Y-40342371D02*
X148501507Y-40342371D01*
X148501507Y-40342371D02*
X148415793Y-40370942D01*
X148415793Y-40370942D02*
X148358650Y-40428085D01*
X148358650Y-40428085D02*
X148330079Y-40485228D01*
X148330079Y-40485228D02*
X148301507Y-40599514D01*
X148301507Y-40599514D02*
X148301507Y-40685228D01*
X148301507Y-40685228D02*
X148330079Y-40799514D01*
X148330079Y-40799514D02*
X148358650Y-40856657D01*
X148358650Y-40856657D02*
X148415793Y-40913800D01*
X148415793Y-40913800D02*
X148501507Y-40942371D01*
X148501507Y-40942371D02*
X148558650Y-40942371D01*
X148558650Y-40942371D02*
X148644364Y-40913800D01*
X148644364Y-40913800D02*
X148672936Y-40885228D01*
X148672936Y-40885228D02*
X148672936Y-40685228D01*
X148672936Y-40685228D02*
X148558650Y-40685228D01*
X148930079Y-40942371D02*
X148930079Y-40342371D01*
X148930079Y-40342371D02*
X149272936Y-40942371D01*
X149272936Y-40942371D02*
X149272936Y-40342371D01*
X149558650Y-40942371D02*
X149558650Y-40342371D01*
X149558650Y-40342371D02*
X149701507Y-40342371D01*
X149701507Y-40342371D02*
X149787221Y-40370942D01*
X149787221Y-40370942D02*
X149844364Y-40428085D01*
X149844364Y-40428085D02*
X149872935Y-40485228D01*
X149872935Y-40485228D02*
X149901507Y-40599514D01*
X149901507Y-40599514D02*
X149901507Y-40685228D01*
X149901507Y-40685228D02*
X149872935Y-40799514D01*
X149872935Y-40799514D02*
X149844364Y-40856657D01*
X149844364Y-40856657D02*
X149787221Y-40913800D01*
X149787221Y-40913800D02*
X149701507Y-40942371D01*
X149701507Y-40942371D02*
X149558650Y-40942371D01*
X151044364Y-40913800D02*
X151130079Y-40942371D01*
X151130079Y-40942371D02*
X151272936Y-40942371D01*
X151272936Y-40942371D02*
X151330079Y-40913800D01*
X151330079Y-40913800D02*
X151358650Y-40885228D01*
X151358650Y-40885228D02*
X151387221Y-40828085D01*
X151387221Y-40828085D02*
X151387221Y-40770942D01*
X151387221Y-40770942D02*
X151358650Y-40713800D01*
X151358650Y-40713800D02*
X151330079Y-40685228D01*
X151330079Y-40685228D02*
X151272936Y-40656657D01*
X151272936Y-40656657D02*
X151158650Y-40628085D01*
X151158650Y-40628085D02*
X151101507Y-40599514D01*
X151101507Y-40599514D02*
X151072936Y-40570942D01*
X151072936Y-40570942D02*
X151044364Y-40513800D01*
X151044364Y-40513800D02*
X151044364Y-40456657D01*
X151044364Y-40456657D02*
X151072936Y-40399514D01*
X151072936Y-40399514D02*
X151101507Y-40370942D01*
X151101507Y-40370942D02*
X151158650Y-40342371D01*
X151158650Y-40342371D02*
X151301507Y-40342371D01*
X151301507Y-40342371D02*
X151387221Y-40370942D01*
X151987222Y-40885228D02*
X151958650Y-40913800D01*
X151958650Y-40913800D02*
X151872936Y-40942371D01*
X151872936Y-40942371D02*
X151815793Y-40942371D01*
X151815793Y-40942371D02*
X151730079Y-40913800D01*
X151730079Y-40913800D02*
X151672936Y-40856657D01*
X151672936Y-40856657D02*
X151644365Y-40799514D01*
X151644365Y-40799514D02*
X151615793Y-40685228D01*
X151615793Y-40685228D02*
X151615793Y-40599514D01*
X151615793Y-40599514D02*
X151644365Y-40485228D01*
X151644365Y-40485228D02*
X151672936Y-40428085D01*
X151672936Y-40428085D02*
X151730079Y-40370942D01*
X151730079Y-40370942D02*
X151815793Y-40342371D01*
X151815793Y-40342371D02*
X151872936Y-40342371D01*
X151872936Y-40342371D02*
X151958650Y-40370942D01*
X151958650Y-40370942D02*
X151987222Y-40399514D01*
X152530079Y-40942371D02*
X152244365Y-40942371D01*
X152244365Y-40942371D02*
X152244365Y-40342371D01*
X153615793Y-40913800D02*
X153701508Y-40942371D01*
X153701508Y-40942371D02*
X153844365Y-40942371D01*
X153844365Y-40942371D02*
X153901508Y-40913800D01*
X153901508Y-40913800D02*
X153930079Y-40885228D01*
X153930079Y-40885228D02*
X153958650Y-40828085D01*
X153958650Y-40828085D02*
X153958650Y-40770942D01*
X153958650Y-40770942D02*
X153930079Y-40713800D01*
X153930079Y-40713800D02*
X153901508Y-40685228D01*
X153901508Y-40685228D02*
X153844365Y-40656657D01*
X153844365Y-40656657D02*
X153730079Y-40628085D01*
X153730079Y-40628085D02*
X153672936Y-40599514D01*
X153672936Y-40599514D02*
X153644365Y-40570942D01*
X153644365Y-40570942D02*
X153615793Y-40513800D01*
X153615793Y-40513800D02*
X153615793Y-40456657D01*
X153615793Y-40456657D02*
X153644365Y-40399514D01*
X153644365Y-40399514D02*
X153672936Y-40370942D01*
X153672936Y-40370942D02*
X153730079Y-40342371D01*
X153730079Y-40342371D02*
X153872936Y-40342371D01*
X153872936Y-40342371D02*
X153958650Y-40370942D01*
X154215794Y-40942371D02*
X154215794Y-40342371D01*
X154215794Y-40342371D02*
X154358651Y-40342371D01*
X154358651Y-40342371D02*
X154444365Y-40370942D01*
X154444365Y-40370942D02*
X154501508Y-40428085D01*
X154501508Y-40428085D02*
X154530079Y-40485228D01*
X154530079Y-40485228D02*
X154558651Y-40599514D01*
X154558651Y-40599514D02*
X154558651Y-40685228D01*
X154558651Y-40685228D02*
X154530079Y-40799514D01*
X154530079Y-40799514D02*
X154501508Y-40856657D01*
X154501508Y-40856657D02*
X154444365Y-40913800D01*
X154444365Y-40913800D02*
X154358651Y-40942371D01*
X154358651Y-40942371D02*
X154215794Y-40942371D01*
X154787222Y-40770942D02*
X155072937Y-40770942D01*
X154730079Y-40942371D02*
X154930079Y-40342371D01*
X154930079Y-40342371D02*
X155130079Y-40942371D01*
D10*
X110048561Y-83410588D02*
X110096180Y-83315350D01*
X110096180Y-83315350D02*
X110096180Y-83172493D01*
X110096180Y-83172493D02*
X110048561Y-83029636D01*
X110048561Y-83029636D02*
X109953323Y-82934398D01*
X109953323Y-82934398D02*
X109858085Y-82886779D01*
X109858085Y-82886779D02*
X109667609Y-82839160D01*
X109667609Y-82839160D02*
X109524752Y-82839160D01*
X109524752Y-82839160D02*
X109334276Y-82886779D01*
X109334276Y-82886779D02*
X109239038Y-82934398D01*
X109239038Y-82934398D02*
X109143800Y-83029636D01*
X109143800Y-83029636D02*
X109096180Y-83172493D01*
X109096180Y-83172493D02*
X109096180Y-83267731D01*
X109096180Y-83267731D02*
X109143800Y-83410588D01*
X109143800Y-83410588D02*
X109191419Y-83458207D01*
X109191419Y-83458207D02*
X109524752Y-83458207D01*
X109524752Y-83458207D02*
X109524752Y-83267731D01*
X109096180Y-83886779D02*
X110096180Y-83886779D01*
X110096180Y-83886779D02*
X109096180Y-84458207D01*
X109096180Y-84458207D02*
X110096180Y-84458207D01*
X109096180Y-84934398D02*
X110096180Y-84934398D01*
X110096180Y-84934398D02*
X110096180Y-85172493D01*
X110096180Y-85172493D02*
X110048561Y-85315350D01*
X110048561Y-85315350D02*
X109953323Y-85410588D01*
X109953323Y-85410588D02*
X109858085Y-85458207D01*
X109858085Y-85458207D02*
X109667609Y-85505826D01*
X109667609Y-85505826D02*
X109524752Y-85505826D01*
X109524752Y-85505826D02*
X109334276Y-85458207D01*
X109334276Y-85458207D02*
X109239038Y-85410588D01*
X109239038Y-85410588D02*
X109143800Y-85315350D01*
X109143800Y-85315350D02*
X109096180Y-85172493D01*
X109096180Y-85172493D02*
X109096180Y-84934398D01*
X110096180Y-87315351D02*
X109096180Y-87648684D01*
X109096180Y-87648684D02*
X110096180Y-87982017D01*
X109096180Y-88315351D02*
X110096180Y-88315351D01*
X110096180Y-88315351D02*
X110096180Y-88553446D01*
X110096180Y-88553446D02*
X110048561Y-88696303D01*
X110048561Y-88696303D02*
X109953323Y-88791541D01*
X109953323Y-88791541D02*
X109858085Y-88839160D01*
X109858085Y-88839160D02*
X109667609Y-88886779D01*
X109667609Y-88886779D02*
X109524752Y-88886779D01*
X109524752Y-88886779D02*
X109334276Y-88839160D01*
X109334276Y-88839160D02*
X109239038Y-88791541D01*
X109239038Y-88791541D02*
X109143800Y-88696303D01*
X109143800Y-88696303D02*
X109096180Y-88553446D01*
X109096180Y-88553446D02*
X109096180Y-88315351D01*
X109096180Y-89315351D02*
X110096180Y-89315351D01*
X110096180Y-89315351D02*
X110096180Y-89553446D01*
X110096180Y-89553446D02*
X110048561Y-89696303D01*
X110048561Y-89696303D02*
X109953323Y-89791541D01*
X109953323Y-89791541D02*
X109858085Y-89839160D01*
X109858085Y-89839160D02*
X109667609Y-89886779D01*
X109667609Y-89886779D02*
X109524752Y-89886779D01*
X109524752Y-89886779D02*
X109334276Y-89839160D01*
X109334276Y-89839160D02*
X109239038Y-89791541D01*
X109239038Y-89791541D02*
X109143800Y-89696303D01*
X109143800Y-89696303D02*
X109096180Y-89553446D01*
X109096180Y-89553446D02*
X109096180Y-89315351D01*
X101412922Y-41668819D02*
X101746255Y-42668819D01*
X101746255Y-42668819D02*
X102079588Y-41668819D01*
X102793874Y-42621200D02*
X102698636Y-42668819D01*
X102698636Y-42668819D02*
X102508160Y-42668819D01*
X102508160Y-42668819D02*
X102412922Y-42621200D01*
X102412922Y-42621200D02*
X102365303Y-42525961D01*
X102365303Y-42525961D02*
X102365303Y-42145009D01*
X102365303Y-42145009D02*
X102412922Y-42049771D01*
X102412922Y-42049771D02*
X102508160Y-42002152D01*
X102508160Y-42002152D02*
X102698636Y-42002152D01*
X102698636Y-42002152D02*
X102793874Y-42049771D01*
X102793874Y-42049771D02*
X102841493Y-42145009D01*
X102841493Y-42145009D02*
X102841493Y-42240247D01*
X102841493Y-42240247D02*
X102365303Y-42335485D01*
X103270065Y-42668819D02*
X103270065Y-42002152D01*
X103270065Y-42192628D02*
X103317684Y-42097390D01*
X103317684Y-42097390D02*
X103365303Y-42049771D01*
X103365303Y-42049771D02*
X103460541Y-42002152D01*
X103460541Y-42002152D02*
X103555779Y-42002152D01*
X103841494Y-42621200D02*
X103936732Y-42668819D01*
X103936732Y-42668819D02*
X104127208Y-42668819D01*
X104127208Y-42668819D02*
X104222446Y-42621200D01*
X104222446Y-42621200D02*
X104270065Y-42525961D01*
X104270065Y-42525961D02*
X104270065Y-42478342D01*
X104270065Y-42478342D02*
X104222446Y-42383104D01*
X104222446Y-42383104D02*
X104127208Y-42335485D01*
X104127208Y-42335485D02*
X103984351Y-42335485D01*
X103984351Y-42335485D02*
X103889113Y-42287866D01*
X103889113Y-42287866D02*
X103841494Y-42192628D01*
X103841494Y-42192628D02*
X103841494Y-42145009D01*
X103841494Y-42145009D02*
X103889113Y-42049771D01*
X103889113Y-42049771D02*
X103984351Y-42002152D01*
X103984351Y-42002152D02*
X104127208Y-42002152D01*
X104127208Y-42002152D02*
X104222446Y-42049771D01*
X104698637Y-42668819D02*
X104698637Y-42002152D01*
X104698637Y-41668819D02*
X104651018Y-41716438D01*
X104651018Y-41716438D02*
X104698637Y-41764057D01*
X104698637Y-41764057D02*
X104746256Y-41716438D01*
X104746256Y-41716438D02*
X104698637Y-41668819D01*
X104698637Y-41668819D02*
X104698637Y-41764057D01*
X105317684Y-42668819D02*
X105222446Y-42621200D01*
X105222446Y-42621200D02*
X105174827Y-42573580D01*
X105174827Y-42573580D02*
X105127208Y-42478342D01*
X105127208Y-42478342D02*
X105127208Y-42192628D01*
X105127208Y-42192628D02*
X105174827Y-42097390D01*
X105174827Y-42097390D02*
X105222446Y-42049771D01*
X105222446Y-42049771D02*
X105317684Y-42002152D01*
X105317684Y-42002152D02*
X105460541Y-42002152D01*
X105460541Y-42002152D02*
X105555779Y-42049771D01*
X105555779Y-42049771D02*
X105603398Y-42097390D01*
X105603398Y-42097390D02*
X105651017Y-42192628D01*
X105651017Y-42192628D02*
X105651017Y-42478342D01*
X105651017Y-42478342D02*
X105603398Y-42573580D01*
X105603398Y-42573580D02*
X105555779Y-42621200D01*
X105555779Y-42621200D02*
X105460541Y-42668819D01*
X105460541Y-42668819D02*
X105317684Y-42668819D01*
X106079589Y-42002152D02*
X106079589Y-42668819D01*
X106079589Y-42097390D02*
X106127208Y-42049771D01*
X106127208Y-42049771D02*
X106222446Y-42002152D01*
X106222446Y-42002152D02*
X106365303Y-42002152D01*
X106365303Y-42002152D02*
X106460541Y-42049771D01*
X106460541Y-42049771D02*
X106508160Y-42145009D01*
X106508160Y-42145009D02*
X106508160Y-42668819D01*
X106984351Y-42573580D02*
X107031970Y-42621200D01*
X107031970Y-42621200D02*
X106984351Y-42668819D01*
X106984351Y-42668819D02*
X106936732Y-42621200D01*
X106936732Y-42621200D02*
X106984351Y-42573580D01*
X106984351Y-42573580D02*
X106984351Y-42668819D01*
X106984351Y-42049771D02*
X107031970Y-42097390D01*
X107031970Y-42097390D02*
X106984351Y-42145009D01*
X106984351Y-42145009D02*
X106936732Y-42097390D01*
X106936732Y-42097390D02*
X106984351Y-42049771D01*
X106984351Y-42049771D02*
X106984351Y-42145009D01*
X108079589Y-41668819D02*
X108412922Y-42668819D01*
X108412922Y-42668819D02*
X108746255Y-41668819D01*
X109031970Y-41764057D02*
X109079589Y-41716438D01*
X109079589Y-41716438D02*
X109174827Y-41668819D01*
X109174827Y-41668819D02*
X109412922Y-41668819D01*
X109412922Y-41668819D02*
X109508160Y-41716438D01*
X109508160Y-41716438D02*
X109555779Y-41764057D01*
X109555779Y-41764057D02*
X109603398Y-41859295D01*
X109603398Y-41859295D02*
X109603398Y-41954533D01*
X109603398Y-41954533D02*
X109555779Y-42097390D01*
X109555779Y-42097390D02*
X108984351Y-42668819D01*
X108984351Y-42668819D02*
X109603398Y-42668819D01*
D11*
X163760789Y-46453133D02*
X163427455Y-46453133D01*
X163427455Y-46453133D02*
X163394122Y-46786466D01*
X163394122Y-46786466D02*
X163427455Y-46753133D01*
X163427455Y-46753133D02*
X163494122Y-46719800D01*
X163494122Y-46719800D02*
X163660789Y-46719800D01*
X163660789Y-46719800D02*
X163727455Y-46753133D01*
X163727455Y-46753133D02*
X163760789Y-46786466D01*
X163760789Y-46786466D02*
X163794122Y-46853133D01*
X163794122Y-46853133D02*
X163794122Y-47019800D01*
X163794122Y-47019800D02*
X163760789Y-47086466D01*
X163760789Y-47086466D02*
X163727455Y-47119800D01*
X163727455Y-47119800D02*
X163660789Y-47153133D01*
X163660789Y-47153133D02*
X163494122Y-47153133D01*
X163494122Y-47153133D02*
X163427455Y-47119800D01*
X163427455Y-47119800D02*
X163394122Y-47086466D01*
X163994122Y-46453133D02*
X164227456Y-47153133D01*
X164227456Y-47153133D02*
X164460789Y-46453133D01*
X165594122Y-46486466D02*
X165527455Y-46453133D01*
X165527455Y-46453133D02*
X165427455Y-46453133D01*
X165427455Y-46453133D02*
X165327455Y-46486466D01*
X165327455Y-46486466D02*
X165260789Y-46553133D01*
X165260789Y-46553133D02*
X165227455Y-46619800D01*
X165227455Y-46619800D02*
X165194122Y-46753133D01*
X165194122Y-46753133D02*
X165194122Y-46853133D01*
X165194122Y-46853133D02*
X165227455Y-46986466D01*
X165227455Y-46986466D02*
X165260789Y-47053133D01*
X165260789Y-47053133D02*
X165327455Y-47119800D01*
X165327455Y-47119800D02*
X165427455Y-47153133D01*
X165427455Y-47153133D02*
X165494122Y-47153133D01*
X165494122Y-47153133D02*
X165594122Y-47119800D01*
X165594122Y-47119800D02*
X165627455Y-47086466D01*
X165627455Y-47086466D02*
X165627455Y-46853133D01*
X165627455Y-46853133D02*
X165494122Y-46853133D01*
X165927455Y-47153133D02*
X165927455Y-46453133D01*
X165927455Y-46453133D02*
X166327455Y-47153133D01*
X166327455Y-47153133D02*
X166327455Y-46453133D01*
X166660788Y-47153133D02*
X166660788Y-46453133D01*
X166660788Y-46453133D02*
X166827455Y-46453133D01*
X166827455Y-46453133D02*
X166927455Y-46486466D01*
X166927455Y-46486466D02*
X166994122Y-46553133D01*
X166994122Y-46553133D02*
X167027455Y-46619800D01*
X167027455Y-46619800D02*
X167060788Y-46753133D01*
X167060788Y-46753133D02*
X167060788Y-46853133D01*
X167060788Y-46853133D02*
X167027455Y-46986466D01*
X167027455Y-46986466D02*
X166994122Y-47053133D01*
X166994122Y-47053133D02*
X166927455Y-47119800D01*
X166927455Y-47119800D02*
X166827455Y-47153133D01*
X166827455Y-47153133D02*
X166660788Y-47153133D01*
X167860788Y-46953133D02*
X168194121Y-46953133D01*
X167794121Y-47153133D02*
X168027455Y-46453133D01*
X168027455Y-46453133D02*
X168260788Y-47153133D01*
X168494121Y-47153133D02*
X168494121Y-46453133D01*
X168494121Y-46453133D02*
X168660788Y-46453133D01*
X168660788Y-46453133D02*
X168760788Y-46486466D01*
X168760788Y-46486466D02*
X168827455Y-46553133D01*
X168827455Y-46553133D02*
X168860788Y-46619800D01*
X168860788Y-46619800D02*
X168894121Y-46753133D01*
X168894121Y-46753133D02*
X168894121Y-46853133D01*
X168894121Y-46853133D02*
X168860788Y-46986466D01*
X168860788Y-46986466D02*
X168827455Y-47053133D01*
X168827455Y-47053133D02*
X168760788Y-47119800D01*
X168760788Y-47119800D02*
X168660788Y-47153133D01*
X168660788Y-47153133D02*
X168494121Y-47153133D01*
X169594121Y-47086466D02*
X169560788Y-47119800D01*
X169560788Y-47119800D02*
X169460788Y-47153133D01*
X169460788Y-47153133D02*
X169394121Y-47153133D01*
X169394121Y-47153133D02*
X169294121Y-47119800D01*
X169294121Y-47119800D02*
X169227455Y-47053133D01*
X169227455Y-47053133D02*
X169194121Y-46986466D01*
X169194121Y-46986466D02*
X169160788Y-46853133D01*
X169160788Y-46853133D02*
X169160788Y-46753133D01*
X169160788Y-46753133D02*
X169194121Y-46619800D01*
X169194121Y-46619800D02*
X169227455Y-46553133D01*
X169227455Y-46553133D02*
X169294121Y-46486466D01*
X169294121Y-46486466D02*
X169394121Y-46453133D01*
X169394121Y-46453133D02*
X169460788Y-46453133D01*
X169460788Y-46453133D02*
X169560788Y-46486466D01*
X169560788Y-46486466D02*
X169594121Y-46519800D01*
X120961789Y-47215133D02*
X120628455Y-47215133D01*
X120628455Y-47215133D02*
X120595122Y-47548466D01*
X120595122Y-47548466D02*
X120628455Y-47515133D01*
X120628455Y-47515133D02*
X120695122Y-47481800D01*
X120695122Y-47481800D02*
X120861789Y-47481800D01*
X120861789Y-47481800D02*
X120928455Y-47515133D01*
X120928455Y-47515133D02*
X120961789Y-47548466D01*
X120961789Y-47548466D02*
X120995122Y-47615133D01*
X120995122Y-47615133D02*
X120995122Y-47781800D01*
X120995122Y-47781800D02*
X120961789Y-47848466D01*
X120961789Y-47848466D02*
X120928455Y-47881800D01*
X120928455Y-47881800D02*
X120861789Y-47915133D01*
X120861789Y-47915133D02*
X120695122Y-47915133D01*
X120695122Y-47915133D02*
X120628455Y-47881800D01*
X120628455Y-47881800D02*
X120595122Y-47848466D01*
X121195122Y-47215133D02*
X121428456Y-47915133D01*
X121428456Y-47915133D02*
X121661789Y-47215133D01*
X122795122Y-47248466D02*
X122728455Y-47215133D01*
X122728455Y-47215133D02*
X122628455Y-47215133D01*
X122628455Y-47215133D02*
X122528455Y-47248466D01*
X122528455Y-47248466D02*
X122461789Y-47315133D01*
X122461789Y-47315133D02*
X122428455Y-47381800D01*
X122428455Y-47381800D02*
X122395122Y-47515133D01*
X122395122Y-47515133D02*
X122395122Y-47615133D01*
X122395122Y-47615133D02*
X122428455Y-47748466D01*
X122428455Y-47748466D02*
X122461789Y-47815133D01*
X122461789Y-47815133D02*
X122528455Y-47881800D01*
X122528455Y-47881800D02*
X122628455Y-47915133D01*
X122628455Y-47915133D02*
X122695122Y-47915133D01*
X122695122Y-47915133D02*
X122795122Y-47881800D01*
X122795122Y-47881800D02*
X122828455Y-47848466D01*
X122828455Y-47848466D02*
X122828455Y-47615133D01*
X122828455Y-47615133D02*
X122695122Y-47615133D01*
X123128455Y-47915133D02*
X123128455Y-47215133D01*
X123128455Y-47215133D02*
X123528455Y-47915133D01*
X123528455Y-47915133D02*
X123528455Y-47215133D01*
X123861788Y-47915133D02*
X123861788Y-47215133D01*
X123861788Y-47215133D02*
X124028455Y-47215133D01*
X124028455Y-47215133D02*
X124128455Y-47248466D01*
X124128455Y-47248466D02*
X124195122Y-47315133D01*
X124195122Y-47315133D02*
X124228455Y-47381800D01*
X124228455Y-47381800D02*
X124261788Y-47515133D01*
X124261788Y-47515133D02*
X124261788Y-47615133D01*
X124261788Y-47615133D02*
X124228455Y-47748466D01*
X124228455Y-47748466D02*
X124195122Y-47815133D01*
X124195122Y-47815133D02*
X124128455Y-47881800D01*
X124128455Y-47881800D02*
X124028455Y-47915133D01*
X124028455Y-47915133D02*
X123861788Y-47915133D01*
X125061788Y-47715133D02*
X125395121Y-47715133D01*
X124995121Y-47915133D02*
X125228455Y-47215133D01*
X125228455Y-47215133D02*
X125461788Y-47915133D01*
X125695121Y-47915133D02*
X125695121Y-47215133D01*
X125695121Y-47215133D02*
X125861788Y-47215133D01*
X125861788Y-47215133D02*
X125961788Y-47248466D01*
X125961788Y-47248466D02*
X126028455Y-47315133D01*
X126028455Y-47315133D02*
X126061788Y-47381800D01*
X126061788Y-47381800D02*
X126095121Y-47515133D01*
X126095121Y-47515133D02*
X126095121Y-47615133D01*
X126095121Y-47615133D02*
X126061788Y-47748466D01*
X126061788Y-47748466D02*
X126028455Y-47815133D01*
X126028455Y-47815133D02*
X125961788Y-47881800D01*
X125961788Y-47881800D02*
X125861788Y-47915133D01*
X125861788Y-47915133D02*
X125695121Y-47915133D01*
X126795121Y-47848466D02*
X126761788Y-47881800D01*
X126761788Y-47881800D02*
X126661788Y-47915133D01*
X126661788Y-47915133D02*
X126595121Y-47915133D01*
X126595121Y-47915133D02*
X126495121Y-47881800D01*
X126495121Y-47881800D02*
X126428455Y-47815133D01*
X126428455Y-47815133D02*
X126395121Y-47748466D01*
X126395121Y-47748466D02*
X126361788Y-47615133D01*
X126361788Y-47615133D02*
X126361788Y-47515133D01*
X126361788Y-47515133D02*
X126395121Y-47381800D01*
X126395121Y-47381800D02*
X126428455Y-47315133D01*
X126428455Y-47315133D02*
X126495121Y-47248466D01*
X126495121Y-47248466D02*
X126595121Y-47215133D01*
X126595121Y-47215133D02*
X126661788Y-47215133D01*
X126661788Y-47215133D02*
X126761788Y-47248466D01*
X126761788Y-47248466D02*
X126795121Y-47281800D01*
D10*
X101428779Y-40001819D02*
X101428779Y-39001819D01*
X101428779Y-39382771D02*
X101524017Y-39335152D01*
X101524017Y-39335152D02*
X101714493Y-39335152D01*
X101714493Y-39335152D02*
X101809731Y-39382771D01*
X101809731Y-39382771D02*
X101857350Y-39430390D01*
X101857350Y-39430390D02*
X101904969Y-39525628D01*
X101904969Y-39525628D02*
X101904969Y-39811342D01*
X101904969Y-39811342D02*
X101857350Y-39906580D01*
X101857350Y-39906580D02*
X101809731Y-39954200D01*
X101809731Y-39954200D02*
X101714493Y-40001819D01*
X101714493Y-40001819D02*
X101524017Y-40001819D01*
X101524017Y-40001819D02*
X101428779Y-39954200D01*
X102238303Y-39335152D02*
X102476398Y-40001819D01*
X102714493Y-39335152D02*
X102476398Y-40001819D01*
X102476398Y-40001819D02*
X102381160Y-40239914D01*
X102381160Y-40239914D02*
X102333541Y-40287533D01*
X102333541Y-40287533D02*
X102238303Y-40335152D01*
X104190684Y-39478009D02*
X104333541Y-39525628D01*
X104333541Y-39525628D02*
X104381160Y-39573247D01*
X104381160Y-39573247D02*
X104428779Y-39668485D01*
X104428779Y-39668485D02*
X104428779Y-39811342D01*
X104428779Y-39811342D02*
X104381160Y-39906580D01*
X104381160Y-39906580D02*
X104333541Y-39954200D01*
X104333541Y-39954200D02*
X104238303Y-40001819D01*
X104238303Y-40001819D02*
X103857351Y-40001819D01*
X103857351Y-40001819D02*
X103857351Y-39001819D01*
X103857351Y-39001819D02*
X104190684Y-39001819D01*
X104190684Y-39001819D02*
X104285922Y-39049438D01*
X104285922Y-39049438D02*
X104333541Y-39097057D01*
X104333541Y-39097057D02*
X104381160Y-39192295D01*
X104381160Y-39192295D02*
X104381160Y-39287533D01*
X104381160Y-39287533D02*
X104333541Y-39382771D01*
X104333541Y-39382771D02*
X104285922Y-39430390D01*
X104285922Y-39430390D02*
X104190684Y-39478009D01*
X104190684Y-39478009D02*
X103857351Y-39478009D01*
X105285922Y-40001819D02*
X105285922Y-39478009D01*
X105285922Y-39478009D02*
X105238303Y-39382771D01*
X105238303Y-39382771D02*
X105143065Y-39335152D01*
X105143065Y-39335152D02*
X104952589Y-39335152D01*
X104952589Y-39335152D02*
X104857351Y-39382771D01*
X105285922Y-39954200D02*
X105190684Y-40001819D01*
X105190684Y-40001819D02*
X104952589Y-40001819D01*
X104952589Y-40001819D02*
X104857351Y-39954200D01*
X104857351Y-39954200D02*
X104809732Y-39858961D01*
X104809732Y-39858961D02*
X104809732Y-39763723D01*
X104809732Y-39763723D02*
X104857351Y-39668485D01*
X104857351Y-39668485D02*
X104952589Y-39620866D01*
X104952589Y-39620866D02*
X105190684Y-39620866D01*
X105190684Y-39620866D02*
X105285922Y-39573247D01*
X105762113Y-40001819D02*
X105762113Y-39335152D01*
X105762113Y-39525628D02*
X105809732Y-39430390D01*
X105809732Y-39430390D02*
X105857351Y-39382771D01*
X105857351Y-39382771D02*
X105952589Y-39335152D01*
X105952589Y-39335152D02*
X106047827Y-39335152D01*
X106238304Y-39335152D02*
X106619256Y-39335152D01*
X106381161Y-39001819D02*
X106381161Y-39858961D01*
X106381161Y-39858961D02*
X106428780Y-39954200D01*
X106428780Y-39954200D02*
X106524018Y-40001819D01*
X106524018Y-40001819D02*
X106619256Y-40001819D01*
X107095447Y-40001819D02*
X107000209Y-39954200D01*
X107000209Y-39954200D02*
X106952590Y-39906580D01*
X106952590Y-39906580D02*
X106904971Y-39811342D01*
X106904971Y-39811342D02*
X106904971Y-39525628D01*
X106904971Y-39525628D02*
X106952590Y-39430390D01*
X106952590Y-39430390D02*
X107000209Y-39382771D01*
X107000209Y-39382771D02*
X107095447Y-39335152D01*
X107095447Y-39335152D02*
X107238304Y-39335152D01*
X107238304Y-39335152D02*
X107333542Y-39382771D01*
X107333542Y-39382771D02*
X107381161Y-39430390D01*
X107381161Y-39430390D02*
X107428780Y-39525628D01*
X107428780Y-39525628D02*
X107428780Y-39811342D01*
X107428780Y-39811342D02*
X107381161Y-39906580D01*
X107381161Y-39906580D02*
X107333542Y-39954200D01*
X107333542Y-39954200D02*
X107238304Y-40001819D01*
X107238304Y-40001819D02*
X107095447Y-40001819D01*
X107809733Y-39954200D02*
X107904971Y-40001819D01*
X107904971Y-40001819D02*
X108095447Y-40001819D01*
X108095447Y-40001819D02*
X108190685Y-39954200D01*
X108190685Y-39954200D02*
X108238304Y-39858961D01*
X108238304Y-39858961D02*
X108238304Y-39811342D01*
X108238304Y-39811342D02*
X108190685Y-39716104D01*
X108190685Y-39716104D02*
X108095447Y-39668485D01*
X108095447Y-39668485D02*
X107952590Y-39668485D01*
X107952590Y-39668485D02*
X107857352Y-39620866D01*
X107857352Y-39620866D02*
X107809733Y-39525628D01*
X107809733Y-39525628D02*
X107809733Y-39478009D01*
X107809733Y-39478009D02*
X107857352Y-39382771D01*
X107857352Y-39382771D02*
X107952590Y-39335152D01*
X107952590Y-39335152D02*
X108095447Y-39335152D01*
X108095447Y-39335152D02*
X108190685Y-39382771D01*
X108571638Y-39335152D02*
X109095447Y-39335152D01*
X109095447Y-39335152D02*
X108571638Y-40001819D01*
X108571638Y-40001819D02*
X109095447Y-40001819D01*
X109476400Y-39620866D02*
X110238305Y-39620866D01*
X110619257Y-39001819D02*
X110857352Y-40001819D01*
X110857352Y-40001819D02*
X111047828Y-39287533D01*
X111047828Y-39287533D02*
X111238304Y-40001819D01*
X111238304Y-40001819D02*
X111476400Y-39001819D01*
X112000209Y-40001819D02*
X111904971Y-39954200D01*
X111904971Y-39954200D02*
X111857352Y-39906580D01*
X111857352Y-39906580D02*
X111809733Y-39811342D01*
X111809733Y-39811342D02*
X111809733Y-39525628D01*
X111809733Y-39525628D02*
X111857352Y-39430390D01*
X111857352Y-39430390D02*
X111904971Y-39382771D01*
X111904971Y-39382771D02*
X112000209Y-39335152D01*
X112000209Y-39335152D02*
X112143066Y-39335152D01*
X112143066Y-39335152D02*
X112238304Y-39382771D01*
X112238304Y-39382771D02*
X112285923Y-39430390D01*
X112285923Y-39430390D02*
X112333542Y-39525628D01*
X112333542Y-39525628D02*
X112333542Y-39811342D01*
X112333542Y-39811342D02*
X112285923Y-39906580D01*
X112285923Y-39906580D02*
X112238304Y-39954200D01*
X112238304Y-39954200D02*
X112143066Y-40001819D01*
X112143066Y-40001819D02*
X112000209Y-40001819D01*
X112762114Y-39335152D02*
X112762114Y-40192295D01*
X112762114Y-40192295D02*
X112714495Y-40287533D01*
X112714495Y-40287533D02*
X112619257Y-40335152D01*
X112619257Y-40335152D02*
X112571638Y-40335152D01*
X112762114Y-39001819D02*
X112714495Y-39049438D01*
X112714495Y-39049438D02*
X112762114Y-39097057D01*
X112762114Y-39097057D02*
X112809733Y-39049438D01*
X112809733Y-39049438D02*
X112762114Y-39001819D01*
X112762114Y-39001819D02*
X112762114Y-39097057D01*
D11*
X157966455Y-76871133D02*
X157966455Y-76171133D01*
X157966455Y-76171133D02*
X158233122Y-76171133D01*
X158233122Y-76171133D02*
X158299789Y-76204466D01*
X158299789Y-76204466D02*
X158333122Y-76237800D01*
X158333122Y-76237800D02*
X158366455Y-76304466D01*
X158366455Y-76304466D02*
X158366455Y-76404466D01*
X158366455Y-76404466D02*
X158333122Y-76471133D01*
X158333122Y-76471133D02*
X158299789Y-76504466D01*
X158299789Y-76504466D02*
X158233122Y-76537800D01*
X158233122Y-76537800D02*
X157966455Y-76537800D01*
X158599789Y-76171133D02*
X158766455Y-76871133D01*
X158766455Y-76871133D02*
X158899789Y-76371133D01*
X158899789Y-76371133D02*
X159033122Y-76871133D01*
X159033122Y-76871133D02*
X159199789Y-76171133D01*
X159466455Y-76871133D02*
X159466455Y-76171133D01*
X159466455Y-76171133D02*
X159699789Y-76671133D01*
X159699789Y-76671133D02*
X159933122Y-76171133D01*
X159933122Y-76171133D02*
X159933122Y-76871133D01*
X161666455Y-76171133D02*
X161333121Y-76171133D01*
X161333121Y-76171133D02*
X161299788Y-76504466D01*
X161299788Y-76504466D02*
X161333121Y-76471133D01*
X161333121Y-76471133D02*
X161399788Y-76437800D01*
X161399788Y-76437800D02*
X161566455Y-76437800D01*
X161566455Y-76437800D02*
X161633121Y-76471133D01*
X161633121Y-76471133D02*
X161666455Y-76504466D01*
X161666455Y-76504466D02*
X161699788Y-76571133D01*
X161699788Y-76571133D02*
X161699788Y-76737800D01*
X161699788Y-76737800D02*
X161666455Y-76804466D01*
X161666455Y-76804466D02*
X161633121Y-76837800D01*
X161633121Y-76837800D02*
X161566455Y-76871133D01*
X161566455Y-76871133D02*
X161399788Y-76871133D01*
X161399788Y-76871133D02*
X161333121Y-76837800D01*
X161333121Y-76837800D02*
X161299788Y-76804466D01*
X161899788Y-76171133D02*
X162133122Y-76871133D01*
X162133122Y-76871133D02*
X162366455Y-76171133D01*
X163499788Y-76204466D02*
X163433121Y-76171133D01*
X163433121Y-76171133D02*
X163333121Y-76171133D01*
X163333121Y-76171133D02*
X163233121Y-76204466D01*
X163233121Y-76204466D02*
X163166455Y-76271133D01*
X163166455Y-76271133D02*
X163133121Y-76337800D01*
X163133121Y-76337800D02*
X163099788Y-76471133D01*
X163099788Y-76471133D02*
X163099788Y-76571133D01*
X163099788Y-76571133D02*
X163133121Y-76704466D01*
X163133121Y-76704466D02*
X163166455Y-76771133D01*
X163166455Y-76771133D02*
X163233121Y-76837800D01*
X163233121Y-76837800D02*
X163333121Y-76871133D01*
X163333121Y-76871133D02*
X163399788Y-76871133D01*
X163399788Y-76871133D02*
X163499788Y-76837800D01*
X163499788Y-76837800D02*
X163533121Y-76804466D01*
X163533121Y-76804466D02*
X163533121Y-76571133D01*
X163533121Y-76571133D02*
X163399788Y-76571133D01*
X163833121Y-76871133D02*
X163833121Y-76171133D01*
X163833121Y-76171133D02*
X164233121Y-76871133D01*
X164233121Y-76871133D02*
X164233121Y-76171133D01*
X164566454Y-76871133D02*
X164566454Y-76171133D01*
X164566454Y-76171133D02*
X164733121Y-76171133D01*
X164733121Y-76171133D02*
X164833121Y-76204466D01*
X164833121Y-76204466D02*
X164899788Y-76271133D01*
X164899788Y-76271133D02*
X164933121Y-76337800D01*
X164933121Y-76337800D02*
X164966454Y-76471133D01*
X164966454Y-76471133D02*
X164966454Y-76571133D01*
X164966454Y-76571133D02*
X164933121Y-76704466D01*
X164933121Y-76704466D02*
X164899788Y-76771133D01*
X164899788Y-76771133D02*
X164833121Y-76837800D01*
X164833121Y-76837800D02*
X164733121Y-76871133D01*
X164733121Y-76871133D02*
X164566454Y-76871133D01*
X166816741Y-58131419D02*
X166769122Y-58107609D01*
X166769122Y-58107609D02*
X166697693Y-58107609D01*
X166697693Y-58107609D02*
X166626265Y-58131419D01*
X166626265Y-58131419D02*
X166578646Y-58179038D01*
X166578646Y-58179038D02*
X166554836Y-58226657D01*
X166554836Y-58226657D02*
X166531027Y-58321895D01*
X166531027Y-58321895D02*
X166531027Y-58393323D01*
X166531027Y-58393323D02*
X166554836Y-58488561D01*
X166554836Y-58488561D02*
X166578646Y-58536180D01*
X166578646Y-58536180D02*
X166626265Y-58583800D01*
X166626265Y-58583800D02*
X166697693Y-58607609D01*
X166697693Y-58607609D02*
X166745312Y-58607609D01*
X166745312Y-58607609D02*
X166816741Y-58583800D01*
X166816741Y-58583800D02*
X166840550Y-58559990D01*
X166840550Y-58559990D02*
X166840550Y-58393323D01*
X166840550Y-58393323D02*
X166745312Y-58393323D01*
X167054836Y-58607609D02*
X167054836Y-58107609D01*
X167054836Y-58107609D02*
X167340550Y-58607609D01*
X167340550Y-58607609D02*
X167340550Y-58107609D01*
X167578646Y-58607609D02*
X167578646Y-58107609D01*
X167578646Y-58107609D02*
X167697694Y-58107609D01*
X167697694Y-58107609D02*
X167769122Y-58131419D01*
X167769122Y-58131419D02*
X167816741Y-58179038D01*
X167816741Y-58179038D02*
X167840551Y-58226657D01*
X167840551Y-58226657D02*
X167864360Y-58321895D01*
X167864360Y-58321895D02*
X167864360Y-58393323D01*
X167864360Y-58393323D02*
X167840551Y-58488561D01*
X167840551Y-58488561D02*
X167816741Y-58536180D01*
X167816741Y-58536180D02*
X167769122Y-58583800D01*
X167769122Y-58583800D02*
X167697694Y-58607609D01*
X167697694Y-58607609D02*
X167578646Y-58607609D01*
X168435789Y-58583800D02*
X168507217Y-58607609D01*
X168507217Y-58607609D02*
X168626265Y-58607609D01*
X168626265Y-58607609D02*
X168673884Y-58583800D01*
X168673884Y-58583800D02*
X168697693Y-58559990D01*
X168697693Y-58559990D02*
X168721503Y-58512371D01*
X168721503Y-58512371D02*
X168721503Y-58464752D01*
X168721503Y-58464752D02*
X168697693Y-58417133D01*
X168697693Y-58417133D02*
X168673884Y-58393323D01*
X168673884Y-58393323D02*
X168626265Y-58369514D01*
X168626265Y-58369514D02*
X168531027Y-58345704D01*
X168531027Y-58345704D02*
X168483408Y-58321895D01*
X168483408Y-58321895D02*
X168459598Y-58298085D01*
X168459598Y-58298085D02*
X168435789Y-58250466D01*
X168435789Y-58250466D02*
X168435789Y-58202847D01*
X168435789Y-58202847D02*
X168459598Y-58155228D01*
X168459598Y-58155228D02*
X168483408Y-58131419D01*
X168483408Y-58131419D02*
X168531027Y-58107609D01*
X168531027Y-58107609D02*
X168650074Y-58107609D01*
X168650074Y-58107609D02*
X168721503Y-58131419D01*
X168888169Y-58107609D02*
X169007217Y-58607609D01*
X169007217Y-58607609D02*
X169102455Y-58250466D01*
X169102455Y-58250466D02*
X169197693Y-58607609D01*
X169197693Y-58607609D02*
X169316741Y-58107609D01*
X169792931Y-58559990D02*
X169769122Y-58583800D01*
X169769122Y-58583800D02*
X169697693Y-58607609D01*
X169697693Y-58607609D02*
X169650074Y-58607609D01*
X169650074Y-58607609D02*
X169578646Y-58583800D01*
X169578646Y-58583800D02*
X169531027Y-58536180D01*
X169531027Y-58536180D02*
X169507217Y-58488561D01*
X169507217Y-58488561D02*
X169483408Y-58393323D01*
X169483408Y-58393323D02*
X169483408Y-58321895D01*
X169483408Y-58321895D02*
X169507217Y-58226657D01*
X169507217Y-58226657D02*
X169531027Y-58179038D01*
X169531027Y-58179038D02*
X169578646Y-58131419D01*
X169578646Y-58131419D02*
X169650074Y-58107609D01*
X169650074Y-58107609D02*
X169697693Y-58107609D01*
X169697693Y-58107609D02*
X169769122Y-58131419D01*
X169769122Y-58131419D02*
X169792931Y-58155228D01*
X170245312Y-58607609D02*
X170007217Y-58607609D01*
X170007217Y-58607609D02*
X170007217Y-58107609D01*
X170411979Y-58607609D02*
X170411979Y-58107609D01*
X170697693Y-58607609D02*
X170483408Y-58321895D01*
X170697693Y-58107609D02*
X170411979Y-58393323D01*
X171650074Y-58583800D02*
X171721502Y-58607609D01*
X171721502Y-58607609D02*
X171840550Y-58607609D01*
X171840550Y-58607609D02*
X171888169Y-58583800D01*
X171888169Y-58583800D02*
X171911978Y-58559990D01*
X171911978Y-58559990D02*
X171935788Y-58512371D01*
X171935788Y-58512371D02*
X171935788Y-58464752D01*
X171935788Y-58464752D02*
X171911978Y-58417133D01*
X171911978Y-58417133D02*
X171888169Y-58393323D01*
X171888169Y-58393323D02*
X171840550Y-58369514D01*
X171840550Y-58369514D02*
X171745312Y-58345704D01*
X171745312Y-58345704D02*
X171697693Y-58321895D01*
X171697693Y-58321895D02*
X171673883Y-58298085D01*
X171673883Y-58298085D02*
X171650074Y-58250466D01*
X171650074Y-58250466D02*
X171650074Y-58202847D01*
X171650074Y-58202847D02*
X171673883Y-58155228D01*
X171673883Y-58155228D02*
X171697693Y-58131419D01*
X171697693Y-58131419D02*
X171745312Y-58107609D01*
X171745312Y-58107609D02*
X171864359Y-58107609D01*
X171864359Y-58107609D02*
X171935788Y-58131419D01*
X172102454Y-58107609D02*
X172221502Y-58607609D01*
X172221502Y-58607609D02*
X172316740Y-58250466D01*
X172316740Y-58250466D02*
X172411978Y-58607609D01*
X172411978Y-58607609D02*
X172531026Y-58107609D01*
X172721502Y-58607609D02*
X172721502Y-58107609D01*
X172721502Y-58107609D02*
X172840550Y-58107609D01*
X172840550Y-58107609D02*
X172911978Y-58131419D01*
X172911978Y-58131419D02*
X172959597Y-58179038D01*
X172959597Y-58179038D02*
X172983407Y-58226657D01*
X172983407Y-58226657D02*
X173007216Y-58321895D01*
X173007216Y-58321895D02*
X173007216Y-58393323D01*
X173007216Y-58393323D02*
X172983407Y-58488561D01*
X172983407Y-58488561D02*
X172959597Y-58536180D01*
X172959597Y-58536180D02*
X172911978Y-58583800D01*
X172911978Y-58583800D02*
X172840550Y-58607609D01*
X172840550Y-58607609D02*
X172721502Y-58607609D01*
X173221502Y-58607609D02*
X173221502Y-58107609D01*
X173554835Y-58107609D02*
X173650073Y-58107609D01*
X173650073Y-58107609D02*
X173697692Y-58131419D01*
X173697692Y-58131419D02*
X173745311Y-58179038D01*
X173745311Y-58179038D02*
X173769121Y-58274276D01*
X173769121Y-58274276D02*
X173769121Y-58440942D01*
X173769121Y-58440942D02*
X173745311Y-58536180D01*
X173745311Y-58536180D02*
X173697692Y-58583800D01*
X173697692Y-58583800D02*
X173650073Y-58607609D01*
X173650073Y-58607609D02*
X173554835Y-58607609D01*
X173554835Y-58607609D02*
X173507216Y-58583800D01*
X173507216Y-58583800D02*
X173459597Y-58536180D01*
X173459597Y-58536180D02*
X173435788Y-58440942D01*
X173435788Y-58440942D02*
X173435788Y-58274276D01*
X173435788Y-58274276D02*
X173459597Y-58179038D01*
X173459597Y-58179038D02*
X173507216Y-58131419D01*
X173507216Y-58131419D02*
X173554835Y-58107609D01*
X174364359Y-58607609D02*
X174364359Y-58107609D01*
X174364359Y-58107609D02*
X174650073Y-58607609D01*
X174650073Y-58607609D02*
X174650073Y-58107609D01*
X175173883Y-58607609D02*
X175007217Y-58369514D01*
X174888169Y-58607609D02*
X174888169Y-58107609D01*
X174888169Y-58107609D02*
X175078645Y-58107609D01*
X175078645Y-58107609D02*
X175126264Y-58131419D01*
X175126264Y-58131419D02*
X175150074Y-58155228D01*
X175150074Y-58155228D02*
X175173883Y-58202847D01*
X175173883Y-58202847D02*
X175173883Y-58274276D01*
X175173883Y-58274276D02*
X175150074Y-58321895D01*
X175150074Y-58321895D02*
X175126264Y-58345704D01*
X175126264Y-58345704D02*
X175078645Y-58369514D01*
X175078645Y-58369514D02*
X174888169Y-58369514D01*
X175364360Y-58583800D02*
X175435788Y-58607609D01*
X175435788Y-58607609D02*
X175554836Y-58607609D01*
X175554836Y-58607609D02*
X175602455Y-58583800D01*
X175602455Y-58583800D02*
X175626264Y-58559990D01*
X175626264Y-58559990D02*
X175650074Y-58512371D01*
X175650074Y-58512371D02*
X175650074Y-58464752D01*
X175650074Y-58464752D02*
X175626264Y-58417133D01*
X175626264Y-58417133D02*
X175602455Y-58393323D01*
X175602455Y-58393323D02*
X175554836Y-58369514D01*
X175554836Y-58369514D02*
X175459598Y-58345704D01*
X175459598Y-58345704D02*
X175411979Y-58321895D01*
X175411979Y-58321895D02*
X175388169Y-58298085D01*
X175388169Y-58298085D02*
X175364360Y-58250466D01*
X175364360Y-58250466D02*
X175364360Y-58202847D01*
X175364360Y-58202847D02*
X175388169Y-58155228D01*
X175388169Y-58155228D02*
X175411979Y-58131419D01*
X175411979Y-58131419D02*
X175459598Y-58107609D01*
X175459598Y-58107609D02*
X175578645Y-58107609D01*
X175578645Y-58107609D02*
X175650074Y-58131419D01*
X175792931Y-58107609D02*
X176078645Y-58107609D01*
X175935788Y-58607609D02*
X175935788Y-58107609D01*
X176959596Y-58107609D02*
X177269120Y-58107609D01*
X177269120Y-58107609D02*
X177102453Y-58298085D01*
X177102453Y-58298085D02*
X177173882Y-58298085D01*
X177173882Y-58298085D02*
X177221501Y-58321895D01*
X177221501Y-58321895D02*
X177245310Y-58345704D01*
X177245310Y-58345704D02*
X177269120Y-58393323D01*
X177269120Y-58393323D02*
X177269120Y-58512371D01*
X177269120Y-58512371D02*
X177245310Y-58559990D01*
X177245310Y-58559990D02*
X177221501Y-58583800D01*
X177221501Y-58583800D02*
X177173882Y-58607609D01*
X177173882Y-58607609D02*
X177031025Y-58607609D01*
X177031025Y-58607609D02*
X176983406Y-58583800D01*
X176983406Y-58583800D02*
X176959596Y-58559990D01*
X177411977Y-58107609D02*
X177578643Y-58607609D01*
X177578643Y-58607609D02*
X177745310Y-58107609D01*
X177864357Y-58107609D02*
X178173881Y-58107609D01*
X178173881Y-58107609D02*
X178007214Y-58298085D01*
X178007214Y-58298085D02*
X178078643Y-58298085D01*
X178078643Y-58298085D02*
X178126262Y-58321895D01*
X178126262Y-58321895D02*
X178150071Y-58345704D01*
X178150071Y-58345704D02*
X178173881Y-58393323D01*
X178173881Y-58393323D02*
X178173881Y-58512371D01*
X178173881Y-58512371D02*
X178150071Y-58559990D01*
X178150071Y-58559990D02*
X178126262Y-58583800D01*
X178126262Y-58583800D02*
X178078643Y-58607609D01*
X178078643Y-58607609D02*
X177935786Y-58607609D01*
X177935786Y-58607609D02*
X177888167Y-58583800D01*
X177888167Y-58583800D02*
X177864357Y-58559990D01*
X166483408Y-63695609D02*
X166769122Y-63695609D01*
X166626265Y-64195609D02*
X166626265Y-63695609D01*
X166888169Y-63695609D02*
X167221502Y-64195609D01*
X167221502Y-63695609D02*
X166888169Y-64195609D01*
X169221500Y-64195609D02*
X169054834Y-63957514D01*
X168935786Y-64195609D02*
X168935786Y-63695609D01*
X168935786Y-63695609D02*
X169126262Y-63695609D01*
X169126262Y-63695609D02*
X169173881Y-63719419D01*
X169173881Y-63719419D02*
X169197691Y-63743228D01*
X169197691Y-63743228D02*
X169221500Y-63790847D01*
X169221500Y-63790847D02*
X169221500Y-63862276D01*
X169221500Y-63862276D02*
X169197691Y-63909895D01*
X169197691Y-63909895D02*
X169173881Y-63933704D01*
X169173881Y-63933704D02*
X169126262Y-63957514D01*
X169126262Y-63957514D02*
X168935786Y-63957514D01*
X169388167Y-63695609D02*
X169721500Y-64195609D01*
X169721500Y-63695609D02*
X169388167Y-64195609D01*
X171316737Y-63719419D02*
X171269118Y-63695609D01*
X171269118Y-63695609D02*
X171197689Y-63695609D01*
X171197689Y-63695609D02*
X171126261Y-63719419D01*
X171126261Y-63719419D02*
X171078642Y-63767038D01*
X171078642Y-63767038D02*
X171054832Y-63814657D01*
X171054832Y-63814657D02*
X171031023Y-63909895D01*
X171031023Y-63909895D02*
X171031023Y-63981323D01*
X171031023Y-63981323D02*
X171054832Y-64076561D01*
X171054832Y-64076561D02*
X171078642Y-64124180D01*
X171078642Y-64124180D02*
X171126261Y-64171800D01*
X171126261Y-64171800D02*
X171197689Y-64195609D01*
X171197689Y-64195609D02*
X171245308Y-64195609D01*
X171245308Y-64195609D02*
X171316737Y-64171800D01*
X171316737Y-64171800D02*
X171340546Y-64147990D01*
X171340546Y-64147990D02*
X171340546Y-63981323D01*
X171340546Y-63981323D02*
X171245308Y-63981323D01*
X171554832Y-64195609D02*
X171554832Y-63695609D01*
X171554832Y-63695609D02*
X171840546Y-64195609D01*
X171840546Y-64195609D02*
X171840546Y-63695609D01*
X172078642Y-64195609D02*
X172078642Y-63695609D01*
X172078642Y-63695609D02*
X172197690Y-63695609D01*
X172197690Y-63695609D02*
X172269118Y-63719419D01*
X172269118Y-63719419D02*
X172316737Y-63767038D01*
X172316737Y-63767038D02*
X172340547Y-63814657D01*
X172340547Y-63814657D02*
X172364356Y-63909895D01*
X172364356Y-63909895D02*
X172364356Y-63981323D01*
X172364356Y-63981323D02*
X172340547Y-64076561D01*
X172340547Y-64076561D02*
X172316737Y-64124180D01*
X172316737Y-64124180D02*
X172269118Y-64171800D01*
X172269118Y-64171800D02*
X172197690Y-64195609D01*
X172197690Y-64195609D02*
X172078642Y-64195609D01*
X174054831Y-63695609D02*
X174364355Y-63695609D01*
X174364355Y-63695609D02*
X174197688Y-63886085D01*
X174197688Y-63886085D02*
X174269117Y-63886085D01*
X174269117Y-63886085D02*
X174316736Y-63909895D01*
X174316736Y-63909895D02*
X174340545Y-63933704D01*
X174340545Y-63933704D02*
X174364355Y-63981323D01*
X174364355Y-63981323D02*
X174364355Y-64100371D01*
X174364355Y-64100371D02*
X174340545Y-64147990D01*
X174340545Y-64147990D02*
X174316736Y-64171800D01*
X174316736Y-64171800D02*
X174269117Y-64195609D01*
X174269117Y-64195609D02*
X174126260Y-64195609D01*
X174126260Y-64195609D02*
X174078641Y-64171800D01*
X174078641Y-64171800D02*
X174054831Y-64147990D01*
X174507212Y-63695609D02*
X174673878Y-64195609D01*
X174673878Y-64195609D02*
X174840545Y-63695609D01*
X174959592Y-63695609D02*
X175269116Y-63695609D01*
X175269116Y-63695609D02*
X175102449Y-63886085D01*
X175102449Y-63886085D02*
X175173878Y-63886085D01*
X175173878Y-63886085D02*
X175221497Y-63909895D01*
X175221497Y-63909895D02*
X175245306Y-63933704D01*
X175245306Y-63933704D02*
X175269116Y-63981323D01*
X175269116Y-63981323D02*
X175269116Y-64100371D01*
X175269116Y-64100371D02*
X175245306Y-64147990D01*
X175245306Y-64147990D02*
X175221497Y-64171800D01*
X175221497Y-64171800D02*
X175173878Y-64195609D01*
X175173878Y-64195609D02*
X175031021Y-64195609D01*
X175031021Y-64195609D02*
X174983402Y-64171800D01*
X174983402Y-64171800D02*
X174959592Y-64147990D01*
D10*
X157506200Y-64579332D02*
X157553819Y-64436475D01*
X157553819Y-64436475D02*
X157553819Y-64198380D01*
X157553819Y-64198380D02*
X157506200Y-64103142D01*
X157506200Y-64103142D02*
X157458580Y-64055523D01*
X157458580Y-64055523D02*
X157363342Y-64007904D01*
X157363342Y-64007904D02*
X157268104Y-64007904D01*
X157268104Y-64007904D02*
X157172866Y-64055523D01*
X157172866Y-64055523D02*
X157125247Y-64103142D01*
X157125247Y-64103142D02*
X157077628Y-64198380D01*
X157077628Y-64198380D02*
X157030009Y-64388856D01*
X157030009Y-64388856D02*
X156982390Y-64484094D01*
X156982390Y-64484094D02*
X156934771Y-64531713D01*
X156934771Y-64531713D02*
X156839533Y-64579332D01*
X156839533Y-64579332D02*
X156744295Y-64579332D01*
X156744295Y-64579332D02*
X156649057Y-64531713D01*
X156649057Y-64531713D02*
X156601438Y-64484094D01*
X156601438Y-64484094D02*
X156553819Y-64388856D01*
X156553819Y-64388856D02*
X156553819Y-64150761D01*
X156553819Y-64150761D02*
X156601438Y-64007904D01*
X156553819Y-63674570D02*
X157553819Y-63436475D01*
X157553819Y-63436475D02*
X156839533Y-63245999D01*
X156839533Y-63245999D02*
X157553819Y-63055523D01*
X157553819Y-63055523D02*
X156553819Y-62817428D01*
X157553819Y-61912666D02*
X157553819Y-62484094D01*
X157553819Y-62198380D02*
X156553819Y-62198380D01*
X156553819Y-62198380D02*
X156696676Y-62293618D01*
X156696676Y-62293618D02*
X156791914Y-62388856D01*
X156791914Y-62388856D02*
X156839533Y-62484094D01*
X105600667Y-57938200D02*
X105743524Y-57985819D01*
X105743524Y-57985819D02*
X105981619Y-57985819D01*
X105981619Y-57985819D02*
X106076857Y-57938200D01*
X106076857Y-57938200D02*
X106124476Y-57890580D01*
X106124476Y-57890580D02*
X106172095Y-57795342D01*
X106172095Y-57795342D02*
X106172095Y-57700104D01*
X106172095Y-57700104D02*
X106124476Y-57604866D01*
X106124476Y-57604866D02*
X106076857Y-57557247D01*
X106076857Y-57557247D02*
X105981619Y-57509628D01*
X105981619Y-57509628D02*
X105791143Y-57462009D01*
X105791143Y-57462009D02*
X105695905Y-57414390D01*
X105695905Y-57414390D02*
X105648286Y-57366771D01*
X105648286Y-57366771D02*
X105600667Y-57271533D01*
X105600667Y-57271533D02*
X105600667Y-57176295D01*
X105600667Y-57176295D02*
X105648286Y-57081057D01*
X105648286Y-57081057D02*
X105695905Y-57033438D01*
X105695905Y-57033438D02*
X105791143Y-56985819D01*
X105791143Y-56985819D02*
X106029238Y-56985819D01*
X106029238Y-56985819D02*
X106172095Y-57033438D01*
X106505429Y-56985819D02*
X106743524Y-57985819D01*
X106743524Y-57985819D02*
X106934000Y-57271533D01*
X106934000Y-57271533D02*
X107124476Y-57985819D01*
X107124476Y-57985819D02*
X107362572Y-56985819D01*
X107695905Y-57081057D02*
X107743524Y-57033438D01*
X107743524Y-57033438D02*
X107838762Y-56985819D01*
X107838762Y-56985819D02*
X108076857Y-56985819D01*
X108076857Y-56985819D02*
X108172095Y-57033438D01*
X108172095Y-57033438D02*
X108219714Y-57081057D01*
X108219714Y-57081057D02*
X108267333Y-57176295D01*
X108267333Y-57176295D02*
X108267333Y-57271533D01*
X108267333Y-57271533D02*
X108219714Y-57414390D01*
X108219714Y-57414390D02*
X107648286Y-57985819D01*
X107648286Y-57985819D02*
X108267333Y-57985819D01*
X127180529Y-65074229D02*
X126704339Y-65074229D01*
X126704339Y-65074229D02*
X126704339Y-64074229D01*
X127418625Y-64074229D02*
X128037672Y-64074229D01*
X128037672Y-64074229D02*
X127704339Y-64455181D01*
X127704339Y-64455181D02*
X127847196Y-64455181D01*
X127847196Y-64455181D02*
X127942434Y-64502800D01*
X127942434Y-64502800D02*
X127990053Y-64550419D01*
X127990053Y-64550419D02*
X128037672Y-64645657D01*
X128037672Y-64645657D02*
X128037672Y-64883752D01*
X128037672Y-64883752D02*
X127990053Y-64978990D01*
X127990053Y-64978990D02*
X127942434Y-65026610D01*
X127942434Y-65026610D02*
X127847196Y-65074229D01*
X127847196Y-65074229D02*
X127561482Y-65074229D01*
X127561482Y-65074229D02*
X127466244Y-65026610D01*
X127466244Y-65026610D02*
X127418625Y-64978990D01*
X181471653Y-68381321D02*
X181471653Y-69095606D01*
X181471653Y-69095606D02*
X181424034Y-69238463D01*
X181424034Y-69238463D02*
X181328796Y-69333702D01*
X181328796Y-69333702D02*
X181185939Y-69381321D01*
X181185939Y-69381321D02*
X181090701Y-69381321D01*
X181900225Y-68476559D02*
X181947844Y-68428940D01*
X181947844Y-68428940D02*
X182043082Y-68381321D01*
X182043082Y-68381321D02*
X182281177Y-68381321D01*
X182281177Y-68381321D02*
X182376415Y-68428940D01*
X182376415Y-68428940D02*
X182424034Y-68476559D01*
X182424034Y-68476559D02*
X182471653Y-68571797D01*
X182471653Y-68571797D02*
X182471653Y-68667035D01*
X182471653Y-68667035D02*
X182424034Y-68809892D01*
X182424034Y-68809892D02*
X181852606Y-69381321D01*
X181852606Y-69381321D02*
X182471653Y-69381321D01*
X176966714Y-94561819D02*
X176966714Y-93561819D01*
X176966714Y-93561819D02*
X177204809Y-93561819D01*
X177204809Y-93561819D02*
X177347666Y-93609438D01*
X177347666Y-93609438D02*
X177442904Y-93704676D01*
X177442904Y-93704676D02*
X177490523Y-93799914D01*
X177490523Y-93799914D02*
X177538142Y-93990390D01*
X177538142Y-93990390D02*
X177538142Y-94133247D01*
X177538142Y-94133247D02*
X177490523Y-94323723D01*
X177490523Y-94323723D02*
X177442904Y-94418961D01*
X177442904Y-94418961D02*
X177347666Y-94514200D01*
X177347666Y-94514200D02*
X177204809Y-94561819D01*
X177204809Y-94561819D02*
X176966714Y-94561819D01*
X177919095Y-93657057D02*
X177966714Y-93609438D01*
X177966714Y-93609438D02*
X178061952Y-93561819D01*
X178061952Y-93561819D02*
X178300047Y-93561819D01*
X178300047Y-93561819D02*
X178395285Y-93609438D01*
X178395285Y-93609438D02*
X178442904Y-93657057D01*
X178442904Y-93657057D02*
X178490523Y-93752295D01*
X178490523Y-93752295D02*
X178490523Y-93847533D01*
X178490523Y-93847533D02*
X178442904Y-93990390D01*
X178442904Y-93990390D02*
X177871476Y-94561819D01*
X177871476Y-94561819D02*
X178490523Y-94561819D01*
X179347666Y-93561819D02*
X179157190Y-93561819D01*
X179157190Y-93561819D02*
X179061952Y-93609438D01*
X179061952Y-93609438D02*
X179014333Y-93657057D01*
X179014333Y-93657057D02*
X178919095Y-93799914D01*
X178919095Y-93799914D02*
X178871476Y-93990390D01*
X178871476Y-93990390D02*
X178871476Y-94371342D01*
X178871476Y-94371342D02*
X178919095Y-94466580D01*
X178919095Y-94466580D02*
X178966714Y-94514200D01*
X178966714Y-94514200D02*
X179061952Y-94561819D01*
X179061952Y-94561819D02*
X179252428Y-94561819D01*
X179252428Y-94561819D02*
X179347666Y-94514200D01*
X179347666Y-94514200D02*
X179395285Y-94466580D01*
X179395285Y-94466580D02*
X179442904Y-94371342D01*
X179442904Y-94371342D02*
X179442904Y-94133247D01*
X179442904Y-94133247D02*
X179395285Y-94038009D01*
X179395285Y-94038009D02*
X179347666Y-93990390D01*
X179347666Y-93990390D02*
X179252428Y-93942771D01*
X179252428Y-93942771D02*
X179061952Y-93942771D01*
X179061952Y-93942771D02*
X178966714Y-93990390D01*
X178966714Y-93990390D02*
X178919095Y-94038009D01*
X178919095Y-94038009D02*
X178871476Y-94133247D01*
X184238095Y-91754819D02*
X184238095Y-90754819D01*
X184238095Y-91231009D02*
X184809523Y-91231009D01*
X184809523Y-91754819D02*
X184809523Y-90754819D01*
X185809523Y-91754819D02*
X185238095Y-91754819D01*
X185523809Y-91754819D02*
X185523809Y-90754819D01*
X185523809Y-90754819D02*
X185428571Y-90897676D01*
X185428571Y-90897676D02*
X185333333Y-90992914D01*
X185333333Y-90992914D02*
X185238095Y-91040533D01*
X180794819Y-89161857D02*
X180318628Y-89495190D01*
X180794819Y-89733285D02*
X179794819Y-89733285D01*
X179794819Y-89733285D02*
X179794819Y-89352333D01*
X179794819Y-89352333D02*
X179842438Y-89257095D01*
X179842438Y-89257095D02*
X179890057Y-89209476D01*
X179890057Y-89209476D02*
X179985295Y-89161857D01*
X179985295Y-89161857D02*
X180128152Y-89161857D01*
X180128152Y-89161857D02*
X180223390Y-89209476D01*
X180223390Y-89209476D02*
X180271009Y-89257095D01*
X180271009Y-89257095D02*
X180318628Y-89352333D01*
X180318628Y-89352333D02*
X180318628Y-89733285D01*
X180223390Y-88590428D02*
X180175771Y-88685666D01*
X180175771Y-88685666D02*
X180128152Y-88733285D01*
X180128152Y-88733285D02*
X180032914Y-88780904D01*
X180032914Y-88780904D02*
X179985295Y-88780904D01*
X179985295Y-88780904D02*
X179890057Y-88733285D01*
X179890057Y-88733285D02*
X179842438Y-88685666D01*
X179842438Y-88685666D02*
X179794819Y-88590428D01*
X179794819Y-88590428D02*
X179794819Y-88399952D01*
X179794819Y-88399952D02*
X179842438Y-88304714D01*
X179842438Y-88304714D02*
X179890057Y-88257095D01*
X179890057Y-88257095D02*
X179985295Y-88209476D01*
X179985295Y-88209476D02*
X180032914Y-88209476D01*
X180032914Y-88209476D02*
X180128152Y-88257095D01*
X180128152Y-88257095D02*
X180175771Y-88304714D01*
X180175771Y-88304714D02*
X180223390Y-88399952D01*
X180223390Y-88399952D02*
X180223390Y-88590428D01*
X180223390Y-88590428D02*
X180271009Y-88685666D01*
X180271009Y-88685666D02*
X180318628Y-88733285D01*
X180318628Y-88733285D02*
X180413866Y-88780904D01*
X180413866Y-88780904D02*
X180604342Y-88780904D01*
X180604342Y-88780904D02*
X180699580Y-88733285D01*
X180699580Y-88733285D02*
X180747200Y-88685666D01*
X180747200Y-88685666D02*
X180794819Y-88590428D01*
X180794819Y-88590428D02*
X180794819Y-88399952D01*
X180794819Y-88399952D02*
X180747200Y-88304714D01*
X180747200Y-88304714D02*
X180699580Y-88257095D01*
X180699580Y-88257095D02*
X180604342Y-88209476D01*
X180604342Y-88209476D02*
X180413866Y-88209476D01*
X180413866Y-88209476D02*
X180318628Y-88257095D01*
X180318628Y-88257095D02*
X180271009Y-88304714D01*
X180271009Y-88304714D02*
X180223390Y-88399952D01*
X180128152Y-87352333D02*
X180794819Y-87352333D01*
X179747200Y-87590428D02*
X180461485Y-87828523D01*
X180461485Y-87828523D02*
X180461485Y-87209476D01*
D12*
X119065318Y-90883619D02*
X120093413Y-90883619D01*
X120093413Y-90883619D02*
X120214365Y-90823142D01*
X120214365Y-90823142D02*
X120274842Y-90762666D01*
X120274842Y-90762666D02*
X120335318Y-90641714D01*
X120335318Y-90641714D02*
X120335318Y-90399809D01*
X120335318Y-90399809D02*
X120274842Y-90278857D01*
X120274842Y-90278857D02*
X120214365Y-90218380D01*
X120214365Y-90218380D02*
X120093413Y-90157904D01*
X120093413Y-90157904D02*
X119065318Y-90157904D01*
X119065318Y-89674095D02*
X119065318Y-88827428D01*
X119065318Y-88827428D02*
X120335318Y-89371714D01*
D10*
X184238095Y-48754819D02*
X184238095Y-47754819D01*
X184238095Y-48231009D02*
X184809523Y-48231009D01*
X184809523Y-48754819D02*
X184809523Y-47754819D01*
X185714285Y-48088152D02*
X185714285Y-48754819D01*
X185476190Y-47707200D02*
X185238095Y-48421485D01*
X185238095Y-48421485D02*
X185857142Y-48421485D01*
X166957476Y-87338819D02*
X166957476Y-88053104D01*
X166957476Y-88053104D02*
X166909857Y-88195961D01*
X166909857Y-88195961D02*
X166814619Y-88291200D01*
X166814619Y-88291200D02*
X166671762Y-88338819D01*
X166671762Y-88338819D02*
X166576524Y-88338819D01*
X167957476Y-88338819D02*
X167386048Y-88338819D01*
X167671762Y-88338819D02*
X167671762Y-87338819D01*
X167671762Y-87338819D02*
X167576524Y-87481676D01*
X167576524Y-87481676D02*
X167481286Y-87576914D01*
X167481286Y-87576914D02*
X167386048Y-87624533D01*
X168290810Y-87338819D02*
X168909857Y-87338819D01*
X168909857Y-87338819D02*
X168576524Y-87719771D01*
X168576524Y-87719771D02*
X168719381Y-87719771D01*
X168719381Y-87719771D02*
X168814619Y-87767390D01*
X168814619Y-87767390D02*
X168862238Y-87815009D01*
X168862238Y-87815009D02*
X168909857Y-87910247D01*
X168909857Y-87910247D02*
X168909857Y-88148342D01*
X168909857Y-88148342D02*
X168862238Y-88243580D01*
X168862238Y-88243580D02*
X168814619Y-88291200D01*
X168814619Y-88291200D02*
X168719381Y-88338819D01*
X168719381Y-88338819D02*
X168433667Y-88338819D01*
X168433667Y-88338819D02*
X168338429Y-88291200D01*
X168338429Y-88291200D02*
X168290810Y-88243580D01*
X152138476Y-89314819D02*
X152138476Y-88314819D01*
X152138476Y-88314819D02*
X152471809Y-89029104D01*
X152471809Y-89029104D02*
X152805142Y-88314819D01*
X152805142Y-88314819D02*
X152805142Y-89314819D01*
X153233714Y-88410057D02*
X153281333Y-88362438D01*
X153281333Y-88362438D02*
X153376571Y-88314819D01*
X153376571Y-88314819D02*
X153614666Y-88314819D01*
X153614666Y-88314819D02*
X153709904Y-88362438D01*
X153709904Y-88362438D02*
X153757523Y-88410057D01*
X153757523Y-88410057D02*
X153805142Y-88505295D01*
X153805142Y-88505295D02*
X153805142Y-88600533D01*
X153805142Y-88600533D02*
X153757523Y-88743390D01*
X153757523Y-88743390D02*
X153186095Y-89314819D01*
X153186095Y-89314819D02*
X153805142Y-89314819D01*
X167618580Y-71127857D02*
X167666200Y-71175476D01*
X167666200Y-71175476D02*
X167713819Y-71318333D01*
X167713819Y-71318333D02*
X167713819Y-71413571D01*
X167713819Y-71413571D02*
X167666200Y-71556428D01*
X167666200Y-71556428D02*
X167570961Y-71651666D01*
X167570961Y-71651666D02*
X167475723Y-71699285D01*
X167475723Y-71699285D02*
X167285247Y-71746904D01*
X167285247Y-71746904D02*
X167142390Y-71746904D01*
X167142390Y-71746904D02*
X166951914Y-71699285D01*
X166951914Y-71699285D02*
X166856676Y-71651666D01*
X166856676Y-71651666D02*
X166761438Y-71556428D01*
X166761438Y-71556428D02*
X166713819Y-71413571D01*
X166713819Y-71413571D02*
X166713819Y-71318333D01*
X166713819Y-71318333D02*
X166761438Y-71175476D01*
X166761438Y-71175476D02*
X166809057Y-71127857D01*
X167047152Y-70270714D02*
X167713819Y-70270714D01*
X166666200Y-70508809D02*
X167380485Y-70746904D01*
X167380485Y-70746904D02*
X167380485Y-70127857D01*
X166713819Y-69842142D02*
X166713819Y-69175476D01*
X166713819Y-69175476D02*
X167713819Y-69604047D01*
X111117142Y-58597580D02*
X111069523Y-58645200D01*
X111069523Y-58645200D02*
X110926666Y-58692819D01*
X110926666Y-58692819D02*
X110831428Y-58692819D01*
X110831428Y-58692819D02*
X110688571Y-58645200D01*
X110688571Y-58645200D02*
X110593333Y-58549961D01*
X110593333Y-58549961D02*
X110545714Y-58454723D01*
X110545714Y-58454723D02*
X110498095Y-58264247D01*
X110498095Y-58264247D02*
X110498095Y-58121390D01*
X110498095Y-58121390D02*
X110545714Y-57930914D01*
X110545714Y-57930914D02*
X110593333Y-57835676D01*
X110593333Y-57835676D02*
X110688571Y-57740438D01*
X110688571Y-57740438D02*
X110831428Y-57692819D01*
X110831428Y-57692819D02*
X110926666Y-57692819D01*
X110926666Y-57692819D02*
X111069523Y-57740438D01*
X111069523Y-57740438D02*
X111117142Y-57788057D01*
X111450476Y-57692819D02*
X112069523Y-57692819D01*
X112069523Y-57692819D02*
X111736190Y-58073771D01*
X111736190Y-58073771D02*
X111879047Y-58073771D01*
X111879047Y-58073771D02*
X111974285Y-58121390D01*
X111974285Y-58121390D02*
X112021904Y-58169009D01*
X112021904Y-58169009D02*
X112069523Y-58264247D01*
X112069523Y-58264247D02*
X112069523Y-58502342D01*
X112069523Y-58502342D02*
X112021904Y-58597580D01*
X112021904Y-58597580D02*
X111974285Y-58645200D01*
X111974285Y-58645200D02*
X111879047Y-58692819D01*
X111879047Y-58692819D02*
X111593333Y-58692819D01*
X111593333Y-58692819D02*
X111498095Y-58645200D01*
X111498095Y-58645200D02*
X111450476Y-58597580D01*
X113021904Y-58692819D02*
X112450476Y-58692819D01*
X112736190Y-58692819D02*
X112736190Y-57692819D01*
X112736190Y-57692819D02*
X112640952Y-57835676D01*
X112640952Y-57835676D02*
X112545714Y-57930914D01*
X112545714Y-57930914D02*
X112450476Y-57978533D01*
X188134666Y-49238819D02*
X188134666Y-49953104D01*
X188134666Y-49953104D02*
X188087047Y-50095961D01*
X188087047Y-50095961D02*
X187991809Y-50191200D01*
X187991809Y-50191200D02*
X187848952Y-50238819D01*
X187848952Y-50238819D02*
X187753714Y-50238819D01*
X189134666Y-50238819D02*
X188563238Y-50238819D01*
X188848952Y-50238819D02*
X188848952Y-49238819D01*
X188848952Y-49238819D02*
X188753714Y-49381676D01*
X188753714Y-49381676D02*
X188658476Y-49476914D01*
X188658476Y-49476914D02*
X188563238Y-49524533D01*
X131183142Y-40078819D02*
X130849809Y-39602628D01*
X130611714Y-40078819D02*
X130611714Y-39078819D01*
X130611714Y-39078819D02*
X130992666Y-39078819D01*
X130992666Y-39078819D02*
X131087904Y-39126438D01*
X131087904Y-39126438D02*
X131135523Y-39174057D01*
X131135523Y-39174057D02*
X131183142Y-39269295D01*
X131183142Y-39269295D02*
X131183142Y-39412152D01*
X131183142Y-39412152D02*
X131135523Y-39507390D01*
X131135523Y-39507390D02*
X131087904Y-39555009D01*
X131087904Y-39555009D02*
X130992666Y-39602628D01*
X130992666Y-39602628D02*
X130611714Y-39602628D01*
X132040285Y-39412152D02*
X132040285Y-40078819D01*
X131802190Y-39031200D02*
X131564095Y-39745485D01*
X131564095Y-39745485D02*
X132183142Y-39745485D01*
X132992666Y-39078819D02*
X132802190Y-39078819D01*
X132802190Y-39078819D02*
X132706952Y-39126438D01*
X132706952Y-39126438D02*
X132659333Y-39174057D01*
X132659333Y-39174057D02*
X132564095Y-39316914D01*
X132564095Y-39316914D02*
X132516476Y-39507390D01*
X132516476Y-39507390D02*
X132516476Y-39888342D01*
X132516476Y-39888342D02*
X132564095Y-39983580D01*
X132564095Y-39983580D02*
X132611714Y-40031200D01*
X132611714Y-40031200D02*
X132706952Y-40078819D01*
X132706952Y-40078819D02*
X132897428Y-40078819D01*
X132897428Y-40078819D02*
X132992666Y-40031200D01*
X132992666Y-40031200D02*
X133040285Y-39983580D01*
X133040285Y-39983580D02*
X133087904Y-39888342D01*
X133087904Y-39888342D02*
X133087904Y-39650247D01*
X133087904Y-39650247D02*
X133040285Y-39555009D01*
X133040285Y-39555009D02*
X132992666Y-39507390D01*
X132992666Y-39507390D02*
X132897428Y-39459771D01*
X132897428Y-39459771D02*
X132706952Y-39459771D01*
X132706952Y-39459771D02*
X132611714Y-39507390D01*
X132611714Y-39507390D02*
X132564095Y-39555009D01*
X132564095Y-39555009D02*
X132516476Y-39650247D01*
X173174819Y-41695666D02*
X172698628Y-42028999D01*
X173174819Y-42267094D02*
X172174819Y-42267094D01*
X172174819Y-42267094D02*
X172174819Y-41886142D01*
X172174819Y-41886142D02*
X172222438Y-41790904D01*
X172222438Y-41790904D02*
X172270057Y-41743285D01*
X172270057Y-41743285D02*
X172365295Y-41695666D01*
X172365295Y-41695666D02*
X172508152Y-41695666D01*
X172508152Y-41695666D02*
X172603390Y-41743285D01*
X172603390Y-41743285D02*
X172651009Y-41790904D01*
X172651009Y-41790904D02*
X172698628Y-41886142D01*
X172698628Y-41886142D02*
X172698628Y-42267094D01*
X172174819Y-41362332D02*
X172174819Y-40743285D01*
X172174819Y-40743285D02*
X172555771Y-41076618D01*
X172555771Y-41076618D02*
X172555771Y-40933761D01*
X172555771Y-40933761D02*
X172603390Y-40838523D01*
X172603390Y-40838523D02*
X172651009Y-40790904D01*
X172651009Y-40790904D02*
X172746247Y-40743285D01*
X172746247Y-40743285D02*
X172984342Y-40743285D01*
X172984342Y-40743285D02*
X173079580Y-40790904D01*
X173079580Y-40790904D02*
X173127200Y-40838523D01*
X173127200Y-40838523D02*
X173174819Y-40933761D01*
X173174819Y-40933761D02*
X173174819Y-41219475D01*
X173174819Y-41219475D02*
X173127200Y-41314713D01*
X173127200Y-41314713D02*
X173079580Y-41362332D01*
X134413666Y-38697819D02*
X134413666Y-39412104D01*
X134413666Y-39412104D02*
X134366047Y-39554961D01*
X134366047Y-39554961D02*
X134270809Y-39650200D01*
X134270809Y-39650200D02*
X134127952Y-39697819D01*
X134127952Y-39697819D02*
X134032714Y-39697819D01*
X135366047Y-38697819D02*
X134889857Y-38697819D01*
X134889857Y-38697819D02*
X134842238Y-39174009D01*
X134842238Y-39174009D02*
X134889857Y-39126390D01*
X134889857Y-39126390D02*
X134985095Y-39078771D01*
X134985095Y-39078771D02*
X135223190Y-39078771D01*
X135223190Y-39078771D02*
X135318428Y-39126390D01*
X135318428Y-39126390D02*
X135366047Y-39174009D01*
X135366047Y-39174009D02*
X135413666Y-39269247D01*
X135413666Y-39269247D02*
X135413666Y-39507342D01*
X135413666Y-39507342D02*
X135366047Y-39602580D01*
X135366047Y-39602580D02*
X135318428Y-39650200D01*
X135318428Y-39650200D02*
X135223190Y-39697819D01*
X135223190Y-39697819D02*
X134985095Y-39697819D01*
X134985095Y-39697819D02*
X134889857Y-39650200D01*
X134889857Y-39650200D02*
X134842238Y-39602580D01*
X123110666Y-39084819D02*
X123110666Y-39799104D01*
X123110666Y-39799104D02*
X123063047Y-39941961D01*
X123063047Y-39941961D02*
X122967809Y-40037200D01*
X122967809Y-40037200D02*
X122824952Y-40084819D01*
X122824952Y-40084819D02*
X122729714Y-40084819D01*
X123634476Y-40084819D02*
X123824952Y-40084819D01*
X123824952Y-40084819D02*
X123920190Y-40037200D01*
X123920190Y-40037200D02*
X123967809Y-39989580D01*
X123967809Y-39989580D02*
X124063047Y-39846723D01*
X124063047Y-39846723D02*
X124110666Y-39656247D01*
X124110666Y-39656247D02*
X124110666Y-39275295D01*
X124110666Y-39275295D02*
X124063047Y-39180057D01*
X124063047Y-39180057D02*
X124015428Y-39132438D01*
X124015428Y-39132438D02*
X123920190Y-39084819D01*
X123920190Y-39084819D02*
X123729714Y-39084819D01*
X123729714Y-39084819D02*
X123634476Y-39132438D01*
X123634476Y-39132438D02*
X123586857Y-39180057D01*
X123586857Y-39180057D02*
X123539238Y-39275295D01*
X123539238Y-39275295D02*
X123539238Y-39513390D01*
X123539238Y-39513390D02*
X123586857Y-39608628D01*
X123586857Y-39608628D02*
X123634476Y-39656247D01*
X123634476Y-39656247D02*
X123729714Y-39703866D01*
X123729714Y-39703866D02*
X123920190Y-39703866D01*
X123920190Y-39703866D02*
X124015428Y-39656247D01*
X124015428Y-39656247D02*
X124063047Y-39608628D01*
X124063047Y-39608628D02*
X124110666Y-39513390D01*
X165433476Y-38432819D02*
X165433476Y-39147104D01*
X165433476Y-39147104D02*
X165385857Y-39289961D01*
X165385857Y-39289961D02*
X165290619Y-39385200D01*
X165290619Y-39385200D02*
X165147762Y-39432819D01*
X165147762Y-39432819D02*
X165052524Y-39432819D01*
X166433476Y-39432819D02*
X165862048Y-39432819D01*
X166147762Y-39432819D02*
X166147762Y-38432819D01*
X166147762Y-38432819D02*
X166052524Y-38575676D01*
X166052524Y-38575676D02*
X165957286Y-38670914D01*
X165957286Y-38670914D02*
X165862048Y-38718533D01*
X166814429Y-38528057D02*
X166862048Y-38480438D01*
X166862048Y-38480438D02*
X166957286Y-38432819D01*
X166957286Y-38432819D02*
X167195381Y-38432819D01*
X167195381Y-38432819D02*
X167290619Y-38480438D01*
X167290619Y-38480438D02*
X167338238Y-38528057D01*
X167338238Y-38528057D02*
X167385857Y-38623295D01*
X167385857Y-38623295D02*
X167385857Y-38718533D01*
X167385857Y-38718533D02*
X167338238Y-38861390D01*
X167338238Y-38861390D02*
X166766810Y-39432819D01*
X166766810Y-39432819D02*
X167385857Y-39432819D01*
X120443666Y-82481009D02*
X120110333Y-82481009D01*
X120110333Y-83004819D02*
X120110333Y-82004819D01*
X120110333Y-82004819D02*
X120586523Y-82004819D01*
X121491285Y-83004819D02*
X120919857Y-83004819D01*
X121205571Y-83004819D02*
X121205571Y-82004819D01*
X121205571Y-82004819D02*
X121110333Y-82147676D01*
X121110333Y-82147676D02*
X121015095Y-82242914D01*
X121015095Y-82242914D02*
X120919857Y-82290533D01*
X173029714Y-94561819D02*
X173029714Y-93561819D01*
X173029714Y-93561819D02*
X173267809Y-93561819D01*
X173267809Y-93561819D02*
X173410666Y-93609438D01*
X173410666Y-93609438D02*
X173505904Y-93704676D01*
X173505904Y-93704676D02*
X173553523Y-93799914D01*
X173553523Y-93799914D02*
X173601142Y-93990390D01*
X173601142Y-93990390D02*
X173601142Y-94133247D01*
X173601142Y-94133247D02*
X173553523Y-94323723D01*
X173553523Y-94323723D02*
X173505904Y-94418961D01*
X173505904Y-94418961D02*
X173410666Y-94514200D01*
X173410666Y-94514200D02*
X173267809Y-94561819D01*
X173267809Y-94561819D02*
X173029714Y-94561819D01*
X173982095Y-93657057D02*
X174029714Y-93609438D01*
X174029714Y-93609438D02*
X174124952Y-93561819D01*
X174124952Y-93561819D02*
X174363047Y-93561819D01*
X174363047Y-93561819D02*
X174458285Y-93609438D01*
X174458285Y-93609438D02*
X174505904Y-93657057D01*
X174505904Y-93657057D02*
X174553523Y-93752295D01*
X174553523Y-93752295D02*
X174553523Y-93847533D01*
X174553523Y-93847533D02*
X174505904Y-93990390D01*
X174505904Y-93990390D02*
X173934476Y-94561819D01*
X173934476Y-94561819D02*
X174553523Y-94561819D01*
X175172571Y-93561819D02*
X175267809Y-93561819D01*
X175267809Y-93561819D02*
X175363047Y-93609438D01*
X175363047Y-93609438D02*
X175410666Y-93657057D01*
X175410666Y-93657057D02*
X175458285Y-93752295D01*
X175458285Y-93752295D02*
X175505904Y-93942771D01*
X175505904Y-93942771D02*
X175505904Y-94180866D01*
X175505904Y-94180866D02*
X175458285Y-94371342D01*
X175458285Y-94371342D02*
X175410666Y-94466580D01*
X175410666Y-94466580D02*
X175363047Y-94514200D01*
X175363047Y-94514200D02*
X175267809Y-94561819D01*
X175267809Y-94561819D02*
X175172571Y-94561819D01*
X175172571Y-94561819D02*
X175077333Y-94514200D01*
X175077333Y-94514200D02*
X175029714Y-94466580D01*
X175029714Y-94466580D02*
X174982095Y-94371342D01*
X174982095Y-94371342D02*
X174934476Y-94180866D01*
X174934476Y-94180866D02*
X174934476Y-93942771D01*
X174934476Y-93942771D02*
X174982095Y-93752295D01*
X174982095Y-93752295D02*
X175029714Y-93657057D01*
X175029714Y-93657057D02*
X175077333Y-93609438D01*
X175077333Y-93609438D02*
X175172571Y-93561819D01*
X179347905Y-99387819D02*
X179347905Y-98387819D01*
X179347905Y-98387819D02*
X179586000Y-98387819D01*
X179586000Y-98387819D02*
X179728857Y-98435438D01*
X179728857Y-98435438D02*
X179824095Y-98530676D01*
X179824095Y-98530676D02*
X179871714Y-98625914D01*
X179871714Y-98625914D02*
X179919333Y-98816390D01*
X179919333Y-98816390D02*
X179919333Y-98959247D01*
X179919333Y-98959247D02*
X179871714Y-99149723D01*
X179871714Y-99149723D02*
X179824095Y-99244961D01*
X179824095Y-99244961D02*
X179728857Y-99340200D01*
X179728857Y-99340200D02*
X179586000Y-99387819D01*
X179586000Y-99387819D02*
X179347905Y-99387819D01*
X180300286Y-98483057D02*
X180347905Y-98435438D01*
X180347905Y-98435438D02*
X180443143Y-98387819D01*
X180443143Y-98387819D02*
X180681238Y-98387819D01*
X180681238Y-98387819D02*
X180776476Y-98435438D01*
X180776476Y-98435438D02*
X180824095Y-98483057D01*
X180824095Y-98483057D02*
X180871714Y-98578295D01*
X180871714Y-98578295D02*
X180871714Y-98673533D01*
X180871714Y-98673533D02*
X180824095Y-98816390D01*
X180824095Y-98816390D02*
X180252667Y-99387819D01*
X180252667Y-99387819D02*
X180871714Y-99387819D01*
X171904819Y-89161857D02*
X171428628Y-89495190D01*
X171904819Y-89733285D02*
X170904819Y-89733285D01*
X170904819Y-89733285D02*
X170904819Y-89352333D01*
X170904819Y-89352333D02*
X170952438Y-89257095D01*
X170952438Y-89257095D02*
X171000057Y-89209476D01*
X171000057Y-89209476D02*
X171095295Y-89161857D01*
X171095295Y-89161857D02*
X171238152Y-89161857D01*
X171238152Y-89161857D02*
X171333390Y-89209476D01*
X171333390Y-89209476D02*
X171381009Y-89257095D01*
X171381009Y-89257095D02*
X171428628Y-89352333D01*
X171428628Y-89352333D02*
X171428628Y-89733285D01*
X170904819Y-88257095D02*
X170904819Y-88733285D01*
X170904819Y-88733285D02*
X171381009Y-88780904D01*
X171381009Y-88780904D02*
X171333390Y-88733285D01*
X171333390Y-88733285D02*
X171285771Y-88638047D01*
X171285771Y-88638047D02*
X171285771Y-88399952D01*
X171285771Y-88399952D02*
X171333390Y-88304714D01*
X171333390Y-88304714D02*
X171381009Y-88257095D01*
X171381009Y-88257095D02*
X171476247Y-88209476D01*
X171476247Y-88209476D02*
X171714342Y-88209476D01*
X171714342Y-88209476D02*
X171809580Y-88257095D01*
X171809580Y-88257095D02*
X171857200Y-88304714D01*
X171857200Y-88304714D02*
X171904819Y-88399952D01*
X171904819Y-88399952D02*
X171904819Y-88638047D01*
X171904819Y-88638047D02*
X171857200Y-88733285D01*
X171857200Y-88733285D02*
X171809580Y-88780904D01*
X170904819Y-87352333D02*
X170904819Y-87542809D01*
X170904819Y-87542809D02*
X170952438Y-87638047D01*
X170952438Y-87638047D02*
X171000057Y-87685666D01*
X171000057Y-87685666D02*
X171142914Y-87780904D01*
X171142914Y-87780904D02*
X171333390Y-87828523D01*
X171333390Y-87828523D02*
X171714342Y-87828523D01*
X171714342Y-87828523D02*
X171809580Y-87780904D01*
X171809580Y-87780904D02*
X171857200Y-87733285D01*
X171857200Y-87733285D02*
X171904819Y-87638047D01*
X171904819Y-87638047D02*
X171904819Y-87447571D01*
X171904819Y-87447571D02*
X171857200Y-87352333D01*
X171857200Y-87352333D02*
X171809580Y-87304714D01*
X171809580Y-87304714D02*
X171714342Y-87257095D01*
X171714342Y-87257095D02*
X171476247Y-87257095D01*
X171476247Y-87257095D02*
X171381009Y-87304714D01*
X171381009Y-87304714D02*
X171333390Y-87352333D01*
X171333390Y-87352333D02*
X171285771Y-87447571D01*
X171285771Y-87447571D02*
X171285771Y-87638047D01*
X171285771Y-87638047D02*
X171333390Y-87733285D01*
X171333390Y-87733285D02*
X171381009Y-87780904D01*
X171381009Y-87780904D02*
X171476247Y-87828523D01*
X101044476Y-70701819D02*
X101044476Y-71416104D01*
X101044476Y-71416104D02*
X100996857Y-71558961D01*
X100996857Y-71558961D02*
X100901619Y-71654200D01*
X100901619Y-71654200D02*
X100758762Y-71701819D01*
X100758762Y-71701819D02*
X100663524Y-71701819D01*
X102044476Y-71701819D02*
X101473048Y-71701819D01*
X101758762Y-71701819D02*
X101758762Y-70701819D01*
X101758762Y-70701819D02*
X101663524Y-70844676D01*
X101663524Y-70844676D02*
X101568286Y-70939914D01*
X101568286Y-70939914D02*
X101473048Y-70987533D01*
X102996857Y-71701819D02*
X102425429Y-71701819D01*
X102711143Y-71701819D02*
X102711143Y-70701819D01*
X102711143Y-70701819D02*
X102615905Y-70844676D01*
X102615905Y-70844676D02*
X102520667Y-70939914D01*
X102520667Y-70939914D02*
X102425429Y-70987533D01*
X189081580Y-55887857D02*
X189129200Y-55935476D01*
X189129200Y-55935476D02*
X189176819Y-56078333D01*
X189176819Y-56078333D02*
X189176819Y-56173571D01*
X189176819Y-56173571D02*
X189129200Y-56316428D01*
X189129200Y-56316428D02*
X189033961Y-56411666D01*
X189033961Y-56411666D02*
X188938723Y-56459285D01*
X188938723Y-56459285D02*
X188748247Y-56506904D01*
X188748247Y-56506904D02*
X188605390Y-56506904D01*
X188605390Y-56506904D02*
X188414914Y-56459285D01*
X188414914Y-56459285D02*
X188319676Y-56411666D01*
X188319676Y-56411666D02*
X188224438Y-56316428D01*
X188224438Y-56316428D02*
X188176819Y-56173571D01*
X188176819Y-56173571D02*
X188176819Y-56078333D01*
X188176819Y-56078333D02*
X188224438Y-55935476D01*
X188224438Y-55935476D02*
X188272057Y-55887857D01*
X188510152Y-55030714D02*
X189176819Y-55030714D01*
X188129200Y-55268809D02*
X188843485Y-55506904D01*
X188843485Y-55506904D02*
X188843485Y-54887857D01*
X188605390Y-54364047D02*
X188557771Y-54459285D01*
X188557771Y-54459285D02*
X188510152Y-54506904D01*
X188510152Y-54506904D02*
X188414914Y-54554523D01*
X188414914Y-54554523D02*
X188367295Y-54554523D01*
X188367295Y-54554523D02*
X188272057Y-54506904D01*
X188272057Y-54506904D02*
X188224438Y-54459285D01*
X188224438Y-54459285D02*
X188176819Y-54364047D01*
X188176819Y-54364047D02*
X188176819Y-54173571D01*
X188176819Y-54173571D02*
X188224438Y-54078333D01*
X188224438Y-54078333D02*
X188272057Y-54030714D01*
X188272057Y-54030714D02*
X188367295Y-53983095D01*
X188367295Y-53983095D02*
X188414914Y-53983095D01*
X188414914Y-53983095D02*
X188510152Y-54030714D01*
X188510152Y-54030714D02*
X188557771Y-54078333D01*
X188557771Y-54078333D02*
X188605390Y-54173571D01*
X188605390Y-54173571D02*
X188605390Y-54364047D01*
X188605390Y-54364047D02*
X188653009Y-54459285D01*
X188653009Y-54459285D02*
X188700628Y-54506904D01*
X188700628Y-54506904D02*
X188795866Y-54554523D01*
X188795866Y-54554523D02*
X188986342Y-54554523D01*
X188986342Y-54554523D02*
X189081580Y-54506904D01*
X189081580Y-54506904D02*
X189129200Y-54459285D01*
X189129200Y-54459285D02*
X189176819Y-54364047D01*
X189176819Y-54364047D02*
X189176819Y-54173571D01*
X189176819Y-54173571D02*
X189129200Y-54078333D01*
X189129200Y-54078333D02*
X189081580Y-54030714D01*
X189081580Y-54030714D02*
X188986342Y-53983095D01*
X188986342Y-53983095D02*
X188795866Y-53983095D01*
X188795866Y-53983095D02*
X188700628Y-54030714D01*
X188700628Y-54030714D02*
X188653009Y-54078333D01*
X188653009Y-54078333D02*
X188605390Y-54173571D01*
X144141819Y-43456523D02*
X144856104Y-43456523D01*
X144856104Y-43456523D02*
X144998961Y-43504142D01*
X144998961Y-43504142D02*
X145094200Y-43599380D01*
X145094200Y-43599380D02*
X145141819Y-43742237D01*
X145141819Y-43742237D02*
X145141819Y-43837475D01*
X144237057Y-43027951D02*
X144189438Y-42980332D01*
X144189438Y-42980332D02*
X144141819Y-42885094D01*
X144141819Y-42885094D02*
X144141819Y-42646999D01*
X144141819Y-42646999D02*
X144189438Y-42551761D01*
X144189438Y-42551761D02*
X144237057Y-42504142D01*
X144237057Y-42504142D02*
X144332295Y-42456523D01*
X144332295Y-42456523D02*
X144427533Y-42456523D01*
X144427533Y-42456523D02*
X144570390Y-42504142D01*
X144570390Y-42504142D02*
X145141819Y-43075570D01*
X145141819Y-43075570D02*
X145141819Y-42456523D01*
X144141819Y-41837475D02*
X144141819Y-41742237D01*
X144141819Y-41742237D02*
X144189438Y-41646999D01*
X144189438Y-41646999D02*
X144237057Y-41599380D01*
X144237057Y-41599380D02*
X144332295Y-41551761D01*
X144332295Y-41551761D02*
X144522771Y-41504142D01*
X144522771Y-41504142D02*
X144760866Y-41504142D01*
X144760866Y-41504142D02*
X144951342Y-41551761D01*
X144951342Y-41551761D02*
X145046580Y-41599380D01*
X145046580Y-41599380D02*
X145094200Y-41646999D01*
X145094200Y-41646999D02*
X145141819Y-41742237D01*
X145141819Y-41742237D02*
X145141819Y-41837475D01*
X145141819Y-41837475D02*
X145094200Y-41932713D01*
X145094200Y-41932713D02*
X145046580Y-41980332D01*
X145046580Y-41980332D02*
X144951342Y-42027951D01*
X144951342Y-42027951D02*
X144760866Y-42075570D01*
X144760866Y-42075570D02*
X144522771Y-42075570D01*
X144522771Y-42075570D02*
X144332295Y-42027951D01*
X144332295Y-42027951D02*
X144237057Y-41980332D01*
X144237057Y-41980332D02*
X144189438Y-41932713D01*
X144189438Y-41932713D02*
X144141819Y-41837475D01*
X111117142Y-51794580D02*
X111069523Y-51842200D01*
X111069523Y-51842200D02*
X110926666Y-51889819D01*
X110926666Y-51889819D02*
X110831428Y-51889819D01*
X110831428Y-51889819D02*
X110688571Y-51842200D01*
X110688571Y-51842200D02*
X110593333Y-51746961D01*
X110593333Y-51746961D02*
X110545714Y-51651723D01*
X110545714Y-51651723D02*
X110498095Y-51461247D01*
X110498095Y-51461247D02*
X110498095Y-51318390D01*
X110498095Y-51318390D02*
X110545714Y-51127914D01*
X110545714Y-51127914D02*
X110593333Y-51032676D01*
X110593333Y-51032676D02*
X110688571Y-50937438D01*
X110688571Y-50937438D02*
X110831428Y-50889819D01*
X110831428Y-50889819D02*
X110926666Y-50889819D01*
X110926666Y-50889819D02*
X111069523Y-50937438D01*
X111069523Y-50937438D02*
X111117142Y-50985057D01*
X111450476Y-50889819D02*
X112069523Y-50889819D01*
X112069523Y-50889819D02*
X111736190Y-51270771D01*
X111736190Y-51270771D02*
X111879047Y-51270771D01*
X111879047Y-51270771D02*
X111974285Y-51318390D01*
X111974285Y-51318390D02*
X112021904Y-51366009D01*
X112021904Y-51366009D02*
X112069523Y-51461247D01*
X112069523Y-51461247D02*
X112069523Y-51699342D01*
X112069523Y-51699342D02*
X112021904Y-51794580D01*
X112021904Y-51794580D02*
X111974285Y-51842200D01*
X111974285Y-51842200D02*
X111879047Y-51889819D01*
X111879047Y-51889819D02*
X111593333Y-51889819D01*
X111593333Y-51889819D02*
X111498095Y-51842200D01*
X111498095Y-51842200D02*
X111450476Y-51794580D01*
X112450476Y-50985057D02*
X112498095Y-50937438D01*
X112498095Y-50937438D02*
X112593333Y-50889819D01*
X112593333Y-50889819D02*
X112831428Y-50889819D01*
X112831428Y-50889819D02*
X112926666Y-50937438D01*
X112926666Y-50937438D02*
X112974285Y-50985057D01*
X112974285Y-50985057D02*
X113021904Y-51080295D01*
X113021904Y-51080295D02*
X113021904Y-51175533D01*
X113021904Y-51175533D02*
X112974285Y-51318390D01*
X112974285Y-51318390D02*
X112402857Y-51889819D01*
X112402857Y-51889819D02*
X113021904Y-51889819D01*
X174545666Y-67526819D02*
X174545666Y-68241104D01*
X174545666Y-68241104D02*
X174498047Y-68383961D01*
X174498047Y-68383961D02*
X174402809Y-68479200D01*
X174402809Y-68479200D02*
X174259952Y-68526819D01*
X174259952Y-68526819D02*
X174164714Y-68526819D01*
X175164714Y-67955390D02*
X175069476Y-67907771D01*
X175069476Y-67907771D02*
X175021857Y-67860152D01*
X175021857Y-67860152D02*
X174974238Y-67764914D01*
X174974238Y-67764914D02*
X174974238Y-67717295D01*
X174974238Y-67717295D02*
X175021857Y-67622057D01*
X175021857Y-67622057D02*
X175069476Y-67574438D01*
X175069476Y-67574438D02*
X175164714Y-67526819D01*
X175164714Y-67526819D02*
X175355190Y-67526819D01*
X175355190Y-67526819D02*
X175450428Y-67574438D01*
X175450428Y-67574438D02*
X175498047Y-67622057D01*
X175498047Y-67622057D02*
X175545666Y-67717295D01*
X175545666Y-67717295D02*
X175545666Y-67764914D01*
X175545666Y-67764914D02*
X175498047Y-67860152D01*
X175498047Y-67860152D02*
X175450428Y-67907771D01*
X175450428Y-67907771D02*
X175355190Y-67955390D01*
X175355190Y-67955390D02*
X175164714Y-67955390D01*
X175164714Y-67955390D02*
X175069476Y-68003009D01*
X175069476Y-68003009D02*
X175021857Y-68050628D01*
X175021857Y-68050628D02*
X174974238Y-68145866D01*
X174974238Y-68145866D02*
X174974238Y-68336342D01*
X174974238Y-68336342D02*
X175021857Y-68431580D01*
X175021857Y-68431580D02*
X175069476Y-68479200D01*
X175069476Y-68479200D02*
X175164714Y-68526819D01*
X175164714Y-68526819D02*
X175355190Y-68526819D01*
X175355190Y-68526819D02*
X175450428Y-68479200D01*
X175450428Y-68479200D02*
X175498047Y-68431580D01*
X175498047Y-68431580D02*
X175545666Y-68336342D01*
X175545666Y-68336342D02*
X175545666Y-68145866D01*
X175545666Y-68145866D02*
X175498047Y-68050628D01*
X175498047Y-68050628D02*
X175450428Y-68003009D01*
X175450428Y-68003009D02*
X175355190Y-67955390D01*
X179380819Y-60531333D02*
X180095104Y-60531333D01*
X180095104Y-60531333D02*
X180237961Y-60578952D01*
X180237961Y-60578952D02*
X180333200Y-60674190D01*
X180333200Y-60674190D02*
X180380819Y-60817047D01*
X180380819Y-60817047D02*
X180380819Y-60912285D01*
X179380819Y-59626571D02*
X179380819Y-59817047D01*
X179380819Y-59817047D02*
X179428438Y-59912285D01*
X179428438Y-59912285D02*
X179476057Y-59959904D01*
X179476057Y-59959904D02*
X179618914Y-60055142D01*
X179618914Y-60055142D02*
X179809390Y-60102761D01*
X179809390Y-60102761D02*
X180190342Y-60102761D01*
X180190342Y-60102761D02*
X180285580Y-60055142D01*
X180285580Y-60055142D02*
X180333200Y-60007523D01*
X180333200Y-60007523D02*
X180380819Y-59912285D01*
X180380819Y-59912285D02*
X180380819Y-59721809D01*
X180380819Y-59721809D02*
X180333200Y-59626571D01*
X180333200Y-59626571D02*
X180285580Y-59578952D01*
X180285580Y-59578952D02*
X180190342Y-59531333D01*
X180190342Y-59531333D02*
X179952247Y-59531333D01*
X179952247Y-59531333D02*
X179857009Y-59578952D01*
X179857009Y-59578952D02*
X179809390Y-59626571D01*
X179809390Y-59626571D02*
X179761771Y-59721809D01*
X179761771Y-59721809D02*
X179761771Y-59912285D01*
X179761771Y-59912285D02*
X179809390Y-60007523D01*
X179809390Y-60007523D02*
X179857009Y-60055142D01*
X179857009Y-60055142D02*
X179952247Y-60102761D01*
X133357142Y-58927580D02*
X133309523Y-58975200D01*
X133309523Y-58975200D02*
X133166666Y-59022819D01*
X133166666Y-59022819D02*
X133071428Y-59022819D01*
X133071428Y-59022819D02*
X132928571Y-58975200D01*
X132928571Y-58975200D02*
X132833333Y-58879961D01*
X132833333Y-58879961D02*
X132785714Y-58784723D01*
X132785714Y-58784723D02*
X132738095Y-58594247D01*
X132738095Y-58594247D02*
X132738095Y-58451390D01*
X132738095Y-58451390D02*
X132785714Y-58260914D01*
X132785714Y-58260914D02*
X132833333Y-58165676D01*
X132833333Y-58165676D02*
X132928571Y-58070438D01*
X132928571Y-58070438D02*
X133071428Y-58022819D01*
X133071428Y-58022819D02*
X133166666Y-58022819D01*
X133166666Y-58022819D02*
X133309523Y-58070438D01*
X133309523Y-58070438D02*
X133357142Y-58118057D01*
X133690476Y-58022819D02*
X134309523Y-58022819D01*
X134309523Y-58022819D02*
X133976190Y-58403771D01*
X133976190Y-58403771D02*
X134119047Y-58403771D01*
X134119047Y-58403771D02*
X134214285Y-58451390D01*
X134214285Y-58451390D02*
X134261904Y-58499009D01*
X134261904Y-58499009D02*
X134309523Y-58594247D01*
X134309523Y-58594247D02*
X134309523Y-58832342D01*
X134309523Y-58832342D02*
X134261904Y-58927580D01*
X134261904Y-58927580D02*
X134214285Y-58975200D01*
X134214285Y-58975200D02*
X134119047Y-59022819D01*
X134119047Y-59022819D02*
X133833333Y-59022819D01*
X133833333Y-59022819D02*
X133738095Y-58975200D01*
X133738095Y-58975200D02*
X133690476Y-58927580D01*
X134785714Y-59022819D02*
X134976190Y-59022819D01*
X134976190Y-59022819D02*
X135071428Y-58975200D01*
X135071428Y-58975200D02*
X135119047Y-58927580D01*
X135119047Y-58927580D02*
X135214285Y-58784723D01*
X135214285Y-58784723D02*
X135261904Y-58594247D01*
X135261904Y-58594247D02*
X135261904Y-58213295D01*
X135261904Y-58213295D02*
X135214285Y-58118057D01*
X135214285Y-58118057D02*
X135166666Y-58070438D01*
X135166666Y-58070438D02*
X135071428Y-58022819D01*
X135071428Y-58022819D02*
X134880952Y-58022819D01*
X134880952Y-58022819D02*
X134785714Y-58070438D01*
X134785714Y-58070438D02*
X134738095Y-58118057D01*
X134738095Y-58118057D02*
X134690476Y-58213295D01*
X134690476Y-58213295D02*
X134690476Y-58451390D01*
X134690476Y-58451390D02*
X134738095Y-58546628D01*
X134738095Y-58546628D02*
X134785714Y-58594247D01*
X134785714Y-58594247D02*
X134880952Y-58641866D01*
X134880952Y-58641866D02*
X135071428Y-58641866D01*
X135071428Y-58641866D02*
X135166666Y-58594247D01*
X135166666Y-58594247D02*
X135214285Y-58546628D01*
X135214285Y-58546628D02*
X135261904Y-58451390D01*
X157266819Y-86931166D02*
X156790628Y-87264499D01*
X157266819Y-87502594D02*
X156266819Y-87502594D01*
X156266819Y-87502594D02*
X156266819Y-87121642D01*
X156266819Y-87121642D02*
X156314438Y-87026404D01*
X156314438Y-87026404D02*
X156362057Y-86978785D01*
X156362057Y-86978785D02*
X156457295Y-86931166D01*
X156457295Y-86931166D02*
X156600152Y-86931166D01*
X156600152Y-86931166D02*
X156695390Y-86978785D01*
X156695390Y-86978785D02*
X156743009Y-87026404D01*
X156743009Y-87026404D02*
X156790628Y-87121642D01*
X156790628Y-87121642D02*
X156790628Y-87502594D01*
X156266819Y-86026404D02*
X156266819Y-86502594D01*
X156266819Y-86502594D02*
X156743009Y-86550213D01*
X156743009Y-86550213D02*
X156695390Y-86502594D01*
X156695390Y-86502594D02*
X156647771Y-86407356D01*
X156647771Y-86407356D02*
X156647771Y-86169261D01*
X156647771Y-86169261D02*
X156695390Y-86074023D01*
X156695390Y-86074023D02*
X156743009Y-86026404D01*
X156743009Y-86026404D02*
X156838247Y-85978785D01*
X156838247Y-85978785D02*
X157076342Y-85978785D01*
X157076342Y-85978785D02*
X157171580Y-86026404D01*
X157171580Y-86026404D02*
X157219200Y-86074023D01*
X157219200Y-86074023D02*
X157266819Y-86169261D01*
X157266819Y-86169261D02*
X157266819Y-86407356D01*
X157266819Y-86407356D02*
X157219200Y-86502594D01*
X157219200Y-86502594D02*
X157171580Y-86550213D01*
X177974666Y-68387819D02*
X177974666Y-69102104D01*
X177974666Y-69102104D02*
X177927047Y-69244961D01*
X177927047Y-69244961D02*
X177831809Y-69340200D01*
X177831809Y-69340200D02*
X177688952Y-69387819D01*
X177688952Y-69387819D02*
X177593714Y-69387819D01*
X178879428Y-68721152D02*
X178879428Y-69387819D01*
X178641333Y-68340200D02*
X178403238Y-69054485D01*
X178403238Y-69054485D02*
X179022285Y-69054485D01*
X104238095Y-48754819D02*
X104238095Y-47754819D01*
X104238095Y-48231009D02*
X104809523Y-48231009D01*
X104809523Y-48754819D02*
X104809523Y-47754819D01*
X105190476Y-47754819D02*
X105809523Y-47754819D01*
X105809523Y-47754819D02*
X105476190Y-48135771D01*
X105476190Y-48135771D02*
X105619047Y-48135771D01*
X105619047Y-48135771D02*
X105714285Y-48183390D01*
X105714285Y-48183390D02*
X105761904Y-48231009D01*
X105761904Y-48231009D02*
X105809523Y-48326247D01*
X105809523Y-48326247D02*
X105809523Y-48564342D01*
X105809523Y-48564342D02*
X105761904Y-48659580D01*
X105761904Y-48659580D02*
X105714285Y-48707200D01*
X105714285Y-48707200D02*
X105619047Y-48754819D01*
X105619047Y-48754819D02*
X105333333Y-48754819D01*
X105333333Y-48754819D02*
X105238095Y-48707200D01*
X105238095Y-48707200D02*
X105190476Y-48659580D01*
X127881142Y-40078819D02*
X127547809Y-39602628D01*
X127309714Y-40078819D02*
X127309714Y-39078819D01*
X127309714Y-39078819D02*
X127690666Y-39078819D01*
X127690666Y-39078819D02*
X127785904Y-39126438D01*
X127785904Y-39126438D02*
X127833523Y-39174057D01*
X127833523Y-39174057D02*
X127881142Y-39269295D01*
X127881142Y-39269295D02*
X127881142Y-39412152D01*
X127881142Y-39412152D02*
X127833523Y-39507390D01*
X127833523Y-39507390D02*
X127785904Y-39555009D01*
X127785904Y-39555009D02*
X127690666Y-39602628D01*
X127690666Y-39602628D02*
X127309714Y-39602628D01*
X128738285Y-39412152D02*
X128738285Y-40078819D01*
X128500190Y-39031200D02*
X128262095Y-39745485D01*
X128262095Y-39745485D02*
X128881142Y-39745485D01*
X129738285Y-39078819D02*
X129262095Y-39078819D01*
X129262095Y-39078819D02*
X129214476Y-39555009D01*
X129214476Y-39555009D02*
X129262095Y-39507390D01*
X129262095Y-39507390D02*
X129357333Y-39459771D01*
X129357333Y-39459771D02*
X129595428Y-39459771D01*
X129595428Y-39459771D02*
X129690666Y-39507390D01*
X129690666Y-39507390D02*
X129738285Y-39555009D01*
X129738285Y-39555009D02*
X129785904Y-39650247D01*
X129785904Y-39650247D02*
X129785904Y-39888342D01*
X129785904Y-39888342D02*
X129738285Y-39983580D01*
X129738285Y-39983580D02*
X129690666Y-40031200D01*
X129690666Y-40031200D02*
X129595428Y-40078819D01*
X129595428Y-40078819D02*
X129357333Y-40078819D01*
X129357333Y-40078819D02*
X129262095Y-40031200D01*
X129262095Y-40031200D02*
X129214476Y-39983580D01*
X185499476Y-69558819D02*
X185499476Y-70273104D01*
X185499476Y-70273104D02*
X185451857Y-70415961D01*
X185451857Y-70415961D02*
X185356619Y-70511200D01*
X185356619Y-70511200D02*
X185213762Y-70558819D01*
X185213762Y-70558819D02*
X185118524Y-70558819D01*
X186499476Y-70558819D02*
X185928048Y-70558819D01*
X186213762Y-70558819D02*
X186213762Y-69558819D01*
X186213762Y-69558819D02*
X186118524Y-69701676D01*
X186118524Y-69701676D02*
X186023286Y-69796914D01*
X186023286Y-69796914D02*
X185928048Y-69844533D01*
X187404238Y-69558819D02*
X186928048Y-69558819D01*
X186928048Y-69558819D02*
X186880429Y-70035009D01*
X186880429Y-70035009D02*
X186928048Y-69987390D01*
X186928048Y-69987390D02*
X187023286Y-69939771D01*
X187023286Y-69939771D02*
X187261381Y-69939771D01*
X187261381Y-69939771D02*
X187356619Y-69987390D01*
X187356619Y-69987390D02*
X187404238Y-70035009D01*
X187404238Y-70035009D02*
X187451857Y-70130247D01*
X187451857Y-70130247D02*
X187451857Y-70368342D01*
X187451857Y-70368342D02*
X187404238Y-70463580D01*
X187404238Y-70463580D02*
X187356619Y-70511200D01*
X187356619Y-70511200D02*
X187261381Y-70558819D01*
X187261381Y-70558819D02*
X187023286Y-70558819D01*
X187023286Y-70558819D02*
X186928048Y-70511200D01*
X186928048Y-70511200D02*
X186880429Y-70463580D01*
X171378714Y-99514819D02*
X171378714Y-98514819D01*
X171378714Y-98514819D02*
X171616809Y-98514819D01*
X171616809Y-98514819D02*
X171759666Y-98562438D01*
X171759666Y-98562438D02*
X171854904Y-98657676D01*
X171854904Y-98657676D02*
X171902523Y-98752914D01*
X171902523Y-98752914D02*
X171950142Y-98943390D01*
X171950142Y-98943390D02*
X171950142Y-99086247D01*
X171950142Y-99086247D02*
X171902523Y-99276723D01*
X171902523Y-99276723D02*
X171854904Y-99371961D01*
X171854904Y-99371961D02*
X171759666Y-99467200D01*
X171759666Y-99467200D02*
X171616809Y-99514819D01*
X171616809Y-99514819D02*
X171378714Y-99514819D01*
X172902523Y-99514819D02*
X172331095Y-99514819D01*
X172616809Y-99514819D02*
X172616809Y-98514819D01*
X172616809Y-98514819D02*
X172521571Y-98657676D01*
X172521571Y-98657676D02*
X172426333Y-98752914D01*
X172426333Y-98752914D02*
X172331095Y-98800533D01*
X173378714Y-99514819D02*
X173569190Y-99514819D01*
X173569190Y-99514819D02*
X173664428Y-99467200D01*
X173664428Y-99467200D02*
X173712047Y-99419580D01*
X173712047Y-99419580D02*
X173807285Y-99276723D01*
X173807285Y-99276723D02*
X173854904Y-99086247D01*
X173854904Y-99086247D02*
X173854904Y-98705295D01*
X173854904Y-98705295D02*
X173807285Y-98610057D01*
X173807285Y-98610057D02*
X173759666Y-98562438D01*
X173759666Y-98562438D02*
X173664428Y-98514819D01*
X173664428Y-98514819D02*
X173473952Y-98514819D01*
X173473952Y-98514819D02*
X173378714Y-98562438D01*
X173378714Y-98562438D02*
X173331095Y-98610057D01*
X173331095Y-98610057D02*
X173283476Y-98705295D01*
X173283476Y-98705295D02*
X173283476Y-98943390D01*
X173283476Y-98943390D02*
X173331095Y-99038628D01*
X173331095Y-99038628D02*
X173378714Y-99086247D01*
X173378714Y-99086247D02*
X173473952Y-99133866D01*
X173473952Y-99133866D02*
X173664428Y-99133866D01*
X173664428Y-99133866D02*
X173759666Y-99086247D01*
X173759666Y-99086247D02*
X173807285Y-99038628D01*
X173807285Y-99038628D02*
X173854904Y-98943390D01*
X178508819Y-89161857D02*
X178032628Y-89495190D01*
X178508819Y-89733285D02*
X177508819Y-89733285D01*
X177508819Y-89733285D02*
X177508819Y-89352333D01*
X177508819Y-89352333D02*
X177556438Y-89257095D01*
X177556438Y-89257095D02*
X177604057Y-89209476D01*
X177604057Y-89209476D02*
X177699295Y-89161857D01*
X177699295Y-89161857D02*
X177842152Y-89161857D01*
X177842152Y-89161857D02*
X177937390Y-89209476D01*
X177937390Y-89209476D02*
X177985009Y-89257095D01*
X177985009Y-89257095D02*
X178032628Y-89352333D01*
X178032628Y-89352333D02*
X178032628Y-89733285D01*
X177937390Y-88590428D02*
X177889771Y-88685666D01*
X177889771Y-88685666D02*
X177842152Y-88733285D01*
X177842152Y-88733285D02*
X177746914Y-88780904D01*
X177746914Y-88780904D02*
X177699295Y-88780904D01*
X177699295Y-88780904D02*
X177604057Y-88733285D01*
X177604057Y-88733285D02*
X177556438Y-88685666D01*
X177556438Y-88685666D02*
X177508819Y-88590428D01*
X177508819Y-88590428D02*
X177508819Y-88399952D01*
X177508819Y-88399952D02*
X177556438Y-88304714D01*
X177556438Y-88304714D02*
X177604057Y-88257095D01*
X177604057Y-88257095D02*
X177699295Y-88209476D01*
X177699295Y-88209476D02*
X177746914Y-88209476D01*
X177746914Y-88209476D02*
X177842152Y-88257095D01*
X177842152Y-88257095D02*
X177889771Y-88304714D01*
X177889771Y-88304714D02*
X177937390Y-88399952D01*
X177937390Y-88399952D02*
X177937390Y-88590428D01*
X177937390Y-88590428D02*
X177985009Y-88685666D01*
X177985009Y-88685666D02*
X178032628Y-88733285D01*
X178032628Y-88733285D02*
X178127866Y-88780904D01*
X178127866Y-88780904D02*
X178318342Y-88780904D01*
X178318342Y-88780904D02*
X178413580Y-88733285D01*
X178413580Y-88733285D02*
X178461200Y-88685666D01*
X178461200Y-88685666D02*
X178508819Y-88590428D01*
X178508819Y-88590428D02*
X178508819Y-88399952D01*
X178508819Y-88399952D02*
X178461200Y-88304714D01*
X178461200Y-88304714D02*
X178413580Y-88257095D01*
X178413580Y-88257095D02*
X178318342Y-88209476D01*
X178318342Y-88209476D02*
X178127866Y-88209476D01*
X178127866Y-88209476D02*
X178032628Y-88257095D01*
X178032628Y-88257095D02*
X177985009Y-88304714D01*
X177985009Y-88304714D02*
X177937390Y-88399952D01*
X177508819Y-87304714D02*
X177508819Y-87780904D01*
X177508819Y-87780904D02*
X177985009Y-87828523D01*
X177985009Y-87828523D02*
X177937390Y-87780904D01*
X177937390Y-87780904D02*
X177889771Y-87685666D01*
X177889771Y-87685666D02*
X177889771Y-87447571D01*
X177889771Y-87447571D02*
X177937390Y-87352333D01*
X177937390Y-87352333D02*
X177985009Y-87304714D01*
X177985009Y-87304714D02*
X178080247Y-87257095D01*
X178080247Y-87257095D02*
X178318342Y-87257095D01*
X178318342Y-87257095D02*
X178413580Y-87304714D01*
X178413580Y-87304714D02*
X178461200Y-87352333D01*
X178461200Y-87352333D02*
X178508819Y-87447571D01*
X178508819Y-87447571D02*
X178508819Y-87685666D01*
X178508819Y-87685666D02*
X178461200Y-87780904D01*
X178461200Y-87780904D02*
X178413580Y-87828523D01*
X129464819Y-50269523D02*
X130179104Y-50269523D01*
X130179104Y-50269523D02*
X130321961Y-50317142D01*
X130321961Y-50317142D02*
X130417200Y-50412380D01*
X130417200Y-50412380D02*
X130464819Y-50555237D01*
X130464819Y-50555237D02*
X130464819Y-50650475D01*
X130464819Y-49269523D02*
X130464819Y-49840951D01*
X130464819Y-49555237D02*
X129464819Y-49555237D01*
X129464819Y-49555237D02*
X129607676Y-49650475D01*
X129607676Y-49650475D02*
X129702914Y-49745713D01*
X129702914Y-49745713D02*
X129750533Y-49840951D01*
X130464819Y-48793332D02*
X130464819Y-48602856D01*
X130464819Y-48602856D02*
X130417200Y-48507618D01*
X130417200Y-48507618D02*
X130369580Y-48459999D01*
X130369580Y-48459999D02*
X130226723Y-48364761D01*
X130226723Y-48364761D02*
X130036247Y-48317142D01*
X130036247Y-48317142D02*
X129655295Y-48317142D01*
X129655295Y-48317142D02*
X129560057Y-48364761D01*
X129560057Y-48364761D02*
X129512438Y-48412380D01*
X129512438Y-48412380D02*
X129464819Y-48507618D01*
X129464819Y-48507618D02*
X129464819Y-48698094D01*
X129464819Y-48698094D02*
X129512438Y-48793332D01*
X129512438Y-48793332D02*
X129560057Y-48840951D01*
X129560057Y-48840951D02*
X129655295Y-48888570D01*
X129655295Y-48888570D02*
X129893390Y-48888570D01*
X129893390Y-48888570D02*
X129988628Y-48840951D01*
X129988628Y-48840951D02*
X130036247Y-48793332D01*
X130036247Y-48793332D02*
X130083866Y-48698094D01*
X130083866Y-48698094D02*
X130083866Y-48507618D01*
X130083866Y-48507618D02*
X130036247Y-48412380D01*
X130036247Y-48412380D02*
X129988628Y-48364761D01*
X129988628Y-48364761D02*
X129893390Y-48317142D01*
X163822476Y-89444319D02*
X163822476Y-88444319D01*
X163822476Y-88444319D02*
X164155809Y-89158604D01*
X164155809Y-89158604D02*
X164489142Y-88444319D01*
X164489142Y-88444319D02*
X164489142Y-89444319D01*
X165489142Y-89444319D02*
X164917714Y-89444319D01*
X165203428Y-89444319D02*
X165203428Y-88444319D01*
X165203428Y-88444319D02*
X165108190Y-88587176D01*
X165108190Y-88587176D02*
X165012952Y-88682414D01*
X165012952Y-88682414D02*
X164917714Y-88730033D01*
X137152142Y-71352580D02*
X137104523Y-71400200D01*
X137104523Y-71400200D02*
X136961666Y-71447819D01*
X136961666Y-71447819D02*
X136866428Y-71447819D01*
X136866428Y-71447819D02*
X136723571Y-71400200D01*
X136723571Y-71400200D02*
X136628333Y-71304961D01*
X136628333Y-71304961D02*
X136580714Y-71209723D01*
X136580714Y-71209723D02*
X136533095Y-71019247D01*
X136533095Y-71019247D02*
X136533095Y-70876390D01*
X136533095Y-70876390D02*
X136580714Y-70685914D01*
X136580714Y-70685914D02*
X136628333Y-70590676D01*
X136628333Y-70590676D02*
X136723571Y-70495438D01*
X136723571Y-70495438D02*
X136866428Y-70447819D01*
X136866428Y-70447819D02*
X136961666Y-70447819D01*
X136961666Y-70447819D02*
X137104523Y-70495438D01*
X137104523Y-70495438D02*
X137152142Y-70543057D01*
X137533095Y-70543057D02*
X137580714Y-70495438D01*
X137580714Y-70495438D02*
X137675952Y-70447819D01*
X137675952Y-70447819D02*
X137914047Y-70447819D01*
X137914047Y-70447819D02*
X138009285Y-70495438D01*
X138009285Y-70495438D02*
X138056904Y-70543057D01*
X138056904Y-70543057D02*
X138104523Y-70638295D01*
X138104523Y-70638295D02*
X138104523Y-70733533D01*
X138104523Y-70733533D02*
X138056904Y-70876390D01*
X138056904Y-70876390D02*
X137485476Y-71447819D01*
X137485476Y-71447819D02*
X138104523Y-71447819D01*
X138675952Y-70876390D02*
X138580714Y-70828771D01*
X138580714Y-70828771D02*
X138533095Y-70781152D01*
X138533095Y-70781152D02*
X138485476Y-70685914D01*
X138485476Y-70685914D02*
X138485476Y-70638295D01*
X138485476Y-70638295D02*
X138533095Y-70543057D01*
X138533095Y-70543057D02*
X138580714Y-70495438D01*
X138580714Y-70495438D02*
X138675952Y-70447819D01*
X138675952Y-70447819D02*
X138866428Y-70447819D01*
X138866428Y-70447819D02*
X138961666Y-70495438D01*
X138961666Y-70495438D02*
X139009285Y-70543057D01*
X139009285Y-70543057D02*
X139056904Y-70638295D01*
X139056904Y-70638295D02*
X139056904Y-70685914D01*
X139056904Y-70685914D02*
X139009285Y-70781152D01*
X139009285Y-70781152D02*
X138961666Y-70828771D01*
X138961666Y-70828771D02*
X138866428Y-70876390D01*
X138866428Y-70876390D02*
X138675952Y-70876390D01*
X138675952Y-70876390D02*
X138580714Y-70924009D01*
X138580714Y-70924009D02*
X138533095Y-70971628D01*
X138533095Y-70971628D02*
X138485476Y-71066866D01*
X138485476Y-71066866D02*
X138485476Y-71257342D01*
X138485476Y-71257342D02*
X138533095Y-71352580D01*
X138533095Y-71352580D02*
X138580714Y-71400200D01*
X138580714Y-71400200D02*
X138675952Y-71447819D01*
X138675952Y-71447819D02*
X138866428Y-71447819D01*
X138866428Y-71447819D02*
X138961666Y-71400200D01*
X138961666Y-71400200D02*
X139009285Y-71352580D01*
X139009285Y-71352580D02*
X139056904Y-71257342D01*
X139056904Y-71257342D02*
X139056904Y-71066866D01*
X139056904Y-71066866D02*
X139009285Y-70971628D01*
X139009285Y-70971628D02*
X138961666Y-70924009D01*
X138961666Y-70924009D02*
X138866428Y-70876390D01*
X108029476Y-92037819D02*
X108029476Y-92752104D01*
X108029476Y-92752104D02*
X107981857Y-92894961D01*
X107981857Y-92894961D02*
X107886619Y-92990200D01*
X107886619Y-92990200D02*
X107743762Y-93037819D01*
X107743762Y-93037819D02*
X107648524Y-93037819D01*
X109029476Y-93037819D02*
X108458048Y-93037819D01*
X108743762Y-93037819D02*
X108743762Y-92037819D01*
X108743762Y-92037819D02*
X108648524Y-92180676D01*
X108648524Y-92180676D02*
X108553286Y-92275914D01*
X108553286Y-92275914D02*
X108458048Y-92323533D01*
X109648524Y-92037819D02*
X109743762Y-92037819D01*
X109743762Y-92037819D02*
X109839000Y-92085438D01*
X109839000Y-92085438D02*
X109886619Y-92133057D01*
X109886619Y-92133057D02*
X109934238Y-92228295D01*
X109934238Y-92228295D02*
X109981857Y-92418771D01*
X109981857Y-92418771D02*
X109981857Y-92656866D01*
X109981857Y-92656866D02*
X109934238Y-92847342D01*
X109934238Y-92847342D02*
X109886619Y-92942580D01*
X109886619Y-92942580D02*
X109839000Y-92990200D01*
X109839000Y-92990200D02*
X109743762Y-93037819D01*
X109743762Y-93037819D02*
X109648524Y-93037819D01*
X109648524Y-93037819D02*
X109553286Y-92990200D01*
X109553286Y-92990200D02*
X109505667Y-92942580D01*
X109505667Y-92942580D02*
X109458048Y-92847342D01*
X109458048Y-92847342D02*
X109410429Y-92656866D01*
X109410429Y-92656866D02*
X109410429Y-92418771D01*
X109410429Y-92418771D02*
X109458048Y-92228295D01*
X109458048Y-92228295D02*
X109505667Y-92133057D01*
X109505667Y-92133057D02*
X109553286Y-92085438D01*
X109553286Y-92085438D02*
X109648524Y-92037819D01*
X156332819Y-79295523D02*
X157047104Y-79295523D01*
X157047104Y-79295523D02*
X157189961Y-79343142D01*
X157189961Y-79343142D02*
X157285200Y-79438380D01*
X157285200Y-79438380D02*
X157332819Y-79581237D01*
X157332819Y-79581237D02*
X157332819Y-79676475D01*
X157332819Y-78295523D02*
X157332819Y-78866951D01*
X157332819Y-78581237D02*
X156332819Y-78581237D01*
X156332819Y-78581237D02*
X156475676Y-78676475D01*
X156475676Y-78676475D02*
X156570914Y-78771713D01*
X156570914Y-78771713D02*
X156618533Y-78866951D01*
X156332819Y-77962189D02*
X156332819Y-77295523D01*
X156332819Y-77295523D02*
X157332819Y-77724094D01*
X129633333Y-87054819D02*
X129157143Y-87054819D01*
X129157143Y-87054819D02*
X129157143Y-86054819D01*
X130490476Y-87054819D02*
X129919048Y-87054819D01*
X130204762Y-87054819D02*
X130204762Y-86054819D01*
X130204762Y-86054819D02*
X130109524Y-86197676D01*
X130109524Y-86197676D02*
X130014286Y-86292914D01*
X130014286Y-86292914D02*
X129919048Y-86340533D01*
X147391580Y-94114857D02*
X147439200Y-94162476D01*
X147439200Y-94162476D02*
X147486819Y-94305333D01*
X147486819Y-94305333D02*
X147486819Y-94400571D01*
X147486819Y-94400571D02*
X147439200Y-94543428D01*
X147439200Y-94543428D02*
X147343961Y-94638666D01*
X147343961Y-94638666D02*
X147248723Y-94686285D01*
X147248723Y-94686285D02*
X147058247Y-94733904D01*
X147058247Y-94733904D02*
X146915390Y-94733904D01*
X146915390Y-94733904D02*
X146724914Y-94686285D01*
X146724914Y-94686285D02*
X146629676Y-94638666D01*
X146629676Y-94638666D02*
X146534438Y-94543428D01*
X146534438Y-94543428D02*
X146486819Y-94400571D01*
X146486819Y-94400571D02*
X146486819Y-94305333D01*
X146486819Y-94305333D02*
X146534438Y-94162476D01*
X146534438Y-94162476D02*
X146582057Y-94114857D01*
X146582057Y-93733904D02*
X146534438Y-93686285D01*
X146534438Y-93686285D02*
X146486819Y-93591047D01*
X146486819Y-93591047D02*
X146486819Y-93352952D01*
X146486819Y-93352952D02*
X146534438Y-93257714D01*
X146534438Y-93257714D02*
X146582057Y-93210095D01*
X146582057Y-93210095D02*
X146677295Y-93162476D01*
X146677295Y-93162476D02*
X146772533Y-93162476D01*
X146772533Y-93162476D02*
X146915390Y-93210095D01*
X146915390Y-93210095D02*
X147486819Y-93781523D01*
X147486819Y-93781523D02*
X147486819Y-93162476D01*
X146820152Y-92305333D02*
X147486819Y-92305333D01*
X146439200Y-92543428D02*
X147153485Y-92781523D01*
X147153485Y-92781523D02*
X147153485Y-92162476D01*
X180893095Y-38443819D02*
X180893095Y-39253342D01*
X180893095Y-39253342D02*
X180940714Y-39348580D01*
X180940714Y-39348580D02*
X180988333Y-39396200D01*
X180988333Y-39396200D02*
X181083571Y-39443819D01*
X181083571Y-39443819D02*
X181274047Y-39443819D01*
X181274047Y-39443819D02*
X181369285Y-39396200D01*
X181369285Y-39396200D02*
X181416904Y-39348580D01*
X181416904Y-39348580D02*
X181464523Y-39253342D01*
X181464523Y-39253342D02*
X181464523Y-38443819D01*
X181845476Y-38443819D02*
X182464523Y-38443819D01*
X182464523Y-38443819D02*
X182131190Y-38824771D01*
X182131190Y-38824771D02*
X182274047Y-38824771D01*
X182274047Y-38824771D02*
X182369285Y-38872390D01*
X182369285Y-38872390D02*
X182416904Y-38920009D01*
X182416904Y-38920009D02*
X182464523Y-39015247D01*
X182464523Y-39015247D02*
X182464523Y-39253342D01*
X182464523Y-39253342D02*
X182416904Y-39348580D01*
X182416904Y-39348580D02*
X182369285Y-39396200D01*
X182369285Y-39396200D02*
X182274047Y-39443819D01*
X182274047Y-39443819D02*
X181988333Y-39443819D01*
X181988333Y-39443819D02*
X181893095Y-39396200D01*
X181893095Y-39396200D02*
X181845476Y-39348580D01*
X186134476Y-87465819D02*
X186134476Y-88180104D01*
X186134476Y-88180104D02*
X186086857Y-88322961D01*
X186086857Y-88322961D02*
X185991619Y-88418200D01*
X185991619Y-88418200D02*
X185848762Y-88465819D01*
X185848762Y-88465819D02*
X185753524Y-88465819D01*
X187134476Y-88465819D02*
X186563048Y-88465819D01*
X186848762Y-88465819D02*
X186848762Y-87465819D01*
X186848762Y-87465819D02*
X186753524Y-87608676D01*
X186753524Y-87608676D02*
X186658286Y-87703914D01*
X186658286Y-87703914D02*
X186563048Y-87751533D01*
X187991619Y-87799152D02*
X187991619Y-88465819D01*
X187753524Y-87418200D02*
X187515429Y-88132485D01*
X187515429Y-88132485D02*
X188134476Y-88132485D01*
X154678142Y-39570819D02*
X154344809Y-39094628D01*
X154106714Y-39570819D02*
X154106714Y-38570819D01*
X154106714Y-38570819D02*
X154487666Y-38570819D01*
X154487666Y-38570819D02*
X154582904Y-38618438D01*
X154582904Y-38618438D02*
X154630523Y-38666057D01*
X154630523Y-38666057D02*
X154678142Y-38761295D01*
X154678142Y-38761295D02*
X154678142Y-38904152D01*
X154678142Y-38904152D02*
X154630523Y-38999390D01*
X154630523Y-38999390D02*
X154582904Y-39047009D01*
X154582904Y-39047009D02*
X154487666Y-39094628D01*
X154487666Y-39094628D02*
X154106714Y-39094628D01*
X155011476Y-38570819D02*
X155678142Y-38570819D01*
X155678142Y-38570819D02*
X155249571Y-39570819D01*
X156487666Y-38570819D02*
X156297190Y-38570819D01*
X156297190Y-38570819D02*
X156201952Y-38618438D01*
X156201952Y-38618438D02*
X156154333Y-38666057D01*
X156154333Y-38666057D02*
X156059095Y-38808914D01*
X156059095Y-38808914D02*
X156011476Y-38999390D01*
X156011476Y-38999390D02*
X156011476Y-39380342D01*
X156011476Y-39380342D02*
X156059095Y-39475580D01*
X156059095Y-39475580D02*
X156106714Y-39523200D01*
X156106714Y-39523200D02*
X156201952Y-39570819D01*
X156201952Y-39570819D02*
X156392428Y-39570819D01*
X156392428Y-39570819D02*
X156487666Y-39523200D01*
X156487666Y-39523200D02*
X156535285Y-39475580D01*
X156535285Y-39475580D02*
X156582904Y-39380342D01*
X156582904Y-39380342D02*
X156582904Y-39142247D01*
X156582904Y-39142247D02*
X156535285Y-39047009D01*
X156535285Y-39047009D02*
X156487666Y-38999390D01*
X156487666Y-38999390D02*
X156392428Y-38951771D01*
X156392428Y-38951771D02*
X156201952Y-38951771D01*
X156201952Y-38951771D02*
X156106714Y-38999390D01*
X156106714Y-38999390D02*
X156059095Y-39047009D01*
X156059095Y-39047009D02*
X156011476Y-39142247D01*
X174190819Y-89161857D02*
X173714628Y-89495190D01*
X174190819Y-89733285D02*
X173190819Y-89733285D01*
X173190819Y-89733285D02*
X173190819Y-89352333D01*
X173190819Y-89352333D02*
X173238438Y-89257095D01*
X173238438Y-89257095D02*
X173286057Y-89209476D01*
X173286057Y-89209476D02*
X173381295Y-89161857D01*
X173381295Y-89161857D02*
X173524152Y-89161857D01*
X173524152Y-89161857D02*
X173619390Y-89209476D01*
X173619390Y-89209476D02*
X173667009Y-89257095D01*
X173667009Y-89257095D02*
X173714628Y-89352333D01*
X173714628Y-89352333D02*
X173714628Y-89733285D01*
X173190819Y-88257095D02*
X173190819Y-88733285D01*
X173190819Y-88733285D02*
X173667009Y-88780904D01*
X173667009Y-88780904D02*
X173619390Y-88733285D01*
X173619390Y-88733285D02*
X173571771Y-88638047D01*
X173571771Y-88638047D02*
X173571771Y-88399952D01*
X173571771Y-88399952D02*
X173619390Y-88304714D01*
X173619390Y-88304714D02*
X173667009Y-88257095D01*
X173667009Y-88257095D02*
X173762247Y-88209476D01*
X173762247Y-88209476D02*
X174000342Y-88209476D01*
X174000342Y-88209476D02*
X174095580Y-88257095D01*
X174095580Y-88257095D02*
X174143200Y-88304714D01*
X174143200Y-88304714D02*
X174190819Y-88399952D01*
X174190819Y-88399952D02*
X174190819Y-88638047D01*
X174190819Y-88638047D02*
X174143200Y-88733285D01*
X174143200Y-88733285D02*
X174095580Y-88780904D01*
X173190819Y-87876142D02*
X173190819Y-87209476D01*
X173190819Y-87209476D02*
X174190819Y-87638047D01*
X153923343Y-59121160D02*
X153350923Y-59693580D01*
X153350923Y-59693580D02*
X153317251Y-59794595D01*
X153317251Y-59794595D02*
X153317251Y-59861939D01*
X153317251Y-59861939D02*
X153350923Y-59962954D01*
X153350923Y-59962954D02*
X153485610Y-60097641D01*
X153485610Y-60097641D02*
X153586625Y-60131313D01*
X153586625Y-60131313D02*
X153653969Y-60131313D01*
X153653969Y-60131313D02*
X153754984Y-60097641D01*
X153754984Y-60097641D02*
X154327404Y-59525221D01*
X154327404Y-60939435D02*
X153923343Y-60535374D01*
X154125373Y-60737404D02*
X154832480Y-60030298D01*
X154832480Y-60030298D02*
X154664121Y-60063969D01*
X154664121Y-60063969D02*
X154529434Y-60063969D01*
X154529434Y-60063969D02*
X154428419Y-60030298D01*
X127105580Y-58300857D02*
X127153200Y-58348476D01*
X127153200Y-58348476D02*
X127200819Y-58491333D01*
X127200819Y-58491333D02*
X127200819Y-58586571D01*
X127200819Y-58586571D02*
X127153200Y-58729428D01*
X127153200Y-58729428D02*
X127057961Y-58824666D01*
X127057961Y-58824666D02*
X126962723Y-58872285D01*
X126962723Y-58872285D02*
X126772247Y-58919904D01*
X126772247Y-58919904D02*
X126629390Y-58919904D01*
X126629390Y-58919904D02*
X126438914Y-58872285D01*
X126438914Y-58872285D02*
X126343676Y-58824666D01*
X126343676Y-58824666D02*
X126248438Y-58729428D01*
X126248438Y-58729428D02*
X126200819Y-58586571D01*
X126200819Y-58586571D02*
X126200819Y-58491333D01*
X126200819Y-58491333D02*
X126248438Y-58348476D01*
X126248438Y-58348476D02*
X126296057Y-58300857D01*
X126296057Y-57919904D02*
X126248438Y-57872285D01*
X126248438Y-57872285D02*
X126200819Y-57777047D01*
X126200819Y-57777047D02*
X126200819Y-57538952D01*
X126200819Y-57538952D02*
X126248438Y-57443714D01*
X126248438Y-57443714D02*
X126296057Y-57396095D01*
X126296057Y-57396095D02*
X126391295Y-57348476D01*
X126391295Y-57348476D02*
X126486533Y-57348476D01*
X126486533Y-57348476D02*
X126629390Y-57396095D01*
X126629390Y-57396095D02*
X127200819Y-57967523D01*
X127200819Y-57967523D02*
X127200819Y-57348476D01*
X126200819Y-57015142D02*
X126200819Y-56348476D01*
X126200819Y-56348476D02*
X127200819Y-56777047D01*
X107188095Y-98879819D02*
X107188095Y-97879819D01*
X107188095Y-98356009D02*
X107759523Y-98356009D01*
X107759523Y-98879819D02*
X107759523Y-97879819D01*
X108188095Y-97975057D02*
X108235714Y-97927438D01*
X108235714Y-97927438D02*
X108330952Y-97879819D01*
X108330952Y-97879819D02*
X108569047Y-97879819D01*
X108569047Y-97879819D02*
X108664285Y-97927438D01*
X108664285Y-97927438D02*
X108711904Y-97975057D01*
X108711904Y-97975057D02*
X108759523Y-98070295D01*
X108759523Y-98070295D02*
X108759523Y-98165533D01*
X108759523Y-98165533D02*
X108711904Y-98308390D01*
X108711904Y-98308390D02*
X108140476Y-98879819D01*
X108140476Y-98879819D02*
X108759523Y-98879819D01*
X175315714Y-99401819D02*
X175315714Y-98401819D01*
X175315714Y-98401819D02*
X175553809Y-98401819D01*
X175553809Y-98401819D02*
X175696666Y-98449438D01*
X175696666Y-98449438D02*
X175791904Y-98544676D01*
X175791904Y-98544676D02*
X175839523Y-98639914D01*
X175839523Y-98639914D02*
X175887142Y-98830390D01*
X175887142Y-98830390D02*
X175887142Y-98973247D01*
X175887142Y-98973247D02*
X175839523Y-99163723D01*
X175839523Y-99163723D02*
X175791904Y-99258961D01*
X175791904Y-99258961D02*
X175696666Y-99354200D01*
X175696666Y-99354200D02*
X175553809Y-99401819D01*
X175553809Y-99401819D02*
X175315714Y-99401819D01*
X176268095Y-98497057D02*
X176315714Y-98449438D01*
X176315714Y-98449438D02*
X176410952Y-98401819D01*
X176410952Y-98401819D02*
X176649047Y-98401819D01*
X176649047Y-98401819D02*
X176744285Y-98449438D01*
X176744285Y-98449438D02*
X176791904Y-98497057D01*
X176791904Y-98497057D02*
X176839523Y-98592295D01*
X176839523Y-98592295D02*
X176839523Y-98687533D01*
X176839523Y-98687533D02*
X176791904Y-98830390D01*
X176791904Y-98830390D02*
X176220476Y-99401819D01*
X176220476Y-99401819D02*
X176839523Y-99401819D01*
X177791904Y-99401819D02*
X177220476Y-99401819D01*
X177506190Y-99401819D02*
X177506190Y-98401819D01*
X177506190Y-98401819D02*
X177410952Y-98544676D01*
X177410952Y-98544676D02*
X177315714Y-98639914D01*
X177315714Y-98639914D02*
X177220476Y-98687533D01*
X143824819Y-85042857D02*
X143348628Y-85376190D01*
X143824819Y-85614285D02*
X142824819Y-85614285D01*
X142824819Y-85614285D02*
X142824819Y-85233333D01*
X142824819Y-85233333D02*
X142872438Y-85138095D01*
X142872438Y-85138095D02*
X142920057Y-85090476D01*
X142920057Y-85090476D02*
X143015295Y-85042857D01*
X143015295Y-85042857D02*
X143158152Y-85042857D01*
X143158152Y-85042857D02*
X143253390Y-85090476D01*
X143253390Y-85090476D02*
X143301009Y-85138095D01*
X143301009Y-85138095D02*
X143348628Y-85233333D01*
X143348628Y-85233333D02*
X143348628Y-85614285D01*
X143824819Y-84090476D02*
X143824819Y-84661904D01*
X143824819Y-84376190D02*
X142824819Y-84376190D01*
X142824819Y-84376190D02*
X142967676Y-84471428D01*
X142967676Y-84471428D02*
X143062914Y-84566666D01*
X143062914Y-84566666D02*
X143110533Y-84661904D01*
X143824819Y-83614285D02*
X143824819Y-83423809D01*
X143824819Y-83423809D02*
X143777200Y-83328571D01*
X143777200Y-83328571D02*
X143729580Y-83280952D01*
X143729580Y-83280952D02*
X143586723Y-83185714D01*
X143586723Y-83185714D02*
X143396247Y-83138095D01*
X143396247Y-83138095D02*
X143015295Y-83138095D01*
X143015295Y-83138095D02*
X142920057Y-83185714D01*
X142920057Y-83185714D02*
X142872438Y-83233333D01*
X142872438Y-83233333D02*
X142824819Y-83328571D01*
X142824819Y-83328571D02*
X142824819Y-83519047D01*
X142824819Y-83519047D02*
X142872438Y-83614285D01*
X142872438Y-83614285D02*
X142920057Y-83661904D01*
X142920057Y-83661904D02*
X143015295Y-83709523D01*
X143015295Y-83709523D02*
X143253390Y-83709523D01*
X143253390Y-83709523D02*
X143348628Y-83661904D01*
X143348628Y-83661904D02*
X143396247Y-83614285D01*
X143396247Y-83614285D02*
X143443866Y-83519047D01*
X143443866Y-83519047D02*
X143443866Y-83328571D01*
X143443866Y-83328571D02*
X143396247Y-83233333D01*
X143396247Y-83233333D02*
X143348628Y-83185714D01*
X143348628Y-83185714D02*
X143253390Y-83138095D01*
X176222819Y-89161857D02*
X175746628Y-89495190D01*
X176222819Y-89733285D02*
X175222819Y-89733285D01*
X175222819Y-89733285D02*
X175222819Y-89352333D01*
X175222819Y-89352333D02*
X175270438Y-89257095D01*
X175270438Y-89257095D02*
X175318057Y-89209476D01*
X175318057Y-89209476D02*
X175413295Y-89161857D01*
X175413295Y-89161857D02*
X175556152Y-89161857D01*
X175556152Y-89161857D02*
X175651390Y-89209476D01*
X175651390Y-89209476D02*
X175699009Y-89257095D01*
X175699009Y-89257095D02*
X175746628Y-89352333D01*
X175746628Y-89352333D02*
X175746628Y-89733285D01*
X175222819Y-88257095D02*
X175222819Y-88733285D01*
X175222819Y-88733285D02*
X175699009Y-88780904D01*
X175699009Y-88780904D02*
X175651390Y-88733285D01*
X175651390Y-88733285D02*
X175603771Y-88638047D01*
X175603771Y-88638047D02*
X175603771Y-88399952D01*
X175603771Y-88399952D02*
X175651390Y-88304714D01*
X175651390Y-88304714D02*
X175699009Y-88257095D01*
X175699009Y-88257095D02*
X175794247Y-88209476D01*
X175794247Y-88209476D02*
X176032342Y-88209476D01*
X176032342Y-88209476D02*
X176127580Y-88257095D01*
X176127580Y-88257095D02*
X176175200Y-88304714D01*
X176175200Y-88304714D02*
X176222819Y-88399952D01*
X176222819Y-88399952D02*
X176222819Y-88638047D01*
X176222819Y-88638047D02*
X176175200Y-88733285D01*
X176175200Y-88733285D02*
X176127580Y-88780904D01*
X175651390Y-87638047D02*
X175603771Y-87733285D01*
X175603771Y-87733285D02*
X175556152Y-87780904D01*
X175556152Y-87780904D02*
X175460914Y-87828523D01*
X175460914Y-87828523D02*
X175413295Y-87828523D01*
X175413295Y-87828523D02*
X175318057Y-87780904D01*
X175318057Y-87780904D02*
X175270438Y-87733285D01*
X175270438Y-87733285D02*
X175222819Y-87638047D01*
X175222819Y-87638047D02*
X175222819Y-87447571D01*
X175222819Y-87447571D02*
X175270438Y-87352333D01*
X175270438Y-87352333D02*
X175318057Y-87304714D01*
X175318057Y-87304714D02*
X175413295Y-87257095D01*
X175413295Y-87257095D02*
X175460914Y-87257095D01*
X175460914Y-87257095D02*
X175556152Y-87304714D01*
X175556152Y-87304714D02*
X175603771Y-87352333D01*
X175603771Y-87352333D02*
X175651390Y-87447571D01*
X175651390Y-87447571D02*
X175651390Y-87638047D01*
X175651390Y-87638047D02*
X175699009Y-87733285D01*
X175699009Y-87733285D02*
X175746628Y-87780904D01*
X175746628Y-87780904D02*
X175841866Y-87828523D01*
X175841866Y-87828523D02*
X176032342Y-87828523D01*
X176032342Y-87828523D02*
X176127580Y-87780904D01*
X176127580Y-87780904D02*
X176175200Y-87733285D01*
X176175200Y-87733285D02*
X176222819Y-87638047D01*
X176222819Y-87638047D02*
X176222819Y-87447571D01*
X176222819Y-87447571D02*
X176175200Y-87352333D01*
X176175200Y-87352333D02*
X176127580Y-87304714D01*
X176127580Y-87304714D02*
X176032342Y-87257095D01*
X176032342Y-87257095D02*
X175841866Y-87257095D01*
X175841866Y-87257095D02*
X175746628Y-87304714D01*
X175746628Y-87304714D02*
X175699009Y-87352333D01*
X175699009Y-87352333D02*
X175651390Y-87447571D01*
X179376476Y-46444819D02*
X179376476Y-47159104D01*
X179376476Y-47159104D02*
X179328857Y-47301961D01*
X179328857Y-47301961D02*
X179233619Y-47397200D01*
X179233619Y-47397200D02*
X179090762Y-47444819D01*
X179090762Y-47444819D02*
X178995524Y-47444819D01*
X180376476Y-47444819D02*
X179805048Y-47444819D01*
X180090762Y-47444819D02*
X180090762Y-46444819D01*
X180090762Y-46444819D02*
X179995524Y-46587676D01*
X179995524Y-46587676D02*
X179900286Y-46682914D01*
X179900286Y-46682914D02*
X179805048Y-46730533D01*
X181233619Y-46444819D02*
X181043143Y-46444819D01*
X181043143Y-46444819D02*
X180947905Y-46492438D01*
X180947905Y-46492438D02*
X180900286Y-46540057D01*
X180900286Y-46540057D02*
X180805048Y-46682914D01*
X180805048Y-46682914D02*
X180757429Y-46873390D01*
X180757429Y-46873390D02*
X180757429Y-47254342D01*
X180757429Y-47254342D02*
X180805048Y-47349580D01*
X180805048Y-47349580D02*
X180852667Y-47397200D01*
X180852667Y-47397200D02*
X180947905Y-47444819D01*
X180947905Y-47444819D02*
X181138381Y-47444819D01*
X181138381Y-47444819D02*
X181233619Y-47397200D01*
X181233619Y-47397200D02*
X181281238Y-47349580D01*
X181281238Y-47349580D02*
X181328857Y-47254342D01*
X181328857Y-47254342D02*
X181328857Y-47016247D01*
X181328857Y-47016247D02*
X181281238Y-46921009D01*
X181281238Y-46921009D02*
X181233619Y-46873390D01*
X181233619Y-46873390D02*
X181138381Y-46825771D01*
X181138381Y-46825771D02*
X180947905Y-46825771D01*
X180947905Y-46825771D02*
X180852667Y-46873390D01*
X180852667Y-46873390D02*
X180805048Y-46921009D01*
X180805048Y-46921009D02*
X180757429Y-47016247D01*
X184899992Y-57203987D02*
X184899992Y-57918272D01*
X184899992Y-57918272D02*
X184852373Y-58061129D01*
X184852373Y-58061129D02*
X184757135Y-58156368D01*
X184757135Y-58156368D02*
X184614278Y-58203987D01*
X184614278Y-58203987D02*
X184519040Y-58203987D01*
X185376183Y-58203987D02*
X185376183Y-57203987D01*
X185376183Y-57203987D02*
X185757135Y-57203987D01*
X185757135Y-57203987D02*
X185852373Y-57251606D01*
X185852373Y-57251606D02*
X185899992Y-57299225D01*
X185899992Y-57299225D02*
X185947611Y-57394463D01*
X185947611Y-57394463D02*
X185947611Y-57537320D01*
X185947611Y-57537320D02*
X185899992Y-57632558D01*
X185899992Y-57632558D02*
X185852373Y-57680177D01*
X185852373Y-57680177D02*
X185757135Y-57727796D01*
X185757135Y-57727796D02*
X185376183Y-57727796D01*
X186899992Y-58203987D02*
X186328564Y-58203987D01*
X186614278Y-58203987D02*
X186614278Y-57203987D01*
X186614278Y-57203987D02*
X186519040Y-57346844D01*
X186519040Y-57346844D02*
X186423802Y-57442082D01*
X186423802Y-57442082D02*
X186328564Y-57489701D01*
X123009819Y-59856666D02*
X123009819Y-60332856D01*
X123009819Y-60332856D02*
X122009819Y-60332856D01*
X122105057Y-59570951D02*
X122057438Y-59523332D01*
X122057438Y-59523332D02*
X122009819Y-59428094D01*
X122009819Y-59428094D02*
X122009819Y-59189999D01*
X122009819Y-59189999D02*
X122057438Y-59094761D01*
X122057438Y-59094761D02*
X122105057Y-59047142D01*
X122105057Y-59047142D02*
X122200295Y-58999523D01*
X122200295Y-58999523D02*
X122295533Y-58999523D01*
X122295533Y-58999523D02*
X122438390Y-59047142D01*
X122438390Y-59047142D02*
X123009819Y-59618570D01*
X123009819Y-59618570D02*
X123009819Y-58999523D01*
X156093819Y-75231523D02*
X156808104Y-75231523D01*
X156808104Y-75231523D02*
X156950961Y-75279142D01*
X156950961Y-75279142D02*
X157046200Y-75374380D01*
X157046200Y-75374380D02*
X157093819Y-75517237D01*
X157093819Y-75517237D02*
X157093819Y-75612475D01*
X157093819Y-74231523D02*
X157093819Y-74802951D01*
X157093819Y-74517237D02*
X156093819Y-74517237D01*
X156093819Y-74517237D02*
X156236676Y-74612475D01*
X156236676Y-74612475D02*
X156331914Y-74707713D01*
X156331914Y-74707713D02*
X156379533Y-74802951D01*
X156522390Y-73660094D02*
X156474771Y-73755332D01*
X156474771Y-73755332D02*
X156427152Y-73802951D01*
X156427152Y-73802951D02*
X156331914Y-73850570D01*
X156331914Y-73850570D02*
X156284295Y-73850570D01*
X156284295Y-73850570D02*
X156189057Y-73802951D01*
X156189057Y-73802951D02*
X156141438Y-73755332D01*
X156141438Y-73755332D02*
X156093819Y-73660094D01*
X156093819Y-73660094D02*
X156093819Y-73469618D01*
X156093819Y-73469618D02*
X156141438Y-73374380D01*
X156141438Y-73374380D02*
X156189057Y-73326761D01*
X156189057Y-73326761D02*
X156284295Y-73279142D01*
X156284295Y-73279142D02*
X156331914Y-73279142D01*
X156331914Y-73279142D02*
X156427152Y-73326761D01*
X156427152Y-73326761D02*
X156474771Y-73374380D01*
X156474771Y-73374380D02*
X156522390Y-73469618D01*
X156522390Y-73469618D02*
X156522390Y-73660094D01*
X156522390Y-73660094D02*
X156570009Y-73755332D01*
X156570009Y-73755332D02*
X156617628Y-73802951D01*
X156617628Y-73802951D02*
X156712866Y-73850570D01*
X156712866Y-73850570D02*
X156903342Y-73850570D01*
X156903342Y-73850570D02*
X156998580Y-73802951D01*
X156998580Y-73802951D02*
X157046200Y-73755332D01*
X157046200Y-73755332D02*
X157093819Y-73660094D01*
X157093819Y-73660094D02*
X157093819Y-73469618D01*
X157093819Y-73469618D02*
X157046200Y-73374380D01*
X157046200Y-73374380D02*
X156998580Y-73326761D01*
X156998580Y-73326761D02*
X156903342Y-73279142D01*
X156903342Y-73279142D02*
X156712866Y-73279142D01*
X156712866Y-73279142D02*
X156617628Y-73326761D01*
X156617628Y-73326761D02*
X156570009Y-73374380D01*
X156570009Y-73374380D02*
X156522390Y-73469618D01*
X158869142Y-39443819D02*
X158535809Y-38967628D01*
X158297714Y-39443819D02*
X158297714Y-38443819D01*
X158297714Y-38443819D02*
X158678666Y-38443819D01*
X158678666Y-38443819D02*
X158773904Y-38491438D01*
X158773904Y-38491438D02*
X158821523Y-38539057D01*
X158821523Y-38539057D02*
X158869142Y-38634295D01*
X158869142Y-38634295D02*
X158869142Y-38777152D01*
X158869142Y-38777152D02*
X158821523Y-38872390D01*
X158821523Y-38872390D02*
X158773904Y-38920009D01*
X158773904Y-38920009D02*
X158678666Y-38967628D01*
X158678666Y-38967628D02*
X158297714Y-38967628D01*
X159202476Y-38443819D02*
X159869142Y-38443819D01*
X159869142Y-38443819D02*
X159440571Y-39443819D01*
X160154857Y-38443819D02*
X160821523Y-38443819D01*
X160821523Y-38443819D02*
X160392952Y-39443819D01*
D13*
%TO.C,SW1*%
X164540000Y-65548000D02*
X164540000Y-61048000D01*
X162040000Y-59798000D02*
X160540000Y-59798000D01*
X160540000Y-66798000D02*
X162040000Y-66798000D01*
X158040000Y-61048000D02*
X158040000Y-65548000D01*
%TO.C,SW2*%
X108726000Y-59737574D02*
X108726000Y-68337574D01*
X104126000Y-66037574D02*
X104126000Y-68337574D01*
X104126000Y-59737574D02*
X104126000Y-61937574D01*
%TO.C,L3*%
X125176613Y-66714355D02*
X128276613Y-66714355D01*
X125176613Y-77934355D02*
X125176613Y-66714355D01*
X128276613Y-77934355D02*
X125176613Y-77934355D01*
X132796613Y-66714355D02*
X135896613Y-66714355D01*
X135896613Y-66714355D02*
X135896613Y-77934355D01*
X135896613Y-77934355D02*
X132796613Y-77934355D01*
%TO.C,J2*%
X181568000Y-59010000D02*
X182843000Y-59010000D01*
X182843000Y-58945000D02*
X182843000Y-59010000D01*
X182843000Y-58945000D02*
X186473000Y-58945000D01*
X182843000Y-67990000D02*
X182843000Y-68055000D01*
X182843000Y-68055000D02*
X186473000Y-68055000D01*
X186473000Y-58945000D02*
X186473000Y-59010000D01*
X186473000Y-67990000D02*
X186473000Y-68055000D01*
%TO.C,D26*%
X177573000Y-94860000D02*
X177573000Y-97320000D01*
X179043000Y-94860000D02*
X177573000Y-94860000D01*
X179043000Y-97320000D02*
X179043000Y-94860000D01*
%TO.C,R84*%
X179605000Y-91921064D02*
X179605000Y-91466936D01*
X181075000Y-91921064D02*
X181075000Y-91466936D01*
D14*
%TO.C,U7*%
X112477049Y-82816123D02*
X117277049Y-82816123D01*
X112477049Y-97616123D02*
X112477049Y-82816123D01*
D11*
X114877049Y-82266123D02*
X114877049Y-82266123D01*
X114877049Y-82366123D02*
X114877049Y-82366123D01*
D14*
X117277049Y-82816123D02*
X117277049Y-97616123D01*
X117277049Y-97616123D02*
X112477049Y-97616123D01*
D11*
X114877049Y-82266123D02*
G75*
G02*
X114877049Y-82366123I0J-50000D01*
G01*
X114877049Y-82366123D02*
G75*
G02*
X114877049Y-82266123I0J50000D01*
G01*
D13*
%TO.C,J13*%
X166478000Y-82074000D02*
X166478000Y-86074000D01*
X166768000Y-81044000D02*
X166768000Y-87064000D01*
X166768000Y-87064000D02*
X177148000Y-87064000D01*
X167348000Y-81044000D02*
X167348000Y-81644000D01*
X167348000Y-81644000D02*
X168948000Y-81644000D01*
X168148000Y-86064000D02*
X168398000Y-85534000D01*
X168148000Y-86064000D02*
X175768000Y-86064000D01*
X168148000Y-87064000D02*
X168148000Y-86064000D01*
X168398000Y-85534000D02*
X175518000Y-85534000D01*
X168398000Y-87064000D02*
X168398000Y-86064000D01*
X168948000Y-81644000D02*
X168948000Y-81044000D01*
X169888000Y-81044000D02*
X169888000Y-81644000D01*
X169888000Y-81644000D02*
X171488000Y-81644000D01*
X171488000Y-81644000D02*
X171488000Y-81044000D01*
X172428000Y-81044000D02*
X172428000Y-81644000D01*
X172428000Y-81644000D02*
X174028000Y-81644000D01*
X174028000Y-81644000D02*
X174028000Y-81044000D01*
X174968000Y-81044000D02*
X174968000Y-81644000D01*
X174968000Y-81644000D02*
X176568000Y-81644000D01*
X175518000Y-85534000D02*
X175768000Y-86064000D01*
X175518000Y-87064000D02*
X175518000Y-86064000D01*
X175768000Y-86064000D02*
X175768000Y-87064000D01*
X176568000Y-81644000D02*
X176568000Y-81044000D01*
X177148000Y-81044000D02*
X166768000Y-81044000D01*
X177148000Y-87064000D02*
X177148000Y-81044000D01*
%TO.C,M2*%
X147828000Y-89860000D02*
X158068000Y-89860000D01*
X147828000Y-97480000D02*
X158068000Y-97480000D01*
X147828000Y-98580000D02*
X158068000Y-98580000D01*
X147828000Y-99100000D02*
X147828000Y-89860000D01*
X150148000Y-99100000D02*
X147828000Y-99100000D01*
X158068000Y-89860000D02*
X158068000Y-99100000D01*
X158068000Y-99100000D02*
X150748000Y-99100000D01*
X150888000Y-99710000D02*
X150008000Y-99710000D01*
X150448000Y-99100000D01*
X150888000Y-99710000D01*
G36*
X150888000Y-99710000D02*
G01*
X150008000Y-99710000D01*
X150448000Y-99100000D01*
X150888000Y-99710000D01*
G37*
%TO.C,C47*%
X166622000Y-73259733D02*
X166622000Y-73552267D01*
X167642000Y-73259733D02*
X167642000Y-73552267D01*
%TO.C,C31*%
X112471252Y-55478000D02*
X111048748Y-55478000D01*
X112471252Y-57298000D02*
X111048748Y-57298000D01*
%TO.C,J1*%
X186657988Y-41087150D02*
X186657988Y-48767150D01*
X186657988Y-41087150D02*
X189317988Y-41087150D01*
X186657988Y-48767150D02*
X189317988Y-48767150D01*
X187987988Y-38487150D02*
X189317988Y-38487150D01*
X189317988Y-38487150D02*
X189317988Y-39817150D01*
X189317988Y-41087150D02*
X189317988Y-48767150D01*
%TO.C,R46*%
X130795500Y-42163276D02*
X130795500Y-42672724D01*
X131840500Y-42163276D02*
X131840500Y-42672724D01*
%TO.C,R3*%
X172112000Y-44677064D02*
X172112000Y-44222936D01*
X173582000Y-44677064D02*
X173582000Y-44222936D01*
%TO.C,J5*%
X132655000Y-41342000D02*
X133985000Y-41342000D01*
X132655000Y-42672000D02*
X132655000Y-41342000D01*
X135255000Y-41342000D02*
X142935000Y-41342000D01*
X135255000Y-44002000D02*
X135255000Y-41342000D01*
X135255000Y-44002000D02*
X142935000Y-44002000D01*
X142935000Y-44002000D02*
X142935000Y-41342000D01*
%TO.C,J9*%
X118094000Y-40430000D02*
X118094000Y-41680000D01*
X118384000Y-40720000D02*
X118384000Y-46690000D01*
X118384000Y-46690000D02*
X128504000Y-46690000D01*
X118394000Y-40730000D02*
X118394000Y-41480000D01*
X118394000Y-41480000D02*
X120194000Y-41480000D01*
X118394000Y-42980000D02*
X119144000Y-42980000D01*
X119144000Y-42980000D02*
X119144000Y-45930000D01*
X119144000Y-45930000D02*
X123444000Y-45930000D01*
X119344000Y-40430000D02*
X118094000Y-40430000D01*
X120194000Y-40730000D02*
X118394000Y-40730000D01*
X120194000Y-41480000D02*
X120194000Y-40730000D01*
X121694000Y-40730000D02*
X121694000Y-41480000D01*
X121694000Y-41480000D02*
X125194000Y-41480000D01*
X125194000Y-40730000D02*
X121694000Y-40730000D01*
X125194000Y-41480000D02*
X125194000Y-40730000D01*
X126694000Y-40730000D02*
X126694000Y-41480000D01*
X126694000Y-41480000D02*
X128494000Y-41480000D01*
X127744000Y-42980000D02*
X127744000Y-45930000D01*
X127744000Y-45930000D02*
X123444000Y-45930000D01*
X128494000Y-40730000D02*
X126694000Y-40730000D01*
X128494000Y-41480000D02*
X128494000Y-40730000D01*
X128494000Y-42980000D02*
X127744000Y-42980000D01*
X128504000Y-40720000D02*
X118384000Y-40720000D01*
X128504000Y-46690000D02*
X128504000Y-40720000D01*
%TO.C,J12*%
X160893000Y-39778000D02*
X160893000Y-41028000D01*
X161183000Y-40068000D02*
X161183000Y-46038000D01*
X161183000Y-46038000D02*
X171303000Y-46038000D01*
X161193000Y-40078000D02*
X161193000Y-40828000D01*
X161193000Y-40828000D02*
X162993000Y-40828000D01*
X161193000Y-42328000D02*
X161943000Y-42328000D01*
X161943000Y-42328000D02*
X161943000Y-45278000D01*
X161943000Y-45278000D02*
X166243000Y-45278000D01*
X162143000Y-39778000D02*
X160893000Y-39778000D01*
X162993000Y-40078000D02*
X161193000Y-40078000D01*
X162993000Y-40828000D02*
X162993000Y-40078000D01*
X164493000Y-40078000D02*
X164493000Y-40828000D01*
X164493000Y-40828000D02*
X167993000Y-40828000D01*
X167993000Y-40078000D02*
X164493000Y-40078000D01*
X167993000Y-40828000D02*
X167993000Y-40078000D01*
X169493000Y-40078000D02*
X169493000Y-40828000D01*
X169493000Y-40828000D02*
X171293000Y-40828000D01*
X170543000Y-42328000D02*
X170543000Y-45278000D01*
X170543000Y-45278000D02*
X166243000Y-45278000D01*
X171293000Y-40078000D02*
X169493000Y-40078000D01*
X171293000Y-40828000D02*
X171293000Y-40078000D01*
X171293000Y-42328000D02*
X170543000Y-42328000D01*
X171303000Y-40068000D02*
X161183000Y-40068000D01*
X171303000Y-46038000D02*
X171303000Y-40068000D01*
%TO.C,F1*%
X119367802Y-71162534D02*
X119827802Y-71162534D01*
X119367802Y-81112534D02*
X119367802Y-71162534D01*
X119367802Y-81112534D02*
X119827802Y-81112534D01*
X124157802Y-81112534D02*
X124617802Y-81112534D01*
X124617802Y-71162534D02*
X124157802Y-71162534D01*
X124617802Y-81112534D02*
X124617802Y-71162534D01*
%TO.C,D20*%
X173763000Y-95720000D02*
X173763000Y-98180000D01*
X173763000Y-98180000D02*
X175233000Y-98180000D01*
X175233000Y-98180000D02*
X175233000Y-95720000D01*
%TO.C,D2*%
X179351000Y-94860000D02*
X179351000Y-97320000D01*
X180821000Y-94860000D02*
X179351000Y-94860000D01*
X180821000Y-97320000D02*
X180821000Y-94860000D01*
%TO.C,R56*%
X170715000Y-91466936D02*
X170715000Y-91921064D01*
X172185000Y-91466936D02*
X172185000Y-91921064D01*
%TO.C,J11*%
X103513143Y-70808302D02*
X118013143Y-70808302D01*
X103513143Y-80008302D02*
X103513143Y-70808302D01*
X112113143Y-80008302D02*
X103513143Y-80008302D01*
X118013143Y-70808302D02*
X118013143Y-72808302D01*
X118013143Y-78008302D02*
X118013143Y-80008302D01*
X118013143Y-80008302D02*
X116713143Y-80008302D01*
X118313143Y-70508302D02*
X117013143Y-70508302D01*
X118313143Y-72208302D02*
X118313143Y-70508302D01*
%TO.C,C48*%
X186035733Y-55624000D02*
X186328267Y-55624000D01*
X186035733Y-56644000D02*
X186328267Y-56644000D01*
%TO.C,J20*%
X146127000Y-41317000D02*
X147457000Y-41317000D01*
X146127000Y-42647000D02*
X146127000Y-41317000D01*
X148727000Y-41317000D02*
X156407000Y-41317000D01*
X148727000Y-43977000D02*
X148727000Y-41317000D01*
X148727000Y-43977000D02*
X156407000Y-43977000D01*
X156407000Y-43977000D02*
X156407000Y-41317000D01*
%TO.C,C32*%
X112471252Y-52684000D02*
X111048748Y-52684000D01*
X112471252Y-54504000D02*
X111048748Y-54504000D01*
%TO.C,J8*%
X165548000Y-64456000D02*
X165548000Y-67116000D01*
X173228000Y-64456000D02*
X165548000Y-64456000D01*
X173228000Y-64456000D02*
X173228000Y-67116000D01*
X173228000Y-67116000D02*
X165548000Y-67116000D01*
X175828000Y-65786000D02*
X175828000Y-67116000D01*
X175828000Y-67116000D02*
X174498000Y-67116000D01*
%TO.C,J6*%
X166006000Y-58818000D02*
X166006000Y-61578000D01*
X176276000Y-58818000D02*
X166006000Y-58818000D01*
X176276000Y-58818000D02*
X176276000Y-61578000D01*
X176276000Y-61578000D02*
X166006000Y-61578000D01*
X177546000Y-58818000D02*
X178926000Y-58818000D01*
X178926000Y-58818000D02*
X178926000Y-60198000D01*
%TO.C,C39*%
X134711252Y-59690000D02*
X133288748Y-59690000D01*
X134711252Y-61510000D02*
X133288748Y-61510000D01*
%TO.C,R5*%
X157719500Y-87019224D02*
X157719500Y-86509776D01*
X158764500Y-87019224D02*
X158764500Y-86509776D01*
%TO.C,J4*%
X176928000Y-65283000D02*
X176928000Y-62633000D01*
X179688000Y-62633000D02*
X176928000Y-62633000D01*
X179688000Y-65283000D02*
X176928000Y-65283000D01*
X179688000Y-65283000D02*
X179688000Y-62633000D01*
X179688000Y-66553000D02*
X179688000Y-67933000D01*
X179688000Y-67933000D02*
X178308000Y-67933000D01*
%TO.C,R45*%
X129271500Y-42672724D02*
X129271500Y-42163276D01*
X130316500Y-42672724D02*
X130316500Y-42163276D01*
%TO.C,J15*%
X168272000Y-71005000D02*
X188852000Y-71005000D01*
X168272000Y-80125000D02*
X168272000Y-71005000D01*
X169572000Y-72315000D02*
X176512000Y-72315000D01*
X169572000Y-78815000D02*
X169572000Y-72315000D01*
X176512000Y-72315000D02*
X176512000Y-71005000D01*
X180612000Y-71005000D02*
X180612000Y-72315000D01*
X180612000Y-72315000D02*
X187552000Y-72315000D01*
X183142000Y-69615000D02*
X183642000Y-70615000D01*
X183642000Y-70615000D02*
X184142000Y-69615000D01*
X184142000Y-69615000D02*
X183142000Y-69615000D01*
X187552000Y-72315000D02*
X187552000Y-78815000D01*
X187552000Y-78815000D02*
X169572000Y-78815000D01*
X188852000Y-71005000D02*
X188852000Y-80125000D01*
X188852000Y-80125000D02*
X168272000Y-80125000D01*
%TO.C,D19*%
X171985000Y-95720000D02*
X171985000Y-98180000D01*
X171985000Y-98180000D02*
X173455000Y-98180000D01*
X173455000Y-98180000D02*
X173455000Y-95720000D01*
%TO.C,R85*%
X177319000Y-91921064D02*
X177319000Y-91466936D01*
X178789000Y-91921064D02*
X178789000Y-91466936D01*
%TO.C,J19*%
X130900000Y-44900000D02*
X159100000Y-44900000D01*
X130900000Y-54020000D02*
X130900000Y-44900000D01*
X132200000Y-46210000D02*
X157800000Y-46210000D01*
X132200000Y-52710000D02*
X132200000Y-46210000D01*
X135610000Y-55410000D02*
X136610000Y-55410000D01*
X136110000Y-54410000D02*
X135610000Y-55410000D01*
X136610000Y-55410000D02*
X136110000Y-54410000D01*
X142950000Y-52710000D02*
X132200000Y-52710000D01*
X142950000Y-54020000D02*
X142950000Y-52710000D01*
X147050000Y-52710000D02*
X147050000Y-54020000D01*
X157800000Y-46210000D02*
X157800000Y-52710000D01*
X157800000Y-52710000D02*
X147050000Y-52710000D01*
X159100000Y-44900000D02*
X159100000Y-54020000D01*
X159100000Y-54020000D02*
X130900000Y-54020000D01*
%TO.C,M1*%
X159512000Y-89989500D02*
X169752000Y-89989500D01*
X159512000Y-97609500D02*
X169752000Y-97609500D01*
X159512000Y-98709500D02*
X169752000Y-98709500D01*
X159512000Y-99229500D02*
X159512000Y-89989500D01*
X161832000Y-99229500D02*
X159512000Y-99229500D01*
X169752000Y-89989500D02*
X169752000Y-99229500D01*
X169752000Y-99229500D02*
X162432000Y-99229500D01*
X162572000Y-99839500D02*
X161692000Y-99839500D01*
X162132000Y-99229500D01*
X162572000Y-99839500D01*
G36*
X162572000Y-99839500D02*
G01*
X161692000Y-99839500D01*
X162132000Y-99229500D01*
X162572000Y-99839500D01*
G37*
%TO.C,C28*%
X136610000Y-74428437D02*
X136610000Y-82084000D01*
X136610000Y-82084000D02*
X139460000Y-82084000D01*
X137674437Y-73364000D02*
X136610000Y-74428437D01*
X137674437Y-73364000D02*
X139460000Y-73364000D01*
X143480000Y-72124000D02*
X143480000Y-73124000D01*
X143980000Y-72624000D02*
X142980000Y-72624000D01*
X144265563Y-73364000D02*
X142480000Y-73364000D01*
X144265563Y-73364000D02*
X145330000Y-74428437D01*
X145330000Y-74428437D02*
X145330000Y-82084000D01*
X145330000Y-82084000D02*
X142480000Y-82084000D01*
%TO.C,J10*%
X101560000Y-81280000D02*
X110800000Y-81280000D01*
X101560000Y-83600000D02*
X101560000Y-81280000D01*
X101560000Y-91520000D02*
X101560000Y-84200000D01*
X102080000Y-81280000D02*
X102080000Y-91520000D01*
X103180000Y-81280000D02*
X103180000Y-91520000D01*
X110800000Y-81280000D02*
X110800000Y-91520000D01*
X110800000Y-91520000D02*
X101560000Y-91520000D01*
X101560000Y-83900000D02*
X100950000Y-84340000D01*
X100950000Y-83460000D01*
X101560000Y-83900000D01*
G36*
X101560000Y-83900000D02*
G01*
X100950000Y-84340000D01*
X100950000Y-83460000D01*
X101560000Y-83900000D01*
G37*
%TO.C,J17*%
X157878000Y-79866000D02*
X157878000Y-78486000D01*
X159258000Y-79866000D02*
X157878000Y-79866000D01*
X160528000Y-77106000D02*
X165718000Y-77106000D01*
X160528000Y-79866000D02*
X160528000Y-77106000D01*
X160528000Y-79866000D02*
X165718000Y-79866000D01*
X165718000Y-79866000D02*
X165718000Y-77106000D01*
%TO.C,L1*%
X124190000Y-87440000D02*
X135410000Y-87440000D01*
X124190000Y-90540000D02*
X124190000Y-87440000D01*
X124190000Y-98160000D02*
X124190000Y-95060000D01*
X135410000Y-87440000D02*
X135410000Y-90540000D01*
X135410000Y-95060000D02*
X135410000Y-98160000D01*
X135410000Y-98160000D02*
X124190000Y-98160000D01*
%TO.C,C24*%
X137372000Y-90176437D02*
X137372000Y-97832000D01*
X137372000Y-97832000D02*
X140222000Y-97832000D01*
X138436437Y-89112000D02*
X137372000Y-90176437D01*
X138436437Y-89112000D02*
X140222000Y-89112000D01*
X144242000Y-87872000D02*
X144242000Y-88872000D01*
X144742000Y-88372000D02*
X143742000Y-88372000D01*
X145027563Y-89112000D02*
X143242000Y-89112000D01*
X145027563Y-89112000D02*
X146092000Y-90176437D01*
X146092000Y-90176437D02*
X146092000Y-97832000D01*
X146092000Y-97832000D02*
X143242000Y-97832000D01*
%TO.C,U3*%
X181895000Y-40045000D02*
X181895000Y-39825000D01*
X181895000Y-45705000D02*
X181895000Y-45245000D01*
X181895000Y-45705000D02*
X183095000Y-45705000D01*
X185555000Y-45625000D02*
X185555000Y-42545000D01*
X181895000Y-45245000D02*
G75*
G02*
X181895000Y-40045000I1100000J2600000D01*
G01*
%TO.C,J14*%
X178162000Y-82074000D02*
X178162000Y-86074000D01*
X178452000Y-81044000D02*
X178452000Y-87064000D01*
X178452000Y-87064000D02*
X188832000Y-87064000D01*
X179032000Y-81044000D02*
X179032000Y-81644000D01*
X179032000Y-81644000D02*
X180632000Y-81644000D01*
X179832000Y-86064000D02*
X180082000Y-85534000D01*
X179832000Y-86064000D02*
X187452000Y-86064000D01*
X179832000Y-87064000D02*
X179832000Y-86064000D01*
X180082000Y-85534000D02*
X187202000Y-85534000D01*
X180082000Y-87064000D02*
X180082000Y-86064000D01*
X180632000Y-81644000D02*
X180632000Y-81044000D01*
X181572000Y-81044000D02*
X181572000Y-81644000D01*
X181572000Y-81644000D02*
X183172000Y-81644000D01*
X183172000Y-81644000D02*
X183172000Y-81044000D01*
X184112000Y-81044000D02*
X184112000Y-81644000D01*
X184112000Y-81644000D02*
X185712000Y-81644000D01*
X185712000Y-81644000D02*
X185712000Y-81044000D01*
X186652000Y-81044000D02*
X186652000Y-81644000D01*
X186652000Y-81644000D02*
X188252000Y-81644000D01*
X187202000Y-85534000D02*
X187452000Y-86064000D01*
X187202000Y-87064000D02*
X187202000Y-86064000D01*
X187452000Y-86064000D02*
X187452000Y-87064000D01*
X188252000Y-81644000D02*
X188252000Y-81044000D01*
X188832000Y-81044000D02*
X178452000Y-81044000D01*
X188832000Y-87064000D02*
X188832000Y-81044000D01*
%TO.C,R76*%
X157211500Y-41528276D02*
X157211500Y-42037724D01*
X158256500Y-41528276D02*
X158256500Y-42037724D01*
%TO.C,R57*%
X173001000Y-91466936D02*
X173001000Y-91921064D01*
X174471000Y-91466936D02*
X174471000Y-91921064D01*
%TO.C,U1*%
X141617369Y-65278000D02*
X142289120Y-64606249D01*
X142289120Y-65949751D02*
X141617369Y-65278000D01*
X148172249Y-58723120D02*
X148844000Y-58051369D01*
X148844000Y-58051369D02*
X149515751Y-58723120D01*
X148844000Y-72504631D02*
X148172249Y-71832880D01*
X149515751Y-71832880D02*
X148844000Y-72504631D01*
X155398880Y-64606249D02*
X156070631Y-65278000D01*
X156070631Y-65278000D02*
X155398880Y-65949751D01*
X148292457Y-58178648D02*
X147719700Y-58270572D01*
X147811624Y-57697815D01*
X148292457Y-58178648D01*
G36*
X148292457Y-58178648D02*
G01*
X147719700Y-58270572D01*
X147811624Y-57697815D01*
X148292457Y-58178648D01*
G37*
%TO.C,C27*%
X115558000Y-51338000D02*
X116558000Y-51338000D01*
X116058000Y-50838000D02*
X116058000Y-51838000D01*
X116798000Y-50552437D02*
X116798000Y-52338000D01*
X116798000Y-50552437D02*
X117862437Y-49488000D01*
X116798000Y-57143563D02*
X116798000Y-55358000D01*
X116798000Y-57143563D02*
X117862437Y-58208000D01*
X117862437Y-49488000D02*
X125518000Y-49488000D01*
X117862437Y-58208000D02*
X125518000Y-58208000D01*
X125518000Y-49488000D02*
X125518000Y-52338000D01*
X125518000Y-58208000D02*
X125518000Y-55358000D01*
%TO.C,D21*%
X175541000Y-94860000D02*
X175541000Y-97320000D01*
X177011000Y-94860000D02*
X175541000Y-94860000D01*
X177011000Y-97320000D02*
X177011000Y-94860000D01*
%TO.C,R19*%
X144277500Y-84654724D02*
X144277500Y-84145276D01*
X145322500Y-84654724D02*
X145322500Y-84145276D01*
%TO.C,R58*%
X175033000Y-91921064D02*
X175033000Y-91466936D01*
X176503000Y-91921064D02*
X176503000Y-91466936D01*
%TO.C,J16*%
X160906000Y-48018000D02*
X181486000Y-48018000D01*
X160906000Y-57138000D02*
X160906000Y-48018000D01*
X162206000Y-49328000D02*
X169146000Y-49328000D01*
X162206000Y-55828000D02*
X162206000Y-49328000D01*
X169146000Y-49328000D02*
X169146000Y-48018000D01*
X173246000Y-48018000D02*
X173246000Y-49328000D01*
X173246000Y-49328000D02*
X180186000Y-49328000D01*
X175776000Y-46628000D02*
X176276000Y-47628000D01*
X176276000Y-47628000D02*
X176776000Y-46628000D01*
X176776000Y-46628000D02*
X175776000Y-46628000D01*
X180186000Y-49328000D02*
X180186000Y-55828000D01*
X180186000Y-55828000D02*
X162206000Y-55828000D01*
X181486000Y-48018000D02*
X181486000Y-57138000D01*
X181486000Y-57138000D02*
X160906000Y-57138000D01*
%TO.C,JP1*%
X182134000Y-57454000D02*
X182134000Y-56054000D01*
X182834000Y-55354000D02*
X183434000Y-55354000D01*
X183434000Y-58154000D02*
X182834000Y-58154000D01*
X184134000Y-56054000D02*
X184134000Y-57454000D01*
X182134000Y-56054000D02*
G75*
G02*
X182834000Y-55354000I700000J0D01*
G01*
X182834000Y-58154000D02*
G75*
G02*
X182134000Y-57454000I-1J699999D01*
G01*
X183434000Y-55354000D02*
G75*
G02*
X184134000Y-56054000I0J-700000D01*
G01*
X184134000Y-57454000D02*
G75*
G02*
X183434000Y-58154000I-699999J-1D01*
G01*
%TO.C,L2*%
X110064664Y-59477053D02*
X121284664Y-59477053D01*
X110064664Y-62577053D02*
X110064664Y-59477053D01*
X110064664Y-70197053D02*
X110064664Y-67097053D01*
X121284664Y-59477053D02*
X121284664Y-62577053D01*
X121284664Y-67097053D02*
X121284664Y-70197053D01*
X121284664Y-70197053D02*
X110064664Y-70197053D01*
%TO.C,J18*%
X157639000Y-75802000D02*
X157639000Y-74422000D01*
X159019000Y-75802000D02*
X157639000Y-75802000D01*
X160289000Y-73042000D02*
X165479000Y-73042000D01*
X160289000Y-75802000D02*
X160289000Y-73042000D01*
X160289000Y-75802000D02*
X165479000Y-75802000D01*
X165479000Y-75802000D02*
X165479000Y-73042000D01*
%TO.C,R77*%
X158989500Y-42037724D02*
X158989500Y-41528276D01*
X160034500Y-42037724D02*
X160034500Y-41528276D01*
%TD*%
D15*
%TO.C,U8*%
X128784323Y-83913662D03*
%TD*%
M02*
