%TF.GenerationSoftware,KiCad,Pcbnew,9.0.5*%
%TF.CreationDate,2026-04-28T10:36:50+02:00*%
%TF.ProjectId,mobile_robot,6d6f6269-6c65-45f7-926f-626f742e6b69,rev?*%
%TF.SameCoordinates,Original*%
%TF.FileFunction,Legend,Bot*%
%TF.FilePolarity,Positive*%
%FSLAX46Y46*%
G04 Gerber Fmt 4.6, Leading zero omitted, Abs format (unit mm)*
G04 Created by KiCad (PCBNEW 9.0.5) date 2026-04-28 10:36:50*
%MOMM*%
%LPD*%
G01*
G04 APERTURE LIST*
%ADD10C,0.150000*%
%ADD11C,0.100000*%
%ADD12C,0.120000*%
%ADD13C,0.127000*%
%ADD14C,0.200000*%
G04 APERTURE END LIST*
D10*
X155448000Y-91186000D02*
X154940000Y-90424000D01*
D11*
X173757533Y-46200877D02*
X173790866Y-46267544D01*
X173790866Y-46267544D02*
X173790866Y-46367544D01*
X173790866Y-46367544D02*
X173757533Y-46467544D01*
X173757533Y-46467544D02*
X173690866Y-46534211D01*
X173690866Y-46534211D02*
X173624200Y-46567544D01*
X173624200Y-46567544D02*
X173490866Y-46600877D01*
X173490866Y-46600877D02*
X173390866Y-46600877D01*
X173390866Y-46600877D02*
X173257533Y-46567544D01*
X173257533Y-46567544D02*
X173190866Y-46534211D01*
X173190866Y-46534211D02*
X173124200Y-46467544D01*
X173124200Y-46467544D02*
X173090866Y-46367544D01*
X173090866Y-46367544D02*
X173090866Y-46300877D01*
X173090866Y-46300877D02*
X173124200Y-46200877D01*
X173124200Y-46200877D02*
X173157533Y-46167544D01*
X173157533Y-46167544D02*
X173390866Y-46167544D01*
X173390866Y-46167544D02*
X173390866Y-46300877D01*
X173090866Y-45867544D02*
X173790866Y-45867544D01*
X173790866Y-45867544D02*
X173090866Y-45467544D01*
X173090866Y-45467544D02*
X173790866Y-45467544D01*
X173090866Y-45134211D02*
X173790866Y-45134211D01*
X173790866Y-45134211D02*
X173790866Y-44967544D01*
X173790866Y-44967544D02*
X173757533Y-44867544D01*
X173757533Y-44867544D02*
X173690866Y-44800878D01*
X173690866Y-44800878D02*
X173624200Y-44767544D01*
X173624200Y-44767544D02*
X173490866Y-44734211D01*
X173490866Y-44734211D02*
X173390866Y-44734211D01*
X173390866Y-44734211D02*
X173257533Y-44767544D01*
X173257533Y-44767544D02*
X173190866Y-44800878D01*
X173190866Y-44800878D02*
X173124200Y-44867544D01*
X173124200Y-44867544D02*
X173090866Y-44967544D01*
X173090866Y-44967544D02*
X173090866Y-45134211D01*
X173290866Y-43934211D02*
X173290866Y-43600878D01*
X173090866Y-44000878D02*
X173790866Y-43767545D01*
X173790866Y-43767545D02*
X173090866Y-43534211D01*
X173090866Y-43300878D02*
X173790866Y-43300878D01*
X173790866Y-43300878D02*
X173790866Y-43134211D01*
X173790866Y-43134211D02*
X173757533Y-43034211D01*
X173757533Y-43034211D02*
X173690866Y-42967545D01*
X173690866Y-42967545D02*
X173624200Y-42934211D01*
X173624200Y-42934211D02*
X173490866Y-42900878D01*
X173490866Y-42900878D02*
X173390866Y-42900878D01*
X173390866Y-42900878D02*
X173257533Y-42934211D01*
X173257533Y-42934211D02*
X173190866Y-42967545D01*
X173190866Y-42967545D02*
X173124200Y-43034211D01*
X173124200Y-43034211D02*
X173090866Y-43134211D01*
X173090866Y-43134211D02*
X173090866Y-43300878D01*
X173157533Y-42200878D02*
X173124200Y-42234211D01*
X173124200Y-42234211D02*
X173090866Y-42334211D01*
X173090866Y-42334211D02*
X173090866Y-42400878D01*
X173090866Y-42400878D02*
X173124200Y-42500878D01*
X173124200Y-42500878D02*
X173190866Y-42567545D01*
X173190866Y-42567545D02*
X173257533Y-42600878D01*
X173257533Y-42600878D02*
X173390866Y-42634211D01*
X173390866Y-42634211D02*
X173490866Y-42634211D01*
X173490866Y-42634211D02*
X173624200Y-42600878D01*
X173624200Y-42600878D02*
X173690866Y-42567545D01*
X173690866Y-42567545D02*
X173757533Y-42500878D01*
X173757533Y-42500878D02*
X173790866Y-42400878D01*
X173790866Y-42400878D02*
X173790866Y-42334211D01*
X173790866Y-42334211D02*
X173757533Y-42234211D01*
X173757533Y-42234211D02*
X173724200Y-42200878D01*
X173790866Y-41434212D02*
X173790866Y-41000878D01*
X173790866Y-41000878D02*
X173524200Y-41234212D01*
X173524200Y-41234212D02*
X173524200Y-41134212D01*
X173524200Y-41134212D02*
X173490866Y-41067545D01*
X173490866Y-41067545D02*
X173457533Y-41034212D01*
X173457533Y-41034212D02*
X173390866Y-41000878D01*
X173390866Y-41000878D02*
X173224200Y-41000878D01*
X173224200Y-41000878D02*
X173157533Y-41034212D01*
X173157533Y-41034212D02*
X173124200Y-41067545D01*
X173124200Y-41067545D02*
X173090866Y-41134212D01*
X173090866Y-41134212D02*
X173090866Y-41334212D01*
X173090866Y-41334212D02*
X173124200Y-41400878D01*
X173124200Y-41400878D02*
X173157533Y-41434212D01*
X173790866Y-40800878D02*
X173090866Y-40567545D01*
X173090866Y-40567545D02*
X173790866Y-40334211D01*
X173790866Y-40167545D02*
X173790866Y-39734211D01*
X173790866Y-39734211D02*
X173524200Y-39967545D01*
X173524200Y-39967545D02*
X173524200Y-39867545D01*
X173524200Y-39867545D02*
X173490866Y-39800878D01*
X173490866Y-39800878D02*
X173457533Y-39767545D01*
X173457533Y-39767545D02*
X173390866Y-39734211D01*
X173390866Y-39734211D02*
X173224200Y-39734211D01*
X173224200Y-39734211D02*
X173157533Y-39767545D01*
X173157533Y-39767545D02*
X173124200Y-39800878D01*
X173124200Y-39800878D02*
X173090866Y-39867545D01*
X173090866Y-39867545D02*
X173090866Y-40067545D01*
X173090866Y-40067545D02*
X173124200Y-40134211D01*
X173124200Y-40134211D02*
X173157533Y-40167545D01*
X117630866Y-47078211D02*
X117630866Y-46644877D01*
X117630866Y-46644877D02*
X117364200Y-46878211D01*
X117364200Y-46878211D02*
X117364200Y-46778211D01*
X117364200Y-46778211D02*
X117330866Y-46711544D01*
X117330866Y-46711544D02*
X117297533Y-46678211D01*
X117297533Y-46678211D02*
X117230866Y-46644877D01*
X117230866Y-46644877D02*
X117064200Y-46644877D01*
X117064200Y-46644877D02*
X116997533Y-46678211D01*
X116997533Y-46678211D02*
X116964200Y-46711544D01*
X116964200Y-46711544D02*
X116930866Y-46778211D01*
X116930866Y-46778211D02*
X116930866Y-46978211D01*
X116930866Y-46978211D02*
X116964200Y-47044877D01*
X116964200Y-47044877D02*
X116997533Y-47078211D01*
X116997533Y-46344877D02*
X116964200Y-46311544D01*
X116964200Y-46311544D02*
X116930866Y-46344877D01*
X116930866Y-46344877D02*
X116964200Y-46378210D01*
X116964200Y-46378210D02*
X116997533Y-46344877D01*
X116997533Y-46344877D02*
X116930866Y-46344877D01*
X117630866Y-46078211D02*
X117630866Y-45644877D01*
X117630866Y-45644877D02*
X117364200Y-45878211D01*
X117364200Y-45878211D02*
X117364200Y-45778211D01*
X117364200Y-45778211D02*
X117330866Y-45711544D01*
X117330866Y-45711544D02*
X117297533Y-45678211D01*
X117297533Y-45678211D02*
X117230866Y-45644877D01*
X117230866Y-45644877D02*
X117064200Y-45644877D01*
X117064200Y-45644877D02*
X116997533Y-45678211D01*
X116997533Y-45678211D02*
X116964200Y-45711544D01*
X116964200Y-45711544D02*
X116930866Y-45778211D01*
X116930866Y-45778211D02*
X116930866Y-45978211D01*
X116930866Y-45978211D02*
X116964200Y-46044877D01*
X116964200Y-46044877D02*
X116997533Y-46078211D01*
X117130866Y-44844877D02*
X117130866Y-44511544D01*
X116930866Y-44911544D02*
X117630866Y-44678211D01*
X117630866Y-44678211D02*
X116930866Y-44444877D01*
X116930866Y-44211544D02*
X117630866Y-44211544D01*
X117630866Y-44211544D02*
X117630866Y-44044877D01*
X117630866Y-44044877D02*
X117597533Y-43944877D01*
X117597533Y-43944877D02*
X117530866Y-43878211D01*
X117530866Y-43878211D02*
X117464200Y-43844877D01*
X117464200Y-43844877D02*
X117330866Y-43811544D01*
X117330866Y-43811544D02*
X117230866Y-43811544D01*
X117230866Y-43811544D02*
X117097533Y-43844877D01*
X117097533Y-43844877D02*
X117030866Y-43878211D01*
X117030866Y-43878211D02*
X116964200Y-43944877D01*
X116964200Y-43944877D02*
X116930866Y-44044877D01*
X116930866Y-44044877D02*
X116930866Y-44211544D01*
X116997533Y-43111544D02*
X116964200Y-43144877D01*
X116964200Y-43144877D02*
X116930866Y-43244877D01*
X116930866Y-43244877D02*
X116930866Y-43311544D01*
X116930866Y-43311544D02*
X116964200Y-43411544D01*
X116964200Y-43411544D02*
X117030866Y-43478211D01*
X117030866Y-43478211D02*
X117097533Y-43511544D01*
X117097533Y-43511544D02*
X117230866Y-43544877D01*
X117230866Y-43544877D02*
X117330866Y-43544877D01*
X117330866Y-43544877D02*
X117464200Y-43511544D01*
X117464200Y-43511544D02*
X117530866Y-43478211D01*
X117530866Y-43478211D02*
X117597533Y-43411544D01*
X117597533Y-43411544D02*
X117630866Y-43311544D01*
X117630866Y-43311544D02*
X117630866Y-43244877D01*
X117630866Y-43244877D02*
X117597533Y-43144877D01*
X117597533Y-43144877D02*
X117564200Y-43111544D01*
X117597533Y-41911544D02*
X117630866Y-41978211D01*
X117630866Y-41978211D02*
X117630866Y-42078211D01*
X117630866Y-42078211D02*
X117597533Y-42178211D01*
X117597533Y-42178211D02*
X117530866Y-42244878D01*
X117530866Y-42244878D02*
X117464200Y-42278211D01*
X117464200Y-42278211D02*
X117330866Y-42311544D01*
X117330866Y-42311544D02*
X117230866Y-42311544D01*
X117230866Y-42311544D02*
X117097533Y-42278211D01*
X117097533Y-42278211D02*
X117030866Y-42244878D01*
X117030866Y-42244878D02*
X116964200Y-42178211D01*
X116964200Y-42178211D02*
X116930866Y-42078211D01*
X116930866Y-42078211D02*
X116930866Y-42011544D01*
X116930866Y-42011544D02*
X116964200Y-41911544D01*
X116964200Y-41911544D02*
X116997533Y-41878211D01*
X116997533Y-41878211D02*
X117230866Y-41878211D01*
X117230866Y-41878211D02*
X117230866Y-42011544D01*
X116930866Y-41578211D02*
X117630866Y-41578211D01*
X117630866Y-41578211D02*
X116930866Y-41178211D01*
X116930866Y-41178211D02*
X117630866Y-41178211D01*
X116930866Y-40844878D02*
X117630866Y-40844878D01*
X117630866Y-40844878D02*
X117630866Y-40678211D01*
X117630866Y-40678211D02*
X117597533Y-40578211D01*
X117597533Y-40578211D02*
X117530866Y-40511545D01*
X117530866Y-40511545D02*
X117464200Y-40478211D01*
X117464200Y-40478211D02*
X117330866Y-40444878D01*
X117330866Y-40444878D02*
X117230866Y-40444878D01*
X117230866Y-40444878D02*
X117097533Y-40478211D01*
X117097533Y-40478211D02*
X117030866Y-40511545D01*
X117030866Y-40511545D02*
X116964200Y-40578211D01*
X116964200Y-40578211D02*
X116930866Y-40678211D01*
X116930866Y-40678211D02*
X116930866Y-40844878D01*
D10*
X145422857Y-82623819D02*
X145756190Y-82147628D01*
X145994285Y-82623819D02*
X145994285Y-81623819D01*
X145994285Y-81623819D02*
X145613333Y-81623819D01*
X145613333Y-81623819D02*
X145518095Y-81671438D01*
X145518095Y-81671438D02*
X145470476Y-81719057D01*
X145470476Y-81719057D02*
X145422857Y-81814295D01*
X145422857Y-81814295D02*
X145422857Y-81957152D01*
X145422857Y-81957152D02*
X145470476Y-82052390D01*
X145470476Y-82052390D02*
X145518095Y-82100009D01*
X145518095Y-82100009D02*
X145613333Y-82147628D01*
X145613333Y-82147628D02*
X145994285Y-82147628D01*
X145041904Y-81719057D02*
X144994285Y-81671438D01*
X144994285Y-81671438D02*
X144899047Y-81623819D01*
X144899047Y-81623819D02*
X144660952Y-81623819D01*
X144660952Y-81623819D02*
X144565714Y-81671438D01*
X144565714Y-81671438D02*
X144518095Y-81719057D01*
X144518095Y-81719057D02*
X144470476Y-81814295D01*
X144470476Y-81814295D02*
X144470476Y-81909533D01*
X144470476Y-81909533D02*
X144518095Y-82052390D01*
X144518095Y-82052390D02*
X145089523Y-82623819D01*
X145089523Y-82623819D02*
X144470476Y-82623819D01*
X143851428Y-81623819D02*
X143756190Y-81623819D01*
X143756190Y-81623819D02*
X143660952Y-81671438D01*
X143660952Y-81671438D02*
X143613333Y-81719057D01*
X143613333Y-81719057D02*
X143565714Y-81814295D01*
X143565714Y-81814295D02*
X143518095Y-82004771D01*
X143518095Y-82004771D02*
X143518095Y-82242866D01*
X143518095Y-82242866D02*
X143565714Y-82433342D01*
X143565714Y-82433342D02*
X143613333Y-82528580D01*
X143613333Y-82528580D02*
X143660952Y-82576200D01*
X143660952Y-82576200D02*
X143756190Y-82623819D01*
X143756190Y-82623819D02*
X143851428Y-82623819D01*
X143851428Y-82623819D02*
X143946666Y-82576200D01*
X143946666Y-82576200D02*
X143994285Y-82528580D01*
X143994285Y-82528580D02*
X144041904Y-82433342D01*
X144041904Y-82433342D02*
X144089523Y-82242866D01*
X144089523Y-82242866D02*
X144089523Y-82004771D01*
X144089523Y-82004771D02*
X144041904Y-81814295D01*
X144041904Y-81814295D02*
X143994285Y-81719057D01*
X143994285Y-81719057D02*
X143946666Y-81671438D01*
X143946666Y-81671438D02*
X143851428Y-81623819D01*
X144759580Y-65833333D02*
X144807200Y-65785714D01*
X144807200Y-65785714D02*
X144854819Y-65642857D01*
X144854819Y-65642857D02*
X144854819Y-65547619D01*
X144854819Y-65547619D02*
X144807200Y-65404762D01*
X144807200Y-65404762D02*
X144711961Y-65309524D01*
X144711961Y-65309524D02*
X144616723Y-65261905D01*
X144616723Y-65261905D02*
X144426247Y-65214286D01*
X144426247Y-65214286D02*
X144283390Y-65214286D01*
X144283390Y-65214286D02*
X144092914Y-65261905D01*
X144092914Y-65261905D02*
X143997676Y-65309524D01*
X143997676Y-65309524D02*
X143902438Y-65404762D01*
X143902438Y-65404762D02*
X143854819Y-65547619D01*
X143854819Y-65547619D02*
X143854819Y-65642857D01*
X143854819Y-65642857D02*
X143902438Y-65785714D01*
X143902438Y-65785714D02*
X143950057Y-65833333D01*
X143854819Y-66690476D02*
X143854819Y-66500000D01*
X143854819Y-66500000D02*
X143902438Y-66404762D01*
X143902438Y-66404762D02*
X143950057Y-66357143D01*
X143950057Y-66357143D02*
X144092914Y-66261905D01*
X144092914Y-66261905D02*
X144283390Y-66214286D01*
X144283390Y-66214286D02*
X144664342Y-66214286D01*
X144664342Y-66214286D02*
X144759580Y-66261905D01*
X144759580Y-66261905D02*
X144807200Y-66309524D01*
X144807200Y-66309524D02*
X144854819Y-66404762D01*
X144854819Y-66404762D02*
X144854819Y-66595238D01*
X144854819Y-66595238D02*
X144807200Y-66690476D01*
X144807200Y-66690476D02*
X144759580Y-66738095D01*
X144759580Y-66738095D02*
X144664342Y-66785714D01*
X144664342Y-66785714D02*
X144426247Y-66785714D01*
X144426247Y-66785714D02*
X144331009Y-66738095D01*
X144331009Y-66738095D02*
X144283390Y-66690476D01*
X144283390Y-66690476D02*
X144235771Y-66595238D01*
X144235771Y-66595238D02*
X144235771Y-66404762D01*
X144235771Y-66404762D02*
X144283390Y-66309524D01*
X144283390Y-66309524D02*
X144331009Y-66261905D01*
X144331009Y-66261905D02*
X144426247Y-66214286D01*
X140254819Y-74661905D02*
X139254819Y-74661905D01*
X139254819Y-74661905D02*
X139254819Y-74900000D01*
X139254819Y-74900000D02*
X139302438Y-75042857D01*
X139302438Y-75042857D02*
X139397676Y-75138095D01*
X139397676Y-75138095D02*
X139492914Y-75185714D01*
X139492914Y-75185714D02*
X139683390Y-75233333D01*
X139683390Y-75233333D02*
X139826247Y-75233333D01*
X139826247Y-75233333D02*
X140016723Y-75185714D01*
X140016723Y-75185714D02*
X140111961Y-75138095D01*
X140111961Y-75138095D02*
X140207200Y-75042857D01*
X140207200Y-75042857D02*
X140254819Y-74900000D01*
X140254819Y-74900000D02*
X140254819Y-74661905D01*
X139254819Y-75566667D02*
X139254819Y-76185714D01*
X139254819Y-76185714D02*
X139635771Y-75852381D01*
X139635771Y-75852381D02*
X139635771Y-75995238D01*
X139635771Y-75995238D02*
X139683390Y-76090476D01*
X139683390Y-76090476D02*
X139731009Y-76138095D01*
X139731009Y-76138095D02*
X139826247Y-76185714D01*
X139826247Y-76185714D02*
X140064342Y-76185714D01*
X140064342Y-76185714D02*
X140159580Y-76138095D01*
X140159580Y-76138095D02*
X140207200Y-76090476D01*
X140207200Y-76090476D02*
X140254819Y-75995238D01*
X140254819Y-75995238D02*
X140254819Y-75709524D01*
X140254819Y-75709524D02*
X140207200Y-75614286D01*
X140207200Y-75614286D02*
X140159580Y-75566667D01*
X163448904Y-81496819D02*
X163448904Y-82306342D01*
X163448904Y-82306342D02*
X163401285Y-82401580D01*
X163401285Y-82401580D02*
X163353666Y-82449200D01*
X163353666Y-82449200D02*
X163258428Y-82496819D01*
X163258428Y-82496819D02*
X163067952Y-82496819D01*
X163067952Y-82496819D02*
X162972714Y-82449200D01*
X162972714Y-82449200D02*
X162925095Y-82401580D01*
X162925095Y-82401580D02*
X162877476Y-82306342D01*
X162877476Y-82306342D02*
X162877476Y-81496819D01*
X162448904Y-81592057D02*
X162401285Y-81544438D01*
X162401285Y-81544438D02*
X162306047Y-81496819D01*
X162306047Y-81496819D02*
X162067952Y-81496819D01*
X162067952Y-81496819D02*
X161972714Y-81544438D01*
X161972714Y-81544438D02*
X161925095Y-81592057D01*
X161925095Y-81592057D02*
X161877476Y-81687295D01*
X161877476Y-81687295D02*
X161877476Y-81782533D01*
X161877476Y-81782533D02*
X161925095Y-81925390D01*
X161925095Y-81925390D02*
X162496523Y-82496819D01*
X162496523Y-82496819D02*
X161877476Y-82496819D01*
X150621904Y-80988819D02*
X150621904Y-81798342D01*
X150621904Y-81798342D02*
X150574285Y-81893580D01*
X150574285Y-81893580D02*
X150526666Y-81941200D01*
X150526666Y-81941200D02*
X150431428Y-81988819D01*
X150431428Y-81988819D02*
X150240952Y-81988819D01*
X150240952Y-81988819D02*
X150145714Y-81941200D01*
X150145714Y-81941200D02*
X150098095Y-81893580D01*
X150098095Y-81893580D02*
X150050476Y-81798342D01*
X150050476Y-81798342D02*
X150050476Y-80988819D01*
X149145714Y-81322152D02*
X149145714Y-81988819D01*
X149383809Y-80941200D02*
X149621904Y-81655485D01*
X149621904Y-81655485D02*
X149002857Y-81655485D01*
X127359580Y-71357142D02*
X127407200Y-71309523D01*
X127407200Y-71309523D02*
X127454819Y-71166666D01*
X127454819Y-71166666D02*
X127454819Y-71071428D01*
X127454819Y-71071428D02*
X127407200Y-70928571D01*
X127407200Y-70928571D02*
X127311961Y-70833333D01*
X127311961Y-70833333D02*
X127216723Y-70785714D01*
X127216723Y-70785714D02*
X127026247Y-70738095D01*
X127026247Y-70738095D02*
X126883390Y-70738095D01*
X126883390Y-70738095D02*
X126692914Y-70785714D01*
X126692914Y-70785714D02*
X126597676Y-70833333D01*
X126597676Y-70833333D02*
X126502438Y-70928571D01*
X126502438Y-70928571D02*
X126454819Y-71071428D01*
X126454819Y-71071428D02*
X126454819Y-71166666D01*
X126454819Y-71166666D02*
X126502438Y-71309523D01*
X126502438Y-71309523D02*
X126550057Y-71357142D01*
X126788152Y-72214285D02*
X127454819Y-72214285D01*
X126407200Y-71976190D02*
X127121485Y-71738095D01*
X127121485Y-71738095D02*
X127121485Y-72357142D01*
X126454819Y-72928571D02*
X126454819Y-73023809D01*
X126454819Y-73023809D02*
X126502438Y-73119047D01*
X126502438Y-73119047D02*
X126550057Y-73166666D01*
X126550057Y-73166666D02*
X126645295Y-73214285D01*
X126645295Y-73214285D02*
X126835771Y-73261904D01*
X126835771Y-73261904D02*
X127073866Y-73261904D01*
X127073866Y-73261904D02*
X127264342Y-73214285D01*
X127264342Y-73214285D02*
X127359580Y-73166666D01*
X127359580Y-73166666D02*
X127407200Y-73119047D01*
X127407200Y-73119047D02*
X127454819Y-73023809D01*
X127454819Y-73023809D02*
X127454819Y-72928571D01*
X127454819Y-72928571D02*
X127407200Y-72833333D01*
X127407200Y-72833333D02*
X127359580Y-72785714D01*
X127359580Y-72785714D02*
X127264342Y-72738095D01*
X127264342Y-72738095D02*
X127073866Y-72690476D01*
X127073866Y-72690476D02*
X126835771Y-72690476D01*
X126835771Y-72690476D02*
X126645295Y-72738095D01*
X126645295Y-72738095D02*
X126550057Y-72785714D01*
X126550057Y-72785714D02*
X126502438Y-72833333D01*
X126502438Y-72833333D02*
X126454819Y-72928571D01*
X147124009Y-74350666D02*
X147124009Y-74017333D01*
X147647819Y-74017333D02*
X146647819Y-74017333D01*
X146647819Y-74017333D02*
X146647819Y-74493523D01*
X147124009Y-75207809D02*
X147171628Y-75350666D01*
X147171628Y-75350666D02*
X147219247Y-75398285D01*
X147219247Y-75398285D02*
X147314485Y-75445904D01*
X147314485Y-75445904D02*
X147457342Y-75445904D01*
X147457342Y-75445904D02*
X147552580Y-75398285D01*
X147552580Y-75398285D02*
X147600200Y-75350666D01*
X147600200Y-75350666D02*
X147647819Y-75255428D01*
X147647819Y-75255428D02*
X147647819Y-74874476D01*
X147647819Y-74874476D02*
X146647819Y-74874476D01*
X146647819Y-74874476D02*
X146647819Y-75207809D01*
X146647819Y-75207809D02*
X146695438Y-75303047D01*
X146695438Y-75303047D02*
X146743057Y-75350666D01*
X146743057Y-75350666D02*
X146838295Y-75398285D01*
X146838295Y-75398285D02*
X146933533Y-75398285D01*
X146933533Y-75398285D02*
X147028771Y-75350666D01*
X147028771Y-75350666D02*
X147076390Y-75303047D01*
X147076390Y-75303047D02*
X147124009Y-75207809D01*
X147124009Y-75207809D02*
X147124009Y-74874476D01*
X147647819Y-76398285D02*
X147647819Y-75826857D01*
X147647819Y-76112571D02*
X146647819Y-76112571D01*
X146647819Y-76112571D02*
X146790676Y-76017333D01*
X146790676Y-76017333D02*
X146885914Y-75922095D01*
X146885914Y-75922095D02*
X146933533Y-75826857D01*
X153759819Y-80446666D02*
X154474104Y-80446666D01*
X154474104Y-80446666D02*
X154616961Y-80399047D01*
X154616961Y-80399047D02*
X154712200Y-80303809D01*
X154712200Y-80303809D02*
X154759819Y-80160952D01*
X154759819Y-80160952D02*
X154759819Y-80065714D01*
X154759819Y-80922857D02*
X153759819Y-80922857D01*
X153759819Y-80922857D02*
X153759819Y-81303809D01*
X153759819Y-81303809D02*
X153807438Y-81399047D01*
X153807438Y-81399047D02*
X153855057Y-81446666D01*
X153855057Y-81446666D02*
X153950295Y-81494285D01*
X153950295Y-81494285D02*
X154093152Y-81494285D01*
X154093152Y-81494285D02*
X154188390Y-81446666D01*
X154188390Y-81446666D02*
X154236009Y-81399047D01*
X154236009Y-81399047D02*
X154283628Y-81303809D01*
X154283628Y-81303809D02*
X154283628Y-80922857D01*
X153759819Y-81827619D02*
X153759819Y-82446666D01*
X153759819Y-82446666D02*
X154140771Y-82113333D01*
X154140771Y-82113333D02*
X154140771Y-82256190D01*
X154140771Y-82256190D02*
X154188390Y-82351428D01*
X154188390Y-82351428D02*
X154236009Y-82399047D01*
X154236009Y-82399047D02*
X154331247Y-82446666D01*
X154331247Y-82446666D02*
X154569342Y-82446666D01*
X154569342Y-82446666D02*
X154664580Y-82399047D01*
X154664580Y-82399047D02*
X154712200Y-82351428D01*
X154712200Y-82351428D02*
X154759819Y-82256190D01*
X154759819Y-82256190D02*
X154759819Y-81970476D01*
X154759819Y-81970476D02*
X154712200Y-81875238D01*
X154712200Y-81875238D02*
X154664580Y-81827619D01*
X180888819Y-41013142D02*
X180412628Y-40679809D01*
X180888819Y-40441714D02*
X179888819Y-40441714D01*
X179888819Y-40441714D02*
X179888819Y-40822666D01*
X179888819Y-40822666D02*
X179936438Y-40917904D01*
X179936438Y-40917904D02*
X179984057Y-40965523D01*
X179984057Y-40965523D02*
X180079295Y-41013142D01*
X180079295Y-41013142D02*
X180222152Y-41013142D01*
X180222152Y-41013142D02*
X180317390Y-40965523D01*
X180317390Y-40965523D02*
X180365009Y-40917904D01*
X180365009Y-40917904D02*
X180412628Y-40822666D01*
X180412628Y-40822666D02*
X180412628Y-40441714D01*
X179888819Y-41346476D02*
X179888819Y-42013142D01*
X179888819Y-42013142D02*
X180888819Y-41584571D01*
X180888819Y-42441714D02*
X180888819Y-42632190D01*
X180888819Y-42632190D02*
X180841200Y-42727428D01*
X180841200Y-42727428D02*
X180793580Y-42775047D01*
X180793580Y-42775047D02*
X180650723Y-42870285D01*
X180650723Y-42870285D02*
X180460247Y-42917904D01*
X180460247Y-42917904D02*
X180079295Y-42917904D01*
X180079295Y-42917904D02*
X179984057Y-42870285D01*
X179984057Y-42870285D02*
X179936438Y-42822666D01*
X179936438Y-42822666D02*
X179888819Y-42727428D01*
X179888819Y-42727428D02*
X179888819Y-42536952D01*
X179888819Y-42536952D02*
X179936438Y-42441714D01*
X179936438Y-42441714D02*
X179984057Y-42394095D01*
X179984057Y-42394095D02*
X180079295Y-42346476D01*
X180079295Y-42346476D02*
X180317390Y-42346476D01*
X180317390Y-42346476D02*
X180412628Y-42394095D01*
X180412628Y-42394095D02*
X180460247Y-42441714D01*
X180460247Y-42441714D02*
X180507866Y-42536952D01*
X180507866Y-42536952D02*
X180507866Y-42727428D01*
X180507866Y-42727428D02*
X180460247Y-42822666D01*
X180460247Y-42822666D02*
X180412628Y-42870285D01*
X180412628Y-42870285D02*
X180317390Y-42917904D01*
X125676819Y-71366142D02*
X125200628Y-71032809D01*
X125676819Y-70794714D02*
X124676819Y-70794714D01*
X124676819Y-70794714D02*
X124676819Y-71175666D01*
X124676819Y-71175666D02*
X124724438Y-71270904D01*
X124724438Y-71270904D02*
X124772057Y-71318523D01*
X124772057Y-71318523D02*
X124867295Y-71366142D01*
X124867295Y-71366142D02*
X125010152Y-71366142D01*
X125010152Y-71366142D02*
X125105390Y-71318523D01*
X125105390Y-71318523D02*
X125153009Y-71270904D01*
X125153009Y-71270904D02*
X125200628Y-71175666D01*
X125200628Y-71175666D02*
X125200628Y-70794714D01*
X124676819Y-72223285D02*
X124676819Y-72032809D01*
X124676819Y-72032809D02*
X124724438Y-71937571D01*
X124724438Y-71937571D02*
X124772057Y-71889952D01*
X124772057Y-71889952D02*
X124914914Y-71794714D01*
X124914914Y-71794714D02*
X125105390Y-71747095D01*
X125105390Y-71747095D02*
X125486342Y-71747095D01*
X125486342Y-71747095D02*
X125581580Y-71794714D01*
X125581580Y-71794714D02*
X125629200Y-71842333D01*
X125629200Y-71842333D02*
X125676819Y-71937571D01*
X125676819Y-71937571D02*
X125676819Y-72128047D01*
X125676819Y-72128047D02*
X125629200Y-72223285D01*
X125629200Y-72223285D02*
X125581580Y-72270904D01*
X125581580Y-72270904D02*
X125486342Y-72318523D01*
X125486342Y-72318523D02*
X125248247Y-72318523D01*
X125248247Y-72318523D02*
X125153009Y-72270904D01*
X125153009Y-72270904D02*
X125105390Y-72223285D01*
X125105390Y-72223285D02*
X125057771Y-72128047D01*
X125057771Y-72128047D02*
X125057771Y-71937571D01*
X125057771Y-71937571D02*
X125105390Y-71842333D01*
X125105390Y-71842333D02*
X125153009Y-71794714D01*
X125153009Y-71794714D02*
X125248247Y-71747095D01*
X124676819Y-72651857D02*
X124676819Y-73270904D01*
X124676819Y-73270904D02*
X125057771Y-72937571D01*
X125057771Y-72937571D02*
X125057771Y-73080428D01*
X125057771Y-73080428D02*
X125105390Y-73175666D01*
X125105390Y-73175666D02*
X125153009Y-73223285D01*
X125153009Y-73223285D02*
X125248247Y-73270904D01*
X125248247Y-73270904D02*
X125486342Y-73270904D01*
X125486342Y-73270904D02*
X125581580Y-73223285D01*
X125581580Y-73223285D02*
X125629200Y-73175666D01*
X125629200Y-73175666D02*
X125676819Y-73080428D01*
X125676819Y-73080428D02*
X125676819Y-72794714D01*
X125676819Y-72794714D02*
X125629200Y-72699476D01*
X125629200Y-72699476D02*
X125581580Y-72651857D01*
X138789580Y-94734142D02*
X138837200Y-94686523D01*
X138837200Y-94686523D02*
X138884819Y-94543666D01*
X138884819Y-94543666D02*
X138884819Y-94448428D01*
X138884819Y-94448428D02*
X138837200Y-94305571D01*
X138837200Y-94305571D02*
X138741961Y-94210333D01*
X138741961Y-94210333D02*
X138646723Y-94162714D01*
X138646723Y-94162714D02*
X138456247Y-94115095D01*
X138456247Y-94115095D02*
X138313390Y-94115095D01*
X138313390Y-94115095D02*
X138122914Y-94162714D01*
X138122914Y-94162714D02*
X138027676Y-94210333D01*
X138027676Y-94210333D02*
X137932438Y-94305571D01*
X137932438Y-94305571D02*
X137884819Y-94448428D01*
X137884819Y-94448428D02*
X137884819Y-94543666D01*
X137884819Y-94543666D02*
X137932438Y-94686523D01*
X137932438Y-94686523D02*
X137980057Y-94734142D01*
X137980057Y-95115095D02*
X137932438Y-95162714D01*
X137932438Y-95162714D02*
X137884819Y-95257952D01*
X137884819Y-95257952D02*
X137884819Y-95496047D01*
X137884819Y-95496047D02*
X137932438Y-95591285D01*
X137932438Y-95591285D02*
X137980057Y-95638904D01*
X137980057Y-95638904D02*
X138075295Y-95686523D01*
X138075295Y-95686523D02*
X138170533Y-95686523D01*
X138170533Y-95686523D02*
X138313390Y-95638904D01*
X138313390Y-95638904D02*
X138884819Y-95067476D01*
X138884819Y-95067476D02*
X138884819Y-95686523D01*
X137884819Y-96591285D02*
X137884819Y-96115095D01*
X137884819Y-96115095D02*
X138361009Y-96067476D01*
X138361009Y-96067476D02*
X138313390Y-96115095D01*
X138313390Y-96115095D02*
X138265771Y-96210333D01*
X138265771Y-96210333D02*
X138265771Y-96448428D01*
X138265771Y-96448428D02*
X138313390Y-96543666D01*
X138313390Y-96543666D02*
X138361009Y-96591285D01*
X138361009Y-96591285D02*
X138456247Y-96638904D01*
X138456247Y-96638904D02*
X138694342Y-96638904D01*
X138694342Y-96638904D02*
X138789580Y-96591285D01*
X138789580Y-96591285D02*
X138837200Y-96543666D01*
X138837200Y-96543666D02*
X138884819Y-96448428D01*
X138884819Y-96448428D02*
X138884819Y-96210333D01*
X138884819Y-96210333D02*
X138837200Y-96115095D01*
X138837200Y-96115095D02*
X138789580Y-96067476D01*
X122842857Y-59454819D02*
X123176190Y-58978628D01*
X123414285Y-59454819D02*
X123414285Y-58454819D01*
X123414285Y-58454819D02*
X123033333Y-58454819D01*
X123033333Y-58454819D02*
X122938095Y-58502438D01*
X122938095Y-58502438D02*
X122890476Y-58550057D01*
X122890476Y-58550057D02*
X122842857Y-58645295D01*
X122842857Y-58645295D02*
X122842857Y-58788152D01*
X122842857Y-58788152D02*
X122890476Y-58883390D01*
X122890476Y-58883390D02*
X122938095Y-58931009D01*
X122938095Y-58931009D02*
X123033333Y-58978628D01*
X123033333Y-58978628D02*
X123414285Y-58978628D01*
X121938095Y-58454819D02*
X122414285Y-58454819D01*
X122414285Y-58454819D02*
X122461904Y-58931009D01*
X122461904Y-58931009D02*
X122414285Y-58883390D01*
X122414285Y-58883390D02*
X122319047Y-58835771D01*
X122319047Y-58835771D02*
X122080952Y-58835771D01*
X122080952Y-58835771D02*
X121985714Y-58883390D01*
X121985714Y-58883390D02*
X121938095Y-58931009D01*
X121938095Y-58931009D02*
X121890476Y-59026247D01*
X121890476Y-59026247D02*
X121890476Y-59264342D01*
X121890476Y-59264342D02*
X121938095Y-59359580D01*
X121938095Y-59359580D02*
X121985714Y-59407200D01*
X121985714Y-59407200D02*
X122080952Y-59454819D01*
X122080952Y-59454819D02*
X122319047Y-59454819D01*
X122319047Y-59454819D02*
X122414285Y-59407200D01*
X122414285Y-59407200D02*
X122461904Y-59359580D01*
X120938095Y-59454819D02*
X121509523Y-59454819D01*
X121223809Y-59454819D02*
X121223809Y-58454819D01*
X121223809Y-58454819D02*
X121319047Y-58597676D01*
X121319047Y-58597676D02*
X121414285Y-58692914D01*
X121414285Y-58692914D02*
X121509523Y-58740533D01*
X136786857Y-83824819D02*
X137120190Y-83348628D01*
X137358285Y-83824819D02*
X137358285Y-82824819D01*
X137358285Y-82824819D02*
X136977333Y-82824819D01*
X136977333Y-82824819D02*
X136882095Y-82872438D01*
X136882095Y-82872438D02*
X136834476Y-82920057D01*
X136834476Y-82920057D02*
X136786857Y-83015295D01*
X136786857Y-83015295D02*
X136786857Y-83158152D01*
X136786857Y-83158152D02*
X136834476Y-83253390D01*
X136834476Y-83253390D02*
X136882095Y-83301009D01*
X136882095Y-83301009D02*
X136977333Y-83348628D01*
X136977333Y-83348628D02*
X137358285Y-83348628D01*
X135929714Y-83158152D02*
X135929714Y-83824819D01*
X136167809Y-82777200D02*
X136405904Y-83491485D01*
X136405904Y-83491485D02*
X135786857Y-83491485D01*
X135501142Y-82824819D02*
X134834476Y-82824819D01*
X134834476Y-82824819D02*
X135263047Y-83824819D01*
X148788333Y-79718819D02*
X148788333Y-80433104D01*
X148788333Y-80433104D02*
X148835952Y-80575961D01*
X148835952Y-80575961D02*
X148931190Y-80671200D01*
X148931190Y-80671200D02*
X149074047Y-80718819D01*
X149074047Y-80718819D02*
X149169285Y-80718819D01*
X148312142Y-80718819D02*
X148312142Y-79718819D01*
X148312142Y-79718819D02*
X147931190Y-79718819D01*
X147931190Y-79718819D02*
X147835952Y-79766438D01*
X147835952Y-79766438D02*
X147788333Y-79814057D01*
X147788333Y-79814057D02*
X147740714Y-79909295D01*
X147740714Y-79909295D02*
X147740714Y-80052152D01*
X147740714Y-80052152D02*
X147788333Y-80147390D01*
X147788333Y-80147390D02*
X147835952Y-80195009D01*
X147835952Y-80195009D02*
X147931190Y-80242628D01*
X147931190Y-80242628D02*
X148312142Y-80242628D01*
X147359761Y-79814057D02*
X147312142Y-79766438D01*
X147312142Y-79766438D02*
X147216904Y-79718819D01*
X147216904Y-79718819D02*
X146978809Y-79718819D01*
X146978809Y-79718819D02*
X146883571Y-79766438D01*
X146883571Y-79766438D02*
X146835952Y-79814057D01*
X146835952Y-79814057D02*
X146788333Y-79909295D01*
X146788333Y-79909295D02*
X146788333Y-80004533D01*
X146788333Y-80004533D02*
X146835952Y-80147390D01*
X146835952Y-80147390D02*
X147407380Y-80718819D01*
X147407380Y-80718819D02*
X146788333Y-80718819D01*
X112656857Y-65637580D02*
X112704476Y-65685200D01*
X112704476Y-65685200D02*
X112847333Y-65732819D01*
X112847333Y-65732819D02*
X112942571Y-65732819D01*
X112942571Y-65732819D02*
X113085428Y-65685200D01*
X113085428Y-65685200D02*
X113180666Y-65589961D01*
X113180666Y-65589961D02*
X113228285Y-65494723D01*
X113228285Y-65494723D02*
X113275904Y-65304247D01*
X113275904Y-65304247D02*
X113275904Y-65161390D01*
X113275904Y-65161390D02*
X113228285Y-64970914D01*
X113228285Y-64970914D02*
X113180666Y-64875676D01*
X113180666Y-64875676D02*
X113085428Y-64780438D01*
X113085428Y-64780438D02*
X112942571Y-64732819D01*
X112942571Y-64732819D02*
X112847333Y-64732819D01*
X112847333Y-64732819D02*
X112704476Y-64780438D01*
X112704476Y-64780438D02*
X112656857Y-64828057D01*
X112323523Y-64732819D02*
X111704476Y-64732819D01*
X111704476Y-64732819D02*
X112037809Y-65113771D01*
X112037809Y-65113771D02*
X111894952Y-65113771D01*
X111894952Y-65113771D02*
X111799714Y-65161390D01*
X111799714Y-65161390D02*
X111752095Y-65209009D01*
X111752095Y-65209009D02*
X111704476Y-65304247D01*
X111704476Y-65304247D02*
X111704476Y-65542342D01*
X111704476Y-65542342D02*
X111752095Y-65637580D01*
X111752095Y-65637580D02*
X111799714Y-65685200D01*
X111799714Y-65685200D02*
X111894952Y-65732819D01*
X111894952Y-65732819D02*
X112180666Y-65732819D01*
X112180666Y-65732819D02*
X112275904Y-65685200D01*
X112275904Y-65685200D02*
X112323523Y-65637580D01*
X110847333Y-65066152D02*
X110847333Y-65732819D01*
X111085428Y-64685200D02*
X111323523Y-65399485D01*
X111323523Y-65399485D02*
X110704476Y-65399485D01*
X173616857Y-82115819D02*
X173950190Y-81639628D01*
X174188285Y-82115819D02*
X174188285Y-81115819D01*
X174188285Y-81115819D02*
X173807333Y-81115819D01*
X173807333Y-81115819D02*
X173712095Y-81163438D01*
X173712095Y-81163438D02*
X173664476Y-81211057D01*
X173664476Y-81211057D02*
X173616857Y-81306295D01*
X173616857Y-81306295D02*
X173616857Y-81449152D01*
X173616857Y-81449152D02*
X173664476Y-81544390D01*
X173664476Y-81544390D02*
X173712095Y-81592009D01*
X173712095Y-81592009D02*
X173807333Y-81639628D01*
X173807333Y-81639628D02*
X174188285Y-81639628D01*
X173045428Y-81544390D02*
X173140666Y-81496771D01*
X173140666Y-81496771D02*
X173188285Y-81449152D01*
X173188285Y-81449152D02*
X173235904Y-81353914D01*
X173235904Y-81353914D02*
X173235904Y-81306295D01*
X173235904Y-81306295D02*
X173188285Y-81211057D01*
X173188285Y-81211057D02*
X173140666Y-81163438D01*
X173140666Y-81163438D02*
X173045428Y-81115819D01*
X173045428Y-81115819D02*
X172854952Y-81115819D01*
X172854952Y-81115819D02*
X172759714Y-81163438D01*
X172759714Y-81163438D02*
X172712095Y-81211057D01*
X172712095Y-81211057D02*
X172664476Y-81306295D01*
X172664476Y-81306295D02*
X172664476Y-81353914D01*
X172664476Y-81353914D02*
X172712095Y-81449152D01*
X172712095Y-81449152D02*
X172759714Y-81496771D01*
X172759714Y-81496771D02*
X172854952Y-81544390D01*
X172854952Y-81544390D02*
X173045428Y-81544390D01*
X173045428Y-81544390D02*
X173140666Y-81592009D01*
X173140666Y-81592009D02*
X173188285Y-81639628D01*
X173188285Y-81639628D02*
X173235904Y-81734866D01*
X173235904Y-81734866D02*
X173235904Y-81925342D01*
X173235904Y-81925342D02*
X173188285Y-82020580D01*
X173188285Y-82020580D02*
X173140666Y-82068200D01*
X173140666Y-82068200D02*
X173045428Y-82115819D01*
X173045428Y-82115819D02*
X172854952Y-82115819D01*
X172854952Y-82115819D02*
X172759714Y-82068200D01*
X172759714Y-82068200D02*
X172712095Y-82020580D01*
X172712095Y-82020580D02*
X172664476Y-81925342D01*
X172664476Y-81925342D02*
X172664476Y-81734866D01*
X172664476Y-81734866D02*
X172712095Y-81639628D01*
X172712095Y-81639628D02*
X172759714Y-81592009D01*
X172759714Y-81592009D02*
X172854952Y-81544390D01*
X172331142Y-81115819D02*
X171712095Y-81115819D01*
X171712095Y-81115819D02*
X172045428Y-81496771D01*
X172045428Y-81496771D02*
X171902571Y-81496771D01*
X171902571Y-81496771D02*
X171807333Y-81544390D01*
X171807333Y-81544390D02*
X171759714Y-81592009D01*
X171759714Y-81592009D02*
X171712095Y-81687247D01*
X171712095Y-81687247D02*
X171712095Y-81925342D01*
X171712095Y-81925342D02*
X171759714Y-82020580D01*
X171759714Y-82020580D02*
X171807333Y-82068200D01*
X171807333Y-82068200D02*
X171902571Y-82115819D01*
X171902571Y-82115819D02*
X172188285Y-82115819D01*
X172188285Y-82115819D02*
X172283523Y-82068200D01*
X172283523Y-82068200D02*
X172331142Y-82020580D01*
X157773666Y-82496819D02*
X158106999Y-82020628D01*
X158345094Y-82496819D02*
X158345094Y-81496819D01*
X158345094Y-81496819D02*
X157964142Y-81496819D01*
X157964142Y-81496819D02*
X157868904Y-81544438D01*
X157868904Y-81544438D02*
X157821285Y-81592057D01*
X157821285Y-81592057D02*
X157773666Y-81687295D01*
X157773666Y-81687295D02*
X157773666Y-81830152D01*
X157773666Y-81830152D02*
X157821285Y-81925390D01*
X157821285Y-81925390D02*
X157868904Y-81973009D01*
X157868904Y-81973009D02*
X157964142Y-82020628D01*
X157964142Y-82020628D02*
X158345094Y-82020628D01*
X156916523Y-81496819D02*
X157106999Y-81496819D01*
X157106999Y-81496819D02*
X157202237Y-81544438D01*
X157202237Y-81544438D02*
X157249856Y-81592057D01*
X157249856Y-81592057D02*
X157345094Y-81734914D01*
X157345094Y-81734914D02*
X157392713Y-81925390D01*
X157392713Y-81925390D02*
X157392713Y-82306342D01*
X157392713Y-82306342D02*
X157345094Y-82401580D01*
X157345094Y-82401580D02*
X157297475Y-82449200D01*
X157297475Y-82449200D02*
X157202237Y-82496819D01*
X157202237Y-82496819D02*
X157011761Y-82496819D01*
X157011761Y-82496819D02*
X156916523Y-82449200D01*
X156916523Y-82449200D02*
X156868904Y-82401580D01*
X156868904Y-82401580D02*
X156821285Y-82306342D01*
X156821285Y-82306342D02*
X156821285Y-82068247D01*
X156821285Y-82068247D02*
X156868904Y-81973009D01*
X156868904Y-81973009D02*
X156916523Y-81925390D01*
X156916523Y-81925390D02*
X157011761Y-81877771D01*
X157011761Y-81877771D02*
X157202237Y-81877771D01*
X157202237Y-81877771D02*
X157297475Y-81925390D01*
X157297475Y-81925390D02*
X157345094Y-81973009D01*
X157345094Y-81973009D02*
X157392713Y-82068247D01*
X110824819Y-68357142D02*
X110348628Y-68023809D01*
X110824819Y-67785714D02*
X109824819Y-67785714D01*
X109824819Y-67785714D02*
X109824819Y-68166666D01*
X109824819Y-68166666D02*
X109872438Y-68261904D01*
X109872438Y-68261904D02*
X109920057Y-68309523D01*
X109920057Y-68309523D02*
X110015295Y-68357142D01*
X110015295Y-68357142D02*
X110158152Y-68357142D01*
X110158152Y-68357142D02*
X110253390Y-68309523D01*
X110253390Y-68309523D02*
X110301009Y-68261904D01*
X110301009Y-68261904D02*
X110348628Y-68166666D01*
X110348628Y-68166666D02*
X110348628Y-67785714D01*
X109824819Y-69261904D02*
X109824819Y-68785714D01*
X109824819Y-68785714D02*
X110301009Y-68738095D01*
X110301009Y-68738095D02*
X110253390Y-68785714D01*
X110253390Y-68785714D02*
X110205771Y-68880952D01*
X110205771Y-68880952D02*
X110205771Y-69119047D01*
X110205771Y-69119047D02*
X110253390Y-69214285D01*
X110253390Y-69214285D02*
X110301009Y-69261904D01*
X110301009Y-69261904D02*
X110396247Y-69309523D01*
X110396247Y-69309523D02*
X110634342Y-69309523D01*
X110634342Y-69309523D02*
X110729580Y-69261904D01*
X110729580Y-69261904D02*
X110777200Y-69214285D01*
X110777200Y-69214285D02*
X110824819Y-69119047D01*
X110824819Y-69119047D02*
X110824819Y-68880952D01*
X110824819Y-68880952D02*
X110777200Y-68785714D01*
X110777200Y-68785714D02*
X110729580Y-68738095D01*
X109824819Y-70214285D02*
X109824819Y-69738095D01*
X109824819Y-69738095D02*
X110301009Y-69690476D01*
X110301009Y-69690476D02*
X110253390Y-69738095D01*
X110253390Y-69738095D02*
X110205771Y-69833333D01*
X110205771Y-69833333D02*
X110205771Y-70071428D01*
X110205771Y-70071428D02*
X110253390Y-70166666D01*
X110253390Y-70166666D02*
X110301009Y-70214285D01*
X110301009Y-70214285D02*
X110396247Y-70261904D01*
X110396247Y-70261904D02*
X110634342Y-70261904D01*
X110634342Y-70261904D02*
X110729580Y-70214285D01*
X110729580Y-70214285D02*
X110777200Y-70166666D01*
X110777200Y-70166666D02*
X110824819Y-70071428D01*
X110824819Y-70071428D02*
X110824819Y-69833333D01*
X110824819Y-69833333D02*
X110777200Y-69738095D01*
X110777200Y-69738095D02*
X110729580Y-69690476D01*
X151235580Y-77176333D02*
X151283200Y-77128714D01*
X151283200Y-77128714D02*
X151330819Y-76985857D01*
X151330819Y-76985857D02*
X151330819Y-76890619D01*
X151330819Y-76890619D02*
X151283200Y-76747762D01*
X151283200Y-76747762D02*
X151187961Y-76652524D01*
X151187961Y-76652524D02*
X151092723Y-76604905D01*
X151092723Y-76604905D02*
X150902247Y-76557286D01*
X150902247Y-76557286D02*
X150759390Y-76557286D01*
X150759390Y-76557286D02*
X150568914Y-76604905D01*
X150568914Y-76604905D02*
X150473676Y-76652524D01*
X150473676Y-76652524D02*
X150378438Y-76747762D01*
X150378438Y-76747762D02*
X150330819Y-76890619D01*
X150330819Y-76890619D02*
X150330819Y-76985857D01*
X150330819Y-76985857D02*
X150378438Y-77128714D01*
X150378438Y-77128714D02*
X150426057Y-77176333D01*
X150426057Y-77557286D02*
X150378438Y-77604905D01*
X150378438Y-77604905D02*
X150330819Y-77700143D01*
X150330819Y-77700143D02*
X150330819Y-77938238D01*
X150330819Y-77938238D02*
X150378438Y-78033476D01*
X150378438Y-78033476D02*
X150426057Y-78081095D01*
X150426057Y-78081095D02*
X150521295Y-78128714D01*
X150521295Y-78128714D02*
X150616533Y-78128714D01*
X150616533Y-78128714D02*
X150759390Y-78081095D01*
X150759390Y-78081095D02*
X151330819Y-77509667D01*
X151330819Y-77509667D02*
X151330819Y-78128714D01*
X165759580Y-55433333D02*
X165807200Y-55385714D01*
X165807200Y-55385714D02*
X165854819Y-55242857D01*
X165854819Y-55242857D02*
X165854819Y-55147619D01*
X165854819Y-55147619D02*
X165807200Y-55004762D01*
X165807200Y-55004762D02*
X165711961Y-54909524D01*
X165711961Y-54909524D02*
X165616723Y-54861905D01*
X165616723Y-54861905D02*
X165426247Y-54814286D01*
X165426247Y-54814286D02*
X165283390Y-54814286D01*
X165283390Y-54814286D02*
X165092914Y-54861905D01*
X165092914Y-54861905D02*
X164997676Y-54909524D01*
X164997676Y-54909524D02*
X164902438Y-55004762D01*
X164902438Y-55004762D02*
X164854819Y-55147619D01*
X164854819Y-55147619D02*
X164854819Y-55242857D01*
X164854819Y-55242857D02*
X164902438Y-55385714D01*
X164902438Y-55385714D02*
X164950057Y-55433333D01*
X165854819Y-56385714D02*
X165854819Y-55814286D01*
X165854819Y-56100000D02*
X164854819Y-56100000D01*
X164854819Y-56100000D02*
X164997676Y-56004762D01*
X164997676Y-56004762D02*
X165092914Y-55909524D01*
X165092914Y-55909524D02*
X165140533Y-55814286D01*
X132242857Y-70454819D02*
X132576190Y-69978628D01*
X132814285Y-70454819D02*
X132814285Y-69454819D01*
X132814285Y-69454819D02*
X132433333Y-69454819D01*
X132433333Y-69454819D02*
X132338095Y-69502438D01*
X132338095Y-69502438D02*
X132290476Y-69550057D01*
X132290476Y-69550057D02*
X132242857Y-69645295D01*
X132242857Y-69645295D02*
X132242857Y-69788152D01*
X132242857Y-69788152D02*
X132290476Y-69883390D01*
X132290476Y-69883390D02*
X132338095Y-69931009D01*
X132338095Y-69931009D02*
X132433333Y-69978628D01*
X132433333Y-69978628D02*
X132814285Y-69978628D01*
X131385714Y-69454819D02*
X131576190Y-69454819D01*
X131576190Y-69454819D02*
X131671428Y-69502438D01*
X131671428Y-69502438D02*
X131719047Y-69550057D01*
X131719047Y-69550057D02*
X131814285Y-69692914D01*
X131814285Y-69692914D02*
X131861904Y-69883390D01*
X131861904Y-69883390D02*
X131861904Y-70264342D01*
X131861904Y-70264342D02*
X131814285Y-70359580D01*
X131814285Y-70359580D02*
X131766666Y-70407200D01*
X131766666Y-70407200D02*
X131671428Y-70454819D01*
X131671428Y-70454819D02*
X131480952Y-70454819D01*
X131480952Y-70454819D02*
X131385714Y-70407200D01*
X131385714Y-70407200D02*
X131338095Y-70359580D01*
X131338095Y-70359580D02*
X131290476Y-70264342D01*
X131290476Y-70264342D02*
X131290476Y-70026247D01*
X131290476Y-70026247D02*
X131338095Y-69931009D01*
X131338095Y-69931009D02*
X131385714Y-69883390D01*
X131385714Y-69883390D02*
X131480952Y-69835771D01*
X131480952Y-69835771D02*
X131671428Y-69835771D01*
X131671428Y-69835771D02*
X131766666Y-69883390D01*
X131766666Y-69883390D02*
X131814285Y-69931009D01*
X131814285Y-69931009D02*
X131861904Y-70026247D01*
X130338095Y-70454819D02*
X130909523Y-70454819D01*
X130623809Y-70454819D02*
X130623809Y-69454819D01*
X130623809Y-69454819D02*
X130719047Y-69597676D01*
X130719047Y-69597676D02*
X130814285Y-69692914D01*
X130814285Y-69692914D02*
X130909523Y-69740533D01*
X178061857Y-86814819D02*
X178395190Y-86338628D01*
X178633285Y-86814819D02*
X178633285Y-85814819D01*
X178633285Y-85814819D02*
X178252333Y-85814819D01*
X178252333Y-85814819D02*
X178157095Y-85862438D01*
X178157095Y-85862438D02*
X178109476Y-85910057D01*
X178109476Y-85910057D02*
X178061857Y-86005295D01*
X178061857Y-86005295D02*
X178061857Y-86148152D01*
X178061857Y-86148152D02*
X178109476Y-86243390D01*
X178109476Y-86243390D02*
X178157095Y-86291009D01*
X178157095Y-86291009D02*
X178252333Y-86338628D01*
X178252333Y-86338628D02*
X178633285Y-86338628D01*
X177490428Y-86243390D02*
X177585666Y-86195771D01*
X177585666Y-86195771D02*
X177633285Y-86148152D01*
X177633285Y-86148152D02*
X177680904Y-86052914D01*
X177680904Y-86052914D02*
X177680904Y-86005295D01*
X177680904Y-86005295D02*
X177633285Y-85910057D01*
X177633285Y-85910057D02*
X177585666Y-85862438D01*
X177585666Y-85862438D02*
X177490428Y-85814819D01*
X177490428Y-85814819D02*
X177299952Y-85814819D01*
X177299952Y-85814819D02*
X177204714Y-85862438D01*
X177204714Y-85862438D02*
X177157095Y-85910057D01*
X177157095Y-85910057D02*
X177109476Y-86005295D01*
X177109476Y-86005295D02*
X177109476Y-86052914D01*
X177109476Y-86052914D02*
X177157095Y-86148152D01*
X177157095Y-86148152D02*
X177204714Y-86195771D01*
X177204714Y-86195771D02*
X177299952Y-86243390D01*
X177299952Y-86243390D02*
X177490428Y-86243390D01*
X177490428Y-86243390D02*
X177585666Y-86291009D01*
X177585666Y-86291009D02*
X177633285Y-86338628D01*
X177633285Y-86338628D02*
X177680904Y-86433866D01*
X177680904Y-86433866D02*
X177680904Y-86624342D01*
X177680904Y-86624342D02*
X177633285Y-86719580D01*
X177633285Y-86719580D02*
X177585666Y-86767200D01*
X177585666Y-86767200D02*
X177490428Y-86814819D01*
X177490428Y-86814819D02*
X177299952Y-86814819D01*
X177299952Y-86814819D02*
X177204714Y-86767200D01*
X177204714Y-86767200D02*
X177157095Y-86719580D01*
X177157095Y-86719580D02*
X177109476Y-86624342D01*
X177109476Y-86624342D02*
X177109476Y-86433866D01*
X177109476Y-86433866D02*
X177157095Y-86338628D01*
X177157095Y-86338628D02*
X177204714Y-86291009D01*
X177204714Y-86291009D02*
X177299952Y-86243390D01*
X176157095Y-86814819D02*
X176728523Y-86814819D01*
X176442809Y-86814819D02*
X176442809Y-85814819D01*
X176442809Y-85814819D02*
X176538047Y-85957676D01*
X176538047Y-85957676D02*
X176633285Y-86052914D01*
X176633285Y-86052914D02*
X176728523Y-86100533D01*
X133992857Y-47222580D02*
X134040476Y-47270200D01*
X134040476Y-47270200D02*
X134183333Y-47317819D01*
X134183333Y-47317819D02*
X134278571Y-47317819D01*
X134278571Y-47317819D02*
X134421428Y-47270200D01*
X134421428Y-47270200D02*
X134516666Y-47174961D01*
X134516666Y-47174961D02*
X134564285Y-47079723D01*
X134564285Y-47079723D02*
X134611904Y-46889247D01*
X134611904Y-46889247D02*
X134611904Y-46746390D01*
X134611904Y-46746390D02*
X134564285Y-46555914D01*
X134564285Y-46555914D02*
X134516666Y-46460676D01*
X134516666Y-46460676D02*
X134421428Y-46365438D01*
X134421428Y-46365438D02*
X134278571Y-46317819D01*
X134278571Y-46317819D02*
X134183333Y-46317819D01*
X134183333Y-46317819D02*
X134040476Y-46365438D01*
X134040476Y-46365438D02*
X133992857Y-46413057D01*
X133135714Y-46651152D02*
X133135714Y-47317819D01*
X133373809Y-46270200D02*
X133611904Y-46984485D01*
X133611904Y-46984485D02*
X132992857Y-46984485D01*
X132183333Y-46317819D02*
X132373809Y-46317819D01*
X132373809Y-46317819D02*
X132469047Y-46365438D01*
X132469047Y-46365438D02*
X132516666Y-46413057D01*
X132516666Y-46413057D02*
X132611904Y-46555914D01*
X132611904Y-46555914D02*
X132659523Y-46746390D01*
X132659523Y-46746390D02*
X132659523Y-47127342D01*
X132659523Y-47127342D02*
X132611904Y-47222580D01*
X132611904Y-47222580D02*
X132564285Y-47270200D01*
X132564285Y-47270200D02*
X132469047Y-47317819D01*
X132469047Y-47317819D02*
X132278571Y-47317819D01*
X132278571Y-47317819D02*
X132183333Y-47270200D01*
X132183333Y-47270200D02*
X132135714Y-47222580D01*
X132135714Y-47222580D02*
X132088095Y-47127342D01*
X132088095Y-47127342D02*
X132088095Y-46889247D01*
X132088095Y-46889247D02*
X132135714Y-46794009D01*
X132135714Y-46794009D02*
X132183333Y-46746390D01*
X132183333Y-46746390D02*
X132278571Y-46698771D01*
X132278571Y-46698771D02*
X132469047Y-46698771D01*
X132469047Y-46698771D02*
X132564285Y-46746390D01*
X132564285Y-46746390D02*
X132611904Y-46794009D01*
X132611904Y-46794009D02*
X132659523Y-46889247D01*
X132138094Y-75885813D02*
X132138094Y-76695336D01*
X132138094Y-76695336D02*
X132090475Y-76790574D01*
X132090475Y-76790574D02*
X132042856Y-76838194D01*
X132042856Y-76838194D02*
X131947618Y-76885813D01*
X131947618Y-76885813D02*
X131757142Y-76885813D01*
X131757142Y-76885813D02*
X131661904Y-76838194D01*
X131661904Y-76838194D02*
X131614285Y-76790574D01*
X131614285Y-76790574D02*
X131566666Y-76695336D01*
X131566666Y-76695336D02*
X131566666Y-75885813D01*
X130566666Y-76885813D02*
X131138094Y-76885813D01*
X130852380Y-76885813D02*
X130852380Y-75885813D01*
X130852380Y-75885813D02*
X130947618Y-76028670D01*
X130947618Y-76028670D02*
X131042856Y-76123908D01*
X131042856Y-76123908D02*
X131138094Y-76171527D01*
X129947618Y-75885813D02*
X129852380Y-75885813D01*
X129852380Y-75885813D02*
X129757142Y-75933432D01*
X129757142Y-75933432D02*
X129709523Y-75981051D01*
X129709523Y-75981051D02*
X129661904Y-76076289D01*
X129661904Y-76076289D02*
X129614285Y-76266765D01*
X129614285Y-76266765D02*
X129614285Y-76504860D01*
X129614285Y-76504860D02*
X129661904Y-76695336D01*
X129661904Y-76695336D02*
X129709523Y-76790574D01*
X129709523Y-76790574D02*
X129757142Y-76838194D01*
X129757142Y-76838194D02*
X129852380Y-76885813D01*
X129852380Y-76885813D02*
X129947618Y-76885813D01*
X129947618Y-76885813D02*
X130042856Y-76838194D01*
X130042856Y-76838194D02*
X130090475Y-76790574D01*
X130090475Y-76790574D02*
X130138094Y-76695336D01*
X130138094Y-76695336D02*
X130185713Y-76504860D01*
X130185713Y-76504860D02*
X130185713Y-76266765D01*
X130185713Y-76266765D02*
X130138094Y-76076289D01*
X130138094Y-76076289D02*
X130090475Y-75981051D01*
X130090475Y-75981051D02*
X130042856Y-75933432D01*
X130042856Y-75933432D02*
X129947618Y-75885813D01*
X126089580Y-94734142D02*
X126137200Y-94686523D01*
X126137200Y-94686523D02*
X126184819Y-94543666D01*
X126184819Y-94543666D02*
X126184819Y-94448428D01*
X126184819Y-94448428D02*
X126137200Y-94305571D01*
X126137200Y-94305571D02*
X126041961Y-94210333D01*
X126041961Y-94210333D02*
X125946723Y-94162714D01*
X125946723Y-94162714D02*
X125756247Y-94115095D01*
X125756247Y-94115095D02*
X125613390Y-94115095D01*
X125613390Y-94115095D02*
X125422914Y-94162714D01*
X125422914Y-94162714D02*
X125327676Y-94210333D01*
X125327676Y-94210333D02*
X125232438Y-94305571D01*
X125232438Y-94305571D02*
X125184819Y-94448428D01*
X125184819Y-94448428D02*
X125184819Y-94543666D01*
X125184819Y-94543666D02*
X125232438Y-94686523D01*
X125232438Y-94686523D02*
X125280057Y-94734142D01*
X125280057Y-95115095D02*
X125232438Y-95162714D01*
X125232438Y-95162714D02*
X125184819Y-95257952D01*
X125184819Y-95257952D02*
X125184819Y-95496047D01*
X125184819Y-95496047D02*
X125232438Y-95591285D01*
X125232438Y-95591285D02*
X125280057Y-95638904D01*
X125280057Y-95638904D02*
X125375295Y-95686523D01*
X125375295Y-95686523D02*
X125470533Y-95686523D01*
X125470533Y-95686523D02*
X125613390Y-95638904D01*
X125613390Y-95638904D02*
X126184819Y-95067476D01*
X126184819Y-95067476D02*
X126184819Y-95686523D01*
X125184819Y-96305571D02*
X125184819Y-96400809D01*
X125184819Y-96400809D02*
X125232438Y-96496047D01*
X125232438Y-96496047D02*
X125280057Y-96543666D01*
X125280057Y-96543666D02*
X125375295Y-96591285D01*
X125375295Y-96591285D02*
X125565771Y-96638904D01*
X125565771Y-96638904D02*
X125803866Y-96638904D01*
X125803866Y-96638904D02*
X125994342Y-96591285D01*
X125994342Y-96591285D02*
X126089580Y-96543666D01*
X126089580Y-96543666D02*
X126137200Y-96496047D01*
X126137200Y-96496047D02*
X126184819Y-96400809D01*
X126184819Y-96400809D02*
X126184819Y-96305571D01*
X126184819Y-96305571D02*
X126137200Y-96210333D01*
X126137200Y-96210333D02*
X126089580Y-96162714D01*
X126089580Y-96162714D02*
X125994342Y-96115095D01*
X125994342Y-96115095D02*
X125803866Y-96067476D01*
X125803866Y-96067476D02*
X125565771Y-96067476D01*
X125565771Y-96067476D02*
X125375295Y-96115095D01*
X125375295Y-96115095D02*
X125280057Y-96162714D01*
X125280057Y-96162714D02*
X125232438Y-96210333D01*
X125232438Y-96210333D02*
X125184819Y-96305571D01*
X133423819Y-87495142D02*
X132947628Y-87161809D01*
X133423819Y-86923714D02*
X132423819Y-86923714D01*
X132423819Y-86923714D02*
X132423819Y-87304666D01*
X132423819Y-87304666D02*
X132471438Y-87399904D01*
X132471438Y-87399904D02*
X132519057Y-87447523D01*
X132519057Y-87447523D02*
X132614295Y-87495142D01*
X132614295Y-87495142D02*
X132757152Y-87495142D01*
X132757152Y-87495142D02*
X132852390Y-87447523D01*
X132852390Y-87447523D02*
X132900009Y-87399904D01*
X132900009Y-87399904D02*
X132947628Y-87304666D01*
X132947628Y-87304666D02*
X132947628Y-86923714D01*
X132757152Y-88352285D02*
X133423819Y-88352285D01*
X132376200Y-88114190D02*
X133090485Y-87876095D01*
X133090485Y-87876095D02*
X133090485Y-88495142D01*
X132852390Y-89018952D02*
X132804771Y-88923714D01*
X132804771Y-88923714D02*
X132757152Y-88876095D01*
X132757152Y-88876095D02*
X132661914Y-88828476D01*
X132661914Y-88828476D02*
X132614295Y-88828476D01*
X132614295Y-88828476D02*
X132519057Y-88876095D01*
X132519057Y-88876095D02*
X132471438Y-88923714D01*
X132471438Y-88923714D02*
X132423819Y-89018952D01*
X132423819Y-89018952D02*
X132423819Y-89209428D01*
X132423819Y-89209428D02*
X132471438Y-89304666D01*
X132471438Y-89304666D02*
X132519057Y-89352285D01*
X132519057Y-89352285D02*
X132614295Y-89399904D01*
X132614295Y-89399904D02*
X132661914Y-89399904D01*
X132661914Y-89399904D02*
X132757152Y-89352285D01*
X132757152Y-89352285D02*
X132804771Y-89304666D01*
X132804771Y-89304666D02*
X132852390Y-89209428D01*
X132852390Y-89209428D02*
X132852390Y-89018952D01*
X132852390Y-89018952D02*
X132900009Y-88923714D01*
X132900009Y-88923714D02*
X132947628Y-88876095D01*
X132947628Y-88876095D02*
X133042866Y-88828476D01*
X133042866Y-88828476D02*
X133233342Y-88828476D01*
X133233342Y-88828476D02*
X133328580Y-88876095D01*
X133328580Y-88876095D02*
X133376200Y-88923714D01*
X133376200Y-88923714D02*
X133423819Y-89018952D01*
X133423819Y-89018952D02*
X133423819Y-89209428D01*
X133423819Y-89209428D02*
X133376200Y-89304666D01*
X133376200Y-89304666D02*
X133328580Y-89352285D01*
X133328580Y-89352285D02*
X133233342Y-89399904D01*
X133233342Y-89399904D02*
X133042866Y-89399904D01*
X133042866Y-89399904D02*
X132947628Y-89352285D01*
X132947628Y-89352285D02*
X132900009Y-89304666D01*
X132900009Y-89304666D02*
X132852390Y-89209428D01*
X121483285Y-78051819D02*
X121483285Y-77051819D01*
X121483285Y-77051819D02*
X121245190Y-77051819D01*
X121245190Y-77051819D02*
X121102333Y-77099438D01*
X121102333Y-77099438D02*
X121007095Y-77194676D01*
X121007095Y-77194676D02*
X120959476Y-77289914D01*
X120959476Y-77289914D02*
X120911857Y-77480390D01*
X120911857Y-77480390D02*
X120911857Y-77623247D01*
X120911857Y-77623247D02*
X120959476Y-77813723D01*
X120959476Y-77813723D02*
X121007095Y-77908961D01*
X121007095Y-77908961D02*
X121102333Y-78004200D01*
X121102333Y-78004200D02*
X121245190Y-78051819D01*
X121245190Y-78051819D02*
X121483285Y-78051819D01*
X119959476Y-78051819D02*
X120530904Y-78051819D01*
X120245190Y-78051819D02*
X120245190Y-77051819D01*
X120245190Y-77051819D02*
X120340428Y-77194676D01*
X120340428Y-77194676D02*
X120435666Y-77289914D01*
X120435666Y-77289914D02*
X120530904Y-77337533D01*
X119388047Y-77480390D02*
X119483285Y-77432771D01*
X119483285Y-77432771D02*
X119530904Y-77385152D01*
X119530904Y-77385152D02*
X119578523Y-77289914D01*
X119578523Y-77289914D02*
X119578523Y-77242295D01*
X119578523Y-77242295D02*
X119530904Y-77147057D01*
X119530904Y-77147057D02*
X119483285Y-77099438D01*
X119483285Y-77099438D02*
X119388047Y-77051819D01*
X119388047Y-77051819D02*
X119197571Y-77051819D01*
X119197571Y-77051819D02*
X119102333Y-77099438D01*
X119102333Y-77099438D02*
X119054714Y-77147057D01*
X119054714Y-77147057D02*
X119007095Y-77242295D01*
X119007095Y-77242295D02*
X119007095Y-77289914D01*
X119007095Y-77289914D02*
X119054714Y-77385152D01*
X119054714Y-77385152D02*
X119102333Y-77432771D01*
X119102333Y-77432771D02*
X119197571Y-77480390D01*
X119197571Y-77480390D02*
X119388047Y-77480390D01*
X119388047Y-77480390D02*
X119483285Y-77528009D01*
X119483285Y-77528009D02*
X119530904Y-77575628D01*
X119530904Y-77575628D02*
X119578523Y-77670866D01*
X119578523Y-77670866D02*
X119578523Y-77861342D01*
X119578523Y-77861342D02*
X119530904Y-77956580D01*
X119530904Y-77956580D02*
X119483285Y-78004200D01*
X119483285Y-78004200D02*
X119388047Y-78051819D01*
X119388047Y-78051819D02*
X119197571Y-78051819D01*
X119197571Y-78051819D02*
X119102333Y-78004200D01*
X119102333Y-78004200D02*
X119054714Y-77956580D01*
X119054714Y-77956580D02*
X119007095Y-77861342D01*
X119007095Y-77861342D02*
X119007095Y-77670866D01*
X119007095Y-77670866D02*
X119054714Y-77575628D01*
X119054714Y-77575628D02*
X119102333Y-77528009D01*
X119102333Y-77528009D02*
X119197571Y-77480390D01*
X147425580Y-66794142D02*
X147473200Y-66746523D01*
X147473200Y-66746523D02*
X147520819Y-66603666D01*
X147520819Y-66603666D02*
X147520819Y-66508428D01*
X147520819Y-66508428D02*
X147473200Y-66365571D01*
X147473200Y-66365571D02*
X147377961Y-66270333D01*
X147377961Y-66270333D02*
X147282723Y-66222714D01*
X147282723Y-66222714D02*
X147092247Y-66175095D01*
X147092247Y-66175095D02*
X146949390Y-66175095D01*
X146949390Y-66175095D02*
X146758914Y-66222714D01*
X146758914Y-66222714D02*
X146663676Y-66270333D01*
X146663676Y-66270333D02*
X146568438Y-66365571D01*
X146568438Y-66365571D02*
X146520819Y-66508428D01*
X146520819Y-66508428D02*
X146520819Y-66603666D01*
X146520819Y-66603666D02*
X146568438Y-66746523D01*
X146568438Y-66746523D02*
X146616057Y-66794142D01*
X146854152Y-67651285D02*
X147520819Y-67651285D01*
X146473200Y-67413190D02*
X147187485Y-67175095D01*
X147187485Y-67175095D02*
X147187485Y-67794142D01*
X146520819Y-68079857D02*
X146520819Y-68698904D01*
X146520819Y-68698904D02*
X146901771Y-68365571D01*
X146901771Y-68365571D02*
X146901771Y-68508428D01*
X146901771Y-68508428D02*
X146949390Y-68603666D01*
X146949390Y-68603666D02*
X146997009Y-68651285D01*
X146997009Y-68651285D02*
X147092247Y-68698904D01*
X147092247Y-68698904D02*
X147330342Y-68698904D01*
X147330342Y-68698904D02*
X147425580Y-68651285D01*
X147425580Y-68651285D02*
X147473200Y-68603666D01*
X147473200Y-68603666D02*
X147520819Y-68508428D01*
X147520819Y-68508428D02*
X147520819Y-68222714D01*
X147520819Y-68222714D02*
X147473200Y-68127476D01*
X147473200Y-68127476D02*
X147425580Y-68079857D01*
X139612666Y-55826819D02*
X139945999Y-55350628D01*
X140184094Y-55826819D02*
X140184094Y-54826819D01*
X140184094Y-54826819D02*
X139803142Y-54826819D01*
X139803142Y-54826819D02*
X139707904Y-54874438D01*
X139707904Y-54874438D02*
X139660285Y-54922057D01*
X139660285Y-54922057D02*
X139612666Y-55017295D01*
X139612666Y-55017295D02*
X139612666Y-55160152D01*
X139612666Y-55160152D02*
X139660285Y-55255390D01*
X139660285Y-55255390D02*
X139707904Y-55303009D01*
X139707904Y-55303009D02*
X139803142Y-55350628D01*
X139803142Y-55350628D02*
X140184094Y-55350628D01*
X139231713Y-54922057D02*
X139184094Y-54874438D01*
X139184094Y-54874438D02*
X139088856Y-54826819D01*
X139088856Y-54826819D02*
X138850761Y-54826819D01*
X138850761Y-54826819D02*
X138755523Y-54874438D01*
X138755523Y-54874438D02*
X138707904Y-54922057D01*
X138707904Y-54922057D02*
X138660285Y-55017295D01*
X138660285Y-55017295D02*
X138660285Y-55112533D01*
X138660285Y-55112533D02*
X138707904Y-55255390D01*
X138707904Y-55255390D02*
X139279332Y-55826819D01*
X139279332Y-55826819D02*
X138660285Y-55826819D01*
X111159580Y-45157142D02*
X111207200Y-45109523D01*
X111207200Y-45109523D02*
X111254819Y-44966666D01*
X111254819Y-44966666D02*
X111254819Y-44871428D01*
X111254819Y-44871428D02*
X111207200Y-44728571D01*
X111207200Y-44728571D02*
X111111961Y-44633333D01*
X111111961Y-44633333D02*
X111016723Y-44585714D01*
X111016723Y-44585714D02*
X110826247Y-44538095D01*
X110826247Y-44538095D02*
X110683390Y-44538095D01*
X110683390Y-44538095D02*
X110492914Y-44585714D01*
X110492914Y-44585714D02*
X110397676Y-44633333D01*
X110397676Y-44633333D02*
X110302438Y-44728571D01*
X110302438Y-44728571D02*
X110254819Y-44871428D01*
X110254819Y-44871428D02*
X110254819Y-44966666D01*
X110254819Y-44966666D02*
X110302438Y-45109523D01*
X110302438Y-45109523D02*
X110350057Y-45157142D01*
X111254819Y-46109523D02*
X111254819Y-45538095D01*
X111254819Y-45823809D02*
X110254819Y-45823809D01*
X110254819Y-45823809D02*
X110397676Y-45728571D01*
X110397676Y-45728571D02*
X110492914Y-45633333D01*
X110492914Y-45633333D02*
X110540533Y-45538095D01*
X110254819Y-46728571D02*
X110254819Y-46823809D01*
X110254819Y-46823809D02*
X110302438Y-46919047D01*
X110302438Y-46919047D02*
X110350057Y-46966666D01*
X110350057Y-46966666D02*
X110445295Y-47014285D01*
X110445295Y-47014285D02*
X110635771Y-47061904D01*
X110635771Y-47061904D02*
X110873866Y-47061904D01*
X110873866Y-47061904D02*
X111064342Y-47014285D01*
X111064342Y-47014285D02*
X111159580Y-46966666D01*
X111159580Y-46966666D02*
X111207200Y-46919047D01*
X111207200Y-46919047D02*
X111254819Y-46823809D01*
X111254819Y-46823809D02*
X111254819Y-46728571D01*
X111254819Y-46728571D02*
X111207200Y-46633333D01*
X111207200Y-46633333D02*
X111159580Y-46585714D01*
X111159580Y-46585714D02*
X111064342Y-46538095D01*
X111064342Y-46538095D02*
X110873866Y-46490476D01*
X110873866Y-46490476D02*
X110635771Y-46490476D01*
X110635771Y-46490476D02*
X110445295Y-46538095D01*
X110445295Y-46538095D02*
X110350057Y-46585714D01*
X110350057Y-46585714D02*
X110302438Y-46633333D01*
X110302438Y-46633333D02*
X110254819Y-46728571D01*
X124442857Y-74959580D02*
X124490476Y-75007200D01*
X124490476Y-75007200D02*
X124633333Y-75054819D01*
X124633333Y-75054819D02*
X124728571Y-75054819D01*
X124728571Y-75054819D02*
X124871428Y-75007200D01*
X124871428Y-75007200D02*
X124966666Y-74911961D01*
X124966666Y-74911961D02*
X125014285Y-74816723D01*
X125014285Y-74816723D02*
X125061904Y-74626247D01*
X125061904Y-74626247D02*
X125061904Y-74483390D01*
X125061904Y-74483390D02*
X125014285Y-74292914D01*
X125014285Y-74292914D02*
X124966666Y-74197676D01*
X124966666Y-74197676D02*
X124871428Y-74102438D01*
X124871428Y-74102438D02*
X124728571Y-74054819D01*
X124728571Y-74054819D02*
X124633333Y-74054819D01*
X124633333Y-74054819D02*
X124490476Y-74102438D01*
X124490476Y-74102438D02*
X124442857Y-74150057D01*
X124109523Y-74054819D02*
X123490476Y-74054819D01*
X123490476Y-74054819D02*
X123823809Y-74435771D01*
X123823809Y-74435771D02*
X123680952Y-74435771D01*
X123680952Y-74435771D02*
X123585714Y-74483390D01*
X123585714Y-74483390D02*
X123538095Y-74531009D01*
X123538095Y-74531009D02*
X123490476Y-74626247D01*
X123490476Y-74626247D02*
X123490476Y-74864342D01*
X123490476Y-74864342D02*
X123538095Y-74959580D01*
X123538095Y-74959580D02*
X123585714Y-75007200D01*
X123585714Y-75007200D02*
X123680952Y-75054819D01*
X123680952Y-75054819D02*
X123966666Y-75054819D01*
X123966666Y-75054819D02*
X124061904Y-75007200D01*
X124061904Y-75007200D02*
X124109523Y-74959580D01*
X123157142Y-74054819D02*
X122490476Y-74054819D01*
X122490476Y-74054819D02*
X122919047Y-75054819D01*
X112656857Y-59795580D02*
X112704476Y-59843200D01*
X112704476Y-59843200D02*
X112847333Y-59890819D01*
X112847333Y-59890819D02*
X112942571Y-59890819D01*
X112942571Y-59890819D02*
X113085428Y-59843200D01*
X113085428Y-59843200D02*
X113180666Y-59747961D01*
X113180666Y-59747961D02*
X113228285Y-59652723D01*
X113228285Y-59652723D02*
X113275904Y-59462247D01*
X113275904Y-59462247D02*
X113275904Y-59319390D01*
X113275904Y-59319390D02*
X113228285Y-59128914D01*
X113228285Y-59128914D02*
X113180666Y-59033676D01*
X113180666Y-59033676D02*
X113085428Y-58938438D01*
X113085428Y-58938438D02*
X112942571Y-58890819D01*
X112942571Y-58890819D02*
X112847333Y-58890819D01*
X112847333Y-58890819D02*
X112704476Y-58938438D01*
X112704476Y-58938438D02*
X112656857Y-58986057D01*
X112275904Y-58986057D02*
X112228285Y-58938438D01*
X112228285Y-58938438D02*
X112133047Y-58890819D01*
X112133047Y-58890819D02*
X111894952Y-58890819D01*
X111894952Y-58890819D02*
X111799714Y-58938438D01*
X111799714Y-58938438D02*
X111752095Y-58986057D01*
X111752095Y-58986057D02*
X111704476Y-59081295D01*
X111704476Y-59081295D02*
X111704476Y-59176533D01*
X111704476Y-59176533D02*
X111752095Y-59319390D01*
X111752095Y-59319390D02*
X112323523Y-59890819D01*
X112323523Y-59890819D02*
X111704476Y-59890819D01*
X110847333Y-58890819D02*
X111037809Y-58890819D01*
X111037809Y-58890819D02*
X111133047Y-58938438D01*
X111133047Y-58938438D02*
X111180666Y-58986057D01*
X111180666Y-58986057D02*
X111275904Y-59128914D01*
X111275904Y-59128914D02*
X111323523Y-59319390D01*
X111323523Y-59319390D02*
X111323523Y-59700342D01*
X111323523Y-59700342D02*
X111275904Y-59795580D01*
X111275904Y-59795580D02*
X111228285Y-59843200D01*
X111228285Y-59843200D02*
X111133047Y-59890819D01*
X111133047Y-59890819D02*
X110942571Y-59890819D01*
X110942571Y-59890819D02*
X110847333Y-59843200D01*
X110847333Y-59843200D02*
X110799714Y-59795580D01*
X110799714Y-59795580D02*
X110752095Y-59700342D01*
X110752095Y-59700342D02*
X110752095Y-59462247D01*
X110752095Y-59462247D02*
X110799714Y-59367009D01*
X110799714Y-59367009D02*
X110847333Y-59319390D01*
X110847333Y-59319390D02*
X110942571Y-59271771D01*
X110942571Y-59271771D02*
X111133047Y-59271771D01*
X111133047Y-59271771D02*
X111228285Y-59319390D01*
X111228285Y-59319390D02*
X111275904Y-59367009D01*
X111275904Y-59367009D02*
X111323523Y-59462247D01*
X149584580Y-67524333D02*
X149632200Y-67476714D01*
X149632200Y-67476714D02*
X149679819Y-67333857D01*
X149679819Y-67333857D02*
X149679819Y-67238619D01*
X149679819Y-67238619D02*
X149632200Y-67095762D01*
X149632200Y-67095762D02*
X149536961Y-67000524D01*
X149536961Y-67000524D02*
X149441723Y-66952905D01*
X149441723Y-66952905D02*
X149251247Y-66905286D01*
X149251247Y-66905286D02*
X149108390Y-66905286D01*
X149108390Y-66905286D02*
X148917914Y-66952905D01*
X148917914Y-66952905D02*
X148822676Y-67000524D01*
X148822676Y-67000524D02*
X148727438Y-67095762D01*
X148727438Y-67095762D02*
X148679819Y-67238619D01*
X148679819Y-67238619D02*
X148679819Y-67333857D01*
X148679819Y-67333857D02*
X148727438Y-67476714D01*
X148727438Y-67476714D02*
X148775057Y-67524333D01*
X148679819Y-67857667D02*
X148679819Y-68524333D01*
X148679819Y-68524333D02*
X149679819Y-68095762D01*
X152832580Y-63281333D02*
X152880200Y-63233714D01*
X152880200Y-63233714D02*
X152927819Y-63090857D01*
X152927819Y-63090857D02*
X152927819Y-62995619D01*
X152927819Y-62995619D02*
X152880200Y-62852762D01*
X152880200Y-62852762D02*
X152784961Y-62757524D01*
X152784961Y-62757524D02*
X152689723Y-62709905D01*
X152689723Y-62709905D02*
X152499247Y-62662286D01*
X152499247Y-62662286D02*
X152356390Y-62662286D01*
X152356390Y-62662286D02*
X152165914Y-62709905D01*
X152165914Y-62709905D02*
X152070676Y-62757524D01*
X152070676Y-62757524D02*
X151975438Y-62852762D01*
X151975438Y-62852762D02*
X151927819Y-62995619D01*
X151927819Y-62995619D02*
X151927819Y-63090857D01*
X151927819Y-63090857D02*
X151975438Y-63233714D01*
X151975438Y-63233714D02*
X152023057Y-63281333D01*
X152356390Y-63852762D02*
X152308771Y-63757524D01*
X152308771Y-63757524D02*
X152261152Y-63709905D01*
X152261152Y-63709905D02*
X152165914Y-63662286D01*
X152165914Y-63662286D02*
X152118295Y-63662286D01*
X152118295Y-63662286D02*
X152023057Y-63709905D01*
X152023057Y-63709905D02*
X151975438Y-63757524D01*
X151975438Y-63757524D02*
X151927819Y-63852762D01*
X151927819Y-63852762D02*
X151927819Y-64043238D01*
X151927819Y-64043238D02*
X151975438Y-64138476D01*
X151975438Y-64138476D02*
X152023057Y-64186095D01*
X152023057Y-64186095D02*
X152118295Y-64233714D01*
X152118295Y-64233714D02*
X152165914Y-64233714D01*
X152165914Y-64233714D02*
X152261152Y-64186095D01*
X152261152Y-64186095D02*
X152308771Y-64138476D01*
X152308771Y-64138476D02*
X152356390Y-64043238D01*
X152356390Y-64043238D02*
X152356390Y-63852762D01*
X152356390Y-63852762D02*
X152404009Y-63757524D01*
X152404009Y-63757524D02*
X152451628Y-63709905D01*
X152451628Y-63709905D02*
X152546866Y-63662286D01*
X152546866Y-63662286D02*
X152737342Y-63662286D01*
X152737342Y-63662286D02*
X152832580Y-63709905D01*
X152832580Y-63709905D02*
X152880200Y-63757524D01*
X152880200Y-63757524D02*
X152927819Y-63852762D01*
X152927819Y-63852762D02*
X152927819Y-64043238D01*
X152927819Y-64043238D02*
X152880200Y-64138476D01*
X152880200Y-64138476D02*
X152832580Y-64186095D01*
X152832580Y-64186095D02*
X152737342Y-64233714D01*
X152737342Y-64233714D02*
X152546866Y-64233714D01*
X152546866Y-64233714D02*
X152451628Y-64186095D01*
X152451628Y-64186095D02*
X152404009Y-64138476D01*
X152404009Y-64138476D02*
X152356390Y-64043238D01*
X125057819Y-83185095D02*
X125867342Y-83185095D01*
X125867342Y-83185095D02*
X125962580Y-83232714D01*
X125962580Y-83232714D02*
X126010200Y-83280333D01*
X126010200Y-83280333D02*
X126057819Y-83375571D01*
X126057819Y-83375571D02*
X126057819Y-83566047D01*
X126057819Y-83566047D02*
X126010200Y-83661285D01*
X126010200Y-83661285D02*
X125962580Y-83708904D01*
X125962580Y-83708904D02*
X125867342Y-83756523D01*
X125867342Y-83756523D02*
X125057819Y-83756523D01*
X125486390Y-84375571D02*
X125438771Y-84280333D01*
X125438771Y-84280333D02*
X125391152Y-84232714D01*
X125391152Y-84232714D02*
X125295914Y-84185095D01*
X125295914Y-84185095D02*
X125248295Y-84185095D01*
X125248295Y-84185095D02*
X125153057Y-84232714D01*
X125153057Y-84232714D02*
X125105438Y-84280333D01*
X125105438Y-84280333D02*
X125057819Y-84375571D01*
X125057819Y-84375571D02*
X125057819Y-84566047D01*
X125057819Y-84566047D02*
X125105438Y-84661285D01*
X125105438Y-84661285D02*
X125153057Y-84708904D01*
X125153057Y-84708904D02*
X125248295Y-84756523D01*
X125248295Y-84756523D02*
X125295914Y-84756523D01*
X125295914Y-84756523D02*
X125391152Y-84708904D01*
X125391152Y-84708904D02*
X125438771Y-84661285D01*
X125438771Y-84661285D02*
X125486390Y-84566047D01*
X125486390Y-84566047D02*
X125486390Y-84375571D01*
X125486390Y-84375571D02*
X125534009Y-84280333D01*
X125534009Y-84280333D02*
X125581628Y-84232714D01*
X125581628Y-84232714D02*
X125676866Y-84185095D01*
X125676866Y-84185095D02*
X125867342Y-84185095D01*
X125867342Y-84185095D02*
X125962580Y-84232714D01*
X125962580Y-84232714D02*
X126010200Y-84280333D01*
X126010200Y-84280333D02*
X126057819Y-84375571D01*
X126057819Y-84375571D02*
X126057819Y-84566047D01*
X126057819Y-84566047D02*
X126010200Y-84661285D01*
X126010200Y-84661285D02*
X125962580Y-84708904D01*
X125962580Y-84708904D02*
X125867342Y-84756523D01*
X125867342Y-84756523D02*
X125676866Y-84756523D01*
X125676866Y-84756523D02*
X125581628Y-84708904D01*
X125581628Y-84708904D02*
X125534009Y-84661285D01*
X125534009Y-84661285D02*
X125486390Y-84566047D01*
X144091819Y-40854333D02*
X143615628Y-40521000D01*
X144091819Y-40282905D02*
X143091819Y-40282905D01*
X143091819Y-40282905D02*
X143091819Y-40663857D01*
X143091819Y-40663857D02*
X143139438Y-40759095D01*
X143139438Y-40759095D02*
X143187057Y-40806714D01*
X143187057Y-40806714D02*
X143282295Y-40854333D01*
X143282295Y-40854333D02*
X143425152Y-40854333D01*
X143425152Y-40854333D02*
X143520390Y-40806714D01*
X143520390Y-40806714D02*
X143568009Y-40759095D01*
X143568009Y-40759095D02*
X143615628Y-40663857D01*
X143615628Y-40663857D02*
X143615628Y-40282905D01*
X144091819Y-41330524D02*
X144091819Y-41521000D01*
X144091819Y-41521000D02*
X144044200Y-41616238D01*
X144044200Y-41616238D02*
X143996580Y-41663857D01*
X143996580Y-41663857D02*
X143853723Y-41759095D01*
X143853723Y-41759095D02*
X143663247Y-41806714D01*
X143663247Y-41806714D02*
X143282295Y-41806714D01*
X143282295Y-41806714D02*
X143187057Y-41759095D01*
X143187057Y-41759095D02*
X143139438Y-41711476D01*
X143139438Y-41711476D02*
X143091819Y-41616238D01*
X143091819Y-41616238D02*
X143091819Y-41425762D01*
X143091819Y-41425762D02*
X143139438Y-41330524D01*
X143139438Y-41330524D02*
X143187057Y-41282905D01*
X143187057Y-41282905D02*
X143282295Y-41235286D01*
X143282295Y-41235286D02*
X143520390Y-41235286D01*
X143520390Y-41235286D02*
X143615628Y-41282905D01*
X143615628Y-41282905D02*
X143663247Y-41330524D01*
X143663247Y-41330524D02*
X143710866Y-41425762D01*
X143710866Y-41425762D02*
X143710866Y-41616238D01*
X143710866Y-41616238D02*
X143663247Y-41711476D01*
X143663247Y-41711476D02*
X143615628Y-41759095D01*
X143615628Y-41759095D02*
X143520390Y-41806714D01*
X137854819Y-77233333D02*
X137378628Y-76900000D01*
X137854819Y-76661905D02*
X136854819Y-76661905D01*
X136854819Y-76661905D02*
X136854819Y-77042857D01*
X136854819Y-77042857D02*
X136902438Y-77138095D01*
X136902438Y-77138095D02*
X136950057Y-77185714D01*
X136950057Y-77185714D02*
X137045295Y-77233333D01*
X137045295Y-77233333D02*
X137188152Y-77233333D01*
X137188152Y-77233333D02*
X137283390Y-77185714D01*
X137283390Y-77185714D02*
X137331009Y-77138095D01*
X137331009Y-77138095D02*
X137378628Y-77042857D01*
X137378628Y-77042857D02*
X137378628Y-76661905D01*
X136854819Y-77566667D02*
X136854819Y-78233333D01*
X136854819Y-78233333D02*
X137854819Y-77804762D01*
X176537857Y-91164580D02*
X176585476Y-91212200D01*
X176585476Y-91212200D02*
X176728333Y-91259819D01*
X176728333Y-91259819D02*
X176823571Y-91259819D01*
X176823571Y-91259819D02*
X176966428Y-91212200D01*
X176966428Y-91212200D02*
X177061666Y-91116961D01*
X177061666Y-91116961D02*
X177109285Y-91021723D01*
X177109285Y-91021723D02*
X177156904Y-90831247D01*
X177156904Y-90831247D02*
X177156904Y-90688390D01*
X177156904Y-90688390D02*
X177109285Y-90497914D01*
X177109285Y-90497914D02*
X177061666Y-90402676D01*
X177061666Y-90402676D02*
X176966428Y-90307438D01*
X176966428Y-90307438D02*
X176823571Y-90259819D01*
X176823571Y-90259819D02*
X176728333Y-90259819D01*
X176728333Y-90259819D02*
X176585476Y-90307438D01*
X176585476Y-90307438D02*
X176537857Y-90355057D01*
X175680714Y-90593152D02*
X175680714Y-91259819D01*
X175918809Y-90212200D02*
X176156904Y-90926485D01*
X176156904Y-90926485D02*
X175537857Y-90926485D01*
X174728333Y-90593152D02*
X174728333Y-91259819D01*
X174966428Y-90212200D02*
X175204523Y-90926485D01*
X175204523Y-90926485D02*
X174585476Y-90926485D01*
X135559580Y-71757142D02*
X135607200Y-71709523D01*
X135607200Y-71709523D02*
X135654819Y-71566666D01*
X135654819Y-71566666D02*
X135654819Y-71471428D01*
X135654819Y-71471428D02*
X135607200Y-71328571D01*
X135607200Y-71328571D02*
X135511961Y-71233333D01*
X135511961Y-71233333D02*
X135416723Y-71185714D01*
X135416723Y-71185714D02*
X135226247Y-71138095D01*
X135226247Y-71138095D02*
X135083390Y-71138095D01*
X135083390Y-71138095D02*
X134892914Y-71185714D01*
X134892914Y-71185714D02*
X134797676Y-71233333D01*
X134797676Y-71233333D02*
X134702438Y-71328571D01*
X134702438Y-71328571D02*
X134654819Y-71471428D01*
X134654819Y-71471428D02*
X134654819Y-71566666D01*
X134654819Y-71566666D02*
X134702438Y-71709523D01*
X134702438Y-71709523D02*
X134750057Y-71757142D01*
X134654819Y-72090476D02*
X134654819Y-72709523D01*
X134654819Y-72709523D02*
X135035771Y-72376190D01*
X135035771Y-72376190D02*
X135035771Y-72519047D01*
X135035771Y-72519047D02*
X135083390Y-72614285D01*
X135083390Y-72614285D02*
X135131009Y-72661904D01*
X135131009Y-72661904D02*
X135226247Y-72709523D01*
X135226247Y-72709523D02*
X135464342Y-72709523D01*
X135464342Y-72709523D02*
X135559580Y-72661904D01*
X135559580Y-72661904D02*
X135607200Y-72614285D01*
X135607200Y-72614285D02*
X135654819Y-72519047D01*
X135654819Y-72519047D02*
X135654819Y-72233333D01*
X135654819Y-72233333D02*
X135607200Y-72138095D01*
X135607200Y-72138095D02*
X135559580Y-72090476D01*
X134654819Y-73614285D02*
X134654819Y-73138095D01*
X134654819Y-73138095D02*
X135131009Y-73090476D01*
X135131009Y-73090476D02*
X135083390Y-73138095D01*
X135083390Y-73138095D02*
X135035771Y-73233333D01*
X135035771Y-73233333D02*
X135035771Y-73471428D01*
X135035771Y-73471428D02*
X135083390Y-73566666D01*
X135083390Y-73566666D02*
X135131009Y-73614285D01*
X135131009Y-73614285D02*
X135226247Y-73661904D01*
X135226247Y-73661904D02*
X135464342Y-73661904D01*
X135464342Y-73661904D02*
X135559580Y-73614285D01*
X135559580Y-73614285D02*
X135607200Y-73566666D01*
X135607200Y-73566666D02*
X135654819Y-73471428D01*
X135654819Y-73471428D02*
X135654819Y-73233333D01*
X135654819Y-73233333D02*
X135607200Y-73138095D01*
X135607200Y-73138095D02*
X135559580Y-73090476D01*
X163362819Y-47267905D02*
X162362819Y-47267905D01*
X162362819Y-47267905D02*
X162362819Y-47506000D01*
X162362819Y-47506000D02*
X162410438Y-47648857D01*
X162410438Y-47648857D02*
X162505676Y-47744095D01*
X162505676Y-47744095D02*
X162600914Y-47791714D01*
X162600914Y-47791714D02*
X162791390Y-47839333D01*
X162791390Y-47839333D02*
X162934247Y-47839333D01*
X162934247Y-47839333D02*
X163124723Y-47791714D01*
X163124723Y-47791714D02*
X163219961Y-47744095D01*
X163219961Y-47744095D02*
X163315200Y-47648857D01*
X163315200Y-47648857D02*
X163362819Y-47506000D01*
X163362819Y-47506000D02*
X163362819Y-47267905D01*
X163362819Y-48791714D02*
X163362819Y-48220286D01*
X163362819Y-48506000D02*
X162362819Y-48506000D01*
X162362819Y-48506000D02*
X162505676Y-48410762D01*
X162505676Y-48410762D02*
X162600914Y-48315524D01*
X162600914Y-48315524D02*
X162648533Y-48220286D01*
X144433333Y-94654819D02*
X144433333Y-95369104D01*
X144433333Y-95369104D02*
X144480952Y-95511961D01*
X144480952Y-95511961D02*
X144576190Y-95607200D01*
X144576190Y-95607200D02*
X144719047Y-95654819D01*
X144719047Y-95654819D02*
X144814285Y-95654819D01*
X143957142Y-95654819D02*
X143957142Y-94654819D01*
X143957142Y-94654819D02*
X143576190Y-94654819D01*
X143576190Y-94654819D02*
X143480952Y-94702438D01*
X143480952Y-94702438D02*
X143433333Y-94750057D01*
X143433333Y-94750057D02*
X143385714Y-94845295D01*
X143385714Y-94845295D02*
X143385714Y-94988152D01*
X143385714Y-94988152D02*
X143433333Y-95083390D01*
X143433333Y-95083390D02*
X143480952Y-95131009D01*
X143480952Y-95131009D02*
X143576190Y-95178628D01*
X143576190Y-95178628D02*
X143957142Y-95178628D01*
X142528571Y-94988152D02*
X142528571Y-95654819D01*
X142766666Y-94607200D02*
X143004761Y-95321485D01*
X143004761Y-95321485D02*
X142385714Y-95321485D01*
X122678857Y-57850819D02*
X123012190Y-57374628D01*
X123250285Y-57850819D02*
X123250285Y-56850819D01*
X123250285Y-56850819D02*
X122869333Y-56850819D01*
X122869333Y-56850819D02*
X122774095Y-56898438D01*
X122774095Y-56898438D02*
X122726476Y-56946057D01*
X122726476Y-56946057D02*
X122678857Y-57041295D01*
X122678857Y-57041295D02*
X122678857Y-57184152D01*
X122678857Y-57184152D02*
X122726476Y-57279390D01*
X122726476Y-57279390D02*
X122774095Y-57327009D01*
X122774095Y-57327009D02*
X122869333Y-57374628D01*
X122869333Y-57374628D02*
X123250285Y-57374628D01*
X121774095Y-56850819D02*
X122250285Y-56850819D01*
X122250285Y-56850819D02*
X122297904Y-57327009D01*
X122297904Y-57327009D02*
X122250285Y-57279390D01*
X122250285Y-57279390D02*
X122155047Y-57231771D01*
X122155047Y-57231771D02*
X121916952Y-57231771D01*
X121916952Y-57231771D02*
X121821714Y-57279390D01*
X121821714Y-57279390D02*
X121774095Y-57327009D01*
X121774095Y-57327009D02*
X121726476Y-57422247D01*
X121726476Y-57422247D02*
X121726476Y-57660342D01*
X121726476Y-57660342D02*
X121774095Y-57755580D01*
X121774095Y-57755580D02*
X121821714Y-57803200D01*
X121821714Y-57803200D02*
X121916952Y-57850819D01*
X121916952Y-57850819D02*
X122155047Y-57850819D01*
X122155047Y-57850819D02*
X122250285Y-57803200D01*
X122250285Y-57803200D02*
X122297904Y-57755580D01*
X121393142Y-56850819D02*
X120774095Y-56850819D01*
X120774095Y-56850819D02*
X121107428Y-57231771D01*
X121107428Y-57231771D02*
X120964571Y-57231771D01*
X120964571Y-57231771D02*
X120869333Y-57279390D01*
X120869333Y-57279390D02*
X120821714Y-57327009D01*
X120821714Y-57327009D02*
X120774095Y-57422247D01*
X120774095Y-57422247D02*
X120774095Y-57660342D01*
X120774095Y-57660342D02*
X120821714Y-57755580D01*
X120821714Y-57755580D02*
X120869333Y-57803200D01*
X120869333Y-57803200D02*
X120964571Y-57850819D01*
X120964571Y-57850819D02*
X121250285Y-57850819D01*
X121250285Y-57850819D02*
X121345523Y-57803200D01*
X121345523Y-57803200D02*
X121393142Y-57755580D01*
X153729580Y-66280833D02*
X153777200Y-66233214D01*
X153777200Y-66233214D02*
X153824819Y-66090357D01*
X153824819Y-66090357D02*
X153824819Y-65995119D01*
X153824819Y-65995119D02*
X153777200Y-65852262D01*
X153777200Y-65852262D02*
X153681961Y-65757024D01*
X153681961Y-65757024D02*
X153586723Y-65709405D01*
X153586723Y-65709405D02*
X153396247Y-65661786D01*
X153396247Y-65661786D02*
X153253390Y-65661786D01*
X153253390Y-65661786D02*
X153062914Y-65709405D01*
X153062914Y-65709405D02*
X152967676Y-65757024D01*
X152967676Y-65757024D02*
X152872438Y-65852262D01*
X152872438Y-65852262D02*
X152824819Y-65995119D01*
X152824819Y-65995119D02*
X152824819Y-66090357D01*
X152824819Y-66090357D02*
X152872438Y-66233214D01*
X152872438Y-66233214D02*
X152920057Y-66280833D01*
X152824819Y-67185595D02*
X152824819Y-66709405D01*
X152824819Y-66709405D02*
X153301009Y-66661786D01*
X153301009Y-66661786D02*
X153253390Y-66709405D01*
X153253390Y-66709405D02*
X153205771Y-66804643D01*
X153205771Y-66804643D02*
X153205771Y-67042738D01*
X153205771Y-67042738D02*
X153253390Y-67137976D01*
X153253390Y-67137976D02*
X153301009Y-67185595D01*
X153301009Y-67185595D02*
X153396247Y-67233214D01*
X153396247Y-67233214D02*
X153634342Y-67233214D01*
X153634342Y-67233214D02*
X153729580Y-67185595D01*
X153729580Y-67185595D02*
X153777200Y-67137976D01*
X153777200Y-67137976D02*
X153824819Y-67042738D01*
X153824819Y-67042738D02*
X153824819Y-66804643D01*
X153824819Y-66804643D02*
X153777200Y-66709405D01*
X153777200Y-66709405D02*
X153729580Y-66661786D01*
X145615819Y-39870142D02*
X145139628Y-39536809D01*
X145615819Y-39298714D02*
X144615819Y-39298714D01*
X144615819Y-39298714D02*
X144615819Y-39679666D01*
X144615819Y-39679666D02*
X144663438Y-39774904D01*
X144663438Y-39774904D02*
X144711057Y-39822523D01*
X144711057Y-39822523D02*
X144806295Y-39870142D01*
X144806295Y-39870142D02*
X144949152Y-39870142D01*
X144949152Y-39870142D02*
X145044390Y-39822523D01*
X145044390Y-39822523D02*
X145092009Y-39774904D01*
X145092009Y-39774904D02*
X145139628Y-39679666D01*
X145139628Y-39679666D02*
X145139628Y-39298714D01*
X145615819Y-40822523D02*
X145615819Y-40251095D01*
X145615819Y-40536809D02*
X144615819Y-40536809D01*
X144615819Y-40536809D02*
X144758676Y-40441571D01*
X144758676Y-40441571D02*
X144853914Y-40346333D01*
X144853914Y-40346333D02*
X144901533Y-40251095D01*
X144615819Y-41441571D02*
X144615819Y-41536809D01*
X144615819Y-41536809D02*
X144663438Y-41632047D01*
X144663438Y-41632047D02*
X144711057Y-41679666D01*
X144711057Y-41679666D02*
X144806295Y-41727285D01*
X144806295Y-41727285D02*
X144996771Y-41774904D01*
X144996771Y-41774904D02*
X145234866Y-41774904D01*
X145234866Y-41774904D02*
X145425342Y-41727285D01*
X145425342Y-41727285D02*
X145520580Y-41679666D01*
X145520580Y-41679666D02*
X145568200Y-41632047D01*
X145568200Y-41632047D02*
X145615819Y-41536809D01*
X145615819Y-41536809D02*
X145615819Y-41441571D01*
X145615819Y-41441571D02*
X145568200Y-41346333D01*
X145568200Y-41346333D02*
X145520580Y-41298714D01*
X145520580Y-41298714D02*
X145425342Y-41251095D01*
X145425342Y-41251095D02*
X145234866Y-41203476D01*
X145234866Y-41203476D02*
X144996771Y-41203476D01*
X144996771Y-41203476D02*
X144806295Y-41251095D01*
X144806295Y-41251095D02*
X144711057Y-41298714D01*
X144711057Y-41298714D02*
X144663438Y-41346333D01*
X144663438Y-41346333D02*
X144615819Y-41441571D01*
X163710857Y-72313580D02*
X163758476Y-72361200D01*
X163758476Y-72361200D02*
X163901333Y-72408819D01*
X163901333Y-72408819D02*
X163996571Y-72408819D01*
X163996571Y-72408819D02*
X164139428Y-72361200D01*
X164139428Y-72361200D02*
X164234666Y-72265961D01*
X164234666Y-72265961D02*
X164282285Y-72170723D01*
X164282285Y-72170723D02*
X164329904Y-71980247D01*
X164329904Y-71980247D02*
X164329904Y-71837390D01*
X164329904Y-71837390D02*
X164282285Y-71646914D01*
X164282285Y-71646914D02*
X164234666Y-71551676D01*
X164234666Y-71551676D02*
X164139428Y-71456438D01*
X164139428Y-71456438D02*
X163996571Y-71408819D01*
X163996571Y-71408819D02*
X163901333Y-71408819D01*
X163901333Y-71408819D02*
X163758476Y-71456438D01*
X163758476Y-71456438D02*
X163710857Y-71504057D01*
X162853714Y-71742152D02*
X162853714Y-72408819D01*
X163091809Y-71361200D02*
X163329904Y-72075485D01*
X163329904Y-72075485D02*
X162710857Y-72075485D01*
X161853714Y-71408819D02*
X162329904Y-71408819D01*
X162329904Y-71408819D02*
X162377523Y-71885009D01*
X162377523Y-71885009D02*
X162329904Y-71837390D01*
X162329904Y-71837390D02*
X162234666Y-71789771D01*
X162234666Y-71789771D02*
X161996571Y-71789771D01*
X161996571Y-71789771D02*
X161901333Y-71837390D01*
X161901333Y-71837390D02*
X161853714Y-71885009D01*
X161853714Y-71885009D02*
X161806095Y-71980247D01*
X161806095Y-71980247D02*
X161806095Y-72218342D01*
X161806095Y-72218342D02*
X161853714Y-72313580D01*
X161853714Y-72313580D02*
X161901333Y-72361200D01*
X161901333Y-72361200D02*
X161996571Y-72408819D01*
X161996571Y-72408819D02*
X162234666Y-72408819D01*
X162234666Y-72408819D02*
X162329904Y-72361200D01*
X162329904Y-72361200D02*
X162377523Y-72313580D01*
X115395333Y-48301819D02*
X115395333Y-49016104D01*
X115395333Y-49016104D02*
X115442952Y-49158961D01*
X115442952Y-49158961D02*
X115538190Y-49254200D01*
X115538190Y-49254200D02*
X115681047Y-49301819D01*
X115681047Y-49301819D02*
X115776285Y-49301819D01*
X115014380Y-48301819D02*
X114395333Y-48301819D01*
X114395333Y-48301819D02*
X114728666Y-48682771D01*
X114728666Y-48682771D02*
X114585809Y-48682771D01*
X114585809Y-48682771D02*
X114490571Y-48730390D01*
X114490571Y-48730390D02*
X114442952Y-48778009D01*
X114442952Y-48778009D02*
X114395333Y-48873247D01*
X114395333Y-48873247D02*
X114395333Y-49111342D01*
X114395333Y-49111342D02*
X114442952Y-49206580D01*
X114442952Y-49206580D02*
X114490571Y-49254200D01*
X114490571Y-49254200D02*
X114585809Y-49301819D01*
X114585809Y-49301819D02*
X114871523Y-49301819D01*
X114871523Y-49301819D02*
X114966761Y-49254200D01*
X114966761Y-49254200D02*
X115014380Y-49206580D01*
X179331857Y-39697819D02*
X179665190Y-39221628D01*
X179903285Y-39697819D02*
X179903285Y-38697819D01*
X179903285Y-38697819D02*
X179522333Y-38697819D01*
X179522333Y-38697819D02*
X179427095Y-38745438D01*
X179427095Y-38745438D02*
X179379476Y-38793057D01*
X179379476Y-38793057D02*
X179331857Y-38888295D01*
X179331857Y-38888295D02*
X179331857Y-39031152D01*
X179331857Y-39031152D02*
X179379476Y-39126390D01*
X179379476Y-39126390D02*
X179427095Y-39174009D01*
X179427095Y-39174009D02*
X179522333Y-39221628D01*
X179522333Y-39221628D02*
X179903285Y-39221628D01*
X178998523Y-38697819D02*
X178331857Y-38697819D01*
X178331857Y-38697819D02*
X178760428Y-39697819D01*
X177808047Y-39126390D02*
X177903285Y-39078771D01*
X177903285Y-39078771D02*
X177950904Y-39031152D01*
X177950904Y-39031152D02*
X177998523Y-38935914D01*
X177998523Y-38935914D02*
X177998523Y-38888295D01*
X177998523Y-38888295D02*
X177950904Y-38793057D01*
X177950904Y-38793057D02*
X177903285Y-38745438D01*
X177903285Y-38745438D02*
X177808047Y-38697819D01*
X177808047Y-38697819D02*
X177617571Y-38697819D01*
X177617571Y-38697819D02*
X177522333Y-38745438D01*
X177522333Y-38745438D02*
X177474714Y-38793057D01*
X177474714Y-38793057D02*
X177427095Y-38888295D01*
X177427095Y-38888295D02*
X177427095Y-38935914D01*
X177427095Y-38935914D02*
X177474714Y-39031152D01*
X177474714Y-39031152D02*
X177522333Y-39078771D01*
X177522333Y-39078771D02*
X177617571Y-39126390D01*
X177617571Y-39126390D02*
X177808047Y-39126390D01*
X177808047Y-39126390D02*
X177903285Y-39174009D01*
X177903285Y-39174009D02*
X177950904Y-39221628D01*
X177950904Y-39221628D02*
X177998523Y-39316866D01*
X177998523Y-39316866D02*
X177998523Y-39507342D01*
X177998523Y-39507342D02*
X177950904Y-39602580D01*
X177950904Y-39602580D02*
X177903285Y-39650200D01*
X177903285Y-39650200D02*
X177808047Y-39697819D01*
X177808047Y-39697819D02*
X177617571Y-39697819D01*
X177617571Y-39697819D02*
X177522333Y-39650200D01*
X177522333Y-39650200D02*
X177474714Y-39602580D01*
X177474714Y-39602580D02*
X177427095Y-39507342D01*
X177427095Y-39507342D02*
X177427095Y-39316866D01*
X177427095Y-39316866D02*
X177474714Y-39221628D01*
X177474714Y-39221628D02*
X177522333Y-39174009D01*
X177522333Y-39174009D02*
X177617571Y-39126390D01*
X179683580Y-45839142D02*
X179731200Y-45791523D01*
X179731200Y-45791523D02*
X179778819Y-45648666D01*
X179778819Y-45648666D02*
X179778819Y-45553428D01*
X179778819Y-45553428D02*
X179731200Y-45410571D01*
X179731200Y-45410571D02*
X179635961Y-45315333D01*
X179635961Y-45315333D02*
X179540723Y-45267714D01*
X179540723Y-45267714D02*
X179350247Y-45220095D01*
X179350247Y-45220095D02*
X179207390Y-45220095D01*
X179207390Y-45220095D02*
X179016914Y-45267714D01*
X179016914Y-45267714D02*
X178921676Y-45315333D01*
X178921676Y-45315333D02*
X178826438Y-45410571D01*
X178826438Y-45410571D02*
X178778819Y-45553428D01*
X178778819Y-45553428D02*
X178778819Y-45648666D01*
X178778819Y-45648666D02*
X178826438Y-45791523D01*
X178826438Y-45791523D02*
X178874057Y-45839142D01*
X179112152Y-46696285D02*
X179778819Y-46696285D01*
X178731200Y-46458190D02*
X179445485Y-46220095D01*
X179445485Y-46220095D02*
X179445485Y-46839142D01*
X178874057Y-47172476D02*
X178826438Y-47220095D01*
X178826438Y-47220095D02*
X178778819Y-47315333D01*
X178778819Y-47315333D02*
X178778819Y-47553428D01*
X178778819Y-47553428D02*
X178826438Y-47648666D01*
X178826438Y-47648666D02*
X178874057Y-47696285D01*
X178874057Y-47696285D02*
X178969295Y-47743904D01*
X178969295Y-47743904D02*
X179064533Y-47743904D01*
X179064533Y-47743904D02*
X179207390Y-47696285D01*
X179207390Y-47696285D02*
X179778819Y-47124857D01*
X179778819Y-47124857D02*
X179778819Y-47743904D01*
X142694819Y-76287333D02*
X142218628Y-75954000D01*
X142694819Y-75715905D02*
X141694819Y-75715905D01*
X141694819Y-75715905D02*
X141694819Y-76096857D01*
X141694819Y-76096857D02*
X141742438Y-76192095D01*
X141742438Y-76192095D02*
X141790057Y-76239714D01*
X141790057Y-76239714D02*
X141885295Y-76287333D01*
X141885295Y-76287333D02*
X142028152Y-76287333D01*
X142028152Y-76287333D02*
X142123390Y-76239714D01*
X142123390Y-76239714D02*
X142171009Y-76192095D01*
X142171009Y-76192095D02*
X142218628Y-76096857D01*
X142218628Y-76096857D02*
X142218628Y-75715905D01*
X142123390Y-76858762D02*
X142075771Y-76763524D01*
X142075771Y-76763524D02*
X142028152Y-76715905D01*
X142028152Y-76715905D02*
X141932914Y-76668286D01*
X141932914Y-76668286D02*
X141885295Y-76668286D01*
X141885295Y-76668286D02*
X141790057Y-76715905D01*
X141790057Y-76715905D02*
X141742438Y-76763524D01*
X141742438Y-76763524D02*
X141694819Y-76858762D01*
X141694819Y-76858762D02*
X141694819Y-77049238D01*
X141694819Y-77049238D02*
X141742438Y-77144476D01*
X141742438Y-77144476D02*
X141790057Y-77192095D01*
X141790057Y-77192095D02*
X141885295Y-77239714D01*
X141885295Y-77239714D02*
X141932914Y-77239714D01*
X141932914Y-77239714D02*
X142028152Y-77192095D01*
X142028152Y-77192095D02*
X142075771Y-77144476D01*
X142075771Y-77144476D02*
X142123390Y-77049238D01*
X142123390Y-77049238D02*
X142123390Y-76858762D01*
X142123390Y-76858762D02*
X142171009Y-76763524D01*
X142171009Y-76763524D02*
X142218628Y-76715905D01*
X142218628Y-76715905D02*
X142313866Y-76668286D01*
X142313866Y-76668286D02*
X142504342Y-76668286D01*
X142504342Y-76668286D02*
X142599580Y-76715905D01*
X142599580Y-76715905D02*
X142647200Y-76763524D01*
X142647200Y-76763524D02*
X142694819Y-76858762D01*
X142694819Y-76858762D02*
X142694819Y-77049238D01*
X142694819Y-77049238D02*
X142647200Y-77144476D01*
X142647200Y-77144476D02*
X142599580Y-77192095D01*
X142599580Y-77192095D02*
X142504342Y-77239714D01*
X142504342Y-77239714D02*
X142313866Y-77239714D01*
X142313866Y-77239714D02*
X142218628Y-77192095D01*
X142218628Y-77192095D02*
X142171009Y-77144476D01*
X142171009Y-77144476D02*
X142123390Y-77049238D01*
X121042857Y-69409580D02*
X121090476Y-69457200D01*
X121090476Y-69457200D02*
X121233333Y-69504819D01*
X121233333Y-69504819D02*
X121328571Y-69504819D01*
X121328571Y-69504819D02*
X121471428Y-69457200D01*
X121471428Y-69457200D02*
X121566666Y-69361961D01*
X121566666Y-69361961D02*
X121614285Y-69266723D01*
X121614285Y-69266723D02*
X121661904Y-69076247D01*
X121661904Y-69076247D02*
X121661904Y-68933390D01*
X121661904Y-68933390D02*
X121614285Y-68742914D01*
X121614285Y-68742914D02*
X121566666Y-68647676D01*
X121566666Y-68647676D02*
X121471428Y-68552438D01*
X121471428Y-68552438D02*
X121328571Y-68504819D01*
X121328571Y-68504819D02*
X121233333Y-68504819D01*
X121233333Y-68504819D02*
X121090476Y-68552438D01*
X121090476Y-68552438D02*
X121042857Y-68600057D01*
X120661904Y-68600057D02*
X120614285Y-68552438D01*
X120614285Y-68552438D02*
X120519047Y-68504819D01*
X120519047Y-68504819D02*
X120280952Y-68504819D01*
X120280952Y-68504819D02*
X120185714Y-68552438D01*
X120185714Y-68552438D02*
X120138095Y-68600057D01*
X120138095Y-68600057D02*
X120090476Y-68695295D01*
X120090476Y-68695295D02*
X120090476Y-68790533D01*
X120090476Y-68790533D02*
X120138095Y-68933390D01*
X120138095Y-68933390D02*
X120709523Y-69504819D01*
X120709523Y-69504819D02*
X120090476Y-69504819D01*
X119614285Y-69504819D02*
X119423809Y-69504819D01*
X119423809Y-69504819D02*
X119328571Y-69457200D01*
X119328571Y-69457200D02*
X119280952Y-69409580D01*
X119280952Y-69409580D02*
X119185714Y-69266723D01*
X119185714Y-69266723D02*
X119138095Y-69076247D01*
X119138095Y-69076247D02*
X119138095Y-68695295D01*
X119138095Y-68695295D02*
X119185714Y-68600057D01*
X119185714Y-68600057D02*
X119233333Y-68552438D01*
X119233333Y-68552438D02*
X119328571Y-68504819D01*
X119328571Y-68504819D02*
X119519047Y-68504819D01*
X119519047Y-68504819D02*
X119614285Y-68552438D01*
X119614285Y-68552438D02*
X119661904Y-68600057D01*
X119661904Y-68600057D02*
X119709523Y-68695295D01*
X119709523Y-68695295D02*
X119709523Y-68933390D01*
X119709523Y-68933390D02*
X119661904Y-69028628D01*
X119661904Y-69028628D02*
X119614285Y-69076247D01*
X119614285Y-69076247D02*
X119519047Y-69123866D01*
X119519047Y-69123866D02*
X119328571Y-69123866D01*
X119328571Y-69123866D02*
X119233333Y-69076247D01*
X119233333Y-69076247D02*
X119185714Y-69028628D01*
X119185714Y-69028628D02*
X119138095Y-68933390D01*
X122744857Y-56086580D02*
X122792476Y-56134200D01*
X122792476Y-56134200D02*
X122935333Y-56181819D01*
X122935333Y-56181819D02*
X123030571Y-56181819D01*
X123030571Y-56181819D02*
X123173428Y-56134200D01*
X123173428Y-56134200D02*
X123268666Y-56038961D01*
X123268666Y-56038961D02*
X123316285Y-55943723D01*
X123316285Y-55943723D02*
X123363904Y-55753247D01*
X123363904Y-55753247D02*
X123363904Y-55610390D01*
X123363904Y-55610390D02*
X123316285Y-55419914D01*
X123316285Y-55419914D02*
X123268666Y-55324676D01*
X123268666Y-55324676D02*
X123173428Y-55229438D01*
X123173428Y-55229438D02*
X123030571Y-55181819D01*
X123030571Y-55181819D02*
X122935333Y-55181819D01*
X122935333Y-55181819D02*
X122792476Y-55229438D01*
X122792476Y-55229438D02*
X122744857Y-55277057D01*
X122411523Y-55181819D02*
X121792476Y-55181819D01*
X121792476Y-55181819D02*
X122125809Y-55562771D01*
X122125809Y-55562771D02*
X121982952Y-55562771D01*
X121982952Y-55562771D02*
X121887714Y-55610390D01*
X121887714Y-55610390D02*
X121840095Y-55658009D01*
X121840095Y-55658009D02*
X121792476Y-55753247D01*
X121792476Y-55753247D02*
X121792476Y-55991342D01*
X121792476Y-55991342D02*
X121840095Y-56086580D01*
X121840095Y-56086580D02*
X121887714Y-56134200D01*
X121887714Y-56134200D02*
X121982952Y-56181819D01*
X121982952Y-56181819D02*
X122268666Y-56181819D01*
X122268666Y-56181819D02*
X122363904Y-56134200D01*
X122363904Y-56134200D02*
X122411523Y-56086580D01*
X121459142Y-55181819D02*
X120840095Y-55181819D01*
X120840095Y-55181819D02*
X121173428Y-55562771D01*
X121173428Y-55562771D02*
X121030571Y-55562771D01*
X121030571Y-55562771D02*
X120935333Y-55610390D01*
X120935333Y-55610390D02*
X120887714Y-55658009D01*
X120887714Y-55658009D02*
X120840095Y-55753247D01*
X120840095Y-55753247D02*
X120840095Y-55991342D01*
X120840095Y-55991342D02*
X120887714Y-56086580D01*
X120887714Y-56086580D02*
X120935333Y-56134200D01*
X120935333Y-56134200D02*
X121030571Y-56181819D01*
X121030571Y-56181819D02*
X121316285Y-56181819D01*
X121316285Y-56181819D02*
X121411523Y-56134200D01*
X121411523Y-56134200D02*
X121459142Y-56086580D01*
X136207166Y-88244819D02*
X136540499Y-87768628D01*
X136778594Y-88244819D02*
X136778594Y-87244819D01*
X136778594Y-87244819D02*
X136397642Y-87244819D01*
X136397642Y-87244819D02*
X136302404Y-87292438D01*
X136302404Y-87292438D02*
X136254785Y-87340057D01*
X136254785Y-87340057D02*
X136207166Y-87435295D01*
X136207166Y-87435295D02*
X136207166Y-87578152D01*
X136207166Y-87578152D02*
X136254785Y-87673390D01*
X136254785Y-87673390D02*
X136302404Y-87721009D01*
X136302404Y-87721009D02*
X136397642Y-87768628D01*
X136397642Y-87768628D02*
X136778594Y-87768628D01*
X135254785Y-88244819D02*
X135826213Y-88244819D01*
X135540499Y-88244819D02*
X135540499Y-87244819D01*
X135540499Y-87244819D02*
X135635737Y-87387676D01*
X135635737Y-87387676D02*
X135730975Y-87482914D01*
X135730975Y-87482914D02*
X135826213Y-87530533D01*
X128854819Y-71357142D02*
X128378628Y-71023809D01*
X128854819Y-70785714D02*
X127854819Y-70785714D01*
X127854819Y-70785714D02*
X127854819Y-71166666D01*
X127854819Y-71166666D02*
X127902438Y-71261904D01*
X127902438Y-71261904D02*
X127950057Y-71309523D01*
X127950057Y-71309523D02*
X128045295Y-71357142D01*
X128045295Y-71357142D02*
X128188152Y-71357142D01*
X128188152Y-71357142D02*
X128283390Y-71309523D01*
X128283390Y-71309523D02*
X128331009Y-71261904D01*
X128331009Y-71261904D02*
X128378628Y-71166666D01*
X128378628Y-71166666D02*
X128378628Y-70785714D01*
X127854819Y-72214285D02*
X127854819Y-72023809D01*
X127854819Y-72023809D02*
X127902438Y-71928571D01*
X127902438Y-71928571D02*
X127950057Y-71880952D01*
X127950057Y-71880952D02*
X128092914Y-71785714D01*
X128092914Y-71785714D02*
X128283390Y-71738095D01*
X128283390Y-71738095D02*
X128664342Y-71738095D01*
X128664342Y-71738095D02*
X128759580Y-71785714D01*
X128759580Y-71785714D02*
X128807200Y-71833333D01*
X128807200Y-71833333D02*
X128854819Y-71928571D01*
X128854819Y-71928571D02*
X128854819Y-72119047D01*
X128854819Y-72119047D02*
X128807200Y-72214285D01*
X128807200Y-72214285D02*
X128759580Y-72261904D01*
X128759580Y-72261904D02*
X128664342Y-72309523D01*
X128664342Y-72309523D02*
X128426247Y-72309523D01*
X128426247Y-72309523D02*
X128331009Y-72261904D01*
X128331009Y-72261904D02*
X128283390Y-72214285D01*
X128283390Y-72214285D02*
X128235771Y-72119047D01*
X128235771Y-72119047D02*
X128235771Y-71928571D01*
X128235771Y-71928571D02*
X128283390Y-71833333D01*
X128283390Y-71833333D02*
X128331009Y-71785714D01*
X128331009Y-71785714D02*
X128426247Y-71738095D01*
X127950057Y-72690476D02*
X127902438Y-72738095D01*
X127902438Y-72738095D02*
X127854819Y-72833333D01*
X127854819Y-72833333D02*
X127854819Y-73071428D01*
X127854819Y-73071428D02*
X127902438Y-73166666D01*
X127902438Y-73166666D02*
X127950057Y-73214285D01*
X127950057Y-73214285D02*
X128045295Y-73261904D01*
X128045295Y-73261904D02*
X128140533Y-73261904D01*
X128140533Y-73261904D02*
X128283390Y-73214285D01*
X128283390Y-73214285D02*
X128854819Y-72642857D01*
X128854819Y-72642857D02*
X128854819Y-73261904D01*
X124565580Y-80510142D02*
X124613200Y-80462523D01*
X124613200Y-80462523D02*
X124660819Y-80319666D01*
X124660819Y-80319666D02*
X124660819Y-80224428D01*
X124660819Y-80224428D02*
X124613200Y-80081571D01*
X124613200Y-80081571D02*
X124517961Y-79986333D01*
X124517961Y-79986333D02*
X124422723Y-79938714D01*
X124422723Y-79938714D02*
X124232247Y-79891095D01*
X124232247Y-79891095D02*
X124089390Y-79891095D01*
X124089390Y-79891095D02*
X123898914Y-79938714D01*
X123898914Y-79938714D02*
X123803676Y-79986333D01*
X123803676Y-79986333D02*
X123708438Y-80081571D01*
X123708438Y-80081571D02*
X123660819Y-80224428D01*
X123660819Y-80224428D02*
X123660819Y-80319666D01*
X123660819Y-80319666D02*
X123708438Y-80462523D01*
X123708438Y-80462523D02*
X123756057Y-80510142D01*
X123756057Y-80891095D02*
X123708438Y-80938714D01*
X123708438Y-80938714D02*
X123660819Y-81033952D01*
X123660819Y-81033952D02*
X123660819Y-81272047D01*
X123660819Y-81272047D02*
X123708438Y-81367285D01*
X123708438Y-81367285D02*
X123756057Y-81414904D01*
X123756057Y-81414904D02*
X123851295Y-81462523D01*
X123851295Y-81462523D02*
X123946533Y-81462523D01*
X123946533Y-81462523D02*
X124089390Y-81414904D01*
X124089390Y-81414904D02*
X124660819Y-80843476D01*
X124660819Y-80843476D02*
X124660819Y-81462523D01*
X123660819Y-81795857D02*
X123660819Y-82414904D01*
X123660819Y-82414904D02*
X124041771Y-82081571D01*
X124041771Y-82081571D02*
X124041771Y-82224428D01*
X124041771Y-82224428D02*
X124089390Y-82319666D01*
X124089390Y-82319666D02*
X124137009Y-82367285D01*
X124137009Y-82367285D02*
X124232247Y-82414904D01*
X124232247Y-82414904D02*
X124470342Y-82414904D01*
X124470342Y-82414904D02*
X124565580Y-82367285D01*
X124565580Y-82367285D02*
X124613200Y-82319666D01*
X124613200Y-82319666D02*
X124660819Y-82224428D01*
X124660819Y-82224428D02*
X124660819Y-81938714D01*
X124660819Y-81938714D02*
X124613200Y-81843476D01*
X124613200Y-81843476D02*
X124565580Y-81795857D01*
X170054819Y-56633333D02*
X169578628Y-56300000D01*
X170054819Y-56061905D02*
X169054819Y-56061905D01*
X169054819Y-56061905D02*
X169054819Y-56442857D01*
X169054819Y-56442857D02*
X169102438Y-56538095D01*
X169102438Y-56538095D02*
X169150057Y-56585714D01*
X169150057Y-56585714D02*
X169245295Y-56633333D01*
X169245295Y-56633333D02*
X169388152Y-56633333D01*
X169388152Y-56633333D02*
X169483390Y-56585714D01*
X169483390Y-56585714D02*
X169531009Y-56538095D01*
X169531009Y-56538095D02*
X169578628Y-56442857D01*
X169578628Y-56442857D02*
X169578628Y-56061905D01*
X169388152Y-57490476D02*
X170054819Y-57490476D01*
X169007200Y-57252381D02*
X169721485Y-57014286D01*
X169721485Y-57014286D02*
X169721485Y-57633333D01*
X169552857Y-69574580D02*
X169600476Y-69622200D01*
X169600476Y-69622200D02*
X169743333Y-69669819D01*
X169743333Y-69669819D02*
X169838571Y-69669819D01*
X169838571Y-69669819D02*
X169981428Y-69622200D01*
X169981428Y-69622200D02*
X170076666Y-69526961D01*
X170076666Y-69526961D02*
X170124285Y-69431723D01*
X170124285Y-69431723D02*
X170171904Y-69241247D01*
X170171904Y-69241247D02*
X170171904Y-69098390D01*
X170171904Y-69098390D02*
X170124285Y-68907914D01*
X170124285Y-68907914D02*
X170076666Y-68812676D01*
X170076666Y-68812676D02*
X169981428Y-68717438D01*
X169981428Y-68717438D02*
X169838571Y-68669819D01*
X169838571Y-68669819D02*
X169743333Y-68669819D01*
X169743333Y-68669819D02*
X169600476Y-68717438D01*
X169600476Y-68717438D02*
X169552857Y-68765057D01*
X168695714Y-69003152D02*
X168695714Y-69669819D01*
X168933809Y-68622200D02*
X169171904Y-69336485D01*
X169171904Y-69336485D02*
X168552857Y-69336485D01*
X167648095Y-69669819D02*
X168219523Y-69669819D01*
X167933809Y-69669819D02*
X167933809Y-68669819D01*
X167933809Y-68669819D02*
X168029047Y-68812676D01*
X168029047Y-68812676D02*
X168124285Y-68907914D01*
X168124285Y-68907914D02*
X168219523Y-68955533D01*
X173743857Y-80337819D02*
X174077190Y-79861628D01*
X174315285Y-80337819D02*
X174315285Y-79337819D01*
X174315285Y-79337819D02*
X173934333Y-79337819D01*
X173934333Y-79337819D02*
X173839095Y-79385438D01*
X173839095Y-79385438D02*
X173791476Y-79433057D01*
X173791476Y-79433057D02*
X173743857Y-79528295D01*
X173743857Y-79528295D02*
X173743857Y-79671152D01*
X173743857Y-79671152D02*
X173791476Y-79766390D01*
X173791476Y-79766390D02*
X173839095Y-79814009D01*
X173839095Y-79814009D02*
X173934333Y-79861628D01*
X173934333Y-79861628D02*
X174315285Y-79861628D01*
X173172428Y-79766390D02*
X173267666Y-79718771D01*
X173267666Y-79718771D02*
X173315285Y-79671152D01*
X173315285Y-79671152D02*
X173362904Y-79575914D01*
X173362904Y-79575914D02*
X173362904Y-79528295D01*
X173362904Y-79528295D02*
X173315285Y-79433057D01*
X173315285Y-79433057D02*
X173267666Y-79385438D01*
X173267666Y-79385438D02*
X173172428Y-79337819D01*
X173172428Y-79337819D02*
X172981952Y-79337819D01*
X172981952Y-79337819D02*
X172886714Y-79385438D01*
X172886714Y-79385438D02*
X172839095Y-79433057D01*
X172839095Y-79433057D02*
X172791476Y-79528295D01*
X172791476Y-79528295D02*
X172791476Y-79575914D01*
X172791476Y-79575914D02*
X172839095Y-79671152D01*
X172839095Y-79671152D02*
X172886714Y-79718771D01*
X172886714Y-79718771D02*
X172981952Y-79766390D01*
X172981952Y-79766390D02*
X173172428Y-79766390D01*
X173172428Y-79766390D02*
X173267666Y-79814009D01*
X173267666Y-79814009D02*
X173315285Y-79861628D01*
X173315285Y-79861628D02*
X173362904Y-79956866D01*
X173362904Y-79956866D02*
X173362904Y-80147342D01*
X173362904Y-80147342D02*
X173315285Y-80242580D01*
X173315285Y-80242580D02*
X173267666Y-80290200D01*
X173267666Y-80290200D02*
X173172428Y-80337819D01*
X173172428Y-80337819D02*
X172981952Y-80337819D01*
X172981952Y-80337819D02*
X172886714Y-80290200D01*
X172886714Y-80290200D02*
X172839095Y-80242580D01*
X172839095Y-80242580D02*
X172791476Y-80147342D01*
X172791476Y-80147342D02*
X172791476Y-79956866D01*
X172791476Y-79956866D02*
X172839095Y-79861628D01*
X172839095Y-79861628D02*
X172886714Y-79814009D01*
X172886714Y-79814009D02*
X172981952Y-79766390D01*
X172410523Y-79433057D02*
X172362904Y-79385438D01*
X172362904Y-79385438D02*
X172267666Y-79337819D01*
X172267666Y-79337819D02*
X172029571Y-79337819D01*
X172029571Y-79337819D02*
X171934333Y-79385438D01*
X171934333Y-79385438D02*
X171886714Y-79433057D01*
X171886714Y-79433057D02*
X171839095Y-79528295D01*
X171839095Y-79528295D02*
X171839095Y-79623533D01*
X171839095Y-79623533D02*
X171886714Y-79766390D01*
X171886714Y-79766390D02*
X172458142Y-80337819D01*
X172458142Y-80337819D02*
X171839095Y-80337819D01*
X136036817Y-91250694D02*
X136036817Y-91964979D01*
X136036817Y-91964979D02*
X136084436Y-92107836D01*
X136084436Y-92107836D02*
X136179674Y-92203075D01*
X136179674Y-92203075D02*
X136322531Y-92250694D01*
X136322531Y-92250694D02*
X136417769Y-92250694D01*
X135560626Y-92250694D02*
X135560626Y-91250694D01*
X135560626Y-91250694D02*
X135179674Y-91250694D01*
X135179674Y-91250694D02*
X135084436Y-91298313D01*
X135084436Y-91298313D02*
X135036817Y-91345932D01*
X135036817Y-91345932D02*
X134989198Y-91441170D01*
X134989198Y-91441170D02*
X134989198Y-91584027D01*
X134989198Y-91584027D02*
X135036817Y-91679265D01*
X135036817Y-91679265D02*
X135084436Y-91726884D01*
X135084436Y-91726884D02*
X135179674Y-91774503D01*
X135179674Y-91774503D02*
X135560626Y-91774503D01*
X134084436Y-91250694D02*
X134560626Y-91250694D01*
X134560626Y-91250694D02*
X134608245Y-91726884D01*
X134608245Y-91726884D02*
X134560626Y-91679265D01*
X134560626Y-91679265D02*
X134465388Y-91631646D01*
X134465388Y-91631646D02*
X134227293Y-91631646D01*
X134227293Y-91631646D02*
X134132055Y-91679265D01*
X134132055Y-91679265D02*
X134084436Y-91726884D01*
X134084436Y-91726884D02*
X134036817Y-91822122D01*
X134036817Y-91822122D02*
X134036817Y-92060217D01*
X134036817Y-92060217D02*
X134084436Y-92155455D01*
X134084436Y-92155455D02*
X134132055Y-92203075D01*
X134132055Y-92203075D02*
X134227293Y-92250694D01*
X134227293Y-92250694D02*
X134465388Y-92250694D01*
X134465388Y-92250694D02*
X134560626Y-92203075D01*
X134560626Y-92203075D02*
X134608245Y-92155455D01*
X178442857Y-88719819D02*
X178776190Y-88243628D01*
X179014285Y-88719819D02*
X179014285Y-87719819D01*
X179014285Y-87719819D02*
X178633333Y-87719819D01*
X178633333Y-87719819D02*
X178538095Y-87767438D01*
X178538095Y-87767438D02*
X178490476Y-87815057D01*
X178490476Y-87815057D02*
X178442857Y-87910295D01*
X178442857Y-87910295D02*
X178442857Y-88053152D01*
X178442857Y-88053152D02*
X178490476Y-88148390D01*
X178490476Y-88148390D02*
X178538095Y-88196009D01*
X178538095Y-88196009D02*
X178633333Y-88243628D01*
X178633333Y-88243628D02*
X179014285Y-88243628D01*
X177871428Y-88148390D02*
X177966666Y-88100771D01*
X177966666Y-88100771D02*
X178014285Y-88053152D01*
X178014285Y-88053152D02*
X178061904Y-87957914D01*
X178061904Y-87957914D02*
X178061904Y-87910295D01*
X178061904Y-87910295D02*
X178014285Y-87815057D01*
X178014285Y-87815057D02*
X177966666Y-87767438D01*
X177966666Y-87767438D02*
X177871428Y-87719819D01*
X177871428Y-87719819D02*
X177680952Y-87719819D01*
X177680952Y-87719819D02*
X177585714Y-87767438D01*
X177585714Y-87767438D02*
X177538095Y-87815057D01*
X177538095Y-87815057D02*
X177490476Y-87910295D01*
X177490476Y-87910295D02*
X177490476Y-87957914D01*
X177490476Y-87957914D02*
X177538095Y-88053152D01*
X177538095Y-88053152D02*
X177585714Y-88100771D01*
X177585714Y-88100771D02*
X177680952Y-88148390D01*
X177680952Y-88148390D02*
X177871428Y-88148390D01*
X177871428Y-88148390D02*
X177966666Y-88196009D01*
X177966666Y-88196009D02*
X178014285Y-88243628D01*
X178014285Y-88243628D02*
X178061904Y-88338866D01*
X178061904Y-88338866D02*
X178061904Y-88529342D01*
X178061904Y-88529342D02*
X178014285Y-88624580D01*
X178014285Y-88624580D02*
X177966666Y-88672200D01*
X177966666Y-88672200D02*
X177871428Y-88719819D01*
X177871428Y-88719819D02*
X177680952Y-88719819D01*
X177680952Y-88719819D02*
X177585714Y-88672200D01*
X177585714Y-88672200D02*
X177538095Y-88624580D01*
X177538095Y-88624580D02*
X177490476Y-88529342D01*
X177490476Y-88529342D02*
X177490476Y-88338866D01*
X177490476Y-88338866D02*
X177538095Y-88243628D01*
X177538095Y-88243628D02*
X177585714Y-88196009D01*
X177585714Y-88196009D02*
X177680952Y-88148390D01*
X176871428Y-87719819D02*
X176776190Y-87719819D01*
X176776190Y-87719819D02*
X176680952Y-87767438D01*
X176680952Y-87767438D02*
X176633333Y-87815057D01*
X176633333Y-87815057D02*
X176585714Y-87910295D01*
X176585714Y-87910295D02*
X176538095Y-88100771D01*
X176538095Y-88100771D02*
X176538095Y-88338866D01*
X176538095Y-88338866D02*
X176585714Y-88529342D01*
X176585714Y-88529342D02*
X176633333Y-88624580D01*
X176633333Y-88624580D02*
X176680952Y-88672200D01*
X176680952Y-88672200D02*
X176776190Y-88719819D01*
X176776190Y-88719819D02*
X176871428Y-88719819D01*
X176871428Y-88719819D02*
X176966666Y-88672200D01*
X176966666Y-88672200D02*
X177014285Y-88624580D01*
X177014285Y-88624580D02*
X177061904Y-88529342D01*
X177061904Y-88529342D02*
X177109523Y-88338866D01*
X177109523Y-88338866D02*
X177109523Y-88100771D01*
X177109523Y-88100771D02*
X177061904Y-87910295D01*
X177061904Y-87910295D02*
X177014285Y-87815057D01*
X177014285Y-87815057D02*
X176966666Y-87767438D01*
X176966666Y-87767438D02*
X176871428Y-87719819D01*
X127854819Y-64357142D02*
X127378628Y-64023809D01*
X127854819Y-63785714D02*
X126854819Y-63785714D01*
X126854819Y-63785714D02*
X126854819Y-64166666D01*
X126854819Y-64166666D02*
X126902438Y-64261904D01*
X126902438Y-64261904D02*
X126950057Y-64309523D01*
X126950057Y-64309523D02*
X127045295Y-64357142D01*
X127045295Y-64357142D02*
X127188152Y-64357142D01*
X127188152Y-64357142D02*
X127283390Y-64309523D01*
X127283390Y-64309523D02*
X127331009Y-64261904D01*
X127331009Y-64261904D02*
X127378628Y-64166666D01*
X127378628Y-64166666D02*
X127378628Y-63785714D01*
X126854819Y-65214285D02*
X126854819Y-65023809D01*
X126854819Y-65023809D02*
X126902438Y-64928571D01*
X126902438Y-64928571D02*
X126950057Y-64880952D01*
X126950057Y-64880952D02*
X127092914Y-64785714D01*
X127092914Y-64785714D02*
X127283390Y-64738095D01*
X127283390Y-64738095D02*
X127664342Y-64738095D01*
X127664342Y-64738095D02*
X127759580Y-64785714D01*
X127759580Y-64785714D02*
X127807200Y-64833333D01*
X127807200Y-64833333D02*
X127854819Y-64928571D01*
X127854819Y-64928571D02*
X127854819Y-65119047D01*
X127854819Y-65119047D02*
X127807200Y-65214285D01*
X127807200Y-65214285D02*
X127759580Y-65261904D01*
X127759580Y-65261904D02*
X127664342Y-65309523D01*
X127664342Y-65309523D02*
X127426247Y-65309523D01*
X127426247Y-65309523D02*
X127331009Y-65261904D01*
X127331009Y-65261904D02*
X127283390Y-65214285D01*
X127283390Y-65214285D02*
X127235771Y-65119047D01*
X127235771Y-65119047D02*
X127235771Y-64928571D01*
X127235771Y-64928571D02*
X127283390Y-64833333D01*
X127283390Y-64833333D02*
X127331009Y-64785714D01*
X127331009Y-64785714D02*
X127426247Y-64738095D01*
X126854819Y-65928571D02*
X126854819Y-66023809D01*
X126854819Y-66023809D02*
X126902438Y-66119047D01*
X126902438Y-66119047D02*
X126950057Y-66166666D01*
X126950057Y-66166666D02*
X127045295Y-66214285D01*
X127045295Y-66214285D02*
X127235771Y-66261904D01*
X127235771Y-66261904D02*
X127473866Y-66261904D01*
X127473866Y-66261904D02*
X127664342Y-66214285D01*
X127664342Y-66214285D02*
X127759580Y-66166666D01*
X127759580Y-66166666D02*
X127807200Y-66119047D01*
X127807200Y-66119047D02*
X127854819Y-66023809D01*
X127854819Y-66023809D02*
X127854819Y-65928571D01*
X127854819Y-65928571D02*
X127807200Y-65833333D01*
X127807200Y-65833333D02*
X127759580Y-65785714D01*
X127759580Y-65785714D02*
X127664342Y-65738095D01*
X127664342Y-65738095D02*
X127473866Y-65690476D01*
X127473866Y-65690476D02*
X127235771Y-65690476D01*
X127235771Y-65690476D02*
X127045295Y-65738095D01*
X127045295Y-65738095D02*
X126950057Y-65785714D01*
X126950057Y-65785714D02*
X126902438Y-65833333D01*
X126902438Y-65833333D02*
X126854819Y-65928571D01*
X150219580Y-61047333D02*
X150267200Y-60999714D01*
X150267200Y-60999714D02*
X150314819Y-60856857D01*
X150314819Y-60856857D02*
X150314819Y-60761619D01*
X150314819Y-60761619D02*
X150267200Y-60618762D01*
X150267200Y-60618762D02*
X150171961Y-60523524D01*
X150171961Y-60523524D02*
X150076723Y-60475905D01*
X150076723Y-60475905D02*
X149886247Y-60428286D01*
X149886247Y-60428286D02*
X149743390Y-60428286D01*
X149743390Y-60428286D02*
X149552914Y-60475905D01*
X149552914Y-60475905D02*
X149457676Y-60523524D01*
X149457676Y-60523524D02*
X149362438Y-60618762D01*
X149362438Y-60618762D02*
X149314819Y-60761619D01*
X149314819Y-60761619D02*
X149314819Y-60856857D01*
X149314819Y-60856857D02*
X149362438Y-60999714D01*
X149362438Y-60999714D02*
X149410057Y-61047333D01*
X149314819Y-61380667D02*
X149314819Y-61999714D01*
X149314819Y-61999714D02*
X149695771Y-61666381D01*
X149695771Y-61666381D02*
X149695771Y-61809238D01*
X149695771Y-61809238D02*
X149743390Y-61904476D01*
X149743390Y-61904476D02*
X149791009Y-61952095D01*
X149791009Y-61952095D02*
X149886247Y-61999714D01*
X149886247Y-61999714D02*
X150124342Y-61999714D01*
X150124342Y-61999714D02*
X150219580Y-61952095D01*
X150219580Y-61952095D02*
X150267200Y-61904476D01*
X150267200Y-61904476D02*
X150314819Y-61809238D01*
X150314819Y-61809238D02*
X150314819Y-61523524D01*
X150314819Y-61523524D02*
X150267200Y-61428286D01*
X150267200Y-61428286D02*
X150219580Y-61380667D01*
X138379580Y-60517833D02*
X138427200Y-60470214D01*
X138427200Y-60470214D02*
X138474819Y-60327357D01*
X138474819Y-60327357D02*
X138474819Y-60232119D01*
X138474819Y-60232119D02*
X138427200Y-60089262D01*
X138427200Y-60089262D02*
X138331961Y-59994024D01*
X138331961Y-59994024D02*
X138236723Y-59946405D01*
X138236723Y-59946405D02*
X138046247Y-59898786D01*
X138046247Y-59898786D02*
X137903390Y-59898786D01*
X137903390Y-59898786D02*
X137712914Y-59946405D01*
X137712914Y-59946405D02*
X137617676Y-59994024D01*
X137617676Y-59994024D02*
X137522438Y-60089262D01*
X137522438Y-60089262D02*
X137474819Y-60232119D01*
X137474819Y-60232119D02*
X137474819Y-60327357D01*
X137474819Y-60327357D02*
X137522438Y-60470214D01*
X137522438Y-60470214D02*
X137570057Y-60517833D01*
X137808152Y-61374976D02*
X138474819Y-61374976D01*
X137427200Y-61136881D02*
X138141485Y-60898786D01*
X138141485Y-60898786D02*
X138141485Y-61517833D01*
X123324857Y-65256580D02*
X123372476Y-65304200D01*
X123372476Y-65304200D02*
X123515333Y-65351819D01*
X123515333Y-65351819D02*
X123610571Y-65351819D01*
X123610571Y-65351819D02*
X123753428Y-65304200D01*
X123753428Y-65304200D02*
X123848666Y-65208961D01*
X123848666Y-65208961D02*
X123896285Y-65113723D01*
X123896285Y-65113723D02*
X123943904Y-64923247D01*
X123943904Y-64923247D02*
X123943904Y-64780390D01*
X123943904Y-64780390D02*
X123896285Y-64589914D01*
X123896285Y-64589914D02*
X123848666Y-64494676D01*
X123848666Y-64494676D02*
X123753428Y-64399438D01*
X123753428Y-64399438D02*
X123610571Y-64351819D01*
X123610571Y-64351819D02*
X123515333Y-64351819D01*
X123515333Y-64351819D02*
X123372476Y-64399438D01*
X123372476Y-64399438D02*
X123324857Y-64447057D01*
X122991523Y-64351819D02*
X122372476Y-64351819D01*
X122372476Y-64351819D02*
X122705809Y-64732771D01*
X122705809Y-64732771D02*
X122562952Y-64732771D01*
X122562952Y-64732771D02*
X122467714Y-64780390D01*
X122467714Y-64780390D02*
X122420095Y-64828009D01*
X122420095Y-64828009D02*
X122372476Y-64923247D01*
X122372476Y-64923247D02*
X122372476Y-65161342D01*
X122372476Y-65161342D02*
X122420095Y-65256580D01*
X122420095Y-65256580D02*
X122467714Y-65304200D01*
X122467714Y-65304200D02*
X122562952Y-65351819D01*
X122562952Y-65351819D02*
X122848666Y-65351819D01*
X122848666Y-65351819D02*
X122943904Y-65304200D01*
X122943904Y-65304200D02*
X122991523Y-65256580D01*
X121753428Y-64351819D02*
X121658190Y-64351819D01*
X121658190Y-64351819D02*
X121562952Y-64399438D01*
X121562952Y-64399438D02*
X121515333Y-64447057D01*
X121515333Y-64447057D02*
X121467714Y-64542295D01*
X121467714Y-64542295D02*
X121420095Y-64732771D01*
X121420095Y-64732771D02*
X121420095Y-64970866D01*
X121420095Y-64970866D02*
X121467714Y-65161342D01*
X121467714Y-65161342D02*
X121515333Y-65256580D01*
X121515333Y-65256580D02*
X121562952Y-65304200D01*
X121562952Y-65304200D02*
X121658190Y-65351819D01*
X121658190Y-65351819D02*
X121753428Y-65351819D01*
X121753428Y-65351819D02*
X121848666Y-65304200D01*
X121848666Y-65304200D02*
X121896285Y-65256580D01*
X121896285Y-65256580D02*
X121943904Y-65161342D01*
X121943904Y-65161342D02*
X121991523Y-64970866D01*
X121991523Y-64970866D02*
X121991523Y-64732771D01*
X121991523Y-64732771D02*
X121943904Y-64542295D01*
X121943904Y-64542295D02*
X121896285Y-64447057D01*
X121896285Y-64447057D02*
X121848666Y-64399438D01*
X121848666Y-64399438D02*
X121753428Y-64351819D01*
X145002190Y-64240628D02*
X145002190Y-64716819D01*
X145335523Y-63716819D02*
X145002190Y-64240628D01*
X145002190Y-64240628D02*
X144668857Y-63716819D01*
X143811714Y-64716819D02*
X144383142Y-64716819D01*
X144097428Y-64716819D02*
X144097428Y-63716819D01*
X144097428Y-63716819D02*
X144192666Y-63859676D01*
X144192666Y-63859676D02*
X144287904Y-63954914D01*
X144287904Y-63954914D02*
X144383142Y-64002533D01*
X132439580Y-94734142D02*
X132487200Y-94686523D01*
X132487200Y-94686523D02*
X132534819Y-94543666D01*
X132534819Y-94543666D02*
X132534819Y-94448428D01*
X132534819Y-94448428D02*
X132487200Y-94305571D01*
X132487200Y-94305571D02*
X132391961Y-94210333D01*
X132391961Y-94210333D02*
X132296723Y-94162714D01*
X132296723Y-94162714D02*
X132106247Y-94115095D01*
X132106247Y-94115095D02*
X131963390Y-94115095D01*
X131963390Y-94115095D02*
X131772914Y-94162714D01*
X131772914Y-94162714D02*
X131677676Y-94210333D01*
X131677676Y-94210333D02*
X131582438Y-94305571D01*
X131582438Y-94305571D02*
X131534819Y-94448428D01*
X131534819Y-94448428D02*
X131534819Y-94543666D01*
X131534819Y-94543666D02*
X131582438Y-94686523D01*
X131582438Y-94686523D02*
X131630057Y-94734142D01*
X131630057Y-95115095D02*
X131582438Y-95162714D01*
X131582438Y-95162714D02*
X131534819Y-95257952D01*
X131534819Y-95257952D02*
X131534819Y-95496047D01*
X131534819Y-95496047D02*
X131582438Y-95591285D01*
X131582438Y-95591285D02*
X131630057Y-95638904D01*
X131630057Y-95638904D02*
X131725295Y-95686523D01*
X131725295Y-95686523D02*
X131820533Y-95686523D01*
X131820533Y-95686523D02*
X131963390Y-95638904D01*
X131963390Y-95638904D02*
X132534819Y-95067476D01*
X132534819Y-95067476D02*
X132534819Y-95686523D01*
X131630057Y-96067476D02*
X131582438Y-96115095D01*
X131582438Y-96115095D02*
X131534819Y-96210333D01*
X131534819Y-96210333D02*
X131534819Y-96448428D01*
X131534819Y-96448428D02*
X131582438Y-96543666D01*
X131582438Y-96543666D02*
X131630057Y-96591285D01*
X131630057Y-96591285D02*
X131725295Y-96638904D01*
X131725295Y-96638904D02*
X131820533Y-96638904D01*
X131820533Y-96638904D02*
X131963390Y-96591285D01*
X131963390Y-96591285D02*
X132534819Y-96019857D01*
X132534819Y-96019857D02*
X132534819Y-96638904D01*
X123242857Y-76559580D02*
X123290476Y-76607200D01*
X123290476Y-76607200D02*
X123433333Y-76654819D01*
X123433333Y-76654819D02*
X123528571Y-76654819D01*
X123528571Y-76654819D02*
X123671428Y-76607200D01*
X123671428Y-76607200D02*
X123766666Y-76511961D01*
X123766666Y-76511961D02*
X123814285Y-76416723D01*
X123814285Y-76416723D02*
X123861904Y-76226247D01*
X123861904Y-76226247D02*
X123861904Y-76083390D01*
X123861904Y-76083390D02*
X123814285Y-75892914D01*
X123814285Y-75892914D02*
X123766666Y-75797676D01*
X123766666Y-75797676D02*
X123671428Y-75702438D01*
X123671428Y-75702438D02*
X123528571Y-75654819D01*
X123528571Y-75654819D02*
X123433333Y-75654819D01*
X123433333Y-75654819D02*
X123290476Y-75702438D01*
X123290476Y-75702438D02*
X123242857Y-75750057D01*
X122909523Y-75654819D02*
X122290476Y-75654819D01*
X122290476Y-75654819D02*
X122623809Y-76035771D01*
X122623809Y-76035771D02*
X122480952Y-76035771D01*
X122480952Y-76035771D02*
X122385714Y-76083390D01*
X122385714Y-76083390D02*
X122338095Y-76131009D01*
X122338095Y-76131009D02*
X122290476Y-76226247D01*
X122290476Y-76226247D02*
X122290476Y-76464342D01*
X122290476Y-76464342D02*
X122338095Y-76559580D01*
X122338095Y-76559580D02*
X122385714Y-76607200D01*
X122385714Y-76607200D02*
X122480952Y-76654819D01*
X122480952Y-76654819D02*
X122766666Y-76654819D01*
X122766666Y-76654819D02*
X122861904Y-76607200D01*
X122861904Y-76607200D02*
X122909523Y-76559580D01*
X121433333Y-75654819D02*
X121623809Y-75654819D01*
X121623809Y-75654819D02*
X121719047Y-75702438D01*
X121719047Y-75702438D02*
X121766666Y-75750057D01*
X121766666Y-75750057D02*
X121861904Y-75892914D01*
X121861904Y-75892914D02*
X121909523Y-76083390D01*
X121909523Y-76083390D02*
X121909523Y-76464342D01*
X121909523Y-76464342D02*
X121861904Y-76559580D01*
X121861904Y-76559580D02*
X121814285Y-76607200D01*
X121814285Y-76607200D02*
X121719047Y-76654819D01*
X121719047Y-76654819D02*
X121528571Y-76654819D01*
X121528571Y-76654819D02*
X121433333Y-76607200D01*
X121433333Y-76607200D02*
X121385714Y-76559580D01*
X121385714Y-76559580D02*
X121338095Y-76464342D01*
X121338095Y-76464342D02*
X121338095Y-76226247D01*
X121338095Y-76226247D02*
X121385714Y-76131009D01*
X121385714Y-76131009D02*
X121433333Y-76083390D01*
X121433333Y-76083390D02*
X121528571Y-76035771D01*
X121528571Y-76035771D02*
X121719047Y-76035771D01*
X121719047Y-76035771D02*
X121814285Y-76083390D01*
X121814285Y-76083390D02*
X121861904Y-76131009D01*
X121861904Y-76131009D02*
X121909523Y-76226247D01*
X132242857Y-65654819D02*
X132576190Y-65178628D01*
X132814285Y-65654819D02*
X132814285Y-64654819D01*
X132814285Y-64654819D02*
X132433333Y-64654819D01*
X132433333Y-64654819D02*
X132338095Y-64702438D01*
X132338095Y-64702438D02*
X132290476Y-64750057D01*
X132290476Y-64750057D02*
X132242857Y-64845295D01*
X132242857Y-64845295D02*
X132242857Y-64988152D01*
X132242857Y-64988152D02*
X132290476Y-65083390D01*
X132290476Y-65083390D02*
X132338095Y-65131009D01*
X132338095Y-65131009D02*
X132433333Y-65178628D01*
X132433333Y-65178628D02*
X132814285Y-65178628D01*
X131338095Y-64654819D02*
X131814285Y-64654819D01*
X131814285Y-64654819D02*
X131861904Y-65131009D01*
X131861904Y-65131009D02*
X131814285Y-65083390D01*
X131814285Y-65083390D02*
X131719047Y-65035771D01*
X131719047Y-65035771D02*
X131480952Y-65035771D01*
X131480952Y-65035771D02*
X131385714Y-65083390D01*
X131385714Y-65083390D02*
X131338095Y-65131009D01*
X131338095Y-65131009D02*
X131290476Y-65226247D01*
X131290476Y-65226247D02*
X131290476Y-65464342D01*
X131290476Y-65464342D02*
X131338095Y-65559580D01*
X131338095Y-65559580D02*
X131385714Y-65607200D01*
X131385714Y-65607200D02*
X131480952Y-65654819D01*
X131480952Y-65654819D02*
X131719047Y-65654819D01*
X131719047Y-65654819D02*
X131814285Y-65607200D01*
X131814285Y-65607200D02*
X131861904Y-65559580D01*
X130814285Y-65654819D02*
X130623809Y-65654819D01*
X130623809Y-65654819D02*
X130528571Y-65607200D01*
X130528571Y-65607200D02*
X130480952Y-65559580D01*
X130480952Y-65559580D02*
X130385714Y-65416723D01*
X130385714Y-65416723D02*
X130338095Y-65226247D01*
X130338095Y-65226247D02*
X130338095Y-64845295D01*
X130338095Y-64845295D02*
X130385714Y-64750057D01*
X130385714Y-64750057D02*
X130433333Y-64702438D01*
X130433333Y-64702438D02*
X130528571Y-64654819D01*
X130528571Y-64654819D02*
X130719047Y-64654819D01*
X130719047Y-64654819D02*
X130814285Y-64702438D01*
X130814285Y-64702438D02*
X130861904Y-64750057D01*
X130861904Y-64750057D02*
X130909523Y-64845295D01*
X130909523Y-64845295D02*
X130909523Y-65083390D01*
X130909523Y-65083390D02*
X130861904Y-65178628D01*
X130861904Y-65178628D02*
X130814285Y-65226247D01*
X130814285Y-65226247D02*
X130719047Y-65273866D01*
X130719047Y-65273866D02*
X130528571Y-65273866D01*
X130528571Y-65273866D02*
X130433333Y-65226247D01*
X130433333Y-65226247D02*
X130385714Y-65178628D01*
X130385714Y-65178628D02*
X130338095Y-65083390D01*
X154537580Y-91654333D02*
X154585200Y-91606714D01*
X154585200Y-91606714D02*
X154632819Y-91463857D01*
X154632819Y-91463857D02*
X154632819Y-91368619D01*
X154632819Y-91368619D02*
X154585200Y-91225762D01*
X154585200Y-91225762D02*
X154489961Y-91130524D01*
X154489961Y-91130524D02*
X154394723Y-91082905D01*
X154394723Y-91082905D02*
X154204247Y-91035286D01*
X154204247Y-91035286D02*
X154061390Y-91035286D01*
X154061390Y-91035286D02*
X153870914Y-91082905D01*
X153870914Y-91082905D02*
X153775676Y-91130524D01*
X153775676Y-91130524D02*
X153680438Y-91225762D01*
X153680438Y-91225762D02*
X153632819Y-91368619D01*
X153632819Y-91368619D02*
X153632819Y-91463857D01*
X153632819Y-91463857D02*
X153680438Y-91606714D01*
X153680438Y-91606714D02*
X153728057Y-91654333D01*
X154632819Y-92130524D02*
X154632819Y-92321000D01*
X154632819Y-92321000D02*
X154585200Y-92416238D01*
X154585200Y-92416238D02*
X154537580Y-92463857D01*
X154537580Y-92463857D02*
X154394723Y-92559095D01*
X154394723Y-92559095D02*
X154204247Y-92606714D01*
X154204247Y-92606714D02*
X153823295Y-92606714D01*
X153823295Y-92606714D02*
X153728057Y-92559095D01*
X153728057Y-92559095D02*
X153680438Y-92511476D01*
X153680438Y-92511476D02*
X153632819Y-92416238D01*
X153632819Y-92416238D02*
X153632819Y-92225762D01*
X153632819Y-92225762D02*
X153680438Y-92130524D01*
X153680438Y-92130524D02*
X153728057Y-92082905D01*
X153728057Y-92082905D02*
X153823295Y-92035286D01*
X153823295Y-92035286D02*
X154061390Y-92035286D01*
X154061390Y-92035286D02*
X154156628Y-92082905D01*
X154156628Y-92082905D02*
X154204247Y-92130524D01*
X154204247Y-92130524D02*
X154251866Y-92225762D01*
X154251866Y-92225762D02*
X154251866Y-92416238D01*
X154251866Y-92416238D02*
X154204247Y-92511476D01*
X154204247Y-92511476D02*
X154156628Y-92559095D01*
X154156628Y-92559095D02*
X154061390Y-92606714D01*
X112656857Y-67129819D02*
X112990190Y-66653628D01*
X113228285Y-67129819D02*
X113228285Y-66129819D01*
X113228285Y-66129819D02*
X112847333Y-66129819D01*
X112847333Y-66129819D02*
X112752095Y-66177438D01*
X112752095Y-66177438D02*
X112704476Y-66225057D01*
X112704476Y-66225057D02*
X112656857Y-66320295D01*
X112656857Y-66320295D02*
X112656857Y-66463152D01*
X112656857Y-66463152D02*
X112704476Y-66558390D01*
X112704476Y-66558390D02*
X112752095Y-66606009D01*
X112752095Y-66606009D02*
X112847333Y-66653628D01*
X112847333Y-66653628D02*
X113228285Y-66653628D01*
X111752095Y-66129819D02*
X112228285Y-66129819D01*
X112228285Y-66129819D02*
X112275904Y-66606009D01*
X112275904Y-66606009D02*
X112228285Y-66558390D01*
X112228285Y-66558390D02*
X112133047Y-66510771D01*
X112133047Y-66510771D02*
X111894952Y-66510771D01*
X111894952Y-66510771D02*
X111799714Y-66558390D01*
X111799714Y-66558390D02*
X111752095Y-66606009D01*
X111752095Y-66606009D02*
X111704476Y-66701247D01*
X111704476Y-66701247D02*
X111704476Y-66939342D01*
X111704476Y-66939342D02*
X111752095Y-67034580D01*
X111752095Y-67034580D02*
X111799714Y-67082200D01*
X111799714Y-67082200D02*
X111894952Y-67129819D01*
X111894952Y-67129819D02*
X112133047Y-67129819D01*
X112133047Y-67129819D02*
X112228285Y-67082200D01*
X112228285Y-67082200D02*
X112275904Y-67034580D01*
X110847333Y-66463152D02*
X110847333Y-67129819D01*
X111085428Y-66082200D02*
X111323523Y-66796485D01*
X111323523Y-66796485D02*
X110704476Y-66796485D01*
X173053333Y-38443819D02*
X173053333Y-39158104D01*
X173053333Y-39158104D02*
X173100952Y-39300961D01*
X173100952Y-39300961D02*
X173196190Y-39396200D01*
X173196190Y-39396200D02*
X173339047Y-39443819D01*
X173339047Y-39443819D02*
X173434285Y-39443819D01*
X172672380Y-38443819D02*
X172005714Y-38443819D01*
X172005714Y-38443819D02*
X172434285Y-39443819D01*
X129137580Y-94988142D02*
X129185200Y-94940523D01*
X129185200Y-94940523D02*
X129232819Y-94797666D01*
X129232819Y-94797666D02*
X129232819Y-94702428D01*
X129232819Y-94702428D02*
X129185200Y-94559571D01*
X129185200Y-94559571D02*
X129089961Y-94464333D01*
X129089961Y-94464333D02*
X128994723Y-94416714D01*
X128994723Y-94416714D02*
X128804247Y-94369095D01*
X128804247Y-94369095D02*
X128661390Y-94369095D01*
X128661390Y-94369095D02*
X128470914Y-94416714D01*
X128470914Y-94416714D02*
X128375676Y-94464333D01*
X128375676Y-94464333D02*
X128280438Y-94559571D01*
X128280438Y-94559571D02*
X128232819Y-94702428D01*
X128232819Y-94702428D02*
X128232819Y-94797666D01*
X128232819Y-94797666D02*
X128280438Y-94940523D01*
X128280438Y-94940523D02*
X128328057Y-94988142D01*
X128328057Y-95369095D02*
X128280438Y-95416714D01*
X128280438Y-95416714D02*
X128232819Y-95511952D01*
X128232819Y-95511952D02*
X128232819Y-95750047D01*
X128232819Y-95750047D02*
X128280438Y-95845285D01*
X128280438Y-95845285D02*
X128328057Y-95892904D01*
X128328057Y-95892904D02*
X128423295Y-95940523D01*
X128423295Y-95940523D02*
X128518533Y-95940523D01*
X128518533Y-95940523D02*
X128661390Y-95892904D01*
X128661390Y-95892904D02*
X129232819Y-95321476D01*
X129232819Y-95321476D02*
X129232819Y-95940523D01*
X129232819Y-96892904D02*
X129232819Y-96321476D01*
X129232819Y-96607190D02*
X128232819Y-96607190D01*
X128232819Y-96607190D02*
X128375676Y-96511952D01*
X128375676Y-96511952D02*
X128470914Y-96416714D01*
X128470914Y-96416714D02*
X128518533Y-96321476D01*
X115642857Y-70654819D02*
X115976190Y-70178628D01*
X116214285Y-70654819D02*
X116214285Y-69654819D01*
X116214285Y-69654819D02*
X115833333Y-69654819D01*
X115833333Y-69654819D02*
X115738095Y-69702438D01*
X115738095Y-69702438D02*
X115690476Y-69750057D01*
X115690476Y-69750057D02*
X115642857Y-69845295D01*
X115642857Y-69845295D02*
X115642857Y-69988152D01*
X115642857Y-69988152D02*
X115690476Y-70083390D01*
X115690476Y-70083390D02*
X115738095Y-70131009D01*
X115738095Y-70131009D02*
X115833333Y-70178628D01*
X115833333Y-70178628D02*
X116214285Y-70178628D01*
X114738095Y-69654819D02*
X115214285Y-69654819D01*
X115214285Y-69654819D02*
X115261904Y-70131009D01*
X115261904Y-70131009D02*
X115214285Y-70083390D01*
X115214285Y-70083390D02*
X115119047Y-70035771D01*
X115119047Y-70035771D02*
X114880952Y-70035771D01*
X114880952Y-70035771D02*
X114785714Y-70083390D01*
X114785714Y-70083390D02*
X114738095Y-70131009D01*
X114738095Y-70131009D02*
X114690476Y-70226247D01*
X114690476Y-70226247D02*
X114690476Y-70464342D01*
X114690476Y-70464342D02*
X114738095Y-70559580D01*
X114738095Y-70559580D02*
X114785714Y-70607200D01*
X114785714Y-70607200D02*
X114880952Y-70654819D01*
X114880952Y-70654819D02*
X115119047Y-70654819D01*
X115119047Y-70654819D02*
X115214285Y-70607200D01*
X115214285Y-70607200D02*
X115261904Y-70559580D01*
X114309523Y-69750057D02*
X114261904Y-69702438D01*
X114261904Y-69702438D02*
X114166666Y-69654819D01*
X114166666Y-69654819D02*
X113928571Y-69654819D01*
X113928571Y-69654819D02*
X113833333Y-69702438D01*
X113833333Y-69702438D02*
X113785714Y-69750057D01*
X113785714Y-69750057D02*
X113738095Y-69845295D01*
X113738095Y-69845295D02*
X113738095Y-69940533D01*
X113738095Y-69940533D02*
X113785714Y-70083390D01*
X113785714Y-70083390D02*
X114357142Y-70654819D01*
X114357142Y-70654819D02*
X113738095Y-70654819D01*
X119999524Y-91618264D02*
X118999524Y-91618264D01*
X118999524Y-91618264D02*
X118999524Y-91856359D01*
X118999524Y-91856359D02*
X119047143Y-91999216D01*
X119047143Y-91999216D02*
X119142381Y-92094454D01*
X119142381Y-92094454D02*
X119237619Y-92142073D01*
X119237619Y-92142073D02*
X119428095Y-92189692D01*
X119428095Y-92189692D02*
X119570952Y-92189692D01*
X119570952Y-92189692D02*
X119761428Y-92142073D01*
X119761428Y-92142073D02*
X119856666Y-92094454D01*
X119856666Y-92094454D02*
X119951905Y-91999216D01*
X119951905Y-91999216D02*
X119999524Y-91856359D01*
X119999524Y-91856359D02*
X119999524Y-91618264D01*
X119999524Y-93142073D02*
X119999524Y-92570645D01*
X119999524Y-92856359D02*
X118999524Y-92856359D01*
X118999524Y-92856359D02*
X119142381Y-92761121D01*
X119142381Y-92761121D02*
X119237619Y-92665883D01*
X119237619Y-92665883D02*
X119285238Y-92570645D01*
X118999524Y-93475407D02*
X118999524Y-94142073D01*
X118999524Y-94142073D02*
X119999524Y-93713502D01*
X118834819Y-61214095D02*
X119644342Y-61214095D01*
X119644342Y-61214095D02*
X119739580Y-61261714D01*
X119739580Y-61261714D02*
X119787200Y-61309333D01*
X119787200Y-61309333D02*
X119834819Y-61404571D01*
X119834819Y-61404571D02*
X119834819Y-61595047D01*
X119834819Y-61595047D02*
X119787200Y-61690285D01*
X119787200Y-61690285D02*
X119739580Y-61737904D01*
X119739580Y-61737904D02*
X119644342Y-61785523D01*
X119644342Y-61785523D02*
X118834819Y-61785523D01*
X119834819Y-62309333D02*
X119834819Y-62499809D01*
X119834819Y-62499809D02*
X119787200Y-62595047D01*
X119787200Y-62595047D02*
X119739580Y-62642666D01*
X119739580Y-62642666D02*
X119596723Y-62737904D01*
X119596723Y-62737904D02*
X119406247Y-62785523D01*
X119406247Y-62785523D02*
X119025295Y-62785523D01*
X119025295Y-62785523D02*
X118930057Y-62737904D01*
X118930057Y-62737904D02*
X118882438Y-62690285D01*
X118882438Y-62690285D02*
X118834819Y-62595047D01*
X118834819Y-62595047D02*
X118834819Y-62404571D01*
X118834819Y-62404571D02*
X118882438Y-62309333D01*
X118882438Y-62309333D02*
X118930057Y-62261714D01*
X118930057Y-62261714D02*
X119025295Y-62214095D01*
X119025295Y-62214095D02*
X119263390Y-62214095D01*
X119263390Y-62214095D02*
X119358628Y-62261714D01*
X119358628Y-62261714D02*
X119406247Y-62309333D01*
X119406247Y-62309333D02*
X119453866Y-62404571D01*
X119453866Y-62404571D02*
X119453866Y-62595047D01*
X119453866Y-62595047D02*
X119406247Y-62690285D01*
X119406247Y-62690285D02*
X119358628Y-62737904D01*
X119358628Y-62737904D02*
X119263390Y-62785523D01*
X168240779Y-88099219D02*
X168288399Y-88051600D01*
X168288399Y-88051600D02*
X168336018Y-87908743D01*
X168336018Y-87908743D02*
X168336018Y-87813505D01*
X168336018Y-87813505D02*
X168288399Y-87670648D01*
X168288399Y-87670648D02*
X168193160Y-87575410D01*
X168193160Y-87575410D02*
X168097922Y-87527791D01*
X168097922Y-87527791D02*
X167907446Y-87480172D01*
X167907446Y-87480172D02*
X167764589Y-87480172D01*
X167764589Y-87480172D02*
X167574113Y-87527791D01*
X167574113Y-87527791D02*
X167478875Y-87575410D01*
X167478875Y-87575410D02*
X167383637Y-87670648D01*
X167383637Y-87670648D02*
X167336018Y-87813505D01*
X167336018Y-87813505D02*
X167336018Y-87908743D01*
X167336018Y-87908743D02*
X167383637Y-88051600D01*
X167383637Y-88051600D02*
X167431256Y-88099219D01*
X168336018Y-89051600D02*
X168336018Y-88480172D01*
X168336018Y-88765886D02*
X167336018Y-88765886D01*
X167336018Y-88765886D02*
X167478875Y-88670648D01*
X167478875Y-88670648D02*
X167574113Y-88575410D01*
X167574113Y-88575410D02*
X167621732Y-88480172D01*
X168336018Y-90003981D02*
X168336018Y-89432553D01*
X168336018Y-89718267D02*
X167336018Y-89718267D01*
X167336018Y-89718267D02*
X167478875Y-89623029D01*
X167478875Y-89623029D02*
X167574113Y-89527791D01*
X167574113Y-89527791D02*
X167621732Y-89432553D01*
X135836819Y-76827142D02*
X135360628Y-76493809D01*
X135836819Y-76255714D02*
X134836819Y-76255714D01*
X134836819Y-76255714D02*
X134836819Y-76636666D01*
X134836819Y-76636666D02*
X134884438Y-76731904D01*
X134884438Y-76731904D02*
X134932057Y-76779523D01*
X134932057Y-76779523D02*
X135027295Y-76827142D01*
X135027295Y-76827142D02*
X135170152Y-76827142D01*
X135170152Y-76827142D02*
X135265390Y-76779523D01*
X135265390Y-76779523D02*
X135313009Y-76731904D01*
X135313009Y-76731904D02*
X135360628Y-76636666D01*
X135360628Y-76636666D02*
X135360628Y-76255714D01*
X135170152Y-77684285D02*
X135836819Y-77684285D01*
X134789200Y-77446190D02*
X135503485Y-77208095D01*
X135503485Y-77208095D02*
X135503485Y-77827142D01*
X135836819Y-78255714D02*
X135836819Y-78446190D01*
X135836819Y-78446190D02*
X135789200Y-78541428D01*
X135789200Y-78541428D02*
X135741580Y-78589047D01*
X135741580Y-78589047D02*
X135598723Y-78684285D01*
X135598723Y-78684285D02*
X135408247Y-78731904D01*
X135408247Y-78731904D02*
X135027295Y-78731904D01*
X135027295Y-78731904D02*
X134932057Y-78684285D01*
X134932057Y-78684285D02*
X134884438Y-78636666D01*
X134884438Y-78636666D02*
X134836819Y-78541428D01*
X134836819Y-78541428D02*
X134836819Y-78350952D01*
X134836819Y-78350952D02*
X134884438Y-78255714D01*
X134884438Y-78255714D02*
X134932057Y-78208095D01*
X134932057Y-78208095D02*
X135027295Y-78160476D01*
X135027295Y-78160476D02*
X135265390Y-78160476D01*
X135265390Y-78160476D02*
X135360628Y-78208095D01*
X135360628Y-78208095D02*
X135408247Y-78255714D01*
X135408247Y-78255714D02*
X135455866Y-78350952D01*
X135455866Y-78350952D02*
X135455866Y-78541428D01*
X135455866Y-78541428D02*
X135408247Y-78636666D01*
X135408247Y-78636666D02*
X135360628Y-78684285D01*
X135360628Y-78684285D02*
X135265390Y-78731904D01*
X134185819Y-76954142D02*
X133709628Y-76620809D01*
X134185819Y-76382714D02*
X133185819Y-76382714D01*
X133185819Y-76382714D02*
X133185819Y-76763666D01*
X133185819Y-76763666D02*
X133233438Y-76858904D01*
X133233438Y-76858904D02*
X133281057Y-76906523D01*
X133281057Y-76906523D02*
X133376295Y-76954142D01*
X133376295Y-76954142D02*
X133519152Y-76954142D01*
X133519152Y-76954142D02*
X133614390Y-76906523D01*
X133614390Y-76906523D02*
X133662009Y-76858904D01*
X133662009Y-76858904D02*
X133709628Y-76763666D01*
X133709628Y-76763666D02*
X133709628Y-76382714D01*
X133185819Y-77858904D02*
X133185819Y-77382714D01*
X133185819Y-77382714D02*
X133662009Y-77335095D01*
X133662009Y-77335095D02*
X133614390Y-77382714D01*
X133614390Y-77382714D02*
X133566771Y-77477952D01*
X133566771Y-77477952D02*
X133566771Y-77716047D01*
X133566771Y-77716047D02*
X133614390Y-77811285D01*
X133614390Y-77811285D02*
X133662009Y-77858904D01*
X133662009Y-77858904D02*
X133757247Y-77906523D01*
X133757247Y-77906523D02*
X133995342Y-77906523D01*
X133995342Y-77906523D02*
X134090580Y-77858904D01*
X134090580Y-77858904D02*
X134138200Y-77811285D01*
X134138200Y-77811285D02*
X134185819Y-77716047D01*
X134185819Y-77716047D02*
X134185819Y-77477952D01*
X134185819Y-77477952D02*
X134138200Y-77382714D01*
X134138200Y-77382714D02*
X134090580Y-77335095D01*
X133185819Y-78525571D02*
X133185819Y-78620809D01*
X133185819Y-78620809D02*
X133233438Y-78716047D01*
X133233438Y-78716047D02*
X133281057Y-78763666D01*
X133281057Y-78763666D02*
X133376295Y-78811285D01*
X133376295Y-78811285D02*
X133566771Y-78858904D01*
X133566771Y-78858904D02*
X133804866Y-78858904D01*
X133804866Y-78858904D02*
X133995342Y-78811285D01*
X133995342Y-78811285D02*
X134090580Y-78763666D01*
X134090580Y-78763666D02*
X134138200Y-78716047D01*
X134138200Y-78716047D02*
X134185819Y-78620809D01*
X134185819Y-78620809D02*
X134185819Y-78525571D01*
X134185819Y-78525571D02*
X134138200Y-78430333D01*
X134138200Y-78430333D02*
X134090580Y-78382714D01*
X134090580Y-78382714D02*
X133995342Y-78335095D01*
X133995342Y-78335095D02*
X133804866Y-78287476D01*
X133804866Y-78287476D02*
X133566771Y-78287476D01*
X133566771Y-78287476D02*
X133376295Y-78335095D01*
X133376295Y-78335095D02*
X133281057Y-78382714D01*
X133281057Y-78382714D02*
X133233438Y-78430333D01*
X133233438Y-78430333D02*
X133185819Y-78525571D01*
X139297580Y-68318142D02*
X139345200Y-68270523D01*
X139345200Y-68270523D02*
X139392819Y-68127666D01*
X139392819Y-68127666D02*
X139392819Y-68032428D01*
X139392819Y-68032428D02*
X139345200Y-67889571D01*
X139345200Y-67889571D02*
X139249961Y-67794333D01*
X139249961Y-67794333D02*
X139154723Y-67746714D01*
X139154723Y-67746714D02*
X138964247Y-67699095D01*
X138964247Y-67699095D02*
X138821390Y-67699095D01*
X138821390Y-67699095D02*
X138630914Y-67746714D01*
X138630914Y-67746714D02*
X138535676Y-67794333D01*
X138535676Y-67794333D02*
X138440438Y-67889571D01*
X138440438Y-67889571D02*
X138392819Y-68032428D01*
X138392819Y-68032428D02*
X138392819Y-68127666D01*
X138392819Y-68127666D02*
X138440438Y-68270523D01*
X138440438Y-68270523D02*
X138488057Y-68318142D01*
X138392819Y-68651476D02*
X138392819Y-69270523D01*
X138392819Y-69270523D02*
X138773771Y-68937190D01*
X138773771Y-68937190D02*
X138773771Y-69080047D01*
X138773771Y-69080047D02*
X138821390Y-69175285D01*
X138821390Y-69175285D02*
X138869009Y-69222904D01*
X138869009Y-69222904D02*
X138964247Y-69270523D01*
X138964247Y-69270523D02*
X139202342Y-69270523D01*
X139202342Y-69270523D02*
X139297580Y-69222904D01*
X139297580Y-69222904D02*
X139345200Y-69175285D01*
X139345200Y-69175285D02*
X139392819Y-69080047D01*
X139392819Y-69080047D02*
X139392819Y-68794333D01*
X139392819Y-68794333D02*
X139345200Y-68699095D01*
X139345200Y-68699095D02*
X139297580Y-68651476D01*
X138821390Y-69841952D02*
X138773771Y-69746714D01*
X138773771Y-69746714D02*
X138726152Y-69699095D01*
X138726152Y-69699095D02*
X138630914Y-69651476D01*
X138630914Y-69651476D02*
X138583295Y-69651476D01*
X138583295Y-69651476D02*
X138488057Y-69699095D01*
X138488057Y-69699095D02*
X138440438Y-69746714D01*
X138440438Y-69746714D02*
X138392819Y-69841952D01*
X138392819Y-69841952D02*
X138392819Y-70032428D01*
X138392819Y-70032428D02*
X138440438Y-70127666D01*
X138440438Y-70127666D02*
X138488057Y-70175285D01*
X138488057Y-70175285D02*
X138583295Y-70222904D01*
X138583295Y-70222904D02*
X138630914Y-70222904D01*
X138630914Y-70222904D02*
X138726152Y-70175285D01*
X138726152Y-70175285D02*
X138773771Y-70127666D01*
X138773771Y-70127666D02*
X138821390Y-70032428D01*
X138821390Y-70032428D02*
X138821390Y-69841952D01*
X138821390Y-69841952D02*
X138869009Y-69746714D01*
X138869009Y-69746714D02*
X138916628Y-69699095D01*
X138916628Y-69699095D02*
X139011866Y-69651476D01*
X139011866Y-69651476D02*
X139202342Y-69651476D01*
X139202342Y-69651476D02*
X139297580Y-69699095D01*
X139297580Y-69699095D02*
X139345200Y-69746714D01*
X139345200Y-69746714D02*
X139392819Y-69841952D01*
X139392819Y-69841952D02*
X139392819Y-70032428D01*
X139392819Y-70032428D02*
X139345200Y-70127666D01*
X139345200Y-70127666D02*
X139297580Y-70175285D01*
X139297580Y-70175285D02*
X139202342Y-70222904D01*
X139202342Y-70222904D02*
X139011866Y-70222904D01*
X139011866Y-70222904D02*
X138916628Y-70175285D01*
X138916628Y-70175285D02*
X138869009Y-70127666D01*
X138869009Y-70127666D02*
X138821390Y-70032428D01*
D12*
%TO.C,R20*%
X143179365Y-89294641D02*
X143179365Y-84940513D01*
X146599365Y-89294641D02*
X146599365Y-84940513D01*
%TO.C,C6*%
X138890000Y-64746267D02*
X138890000Y-64453733D01*
X139910000Y-64746267D02*
X139910000Y-64453733D01*
%TO.C,D3*%
X140910000Y-81660000D02*
X138690000Y-81660000D01*
X138690000Y-81660000D02*
X138690000Y-77250000D01*
X140910000Y-77250000D02*
X140910000Y-81660000D01*
%TO.C,U2*%
X159958000Y-84366000D02*
X159628000Y-84606000D01*
X159628000Y-84126000D01*
X159958000Y-84366000D01*
G36*
X159958000Y-84366000D02*
G01*
X159628000Y-84606000D01*
X159628000Y-84126000D01*
X159958000Y-84366000D01*
G37*
D10*
X165008000Y-84966000D02*
X165008000Y-89116000D01*
X159858000Y-84966000D02*
X159858000Y-89116000D01*
D12*
%TO.C,U4*%
X147494365Y-84442577D02*
X147164365Y-84682577D01*
X147164365Y-84202577D01*
X147494365Y-84442577D01*
G36*
X147494365Y-84442577D02*
G01*
X147164365Y-84682577D01*
X147164365Y-84202577D01*
X147494365Y-84442577D01*
G37*
D10*
X152544365Y-85042577D02*
X152544365Y-89192577D01*
X147394365Y-85042577D02*
X147394365Y-89192577D01*
D12*
%TO.C,C40*%
X126490000Y-68980267D02*
X126490000Y-68687733D01*
X127510000Y-68980267D02*
X127510000Y-68687733D01*
%TO.C,FB1*%
X148284000Y-74022378D02*
X148284000Y-74821622D01*
X149404000Y-74022378D02*
X149404000Y-74821622D01*
%TO.C,JP3*%
X153286265Y-83823346D02*
X153286265Y-85223346D01*
X153986265Y-85923346D02*
X154586265Y-85923346D01*
X154586265Y-83123346D02*
X153986265Y-83123346D01*
X155286265Y-85223346D02*
X155286265Y-83823346D01*
X153286265Y-83823346D02*
G75*
G02*
X153986265Y-83123346I699999J1D01*
G01*
X153986265Y-85923346D02*
G75*
G02*
X153286265Y-85223346I0J700000D01*
G01*
X154586265Y-83123346D02*
G75*
G02*
X155286265Y-83823346I1J-699999D01*
G01*
X155286265Y-85223346D02*
G75*
G02*
X154586265Y-85923346I-700000J0D01*
G01*
%TO.C,R79*%
X181341500Y-41401276D02*
X181341500Y-41910724D01*
X182386500Y-41401276D02*
X182386500Y-41910724D01*
%TO.C,R63*%
X124699500Y-69088724D02*
X124699500Y-68579276D01*
X125744500Y-69088724D02*
X125744500Y-68579276D01*
%TO.C,C25*%
X137920000Y-91701233D02*
X137920000Y-91993767D01*
X138940000Y-91701233D02*
X138940000Y-91993767D01*
%TO.C,R51*%
X119254724Y-58477500D02*
X118745276Y-58477500D01*
X119254724Y-59522500D02*
X118745276Y-59522500D01*
%TO.C,R47*%
X136398724Y-84277500D02*
X135889276Y-84277500D01*
X136398724Y-85322500D02*
X135889276Y-85322500D01*
%TO.C,JP2*%
X146682000Y-77805000D02*
X146682000Y-78405000D01*
X147382000Y-79105000D02*
X148782000Y-79105000D01*
X148782000Y-77105000D02*
X147382000Y-77105000D01*
X149482000Y-78405000D02*
X149482000Y-77805000D01*
X146682000Y-77805000D02*
G75*
G02*
X147382000Y-77105000I700000J0D01*
G01*
X147382000Y-79105000D02*
G75*
G02*
X146682000Y-78405000I0J700000D01*
G01*
X148782000Y-77105000D02*
G75*
G02*
X149482000Y-77805000I1J-699999D01*
G01*
X149482000Y-78405000D02*
G75*
G02*
X148782000Y-79105000I-699999J-1D01*
G01*
%TO.C,C34*%
X115103733Y-64740000D02*
X115396267Y-64740000D01*
X115103733Y-65760000D02*
X115396267Y-65760000D01*
%TO.C,R83*%
X169417276Y-81011500D02*
X169926724Y-81011500D01*
X169417276Y-82056500D02*
X169926724Y-82056500D01*
%TO.C,R6*%
X155889261Y-89021610D02*
X155889261Y-84667482D01*
X159309261Y-89021610D02*
X159309261Y-84667482D01*
%TO.C,R55*%
X111277500Y-68745276D02*
X111277500Y-69254724D01*
X112322500Y-68745276D02*
X112322500Y-69254724D01*
%TO.C,C2*%
X150366000Y-74429233D02*
X150366000Y-74721767D01*
X151386000Y-74429233D02*
X151386000Y-74721767D01*
%TO.C,C1*%
X164138748Y-56865000D02*
X164661252Y-56865000D01*
X164138748Y-58335000D02*
X164661252Y-58335000D01*
%TO.C,R61*%
X131854724Y-68077500D02*
X131345276Y-68077500D01*
X131854724Y-69122500D02*
X131345276Y-69122500D01*
%TO.C,R81*%
X180339276Y-85837500D02*
X180848724Y-85837500D01*
X180339276Y-86882500D02*
X180848724Y-86882500D01*
%TO.C,C46*%
X133242267Y-44575000D02*
X132949733Y-44575000D01*
X133242267Y-45595000D02*
X132949733Y-45595000D01*
%TO.C,U10*%
X129240000Y-72690000D02*
X129240000Y-74510000D01*
X129240000Y-74510000D02*
X129290000Y-74510000D01*
X129290000Y-72690000D02*
X129240000Y-72690000D01*
X132310000Y-74510000D02*
X132360000Y-74510000D01*
X132360000Y-72690000D02*
X132310000Y-72690000D01*
X132360000Y-74510000D02*
X132360000Y-72690000D01*
X132640000Y-75290000D02*
X132310000Y-75050000D01*
X132640000Y-74810000D01*
X132640000Y-75290000D01*
G36*
X132640000Y-75290000D02*
G01*
X132310000Y-75050000D01*
X132640000Y-74810000D01*
X132640000Y-75290000D01*
G37*
%TO.C,C20*%
X124850979Y-90871352D02*
X124850979Y-92293856D01*
X126670979Y-90871352D02*
X126670979Y-92293856D01*
%TO.C,R48*%
X132827500Y-84835276D02*
X132827500Y-85344724D01*
X133872500Y-84835276D02*
X133872500Y-85344724D01*
%TO.C,D18*%
X116892000Y-88222000D02*
X116892000Y-79712000D01*
X116892000Y-88222000D02*
X123392000Y-88222000D01*
X123392000Y-88222000D02*
X123392000Y-79712000D01*
%TO.C,C43*%
X146556000Y-70758267D02*
X146556000Y-70465733D01*
X147576000Y-70758267D02*
X147576000Y-70465733D01*
%TO.C,R2*%
X139218936Y-56415000D02*
X139673064Y-56415000D01*
X139218936Y-57885000D02*
X139673064Y-57885000D01*
%TO.C,C10*%
X111690000Y-45946267D02*
X111690000Y-45653733D01*
X112710000Y-45946267D02*
X112710000Y-45653733D01*
%TO.C,C37*%
X127146267Y-74690000D02*
X126853733Y-74690000D01*
X127146267Y-75710000D02*
X126853733Y-75710000D01*
%TO.C,C26*%
X115169733Y-58926000D02*
X115462267Y-58926000D01*
X115169733Y-59946000D02*
X115462267Y-59946000D01*
%TO.C,C7*%
X148588000Y-70758267D02*
X148588000Y-70465733D01*
X149608000Y-70758267D02*
X149608000Y-70465733D01*
%TO.C,C8*%
X152090000Y-60253733D02*
X152090000Y-60546267D01*
X153110000Y-60253733D02*
X153110000Y-60546267D01*
D13*
%TO.C,U8*%
X126909323Y-81313662D02*
X126909323Y-85213662D01*
X131959323Y-81313662D02*
X131959323Y-85213662D01*
D14*
X127629323Y-79193662D02*
G75*
G02*
X127429323Y-79193662I-100000J0D01*
G01*
X127429323Y-79193662D02*
G75*
G02*
X127629323Y-79193662I100000J0D01*
G01*
D12*
%TO.C,R9*%
X143114500Y-44196724D02*
X143114500Y-43687276D01*
X144159500Y-44196724D02*
X144159500Y-43687276D01*
%TO.C,R7*%
X136891500Y-80264724D02*
X136891500Y-79755276D01*
X137936500Y-80264724D02*
X137936500Y-79755276D01*
%TO.C,C44*%
X179369767Y-90168000D02*
X179077233Y-90168000D01*
X179369767Y-91188000D02*
X179077233Y-91188000D01*
%TO.C,C35*%
X133090000Y-72253733D02*
X133090000Y-72546267D01*
X134110000Y-72253733D02*
X134110000Y-72546267D01*
%TO.C,D1*%
X163603000Y-46346000D02*
X165073000Y-46346000D01*
X163603000Y-48806000D02*
X163603000Y-46346000D01*
X165073000Y-46346000D02*
X165073000Y-48806000D01*
%TO.C,JP4*%
X142900000Y-94200000D02*
X144300000Y-94200000D01*
X145000000Y-93500000D02*
X145000000Y-92900000D01*
X142200000Y-92900000D02*
X142200000Y-93500000D01*
X144300000Y-92200000D02*
X142900000Y-92200000D01*
X142900000Y-94200000D02*
G75*
G02*
X142200000Y-93500000I-1J699999D01*
G01*
X145000000Y-93500000D02*
G75*
G02*
X144300000Y-94200000I-700000J0D01*
G01*
X142200000Y-92900000D02*
G75*
G02*
X142900000Y-92200000I699999J1D01*
G01*
X144300000Y-92200000D02*
G75*
G02*
X145000000Y-92900000I0J-700000D01*
G01*
%TO.C,R53*%
X118545276Y-56877500D02*
X119054724Y-56877500D01*
X118545276Y-57922500D02*
X119054724Y-57922500D01*
%TO.C,C5*%
X154290000Y-66301233D02*
X154290000Y-66593767D01*
X155310000Y-66301233D02*
X155310000Y-66593767D01*
%TO.C,R10*%
X144765500Y-44196724D02*
X144765500Y-43687276D01*
X145810500Y-44196724D02*
X145810500Y-43687276D01*
%TO.C,C45*%
X162356748Y-69194000D02*
X163779252Y-69194000D01*
X162356748Y-71014000D02*
X163779252Y-71014000D01*
%TO.C,J3*%
X113682000Y-40007000D02*
X116442000Y-40007000D01*
X113682000Y-45197000D02*
X113682000Y-40007000D01*
X113682000Y-45197000D02*
X116442000Y-45197000D01*
X113682000Y-46467000D02*
X113682000Y-47847000D01*
X113682000Y-47847000D02*
X115062000Y-47847000D01*
X116442000Y-45197000D02*
X116442000Y-40007000D01*
%TO.C,R78*%
X177779000Y-43399064D02*
X177779000Y-41944936D01*
X179599000Y-43399064D02*
X179599000Y-41944936D01*
%TO.C,C42*%
X180240000Y-45331748D02*
X180240000Y-45854252D01*
X181710000Y-45331748D02*
X181710000Y-45854252D01*
%TO.C,R8*%
X141717500Y-78993276D02*
X141717500Y-79502724D01*
X142762500Y-78993276D02*
X142762500Y-79502724D01*
%TO.C,C29*%
X119688748Y-66290000D02*
X121111252Y-66290000D01*
X119688748Y-68110000D02*
X121111252Y-68110000D01*
%TO.C,C33*%
X118653733Y-55090000D02*
X118946267Y-55090000D01*
X118653733Y-56110000D02*
X118946267Y-56110000D01*
%TO.C,R1*%
X135785776Y-85837500D02*
X136295224Y-85837500D01*
X135785776Y-86882500D02*
X136295224Y-86882500D01*
%TO.C,R62*%
X128255500Y-69192224D02*
X128255500Y-68682776D01*
X129300500Y-69192224D02*
X129300500Y-68682776D01*
%TO.C,C23*%
X124984659Y-81184508D02*
X124984659Y-81477042D01*
X126004659Y-81184508D02*
X126004659Y-81477042D01*
%TO.C,R4*%
X166865000Y-57027064D02*
X166865000Y-56572936D01*
X168335000Y-57027064D02*
X168335000Y-56572936D01*
%TO.C,C41*%
X173685252Y-68178000D02*
X172262748Y-68178000D01*
X173685252Y-69998000D02*
X172262748Y-69998000D01*
%TO.C,R82*%
X169671276Y-78979500D02*
X170180724Y-78979500D01*
X169671276Y-80024500D02*
X170180724Y-80024500D01*
%TO.C,JP5*%
X133803484Y-89695875D02*
X133803484Y-90295875D01*
X134503484Y-90995875D02*
X135903484Y-90995875D01*
X135903484Y-88995875D02*
X134503484Y-88995875D01*
X136603484Y-90295875D02*
X136603484Y-89695875D01*
X133803484Y-89695875D02*
G75*
G02*
X134503484Y-88995875I699999J1D01*
G01*
X134503484Y-90995875D02*
G75*
G02*
X133803484Y-90295875I-1J699999D01*
G01*
X135903484Y-88995875D02*
G75*
G02*
X136603484Y-89695875I0J-700000D01*
G01*
X136603484Y-90295875D02*
G75*
G02*
X135903484Y-90995875I-700000J0D01*
G01*
%TO.C,R80*%
X180847276Y-87615500D02*
X181356724Y-87615500D01*
X180847276Y-88660500D02*
X181356724Y-88660500D01*
%TO.C,R60*%
X128277500Y-65145276D02*
X128277500Y-65654724D01*
X129322500Y-65145276D02*
X129322500Y-65654724D01*
%TO.C,C3*%
X147093000Y-61475252D02*
X147093000Y-60952748D01*
X148563000Y-61475252D02*
X148563000Y-60952748D01*
%TO.C,C4*%
X138965000Y-60423248D02*
X138965000Y-60945752D01*
X140435000Y-60423248D02*
X140435000Y-60945752D01*
%TO.C,C30*%
X119487733Y-64490000D02*
X119780267Y-64490000D01*
X119487733Y-65510000D02*
X119780267Y-65510000D01*
%TO.C,Y1*%
X141588000Y-57723000D02*
X146208000Y-57723000D01*
X146208000Y-57723000D02*
X146208000Y-63243000D01*
%TO.C,C22*%
X131204719Y-91685895D02*
X131204719Y-91978429D01*
X132224719Y-91685895D02*
X132224719Y-91978429D01*
%TO.C,C36*%
X127111252Y-76490000D02*
X125688748Y-76490000D01*
X127111252Y-78310000D02*
X125688748Y-78310000D01*
%TO.C,R59*%
X131854724Y-66077500D02*
X131345276Y-66077500D01*
X131854724Y-67122500D02*
X131345276Y-67122500D01*
%TO.C,C9*%
X153523365Y-88787844D02*
X153523365Y-88495310D01*
X154543365Y-88787844D02*
X154543365Y-88495310D01*
%TO.C,R54*%
X114995276Y-66477500D02*
X115504724Y-66477500D01*
X114995276Y-67522500D02*
X115504724Y-67522500D01*
%TO.C,J7*%
X174261000Y-41656000D02*
X174261000Y-46846000D01*
X177021000Y-39006000D02*
X175641000Y-39006000D01*
X177021000Y-40386000D02*
X177021000Y-39006000D01*
X177021000Y-41656000D02*
X174261000Y-41656000D01*
X177021000Y-41656000D02*
X177021000Y-46846000D01*
X177021000Y-46846000D02*
X174261000Y-46846000D01*
%TO.C,C21*%
X127893209Y-90930771D02*
X127893209Y-92353275D01*
X129713209Y-90930771D02*
X129713209Y-92353275D01*
%TO.C,R52*%
X114995276Y-68227500D02*
X115504724Y-68227500D01*
X114995276Y-69272500D02*
X115504724Y-69272500D01*
%TO.C,D17*%
X120394705Y-89322550D02*
X120394705Y-94832550D01*
X120394705Y-89322550D02*
X123694705Y-89322550D01*
X123694705Y-89322550D02*
X123694705Y-94832550D01*
%TO.C,U9*%
X115416948Y-60683638D02*
X115416948Y-60733638D01*
X115416948Y-63753638D02*
X115416948Y-63803638D01*
X115416948Y-63803638D02*
X117236948Y-63803638D01*
X117236948Y-60683638D02*
X115416948Y-60683638D01*
X117236948Y-60733638D02*
X117236948Y-60683638D01*
X117236948Y-63803638D02*
X117236948Y-63753638D01*
X117776948Y-60733638D02*
X117536948Y-60403638D01*
X118016948Y-60403638D01*
X117776948Y-60733638D01*
G36*
X117776948Y-60733638D02*
G01*
X117536948Y-60403638D01*
X118016948Y-60403638D01*
X117776948Y-60733638D01*
G37*
%TO.C,C11*%
X165941199Y-88888344D02*
X165941199Y-88595810D01*
X166961199Y-88888344D02*
X166961199Y-88595810D01*
%TO.C,R49*%
X134859500Y-81026724D02*
X134859500Y-80517276D01*
X135904500Y-81026724D02*
X135904500Y-80517276D01*
%TO.C,R50*%
X133031889Y-80879128D02*
X133031889Y-81388576D01*
X134076889Y-80879128D02*
X134076889Y-81388576D01*
%TO.C,C38*%
X136090000Y-68288748D02*
X136090000Y-69711252D01*
X137910000Y-68288748D02*
X137910000Y-69711252D01*
%TD*%
M02*
