%TF.GenerationSoftware,KiCad,Pcbnew,9.0.5*%
%TF.CreationDate,2025-11-11T22:40:46+01:00*%
%TF.ProjectId,mobile_robot,6d6f6269-6c65-45f7-926f-626f742e6b69,rev?*%
%TF.SameCoordinates,Original*%
%TF.FileFunction,Legend,Bot*%
%TF.FilePolarity,Positive*%
%FSLAX46Y46*%
G04 Gerber Fmt 4.6, Leading zero omitted, Abs format (unit mm)*
G04 Created by KiCad (PCBNEW 9.0.5) date 2025-11-11 22:40:46*
%MOMM*%
%LPD*%
G01*
G04 APERTURE LIST*
%ADD10C,0.150000*%
%ADD11C,0.100000*%
%ADD12C,0.120000*%
%ADD13C,0.127000*%
%ADD14C,0.200000*%
G04 APERTURE END LIST*
D10*
X155448000Y-91186000D02*
X154940000Y-90424000D01*
X129032000Y-63754000D02*
X131188203Y-65913000D01*
X135382000Y-66548000D02*
X135382000Y-67310000D01*
X131188203Y-65913000D02*
X131188203Y-67183000D01*
D11*
X174018866Y-46316211D02*
X174018866Y-45882877D01*
X174018866Y-45882877D02*
X173752200Y-46116211D01*
X173752200Y-46116211D02*
X173752200Y-46016211D01*
X173752200Y-46016211D02*
X173718866Y-45949544D01*
X173718866Y-45949544D02*
X173685533Y-45916211D01*
X173685533Y-45916211D02*
X173618866Y-45882877D01*
X173618866Y-45882877D02*
X173452200Y-45882877D01*
X173452200Y-45882877D02*
X173385533Y-45916211D01*
X173385533Y-45916211D02*
X173352200Y-45949544D01*
X173352200Y-45949544D02*
X173318866Y-46016211D01*
X173318866Y-46016211D02*
X173318866Y-46216211D01*
X173318866Y-46216211D02*
X173352200Y-46282877D01*
X173352200Y-46282877D02*
X173385533Y-46316211D01*
X173385533Y-45582877D02*
X173352200Y-45549544D01*
X173352200Y-45549544D02*
X173318866Y-45582877D01*
X173318866Y-45582877D02*
X173352200Y-45616210D01*
X173352200Y-45616210D02*
X173385533Y-45582877D01*
X173385533Y-45582877D02*
X173318866Y-45582877D01*
X174018866Y-45316211D02*
X174018866Y-44882877D01*
X174018866Y-44882877D02*
X173752200Y-45116211D01*
X173752200Y-45116211D02*
X173752200Y-45016211D01*
X173752200Y-45016211D02*
X173718866Y-44949544D01*
X173718866Y-44949544D02*
X173685533Y-44916211D01*
X173685533Y-44916211D02*
X173618866Y-44882877D01*
X173618866Y-44882877D02*
X173452200Y-44882877D01*
X173452200Y-44882877D02*
X173385533Y-44916211D01*
X173385533Y-44916211D02*
X173352200Y-44949544D01*
X173352200Y-44949544D02*
X173318866Y-45016211D01*
X173318866Y-45016211D02*
X173318866Y-45216211D01*
X173318866Y-45216211D02*
X173352200Y-45282877D01*
X173352200Y-45282877D02*
X173385533Y-45316211D01*
X173518866Y-44082877D02*
X173518866Y-43749544D01*
X173318866Y-44149544D02*
X174018866Y-43916211D01*
X174018866Y-43916211D02*
X173318866Y-43682877D01*
X173318866Y-43449544D02*
X174018866Y-43449544D01*
X174018866Y-43449544D02*
X174018866Y-43282877D01*
X174018866Y-43282877D02*
X173985533Y-43182877D01*
X173985533Y-43182877D02*
X173918866Y-43116211D01*
X173918866Y-43116211D02*
X173852200Y-43082877D01*
X173852200Y-43082877D02*
X173718866Y-43049544D01*
X173718866Y-43049544D02*
X173618866Y-43049544D01*
X173618866Y-43049544D02*
X173485533Y-43082877D01*
X173485533Y-43082877D02*
X173418866Y-43116211D01*
X173418866Y-43116211D02*
X173352200Y-43182877D01*
X173352200Y-43182877D02*
X173318866Y-43282877D01*
X173318866Y-43282877D02*
X173318866Y-43449544D01*
X173385533Y-42349544D02*
X173352200Y-42382877D01*
X173352200Y-42382877D02*
X173318866Y-42482877D01*
X173318866Y-42482877D02*
X173318866Y-42549544D01*
X173318866Y-42549544D02*
X173352200Y-42649544D01*
X173352200Y-42649544D02*
X173418866Y-42716211D01*
X173418866Y-42716211D02*
X173485533Y-42749544D01*
X173485533Y-42749544D02*
X173618866Y-42782877D01*
X173618866Y-42782877D02*
X173718866Y-42782877D01*
X173718866Y-42782877D02*
X173852200Y-42749544D01*
X173852200Y-42749544D02*
X173918866Y-42716211D01*
X173918866Y-42716211D02*
X173985533Y-42649544D01*
X173985533Y-42649544D02*
X174018866Y-42549544D01*
X174018866Y-42549544D02*
X174018866Y-42482877D01*
X174018866Y-42482877D02*
X173985533Y-42382877D01*
X173985533Y-42382877D02*
X173952200Y-42349544D01*
X173985533Y-41149544D02*
X174018866Y-41216211D01*
X174018866Y-41216211D02*
X174018866Y-41316211D01*
X174018866Y-41316211D02*
X173985533Y-41416211D01*
X173985533Y-41416211D02*
X173918866Y-41482878D01*
X173918866Y-41482878D02*
X173852200Y-41516211D01*
X173852200Y-41516211D02*
X173718866Y-41549544D01*
X173718866Y-41549544D02*
X173618866Y-41549544D01*
X173618866Y-41549544D02*
X173485533Y-41516211D01*
X173485533Y-41516211D02*
X173418866Y-41482878D01*
X173418866Y-41482878D02*
X173352200Y-41416211D01*
X173352200Y-41416211D02*
X173318866Y-41316211D01*
X173318866Y-41316211D02*
X173318866Y-41249544D01*
X173318866Y-41249544D02*
X173352200Y-41149544D01*
X173352200Y-41149544D02*
X173385533Y-41116211D01*
X173385533Y-41116211D02*
X173618866Y-41116211D01*
X173618866Y-41116211D02*
X173618866Y-41249544D01*
X173318866Y-40816211D02*
X174018866Y-40816211D01*
X174018866Y-40816211D02*
X173318866Y-40416211D01*
X173318866Y-40416211D02*
X174018866Y-40416211D01*
X173318866Y-40082878D02*
X174018866Y-40082878D01*
X174018866Y-40082878D02*
X174018866Y-39916211D01*
X174018866Y-39916211D02*
X173985533Y-39816211D01*
X173985533Y-39816211D02*
X173918866Y-39749545D01*
X173918866Y-39749545D02*
X173852200Y-39716211D01*
X173852200Y-39716211D02*
X173718866Y-39682878D01*
X173718866Y-39682878D02*
X173618866Y-39682878D01*
X173618866Y-39682878D02*
X173485533Y-39716211D01*
X173485533Y-39716211D02*
X173418866Y-39749545D01*
X173418866Y-39749545D02*
X173352200Y-39816211D01*
X173352200Y-39816211D02*
X173318866Y-39916211D01*
X173318866Y-39916211D02*
X173318866Y-40082878D01*
X117630866Y-47078211D02*
X117630866Y-46644877D01*
X117630866Y-46644877D02*
X117364200Y-46878211D01*
X117364200Y-46878211D02*
X117364200Y-46778211D01*
X117364200Y-46778211D02*
X117330866Y-46711544D01*
X117330866Y-46711544D02*
X117297533Y-46678211D01*
X117297533Y-46678211D02*
X117230866Y-46644877D01*
X117230866Y-46644877D02*
X117064200Y-46644877D01*
X117064200Y-46644877D02*
X116997533Y-46678211D01*
X116997533Y-46678211D02*
X116964200Y-46711544D01*
X116964200Y-46711544D02*
X116930866Y-46778211D01*
X116930866Y-46778211D02*
X116930866Y-46978211D01*
X116930866Y-46978211D02*
X116964200Y-47044877D01*
X116964200Y-47044877D02*
X116997533Y-47078211D01*
X116997533Y-46344877D02*
X116964200Y-46311544D01*
X116964200Y-46311544D02*
X116930866Y-46344877D01*
X116930866Y-46344877D02*
X116964200Y-46378210D01*
X116964200Y-46378210D02*
X116997533Y-46344877D01*
X116997533Y-46344877D02*
X116930866Y-46344877D01*
X117630866Y-46078211D02*
X117630866Y-45644877D01*
X117630866Y-45644877D02*
X117364200Y-45878211D01*
X117364200Y-45878211D02*
X117364200Y-45778211D01*
X117364200Y-45778211D02*
X117330866Y-45711544D01*
X117330866Y-45711544D02*
X117297533Y-45678211D01*
X117297533Y-45678211D02*
X117230866Y-45644877D01*
X117230866Y-45644877D02*
X117064200Y-45644877D01*
X117064200Y-45644877D02*
X116997533Y-45678211D01*
X116997533Y-45678211D02*
X116964200Y-45711544D01*
X116964200Y-45711544D02*
X116930866Y-45778211D01*
X116930866Y-45778211D02*
X116930866Y-45978211D01*
X116930866Y-45978211D02*
X116964200Y-46044877D01*
X116964200Y-46044877D02*
X116997533Y-46078211D01*
X117130866Y-44844877D02*
X117130866Y-44511544D01*
X116930866Y-44911544D02*
X117630866Y-44678211D01*
X117630866Y-44678211D02*
X116930866Y-44444877D01*
X116930866Y-44211544D02*
X117630866Y-44211544D01*
X117630866Y-44211544D02*
X117630866Y-44044877D01*
X117630866Y-44044877D02*
X117597533Y-43944877D01*
X117597533Y-43944877D02*
X117530866Y-43878211D01*
X117530866Y-43878211D02*
X117464200Y-43844877D01*
X117464200Y-43844877D02*
X117330866Y-43811544D01*
X117330866Y-43811544D02*
X117230866Y-43811544D01*
X117230866Y-43811544D02*
X117097533Y-43844877D01*
X117097533Y-43844877D02*
X117030866Y-43878211D01*
X117030866Y-43878211D02*
X116964200Y-43944877D01*
X116964200Y-43944877D02*
X116930866Y-44044877D01*
X116930866Y-44044877D02*
X116930866Y-44211544D01*
X116997533Y-43111544D02*
X116964200Y-43144877D01*
X116964200Y-43144877D02*
X116930866Y-43244877D01*
X116930866Y-43244877D02*
X116930866Y-43311544D01*
X116930866Y-43311544D02*
X116964200Y-43411544D01*
X116964200Y-43411544D02*
X117030866Y-43478211D01*
X117030866Y-43478211D02*
X117097533Y-43511544D01*
X117097533Y-43511544D02*
X117230866Y-43544877D01*
X117230866Y-43544877D02*
X117330866Y-43544877D01*
X117330866Y-43544877D02*
X117464200Y-43511544D01*
X117464200Y-43511544D02*
X117530866Y-43478211D01*
X117530866Y-43478211D02*
X117597533Y-43411544D01*
X117597533Y-43411544D02*
X117630866Y-43311544D01*
X117630866Y-43311544D02*
X117630866Y-43244877D01*
X117630866Y-43244877D02*
X117597533Y-43144877D01*
X117597533Y-43144877D02*
X117564200Y-43111544D01*
X117597533Y-41911544D02*
X117630866Y-41978211D01*
X117630866Y-41978211D02*
X117630866Y-42078211D01*
X117630866Y-42078211D02*
X117597533Y-42178211D01*
X117597533Y-42178211D02*
X117530866Y-42244878D01*
X117530866Y-42244878D02*
X117464200Y-42278211D01*
X117464200Y-42278211D02*
X117330866Y-42311544D01*
X117330866Y-42311544D02*
X117230866Y-42311544D01*
X117230866Y-42311544D02*
X117097533Y-42278211D01*
X117097533Y-42278211D02*
X117030866Y-42244878D01*
X117030866Y-42244878D02*
X116964200Y-42178211D01*
X116964200Y-42178211D02*
X116930866Y-42078211D01*
X116930866Y-42078211D02*
X116930866Y-42011544D01*
X116930866Y-42011544D02*
X116964200Y-41911544D01*
X116964200Y-41911544D02*
X116997533Y-41878211D01*
X116997533Y-41878211D02*
X117230866Y-41878211D01*
X117230866Y-41878211D02*
X117230866Y-42011544D01*
X116930866Y-41578211D02*
X117630866Y-41578211D01*
X117630866Y-41578211D02*
X116930866Y-41178211D01*
X116930866Y-41178211D02*
X117630866Y-41178211D01*
X116930866Y-40844878D02*
X117630866Y-40844878D01*
X117630866Y-40844878D02*
X117630866Y-40678211D01*
X117630866Y-40678211D02*
X117597533Y-40578211D01*
X117597533Y-40578211D02*
X117530866Y-40511545D01*
X117530866Y-40511545D02*
X117464200Y-40478211D01*
X117464200Y-40478211D02*
X117330866Y-40444878D01*
X117330866Y-40444878D02*
X117230866Y-40444878D01*
X117230866Y-40444878D02*
X117097533Y-40478211D01*
X117097533Y-40478211D02*
X117030866Y-40511545D01*
X117030866Y-40511545D02*
X116964200Y-40578211D01*
X116964200Y-40578211D02*
X116930866Y-40678211D01*
X116930866Y-40678211D02*
X116930866Y-40844878D01*
D10*
X127359580Y-71493142D02*
X127407200Y-71445523D01*
X127407200Y-71445523D02*
X127454819Y-71302666D01*
X127454819Y-71302666D02*
X127454819Y-71207428D01*
X127454819Y-71207428D02*
X127407200Y-71064571D01*
X127407200Y-71064571D02*
X127311961Y-70969333D01*
X127311961Y-70969333D02*
X127216723Y-70921714D01*
X127216723Y-70921714D02*
X127026247Y-70874095D01*
X127026247Y-70874095D02*
X126883390Y-70874095D01*
X126883390Y-70874095D02*
X126692914Y-70921714D01*
X126692914Y-70921714D02*
X126597676Y-70969333D01*
X126597676Y-70969333D02*
X126502438Y-71064571D01*
X126502438Y-71064571D02*
X126454819Y-71207428D01*
X126454819Y-71207428D02*
X126454819Y-71302666D01*
X126454819Y-71302666D02*
X126502438Y-71445523D01*
X126502438Y-71445523D02*
X126550057Y-71493142D01*
X126788152Y-72350285D02*
X127454819Y-72350285D01*
X126407200Y-72112190D02*
X127121485Y-71874095D01*
X127121485Y-71874095D02*
X127121485Y-72493142D01*
X126454819Y-73064571D02*
X126454819Y-73159809D01*
X126454819Y-73159809D02*
X126502438Y-73255047D01*
X126502438Y-73255047D02*
X126550057Y-73302666D01*
X126550057Y-73302666D02*
X126645295Y-73350285D01*
X126645295Y-73350285D02*
X126835771Y-73397904D01*
X126835771Y-73397904D02*
X127073866Y-73397904D01*
X127073866Y-73397904D02*
X127264342Y-73350285D01*
X127264342Y-73350285D02*
X127359580Y-73302666D01*
X127359580Y-73302666D02*
X127407200Y-73255047D01*
X127407200Y-73255047D02*
X127454819Y-73159809D01*
X127454819Y-73159809D02*
X127454819Y-73064571D01*
X127454819Y-73064571D02*
X127407200Y-72969333D01*
X127407200Y-72969333D02*
X127359580Y-72921714D01*
X127359580Y-72921714D02*
X127264342Y-72874095D01*
X127264342Y-72874095D02*
X127073866Y-72826476D01*
X127073866Y-72826476D02*
X126835771Y-72826476D01*
X126835771Y-72826476D02*
X126645295Y-72874095D01*
X126645295Y-72874095D02*
X126550057Y-72921714D01*
X126550057Y-72921714D02*
X126502438Y-72969333D01*
X126502438Y-72969333D02*
X126454819Y-73064571D01*
X146997009Y-74858666D02*
X146997009Y-74525333D01*
X147520819Y-74525333D02*
X146520819Y-74525333D01*
X146520819Y-74525333D02*
X146520819Y-75001523D01*
X146997009Y-75715809D02*
X147044628Y-75858666D01*
X147044628Y-75858666D02*
X147092247Y-75906285D01*
X147092247Y-75906285D02*
X147187485Y-75953904D01*
X147187485Y-75953904D02*
X147330342Y-75953904D01*
X147330342Y-75953904D02*
X147425580Y-75906285D01*
X147425580Y-75906285D02*
X147473200Y-75858666D01*
X147473200Y-75858666D02*
X147520819Y-75763428D01*
X147520819Y-75763428D02*
X147520819Y-75382476D01*
X147520819Y-75382476D02*
X146520819Y-75382476D01*
X146520819Y-75382476D02*
X146520819Y-75715809D01*
X146520819Y-75715809D02*
X146568438Y-75811047D01*
X146568438Y-75811047D02*
X146616057Y-75858666D01*
X146616057Y-75858666D02*
X146711295Y-75906285D01*
X146711295Y-75906285D02*
X146806533Y-75906285D01*
X146806533Y-75906285D02*
X146901771Y-75858666D01*
X146901771Y-75858666D02*
X146949390Y-75811047D01*
X146949390Y-75811047D02*
X146997009Y-75715809D01*
X146997009Y-75715809D02*
X146997009Y-75382476D01*
X147520819Y-76906285D02*
X147520819Y-76334857D01*
X147520819Y-76620571D02*
X146520819Y-76620571D01*
X146520819Y-76620571D02*
X146663676Y-76525333D01*
X146663676Y-76525333D02*
X146758914Y-76430095D01*
X146758914Y-76430095D02*
X146806533Y-76334857D01*
X153378819Y-80192666D02*
X154093104Y-80192666D01*
X154093104Y-80192666D02*
X154235961Y-80145047D01*
X154235961Y-80145047D02*
X154331200Y-80049809D01*
X154331200Y-80049809D02*
X154378819Y-79906952D01*
X154378819Y-79906952D02*
X154378819Y-79811714D01*
X154378819Y-80668857D02*
X153378819Y-80668857D01*
X153378819Y-80668857D02*
X153378819Y-81049809D01*
X153378819Y-81049809D02*
X153426438Y-81145047D01*
X153426438Y-81145047D02*
X153474057Y-81192666D01*
X153474057Y-81192666D02*
X153569295Y-81240285D01*
X153569295Y-81240285D02*
X153712152Y-81240285D01*
X153712152Y-81240285D02*
X153807390Y-81192666D01*
X153807390Y-81192666D02*
X153855009Y-81145047D01*
X153855009Y-81145047D02*
X153902628Y-81049809D01*
X153902628Y-81049809D02*
X153902628Y-80668857D01*
X153378819Y-81573619D02*
X153378819Y-82192666D01*
X153378819Y-82192666D02*
X153759771Y-81859333D01*
X153759771Y-81859333D02*
X153759771Y-82002190D01*
X153759771Y-82002190D02*
X153807390Y-82097428D01*
X153807390Y-82097428D02*
X153855009Y-82145047D01*
X153855009Y-82145047D02*
X153950247Y-82192666D01*
X153950247Y-82192666D02*
X154188342Y-82192666D01*
X154188342Y-82192666D02*
X154283580Y-82145047D01*
X154283580Y-82145047D02*
X154331200Y-82097428D01*
X154331200Y-82097428D02*
X154378819Y-82002190D01*
X154378819Y-82002190D02*
X154378819Y-81716476D01*
X154378819Y-81716476D02*
X154331200Y-81621238D01*
X154331200Y-81621238D02*
X154283580Y-81573619D01*
X180888819Y-41013142D02*
X180412628Y-40679809D01*
X180888819Y-40441714D02*
X179888819Y-40441714D01*
X179888819Y-40441714D02*
X179888819Y-40822666D01*
X179888819Y-40822666D02*
X179936438Y-40917904D01*
X179936438Y-40917904D02*
X179984057Y-40965523D01*
X179984057Y-40965523D02*
X180079295Y-41013142D01*
X180079295Y-41013142D02*
X180222152Y-41013142D01*
X180222152Y-41013142D02*
X180317390Y-40965523D01*
X180317390Y-40965523D02*
X180365009Y-40917904D01*
X180365009Y-40917904D02*
X180412628Y-40822666D01*
X180412628Y-40822666D02*
X180412628Y-40441714D01*
X179888819Y-41346476D02*
X179888819Y-42013142D01*
X179888819Y-42013142D02*
X180888819Y-41584571D01*
X180888819Y-42441714D02*
X180888819Y-42632190D01*
X180888819Y-42632190D02*
X180841200Y-42727428D01*
X180841200Y-42727428D02*
X180793580Y-42775047D01*
X180793580Y-42775047D02*
X180650723Y-42870285D01*
X180650723Y-42870285D02*
X180460247Y-42917904D01*
X180460247Y-42917904D02*
X180079295Y-42917904D01*
X180079295Y-42917904D02*
X179984057Y-42870285D01*
X179984057Y-42870285D02*
X179936438Y-42822666D01*
X179936438Y-42822666D02*
X179888819Y-42727428D01*
X179888819Y-42727428D02*
X179888819Y-42536952D01*
X179888819Y-42536952D02*
X179936438Y-42441714D01*
X179936438Y-42441714D02*
X179984057Y-42394095D01*
X179984057Y-42394095D02*
X180079295Y-42346476D01*
X180079295Y-42346476D02*
X180317390Y-42346476D01*
X180317390Y-42346476D02*
X180412628Y-42394095D01*
X180412628Y-42394095D02*
X180460247Y-42441714D01*
X180460247Y-42441714D02*
X180507866Y-42536952D01*
X180507866Y-42536952D02*
X180507866Y-42727428D01*
X180507866Y-42727428D02*
X180460247Y-42822666D01*
X180460247Y-42822666D02*
X180412628Y-42870285D01*
X180412628Y-42870285D02*
X180317390Y-42917904D01*
X145422857Y-82496819D02*
X145756190Y-82020628D01*
X145994285Y-82496819D02*
X145994285Y-81496819D01*
X145994285Y-81496819D02*
X145613333Y-81496819D01*
X145613333Y-81496819D02*
X145518095Y-81544438D01*
X145518095Y-81544438D02*
X145470476Y-81592057D01*
X145470476Y-81592057D02*
X145422857Y-81687295D01*
X145422857Y-81687295D02*
X145422857Y-81830152D01*
X145422857Y-81830152D02*
X145470476Y-81925390D01*
X145470476Y-81925390D02*
X145518095Y-81973009D01*
X145518095Y-81973009D02*
X145613333Y-82020628D01*
X145613333Y-82020628D02*
X145994285Y-82020628D01*
X145041904Y-81592057D02*
X144994285Y-81544438D01*
X144994285Y-81544438D02*
X144899047Y-81496819D01*
X144899047Y-81496819D02*
X144660952Y-81496819D01*
X144660952Y-81496819D02*
X144565714Y-81544438D01*
X144565714Y-81544438D02*
X144518095Y-81592057D01*
X144518095Y-81592057D02*
X144470476Y-81687295D01*
X144470476Y-81687295D02*
X144470476Y-81782533D01*
X144470476Y-81782533D02*
X144518095Y-81925390D01*
X144518095Y-81925390D02*
X145089523Y-82496819D01*
X145089523Y-82496819D02*
X144470476Y-82496819D01*
X143851428Y-81496819D02*
X143756190Y-81496819D01*
X143756190Y-81496819D02*
X143660952Y-81544438D01*
X143660952Y-81544438D02*
X143613333Y-81592057D01*
X143613333Y-81592057D02*
X143565714Y-81687295D01*
X143565714Y-81687295D02*
X143518095Y-81877771D01*
X143518095Y-81877771D02*
X143518095Y-82115866D01*
X143518095Y-82115866D02*
X143565714Y-82306342D01*
X143565714Y-82306342D02*
X143613333Y-82401580D01*
X143613333Y-82401580D02*
X143660952Y-82449200D01*
X143660952Y-82449200D02*
X143756190Y-82496819D01*
X143756190Y-82496819D02*
X143851428Y-82496819D01*
X143851428Y-82496819D02*
X143946666Y-82449200D01*
X143946666Y-82449200D02*
X143994285Y-82401580D01*
X143994285Y-82401580D02*
X144041904Y-82306342D01*
X144041904Y-82306342D02*
X144089523Y-82115866D01*
X144089523Y-82115866D02*
X144089523Y-81877771D01*
X144089523Y-81877771D02*
X144041904Y-81687295D01*
X144041904Y-81687295D02*
X143994285Y-81592057D01*
X143994285Y-81592057D02*
X143946666Y-81544438D01*
X143946666Y-81544438D02*
X143851428Y-81496819D01*
X162305904Y-91402819D02*
X162305904Y-92212342D01*
X162305904Y-92212342D02*
X162258285Y-92307580D01*
X162258285Y-92307580D02*
X162210666Y-92355200D01*
X162210666Y-92355200D02*
X162115428Y-92402819D01*
X162115428Y-92402819D02*
X161924952Y-92402819D01*
X161924952Y-92402819D02*
X161829714Y-92355200D01*
X161829714Y-92355200D02*
X161782095Y-92307580D01*
X161782095Y-92307580D02*
X161734476Y-92212342D01*
X161734476Y-92212342D02*
X161734476Y-91402819D01*
X161305904Y-91498057D02*
X161258285Y-91450438D01*
X161258285Y-91450438D02*
X161163047Y-91402819D01*
X161163047Y-91402819D02*
X160924952Y-91402819D01*
X160924952Y-91402819D02*
X160829714Y-91450438D01*
X160829714Y-91450438D02*
X160782095Y-91498057D01*
X160782095Y-91498057D02*
X160734476Y-91593295D01*
X160734476Y-91593295D02*
X160734476Y-91688533D01*
X160734476Y-91688533D02*
X160782095Y-91831390D01*
X160782095Y-91831390D02*
X161353523Y-92402819D01*
X161353523Y-92402819D02*
X160734476Y-92402819D01*
X125676819Y-71747142D02*
X125200628Y-71413809D01*
X125676819Y-71175714D02*
X124676819Y-71175714D01*
X124676819Y-71175714D02*
X124676819Y-71556666D01*
X124676819Y-71556666D02*
X124724438Y-71651904D01*
X124724438Y-71651904D02*
X124772057Y-71699523D01*
X124772057Y-71699523D02*
X124867295Y-71747142D01*
X124867295Y-71747142D02*
X125010152Y-71747142D01*
X125010152Y-71747142D02*
X125105390Y-71699523D01*
X125105390Y-71699523D02*
X125153009Y-71651904D01*
X125153009Y-71651904D02*
X125200628Y-71556666D01*
X125200628Y-71556666D02*
X125200628Y-71175714D01*
X124676819Y-72604285D02*
X124676819Y-72413809D01*
X124676819Y-72413809D02*
X124724438Y-72318571D01*
X124724438Y-72318571D02*
X124772057Y-72270952D01*
X124772057Y-72270952D02*
X124914914Y-72175714D01*
X124914914Y-72175714D02*
X125105390Y-72128095D01*
X125105390Y-72128095D02*
X125486342Y-72128095D01*
X125486342Y-72128095D02*
X125581580Y-72175714D01*
X125581580Y-72175714D02*
X125629200Y-72223333D01*
X125629200Y-72223333D02*
X125676819Y-72318571D01*
X125676819Y-72318571D02*
X125676819Y-72509047D01*
X125676819Y-72509047D02*
X125629200Y-72604285D01*
X125629200Y-72604285D02*
X125581580Y-72651904D01*
X125581580Y-72651904D02*
X125486342Y-72699523D01*
X125486342Y-72699523D02*
X125248247Y-72699523D01*
X125248247Y-72699523D02*
X125153009Y-72651904D01*
X125153009Y-72651904D02*
X125105390Y-72604285D01*
X125105390Y-72604285D02*
X125057771Y-72509047D01*
X125057771Y-72509047D02*
X125057771Y-72318571D01*
X125057771Y-72318571D02*
X125105390Y-72223333D01*
X125105390Y-72223333D02*
X125153009Y-72175714D01*
X125153009Y-72175714D02*
X125248247Y-72128095D01*
X124676819Y-73032857D02*
X124676819Y-73651904D01*
X124676819Y-73651904D02*
X125057771Y-73318571D01*
X125057771Y-73318571D02*
X125057771Y-73461428D01*
X125057771Y-73461428D02*
X125105390Y-73556666D01*
X125105390Y-73556666D02*
X125153009Y-73604285D01*
X125153009Y-73604285D02*
X125248247Y-73651904D01*
X125248247Y-73651904D02*
X125486342Y-73651904D01*
X125486342Y-73651904D02*
X125581580Y-73604285D01*
X125581580Y-73604285D02*
X125629200Y-73556666D01*
X125629200Y-73556666D02*
X125676819Y-73461428D01*
X125676819Y-73461428D02*
X125676819Y-73175714D01*
X125676819Y-73175714D02*
X125629200Y-73080476D01*
X125629200Y-73080476D02*
X125581580Y-73032857D01*
X140567580Y-91305142D02*
X140615200Y-91257523D01*
X140615200Y-91257523D02*
X140662819Y-91114666D01*
X140662819Y-91114666D02*
X140662819Y-91019428D01*
X140662819Y-91019428D02*
X140615200Y-90876571D01*
X140615200Y-90876571D02*
X140519961Y-90781333D01*
X140519961Y-90781333D02*
X140424723Y-90733714D01*
X140424723Y-90733714D02*
X140234247Y-90686095D01*
X140234247Y-90686095D02*
X140091390Y-90686095D01*
X140091390Y-90686095D02*
X139900914Y-90733714D01*
X139900914Y-90733714D02*
X139805676Y-90781333D01*
X139805676Y-90781333D02*
X139710438Y-90876571D01*
X139710438Y-90876571D02*
X139662819Y-91019428D01*
X139662819Y-91019428D02*
X139662819Y-91114666D01*
X139662819Y-91114666D02*
X139710438Y-91257523D01*
X139710438Y-91257523D02*
X139758057Y-91305142D01*
X139758057Y-91686095D02*
X139710438Y-91733714D01*
X139710438Y-91733714D02*
X139662819Y-91828952D01*
X139662819Y-91828952D02*
X139662819Y-92067047D01*
X139662819Y-92067047D02*
X139710438Y-92162285D01*
X139710438Y-92162285D02*
X139758057Y-92209904D01*
X139758057Y-92209904D02*
X139853295Y-92257523D01*
X139853295Y-92257523D02*
X139948533Y-92257523D01*
X139948533Y-92257523D02*
X140091390Y-92209904D01*
X140091390Y-92209904D02*
X140662819Y-91638476D01*
X140662819Y-91638476D02*
X140662819Y-92257523D01*
X139662819Y-93162285D02*
X139662819Y-92686095D01*
X139662819Y-92686095D02*
X140139009Y-92638476D01*
X140139009Y-92638476D02*
X140091390Y-92686095D01*
X140091390Y-92686095D02*
X140043771Y-92781333D01*
X140043771Y-92781333D02*
X140043771Y-93019428D01*
X140043771Y-93019428D02*
X140091390Y-93114666D01*
X140091390Y-93114666D02*
X140139009Y-93162285D01*
X140139009Y-93162285D02*
X140234247Y-93209904D01*
X140234247Y-93209904D02*
X140472342Y-93209904D01*
X140472342Y-93209904D02*
X140567580Y-93162285D01*
X140567580Y-93162285D02*
X140615200Y-93114666D01*
X140615200Y-93114666D02*
X140662819Y-93019428D01*
X140662819Y-93019428D02*
X140662819Y-92781333D01*
X140662819Y-92781333D02*
X140615200Y-92686095D01*
X140615200Y-92686095D02*
X140567580Y-92638476D01*
X123684857Y-60076819D02*
X124018190Y-59600628D01*
X124256285Y-60076819D02*
X124256285Y-59076819D01*
X124256285Y-59076819D02*
X123875333Y-59076819D01*
X123875333Y-59076819D02*
X123780095Y-59124438D01*
X123780095Y-59124438D02*
X123732476Y-59172057D01*
X123732476Y-59172057D02*
X123684857Y-59267295D01*
X123684857Y-59267295D02*
X123684857Y-59410152D01*
X123684857Y-59410152D02*
X123732476Y-59505390D01*
X123732476Y-59505390D02*
X123780095Y-59553009D01*
X123780095Y-59553009D02*
X123875333Y-59600628D01*
X123875333Y-59600628D02*
X124256285Y-59600628D01*
X122780095Y-59076819D02*
X123256285Y-59076819D01*
X123256285Y-59076819D02*
X123303904Y-59553009D01*
X123303904Y-59553009D02*
X123256285Y-59505390D01*
X123256285Y-59505390D02*
X123161047Y-59457771D01*
X123161047Y-59457771D02*
X122922952Y-59457771D01*
X122922952Y-59457771D02*
X122827714Y-59505390D01*
X122827714Y-59505390D02*
X122780095Y-59553009D01*
X122780095Y-59553009D02*
X122732476Y-59648247D01*
X122732476Y-59648247D02*
X122732476Y-59886342D01*
X122732476Y-59886342D02*
X122780095Y-59981580D01*
X122780095Y-59981580D02*
X122827714Y-60029200D01*
X122827714Y-60029200D02*
X122922952Y-60076819D01*
X122922952Y-60076819D02*
X123161047Y-60076819D01*
X123161047Y-60076819D02*
X123256285Y-60029200D01*
X123256285Y-60029200D02*
X123303904Y-59981580D01*
X121780095Y-60076819D02*
X122351523Y-60076819D01*
X122065809Y-60076819D02*
X122065809Y-59076819D01*
X122065809Y-59076819D02*
X122161047Y-59219676D01*
X122161047Y-59219676D02*
X122256285Y-59314914D01*
X122256285Y-59314914D02*
X122351523Y-59362533D01*
X136658285Y-83638295D02*
X136924952Y-83257342D01*
X137115428Y-83638295D02*
X137115428Y-82838295D01*
X137115428Y-82838295D02*
X136810666Y-82838295D01*
X136810666Y-82838295D02*
X136734476Y-82876390D01*
X136734476Y-82876390D02*
X136696381Y-82914485D01*
X136696381Y-82914485D02*
X136658285Y-82990676D01*
X136658285Y-82990676D02*
X136658285Y-83104961D01*
X136658285Y-83104961D02*
X136696381Y-83181152D01*
X136696381Y-83181152D02*
X136734476Y-83219247D01*
X136734476Y-83219247D02*
X136810666Y-83257342D01*
X136810666Y-83257342D02*
X137115428Y-83257342D01*
X135972571Y-83104961D02*
X135972571Y-83638295D01*
X136163047Y-82800200D02*
X136353524Y-83371628D01*
X136353524Y-83371628D02*
X135858285Y-83371628D01*
X135629714Y-82838295D02*
X135096380Y-82838295D01*
X135096380Y-82838295D02*
X135439238Y-83638295D01*
X112442857Y-65759580D02*
X112490476Y-65807200D01*
X112490476Y-65807200D02*
X112633333Y-65854819D01*
X112633333Y-65854819D02*
X112728571Y-65854819D01*
X112728571Y-65854819D02*
X112871428Y-65807200D01*
X112871428Y-65807200D02*
X112966666Y-65711961D01*
X112966666Y-65711961D02*
X113014285Y-65616723D01*
X113014285Y-65616723D02*
X113061904Y-65426247D01*
X113061904Y-65426247D02*
X113061904Y-65283390D01*
X113061904Y-65283390D02*
X113014285Y-65092914D01*
X113014285Y-65092914D02*
X112966666Y-64997676D01*
X112966666Y-64997676D02*
X112871428Y-64902438D01*
X112871428Y-64902438D02*
X112728571Y-64854819D01*
X112728571Y-64854819D02*
X112633333Y-64854819D01*
X112633333Y-64854819D02*
X112490476Y-64902438D01*
X112490476Y-64902438D02*
X112442857Y-64950057D01*
X112109523Y-64854819D02*
X111490476Y-64854819D01*
X111490476Y-64854819D02*
X111823809Y-65235771D01*
X111823809Y-65235771D02*
X111680952Y-65235771D01*
X111680952Y-65235771D02*
X111585714Y-65283390D01*
X111585714Y-65283390D02*
X111538095Y-65331009D01*
X111538095Y-65331009D02*
X111490476Y-65426247D01*
X111490476Y-65426247D02*
X111490476Y-65664342D01*
X111490476Y-65664342D02*
X111538095Y-65759580D01*
X111538095Y-65759580D02*
X111585714Y-65807200D01*
X111585714Y-65807200D02*
X111680952Y-65854819D01*
X111680952Y-65854819D02*
X111966666Y-65854819D01*
X111966666Y-65854819D02*
X112061904Y-65807200D01*
X112061904Y-65807200D02*
X112109523Y-65759580D01*
X110633333Y-65188152D02*
X110633333Y-65854819D01*
X110871428Y-64807200D02*
X111109523Y-65521485D01*
X111109523Y-65521485D02*
X110490476Y-65521485D01*
X173616857Y-81988819D02*
X173950190Y-81512628D01*
X174188285Y-81988819D02*
X174188285Y-80988819D01*
X174188285Y-80988819D02*
X173807333Y-80988819D01*
X173807333Y-80988819D02*
X173712095Y-81036438D01*
X173712095Y-81036438D02*
X173664476Y-81084057D01*
X173664476Y-81084057D02*
X173616857Y-81179295D01*
X173616857Y-81179295D02*
X173616857Y-81322152D01*
X173616857Y-81322152D02*
X173664476Y-81417390D01*
X173664476Y-81417390D02*
X173712095Y-81465009D01*
X173712095Y-81465009D02*
X173807333Y-81512628D01*
X173807333Y-81512628D02*
X174188285Y-81512628D01*
X173045428Y-81417390D02*
X173140666Y-81369771D01*
X173140666Y-81369771D02*
X173188285Y-81322152D01*
X173188285Y-81322152D02*
X173235904Y-81226914D01*
X173235904Y-81226914D02*
X173235904Y-81179295D01*
X173235904Y-81179295D02*
X173188285Y-81084057D01*
X173188285Y-81084057D02*
X173140666Y-81036438D01*
X173140666Y-81036438D02*
X173045428Y-80988819D01*
X173045428Y-80988819D02*
X172854952Y-80988819D01*
X172854952Y-80988819D02*
X172759714Y-81036438D01*
X172759714Y-81036438D02*
X172712095Y-81084057D01*
X172712095Y-81084057D02*
X172664476Y-81179295D01*
X172664476Y-81179295D02*
X172664476Y-81226914D01*
X172664476Y-81226914D02*
X172712095Y-81322152D01*
X172712095Y-81322152D02*
X172759714Y-81369771D01*
X172759714Y-81369771D02*
X172854952Y-81417390D01*
X172854952Y-81417390D02*
X173045428Y-81417390D01*
X173045428Y-81417390D02*
X173140666Y-81465009D01*
X173140666Y-81465009D02*
X173188285Y-81512628D01*
X173188285Y-81512628D02*
X173235904Y-81607866D01*
X173235904Y-81607866D02*
X173235904Y-81798342D01*
X173235904Y-81798342D02*
X173188285Y-81893580D01*
X173188285Y-81893580D02*
X173140666Y-81941200D01*
X173140666Y-81941200D02*
X173045428Y-81988819D01*
X173045428Y-81988819D02*
X172854952Y-81988819D01*
X172854952Y-81988819D02*
X172759714Y-81941200D01*
X172759714Y-81941200D02*
X172712095Y-81893580D01*
X172712095Y-81893580D02*
X172664476Y-81798342D01*
X172664476Y-81798342D02*
X172664476Y-81607866D01*
X172664476Y-81607866D02*
X172712095Y-81512628D01*
X172712095Y-81512628D02*
X172759714Y-81465009D01*
X172759714Y-81465009D02*
X172854952Y-81417390D01*
X172331142Y-80988819D02*
X171712095Y-80988819D01*
X171712095Y-80988819D02*
X172045428Y-81369771D01*
X172045428Y-81369771D02*
X171902571Y-81369771D01*
X171902571Y-81369771D02*
X171807333Y-81417390D01*
X171807333Y-81417390D02*
X171759714Y-81465009D01*
X171759714Y-81465009D02*
X171712095Y-81560247D01*
X171712095Y-81560247D02*
X171712095Y-81798342D01*
X171712095Y-81798342D02*
X171759714Y-81893580D01*
X171759714Y-81893580D02*
X171807333Y-81941200D01*
X171807333Y-81941200D02*
X171902571Y-81988819D01*
X171902571Y-81988819D02*
X172188285Y-81988819D01*
X172188285Y-81988819D02*
X172283523Y-81941200D01*
X172283523Y-81941200D02*
X172331142Y-81893580D01*
X157900666Y-82496819D02*
X158233999Y-82020628D01*
X158472094Y-82496819D02*
X158472094Y-81496819D01*
X158472094Y-81496819D02*
X158091142Y-81496819D01*
X158091142Y-81496819D02*
X157995904Y-81544438D01*
X157995904Y-81544438D02*
X157948285Y-81592057D01*
X157948285Y-81592057D02*
X157900666Y-81687295D01*
X157900666Y-81687295D02*
X157900666Y-81830152D01*
X157900666Y-81830152D02*
X157948285Y-81925390D01*
X157948285Y-81925390D02*
X157995904Y-81973009D01*
X157995904Y-81973009D02*
X158091142Y-82020628D01*
X158091142Y-82020628D02*
X158472094Y-82020628D01*
X157043523Y-81496819D02*
X157233999Y-81496819D01*
X157233999Y-81496819D02*
X157329237Y-81544438D01*
X157329237Y-81544438D02*
X157376856Y-81592057D01*
X157376856Y-81592057D02*
X157472094Y-81734914D01*
X157472094Y-81734914D02*
X157519713Y-81925390D01*
X157519713Y-81925390D02*
X157519713Y-82306342D01*
X157519713Y-82306342D02*
X157472094Y-82401580D01*
X157472094Y-82401580D02*
X157424475Y-82449200D01*
X157424475Y-82449200D02*
X157329237Y-82496819D01*
X157329237Y-82496819D02*
X157138761Y-82496819D01*
X157138761Y-82496819D02*
X157043523Y-82449200D01*
X157043523Y-82449200D02*
X156995904Y-82401580D01*
X156995904Y-82401580D02*
X156948285Y-82306342D01*
X156948285Y-82306342D02*
X156948285Y-82068247D01*
X156948285Y-82068247D02*
X156995904Y-81973009D01*
X156995904Y-81973009D02*
X157043523Y-81925390D01*
X157043523Y-81925390D02*
X157138761Y-81877771D01*
X157138761Y-81877771D02*
X157329237Y-81877771D01*
X157329237Y-81877771D02*
X157424475Y-81925390D01*
X157424475Y-81925390D02*
X157472094Y-81973009D01*
X157472094Y-81973009D02*
X157519713Y-82068247D01*
X110654819Y-68357142D02*
X110178628Y-68023809D01*
X110654819Y-67785714D02*
X109654819Y-67785714D01*
X109654819Y-67785714D02*
X109654819Y-68166666D01*
X109654819Y-68166666D02*
X109702438Y-68261904D01*
X109702438Y-68261904D02*
X109750057Y-68309523D01*
X109750057Y-68309523D02*
X109845295Y-68357142D01*
X109845295Y-68357142D02*
X109988152Y-68357142D01*
X109988152Y-68357142D02*
X110083390Y-68309523D01*
X110083390Y-68309523D02*
X110131009Y-68261904D01*
X110131009Y-68261904D02*
X110178628Y-68166666D01*
X110178628Y-68166666D02*
X110178628Y-67785714D01*
X109654819Y-69261904D02*
X109654819Y-68785714D01*
X109654819Y-68785714D02*
X110131009Y-68738095D01*
X110131009Y-68738095D02*
X110083390Y-68785714D01*
X110083390Y-68785714D02*
X110035771Y-68880952D01*
X110035771Y-68880952D02*
X110035771Y-69119047D01*
X110035771Y-69119047D02*
X110083390Y-69214285D01*
X110083390Y-69214285D02*
X110131009Y-69261904D01*
X110131009Y-69261904D02*
X110226247Y-69309523D01*
X110226247Y-69309523D02*
X110464342Y-69309523D01*
X110464342Y-69309523D02*
X110559580Y-69261904D01*
X110559580Y-69261904D02*
X110607200Y-69214285D01*
X110607200Y-69214285D02*
X110654819Y-69119047D01*
X110654819Y-69119047D02*
X110654819Y-68880952D01*
X110654819Y-68880952D02*
X110607200Y-68785714D01*
X110607200Y-68785714D02*
X110559580Y-68738095D01*
X109654819Y-70214285D02*
X109654819Y-69738095D01*
X109654819Y-69738095D02*
X110131009Y-69690476D01*
X110131009Y-69690476D02*
X110083390Y-69738095D01*
X110083390Y-69738095D02*
X110035771Y-69833333D01*
X110035771Y-69833333D02*
X110035771Y-70071428D01*
X110035771Y-70071428D02*
X110083390Y-70166666D01*
X110083390Y-70166666D02*
X110131009Y-70214285D01*
X110131009Y-70214285D02*
X110226247Y-70261904D01*
X110226247Y-70261904D02*
X110464342Y-70261904D01*
X110464342Y-70261904D02*
X110559580Y-70214285D01*
X110559580Y-70214285D02*
X110607200Y-70166666D01*
X110607200Y-70166666D02*
X110654819Y-70071428D01*
X110654819Y-70071428D02*
X110654819Y-69833333D01*
X110654819Y-69833333D02*
X110607200Y-69738095D01*
X110607200Y-69738095D02*
X110559580Y-69690476D01*
X153013580Y-74408833D02*
X153061200Y-74361214D01*
X153061200Y-74361214D02*
X153108819Y-74218357D01*
X153108819Y-74218357D02*
X153108819Y-74123119D01*
X153108819Y-74123119D02*
X153061200Y-73980262D01*
X153061200Y-73980262D02*
X152965961Y-73885024D01*
X152965961Y-73885024D02*
X152870723Y-73837405D01*
X152870723Y-73837405D02*
X152680247Y-73789786D01*
X152680247Y-73789786D02*
X152537390Y-73789786D01*
X152537390Y-73789786D02*
X152346914Y-73837405D01*
X152346914Y-73837405D02*
X152251676Y-73885024D01*
X152251676Y-73885024D02*
X152156438Y-73980262D01*
X152156438Y-73980262D02*
X152108819Y-74123119D01*
X152108819Y-74123119D02*
X152108819Y-74218357D01*
X152108819Y-74218357D02*
X152156438Y-74361214D01*
X152156438Y-74361214D02*
X152204057Y-74408833D01*
X152204057Y-74789786D02*
X152156438Y-74837405D01*
X152156438Y-74837405D02*
X152108819Y-74932643D01*
X152108819Y-74932643D02*
X152108819Y-75170738D01*
X152108819Y-75170738D02*
X152156438Y-75265976D01*
X152156438Y-75265976D02*
X152204057Y-75313595D01*
X152204057Y-75313595D02*
X152299295Y-75361214D01*
X152299295Y-75361214D02*
X152394533Y-75361214D01*
X152394533Y-75361214D02*
X152537390Y-75313595D01*
X152537390Y-75313595D02*
X153108819Y-74742167D01*
X153108819Y-74742167D02*
X153108819Y-75361214D01*
X147171580Y-54697333D02*
X147219200Y-54649714D01*
X147219200Y-54649714D02*
X147266819Y-54506857D01*
X147266819Y-54506857D02*
X147266819Y-54411619D01*
X147266819Y-54411619D02*
X147219200Y-54268762D01*
X147219200Y-54268762D02*
X147123961Y-54173524D01*
X147123961Y-54173524D02*
X147028723Y-54125905D01*
X147028723Y-54125905D02*
X146838247Y-54078286D01*
X146838247Y-54078286D02*
X146695390Y-54078286D01*
X146695390Y-54078286D02*
X146504914Y-54125905D01*
X146504914Y-54125905D02*
X146409676Y-54173524D01*
X146409676Y-54173524D02*
X146314438Y-54268762D01*
X146314438Y-54268762D02*
X146266819Y-54411619D01*
X146266819Y-54411619D02*
X146266819Y-54506857D01*
X146266819Y-54506857D02*
X146314438Y-54649714D01*
X146314438Y-54649714D02*
X146362057Y-54697333D01*
X147266819Y-55649714D02*
X147266819Y-55078286D01*
X147266819Y-55364000D02*
X146266819Y-55364000D01*
X146266819Y-55364000D02*
X146409676Y-55268762D01*
X146409676Y-55268762D02*
X146504914Y-55173524D01*
X146504914Y-55173524D02*
X146552533Y-55078286D01*
X133484857Y-65224819D02*
X133818190Y-64748628D01*
X134056285Y-65224819D02*
X134056285Y-64224819D01*
X134056285Y-64224819D02*
X133675333Y-64224819D01*
X133675333Y-64224819D02*
X133580095Y-64272438D01*
X133580095Y-64272438D02*
X133532476Y-64320057D01*
X133532476Y-64320057D02*
X133484857Y-64415295D01*
X133484857Y-64415295D02*
X133484857Y-64558152D01*
X133484857Y-64558152D02*
X133532476Y-64653390D01*
X133532476Y-64653390D02*
X133580095Y-64701009D01*
X133580095Y-64701009D02*
X133675333Y-64748628D01*
X133675333Y-64748628D02*
X134056285Y-64748628D01*
X132627714Y-64224819D02*
X132818190Y-64224819D01*
X132818190Y-64224819D02*
X132913428Y-64272438D01*
X132913428Y-64272438D02*
X132961047Y-64320057D01*
X132961047Y-64320057D02*
X133056285Y-64462914D01*
X133056285Y-64462914D02*
X133103904Y-64653390D01*
X133103904Y-64653390D02*
X133103904Y-65034342D01*
X133103904Y-65034342D02*
X133056285Y-65129580D01*
X133056285Y-65129580D02*
X133008666Y-65177200D01*
X133008666Y-65177200D02*
X132913428Y-65224819D01*
X132913428Y-65224819D02*
X132722952Y-65224819D01*
X132722952Y-65224819D02*
X132627714Y-65177200D01*
X132627714Y-65177200D02*
X132580095Y-65129580D01*
X132580095Y-65129580D02*
X132532476Y-65034342D01*
X132532476Y-65034342D02*
X132532476Y-64796247D01*
X132532476Y-64796247D02*
X132580095Y-64701009D01*
X132580095Y-64701009D02*
X132627714Y-64653390D01*
X132627714Y-64653390D02*
X132722952Y-64605771D01*
X132722952Y-64605771D02*
X132913428Y-64605771D01*
X132913428Y-64605771D02*
X133008666Y-64653390D01*
X133008666Y-64653390D02*
X133056285Y-64701009D01*
X133056285Y-64701009D02*
X133103904Y-64796247D01*
X131580095Y-65224819D02*
X132151523Y-65224819D01*
X131865809Y-65224819D02*
X131865809Y-64224819D01*
X131865809Y-64224819D02*
X131961047Y-64367676D01*
X131961047Y-64367676D02*
X132056285Y-64462914D01*
X132056285Y-64462914D02*
X132151523Y-64510533D01*
X177934857Y-86814819D02*
X178268190Y-86338628D01*
X178506285Y-86814819D02*
X178506285Y-85814819D01*
X178506285Y-85814819D02*
X178125333Y-85814819D01*
X178125333Y-85814819D02*
X178030095Y-85862438D01*
X178030095Y-85862438D02*
X177982476Y-85910057D01*
X177982476Y-85910057D02*
X177934857Y-86005295D01*
X177934857Y-86005295D02*
X177934857Y-86148152D01*
X177934857Y-86148152D02*
X177982476Y-86243390D01*
X177982476Y-86243390D02*
X178030095Y-86291009D01*
X178030095Y-86291009D02*
X178125333Y-86338628D01*
X178125333Y-86338628D02*
X178506285Y-86338628D01*
X177363428Y-86243390D02*
X177458666Y-86195771D01*
X177458666Y-86195771D02*
X177506285Y-86148152D01*
X177506285Y-86148152D02*
X177553904Y-86052914D01*
X177553904Y-86052914D02*
X177553904Y-86005295D01*
X177553904Y-86005295D02*
X177506285Y-85910057D01*
X177506285Y-85910057D02*
X177458666Y-85862438D01*
X177458666Y-85862438D02*
X177363428Y-85814819D01*
X177363428Y-85814819D02*
X177172952Y-85814819D01*
X177172952Y-85814819D02*
X177077714Y-85862438D01*
X177077714Y-85862438D02*
X177030095Y-85910057D01*
X177030095Y-85910057D02*
X176982476Y-86005295D01*
X176982476Y-86005295D02*
X176982476Y-86052914D01*
X176982476Y-86052914D02*
X177030095Y-86148152D01*
X177030095Y-86148152D02*
X177077714Y-86195771D01*
X177077714Y-86195771D02*
X177172952Y-86243390D01*
X177172952Y-86243390D02*
X177363428Y-86243390D01*
X177363428Y-86243390D02*
X177458666Y-86291009D01*
X177458666Y-86291009D02*
X177506285Y-86338628D01*
X177506285Y-86338628D02*
X177553904Y-86433866D01*
X177553904Y-86433866D02*
X177553904Y-86624342D01*
X177553904Y-86624342D02*
X177506285Y-86719580D01*
X177506285Y-86719580D02*
X177458666Y-86767200D01*
X177458666Y-86767200D02*
X177363428Y-86814819D01*
X177363428Y-86814819D02*
X177172952Y-86814819D01*
X177172952Y-86814819D02*
X177077714Y-86767200D01*
X177077714Y-86767200D02*
X177030095Y-86719580D01*
X177030095Y-86719580D02*
X176982476Y-86624342D01*
X176982476Y-86624342D02*
X176982476Y-86433866D01*
X176982476Y-86433866D02*
X177030095Y-86338628D01*
X177030095Y-86338628D02*
X177077714Y-86291009D01*
X177077714Y-86291009D02*
X177172952Y-86243390D01*
X176030095Y-86814819D02*
X176601523Y-86814819D01*
X176315809Y-86814819D02*
X176315809Y-85814819D01*
X176315809Y-85814819D02*
X176411047Y-85957676D01*
X176411047Y-85957676D02*
X176506285Y-86052914D01*
X176506285Y-86052914D02*
X176601523Y-86100533D01*
X149859904Y-80226819D02*
X149859904Y-81036342D01*
X149859904Y-81036342D02*
X149812285Y-81131580D01*
X149812285Y-81131580D02*
X149764666Y-81179200D01*
X149764666Y-81179200D02*
X149669428Y-81226819D01*
X149669428Y-81226819D02*
X149478952Y-81226819D01*
X149478952Y-81226819D02*
X149383714Y-81179200D01*
X149383714Y-81179200D02*
X149336095Y-81131580D01*
X149336095Y-81131580D02*
X149288476Y-81036342D01*
X149288476Y-81036342D02*
X149288476Y-80226819D01*
X148383714Y-80560152D02*
X148383714Y-81226819D01*
X148621809Y-80179200D02*
X148859904Y-80893485D01*
X148859904Y-80893485D02*
X148240857Y-80893485D01*
X132338857Y-47244580D02*
X132386476Y-47292200D01*
X132386476Y-47292200D02*
X132529333Y-47339819D01*
X132529333Y-47339819D02*
X132624571Y-47339819D01*
X132624571Y-47339819D02*
X132767428Y-47292200D01*
X132767428Y-47292200D02*
X132862666Y-47196961D01*
X132862666Y-47196961D02*
X132910285Y-47101723D01*
X132910285Y-47101723D02*
X132957904Y-46911247D01*
X132957904Y-46911247D02*
X132957904Y-46768390D01*
X132957904Y-46768390D02*
X132910285Y-46577914D01*
X132910285Y-46577914D02*
X132862666Y-46482676D01*
X132862666Y-46482676D02*
X132767428Y-46387438D01*
X132767428Y-46387438D02*
X132624571Y-46339819D01*
X132624571Y-46339819D02*
X132529333Y-46339819D01*
X132529333Y-46339819D02*
X132386476Y-46387438D01*
X132386476Y-46387438D02*
X132338857Y-46435057D01*
X131481714Y-46673152D02*
X131481714Y-47339819D01*
X131719809Y-46292200D02*
X131957904Y-47006485D01*
X131957904Y-47006485D02*
X131338857Y-47006485D01*
X130529333Y-46339819D02*
X130719809Y-46339819D01*
X130719809Y-46339819D02*
X130815047Y-46387438D01*
X130815047Y-46387438D02*
X130862666Y-46435057D01*
X130862666Y-46435057D02*
X130957904Y-46577914D01*
X130957904Y-46577914D02*
X131005523Y-46768390D01*
X131005523Y-46768390D02*
X131005523Y-47149342D01*
X131005523Y-47149342D02*
X130957904Y-47244580D01*
X130957904Y-47244580D02*
X130910285Y-47292200D01*
X130910285Y-47292200D02*
X130815047Y-47339819D01*
X130815047Y-47339819D02*
X130624571Y-47339819D01*
X130624571Y-47339819D02*
X130529333Y-47292200D01*
X130529333Y-47292200D02*
X130481714Y-47244580D01*
X130481714Y-47244580D02*
X130434095Y-47149342D01*
X130434095Y-47149342D02*
X130434095Y-46911247D01*
X130434095Y-46911247D02*
X130481714Y-46816009D01*
X130481714Y-46816009D02*
X130529333Y-46768390D01*
X130529333Y-46768390D02*
X130624571Y-46720771D01*
X130624571Y-46720771D02*
X130815047Y-46720771D01*
X130815047Y-46720771D02*
X130910285Y-46768390D01*
X130910285Y-46768390D02*
X130957904Y-46816009D01*
X130957904Y-46816009D02*
X131005523Y-46911247D01*
X133064094Y-73622819D02*
X133064094Y-74432342D01*
X133064094Y-74432342D02*
X133016475Y-74527580D01*
X133016475Y-74527580D02*
X132968856Y-74575200D01*
X132968856Y-74575200D02*
X132873618Y-74622819D01*
X132873618Y-74622819D02*
X132683142Y-74622819D01*
X132683142Y-74622819D02*
X132587904Y-74575200D01*
X132587904Y-74575200D02*
X132540285Y-74527580D01*
X132540285Y-74527580D02*
X132492666Y-74432342D01*
X132492666Y-74432342D02*
X132492666Y-73622819D01*
X131492666Y-74622819D02*
X132064094Y-74622819D01*
X131778380Y-74622819D02*
X131778380Y-73622819D01*
X131778380Y-73622819D02*
X131873618Y-73765676D01*
X131873618Y-73765676D02*
X131968856Y-73860914D01*
X131968856Y-73860914D02*
X132064094Y-73908533D01*
X130873618Y-73622819D02*
X130778380Y-73622819D01*
X130778380Y-73622819D02*
X130683142Y-73670438D01*
X130683142Y-73670438D02*
X130635523Y-73718057D01*
X130635523Y-73718057D02*
X130587904Y-73813295D01*
X130587904Y-73813295D02*
X130540285Y-74003771D01*
X130540285Y-74003771D02*
X130540285Y-74241866D01*
X130540285Y-74241866D02*
X130587904Y-74432342D01*
X130587904Y-74432342D02*
X130635523Y-74527580D01*
X130635523Y-74527580D02*
X130683142Y-74575200D01*
X130683142Y-74575200D02*
X130778380Y-74622819D01*
X130778380Y-74622819D02*
X130873618Y-74622819D01*
X130873618Y-74622819D02*
X130968856Y-74575200D01*
X130968856Y-74575200D02*
X131016475Y-74527580D01*
X131016475Y-74527580D02*
X131064094Y-74432342D01*
X131064094Y-74432342D02*
X131111713Y-74241866D01*
X131111713Y-74241866D02*
X131111713Y-74003771D01*
X131111713Y-74003771D02*
X131064094Y-73813295D01*
X131064094Y-73813295D02*
X131016475Y-73718057D01*
X131016475Y-73718057D02*
X130968856Y-73670438D01*
X130968856Y-73670438D02*
X130873618Y-73622819D01*
X126089580Y-94861142D02*
X126137200Y-94813523D01*
X126137200Y-94813523D02*
X126184819Y-94670666D01*
X126184819Y-94670666D02*
X126184819Y-94575428D01*
X126184819Y-94575428D02*
X126137200Y-94432571D01*
X126137200Y-94432571D02*
X126041961Y-94337333D01*
X126041961Y-94337333D02*
X125946723Y-94289714D01*
X125946723Y-94289714D02*
X125756247Y-94242095D01*
X125756247Y-94242095D02*
X125613390Y-94242095D01*
X125613390Y-94242095D02*
X125422914Y-94289714D01*
X125422914Y-94289714D02*
X125327676Y-94337333D01*
X125327676Y-94337333D02*
X125232438Y-94432571D01*
X125232438Y-94432571D02*
X125184819Y-94575428D01*
X125184819Y-94575428D02*
X125184819Y-94670666D01*
X125184819Y-94670666D02*
X125232438Y-94813523D01*
X125232438Y-94813523D02*
X125280057Y-94861142D01*
X125280057Y-95242095D02*
X125232438Y-95289714D01*
X125232438Y-95289714D02*
X125184819Y-95384952D01*
X125184819Y-95384952D02*
X125184819Y-95623047D01*
X125184819Y-95623047D02*
X125232438Y-95718285D01*
X125232438Y-95718285D02*
X125280057Y-95765904D01*
X125280057Y-95765904D02*
X125375295Y-95813523D01*
X125375295Y-95813523D02*
X125470533Y-95813523D01*
X125470533Y-95813523D02*
X125613390Y-95765904D01*
X125613390Y-95765904D02*
X126184819Y-95194476D01*
X126184819Y-95194476D02*
X126184819Y-95813523D01*
X125184819Y-96432571D02*
X125184819Y-96527809D01*
X125184819Y-96527809D02*
X125232438Y-96623047D01*
X125232438Y-96623047D02*
X125280057Y-96670666D01*
X125280057Y-96670666D02*
X125375295Y-96718285D01*
X125375295Y-96718285D02*
X125565771Y-96765904D01*
X125565771Y-96765904D02*
X125803866Y-96765904D01*
X125803866Y-96765904D02*
X125994342Y-96718285D01*
X125994342Y-96718285D02*
X126089580Y-96670666D01*
X126089580Y-96670666D02*
X126137200Y-96623047D01*
X126137200Y-96623047D02*
X126184819Y-96527809D01*
X126184819Y-96527809D02*
X126184819Y-96432571D01*
X126184819Y-96432571D02*
X126137200Y-96337333D01*
X126137200Y-96337333D02*
X126089580Y-96289714D01*
X126089580Y-96289714D02*
X125994342Y-96242095D01*
X125994342Y-96242095D02*
X125803866Y-96194476D01*
X125803866Y-96194476D02*
X125565771Y-96194476D01*
X125565771Y-96194476D02*
X125375295Y-96242095D01*
X125375295Y-96242095D02*
X125280057Y-96289714D01*
X125280057Y-96289714D02*
X125232438Y-96337333D01*
X125232438Y-96337333D02*
X125184819Y-96432571D01*
X133610285Y-87992295D02*
X133876952Y-87611342D01*
X134067428Y-87992295D02*
X134067428Y-87192295D01*
X134067428Y-87192295D02*
X133762666Y-87192295D01*
X133762666Y-87192295D02*
X133686476Y-87230390D01*
X133686476Y-87230390D02*
X133648381Y-87268485D01*
X133648381Y-87268485D02*
X133610285Y-87344676D01*
X133610285Y-87344676D02*
X133610285Y-87458961D01*
X133610285Y-87458961D02*
X133648381Y-87535152D01*
X133648381Y-87535152D02*
X133686476Y-87573247D01*
X133686476Y-87573247D02*
X133762666Y-87611342D01*
X133762666Y-87611342D02*
X134067428Y-87611342D01*
X132924571Y-87458961D02*
X132924571Y-87992295D01*
X133115047Y-87154200D02*
X133305524Y-87725628D01*
X133305524Y-87725628D02*
X132810285Y-87725628D01*
X132391238Y-87535152D02*
X132467428Y-87497057D01*
X132467428Y-87497057D02*
X132505523Y-87458961D01*
X132505523Y-87458961D02*
X132543619Y-87382771D01*
X132543619Y-87382771D02*
X132543619Y-87344676D01*
X132543619Y-87344676D02*
X132505523Y-87268485D01*
X132505523Y-87268485D02*
X132467428Y-87230390D01*
X132467428Y-87230390D02*
X132391238Y-87192295D01*
X132391238Y-87192295D02*
X132238857Y-87192295D01*
X132238857Y-87192295D02*
X132162666Y-87230390D01*
X132162666Y-87230390D02*
X132124571Y-87268485D01*
X132124571Y-87268485D02*
X132086476Y-87344676D01*
X132086476Y-87344676D02*
X132086476Y-87382771D01*
X132086476Y-87382771D02*
X132124571Y-87458961D01*
X132124571Y-87458961D02*
X132162666Y-87497057D01*
X132162666Y-87497057D02*
X132238857Y-87535152D01*
X132238857Y-87535152D02*
X132391238Y-87535152D01*
X132391238Y-87535152D02*
X132467428Y-87573247D01*
X132467428Y-87573247D02*
X132505523Y-87611342D01*
X132505523Y-87611342D02*
X132543619Y-87687533D01*
X132543619Y-87687533D02*
X132543619Y-87839914D01*
X132543619Y-87839914D02*
X132505523Y-87916104D01*
X132505523Y-87916104D02*
X132467428Y-87954200D01*
X132467428Y-87954200D02*
X132391238Y-87992295D01*
X132391238Y-87992295D02*
X132238857Y-87992295D01*
X132238857Y-87992295D02*
X132162666Y-87954200D01*
X132162666Y-87954200D02*
X132124571Y-87916104D01*
X132124571Y-87916104D02*
X132086476Y-87839914D01*
X132086476Y-87839914D02*
X132086476Y-87687533D01*
X132086476Y-87687533D02*
X132124571Y-87611342D01*
X132124571Y-87611342D02*
X132162666Y-87573247D01*
X132162666Y-87573247D02*
X132238857Y-87535152D01*
X121864285Y-77670819D02*
X121864285Y-76670819D01*
X121864285Y-76670819D02*
X121626190Y-76670819D01*
X121626190Y-76670819D02*
X121483333Y-76718438D01*
X121483333Y-76718438D02*
X121388095Y-76813676D01*
X121388095Y-76813676D02*
X121340476Y-76908914D01*
X121340476Y-76908914D02*
X121292857Y-77099390D01*
X121292857Y-77099390D02*
X121292857Y-77242247D01*
X121292857Y-77242247D02*
X121340476Y-77432723D01*
X121340476Y-77432723D02*
X121388095Y-77527961D01*
X121388095Y-77527961D02*
X121483333Y-77623200D01*
X121483333Y-77623200D02*
X121626190Y-77670819D01*
X121626190Y-77670819D02*
X121864285Y-77670819D01*
X120340476Y-77670819D02*
X120911904Y-77670819D01*
X120626190Y-77670819D02*
X120626190Y-76670819D01*
X120626190Y-76670819D02*
X120721428Y-76813676D01*
X120721428Y-76813676D02*
X120816666Y-76908914D01*
X120816666Y-76908914D02*
X120911904Y-76956533D01*
X119769047Y-77099390D02*
X119864285Y-77051771D01*
X119864285Y-77051771D02*
X119911904Y-77004152D01*
X119911904Y-77004152D02*
X119959523Y-76908914D01*
X119959523Y-76908914D02*
X119959523Y-76861295D01*
X119959523Y-76861295D02*
X119911904Y-76766057D01*
X119911904Y-76766057D02*
X119864285Y-76718438D01*
X119864285Y-76718438D02*
X119769047Y-76670819D01*
X119769047Y-76670819D02*
X119578571Y-76670819D01*
X119578571Y-76670819D02*
X119483333Y-76718438D01*
X119483333Y-76718438D02*
X119435714Y-76766057D01*
X119435714Y-76766057D02*
X119388095Y-76861295D01*
X119388095Y-76861295D02*
X119388095Y-76908914D01*
X119388095Y-76908914D02*
X119435714Y-77004152D01*
X119435714Y-77004152D02*
X119483333Y-77051771D01*
X119483333Y-77051771D02*
X119578571Y-77099390D01*
X119578571Y-77099390D02*
X119769047Y-77099390D01*
X119769047Y-77099390D02*
X119864285Y-77147009D01*
X119864285Y-77147009D02*
X119911904Y-77194628D01*
X119911904Y-77194628D02*
X119959523Y-77289866D01*
X119959523Y-77289866D02*
X119959523Y-77480342D01*
X119959523Y-77480342D02*
X119911904Y-77575580D01*
X119911904Y-77575580D02*
X119864285Y-77623200D01*
X119864285Y-77623200D02*
X119769047Y-77670819D01*
X119769047Y-77670819D02*
X119578571Y-77670819D01*
X119578571Y-77670819D02*
X119483333Y-77623200D01*
X119483333Y-77623200D02*
X119435714Y-77575580D01*
X119435714Y-77575580D02*
X119388095Y-77480342D01*
X119388095Y-77480342D02*
X119388095Y-77289866D01*
X119388095Y-77289866D02*
X119435714Y-77194628D01*
X119435714Y-77194628D02*
X119483333Y-77147009D01*
X119483333Y-77147009D02*
X119578571Y-77099390D01*
X147425580Y-66667142D02*
X147473200Y-66619523D01*
X147473200Y-66619523D02*
X147520819Y-66476666D01*
X147520819Y-66476666D02*
X147520819Y-66381428D01*
X147520819Y-66381428D02*
X147473200Y-66238571D01*
X147473200Y-66238571D02*
X147377961Y-66143333D01*
X147377961Y-66143333D02*
X147282723Y-66095714D01*
X147282723Y-66095714D02*
X147092247Y-66048095D01*
X147092247Y-66048095D02*
X146949390Y-66048095D01*
X146949390Y-66048095D02*
X146758914Y-66095714D01*
X146758914Y-66095714D02*
X146663676Y-66143333D01*
X146663676Y-66143333D02*
X146568438Y-66238571D01*
X146568438Y-66238571D02*
X146520819Y-66381428D01*
X146520819Y-66381428D02*
X146520819Y-66476666D01*
X146520819Y-66476666D02*
X146568438Y-66619523D01*
X146568438Y-66619523D02*
X146616057Y-66667142D01*
X146854152Y-67524285D02*
X147520819Y-67524285D01*
X146473200Y-67286190D02*
X147187485Y-67048095D01*
X147187485Y-67048095D02*
X147187485Y-67667142D01*
X146520819Y-67952857D02*
X146520819Y-68571904D01*
X146520819Y-68571904D02*
X146901771Y-68238571D01*
X146901771Y-68238571D02*
X146901771Y-68381428D01*
X146901771Y-68381428D02*
X146949390Y-68476666D01*
X146949390Y-68476666D02*
X146997009Y-68524285D01*
X146997009Y-68524285D02*
X147092247Y-68571904D01*
X147092247Y-68571904D02*
X147330342Y-68571904D01*
X147330342Y-68571904D02*
X147425580Y-68524285D01*
X147425580Y-68524285D02*
X147473200Y-68476666D01*
X147473200Y-68476666D02*
X147520819Y-68381428D01*
X147520819Y-68381428D02*
X147520819Y-68095714D01*
X147520819Y-68095714D02*
X147473200Y-68000476D01*
X147473200Y-68000476D02*
X147425580Y-67952857D01*
X138850666Y-55826819D02*
X139183999Y-55350628D01*
X139422094Y-55826819D02*
X139422094Y-54826819D01*
X139422094Y-54826819D02*
X139041142Y-54826819D01*
X139041142Y-54826819D02*
X138945904Y-54874438D01*
X138945904Y-54874438D02*
X138898285Y-54922057D01*
X138898285Y-54922057D02*
X138850666Y-55017295D01*
X138850666Y-55017295D02*
X138850666Y-55160152D01*
X138850666Y-55160152D02*
X138898285Y-55255390D01*
X138898285Y-55255390D02*
X138945904Y-55303009D01*
X138945904Y-55303009D02*
X139041142Y-55350628D01*
X139041142Y-55350628D02*
X139422094Y-55350628D01*
X138469713Y-54922057D02*
X138422094Y-54874438D01*
X138422094Y-54874438D02*
X138326856Y-54826819D01*
X138326856Y-54826819D02*
X138088761Y-54826819D01*
X138088761Y-54826819D02*
X137993523Y-54874438D01*
X137993523Y-54874438D02*
X137945904Y-54922057D01*
X137945904Y-54922057D02*
X137898285Y-55017295D01*
X137898285Y-55017295D02*
X137898285Y-55112533D01*
X137898285Y-55112533D02*
X137945904Y-55255390D01*
X137945904Y-55255390D02*
X138517332Y-55826819D01*
X138517332Y-55826819D02*
X137898285Y-55826819D01*
X128150857Y-75035580D02*
X128198476Y-75083200D01*
X128198476Y-75083200D02*
X128341333Y-75130819D01*
X128341333Y-75130819D02*
X128436571Y-75130819D01*
X128436571Y-75130819D02*
X128579428Y-75083200D01*
X128579428Y-75083200D02*
X128674666Y-74987961D01*
X128674666Y-74987961D02*
X128722285Y-74892723D01*
X128722285Y-74892723D02*
X128769904Y-74702247D01*
X128769904Y-74702247D02*
X128769904Y-74559390D01*
X128769904Y-74559390D02*
X128722285Y-74368914D01*
X128722285Y-74368914D02*
X128674666Y-74273676D01*
X128674666Y-74273676D02*
X128579428Y-74178438D01*
X128579428Y-74178438D02*
X128436571Y-74130819D01*
X128436571Y-74130819D02*
X128341333Y-74130819D01*
X128341333Y-74130819D02*
X128198476Y-74178438D01*
X128198476Y-74178438D02*
X128150857Y-74226057D01*
X127817523Y-74130819D02*
X127198476Y-74130819D01*
X127198476Y-74130819D02*
X127531809Y-74511771D01*
X127531809Y-74511771D02*
X127388952Y-74511771D01*
X127388952Y-74511771D02*
X127293714Y-74559390D01*
X127293714Y-74559390D02*
X127246095Y-74607009D01*
X127246095Y-74607009D02*
X127198476Y-74702247D01*
X127198476Y-74702247D02*
X127198476Y-74940342D01*
X127198476Y-74940342D02*
X127246095Y-75035580D01*
X127246095Y-75035580D02*
X127293714Y-75083200D01*
X127293714Y-75083200D02*
X127388952Y-75130819D01*
X127388952Y-75130819D02*
X127674666Y-75130819D01*
X127674666Y-75130819D02*
X127769904Y-75083200D01*
X127769904Y-75083200D02*
X127817523Y-75035580D01*
X126865142Y-74130819D02*
X126198476Y-74130819D01*
X126198476Y-74130819D02*
X126627047Y-75130819D01*
X141729580Y-67233333D02*
X141777200Y-67185714D01*
X141777200Y-67185714D02*
X141824819Y-67042857D01*
X141824819Y-67042857D02*
X141824819Y-66947619D01*
X141824819Y-66947619D02*
X141777200Y-66804762D01*
X141777200Y-66804762D02*
X141681961Y-66709524D01*
X141681961Y-66709524D02*
X141586723Y-66661905D01*
X141586723Y-66661905D02*
X141396247Y-66614286D01*
X141396247Y-66614286D02*
X141253390Y-66614286D01*
X141253390Y-66614286D02*
X141062914Y-66661905D01*
X141062914Y-66661905D02*
X140967676Y-66709524D01*
X140967676Y-66709524D02*
X140872438Y-66804762D01*
X140872438Y-66804762D02*
X140824819Y-66947619D01*
X140824819Y-66947619D02*
X140824819Y-67042857D01*
X140824819Y-67042857D02*
X140872438Y-67185714D01*
X140872438Y-67185714D02*
X140920057Y-67233333D01*
X140824819Y-68090476D02*
X140824819Y-67900000D01*
X140824819Y-67900000D02*
X140872438Y-67804762D01*
X140872438Y-67804762D02*
X140920057Y-67757143D01*
X140920057Y-67757143D02*
X141062914Y-67661905D01*
X141062914Y-67661905D02*
X141253390Y-67614286D01*
X141253390Y-67614286D02*
X141634342Y-67614286D01*
X141634342Y-67614286D02*
X141729580Y-67661905D01*
X141729580Y-67661905D02*
X141777200Y-67709524D01*
X141777200Y-67709524D02*
X141824819Y-67804762D01*
X141824819Y-67804762D02*
X141824819Y-67995238D01*
X141824819Y-67995238D02*
X141777200Y-68090476D01*
X141777200Y-68090476D02*
X141729580Y-68138095D01*
X141729580Y-68138095D02*
X141634342Y-68185714D01*
X141634342Y-68185714D02*
X141396247Y-68185714D01*
X141396247Y-68185714D02*
X141301009Y-68138095D01*
X141301009Y-68138095D02*
X141253390Y-68090476D01*
X141253390Y-68090476D02*
X141205771Y-67995238D01*
X141205771Y-67995238D02*
X141205771Y-67804762D01*
X141205771Y-67804762D02*
X141253390Y-67709524D01*
X141253390Y-67709524D02*
X141301009Y-67661905D01*
X141301009Y-67661905D02*
X141396247Y-67614286D01*
X112402857Y-59795580D02*
X112450476Y-59843200D01*
X112450476Y-59843200D02*
X112593333Y-59890819D01*
X112593333Y-59890819D02*
X112688571Y-59890819D01*
X112688571Y-59890819D02*
X112831428Y-59843200D01*
X112831428Y-59843200D02*
X112926666Y-59747961D01*
X112926666Y-59747961D02*
X112974285Y-59652723D01*
X112974285Y-59652723D02*
X113021904Y-59462247D01*
X113021904Y-59462247D02*
X113021904Y-59319390D01*
X113021904Y-59319390D02*
X112974285Y-59128914D01*
X112974285Y-59128914D02*
X112926666Y-59033676D01*
X112926666Y-59033676D02*
X112831428Y-58938438D01*
X112831428Y-58938438D02*
X112688571Y-58890819D01*
X112688571Y-58890819D02*
X112593333Y-58890819D01*
X112593333Y-58890819D02*
X112450476Y-58938438D01*
X112450476Y-58938438D02*
X112402857Y-58986057D01*
X112021904Y-58986057D02*
X111974285Y-58938438D01*
X111974285Y-58938438D02*
X111879047Y-58890819D01*
X111879047Y-58890819D02*
X111640952Y-58890819D01*
X111640952Y-58890819D02*
X111545714Y-58938438D01*
X111545714Y-58938438D02*
X111498095Y-58986057D01*
X111498095Y-58986057D02*
X111450476Y-59081295D01*
X111450476Y-59081295D02*
X111450476Y-59176533D01*
X111450476Y-59176533D02*
X111498095Y-59319390D01*
X111498095Y-59319390D02*
X112069523Y-59890819D01*
X112069523Y-59890819D02*
X111450476Y-59890819D01*
X110593333Y-58890819D02*
X110783809Y-58890819D01*
X110783809Y-58890819D02*
X110879047Y-58938438D01*
X110879047Y-58938438D02*
X110926666Y-58986057D01*
X110926666Y-58986057D02*
X111021904Y-59128914D01*
X111021904Y-59128914D02*
X111069523Y-59319390D01*
X111069523Y-59319390D02*
X111069523Y-59700342D01*
X111069523Y-59700342D02*
X111021904Y-59795580D01*
X111021904Y-59795580D02*
X110974285Y-59843200D01*
X110974285Y-59843200D02*
X110879047Y-59890819D01*
X110879047Y-59890819D02*
X110688571Y-59890819D01*
X110688571Y-59890819D02*
X110593333Y-59843200D01*
X110593333Y-59843200D02*
X110545714Y-59795580D01*
X110545714Y-59795580D02*
X110498095Y-59700342D01*
X110498095Y-59700342D02*
X110498095Y-59462247D01*
X110498095Y-59462247D02*
X110545714Y-59367009D01*
X110545714Y-59367009D02*
X110593333Y-59319390D01*
X110593333Y-59319390D02*
X110688571Y-59271771D01*
X110688571Y-59271771D02*
X110879047Y-59271771D01*
X110879047Y-59271771D02*
X110974285Y-59319390D01*
X110974285Y-59319390D02*
X111021904Y-59367009D01*
X111021904Y-59367009D02*
X111069523Y-59462247D01*
X149457580Y-67143333D02*
X149505200Y-67095714D01*
X149505200Y-67095714D02*
X149552819Y-66952857D01*
X149552819Y-66952857D02*
X149552819Y-66857619D01*
X149552819Y-66857619D02*
X149505200Y-66714762D01*
X149505200Y-66714762D02*
X149409961Y-66619524D01*
X149409961Y-66619524D02*
X149314723Y-66571905D01*
X149314723Y-66571905D02*
X149124247Y-66524286D01*
X149124247Y-66524286D02*
X148981390Y-66524286D01*
X148981390Y-66524286D02*
X148790914Y-66571905D01*
X148790914Y-66571905D02*
X148695676Y-66619524D01*
X148695676Y-66619524D02*
X148600438Y-66714762D01*
X148600438Y-66714762D02*
X148552819Y-66857619D01*
X148552819Y-66857619D02*
X148552819Y-66952857D01*
X148552819Y-66952857D02*
X148600438Y-67095714D01*
X148600438Y-67095714D02*
X148648057Y-67143333D01*
X148552819Y-67476667D02*
X148552819Y-68143333D01*
X148552819Y-68143333D02*
X149552819Y-67714762D01*
X154598666Y-56747580D02*
X154646285Y-56795200D01*
X154646285Y-56795200D02*
X154789142Y-56842819D01*
X154789142Y-56842819D02*
X154884380Y-56842819D01*
X154884380Y-56842819D02*
X155027237Y-56795200D01*
X155027237Y-56795200D02*
X155122475Y-56699961D01*
X155122475Y-56699961D02*
X155170094Y-56604723D01*
X155170094Y-56604723D02*
X155217713Y-56414247D01*
X155217713Y-56414247D02*
X155217713Y-56271390D01*
X155217713Y-56271390D02*
X155170094Y-56080914D01*
X155170094Y-56080914D02*
X155122475Y-55985676D01*
X155122475Y-55985676D02*
X155027237Y-55890438D01*
X155027237Y-55890438D02*
X154884380Y-55842819D01*
X154884380Y-55842819D02*
X154789142Y-55842819D01*
X154789142Y-55842819D02*
X154646285Y-55890438D01*
X154646285Y-55890438D02*
X154598666Y-55938057D01*
X154027237Y-56271390D02*
X154122475Y-56223771D01*
X154122475Y-56223771D02*
X154170094Y-56176152D01*
X154170094Y-56176152D02*
X154217713Y-56080914D01*
X154217713Y-56080914D02*
X154217713Y-56033295D01*
X154217713Y-56033295D02*
X154170094Y-55938057D01*
X154170094Y-55938057D02*
X154122475Y-55890438D01*
X154122475Y-55890438D02*
X154027237Y-55842819D01*
X154027237Y-55842819D02*
X153836761Y-55842819D01*
X153836761Y-55842819D02*
X153741523Y-55890438D01*
X153741523Y-55890438D02*
X153693904Y-55938057D01*
X153693904Y-55938057D02*
X153646285Y-56033295D01*
X153646285Y-56033295D02*
X153646285Y-56080914D01*
X153646285Y-56080914D02*
X153693904Y-56176152D01*
X153693904Y-56176152D02*
X153741523Y-56223771D01*
X153741523Y-56223771D02*
X153836761Y-56271390D01*
X153836761Y-56271390D02*
X154027237Y-56271390D01*
X154027237Y-56271390D02*
X154122475Y-56319009D01*
X154122475Y-56319009D02*
X154170094Y-56366628D01*
X154170094Y-56366628D02*
X154217713Y-56461866D01*
X154217713Y-56461866D02*
X154217713Y-56652342D01*
X154217713Y-56652342D02*
X154170094Y-56747580D01*
X154170094Y-56747580D02*
X154122475Y-56795200D01*
X154122475Y-56795200D02*
X154027237Y-56842819D01*
X154027237Y-56842819D02*
X153836761Y-56842819D01*
X153836761Y-56842819D02*
X153741523Y-56795200D01*
X153741523Y-56795200D02*
X153693904Y-56747580D01*
X153693904Y-56747580D02*
X153646285Y-56652342D01*
X153646285Y-56652342D02*
X153646285Y-56461866D01*
X153646285Y-56461866D02*
X153693904Y-56366628D01*
X153693904Y-56366628D02*
X153741523Y-56319009D01*
X153741523Y-56319009D02*
X153836761Y-56271390D01*
X125184819Y-86614095D02*
X125994342Y-86614095D01*
X125994342Y-86614095D02*
X126089580Y-86661714D01*
X126089580Y-86661714D02*
X126137200Y-86709333D01*
X126137200Y-86709333D02*
X126184819Y-86804571D01*
X126184819Y-86804571D02*
X126184819Y-86995047D01*
X126184819Y-86995047D02*
X126137200Y-87090285D01*
X126137200Y-87090285D02*
X126089580Y-87137904D01*
X126089580Y-87137904D02*
X125994342Y-87185523D01*
X125994342Y-87185523D02*
X125184819Y-87185523D01*
X125613390Y-87804571D02*
X125565771Y-87709333D01*
X125565771Y-87709333D02*
X125518152Y-87661714D01*
X125518152Y-87661714D02*
X125422914Y-87614095D01*
X125422914Y-87614095D02*
X125375295Y-87614095D01*
X125375295Y-87614095D02*
X125280057Y-87661714D01*
X125280057Y-87661714D02*
X125232438Y-87709333D01*
X125232438Y-87709333D02*
X125184819Y-87804571D01*
X125184819Y-87804571D02*
X125184819Y-87995047D01*
X125184819Y-87995047D02*
X125232438Y-88090285D01*
X125232438Y-88090285D02*
X125280057Y-88137904D01*
X125280057Y-88137904D02*
X125375295Y-88185523D01*
X125375295Y-88185523D02*
X125422914Y-88185523D01*
X125422914Y-88185523D02*
X125518152Y-88137904D01*
X125518152Y-88137904D02*
X125565771Y-88090285D01*
X125565771Y-88090285D02*
X125613390Y-87995047D01*
X125613390Y-87995047D02*
X125613390Y-87804571D01*
X125613390Y-87804571D02*
X125661009Y-87709333D01*
X125661009Y-87709333D02*
X125708628Y-87661714D01*
X125708628Y-87661714D02*
X125803866Y-87614095D01*
X125803866Y-87614095D02*
X125994342Y-87614095D01*
X125994342Y-87614095D02*
X126089580Y-87661714D01*
X126089580Y-87661714D02*
X126137200Y-87709333D01*
X126137200Y-87709333D02*
X126184819Y-87804571D01*
X126184819Y-87804571D02*
X126184819Y-87995047D01*
X126184819Y-87995047D02*
X126137200Y-88090285D01*
X126137200Y-88090285D02*
X126089580Y-88137904D01*
X126089580Y-88137904D02*
X125994342Y-88185523D01*
X125994342Y-88185523D02*
X125803866Y-88185523D01*
X125803866Y-88185523D02*
X125708628Y-88137904D01*
X125708628Y-88137904D02*
X125661009Y-88090285D01*
X125661009Y-88090285D02*
X125613390Y-87995047D01*
X145775819Y-43775333D02*
X145299628Y-43442000D01*
X145775819Y-43203905D02*
X144775819Y-43203905D01*
X144775819Y-43203905D02*
X144775819Y-43584857D01*
X144775819Y-43584857D02*
X144823438Y-43680095D01*
X144823438Y-43680095D02*
X144871057Y-43727714D01*
X144871057Y-43727714D02*
X144966295Y-43775333D01*
X144966295Y-43775333D02*
X145109152Y-43775333D01*
X145109152Y-43775333D02*
X145204390Y-43727714D01*
X145204390Y-43727714D02*
X145252009Y-43680095D01*
X145252009Y-43680095D02*
X145299628Y-43584857D01*
X145299628Y-43584857D02*
X145299628Y-43203905D01*
X145775819Y-44251524D02*
X145775819Y-44442000D01*
X145775819Y-44442000D02*
X145728200Y-44537238D01*
X145728200Y-44537238D02*
X145680580Y-44584857D01*
X145680580Y-44584857D02*
X145537723Y-44680095D01*
X145537723Y-44680095D02*
X145347247Y-44727714D01*
X145347247Y-44727714D02*
X144966295Y-44727714D01*
X144966295Y-44727714D02*
X144871057Y-44680095D01*
X144871057Y-44680095D02*
X144823438Y-44632476D01*
X144823438Y-44632476D02*
X144775819Y-44537238D01*
X144775819Y-44537238D02*
X144775819Y-44346762D01*
X144775819Y-44346762D02*
X144823438Y-44251524D01*
X144823438Y-44251524D02*
X144871057Y-44203905D01*
X144871057Y-44203905D02*
X144966295Y-44156286D01*
X144966295Y-44156286D02*
X145204390Y-44156286D01*
X145204390Y-44156286D02*
X145299628Y-44203905D01*
X145299628Y-44203905D02*
X145347247Y-44251524D01*
X145347247Y-44251524D02*
X145394866Y-44346762D01*
X145394866Y-44346762D02*
X145394866Y-44537238D01*
X145394866Y-44537238D02*
X145347247Y-44632476D01*
X145347247Y-44632476D02*
X145299628Y-44680095D01*
X145299628Y-44680095D02*
X145204390Y-44727714D01*
X137868819Y-77049333D02*
X137392628Y-76716000D01*
X137868819Y-76477905D02*
X136868819Y-76477905D01*
X136868819Y-76477905D02*
X136868819Y-76858857D01*
X136868819Y-76858857D02*
X136916438Y-76954095D01*
X136916438Y-76954095D02*
X136964057Y-77001714D01*
X136964057Y-77001714D02*
X137059295Y-77049333D01*
X137059295Y-77049333D02*
X137202152Y-77049333D01*
X137202152Y-77049333D02*
X137297390Y-77001714D01*
X137297390Y-77001714D02*
X137345009Y-76954095D01*
X137345009Y-76954095D02*
X137392628Y-76858857D01*
X137392628Y-76858857D02*
X137392628Y-76477905D01*
X136868819Y-77382667D02*
X136868819Y-78049333D01*
X136868819Y-78049333D02*
X137868819Y-77620762D01*
X179712857Y-92561580D02*
X179760476Y-92609200D01*
X179760476Y-92609200D02*
X179903333Y-92656819D01*
X179903333Y-92656819D02*
X179998571Y-92656819D01*
X179998571Y-92656819D02*
X180141428Y-92609200D01*
X180141428Y-92609200D02*
X180236666Y-92513961D01*
X180236666Y-92513961D02*
X180284285Y-92418723D01*
X180284285Y-92418723D02*
X180331904Y-92228247D01*
X180331904Y-92228247D02*
X180331904Y-92085390D01*
X180331904Y-92085390D02*
X180284285Y-91894914D01*
X180284285Y-91894914D02*
X180236666Y-91799676D01*
X180236666Y-91799676D02*
X180141428Y-91704438D01*
X180141428Y-91704438D02*
X179998571Y-91656819D01*
X179998571Y-91656819D02*
X179903333Y-91656819D01*
X179903333Y-91656819D02*
X179760476Y-91704438D01*
X179760476Y-91704438D02*
X179712857Y-91752057D01*
X178855714Y-91990152D02*
X178855714Y-92656819D01*
X179093809Y-91609200D02*
X179331904Y-92323485D01*
X179331904Y-92323485D02*
X178712857Y-92323485D01*
X177903333Y-91990152D02*
X177903333Y-92656819D01*
X178141428Y-91609200D02*
X178379523Y-92323485D01*
X178379523Y-92323485D02*
X177760476Y-92323485D01*
X135741580Y-63365142D02*
X135789200Y-63317523D01*
X135789200Y-63317523D02*
X135836819Y-63174666D01*
X135836819Y-63174666D02*
X135836819Y-63079428D01*
X135836819Y-63079428D02*
X135789200Y-62936571D01*
X135789200Y-62936571D02*
X135693961Y-62841333D01*
X135693961Y-62841333D02*
X135598723Y-62793714D01*
X135598723Y-62793714D02*
X135408247Y-62746095D01*
X135408247Y-62746095D02*
X135265390Y-62746095D01*
X135265390Y-62746095D02*
X135074914Y-62793714D01*
X135074914Y-62793714D02*
X134979676Y-62841333D01*
X134979676Y-62841333D02*
X134884438Y-62936571D01*
X134884438Y-62936571D02*
X134836819Y-63079428D01*
X134836819Y-63079428D02*
X134836819Y-63174666D01*
X134836819Y-63174666D02*
X134884438Y-63317523D01*
X134884438Y-63317523D02*
X134932057Y-63365142D01*
X134836819Y-63698476D02*
X134836819Y-64317523D01*
X134836819Y-64317523D02*
X135217771Y-63984190D01*
X135217771Y-63984190D02*
X135217771Y-64127047D01*
X135217771Y-64127047D02*
X135265390Y-64222285D01*
X135265390Y-64222285D02*
X135313009Y-64269904D01*
X135313009Y-64269904D02*
X135408247Y-64317523D01*
X135408247Y-64317523D02*
X135646342Y-64317523D01*
X135646342Y-64317523D02*
X135741580Y-64269904D01*
X135741580Y-64269904D02*
X135789200Y-64222285D01*
X135789200Y-64222285D02*
X135836819Y-64127047D01*
X135836819Y-64127047D02*
X135836819Y-63841333D01*
X135836819Y-63841333D02*
X135789200Y-63746095D01*
X135789200Y-63746095D02*
X135741580Y-63698476D01*
X134836819Y-65222285D02*
X134836819Y-64746095D01*
X134836819Y-64746095D02*
X135313009Y-64698476D01*
X135313009Y-64698476D02*
X135265390Y-64746095D01*
X135265390Y-64746095D02*
X135217771Y-64841333D01*
X135217771Y-64841333D02*
X135217771Y-65079428D01*
X135217771Y-65079428D02*
X135265390Y-65174666D01*
X135265390Y-65174666D02*
X135313009Y-65222285D01*
X135313009Y-65222285D02*
X135408247Y-65269904D01*
X135408247Y-65269904D02*
X135646342Y-65269904D01*
X135646342Y-65269904D02*
X135741580Y-65222285D01*
X135741580Y-65222285D02*
X135789200Y-65174666D01*
X135789200Y-65174666D02*
X135836819Y-65079428D01*
X135836819Y-65079428D02*
X135836819Y-64841333D01*
X135836819Y-64841333D02*
X135789200Y-64746095D01*
X135789200Y-64746095D02*
X135741580Y-64698476D01*
X163362819Y-47267905D02*
X162362819Y-47267905D01*
X162362819Y-47267905D02*
X162362819Y-47506000D01*
X162362819Y-47506000D02*
X162410438Y-47648857D01*
X162410438Y-47648857D02*
X162505676Y-47744095D01*
X162505676Y-47744095D02*
X162600914Y-47791714D01*
X162600914Y-47791714D02*
X162791390Y-47839333D01*
X162791390Y-47839333D02*
X162934247Y-47839333D01*
X162934247Y-47839333D02*
X163124723Y-47791714D01*
X163124723Y-47791714D02*
X163219961Y-47744095D01*
X163219961Y-47744095D02*
X163315200Y-47648857D01*
X163315200Y-47648857D02*
X163362819Y-47506000D01*
X163362819Y-47506000D02*
X163362819Y-47267905D01*
X163362819Y-48791714D02*
X163362819Y-48220286D01*
X163362819Y-48506000D02*
X162362819Y-48506000D01*
X162362819Y-48506000D02*
X162505676Y-48410762D01*
X162505676Y-48410762D02*
X162600914Y-48315524D01*
X162600914Y-48315524D02*
X162648533Y-48220286D01*
X141803333Y-82258819D02*
X141803333Y-82973104D01*
X141803333Y-82973104D02*
X141850952Y-83115961D01*
X141850952Y-83115961D02*
X141946190Y-83211200D01*
X141946190Y-83211200D02*
X142089047Y-83258819D01*
X142089047Y-83258819D02*
X142184285Y-83258819D01*
X141327142Y-83258819D02*
X141327142Y-82258819D01*
X141327142Y-82258819D02*
X140946190Y-82258819D01*
X140946190Y-82258819D02*
X140850952Y-82306438D01*
X140850952Y-82306438D02*
X140803333Y-82354057D01*
X140803333Y-82354057D02*
X140755714Y-82449295D01*
X140755714Y-82449295D02*
X140755714Y-82592152D01*
X140755714Y-82592152D02*
X140803333Y-82687390D01*
X140803333Y-82687390D02*
X140850952Y-82735009D01*
X140850952Y-82735009D02*
X140946190Y-82782628D01*
X140946190Y-82782628D02*
X141327142Y-82782628D01*
X139898571Y-82592152D02*
X139898571Y-83258819D01*
X140136666Y-82211200D02*
X140374761Y-82925485D01*
X140374761Y-82925485D02*
X139755714Y-82925485D01*
X123578857Y-57858819D02*
X123912190Y-57382628D01*
X124150285Y-57858819D02*
X124150285Y-56858819D01*
X124150285Y-56858819D02*
X123769333Y-56858819D01*
X123769333Y-56858819D02*
X123674095Y-56906438D01*
X123674095Y-56906438D02*
X123626476Y-56954057D01*
X123626476Y-56954057D02*
X123578857Y-57049295D01*
X123578857Y-57049295D02*
X123578857Y-57192152D01*
X123578857Y-57192152D02*
X123626476Y-57287390D01*
X123626476Y-57287390D02*
X123674095Y-57335009D01*
X123674095Y-57335009D02*
X123769333Y-57382628D01*
X123769333Y-57382628D02*
X124150285Y-57382628D01*
X122674095Y-56858819D02*
X123150285Y-56858819D01*
X123150285Y-56858819D02*
X123197904Y-57335009D01*
X123197904Y-57335009D02*
X123150285Y-57287390D01*
X123150285Y-57287390D02*
X123055047Y-57239771D01*
X123055047Y-57239771D02*
X122816952Y-57239771D01*
X122816952Y-57239771D02*
X122721714Y-57287390D01*
X122721714Y-57287390D02*
X122674095Y-57335009D01*
X122674095Y-57335009D02*
X122626476Y-57430247D01*
X122626476Y-57430247D02*
X122626476Y-57668342D01*
X122626476Y-57668342D02*
X122674095Y-57763580D01*
X122674095Y-57763580D02*
X122721714Y-57811200D01*
X122721714Y-57811200D02*
X122816952Y-57858819D01*
X122816952Y-57858819D02*
X123055047Y-57858819D01*
X123055047Y-57858819D02*
X123150285Y-57811200D01*
X123150285Y-57811200D02*
X123197904Y-57763580D01*
X122293142Y-56858819D02*
X121674095Y-56858819D01*
X121674095Y-56858819D02*
X122007428Y-57239771D01*
X122007428Y-57239771D02*
X121864571Y-57239771D01*
X121864571Y-57239771D02*
X121769333Y-57287390D01*
X121769333Y-57287390D02*
X121721714Y-57335009D01*
X121721714Y-57335009D02*
X121674095Y-57430247D01*
X121674095Y-57430247D02*
X121674095Y-57668342D01*
X121674095Y-57668342D02*
X121721714Y-57763580D01*
X121721714Y-57763580D02*
X121769333Y-57811200D01*
X121769333Y-57811200D02*
X121864571Y-57858819D01*
X121864571Y-57858819D02*
X122150285Y-57858819D01*
X122150285Y-57858819D02*
X122245523Y-57811200D01*
X122245523Y-57811200D02*
X122293142Y-57763580D01*
X153381580Y-66280833D02*
X153429200Y-66233214D01*
X153429200Y-66233214D02*
X153476819Y-66090357D01*
X153476819Y-66090357D02*
X153476819Y-65995119D01*
X153476819Y-65995119D02*
X153429200Y-65852262D01*
X153429200Y-65852262D02*
X153333961Y-65757024D01*
X153333961Y-65757024D02*
X153238723Y-65709405D01*
X153238723Y-65709405D02*
X153048247Y-65661786D01*
X153048247Y-65661786D02*
X152905390Y-65661786D01*
X152905390Y-65661786D02*
X152714914Y-65709405D01*
X152714914Y-65709405D02*
X152619676Y-65757024D01*
X152619676Y-65757024D02*
X152524438Y-65852262D01*
X152524438Y-65852262D02*
X152476819Y-65995119D01*
X152476819Y-65995119D02*
X152476819Y-66090357D01*
X152476819Y-66090357D02*
X152524438Y-66233214D01*
X152524438Y-66233214D02*
X152572057Y-66280833D01*
X152476819Y-67185595D02*
X152476819Y-66709405D01*
X152476819Y-66709405D02*
X152953009Y-66661786D01*
X152953009Y-66661786D02*
X152905390Y-66709405D01*
X152905390Y-66709405D02*
X152857771Y-66804643D01*
X152857771Y-66804643D02*
X152857771Y-67042738D01*
X152857771Y-67042738D02*
X152905390Y-67137976D01*
X152905390Y-67137976D02*
X152953009Y-67185595D01*
X152953009Y-67185595D02*
X153048247Y-67233214D01*
X153048247Y-67233214D02*
X153286342Y-67233214D01*
X153286342Y-67233214D02*
X153381580Y-67185595D01*
X153381580Y-67185595D02*
X153429200Y-67137976D01*
X153429200Y-67137976D02*
X153476819Y-67042738D01*
X153476819Y-67042738D02*
X153476819Y-66804643D01*
X153476819Y-66804643D02*
X153429200Y-66709405D01*
X153429200Y-66709405D02*
X153381580Y-66661786D01*
X145869819Y-39870142D02*
X145393628Y-39536809D01*
X145869819Y-39298714D02*
X144869819Y-39298714D01*
X144869819Y-39298714D02*
X144869819Y-39679666D01*
X144869819Y-39679666D02*
X144917438Y-39774904D01*
X144917438Y-39774904D02*
X144965057Y-39822523D01*
X144965057Y-39822523D02*
X145060295Y-39870142D01*
X145060295Y-39870142D02*
X145203152Y-39870142D01*
X145203152Y-39870142D02*
X145298390Y-39822523D01*
X145298390Y-39822523D02*
X145346009Y-39774904D01*
X145346009Y-39774904D02*
X145393628Y-39679666D01*
X145393628Y-39679666D02*
X145393628Y-39298714D01*
X145869819Y-40822523D02*
X145869819Y-40251095D01*
X145869819Y-40536809D02*
X144869819Y-40536809D01*
X144869819Y-40536809D02*
X145012676Y-40441571D01*
X145012676Y-40441571D02*
X145107914Y-40346333D01*
X145107914Y-40346333D02*
X145155533Y-40251095D01*
X144869819Y-41441571D02*
X144869819Y-41536809D01*
X144869819Y-41536809D02*
X144917438Y-41632047D01*
X144917438Y-41632047D02*
X144965057Y-41679666D01*
X144965057Y-41679666D02*
X145060295Y-41727285D01*
X145060295Y-41727285D02*
X145250771Y-41774904D01*
X145250771Y-41774904D02*
X145488866Y-41774904D01*
X145488866Y-41774904D02*
X145679342Y-41727285D01*
X145679342Y-41727285D02*
X145774580Y-41679666D01*
X145774580Y-41679666D02*
X145822200Y-41632047D01*
X145822200Y-41632047D02*
X145869819Y-41536809D01*
X145869819Y-41536809D02*
X145869819Y-41441571D01*
X145869819Y-41441571D02*
X145822200Y-41346333D01*
X145822200Y-41346333D02*
X145774580Y-41298714D01*
X145774580Y-41298714D02*
X145679342Y-41251095D01*
X145679342Y-41251095D02*
X145488866Y-41203476D01*
X145488866Y-41203476D02*
X145250771Y-41203476D01*
X145250771Y-41203476D02*
X145060295Y-41251095D01*
X145060295Y-41251095D02*
X144965057Y-41298714D01*
X144965057Y-41298714D02*
X144917438Y-41346333D01*
X144917438Y-41346333D02*
X144869819Y-41441571D01*
X163710857Y-72313580D02*
X163758476Y-72361200D01*
X163758476Y-72361200D02*
X163901333Y-72408819D01*
X163901333Y-72408819D02*
X163996571Y-72408819D01*
X163996571Y-72408819D02*
X164139428Y-72361200D01*
X164139428Y-72361200D02*
X164234666Y-72265961D01*
X164234666Y-72265961D02*
X164282285Y-72170723D01*
X164282285Y-72170723D02*
X164329904Y-71980247D01*
X164329904Y-71980247D02*
X164329904Y-71837390D01*
X164329904Y-71837390D02*
X164282285Y-71646914D01*
X164282285Y-71646914D02*
X164234666Y-71551676D01*
X164234666Y-71551676D02*
X164139428Y-71456438D01*
X164139428Y-71456438D02*
X163996571Y-71408819D01*
X163996571Y-71408819D02*
X163901333Y-71408819D01*
X163901333Y-71408819D02*
X163758476Y-71456438D01*
X163758476Y-71456438D02*
X163710857Y-71504057D01*
X162853714Y-71742152D02*
X162853714Y-72408819D01*
X163091809Y-71361200D02*
X163329904Y-72075485D01*
X163329904Y-72075485D02*
X162710857Y-72075485D01*
X161853714Y-71408819D02*
X162329904Y-71408819D01*
X162329904Y-71408819D02*
X162377523Y-71885009D01*
X162377523Y-71885009D02*
X162329904Y-71837390D01*
X162329904Y-71837390D02*
X162234666Y-71789771D01*
X162234666Y-71789771D02*
X161996571Y-71789771D01*
X161996571Y-71789771D02*
X161901333Y-71837390D01*
X161901333Y-71837390D02*
X161853714Y-71885009D01*
X161853714Y-71885009D02*
X161806095Y-71980247D01*
X161806095Y-71980247D02*
X161806095Y-72218342D01*
X161806095Y-72218342D02*
X161853714Y-72313580D01*
X161853714Y-72313580D02*
X161901333Y-72361200D01*
X161901333Y-72361200D02*
X161996571Y-72408819D01*
X161996571Y-72408819D02*
X162234666Y-72408819D01*
X162234666Y-72408819D02*
X162329904Y-72361200D01*
X162329904Y-72361200D02*
X162377523Y-72313580D01*
X115395333Y-48251819D02*
X115395333Y-48966104D01*
X115395333Y-48966104D02*
X115442952Y-49108961D01*
X115442952Y-49108961D02*
X115538190Y-49204200D01*
X115538190Y-49204200D02*
X115681047Y-49251819D01*
X115681047Y-49251819D02*
X115776285Y-49251819D01*
X115014380Y-48251819D02*
X114395333Y-48251819D01*
X114395333Y-48251819D02*
X114728666Y-48632771D01*
X114728666Y-48632771D02*
X114585809Y-48632771D01*
X114585809Y-48632771D02*
X114490571Y-48680390D01*
X114490571Y-48680390D02*
X114442952Y-48728009D01*
X114442952Y-48728009D02*
X114395333Y-48823247D01*
X114395333Y-48823247D02*
X114395333Y-49061342D01*
X114395333Y-49061342D02*
X114442952Y-49156580D01*
X114442952Y-49156580D02*
X114490571Y-49204200D01*
X114490571Y-49204200D02*
X114585809Y-49251819D01*
X114585809Y-49251819D02*
X114871523Y-49251819D01*
X114871523Y-49251819D02*
X114966761Y-49204200D01*
X114966761Y-49204200D02*
X115014380Y-49156580D01*
X142440819Y-75779333D02*
X141964628Y-75446000D01*
X142440819Y-75207905D02*
X141440819Y-75207905D01*
X141440819Y-75207905D02*
X141440819Y-75588857D01*
X141440819Y-75588857D02*
X141488438Y-75684095D01*
X141488438Y-75684095D02*
X141536057Y-75731714D01*
X141536057Y-75731714D02*
X141631295Y-75779333D01*
X141631295Y-75779333D02*
X141774152Y-75779333D01*
X141774152Y-75779333D02*
X141869390Y-75731714D01*
X141869390Y-75731714D02*
X141917009Y-75684095D01*
X141917009Y-75684095D02*
X141964628Y-75588857D01*
X141964628Y-75588857D02*
X141964628Y-75207905D01*
X141869390Y-76350762D02*
X141821771Y-76255524D01*
X141821771Y-76255524D02*
X141774152Y-76207905D01*
X141774152Y-76207905D02*
X141678914Y-76160286D01*
X141678914Y-76160286D02*
X141631295Y-76160286D01*
X141631295Y-76160286D02*
X141536057Y-76207905D01*
X141536057Y-76207905D02*
X141488438Y-76255524D01*
X141488438Y-76255524D02*
X141440819Y-76350762D01*
X141440819Y-76350762D02*
X141440819Y-76541238D01*
X141440819Y-76541238D02*
X141488438Y-76636476D01*
X141488438Y-76636476D02*
X141536057Y-76684095D01*
X141536057Y-76684095D02*
X141631295Y-76731714D01*
X141631295Y-76731714D02*
X141678914Y-76731714D01*
X141678914Y-76731714D02*
X141774152Y-76684095D01*
X141774152Y-76684095D02*
X141821771Y-76636476D01*
X141821771Y-76636476D02*
X141869390Y-76541238D01*
X141869390Y-76541238D02*
X141869390Y-76350762D01*
X141869390Y-76350762D02*
X141917009Y-76255524D01*
X141917009Y-76255524D02*
X141964628Y-76207905D01*
X141964628Y-76207905D02*
X142059866Y-76160286D01*
X142059866Y-76160286D02*
X142250342Y-76160286D01*
X142250342Y-76160286D02*
X142345580Y-76207905D01*
X142345580Y-76207905D02*
X142393200Y-76255524D01*
X142393200Y-76255524D02*
X142440819Y-76350762D01*
X142440819Y-76350762D02*
X142440819Y-76541238D01*
X142440819Y-76541238D02*
X142393200Y-76636476D01*
X142393200Y-76636476D02*
X142345580Y-76684095D01*
X142345580Y-76684095D02*
X142250342Y-76731714D01*
X142250342Y-76731714D02*
X142059866Y-76731714D01*
X142059866Y-76731714D02*
X141964628Y-76684095D01*
X141964628Y-76684095D02*
X141917009Y-76636476D01*
X141917009Y-76636476D02*
X141869390Y-76541238D01*
X119772857Y-69689535D02*
X119820476Y-69737155D01*
X119820476Y-69737155D02*
X119963333Y-69784774D01*
X119963333Y-69784774D02*
X120058571Y-69784774D01*
X120058571Y-69784774D02*
X120201428Y-69737155D01*
X120201428Y-69737155D02*
X120296666Y-69641916D01*
X120296666Y-69641916D02*
X120344285Y-69546678D01*
X120344285Y-69546678D02*
X120391904Y-69356202D01*
X120391904Y-69356202D02*
X120391904Y-69213345D01*
X120391904Y-69213345D02*
X120344285Y-69022869D01*
X120344285Y-69022869D02*
X120296666Y-68927631D01*
X120296666Y-68927631D02*
X120201428Y-68832393D01*
X120201428Y-68832393D02*
X120058571Y-68784774D01*
X120058571Y-68784774D02*
X119963333Y-68784774D01*
X119963333Y-68784774D02*
X119820476Y-68832393D01*
X119820476Y-68832393D02*
X119772857Y-68880012D01*
X119391904Y-68880012D02*
X119344285Y-68832393D01*
X119344285Y-68832393D02*
X119249047Y-68784774D01*
X119249047Y-68784774D02*
X119010952Y-68784774D01*
X119010952Y-68784774D02*
X118915714Y-68832393D01*
X118915714Y-68832393D02*
X118868095Y-68880012D01*
X118868095Y-68880012D02*
X118820476Y-68975250D01*
X118820476Y-68975250D02*
X118820476Y-69070488D01*
X118820476Y-69070488D02*
X118868095Y-69213345D01*
X118868095Y-69213345D02*
X119439523Y-69784774D01*
X119439523Y-69784774D02*
X118820476Y-69784774D01*
X118344285Y-69784774D02*
X118153809Y-69784774D01*
X118153809Y-69784774D02*
X118058571Y-69737155D01*
X118058571Y-69737155D02*
X118010952Y-69689535D01*
X118010952Y-69689535D02*
X117915714Y-69546678D01*
X117915714Y-69546678D02*
X117868095Y-69356202D01*
X117868095Y-69356202D02*
X117868095Y-68975250D01*
X117868095Y-68975250D02*
X117915714Y-68880012D01*
X117915714Y-68880012D02*
X117963333Y-68832393D01*
X117963333Y-68832393D02*
X118058571Y-68784774D01*
X118058571Y-68784774D02*
X118249047Y-68784774D01*
X118249047Y-68784774D02*
X118344285Y-68832393D01*
X118344285Y-68832393D02*
X118391904Y-68880012D01*
X118391904Y-68880012D02*
X118439523Y-68975250D01*
X118439523Y-68975250D02*
X118439523Y-69213345D01*
X118439523Y-69213345D02*
X118391904Y-69308583D01*
X118391904Y-69308583D02*
X118344285Y-69356202D01*
X118344285Y-69356202D02*
X118249047Y-69403821D01*
X118249047Y-69403821D02*
X118058571Y-69403821D01*
X118058571Y-69403821D02*
X117963333Y-69356202D01*
X117963333Y-69356202D02*
X117915714Y-69308583D01*
X117915714Y-69308583D02*
X117868095Y-69213345D01*
X123324857Y-55985580D02*
X123372476Y-56033200D01*
X123372476Y-56033200D02*
X123515333Y-56080819D01*
X123515333Y-56080819D02*
X123610571Y-56080819D01*
X123610571Y-56080819D02*
X123753428Y-56033200D01*
X123753428Y-56033200D02*
X123848666Y-55937961D01*
X123848666Y-55937961D02*
X123896285Y-55842723D01*
X123896285Y-55842723D02*
X123943904Y-55652247D01*
X123943904Y-55652247D02*
X123943904Y-55509390D01*
X123943904Y-55509390D02*
X123896285Y-55318914D01*
X123896285Y-55318914D02*
X123848666Y-55223676D01*
X123848666Y-55223676D02*
X123753428Y-55128438D01*
X123753428Y-55128438D02*
X123610571Y-55080819D01*
X123610571Y-55080819D02*
X123515333Y-55080819D01*
X123515333Y-55080819D02*
X123372476Y-55128438D01*
X123372476Y-55128438D02*
X123324857Y-55176057D01*
X122991523Y-55080819D02*
X122372476Y-55080819D01*
X122372476Y-55080819D02*
X122705809Y-55461771D01*
X122705809Y-55461771D02*
X122562952Y-55461771D01*
X122562952Y-55461771D02*
X122467714Y-55509390D01*
X122467714Y-55509390D02*
X122420095Y-55557009D01*
X122420095Y-55557009D02*
X122372476Y-55652247D01*
X122372476Y-55652247D02*
X122372476Y-55890342D01*
X122372476Y-55890342D02*
X122420095Y-55985580D01*
X122420095Y-55985580D02*
X122467714Y-56033200D01*
X122467714Y-56033200D02*
X122562952Y-56080819D01*
X122562952Y-56080819D02*
X122848666Y-56080819D01*
X122848666Y-56080819D02*
X122943904Y-56033200D01*
X122943904Y-56033200D02*
X122991523Y-55985580D01*
X122039142Y-55080819D02*
X121420095Y-55080819D01*
X121420095Y-55080819D02*
X121753428Y-55461771D01*
X121753428Y-55461771D02*
X121610571Y-55461771D01*
X121610571Y-55461771D02*
X121515333Y-55509390D01*
X121515333Y-55509390D02*
X121467714Y-55557009D01*
X121467714Y-55557009D02*
X121420095Y-55652247D01*
X121420095Y-55652247D02*
X121420095Y-55890342D01*
X121420095Y-55890342D02*
X121467714Y-55985580D01*
X121467714Y-55985580D02*
X121515333Y-56033200D01*
X121515333Y-56033200D02*
X121610571Y-56080819D01*
X121610571Y-56080819D02*
X121896285Y-56080819D01*
X121896285Y-56080819D02*
X121991523Y-56033200D01*
X121991523Y-56033200D02*
X122039142Y-55985580D01*
X136023332Y-88152295D02*
X136289999Y-87771342D01*
X136480475Y-88152295D02*
X136480475Y-87352295D01*
X136480475Y-87352295D02*
X136175713Y-87352295D01*
X136175713Y-87352295D02*
X136099523Y-87390390D01*
X136099523Y-87390390D02*
X136061428Y-87428485D01*
X136061428Y-87428485D02*
X136023332Y-87504676D01*
X136023332Y-87504676D02*
X136023332Y-87618961D01*
X136023332Y-87618961D02*
X136061428Y-87695152D01*
X136061428Y-87695152D02*
X136099523Y-87733247D01*
X136099523Y-87733247D02*
X136175713Y-87771342D01*
X136175713Y-87771342D02*
X136480475Y-87771342D01*
X135261428Y-88152295D02*
X135718571Y-88152295D01*
X135489999Y-88152295D02*
X135489999Y-87352295D01*
X135489999Y-87352295D02*
X135566190Y-87466580D01*
X135566190Y-87466580D02*
X135642380Y-87542771D01*
X135642380Y-87542771D02*
X135718571Y-87580866D01*
X129232819Y-71747142D02*
X128756628Y-71413809D01*
X129232819Y-71175714D02*
X128232819Y-71175714D01*
X128232819Y-71175714D02*
X128232819Y-71556666D01*
X128232819Y-71556666D02*
X128280438Y-71651904D01*
X128280438Y-71651904D02*
X128328057Y-71699523D01*
X128328057Y-71699523D02*
X128423295Y-71747142D01*
X128423295Y-71747142D02*
X128566152Y-71747142D01*
X128566152Y-71747142D02*
X128661390Y-71699523D01*
X128661390Y-71699523D02*
X128709009Y-71651904D01*
X128709009Y-71651904D02*
X128756628Y-71556666D01*
X128756628Y-71556666D02*
X128756628Y-71175714D01*
X128232819Y-72604285D02*
X128232819Y-72413809D01*
X128232819Y-72413809D02*
X128280438Y-72318571D01*
X128280438Y-72318571D02*
X128328057Y-72270952D01*
X128328057Y-72270952D02*
X128470914Y-72175714D01*
X128470914Y-72175714D02*
X128661390Y-72128095D01*
X128661390Y-72128095D02*
X129042342Y-72128095D01*
X129042342Y-72128095D02*
X129137580Y-72175714D01*
X129137580Y-72175714D02*
X129185200Y-72223333D01*
X129185200Y-72223333D02*
X129232819Y-72318571D01*
X129232819Y-72318571D02*
X129232819Y-72509047D01*
X129232819Y-72509047D02*
X129185200Y-72604285D01*
X129185200Y-72604285D02*
X129137580Y-72651904D01*
X129137580Y-72651904D02*
X129042342Y-72699523D01*
X129042342Y-72699523D02*
X128804247Y-72699523D01*
X128804247Y-72699523D02*
X128709009Y-72651904D01*
X128709009Y-72651904D02*
X128661390Y-72604285D01*
X128661390Y-72604285D02*
X128613771Y-72509047D01*
X128613771Y-72509047D02*
X128613771Y-72318571D01*
X128613771Y-72318571D02*
X128661390Y-72223333D01*
X128661390Y-72223333D02*
X128709009Y-72175714D01*
X128709009Y-72175714D02*
X128804247Y-72128095D01*
X128328057Y-73080476D02*
X128280438Y-73128095D01*
X128280438Y-73128095D02*
X128232819Y-73223333D01*
X128232819Y-73223333D02*
X128232819Y-73461428D01*
X128232819Y-73461428D02*
X128280438Y-73556666D01*
X128280438Y-73556666D02*
X128328057Y-73604285D01*
X128328057Y-73604285D02*
X128423295Y-73651904D01*
X128423295Y-73651904D02*
X128518533Y-73651904D01*
X128518533Y-73651904D02*
X128661390Y-73604285D01*
X128661390Y-73604285D02*
X129232819Y-73032857D01*
X129232819Y-73032857D02*
X129232819Y-73651904D01*
X124559580Y-80757142D02*
X124607200Y-80709523D01*
X124607200Y-80709523D02*
X124654819Y-80566666D01*
X124654819Y-80566666D02*
X124654819Y-80471428D01*
X124654819Y-80471428D02*
X124607200Y-80328571D01*
X124607200Y-80328571D02*
X124511961Y-80233333D01*
X124511961Y-80233333D02*
X124416723Y-80185714D01*
X124416723Y-80185714D02*
X124226247Y-80138095D01*
X124226247Y-80138095D02*
X124083390Y-80138095D01*
X124083390Y-80138095D02*
X123892914Y-80185714D01*
X123892914Y-80185714D02*
X123797676Y-80233333D01*
X123797676Y-80233333D02*
X123702438Y-80328571D01*
X123702438Y-80328571D02*
X123654819Y-80471428D01*
X123654819Y-80471428D02*
X123654819Y-80566666D01*
X123654819Y-80566666D02*
X123702438Y-80709523D01*
X123702438Y-80709523D02*
X123750057Y-80757142D01*
X123750057Y-81138095D02*
X123702438Y-81185714D01*
X123702438Y-81185714D02*
X123654819Y-81280952D01*
X123654819Y-81280952D02*
X123654819Y-81519047D01*
X123654819Y-81519047D02*
X123702438Y-81614285D01*
X123702438Y-81614285D02*
X123750057Y-81661904D01*
X123750057Y-81661904D02*
X123845295Y-81709523D01*
X123845295Y-81709523D02*
X123940533Y-81709523D01*
X123940533Y-81709523D02*
X124083390Y-81661904D01*
X124083390Y-81661904D02*
X124654819Y-81090476D01*
X124654819Y-81090476D02*
X124654819Y-81709523D01*
X123654819Y-82042857D02*
X123654819Y-82661904D01*
X123654819Y-82661904D02*
X124035771Y-82328571D01*
X124035771Y-82328571D02*
X124035771Y-82471428D01*
X124035771Y-82471428D02*
X124083390Y-82566666D01*
X124083390Y-82566666D02*
X124131009Y-82614285D01*
X124131009Y-82614285D02*
X124226247Y-82661904D01*
X124226247Y-82661904D02*
X124464342Y-82661904D01*
X124464342Y-82661904D02*
X124559580Y-82614285D01*
X124559580Y-82614285D02*
X124607200Y-82566666D01*
X124607200Y-82566666D02*
X124654819Y-82471428D01*
X124654819Y-82471428D02*
X124654819Y-82185714D01*
X124654819Y-82185714D02*
X124607200Y-82090476D01*
X124607200Y-82090476D02*
X124559580Y-82042857D01*
X155614666Y-54302819D02*
X155947999Y-53826628D01*
X156186094Y-54302819D02*
X156186094Y-53302819D01*
X156186094Y-53302819D02*
X155805142Y-53302819D01*
X155805142Y-53302819D02*
X155709904Y-53350438D01*
X155709904Y-53350438D02*
X155662285Y-53398057D01*
X155662285Y-53398057D02*
X155614666Y-53493295D01*
X155614666Y-53493295D02*
X155614666Y-53636152D01*
X155614666Y-53636152D02*
X155662285Y-53731390D01*
X155662285Y-53731390D02*
X155709904Y-53779009D01*
X155709904Y-53779009D02*
X155805142Y-53826628D01*
X155805142Y-53826628D02*
X156186094Y-53826628D01*
X154757523Y-53636152D02*
X154757523Y-54302819D01*
X154995618Y-53255200D02*
X155233713Y-53969485D01*
X155233713Y-53969485D02*
X154614666Y-53969485D01*
X169514357Y-69447580D02*
X169561976Y-69495200D01*
X169561976Y-69495200D02*
X169704833Y-69542819D01*
X169704833Y-69542819D02*
X169800071Y-69542819D01*
X169800071Y-69542819D02*
X169942928Y-69495200D01*
X169942928Y-69495200D02*
X170038166Y-69399961D01*
X170038166Y-69399961D02*
X170085785Y-69304723D01*
X170085785Y-69304723D02*
X170133404Y-69114247D01*
X170133404Y-69114247D02*
X170133404Y-68971390D01*
X170133404Y-68971390D02*
X170085785Y-68780914D01*
X170085785Y-68780914D02*
X170038166Y-68685676D01*
X170038166Y-68685676D02*
X169942928Y-68590438D01*
X169942928Y-68590438D02*
X169800071Y-68542819D01*
X169800071Y-68542819D02*
X169704833Y-68542819D01*
X169704833Y-68542819D02*
X169561976Y-68590438D01*
X169561976Y-68590438D02*
X169514357Y-68638057D01*
X168657214Y-68876152D02*
X168657214Y-69542819D01*
X168895309Y-68495200D02*
X169133404Y-69209485D01*
X169133404Y-69209485D02*
X168514357Y-69209485D01*
X167609595Y-69542819D02*
X168181023Y-69542819D01*
X167895309Y-69542819D02*
X167895309Y-68542819D01*
X167895309Y-68542819D02*
X167990547Y-68685676D01*
X167990547Y-68685676D02*
X168085785Y-68780914D01*
X168085785Y-68780914D02*
X168181023Y-68828533D01*
X173870857Y-79956819D02*
X174204190Y-79480628D01*
X174442285Y-79956819D02*
X174442285Y-78956819D01*
X174442285Y-78956819D02*
X174061333Y-78956819D01*
X174061333Y-78956819D02*
X173966095Y-79004438D01*
X173966095Y-79004438D02*
X173918476Y-79052057D01*
X173918476Y-79052057D02*
X173870857Y-79147295D01*
X173870857Y-79147295D02*
X173870857Y-79290152D01*
X173870857Y-79290152D02*
X173918476Y-79385390D01*
X173918476Y-79385390D02*
X173966095Y-79433009D01*
X173966095Y-79433009D02*
X174061333Y-79480628D01*
X174061333Y-79480628D02*
X174442285Y-79480628D01*
X173299428Y-79385390D02*
X173394666Y-79337771D01*
X173394666Y-79337771D02*
X173442285Y-79290152D01*
X173442285Y-79290152D02*
X173489904Y-79194914D01*
X173489904Y-79194914D02*
X173489904Y-79147295D01*
X173489904Y-79147295D02*
X173442285Y-79052057D01*
X173442285Y-79052057D02*
X173394666Y-79004438D01*
X173394666Y-79004438D02*
X173299428Y-78956819D01*
X173299428Y-78956819D02*
X173108952Y-78956819D01*
X173108952Y-78956819D02*
X173013714Y-79004438D01*
X173013714Y-79004438D02*
X172966095Y-79052057D01*
X172966095Y-79052057D02*
X172918476Y-79147295D01*
X172918476Y-79147295D02*
X172918476Y-79194914D01*
X172918476Y-79194914D02*
X172966095Y-79290152D01*
X172966095Y-79290152D02*
X173013714Y-79337771D01*
X173013714Y-79337771D02*
X173108952Y-79385390D01*
X173108952Y-79385390D02*
X173299428Y-79385390D01*
X173299428Y-79385390D02*
X173394666Y-79433009D01*
X173394666Y-79433009D02*
X173442285Y-79480628D01*
X173442285Y-79480628D02*
X173489904Y-79575866D01*
X173489904Y-79575866D02*
X173489904Y-79766342D01*
X173489904Y-79766342D02*
X173442285Y-79861580D01*
X173442285Y-79861580D02*
X173394666Y-79909200D01*
X173394666Y-79909200D02*
X173299428Y-79956819D01*
X173299428Y-79956819D02*
X173108952Y-79956819D01*
X173108952Y-79956819D02*
X173013714Y-79909200D01*
X173013714Y-79909200D02*
X172966095Y-79861580D01*
X172966095Y-79861580D02*
X172918476Y-79766342D01*
X172918476Y-79766342D02*
X172918476Y-79575866D01*
X172918476Y-79575866D02*
X172966095Y-79480628D01*
X172966095Y-79480628D02*
X173013714Y-79433009D01*
X173013714Y-79433009D02*
X173108952Y-79385390D01*
X172537523Y-79052057D02*
X172489904Y-79004438D01*
X172489904Y-79004438D02*
X172394666Y-78956819D01*
X172394666Y-78956819D02*
X172156571Y-78956819D01*
X172156571Y-78956819D02*
X172061333Y-79004438D01*
X172061333Y-79004438D02*
X172013714Y-79052057D01*
X172013714Y-79052057D02*
X171966095Y-79147295D01*
X171966095Y-79147295D02*
X171966095Y-79242533D01*
X171966095Y-79242533D02*
X172013714Y-79385390D01*
X172013714Y-79385390D02*
X172585142Y-79956819D01*
X172585142Y-79956819D02*
X171966095Y-79956819D01*
X135961333Y-91656819D02*
X135961333Y-92371104D01*
X135961333Y-92371104D02*
X136008952Y-92513961D01*
X136008952Y-92513961D02*
X136104190Y-92609200D01*
X136104190Y-92609200D02*
X136247047Y-92656819D01*
X136247047Y-92656819D02*
X136342285Y-92656819D01*
X135485142Y-92656819D02*
X135485142Y-91656819D01*
X135485142Y-91656819D02*
X135104190Y-91656819D01*
X135104190Y-91656819D02*
X135008952Y-91704438D01*
X135008952Y-91704438D02*
X134961333Y-91752057D01*
X134961333Y-91752057D02*
X134913714Y-91847295D01*
X134913714Y-91847295D02*
X134913714Y-91990152D01*
X134913714Y-91990152D02*
X134961333Y-92085390D01*
X134961333Y-92085390D02*
X135008952Y-92133009D01*
X135008952Y-92133009D02*
X135104190Y-92180628D01*
X135104190Y-92180628D02*
X135485142Y-92180628D01*
X134008952Y-91656819D02*
X134485142Y-91656819D01*
X134485142Y-91656819D02*
X134532761Y-92133009D01*
X134532761Y-92133009D02*
X134485142Y-92085390D01*
X134485142Y-92085390D02*
X134389904Y-92037771D01*
X134389904Y-92037771D02*
X134151809Y-92037771D01*
X134151809Y-92037771D02*
X134056571Y-92085390D01*
X134056571Y-92085390D02*
X134008952Y-92133009D01*
X134008952Y-92133009D02*
X133961333Y-92228247D01*
X133961333Y-92228247D02*
X133961333Y-92466342D01*
X133961333Y-92466342D02*
X134008952Y-92561580D01*
X134008952Y-92561580D02*
X134056571Y-92609200D01*
X134056571Y-92609200D02*
X134151809Y-92656819D01*
X134151809Y-92656819D02*
X134389904Y-92656819D01*
X134389904Y-92656819D02*
X134485142Y-92609200D01*
X134485142Y-92609200D02*
X134532761Y-92561580D01*
X178442857Y-88846819D02*
X178776190Y-88370628D01*
X179014285Y-88846819D02*
X179014285Y-87846819D01*
X179014285Y-87846819D02*
X178633333Y-87846819D01*
X178633333Y-87846819D02*
X178538095Y-87894438D01*
X178538095Y-87894438D02*
X178490476Y-87942057D01*
X178490476Y-87942057D02*
X178442857Y-88037295D01*
X178442857Y-88037295D02*
X178442857Y-88180152D01*
X178442857Y-88180152D02*
X178490476Y-88275390D01*
X178490476Y-88275390D02*
X178538095Y-88323009D01*
X178538095Y-88323009D02*
X178633333Y-88370628D01*
X178633333Y-88370628D02*
X179014285Y-88370628D01*
X177871428Y-88275390D02*
X177966666Y-88227771D01*
X177966666Y-88227771D02*
X178014285Y-88180152D01*
X178014285Y-88180152D02*
X178061904Y-88084914D01*
X178061904Y-88084914D02*
X178061904Y-88037295D01*
X178061904Y-88037295D02*
X178014285Y-87942057D01*
X178014285Y-87942057D02*
X177966666Y-87894438D01*
X177966666Y-87894438D02*
X177871428Y-87846819D01*
X177871428Y-87846819D02*
X177680952Y-87846819D01*
X177680952Y-87846819D02*
X177585714Y-87894438D01*
X177585714Y-87894438D02*
X177538095Y-87942057D01*
X177538095Y-87942057D02*
X177490476Y-88037295D01*
X177490476Y-88037295D02*
X177490476Y-88084914D01*
X177490476Y-88084914D02*
X177538095Y-88180152D01*
X177538095Y-88180152D02*
X177585714Y-88227771D01*
X177585714Y-88227771D02*
X177680952Y-88275390D01*
X177680952Y-88275390D02*
X177871428Y-88275390D01*
X177871428Y-88275390D02*
X177966666Y-88323009D01*
X177966666Y-88323009D02*
X178014285Y-88370628D01*
X178014285Y-88370628D02*
X178061904Y-88465866D01*
X178061904Y-88465866D02*
X178061904Y-88656342D01*
X178061904Y-88656342D02*
X178014285Y-88751580D01*
X178014285Y-88751580D02*
X177966666Y-88799200D01*
X177966666Y-88799200D02*
X177871428Y-88846819D01*
X177871428Y-88846819D02*
X177680952Y-88846819D01*
X177680952Y-88846819D02*
X177585714Y-88799200D01*
X177585714Y-88799200D02*
X177538095Y-88751580D01*
X177538095Y-88751580D02*
X177490476Y-88656342D01*
X177490476Y-88656342D02*
X177490476Y-88465866D01*
X177490476Y-88465866D02*
X177538095Y-88370628D01*
X177538095Y-88370628D02*
X177585714Y-88323009D01*
X177585714Y-88323009D02*
X177680952Y-88275390D01*
X176871428Y-87846819D02*
X176776190Y-87846819D01*
X176776190Y-87846819D02*
X176680952Y-87894438D01*
X176680952Y-87894438D02*
X176633333Y-87942057D01*
X176633333Y-87942057D02*
X176585714Y-88037295D01*
X176585714Y-88037295D02*
X176538095Y-88227771D01*
X176538095Y-88227771D02*
X176538095Y-88465866D01*
X176538095Y-88465866D02*
X176585714Y-88656342D01*
X176585714Y-88656342D02*
X176633333Y-88751580D01*
X176633333Y-88751580D02*
X176680952Y-88799200D01*
X176680952Y-88799200D02*
X176776190Y-88846819D01*
X176776190Y-88846819D02*
X176871428Y-88846819D01*
X176871428Y-88846819D02*
X176966666Y-88799200D01*
X176966666Y-88799200D02*
X177014285Y-88751580D01*
X177014285Y-88751580D02*
X177061904Y-88656342D01*
X177061904Y-88656342D02*
X177109523Y-88465866D01*
X177109523Y-88465866D02*
X177109523Y-88227771D01*
X177109523Y-88227771D02*
X177061904Y-88037295D01*
X177061904Y-88037295D02*
X177014285Y-87942057D01*
X177014285Y-87942057D02*
X176966666Y-87894438D01*
X176966666Y-87894438D02*
X176871428Y-87846819D01*
X127654819Y-64357142D02*
X127178628Y-64023809D01*
X127654819Y-63785714D02*
X126654819Y-63785714D01*
X126654819Y-63785714D02*
X126654819Y-64166666D01*
X126654819Y-64166666D02*
X126702438Y-64261904D01*
X126702438Y-64261904D02*
X126750057Y-64309523D01*
X126750057Y-64309523D02*
X126845295Y-64357142D01*
X126845295Y-64357142D02*
X126988152Y-64357142D01*
X126988152Y-64357142D02*
X127083390Y-64309523D01*
X127083390Y-64309523D02*
X127131009Y-64261904D01*
X127131009Y-64261904D02*
X127178628Y-64166666D01*
X127178628Y-64166666D02*
X127178628Y-63785714D01*
X126654819Y-65214285D02*
X126654819Y-65023809D01*
X126654819Y-65023809D02*
X126702438Y-64928571D01*
X126702438Y-64928571D02*
X126750057Y-64880952D01*
X126750057Y-64880952D02*
X126892914Y-64785714D01*
X126892914Y-64785714D02*
X127083390Y-64738095D01*
X127083390Y-64738095D02*
X127464342Y-64738095D01*
X127464342Y-64738095D02*
X127559580Y-64785714D01*
X127559580Y-64785714D02*
X127607200Y-64833333D01*
X127607200Y-64833333D02*
X127654819Y-64928571D01*
X127654819Y-64928571D02*
X127654819Y-65119047D01*
X127654819Y-65119047D02*
X127607200Y-65214285D01*
X127607200Y-65214285D02*
X127559580Y-65261904D01*
X127559580Y-65261904D02*
X127464342Y-65309523D01*
X127464342Y-65309523D02*
X127226247Y-65309523D01*
X127226247Y-65309523D02*
X127131009Y-65261904D01*
X127131009Y-65261904D02*
X127083390Y-65214285D01*
X127083390Y-65214285D02*
X127035771Y-65119047D01*
X127035771Y-65119047D02*
X127035771Y-64928571D01*
X127035771Y-64928571D02*
X127083390Y-64833333D01*
X127083390Y-64833333D02*
X127131009Y-64785714D01*
X127131009Y-64785714D02*
X127226247Y-64738095D01*
X126654819Y-65928571D02*
X126654819Y-66023809D01*
X126654819Y-66023809D02*
X126702438Y-66119047D01*
X126702438Y-66119047D02*
X126750057Y-66166666D01*
X126750057Y-66166666D02*
X126845295Y-66214285D01*
X126845295Y-66214285D02*
X127035771Y-66261904D01*
X127035771Y-66261904D02*
X127273866Y-66261904D01*
X127273866Y-66261904D02*
X127464342Y-66214285D01*
X127464342Y-66214285D02*
X127559580Y-66166666D01*
X127559580Y-66166666D02*
X127607200Y-66119047D01*
X127607200Y-66119047D02*
X127654819Y-66023809D01*
X127654819Y-66023809D02*
X127654819Y-65928571D01*
X127654819Y-65928571D02*
X127607200Y-65833333D01*
X127607200Y-65833333D02*
X127559580Y-65785714D01*
X127559580Y-65785714D02*
X127464342Y-65738095D01*
X127464342Y-65738095D02*
X127273866Y-65690476D01*
X127273866Y-65690476D02*
X127035771Y-65690476D01*
X127035771Y-65690476D02*
X126845295Y-65738095D01*
X126845295Y-65738095D02*
X126750057Y-65785714D01*
X126750057Y-65785714D02*
X126702438Y-65833333D01*
X126702438Y-65833333D02*
X126654819Y-65928571D01*
X150219580Y-61047333D02*
X150267200Y-60999714D01*
X150267200Y-60999714D02*
X150314819Y-60856857D01*
X150314819Y-60856857D02*
X150314819Y-60761619D01*
X150314819Y-60761619D02*
X150267200Y-60618762D01*
X150267200Y-60618762D02*
X150171961Y-60523524D01*
X150171961Y-60523524D02*
X150076723Y-60475905D01*
X150076723Y-60475905D02*
X149886247Y-60428286D01*
X149886247Y-60428286D02*
X149743390Y-60428286D01*
X149743390Y-60428286D02*
X149552914Y-60475905D01*
X149552914Y-60475905D02*
X149457676Y-60523524D01*
X149457676Y-60523524D02*
X149362438Y-60618762D01*
X149362438Y-60618762D02*
X149314819Y-60761619D01*
X149314819Y-60761619D02*
X149314819Y-60856857D01*
X149314819Y-60856857D02*
X149362438Y-60999714D01*
X149362438Y-60999714D02*
X149410057Y-61047333D01*
X149314819Y-61380667D02*
X149314819Y-61999714D01*
X149314819Y-61999714D02*
X149695771Y-61666381D01*
X149695771Y-61666381D02*
X149695771Y-61809238D01*
X149695771Y-61809238D02*
X149743390Y-61904476D01*
X149743390Y-61904476D02*
X149791009Y-61952095D01*
X149791009Y-61952095D02*
X149886247Y-61999714D01*
X149886247Y-61999714D02*
X150124342Y-61999714D01*
X150124342Y-61999714D02*
X150219580Y-61952095D01*
X150219580Y-61952095D02*
X150267200Y-61904476D01*
X150267200Y-61904476D02*
X150314819Y-61809238D01*
X150314819Y-61809238D02*
X150314819Y-61523524D01*
X150314819Y-61523524D02*
X150267200Y-61428286D01*
X150267200Y-61428286D02*
X150219580Y-61380667D01*
X138379580Y-60517833D02*
X138427200Y-60470214D01*
X138427200Y-60470214D02*
X138474819Y-60327357D01*
X138474819Y-60327357D02*
X138474819Y-60232119D01*
X138474819Y-60232119D02*
X138427200Y-60089262D01*
X138427200Y-60089262D02*
X138331961Y-59994024D01*
X138331961Y-59994024D02*
X138236723Y-59946405D01*
X138236723Y-59946405D02*
X138046247Y-59898786D01*
X138046247Y-59898786D02*
X137903390Y-59898786D01*
X137903390Y-59898786D02*
X137712914Y-59946405D01*
X137712914Y-59946405D02*
X137617676Y-59994024D01*
X137617676Y-59994024D02*
X137522438Y-60089262D01*
X137522438Y-60089262D02*
X137474819Y-60232119D01*
X137474819Y-60232119D02*
X137474819Y-60327357D01*
X137474819Y-60327357D02*
X137522438Y-60470214D01*
X137522438Y-60470214D02*
X137570057Y-60517833D01*
X137808152Y-61374976D02*
X138474819Y-61374976D01*
X137427200Y-61136881D02*
X138141485Y-60898786D01*
X138141485Y-60898786D02*
X138141485Y-61517833D01*
X120529751Y-63974243D02*
X120577370Y-64021863D01*
X120577370Y-64021863D02*
X120720227Y-64069482D01*
X120720227Y-64069482D02*
X120815465Y-64069482D01*
X120815465Y-64069482D02*
X120958322Y-64021863D01*
X120958322Y-64021863D02*
X121053560Y-63926624D01*
X121053560Y-63926624D02*
X121101179Y-63831386D01*
X121101179Y-63831386D02*
X121148798Y-63640910D01*
X121148798Y-63640910D02*
X121148798Y-63498053D01*
X121148798Y-63498053D02*
X121101179Y-63307577D01*
X121101179Y-63307577D02*
X121053560Y-63212339D01*
X121053560Y-63212339D02*
X120958322Y-63117101D01*
X120958322Y-63117101D02*
X120815465Y-63069482D01*
X120815465Y-63069482D02*
X120720227Y-63069482D01*
X120720227Y-63069482D02*
X120577370Y-63117101D01*
X120577370Y-63117101D02*
X120529751Y-63164720D01*
X120196417Y-63069482D02*
X119577370Y-63069482D01*
X119577370Y-63069482D02*
X119910703Y-63450434D01*
X119910703Y-63450434D02*
X119767846Y-63450434D01*
X119767846Y-63450434D02*
X119672608Y-63498053D01*
X119672608Y-63498053D02*
X119624989Y-63545672D01*
X119624989Y-63545672D02*
X119577370Y-63640910D01*
X119577370Y-63640910D02*
X119577370Y-63879005D01*
X119577370Y-63879005D02*
X119624989Y-63974243D01*
X119624989Y-63974243D02*
X119672608Y-64021863D01*
X119672608Y-64021863D02*
X119767846Y-64069482D01*
X119767846Y-64069482D02*
X120053560Y-64069482D01*
X120053560Y-64069482D02*
X120148798Y-64021863D01*
X120148798Y-64021863D02*
X120196417Y-63974243D01*
X118958322Y-63069482D02*
X118863084Y-63069482D01*
X118863084Y-63069482D02*
X118767846Y-63117101D01*
X118767846Y-63117101D02*
X118720227Y-63164720D01*
X118720227Y-63164720D02*
X118672608Y-63259958D01*
X118672608Y-63259958D02*
X118624989Y-63450434D01*
X118624989Y-63450434D02*
X118624989Y-63688529D01*
X118624989Y-63688529D02*
X118672608Y-63879005D01*
X118672608Y-63879005D02*
X118720227Y-63974243D01*
X118720227Y-63974243D02*
X118767846Y-64021863D01*
X118767846Y-64021863D02*
X118863084Y-64069482D01*
X118863084Y-64069482D02*
X118958322Y-64069482D01*
X118958322Y-64069482D02*
X119053560Y-64021863D01*
X119053560Y-64021863D02*
X119101179Y-63974243D01*
X119101179Y-63974243D02*
X119148798Y-63879005D01*
X119148798Y-63879005D02*
X119196417Y-63688529D01*
X119196417Y-63688529D02*
X119196417Y-63450434D01*
X119196417Y-63450434D02*
X119148798Y-63259958D01*
X119148798Y-63259958D02*
X119101179Y-63164720D01*
X119101179Y-63164720D02*
X119053560Y-63117101D01*
X119053560Y-63117101D02*
X118958322Y-63069482D01*
X146780190Y-64240628D02*
X146780190Y-64716819D01*
X147113523Y-63716819D02*
X146780190Y-64240628D01*
X146780190Y-64240628D02*
X146446857Y-63716819D01*
X145589714Y-64716819D02*
X146161142Y-64716819D01*
X145875428Y-64716819D02*
X145875428Y-63716819D01*
X145875428Y-63716819D02*
X145970666Y-63859676D01*
X145970666Y-63859676D02*
X146065904Y-63954914D01*
X146065904Y-63954914D02*
X146161142Y-64002533D01*
X132185580Y-94353142D02*
X132233200Y-94305523D01*
X132233200Y-94305523D02*
X132280819Y-94162666D01*
X132280819Y-94162666D02*
X132280819Y-94067428D01*
X132280819Y-94067428D02*
X132233200Y-93924571D01*
X132233200Y-93924571D02*
X132137961Y-93829333D01*
X132137961Y-93829333D02*
X132042723Y-93781714D01*
X132042723Y-93781714D02*
X131852247Y-93734095D01*
X131852247Y-93734095D02*
X131709390Y-93734095D01*
X131709390Y-93734095D02*
X131518914Y-93781714D01*
X131518914Y-93781714D02*
X131423676Y-93829333D01*
X131423676Y-93829333D02*
X131328438Y-93924571D01*
X131328438Y-93924571D02*
X131280819Y-94067428D01*
X131280819Y-94067428D02*
X131280819Y-94162666D01*
X131280819Y-94162666D02*
X131328438Y-94305523D01*
X131328438Y-94305523D02*
X131376057Y-94353142D01*
X131376057Y-94734095D02*
X131328438Y-94781714D01*
X131328438Y-94781714D02*
X131280819Y-94876952D01*
X131280819Y-94876952D02*
X131280819Y-95115047D01*
X131280819Y-95115047D02*
X131328438Y-95210285D01*
X131328438Y-95210285D02*
X131376057Y-95257904D01*
X131376057Y-95257904D02*
X131471295Y-95305523D01*
X131471295Y-95305523D02*
X131566533Y-95305523D01*
X131566533Y-95305523D02*
X131709390Y-95257904D01*
X131709390Y-95257904D02*
X132280819Y-94686476D01*
X132280819Y-94686476D02*
X132280819Y-95305523D01*
X131376057Y-95686476D02*
X131328438Y-95734095D01*
X131328438Y-95734095D02*
X131280819Y-95829333D01*
X131280819Y-95829333D02*
X131280819Y-96067428D01*
X131280819Y-96067428D02*
X131328438Y-96162666D01*
X131328438Y-96162666D02*
X131376057Y-96210285D01*
X131376057Y-96210285D02*
X131471295Y-96257904D01*
X131471295Y-96257904D02*
X131566533Y-96257904D01*
X131566533Y-96257904D02*
X131709390Y-96210285D01*
X131709390Y-96210285D02*
X132280819Y-95638857D01*
X132280819Y-95638857D02*
X132280819Y-96257904D01*
X126626857Y-77559580D02*
X126674476Y-77607200D01*
X126674476Y-77607200D02*
X126817333Y-77654819D01*
X126817333Y-77654819D02*
X126912571Y-77654819D01*
X126912571Y-77654819D02*
X127055428Y-77607200D01*
X127055428Y-77607200D02*
X127150666Y-77511961D01*
X127150666Y-77511961D02*
X127198285Y-77416723D01*
X127198285Y-77416723D02*
X127245904Y-77226247D01*
X127245904Y-77226247D02*
X127245904Y-77083390D01*
X127245904Y-77083390D02*
X127198285Y-76892914D01*
X127198285Y-76892914D02*
X127150666Y-76797676D01*
X127150666Y-76797676D02*
X127055428Y-76702438D01*
X127055428Y-76702438D02*
X126912571Y-76654819D01*
X126912571Y-76654819D02*
X126817333Y-76654819D01*
X126817333Y-76654819D02*
X126674476Y-76702438D01*
X126674476Y-76702438D02*
X126626857Y-76750057D01*
X126293523Y-76654819D02*
X125674476Y-76654819D01*
X125674476Y-76654819D02*
X126007809Y-77035771D01*
X126007809Y-77035771D02*
X125864952Y-77035771D01*
X125864952Y-77035771D02*
X125769714Y-77083390D01*
X125769714Y-77083390D02*
X125722095Y-77131009D01*
X125722095Y-77131009D02*
X125674476Y-77226247D01*
X125674476Y-77226247D02*
X125674476Y-77464342D01*
X125674476Y-77464342D02*
X125722095Y-77559580D01*
X125722095Y-77559580D02*
X125769714Y-77607200D01*
X125769714Y-77607200D02*
X125864952Y-77654819D01*
X125864952Y-77654819D02*
X126150666Y-77654819D01*
X126150666Y-77654819D02*
X126245904Y-77607200D01*
X126245904Y-77607200D02*
X126293523Y-77559580D01*
X124817333Y-76654819D02*
X125007809Y-76654819D01*
X125007809Y-76654819D02*
X125103047Y-76702438D01*
X125103047Y-76702438D02*
X125150666Y-76750057D01*
X125150666Y-76750057D02*
X125245904Y-76892914D01*
X125245904Y-76892914D02*
X125293523Y-77083390D01*
X125293523Y-77083390D02*
X125293523Y-77464342D01*
X125293523Y-77464342D02*
X125245904Y-77559580D01*
X125245904Y-77559580D02*
X125198285Y-77607200D01*
X125198285Y-77607200D02*
X125103047Y-77654819D01*
X125103047Y-77654819D02*
X124912571Y-77654819D01*
X124912571Y-77654819D02*
X124817333Y-77607200D01*
X124817333Y-77607200D02*
X124769714Y-77559580D01*
X124769714Y-77559580D02*
X124722095Y-77464342D01*
X124722095Y-77464342D02*
X124722095Y-77226247D01*
X124722095Y-77226247D02*
X124769714Y-77131009D01*
X124769714Y-77131009D02*
X124817333Y-77083390D01*
X124817333Y-77083390D02*
X124912571Y-77035771D01*
X124912571Y-77035771D02*
X125103047Y-77035771D01*
X125103047Y-77035771D02*
X125198285Y-77083390D01*
X125198285Y-77083390D02*
X125245904Y-77131009D01*
X125245904Y-77131009D02*
X125293523Y-77226247D01*
X128978819Y-61587142D02*
X128502628Y-61253809D01*
X128978819Y-61015714D02*
X127978819Y-61015714D01*
X127978819Y-61015714D02*
X127978819Y-61396666D01*
X127978819Y-61396666D02*
X128026438Y-61491904D01*
X128026438Y-61491904D02*
X128074057Y-61539523D01*
X128074057Y-61539523D02*
X128169295Y-61587142D01*
X128169295Y-61587142D02*
X128312152Y-61587142D01*
X128312152Y-61587142D02*
X128407390Y-61539523D01*
X128407390Y-61539523D02*
X128455009Y-61491904D01*
X128455009Y-61491904D02*
X128502628Y-61396666D01*
X128502628Y-61396666D02*
X128502628Y-61015714D01*
X127978819Y-62491904D02*
X127978819Y-62015714D01*
X127978819Y-62015714D02*
X128455009Y-61968095D01*
X128455009Y-61968095D02*
X128407390Y-62015714D01*
X128407390Y-62015714D02*
X128359771Y-62110952D01*
X128359771Y-62110952D02*
X128359771Y-62349047D01*
X128359771Y-62349047D02*
X128407390Y-62444285D01*
X128407390Y-62444285D02*
X128455009Y-62491904D01*
X128455009Y-62491904D02*
X128550247Y-62539523D01*
X128550247Y-62539523D02*
X128788342Y-62539523D01*
X128788342Y-62539523D02*
X128883580Y-62491904D01*
X128883580Y-62491904D02*
X128931200Y-62444285D01*
X128931200Y-62444285D02*
X128978819Y-62349047D01*
X128978819Y-62349047D02*
X128978819Y-62110952D01*
X128978819Y-62110952D02*
X128931200Y-62015714D01*
X128931200Y-62015714D02*
X128883580Y-61968095D01*
X128978819Y-63015714D02*
X128978819Y-63206190D01*
X128978819Y-63206190D02*
X128931200Y-63301428D01*
X128931200Y-63301428D02*
X128883580Y-63349047D01*
X128883580Y-63349047D02*
X128740723Y-63444285D01*
X128740723Y-63444285D02*
X128550247Y-63491904D01*
X128550247Y-63491904D02*
X128169295Y-63491904D01*
X128169295Y-63491904D02*
X128074057Y-63444285D01*
X128074057Y-63444285D02*
X128026438Y-63396666D01*
X128026438Y-63396666D02*
X127978819Y-63301428D01*
X127978819Y-63301428D02*
X127978819Y-63110952D01*
X127978819Y-63110952D02*
X128026438Y-63015714D01*
X128026438Y-63015714D02*
X128074057Y-62968095D01*
X128074057Y-62968095D02*
X128169295Y-62920476D01*
X128169295Y-62920476D02*
X128407390Y-62920476D01*
X128407390Y-62920476D02*
X128502628Y-62968095D01*
X128502628Y-62968095D02*
X128550247Y-63015714D01*
X128550247Y-63015714D02*
X128597866Y-63110952D01*
X128597866Y-63110952D02*
X128597866Y-63301428D01*
X128597866Y-63301428D02*
X128550247Y-63396666D01*
X128550247Y-63396666D02*
X128502628Y-63444285D01*
X128502628Y-63444285D02*
X128407390Y-63491904D01*
X156630666Y-92307580D02*
X156678285Y-92355200D01*
X156678285Y-92355200D02*
X156821142Y-92402819D01*
X156821142Y-92402819D02*
X156916380Y-92402819D01*
X156916380Y-92402819D02*
X157059237Y-92355200D01*
X157059237Y-92355200D02*
X157154475Y-92259961D01*
X157154475Y-92259961D02*
X157202094Y-92164723D01*
X157202094Y-92164723D02*
X157249713Y-91974247D01*
X157249713Y-91974247D02*
X157249713Y-91831390D01*
X157249713Y-91831390D02*
X157202094Y-91640914D01*
X157202094Y-91640914D02*
X157154475Y-91545676D01*
X157154475Y-91545676D02*
X157059237Y-91450438D01*
X157059237Y-91450438D02*
X156916380Y-91402819D01*
X156916380Y-91402819D02*
X156821142Y-91402819D01*
X156821142Y-91402819D02*
X156678285Y-91450438D01*
X156678285Y-91450438D02*
X156630666Y-91498057D01*
X156154475Y-92402819D02*
X155963999Y-92402819D01*
X155963999Y-92402819D02*
X155868761Y-92355200D01*
X155868761Y-92355200D02*
X155821142Y-92307580D01*
X155821142Y-92307580D02*
X155725904Y-92164723D01*
X155725904Y-92164723D02*
X155678285Y-91974247D01*
X155678285Y-91974247D02*
X155678285Y-91593295D01*
X155678285Y-91593295D02*
X155725904Y-91498057D01*
X155725904Y-91498057D02*
X155773523Y-91450438D01*
X155773523Y-91450438D02*
X155868761Y-91402819D01*
X155868761Y-91402819D02*
X156059237Y-91402819D01*
X156059237Y-91402819D02*
X156154475Y-91450438D01*
X156154475Y-91450438D02*
X156202094Y-91498057D01*
X156202094Y-91498057D02*
X156249713Y-91593295D01*
X156249713Y-91593295D02*
X156249713Y-91831390D01*
X156249713Y-91831390D02*
X156202094Y-91926628D01*
X156202094Y-91926628D02*
X156154475Y-91974247D01*
X156154475Y-91974247D02*
X156059237Y-92021866D01*
X156059237Y-92021866D02*
X155868761Y-92021866D01*
X155868761Y-92021866D02*
X155773523Y-91974247D01*
X155773523Y-91974247D02*
X155725904Y-91926628D01*
X155725904Y-91926628D02*
X155678285Y-91831390D01*
X111640857Y-72082819D02*
X111974190Y-71606628D01*
X112212285Y-72082819D02*
X112212285Y-71082819D01*
X112212285Y-71082819D02*
X111831333Y-71082819D01*
X111831333Y-71082819D02*
X111736095Y-71130438D01*
X111736095Y-71130438D02*
X111688476Y-71178057D01*
X111688476Y-71178057D02*
X111640857Y-71273295D01*
X111640857Y-71273295D02*
X111640857Y-71416152D01*
X111640857Y-71416152D02*
X111688476Y-71511390D01*
X111688476Y-71511390D02*
X111736095Y-71559009D01*
X111736095Y-71559009D02*
X111831333Y-71606628D01*
X111831333Y-71606628D02*
X112212285Y-71606628D01*
X110736095Y-71082819D02*
X111212285Y-71082819D01*
X111212285Y-71082819D02*
X111259904Y-71559009D01*
X111259904Y-71559009D02*
X111212285Y-71511390D01*
X111212285Y-71511390D02*
X111117047Y-71463771D01*
X111117047Y-71463771D02*
X110878952Y-71463771D01*
X110878952Y-71463771D02*
X110783714Y-71511390D01*
X110783714Y-71511390D02*
X110736095Y-71559009D01*
X110736095Y-71559009D02*
X110688476Y-71654247D01*
X110688476Y-71654247D02*
X110688476Y-71892342D01*
X110688476Y-71892342D02*
X110736095Y-71987580D01*
X110736095Y-71987580D02*
X110783714Y-72035200D01*
X110783714Y-72035200D02*
X110878952Y-72082819D01*
X110878952Y-72082819D02*
X111117047Y-72082819D01*
X111117047Y-72082819D02*
X111212285Y-72035200D01*
X111212285Y-72035200D02*
X111259904Y-71987580D01*
X109831333Y-71416152D02*
X109831333Y-72082819D01*
X110069428Y-71035200D02*
X110307523Y-71749485D01*
X110307523Y-71749485D02*
X109688476Y-71749485D01*
X176101333Y-47235819D02*
X176101333Y-47950104D01*
X176101333Y-47950104D02*
X176148952Y-48092961D01*
X176148952Y-48092961D02*
X176244190Y-48188200D01*
X176244190Y-48188200D02*
X176387047Y-48235819D01*
X176387047Y-48235819D02*
X176482285Y-48235819D01*
X175720380Y-47235819D02*
X175053714Y-47235819D01*
X175053714Y-47235819D02*
X175482285Y-48235819D01*
X129391580Y-95115142D02*
X129439200Y-95067523D01*
X129439200Y-95067523D02*
X129486819Y-94924666D01*
X129486819Y-94924666D02*
X129486819Y-94829428D01*
X129486819Y-94829428D02*
X129439200Y-94686571D01*
X129439200Y-94686571D02*
X129343961Y-94591333D01*
X129343961Y-94591333D02*
X129248723Y-94543714D01*
X129248723Y-94543714D02*
X129058247Y-94496095D01*
X129058247Y-94496095D02*
X128915390Y-94496095D01*
X128915390Y-94496095D02*
X128724914Y-94543714D01*
X128724914Y-94543714D02*
X128629676Y-94591333D01*
X128629676Y-94591333D02*
X128534438Y-94686571D01*
X128534438Y-94686571D02*
X128486819Y-94829428D01*
X128486819Y-94829428D02*
X128486819Y-94924666D01*
X128486819Y-94924666D02*
X128534438Y-95067523D01*
X128534438Y-95067523D02*
X128582057Y-95115142D01*
X128582057Y-95496095D02*
X128534438Y-95543714D01*
X128534438Y-95543714D02*
X128486819Y-95638952D01*
X128486819Y-95638952D02*
X128486819Y-95877047D01*
X128486819Y-95877047D02*
X128534438Y-95972285D01*
X128534438Y-95972285D02*
X128582057Y-96019904D01*
X128582057Y-96019904D02*
X128677295Y-96067523D01*
X128677295Y-96067523D02*
X128772533Y-96067523D01*
X128772533Y-96067523D02*
X128915390Y-96019904D01*
X128915390Y-96019904D02*
X129486819Y-95448476D01*
X129486819Y-95448476D02*
X129486819Y-96067523D01*
X129486819Y-97019904D02*
X129486819Y-96448476D01*
X129486819Y-96734190D02*
X128486819Y-96734190D01*
X128486819Y-96734190D02*
X128629676Y-96638952D01*
X128629676Y-96638952D02*
X128724914Y-96543714D01*
X128724914Y-96543714D02*
X128772533Y-96448476D01*
X115450857Y-71066819D02*
X115784190Y-70590628D01*
X116022285Y-71066819D02*
X116022285Y-70066819D01*
X116022285Y-70066819D02*
X115641333Y-70066819D01*
X115641333Y-70066819D02*
X115546095Y-70114438D01*
X115546095Y-70114438D02*
X115498476Y-70162057D01*
X115498476Y-70162057D02*
X115450857Y-70257295D01*
X115450857Y-70257295D02*
X115450857Y-70400152D01*
X115450857Y-70400152D02*
X115498476Y-70495390D01*
X115498476Y-70495390D02*
X115546095Y-70543009D01*
X115546095Y-70543009D02*
X115641333Y-70590628D01*
X115641333Y-70590628D02*
X116022285Y-70590628D01*
X114546095Y-70066819D02*
X115022285Y-70066819D01*
X115022285Y-70066819D02*
X115069904Y-70543009D01*
X115069904Y-70543009D02*
X115022285Y-70495390D01*
X115022285Y-70495390D02*
X114927047Y-70447771D01*
X114927047Y-70447771D02*
X114688952Y-70447771D01*
X114688952Y-70447771D02*
X114593714Y-70495390D01*
X114593714Y-70495390D02*
X114546095Y-70543009D01*
X114546095Y-70543009D02*
X114498476Y-70638247D01*
X114498476Y-70638247D02*
X114498476Y-70876342D01*
X114498476Y-70876342D02*
X114546095Y-70971580D01*
X114546095Y-70971580D02*
X114593714Y-71019200D01*
X114593714Y-71019200D02*
X114688952Y-71066819D01*
X114688952Y-71066819D02*
X114927047Y-71066819D01*
X114927047Y-71066819D02*
X115022285Y-71019200D01*
X115022285Y-71019200D02*
X115069904Y-70971580D01*
X114117523Y-70162057D02*
X114069904Y-70114438D01*
X114069904Y-70114438D02*
X113974666Y-70066819D01*
X113974666Y-70066819D02*
X113736571Y-70066819D01*
X113736571Y-70066819D02*
X113641333Y-70114438D01*
X113641333Y-70114438D02*
X113593714Y-70162057D01*
X113593714Y-70162057D02*
X113546095Y-70257295D01*
X113546095Y-70257295D02*
X113546095Y-70352533D01*
X113546095Y-70352533D02*
X113593714Y-70495390D01*
X113593714Y-70495390D02*
X114165142Y-71066819D01*
X114165142Y-71066819D02*
X113546095Y-71066819D01*
X119999524Y-91618264D02*
X118999524Y-91618264D01*
X118999524Y-91618264D02*
X118999524Y-91856359D01*
X118999524Y-91856359D02*
X119047143Y-91999216D01*
X119047143Y-91999216D02*
X119142381Y-92094454D01*
X119142381Y-92094454D02*
X119237619Y-92142073D01*
X119237619Y-92142073D02*
X119428095Y-92189692D01*
X119428095Y-92189692D02*
X119570952Y-92189692D01*
X119570952Y-92189692D02*
X119761428Y-92142073D01*
X119761428Y-92142073D02*
X119856666Y-92094454D01*
X119856666Y-92094454D02*
X119951905Y-91999216D01*
X119951905Y-91999216D02*
X119999524Y-91856359D01*
X119999524Y-91856359D02*
X119999524Y-91618264D01*
X119999524Y-93142073D02*
X119999524Y-92570645D01*
X119999524Y-92856359D02*
X118999524Y-92856359D01*
X118999524Y-92856359D02*
X119142381Y-92761121D01*
X119142381Y-92761121D02*
X119237619Y-92665883D01*
X119237619Y-92665883D02*
X119285238Y-92570645D01*
X118999524Y-93475407D02*
X118999524Y-94142073D01*
X118999524Y-94142073D02*
X119999524Y-93713502D01*
X120395904Y-61176819D02*
X120395904Y-61986342D01*
X120395904Y-61986342D02*
X120348285Y-62081580D01*
X120348285Y-62081580D02*
X120300666Y-62129200D01*
X120300666Y-62129200D02*
X120205428Y-62176819D01*
X120205428Y-62176819D02*
X120014952Y-62176819D01*
X120014952Y-62176819D02*
X119919714Y-62129200D01*
X119919714Y-62129200D02*
X119872095Y-62081580D01*
X119872095Y-62081580D02*
X119824476Y-61986342D01*
X119824476Y-61986342D02*
X119824476Y-61176819D01*
X119300666Y-62176819D02*
X119110190Y-62176819D01*
X119110190Y-62176819D02*
X119014952Y-62129200D01*
X119014952Y-62129200D02*
X118967333Y-62081580D01*
X118967333Y-62081580D02*
X118872095Y-61938723D01*
X118872095Y-61938723D02*
X118824476Y-61748247D01*
X118824476Y-61748247D02*
X118824476Y-61367295D01*
X118824476Y-61367295D02*
X118872095Y-61272057D01*
X118872095Y-61272057D02*
X118919714Y-61224438D01*
X118919714Y-61224438D02*
X119014952Y-61176819D01*
X119014952Y-61176819D02*
X119205428Y-61176819D01*
X119205428Y-61176819D02*
X119300666Y-61224438D01*
X119300666Y-61224438D02*
X119348285Y-61272057D01*
X119348285Y-61272057D02*
X119395904Y-61367295D01*
X119395904Y-61367295D02*
X119395904Y-61605390D01*
X119395904Y-61605390D02*
X119348285Y-61700628D01*
X119348285Y-61700628D02*
X119300666Y-61748247D01*
X119300666Y-61748247D02*
X119205428Y-61795866D01*
X119205428Y-61795866D02*
X119014952Y-61795866D01*
X119014952Y-61795866D02*
X118919714Y-61748247D01*
X118919714Y-61748247D02*
X118872095Y-61700628D01*
X118872095Y-61700628D02*
X118824476Y-61605390D01*
X168240779Y-88099219D02*
X168288399Y-88051600D01*
X168288399Y-88051600D02*
X168336018Y-87908743D01*
X168336018Y-87908743D02*
X168336018Y-87813505D01*
X168336018Y-87813505D02*
X168288399Y-87670648D01*
X168288399Y-87670648D02*
X168193160Y-87575410D01*
X168193160Y-87575410D02*
X168097922Y-87527791D01*
X168097922Y-87527791D02*
X167907446Y-87480172D01*
X167907446Y-87480172D02*
X167764589Y-87480172D01*
X167764589Y-87480172D02*
X167574113Y-87527791D01*
X167574113Y-87527791D02*
X167478875Y-87575410D01*
X167478875Y-87575410D02*
X167383637Y-87670648D01*
X167383637Y-87670648D02*
X167336018Y-87813505D01*
X167336018Y-87813505D02*
X167336018Y-87908743D01*
X167336018Y-87908743D02*
X167383637Y-88051600D01*
X167383637Y-88051600D02*
X167431256Y-88099219D01*
X168336018Y-89051600D02*
X168336018Y-88480172D01*
X168336018Y-88765886D02*
X167336018Y-88765886D01*
X167336018Y-88765886D02*
X167478875Y-88670648D01*
X167478875Y-88670648D02*
X167574113Y-88575410D01*
X167574113Y-88575410D02*
X167621732Y-88480172D01*
X168336018Y-90003981D02*
X168336018Y-89432553D01*
X168336018Y-89718267D02*
X167336018Y-89718267D01*
X167336018Y-89718267D02*
X167478875Y-89623029D01*
X167478875Y-89623029D02*
X167574113Y-89527791D01*
X167574113Y-89527791D02*
X167621732Y-89432553D01*
X135744295Y-77209714D02*
X135363342Y-76943047D01*
X135744295Y-76752571D02*
X134944295Y-76752571D01*
X134944295Y-76752571D02*
X134944295Y-77057333D01*
X134944295Y-77057333D02*
X134982390Y-77133523D01*
X134982390Y-77133523D02*
X135020485Y-77171618D01*
X135020485Y-77171618D02*
X135096676Y-77209714D01*
X135096676Y-77209714D02*
X135210961Y-77209714D01*
X135210961Y-77209714D02*
X135287152Y-77171618D01*
X135287152Y-77171618D02*
X135325247Y-77133523D01*
X135325247Y-77133523D02*
X135363342Y-77057333D01*
X135363342Y-77057333D02*
X135363342Y-76752571D01*
X135210961Y-77895428D02*
X135744295Y-77895428D01*
X134906200Y-77704952D02*
X135477628Y-77514475D01*
X135477628Y-77514475D02*
X135477628Y-78009714D01*
X135744295Y-78352571D02*
X135744295Y-78504952D01*
X135744295Y-78504952D02*
X135706200Y-78581142D01*
X135706200Y-78581142D02*
X135668104Y-78619238D01*
X135668104Y-78619238D02*
X135553819Y-78695428D01*
X135553819Y-78695428D02*
X135401438Y-78733523D01*
X135401438Y-78733523D02*
X135096676Y-78733523D01*
X135096676Y-78733523D02*
X135020485Y-78695428D01*
X135020485Y-78695428D02*
X134982390Y-78657333D01*
X134982390Y-78657333D02*
X134944295Y-78581142D01*
X134944295Y-78581142D02*
X134944295Y-78428761D01*
X134944295Y-78428761D02*
X134982390Y-78352571D01*
X134982390Y-78352571D02*
X135020485Y-78314476D01*
X135020485Y-78314476D02*
X135096676Y-78276380D01*
X135096676Y-78276380D02*
X135287152Y-78276380D01*
X135287152Y-78276380D02*
X135363342Y-78314476D01*
X135363342Y-78314476D02*
X135401438Y-78352571D01*
X135401438Y-78352571D02*
X135439533Y-78428761D01*
X135439533Y-78428761D02*
X135439533Y-78581142D01*
X135439533Y-78581142D02*
X135401438Y-78657333D01*
X135401438Y-78657333D02*
X135363342Y-78695428D01*
X135363342Y-78695428D02*
X135287152Y-78733523D01*
X134054461Y-83528663D02*
X134321128Y-83147710D01*
X134511604Y-83528663D02*
X134511604Y-82728663D01*
X134511604Y-82728663D02*
X134206842Y-82728663D01*
X134206842Y-82728663D02*
X134130652Y-82766758D01*
X134130652Y-82766758D02*
X134092557Y-82804853D01*
X134092557Y-82804853D02*
X134054461Y-82881044D01*
X134054461Y-82881044D02*
X134054461Y-82995329D01*
X134054461Y-82995329D02*
X134092557Y-83071520D01*
X134092557Y-83071520D02*
X134130652Y-83109615D01*
X134130652Y-83109615D02*
X134206842Y-83147710D01*
X134206842Y-83147710D02*
X134511604Y-83147710D01*
X133330652Y-82728663D02*
X133711604Y-82728663D01*
X133711604Y-82728663D02*
X133749700Y-83109615D01*
X133749700Y-83109615D02*
X133711604Y-83071520D01*
X133711604Y-83071520D02*
X133635414Y-83033425D01*
X133635414Y-83033425D02*
X133444938Y-83033425D01*
X133444938Y-83033425D02*
X133368747Y-83071520D01*
X133368747Y-83071520D02*
X133330652Y-83109615D01*
X133330652Y-83109615D02*
X133292557Y-83185806D01*
X133292557Y-83185806D02*
X133292557Y-83376282D01*
X133292557Y-83376282D02*
X133330652Y-83452472D01*
X133330652Y-83452472D02*
X133368747Y-83490568D01*
X133368747Y-83490568D02*
X133444938Y-83528663D01*
X133444938Y-83528663D02*
X133635414Y-83528663D01*
X133635414Y-83528663D02*
X133711604Y-83490568D01*
X133711604Y-83490568D02*
X133749700Y-83452472D01*
X132797318Y-82728663D02*
X132721128Y-82728663D01*
X132721128Y-82728663D02*
X132644937Y-82766758D01*
X132644937Y-82766758D02*
X132606842Y-82804853D01*
X132606842Y-82804853D02*
X132568747Y-82881044D01*
X132568747Y-82881044D02*
X132530652Y-83033425D01*
X132530652Y-83033425D02*
X132530652Y-83223901D01*
X132530652Y-83223901D02*
X132568747Y-83376282D01*
X132568747Y-83376282D02*
X132606842Y-83452472D01*
X132606842Y-83452472D02*
X132644937Y-83490568D01*
X132644937Y-83490568D02*
X132721128Y-83528663D01*
X132721128Y-83528663D02*
X132797318Y-83528663D01*
X132797318Y-83528663D02*
X132873509Y-83490568D01*
X132873509Y-83490568D02*
X132911604Y-83452472D01*
X132911604Y-83452472D02*
X132949699Y-83376282D01*
X132949699Y-83376282D02*
X132987795Y-83223901D01*
X132987795Y-83223901D02*
X132987795Y-83033425D01*
X132987795Y-83033425D02*
X132949699Y-82881044D01*
X132949699Y-82881044D02*
X132911604Y-82804853D01*
X132911604Y-82804853D02*
X132873509Y-82766758D01*
X132873509Y-82766758D02*
X132797318Y-82728663D01*
X139297580Y-68445142D02*
X139345200Y-68397523D01*
X139345200Y-68397523D02*
X139392819Y-68254666D01*
X139392819Y-68254666D02*
X139392819Y-68159428D01*
X139392819Y-68159428D02*
X139345200Y-68016571D01*
X139345200Y-68016571D02*
X139249961Y-67921333D01*
X139249961Y-67921333D02*
X139154723Y-67873714D01*
X139154723Y-67873714D02*
X138964247Y-67826095D01*
X138964247Y-67826095D02*
X138821390Y-67826095D01*
X138821390Y-67826095D02*
X138630914Y-67873714D01*
X138630914Y-67873714D02*
X138535676Y-67921333D01*
X138535676Y-67921333D02*
X138440438Y-68016571D01*
X138440438Y-68016571D02*
X138392819Y-68159428D01*
X138392819Y-68159428D02*
X138392819Y-68254666D01*
X138392819Y-68254666D02*
X138440438Y-68397523D01*
X138440438Y-68397523D02*
X138488057Y-68445142D01*
X138392819Y-68778476D02*
X138392819Y-69397523D01*
X138392819Y-69397523D02*
X138773771Y-69064190D01*
X138773771Y-69064190D02*
X138773771Y-69207047D01*
X138773771Y-69207047D02*
X138821390Y-69302285D01*
X138821390Y-69302285D02*
X138869009Y-69349904D01*
X138869009Y-69349904D02*
X138964247Y-69397523D01*
X138964247Y-69397523D02*
X139202342Y-69397523D01*
X139202342Y-69397523D02*
X139297580Y-69349904D01*
X139297580Y-69349904D02*
X139345200Y-69302285D01*
X139345200Y-69302285D02*
X139392819Y-69207047D01*
X139392819Y-69207047D02*
X139392819Y-68921333D01*
X139392819Y-68921333D02*
X139345200Y-68826095D01*
X139345200Y-68826095D02*
X139297580Y-68778476D01*
X138821390Y-69968952D02*
X138773771Y-69873714D01*
X138773771Y-69873714D02*
X138726152Y-69826095D01*
X138726152Y-69826095D02*
X138630914Y-69778476D01*
X138630914Y-69778476D02*
X138583295Y-69778476D01*
X138583295Y-69778476D02*
X138488057Y-69826095D01*
X138488057Y-69826095D02*
X138440438Y-69873714D01*
X138440438Y-69873714D02*
X138392819Y-69968952D01*
X138392819Y-69968952D02*
X138392819Y-70159428D01*
X138392819Y-70159428D02*
X138440438Y-70254666D01*
X138440438Y-70254666D02*
X138488057Y-70302285D01*
X138488057Y-70302285D02*
X138583295Y-70349904D01*
X138583295Y-70349904D02*
X138630914Y-70349904D01*
X138630914Y-70349904D02*
X138726152Y-70302285D01*
X138726152Y-70302285D02*
X138773771Y-70254666D01*
X138773771Y-70254666D02*
X138821390Y-70159428D01*
X138821390Y-70159428D02*
X138821390Y-69968952D01*
X138821390Y-69968952D02*
X138869009Y-69873714D01*
X138869009Y-69873714D02*
X138916628Y-69826095D01*
X138916628Y-69826095D02*
X139011866Y-69778476D01*
X139011866Y-69778476D02*
X139202342Y-69778476D01*
X139202342Y-69778476D02*
X139297580Y-69826095D01*
X139297580Y-69826095D02*
X139345200Y-69873714D01*
X139345200Y-69873714D02*
X139392819Y-69968952D01*
X139392819Y-69968952D02*
X139392819Y-70159428D01*
X139392819Y-70159428D02*
X139345200Y-70254666D01*
X139345200Y-70254666D02*
X139297580Y-70302285D01*
X139297580Y-70302285D02*
X139202342Y-70349904D01*
X139202342Y-70349904D02*
X139011866Y-70349904D01*
X139011866Y-70349904D02*
X138916628Y-70302285D01*
X138916628Y-70302285D02*
X138869009Y-70254666D01*
X138869009Y-70254666D02*
X138821390Y-70159428D01*
D12*
%TO.C,C40*%
X126490000Y-68980267D02*
X126490000Y-68687733D01*
X127510000Y-68980267D02*
X127510000Y-68687733D01*
%TO.C,FB1*%
X148284000Y-74022378D02*
X148284000Y-74821622D01*
X149404000Y-74022378D02*
X149404000Y-74821622D01*
%TO.C,JP3*%
X153286265Y-83823346D02*
X153286265Y-85223346D01*
X153986265Y-85923346D02*
X154586265Y-85923346D01*
X154586265Y-83123346D02*
X153986265Y-83123346D01*
X155286265Y-85223346D02*
X155286265Y-83823346D01*
X153286265Y-83823346D02*
G75*
G02*
X153986265Y-83123346I699999J1D01*
G01*
X153986265Y-85923346D02*
G75*
G02*
X153286265Y-85223346I0J700000D01*
G01*
X154586265Y-83123346D02*
G75*
G02*
X155286265Y-83823346I1J-699999D01*
G01*
X155286265Y-85223346D02*
G75*
G02*
X154586265Y-85923346I-700000J0D01*
G01*
%TO.C,R79*%
X181341500Y-41401276D02*
X181341500Y-41910724D01*
X182386500Y-41401276D02*
X182386500Y-41910724D01*
%TO.C,R20*%
X143179365Y-89294641D02*
X143179365Y-84940513D01*
X146599365Y-89294641D02*
X146599365Y-84940513D01*
D10*
%TO.C,U2*%
X159858000Y-84966000D02*
X159858000Y-89116000D01*
X165008000Y-84966000D02*
X165008000Y-89116000D01*
D12*
X159958000Y-84366000D02*
X159628000Y-84606000D01*
X159628000Y-84126000D01*
X159958000Y-84366000D01*
G36*
X159958000Y-84366000D02*
G01*
X159628000Y-84606000D01*
X159628000Y-84126000D01*
X159958000Y-84366000D01*
G37*
%TO.C,R63*%
X124699500Y-69088724D02*
X124699500Y-68579276D01*
X125744500Y-69088724D02*
X125744500Y-68579276D01*
%TO.C,C25*%
X137920000Y-91701233D02*
X137920000Y-91993767D01*
X138940000Y-91701233D02*
X138940000Y-91993767D01*
%TO.C,R51*%
X119126724Y-58913500D02*
X118617276Y-58913500D01*
X119126724Y-59958500D02*
X118617276Y-59958500D01*
%TO.C,R47*%
X136398724Y-84277500D02*
X135889276Y-84277500D01*
X136398724Y-85322500D02*
X135889276Y-85322500D01*
%TO.C,C34*%
X115103733Y-64740000D02*
X115396267Y-64740000D01*
X115103733Y-65760000D02*
X115396267Y-65760000D01*
%TO.C,R83*%
X169417276Y-81011500D02*
X169926724Y-81011500D01*
X169417276Y-82056500D02*
X169926724Y-82056500D01*
%TO.C,R6*%
X155889261Y-89021610D02*
X155889261Y-84667482D01*
X159309261Y-89021610D02*
X159309261Y-84667482D01*
%TO.C,R55*%
X111277500Y-68745276D02*
X111277500Y-69254724D01*
X112322500Y-68745276D02*
X112322500Y-69254724D01*
%TO.C,C2*%
X150366000Y-74429233D02*
X150366000Y-74721767D01*
X151386000Y-74429233D02*
X151386000Y-74721767D01*
%TO.C,C1*%
X147855000Y-55125252D02*
X147855000Y-54602748D01*
X149325000Y-55125252D02*
X149325000Y-54602748D01*
%TO.C,R61*%
X133350724Y-65771500D02*
X132841276Y-65771500D01*
X133350724Y-66816500D02*
X132841276Y-66816500D01*
%TO.C,R81*%
X180339276Y-85837500D02*
X180848724Y-85837500D01*
X180339276Y-86882500D02*
X180848724Y-86882500D01*
D10*
%TO.C,U4*%
X147394365Y-85042577D02*
X147394365Y-89192577D01*
X152544365Y-85042577D02*
X152544365Y-89192577D01*
D12*
X147494365Y-84442577D02*
X147164365Y-84682577D01*
X147164365Y-84202577D01*
X147494365Y-84442577D01*
G36*
X147494365Y-84442577D02*
G01*
X147164365Y-84682577D01*
X147164365Y-84202577D01*
X147494365Y-84442577D01*
G37*
%TO.C,C46*%
X133242267Y-44575000D02*
X132949733Y-44575000D01*
X133242267Y-45595000D02*
X132949733Y-45595000D01*
%TO.C,U10*%
X129940000Y-70259006D02*
X129940000Y-72079006D01*
X129940000Y-72079006D02*
X129990000Y-72079006D01*
X129990000Y-70259006D02*
X129940000Y-70259006D01*
X133010000Y-72079006D02*
X133060000Y-72079006D01*
X133060000Y-70259006D02*
X133010000Y-70259006D01*
X133060000Y-72079006D02*
X133060000Y-70259006D01*
X133340000Y-72859006D02*
X133010000Y-72619006D01*
X133340000Y-72379006D01*
X133340000Y-72859006D01*
G36*
X133340000Y-72859006D02*
G01*
X133010000Y-72619006D01*
X133340000Y-72379006D01*
X133340000Y-72859006D01*
G37*
%TO.C,C20*%
X124850979Y-90871352D02*
X124850979Y-92293856D01*
X126670979Y-90871352D02*
X126670979Y-92293856D01*
%TO.C,R48*%
X132827500Y-84835276D02*
X132827500Y-85344724D01*
X133872500Y-84835276D02*
X133872500Y-85344724D01*
%TO.C,D18*%
X116892000Y-88222000D02*
X116892000Y-79712000D01*
X116892000Y-88222000D02*
X123392000Y-88222000D01*
X123392000Y-88222000D02*
X123392000Y-79712000D01*
%TO.C,C43*%
X146556000Y-70758267D02*
X146556000Y-70465733D01*
X147576000Y-70758267D02*
X147576000Y-70465733D01*
%TO.C,R2*%
X139218936Y-56415000D02*
X139673064Y-56415000D01*
X139218936Y-57885000D02*
X139673064Y-57885000D01*
%TO.C,C37*%
X129393733Y-75436000D02*
X129686267Y-75436000D01*
X129393733Y-76456000D02*
X129686267Y-76456000D01*
%TO.C,C6*%
X142290000Y-66653733D02*
X142290000Y-66946267D01*
X143310000Y-66653733D02*
X143310000Y-66946267D01*
%TO.C,C26*%
X115169733Y-58926000D02*
X115462267Y-58926000D01*
X115169733Y-59946000D02*
X115462267Y-59946000D01*
%TO.C,C7*%
X148588000Y-70758267D02*
X148588000Y-70465733D01*
X149608000Y-70758267D02*
X149608000Y-70465733D01*
%TO.C,C8*%
X151237733Y-55624000D02*
X151530267Y-55624000D01*
X151237733Y-56644000D02*
X151530267Y-56644000D01*
D13*
%TO.C,U8*%
X126909323Y-81313662D02*
X126909323Y-85213662D01*
X131959323Y-81313662D02*
X131959323Y-85213662D01*
D14*
X127629323Y-79193662D02*
G75*
G02*
X127429323Y-79193662I-100000J0D01*
G01*
X127429323Y-79193662D02*
G75*
G02*
X127629323Y-79193662I100000J0D01*
G01*
D12*
%TO.C,R9*%
X143368500Y-44196724D02*
X143368500Y-43687276D01*
X144413500Y-44196724D02*
X144413500Y-43687276D01*
%TO.C,R7*%
X136891500Y-80264724D02*
X136891500Y-79755276D01*
X137936500Y-80264724D02*
X137936500Y-79755276D01*
%TO.C,C44*%
X179369767Y-90168000D02*
X179077233Y-90168000D01*
X179369767Y-91188000D02*
X179077233Y-91188000D01*
%TO.C,C35*%
X134364000Y-68941733D02*
X134364000Y-69234267D01*
X135384000Y-68941733D02*
X135384000Y-69234267D01*
%TO.C,D1*%
X163603000Y-46346000D02*
X165073000Y-46346000D01*
X163603000Y-48806000D02*
X163603000Y-46346000D01*
X165073000Y-46346000D02*
X165073000Y-48806000D01*
%TO.C,JP4*%
X140079365Y-84497577D02*
X140079365Y-85897577D01*
X140779365Y-86597577D02*
X141379365Y-86597577D01*
X141379365Y-83797577D02*
X140779365Y-83797577D01*
X142079365Y-85897577D02*
X142079365Y-84497577D01*
X140079365Y-84497577D02*
G75*
G02*
X140779365Y-83797577I699999J1D01*
G01*
X140779365Y-86597577D02*
G75*
G02*
X140079365Y-85897577I0J700000D01*
G01*
X141379365Y-83797577D02*
G75*
G02*
X142079365Y-84497577I1J-699999D01*
G01*
X142079365Y-85897577D02*
G75*
G02*
X141379365Y-86597577I-700000J0D01*
G01*
%TO.C,R53*%
X118109276Y-56881500D02*
X118618724Y-56881500D01*
X118109276Y-57926500D02*
X118618724Y-57926500D01*
%TO.C,C5*%
X154290000Y-66301233D02*
X154290000Y-66593767D01*
X155310000Y-66301233D02*
X155310000Y-66593767D01*
%TO.C,R10*%
X145019500Y-44196724D02*
X145019500Y-43687276D01*
X146064500Y-44196724D02*
X146064500Y-43687276D01*
%TO.C,C45*%
X162356748Y-69194000D02*
X163779252Y-69194000D01*
X162356748Y-71014000D02*
X163779252Y-71014000D01*
%TO.C,J3*%
X113682000Y-40007000D02*
X116442000Y-40007000D01*
X113682000Y-45197000D02*
X113682000Y-40007000D01*
X113682000Y-45197000D02*
X116442000Y-45197000D01*
X113682000Y-46467000D02*
X113682000Y-47847000D01*
X113682000Y-47847000D02*
X115062000Y-47847000D01*
X116442000Y-45197000D02*
X116442000Y-40007000D01*
%TO.C,R8*%
X141717500Y-78993276D02*
X141717500Y-79502724D01*
X142762500Y-78993276D02*
X142762500Y-79502724D01*
%TO.C,C29*%
X119688748Y-66290000D02*
X121111252Y-66290000D01*
X119688748Y-68110000D02*
X121111252Y-68110000D01*
%TO.C,C33*%
X118217733Y-55116000D02*
X118510267Y-55116000D01*
X118217733Y-56136000D02*
X118510267Y-56136000D01*
%TO.C,R1*%
X135785776Y-85837500D02*
X136295224Y-85837500D01*
X135785776Y-86882500D02*
X136295224Y-86882500D01*
%TO.C,R62*%
X128255500Y-69192224D02*
X128255500Y-68682776D01*
X129300500Y-69192224D02*
X129300500Y-68682776D01*
%TO.C,C23*%
X124984659Y-81184508D02*
X124984659Y-81477042D01*
X126004659Y-81184508D02*
X126004659Y-81477042D01*
%TO.C,R4*%
X152172936Y-53113000D02*
X152627064Y-53113000D01*
X152172936Y-54583000D02*
X152627064Y-54583000D01*
%TO.C,C41*%
X173685252Y-68178000D02*
X172262748Y-68178000D01*
X173685252Y-69998000D02*
X172262748Y-69998000D01*
%TO.C,R82*%
X169671276Y-78979500D02*
X170180724Y-78979500D01*
X169671276Y-80024500D02*
X170180724Y-80024500D01*
%TO.C,D3*%
X138590000Y-81622000D02*
X138590000Y-74212000D01*
X140810000Y-74212000D02*
X140810000Y-81622000D01*
X140810000Y-81622000D02*
X138590000Y-81622000D01*
%TO.C,JP5*%
X133803484Y-89695875D02*
X133803484Y-90295875D01*
X134503484Y-90995875D02*
X135903484Y-90995875D01*
X135903484Y-88995875D02*
X134503484Y-88995875D01*
X136603484Y-90295875D02*
X136603484Y-89695875D01*
X133803484Y-89695875D02*
G75*
G02*
X134503484Y-88995875I699999J1D01*
G01*
X134503484Y-90995875D02*
G75*
G02*
X133803484Y-90295875I-1J699999D01*
G01*
X135903484Y-88995875D02*
G75*
G02*
X136603484Y-89695875I0J-700000D01*
G01*
X136603484Y-90295875D02*
G75*
G02*
X135903484Y-90995875I-700000J0D01*
G01*
%TO.C,R80*%
X180847276Y-87615500D02*
X181356724Y-87615500D01*
X180847276Y-88660500D02*
X181356724Y-88660500D01*
%TO.C,R60*%
X128277500Y-65145276D02*
X128277500Y-65654724D01*
X129322500Y-65145276D02*
X129322500Y-65654724D01*
%TO.C,C3*%
X147093000Y-61475252D02*
X147093000Y-60952748D01*
X148563000Y-61475252D02*
X148563000Y-60952748D01*
%TO.C,C4*%
X138965000Y-60423248D02*
X138965000Y-60945752D01*
X140435000Y-60423248D02*
X140435000Y-60945752D01*
%TO.C,C30*%
X119487733Y-64490000D02*
X119780267Y-64490000D01*
X119487733Y-65510000D02*
X119780267Y-65510000D01*
%TO.C,Y1*%
X141588000Y-57723000D02*
X146208000Y-57723000D01*
X146208000Y-57723000D02*
X146208000Y-63243000D01*
%TO.C,C22*%
X131204719Y-91685895D02*
X131204719Y-91978429D01*
X132224719Y-91685895D02*
X132224719Y-91978429D01*
%TO.C,C36*%
X129336748Y-77068000D02*
X130759252Y-77068000D01*
X129336748Y-78888000D02*
X130759252Y-78888000D01*
%TO.C,R59*%
X132588724Y-67549500D02*
X132079276Y-67549500D01*
X132588724Y-68594500D02*
X132079276Y-68594500D01*
%TO.C,C9*%
X153523365Y-88787844D02*
X153523365Y-88495310D01*
X154543365Y-88787844D02*
X154543365Y-88495310D01*
%TO.C,R54*%
X114995276Y-66477500D02*
X115504724Y-66477500D01*
X114995276Y-67522500D02*
X115504724Y-67522500D01*
%TO.C,J7*%
X174388000Y-38991000D02*
X177148000Y-38991000D01*
X174388000Y-44181000D02*
X174388000Y-38991000D01*
X174388000Y-44181000D02*
X177148000Y-44181000D01*
X174388000Y-45451000D02*
X174388000Y-46831000D01*
X174388000Y-46831000D02*
X175768000Y-46831000D01*
X177148000Y-44181000D02*
X177148000Y-38991000D01*
%TO.C,C21*%
X127893209Y-90930771D02*
X127893209Y-92353275D01*
X129713209Y-90930771D02*
X129713209Y-92353275D01*
%TO.C,R52*%
X114995276Y-68227500D02*
X115504724Y-68227500D01*
X114995276Y-69272500D02*
X115504724Y-69272500D01*
%TO.C,D17*%
X120394705Y-89322550D02*
X120394705Y-94832550D01*
X120394705Y-89322550D02*
X123694705Y-89322550D01*
X123694705Y-89322550D02*
X123694705Y-94832550D01*
%TO.C,U9*%
X115416948Y-60683638D02*
X115416948Y-60733638D01*
X115416948Y-63753638D02*
X115416948Y-63803638D01*
X115416948Y-63803638D02*
X117236948Y-63803638D01*
X117236948Y-60683638D02*
X115416948Y-60683638D01*
X117236948Y-60733638D02*
X117236948Y-60683638D01*
X117236948Y-63803638D02*
X117236948Y-63753638D01*
X117776948Y-60733638D02*
X117536948Y-60403638D01*
X118016948Y-60403638D01*
X117776948Y-60733638D01*
G36*
X117776948Y-60733638D02*
G01*
X117536948Y-60403638D01*
X118016948Y-60403638D01*
X117776948Y-60733638D01*
G37*
%TO.C,C11*%
X165941199Y-88888344D02*
X165941199Y-88595810D01*
X166961199Y-88888344D02*
X166961199Y-88595810D01*
%TO.C,R49*%
X134859500Y-81026724D02*
X134859500Y-80517276D01*
X135904500Y-81026724D02*
X135904500Y-80517276D01*
%TO.C,R50*%
X133031889Y-80879128D02*
X133031889Y-81388576D01*
X134076889Y-80879128D02*
X134076889Y-81388576D01*
%TO.C,C38*%
X136090000Y-68288748D02*
X136090000Y-69711252D01*
X137910000Y-68288748D02*
X137910000Y-69711252D01*
%TD*%
M02*
