%TF.GenerationSoftware,KiCad,Pcbnew,9.0.5*%
%TF.CreationDate,2025-11-11T22:40:48+01:00*%
%TF.ProjectId,mobile_robot,6d6f6269-6c65-45f7-926f-626f742e6b69,rev?*%
%TF.SameCoordinates,Original*%
%TF.FileFunction,Plated,1,2,PTH,Mixed*%
%TF.FilePolarity,Positive*%
%FSLAX46Y46*%
G04 Gerber Fmt 4.6, Leading zero omitted, Abs format (unit mm)*
G04 Created by KiCad (PCBNEW 9.0.5) date 2025-11-11 22:40:48*
%MOMM*%
%LPD*%
G01*
G04 APERTURE LIST*
%TA.AperFunction,ViaDrill*%
%ADD10C,0.300000*%
%TD*%
%TA.AperFunction,ComponentDrill*%
%ADD11C,0.300000*%
%TD*%
%TA.AperFunction,ComponentDrill*%
%ADD12C,0.330000*%
%TD*%
%TA.AperFunction,ViaDrill*%
%ADD13C,0.400000*%
%TD*%
%TA.AperFunction,ViaDrill*%
%ADD14C,0.500000*%
%TD*%
%TA.AperFunction,ComponentDrill*%
%ADD15C,0.900000*%
%TD*%
%TA.AperFunction,ComponentDrill*%
%ADD16C,0.950000*%
%TD*%
G04 aperture for slot hole*
%TA.AperFunction,ComponentDrill*%
%ADD17C,1.000000*%
%TD*%
%TA.AperFunction,ComponentDrill*%
%ADD18C,1.000000*%
%TD*%
%TA.AperFunction,ComponentDrill*%
%ADD19C,1.100000*%
%TD*%
%TA.AperFunction,ComponentDrill*%
%ADD20C,1.190000*%
%TD*%
%TA.AperFunction,ComponentDrill*%
%ADD21C,1.300000*%
%TD*%
%TA.AperFunction,ComponentDrill*%
%ADD22C,1.500000*%
%TD*%
%TA.AperFunction,ComponentDrill*%
%ADD23C,3.200000*%
%TD*%
G04 APERTURE END LIST*
D10*
X120845448Y-62521343D03*
X121255920Y-62959360D03*
X121833140Y-63526532D03*
X121920000Y-62738000D03*
D11*
%TO.C,U8*%
X127484323Y-82613662D03*
X127484323Y-83913662D03*
X128784323Y-82613662D03*
X128784323Y-83913662D03*
X130084323Y-82613662D03*
X130084323Y-83913662D03*
X131384323Y-82613662D03*
X131384323Y-83913662D03*
D12*
%TO.C,U4*%
X148669365Y-86467577D03*
X148669365Y-87767577D03*
X149969365Y-86467577D03*
X149969365Y-87767577D03*
X151269365Y-86467577D03*
X151269365Y-87767577D03*
%TO.C,U2*%
X161133000Y-86391000D03*
X161133000Y-87691000D03*
X162433000Y-86391000D03*
X162433000Y-87691000D03*
X163733000Y-86391000D03*
X163733000Y-87691000D03*
%TD*%
D13*
X101600000Y-75184000D03*
X101854000Y-72644000D03*
X101854000Y-78232000D03*
X102108000Y-82550000D03*
X102108000Y-84836000D03*
X102108000Y-88646000D03*
X102616000Y-56642000D03*
X103124000Y-40894000D03*
X103378000Y-44450000D03*
X103632000Y-47244000D03*
X105156000Y-56642000D03*
X105664000Y-40894000D03*
X105918000Y-44450000D03*
X105918000Y-46990000D03*
X106426000Y-72644000D03*
X106426000Y-75184000D03*
X106426000Y-78232000D03*
X109220000Y-40894000D03*
X109220000Y-44196000D03*
X109220000Y-46736000D03*
X109728000Y-82296000D03*
X109728000Y-83820000D03*
X109982000Y-50038000D03*
X110236000Y-92964000D03*
X110236000Y-96774000D03*
X111506000Y-40894000D03*
X111506000Y-46990000D03*
X111760000Y-43688000D03*
X113042459Y-68126000D03*
X114153750Y-50907750D03*
X115423750Y-49637750D03*
X115570000Y-51054000D03*
X116162297Y-57632542D03*
X116332000Y-50292000D03*
X119634000Y-39370000D03*
X121000000Y-70000000D03*
X121449207Y-58830208D03*
X121666000Y-97536000D03*
X122000000Y-69800000D03*
X122800000Y-70200000D03*
X122809000Y-60960000D03*
X123190000Y-65278000D03*
X123444000Y-45466000D03*
X123600000Y-69800000D03*
X123698000Y-68580000D03*
X124000000Y-66000000D03*
X124200000Y-85800000D03*
X124206000Y-63754000D03*
X124460000Y-61722000D03*
X125056201Y-78217128D03*
X125195183Y-78999818D03*
X125400000Y-85800000D03*
X125444392Y-64483413D03*
X125476000Y-62992000D03*
X126000000Y-78600000D03*
X126600000Y-97600000D03*
X127254000Y-45466000D03*
X128305671Y-55772141D03*
X128389251Y-58613876D03*
X128584272Y-52818965D03*
X128778000Y-50800000D03*
X129794000Y-45212000D03*
X130172301Y-60703388D03*
X130302000Y-64262000D03*
X130683000Y-44831000D03*
X130683000Y-63627000D03*
X131035966Y-58558156D03*
X131064000Y-55880000D03*
X131318000Y-64262000D03*
X131487268Y-78894224D03*
X131610500Y-77978000D03*
X132842000Y-78740000D03*
X133000000Y-97200000D03*
X133599099Y-58223834D03*
X133641000Y-77534562D03*
X133710540Y-55967162D03*
X134130059Y-77008928D03*
X134198854Y-77823854D03*
X135382000Y-81788000D03*
X136144000Y-77470000D03*
X136334393Y-46551393D03*
X136652000Y-57150000D03*
X136652000Y-72136000D03*
X136652000Y-73152000D03*
X136906000Y-65024000D03*
X136906000Y-66040000D03*
X137160000Y-45400000D03*
X137244921Y-88444921D03*
X137338185Y-89536664D03*
X137668000Y-65024000D03*
X137668000Y-65786000D03*
X137668000Y-83820000D03*
X137886800Y-88955133D03*
X138116241Y-86349158D03*
X138176000Y-72136000D03*
X138347637Y-88318739D03*
X138938000Y-82550000D03*
X139192000Y-53086000D03*
X139192000Y-98806000D03*
X139200000Y-85600000D03*
X139446000Y-84582000D03*
X140368000Y-71468000D03*
X140400000Y-63000000D03*
X140716000Y-66294000D03*
X140716000Y-69342000D03*
X140800000Y-65024000D03*
X140876000Y-71976000D03*
X141079365Y-85847577D03*
X141329690Y-62504134D03*
X141511000Y-72611000D03*
X141800000Y-40200000D03*
X141805696Y-70440991D03*
X142347573Y-69568211D03*
X143002855Y-56679263D03*
X143256000Y-82804000D03*
X144044500Y-79475500D03*
X144272000Y-56896000D03*
X144471001Y-71920645D03*
X144471001Y-75405000D03*
X144889365Y-91440000D03*
X145630030Y-72953649D03*
X145796000Y-98552000D03*
X145909033Y-74409000D03*
X146152762Y-55860343D03*
X146528391Y-73550015D03*
X146800000Y-55033550D03*
X147200000Y-82000000D03*
X147611059Y-72630830D03*
X148032595Y-58043030D03*
X148249067Y-65127032D03*
X148788000Y-78191992D03*
X149097591Y-66056020D03*
X149098000Y-82296000D03*
X149112221Y-64300452D03*
X149352000Y-91694000D03*
X150000000Y-65200000D03*
X150072019Y-45897822D03*
X150876000Y-56896000D03*
X150962992Y-81701008D03*
X151384000Y-98044000D03*
X151892000Y-57150000D03*
X152146000Y-81788000D03*
X153019654Y-82370436D03*
X153494642Y-90901339D03*
X153670000Y-76962000D03*
X154593303Y-90911607D03*
X154600000Y-40200000D03*
X154800000Y-72600000D03*
X154940000Y-57404000D03*
X155110361Y-82589059D03*
X155194000Y-49530000D03*
X155194000Y-78232000D03*
X155448000Y-98044000D03*
X155800000Y-72390000D03*
X155956000Y-56388000D03*
X156845000Y-40513000D03*
X157000000Y-66200000D03*
X157200000Y-47600000D03*
X157226000Y-79502000D03*
X157238581Y-67324980D03*
X157599261Y-89894546D03*
X158242000Y-44450000D03*
X158496000Y-50800000D03*
X158496000Y-55118000D03*
X159766000Y-53848000D03*
X160400000Y-44600000D03*
X160528000Y-53086000D03*
X160655000Y-42418000D03*
X161453644Y-81297462D03*
X161544000Y-52070000D03*
X161544000Y-98298000D03*
X162306000Y-39116000D03*
X162306000Y-50038000D03*
X162560000Y-48514000D03*
X162560000Y-80772000D03*
X162814000Y-46228000D03*
X162814000Y-52832000D03*
X163830000Y-52070000D03*
X163830000Y-55250000D03*
X164846000Y-98044000D03*
X165100000Y-60452000D03*
X165106457Y-61506204D03*
X165456000Y-82144000D03*
X165714067Y-91193504D03*
X166624000Y-68072000D03*
X166624000Y-78486000D03*
X166878000Y-39116000D03*
X166987365Y-91181577D03*
X167386000Y-77978000D03*
X168000000Y-48600000D03*
X168402000Y-98044000D03*
X168411778Y-61860644D03*
X168910000Y-74168000D03*
X169200000Y-92000000D03*
X169545000Y-89027000D03*
X170000000Y-48600000D03*
X170434000Y-77724000D03*
X170688000Y-88646000D03*
X170800000Y-95800000D03*
X170942000Y-39116000D03*
X171450000Y-76200000D03*
X171815458Y-48300196D03*
X172212000Y-73406000D03*
X172720000Y-39116000D03*
X172974000Y-46990000D03*
X173609000Y-78486000D03*
X174498000Y-87884000D03*
X174752000Y-88900000D03*
X175006000Y-56896000D03*
X175514000Y-63500000D03*
X177546000Y-79375000D03*
X177673000Y-80772000D03*
X178562000Y-51054000D03*
X178816000Y-53594000D03*
X180086000Y-45212000D03*
X180213000Y-79502000D03*
X180848000Y-64008000D03*
X181102000Y-62992000D03*
X181102000Y-80518000D03*
X181356000Y-96520000D03*
X181864000Y-91694000D03*
X182753000Y-79502000D03*
X182828250Y-87324250D03*
X183800000Y-89800000D03*
X183896000Y-80645000D03*
X184000000Y-88800000D03*
X185039000Y-79629000D03*
X185928000Y-88900000D03*
X185928000Y-89916000D03*
X186400000Y-73200000D03*
X186400000Y-75400000D03*
X187198000Y-70866000D03*
X187706000Y-78232000D03*
X187706000Y-80264000D03*
X187960000Y-75438000D03*
X187972000Y-60872145D03*
X187972000Y-62230000D03*
X187972000Y-64770000D03*
X188214000Y-73152000D03*
X188214000Y-88900000D03*
X188214000Y-89916000D03*
X188468000Y-69088000D03*
X188722000Y-57150000D03*
X188722000Y-66294000D03*
X188976000Y-51816000D03*
D14*
X123000000Y-85800000D03*
X123818468Y-85075828D03*
X124867970Y-85200000D03*
X125914177Y-85042911D03*
X151447000Y-79000000D03*
X152400000Y-80200000D03*
D15*
%TO.C,SW2*%
X106426000Y-62037574D03*
X106426000Y-64037574D03*
X106426000Y-66037574D03*
%TO.C,U12*%
X184150000Y-40132000D03*
X184150000Y-42672000D03*
X184150000Y-45212000D03*
D16*
%TO.C,J9*%
X120944000Y-43180000D03*
X123444000Y-43180000D03*
X125944000Y-43180000D03*
%TO.C,J12*%
X163743000Y-42528000D03*
X166243000Y-42528000D03*
X168743000Y-42528000D03*
D17*
%TO.C,J11*%
X111013143Y-76508302D02*
X111013143Y-74308302D01*
X113313143Y-80208302D02*
X115513143Y-80208302D01*
%TO.C,U7*%
X114477049Y-84366123D02*
X115277049Y-84366123D01*
X114477049Y-88066123D02*
X115277049Y-88066123D01*
X114477049Y-92366123D02*
X115277049Y-92366123D01*
X114477049Y-96066123D02*
X115277049Y-96066123D01*
D18*
%TO.C,J3*%
X115062000Y-41387000D03*
X115062000Y-43927000D03*
X115062000Y-46467000D03*
D17*
%TO.C,J11*%
X117313143Y-76708302D02*
X117313143Y-74108302D01*
D18*
%TO.C,J5*%
X133985000Y-42672000D03*
%TO.C,J19*%
X136110000Y-48190000D03*
X136110000Y-50730000D03*
%TO.C,J5*%
X136525000Y-42672000D03*
%TO.C,J19*%
X138650000Y-48190000D03*
X138650000Y-50730000D03*
%TO.C,J5*%
X139065000Y-42672000D03*
%TO.C,J19*%
X141190000Y-48190000D03*
X141190000Y-50730000D03*
%TO.C,J5*%
X141605000Y-42672000D03*
%TO.C,J19*%
X143730000Y-48190000D03*
X143730000Y-50730000D03*
X146270000Y-48190000D03*
X146270000Y-50730000D03*
%TO.C,J20*%
X147330000Y-42647000D03*
%TO.C,J19*%
X148810000Y-48190000D03*
X148810000Y-50730000D03*
%TO.C,J20*%
X149870000Y-42647000D03*
%TO.C,J19*%
X151350000Y-48190000D03*
X151350000Y-50730000D03*
%TO.C,J20*%
X152410000Y-42647000D03*
%TO.C,J19*%
X153890000Y-48190000D03*
X153890000Y-50730000D03*
%TO.C,J20*%
X154950000Y-42647000D03*
%TO.C,J18*%
X159019000Y-74422000D03*
%TO.C,J17*%
X159258000Y-78486000D03*
%TO.C,J18*%
X161559000Y-74422000D03*
%TO.C,J17*%
X161798000Y-78486000D03*
%TO.C,J18*%
X164099000Y-74422000D03*
%TO.C,J17*%
X164338000Y-78486000D03*
%TO.C,J16*%
X166116000Y-51308000D03*
X166116000Y-53848000D03*
%TO.C,J8*%
X166878000Y-65786000D03*
%TO.C,J6*%
X167386000Y-60198000D03*
%TO.C,J16*%
X168656000Y-51308000D03*
X168656000Y-53848000D03*
%TO.C,J8*%
X169418000Y-65786000D03*
%TO.C,J6*%
X169926000Y-60198000D03*
%TO.C,J16*%
X171196000Y-51308000D03*
X171196000Y-53848000D03*
%TO.C,J8*%
X171958000Y-65786000D03*
%TO.C,J6*%
X172466000Y-60198000D03*
%TO.C,J15*%
X173482000Y-74295000D03*
X173482000Y-76835000D03*
%TO.C,J16*%
X173736000Y-51308000D03*
X173736000Y-53848000D03*
%TO.C,J8*%
X174498000Y-65786000D03*
%TO.C,J6*%
X175006000Y-60198000D03*
%TO.C,J7*%
X175768000Y-40371000D03*
X175768000Y-42911000D03*
X175768000Y-45451000D03*
%TO.C,J15*%
X176022000Y-74295000D03*
X176022000Y-76835000D03*
%TO.C,J16*%
X176276000Y-51308000D03*
X176276000Y-53848000D03*
%TO.C,J6*%
X177546000Y-60198000D03*
%TO.C,J4*%
X178308000Y-64013000D03*
X178308000Y-66553000D03*
%TO.C,J15*%
X178562000Y-74295000D03*
X178562000Y-76835000D03*
X181102000Y-74295000D03*
X181102000Y-76835000D03*
X183642000Y-74295000D03*
X183642000Y-76835000D03*
%TO.C,J1*%
X187987988Y-39817150D03*
X187987988Y-42357150D03*
X187987988Y-44897150D03*
X187987988Y-47437150D03*
D19*
%TO.C,SW1*%
X159040000Y-60048000D03*
X159040000Y-66548000D03*
X163540000Y-60048000D03*
X163540000Y-66548000D03*
D20*
%TO.C,J13*%
X168148000Y-84074000D03*
X170688000Y-84074000D03*
X173228000Y-84074000D03*
X175768000Y-84074000D03*
%TO.C,J14*%
X179832000Y-84074000D03*
X182372000Y-84074000D03*
X184912000Y-84074000D03*
X187452000Y-84074000D03*
D21*
%TO.C,J10*%
X106680000Y-83900000D03*
X106680000Y-88900000D03*
%TO.C,M2*%
X150448000Y-93980000D03*
X155448000Y-93980000D03*
%TO.C,M1*%
X162132000Y-94109500D03*
X167132000Y-94109500D03*
D22*
%TO.C,SW2*%
X106426000Y-59937574D03*
X106426000Y-68137574D03*
D23*
%TO.C,H3*%
X105000000Y-52000000D03*
%TO.C,H2*%
X105000000Y-95000000D03*
%TO.C,H4*%
X185000000Y-52000000D03*
%TO.C,H1*%
X185000000Y-95000000D03*
M02*
