%TF.GenerationSoftware,KiCad,Pcbnew,9.0.5*%
%TF.CreationDate,2025-11-11T22:40:46+01:00*%
%TF.ProjectId,mobile_robot,6d6f6269-6c65-45f7-926f-626f742e6b69,rev?*%
%TF.SameCoordinates,Original*%
%TF.FileFunction,Soldermask,Bot*%
%TF.FilePolarity,Negative*%
%FSLAX46Y46*%
G04 Gerber Fmt 4.6, Leading zero omitted, Abs format (unit mm)*
G04 Created by KiCad (PCBNEW 9.0.5) date 2025-11-11 22:40:46*
%MOMM*%
%LPD*%
G01*
G04 APERTURE LIST*
G04 Aperture macros list*
%AMRoundRect*
0 Rectangle with rounded corners*
0 $1 Rounding radius*
0 $2 $3 $4 $5 $6 $7 $8 $9 X,Y pos of 4 corners*
0 Add a 4 corners polygon primitive as box body*
4,1,4,$2,$3,$4,$5,$6,$7,$8,$9,$2,$3,0*
0 Add four circle primitives for the rounded corners*
1,1,$1+$1,$2,$3*
1,1,$1+$1,$4,$5*
1,1,$1+$1,$6,$7*
1,1,$1+$1,$8,$9*
0 Add four rect primitives between the rounded corners*
20,1,$1+$1,$2,$3,$4,$5,0*
20,1,$1+$1,$4,$5,$6,$7,0*
20,1,$1+$1,$6,$7,$8,$9,0*
20,1,$1+$1,$8,$9,$2,$3,0*%
%AMOutline4P*
0 Free polygon, 4 corners , with rotation*
0 The origin of the aperture is its center*
0 number of corners: always 4*
0 $1 to $8 corner X, Y*
0 $9 Rotation angle, in degrees counterclockwise*
0 create outline with 4 corners*
4,1,4,$1,$2,$3,$4,$5,$6,$7,$8,$1,$2,$9*%
%AMFreePoly0*
4,1,23,0.500000,-0.750000,0.000000,-0.750000,0.000000,-0.745722,-0.065263,-0.745722,-0.191342,-0.711940,-0.304381,-0.646677,-0.396677,-0.554381,-0.461940,-0.441342,-0.495722,-0.315263,-0.495722,-0.250000,-0.500000,-0.250000,-0.500000,0.250000,-0.495722,0.250000,-0.495722,0.315263,-0.461940,0.441342,-0.396677,0.554381,-0.304381,0.646677,-0.191342,0.711940,-0.065263,0.745722,0.000000,0.745722,
0.000000,0.750000,0.500000,0.750000,0.500000,-0.750000,0.500000,-0.750000,$1*%
%AMFreePoly1*
4,1,23,0.000000,0.745722,0.065263,0.745722,0.191342,0.711940,0.304381,0.646677,0.396677,0.554381,0.461940,0.441342,0.495722,0.315263,0.495722,0.250000,0.500000,0.250000,0.500000,-0.250000,0.495722,-0.250000,0.495722,-0.315263,0.461940,-0.441342,0.396677,-0.554381,0.304381,-0.646677,0.191342,-0.711940,0.065263,-0.745722,0.000000,-0.745722,0.000000,-0.750000,-0.500000,-0.750000,
-0.500000,0.750000,0.000000,0.750000,0.000000,0.745722,0.000000,0.745722,$1*%
G04 Aperture macros list end*
%ADD10C,0.010000*%
%ADD11C,5.500000*%
%ADD12Outline4P,-0.750000X-1.250000X0.750000X-1.250000X0.750000X1.250000X-0.750000X1.250000X270.000000*%
%ADD13R,2.500000X1.500000*%
%ADD14RoundRect,0.250000X-0.620000X-0.845000X0.620000X-0.845000X0.620000X0.845000X-0.620000X0.845000X0*%
%ADD15O,1.740000X2.190000*%
%ADD16RoundRect,0.250000X-1.050000X-1.050000X1.050000X-1.050000X1.050000X1.050000X-1.050000X1.050000X0*%
%ADD17C,2.600000*%
%ADD18R,1.700000X1.700000*%
%ADD19C,1.700000*%
%ADD20RoundRect,0.250000X-0.600000X-0.725000X0.600000X-0.725000X0.600000X0.725000X-0.600000X0.725000X0*%
%ADD21O,1.700000X1.950000*%
%ADD22R,2.000000X4.600000*%
%ADD23O,2.000000X4.200000*%
%ADD24O,4.200000X2.000000*%
%ADD25RoundRect,0.248400X-0.651600X0.651600X-0.651600X-0.651600X0.651600X-0.651600X0.651600X0.651600X0*%
%ADD26C,1.800000*%
%ADD27RoundRect,0.250000X-0.600000X0.600000X-0.600000X-0.600000X0.600000X-0.600000X0.600000X0.600000X0*%
%ADD28RoundRect,0.250000X0.600000X-0.600000X0.600000X0.600000X-0.600000X0.600000X-0.600000X-0.600000X0*%
%ADD29RoundRect,0.250000X-1.050000X1.050000X-1.050000X-1.050000X1.050000X-1.050000X1.050000X1.050000X0*%
%ADD30C,2.000000*%
%ADD31O,3.500000X2.200000*%
%ADD32O,2.500000X1.500000*%
%ADD33RoundRect,0.237500X0.237500X-0.300000X0.237500X0.300000X-0.237500X0.300000X-0.237500X-0.300000X0*%
%ADD34RoundRect,0.218750X-0.381250X0.218750X-0.381250X-0.218750X0.381250X-0.218750X0.381250X0.218750X0*%
%ADD35FreePoly0,270.000000*%
%ADD36FreePoly1,270.000000*%
%ADD37RoundRect,0.237500X-0.237500X0.250000X-0.237500X-0.250000X0.237500X-0.250000X0.237500X0.250000X0*%
%ADD38RoundRect,0.249999X1.425001X-0.450001X1.425001X0.450001X-1.425001X0.450001X-1.425001X-0.450001X0*%
%ADD39R,3.100000X2.400000*%
%ADD40RoundRect,0.070000X-0.250000X1.100000X-0.250000X-1.100000X0.250000X-1.100000X0.250000X1.100000X0*%
%ADD41C,0.770000*%
%ADD42RoundRect,0.237500X0.237500X-0.250000X0.237500X0.250000X-0.237500X0.250000X-0.237500X-0.250000X0*%
%ADD43RoundRect,0.237500X-0.237500X0.300000X-0.237500X-0.300000X0.237500X-0.300000X0.237500X0.300000X0*%
%ADD44RoundRect,0.237500X0.250000X0.237500X-0.250000X0.237500X-0.250000X-0.237500X0.250000X-0.237500X0*%
%ADD45RoundRect,0.237500X-0.300000X-0.237500X0.300000X-0.237500X0.300000X0.237500X-0.300000X0.237500X0*%
%ADD46RoundRect,0.237500X-0.250000X-0.237500X0.250000X-0.237500X0.250000X0.237500X-0.250000X0.237500X0*%
%ADD47RoundRect,0.250000X0.475000X-0.337500X0.475000X0.337500X-0.475000X0.337500X-0.475000X-0.337500X0*%
%ADD48RoundRect,0.237500X0.300000X0.237500X-0.300000X0.237500X-0.300000X-0.237500X0.300000X-0.237500X0*%
%ADD49RoundRect,0.150000X0.150000X-0.512500X0.150000X0.512500X-0.150000X0.512500X-0.150000X-0.512500X0*%
%ADD50RoundRect,0.250000X-0.650000X0.412500X-0.650000X-0.412500X0.650000X-0.412500X0.650000X0.412500X0*%
%ADD51RoundRect,0.250000X-1.400000X-1.000000X1.400000X-1.000000X1.400000X1.000000X-1.400000X1.000000X0*%
%ADD52RoundRect,0.250000X-0.350000X-0.450000X0.350000X-0.450000X0.350000X0.450000X-0.350000X0.450000X0*%
%ADD53RoundRect,0.237500X-0.237500X0.287500X-0.237500X-0.287500X0.237500X-0.287500X0.237500X0.287500X0*%
%ADD54RoundRect,0.250000X-0.412500X-0.650000X0.412500X-0.650000X0.412500X0.650000X-0.412500X0.650000X0*%
%ADD55RoundRect,0.250000X0.412500X0.650000X-0.412500X0.650000X-0.412500X-0.650000X0.412500X-0.650000X0*%
%ADD56RoundRect,0.250000X0.600000X-1.400000X0.600000X1.400000X-0.600000X1.400000X-0.600000X-1.400000X0*%
%ADD57FreePoly0,0.000000*%
%ADD58FreePoly1,0.000000*%
%ADD59RoundRect,0.250000X-0.475000X0.337500X-0.475000X-0.337500X0.475000X-0.337500X0.475000X0.337500X0*%
%ADD60RoundRect,0.250000X-0.650000X0.800000X-0.650000X-0.800000X0.650000X-0.800000X0.650000X0.800000X0*%
%ADD61RoundRect,0.250000X-0.650000X1.000000X-0.650000X-1.000000X0.650000X-1.000000X0.650000X1.000000X0*%
%ADD62RoundRect,0.150000X0.512500X0.150000X-0.512500X0.150000X-0.512500X-0.150000X0.512500X-0.150000X0*%
G04 APERTURE END LIST*
%TO.C,JP3*%
G36*
X153536265Y-84373346D02*
G01*
X155036265Y-84373346D01*
X155036265Y-84673346D01*
X153536265Y-84673346D01*
X153536265Y-84373346D01*
G37*
D10*
%TO.C,U8*%
X130984323Y-84563662D02*
X127884323Y-84563662D01*
X127884323Y-81963662D01*
X130984323Y-81963662D01*
X130984323Y-84563662D01*
G36*
X130984323Y-84563662D02*
G01*
X127884323Y-84563662D01*
X127884323Y-81963662D01*
X130984323Y-81963662D01*
X130984323Y-84563662D01*
G37*
X127857323Y-79719662D02*
X127859323Y-79719662D01*
X127862323Y-79720662D01*
X127864323Y-79720662D01*
X127867323Y-79721662D01*
X127869323Y-79722662D01*
X127872323Y-79723662D01*
X127874323Y-79725662D01*
X127876323Y-79726662D01*
X127878323Y-79728662D01*
X127880323Y-79729662D01*
X127882323Y-79731662D01*
X127884323Y-79733662D01*
X127886323Y-79735662D01*
X127888323Y-79737662D01*
X127889323Y-79739662D01*
X127891323Y-79741662D01*
X127892323Y-79743662D01*
X127894323Y-79745662D01*
X127895323Y-79748662D01*
X127896323Y-79750662D01*
X127897323Y-79753662D01*
X127897323Y-79755662D01*
X127898323Y-79758662D01*
X127898323Y-79760662D01*
X127899323Y-79763662D01*
X127899323Y-79765662D01*
X127899323Y-79768662D01*
X127899323Y-81358662D01*
X127899323Y-81361662D01*
X127899323Y-81363662D01*
X127898323Y-81366662D01*
X127898323Y-81368662D01*
X127897323Y-81371662D01*
X127897323Y-81373662D01*
X127896323Y-81376662D01*
X127895323Y-81378662D01*
X127894323Y-81381662D01*
X127892323Y-81383662D01*
X127891323Y-81385662D01*
X127889323Y-81387662D01*
X127888323Y-81389662D01*
X127886323Y-81391662D01*
X127884323Y-81393662D01*
X127882323Y-81395662D01*
X127880323Y-81397662D01*
X127878323Y-81398662D01*
X127876323Y-81400662D01*
X127874323Y-81401662D01*
X127872323Y-81403662D01*
X127869323Y-81404662D01*
X127867323Y-81405662D01*
X127864323Y-81406662D01*
X127862323Y-81406662D01*
X127859323Y-81407662D01*
X127857323Y-81407662D01*
X127854323Y-81408662D01*
X127852323Y-81408662D01*
X127849323Y-81408662D01*
X127209323Y-81408662D01*
X127206323Y-81408662D01*
X127204323Y-81408662D01*
X127201323Y-81407662D01*
X127199323Y-81407662D01*
X127196323Y-81406662D01*
X127194323Y-81406662D01*
X127191323Y-81405662D01*
X127189323Y-81404662D01*
X127186323Y-81403662D01*
X127184323Y-81401662D01*
X127182323Y-81400662D01*
X127180323Y-81398662D01*
X127178323Y-81397662D01*
X127176323Y-81395662D01*
X127174323Y-81393662D01*
X127172323Y-81391662D01*
X127170323Y-81389662D01*
X127169323Y-81387662D01*
X127167323Y-81385662D01*
X127166323Y-81383662D01*
X127164323Y-81381662D01*
X127163323Y-81378662D01*
X127162323Y-81376662D01*
X127161323Y-81373662D01*
X127161323Y-81371662D01*
X127160323Y-81368662D01*
X127160323Y-81366662D01*
X127159323Y-81363662D01*
X127159323Y-81361662D01*
X127159323Y-81358662D01*
X127159323Y-79768662D01*
X127159323Y-79765662D01*
X127159323Y-79763662D01*
X127160323Y-79760662D01*
X127160323Y-79758662D01*
X127161323Y-79755662D01*
X127161323Y-79753662D01*
X127162323Y-79750662D01*
X127163323Y-79748662D01*
X127164323Y-79745662D01*
X127166323Y-79743662D01*
X127167323Y-79741662D01*
X127169323Y-79739662D01*
X127170323Y-79737662D01*
X127172323Y-79735662D01*
X127174323Y-79733662D01*
X127176323Y-79731662D01*
X127178323Y-79729662D01*
X127180323Y-79728662D01*
X127182323Y-79726662D01*
X127184323Y-79725662D01*
X127186323Y-79723662D01*
X127189323Y-79722662D01*
X127191323Y-79721662D01*
X127194323Y-79720662D01*
X127196323Y-79720662D01*
X127199323Y-79719662D01*
X127201323Y-79719662D01*
X127204323Y-79718662D01*
X127206323Y-79718662D01*
X127209323Y-79718662D01*
X127849323Y-79718662D01*
X127852323Y-79718662D01*
X127854323Y-79718662D01*
X127857323Y-79719662D01*
G36*
X127857323Y-79719662D02*
G01*
X127859323Y-79719662D01*
X127862323Y-79720662D01*
X127864323Y-79720662D01*
X127867323Y-79721662D01*
X127869323Y-79722662D01*
X127872323Y-79723662D01*
X127874323Y-79725662D01*
X127876323Y-79726662D01*
X127878323Y-79728662D01*
X127880323Y-79729662D01*
X127882323Y-79731662D01*
X127884323Y-79733662D01*
X127886323Y-79735662D01*
X127888323Y-79737662D01*
X127889323Y-79739662D01*
X127891323Y-79741662D01*
X127892323Y-79743662D01*
X127894323Y-79745662D01*
X127895323Y-79748662D01*
X127896323Y-79750662D01*
X127897323Y-79753662D01*
X127897323Y-79755662D01*
X127898323Y-79758662D01*
X127898323Y-79760662D01*
X127899323Y-79763662D01*
X127899323Y-79765662D01*
X127899323Y-79768662D01*
X127899323Y-81358662D01*
X127899323Y-81361662D01*
X127899323Y-81363662D01*
X127898323Y-81366662D01*
X127898323Y-81368662D01*
X127897323Y-81371662D01*
X127897323Y-81373662D01*
X127896323Y-81376662D01*
X127895323Y-81378662D01*
X127894323Y-81381662D01*
X127892323Y-81383662D01*
X127891323Y-81385662D01*
X127889323Y-81387662D01*
X127888323Y-81389662D01*
X127886323Y-81391662D01*
X127884323Y-81393662D01*
X127882323Y-81395662D01*
X127880323Y-81397662D01*
X127878323Y-81398662D01*
X127876323Y-81400662D01*
X127874323Y-81401662D01*
X127872323Y-81403662D01*
X127869323Y-81404662D01*
X127867323Y-81405662D01*
X127864323Y-81406662D01*
X127862323Y-81406662D01*
X127859323Y-81407662D01*
X127857323Y-81407662D01*
X127854323Y-81408662D01*
X127852323Y-81408662D01*
X127849323Y-81408662D01*
X127209323Y-81408662D01*
X127206323Y-81408662D01*
X127204323Y-81408662D01*
X127201323Y-81407662D01*
X127199323Y-81407662D01*
X127196323Y-81406662D01*
X127194323Y-81406662D01*
X127191323Y-81405662D01*
X127189323Y-81404662D01*
X127186323Y-81403662D01*
X127184323Y-81401662D01*
X127182323Y-81400662D01*
X127180323Y-81398662D01*
X127178323Y-81397662D01*
X127176323Y-81395662D01*
X127174323Y-81393662D01*
X127172323Y-81391662D01*
X127170323Y-81389662D01*
X127169323Y-81387662D01*
X127167323Y-81385662D01*
X127166323Y-81383662D01*
X127164323Y-81381662D01*
X127163323Y-81378662D01*
X127162323Y-81376662D01*
X127161323Y-81373662D01*
X127161323Y-81371662D01*
X127160323Y-81368662D01*
X127160323Y-81366662D01*
X127159323Y-81363662D01*
X127159323Y-81361662D01*
X127159323Y-81358662D01*
X127159323Y-79768662D01*
X127159323Y-79765662D01*
X127159323Y-79763662D01*
X127160323Y-79760662D01*
X127160323Y-79758662D01*
X127161323Y-79755662D01*
X127161323Y-79753662D01*
X127162323Y-79750662D01*
X127163323Y-79748662D01*
X127164323Y-79745662D01*
X127166323Y-79743662D01*
X127167323Y-79741662D01*
X127169323Y-79739662D01*
X127170323Y-79737662D01*
X127172323Y-79735662D01*
X127174323Y-79733662D01*
X127176323Y-79731662D01*
X127178323Y-79729662D01*
X127180323Y-79728662D01*
X127182323Y-79726662D01*
X127184323Y-79725662D01*
X127186323Y-79723662D01*
X127189323Y-79722662D01*
X127191323Y-79721662D01*
X127194323Y-79720662D01*
X127196323Y-79720662D01*
X127199323Y-79719662D01*
X127201323Y-79719662D01*
X127204323Y-79718662D01*
X127206323Y-79718662D01*
X127209323Y-79718662D01*
X127849323Y-79718662D01*
X127852323Y-79718662D01*
X127854323Y-79718662D01*
X127857323Y-79719662D01*
G37*
X127857323Y-85119662D02*
X127859323Y-85119662D01*
X127862323Y-85120662D01*
X127864323Y-85120662D01*
X127867323Y-85121662D01*
X127869323Y-85122662D01*
X127872323Y-85123662D01*
X127874323Y-85125662D01*
X127876323Y-85126662D01*
X127878323Y-85128662D01*
X127880323Y-85129662D01*
X127882323Y-85131662D01*
X127884323Y-85133662D01*
X127886323Y-85135662D01*
X127888323Y-85137662D01*
X127889323Y-85139662D01*
X127891323Y-85141662D01*
X127892323Y-85143662D01*
X127894323Y-85145662D01*
X127895323Y-85148662D01*
X127896323Y-85150662D01*
X127897323Y-85153662D01*
X127897323Y-85155662D01*
X127898323Y-85158662D01*
X127898323Y-85160662D01*
X127899323Y-85163662D01*
X127899323Y-85165662D01*
X127899323Y-85168662D01*
X127899323Y-86758662D01*
X127899323Y-86761662D01*
X127899323Y-86763662D01*
X127898323Y-86766662D01*
X127898323Y-86768662D01*
X127897323Y-86771662D01*
X127897323Y-86773662D01*
X127896323Y-86776662D01*
X127895323Y-86778662D01*
X127894323Y-86781662D01*
X127892323Y-86783662D01*
X127891323Y-86785662D01*
X127889323Y-86787662D01*
X127888323Y-86789662D01*
X127886323Y-86791662D01*
X127884323Y-86793662D01*
X127882323Y-86795662D01*
X127880323Y-86797662D01*
X127878323Y-86798662D01*
X127876323Y-86800662D01*
X127874323Y-86801662D01*
X127872323Y-86803662D01*
X127869323Y-86804662D01*
X127867323Y-86805662D01*
X127864323Y-86806662D01*
X127862323Y-86806662D01*
X127859323Y-86807662D01*
X127857323Y-86807662D01*
X127854323Y-86808662D01*
X127852323Y-86808662D01*
X127849323Y-86808662D01*
X127209323Y-86808662D01*
X127206323Y-86808662D01*
X127204323Y-86808662D01*
X127201323Y-86807662D01*
X127199323Y-86807662D01*
X127196323Y-86806662D01*
X127194323Y-86806662D01*
X127191323Y-86805662D01*
X127189323Y-86804662D01*
X127186323Y-86803662D01*
X127184323Y-86801662D01*
X127182323Y-86800662D01*
X127180323Y-86798662D01*
X127178323Y-86797662D01*
X127176323Y-86795662D01*
X127174323Y-86793662D01*
X127172323Y-86791662D01*
X127170323Y-86789662D01*
X127169323Y-86787662D01*
X127167323Y-86785662D01*
X127166323Y-86783662D01*
X127164323Y-86781662D01*
X127163323Y-86778662D01*
X127162323Y-86776662D01*
X127161323Y-86773662D01*
X127161323Y-86771662D01*
X127160323Y-86768662D01*
X127160323Y-86766662D01*
X127159323Y-86763662D01*
X127159323Y-86761662D01*
X127159323Y-86758662D01*
X127159323Y-85168662D01*
X127159323Y-85165662D01*
X127159323Y-85163662D01*
X127160323Y-85160662D01*
X127160323Y-85158662D01*
X127161323Y-85155662D01*
X127161323Y-85153662D01*
X127162323Y-85150662D01*
X127163323Y-85148662D01*
X127164323Y-85145662D01*
X127166323Y-85143662D01*
X127167323Y-85141662D01*
X127169323Y-85139662D01*
X127170323Y-85137662D01*
X127172323Y-85135662D01*
X127174323Y-85133662D01*
X127176323Y-85131662D01*
X127178323Y-85129662D01*
X127180323Y-85128662D01*
X127182323Y-85126662D01*
X127184323Y-85125662D01*
X127186323Y-85123662D01*
X127189323Y-85122662D01*
X127191323Y-85121662D01*
X127194323Y-85120662D01*
X127196323Y-85120662D01*
X127199323Y-85119662D01*
X127201323Y-85119662D01*
X127204323Y-85118662D01*
X127206323Y-85118662D01*
X127209323Y-85118662D01*
X127849323Y-85118662D01*
X127852323Y-85118662D01*
X127854323Y-85118662D01*
X127857323Y-85119662D01*
G36*
X127857323Y-85119662D02*
G01*
X127859323Y-85119662D01*
X127862323Y-85120662D01*
X127864323Y-85120662D01*
X127867323Y-85121662D01*
X127869323Y-85122662D01*
X127872323Y-85123662D01*
X127874323Y-85125662D01*
X127876323Y-85126662D01*
X127878323Y-85128662D01*
X127880323Y-85129662D01*
X127882323Y-85131662D01*
X127884323Y-85133662D01*
X127886323Y-85135662D01*
X127888323Y-85137662D01*
X127889323Y-85139662D01*
X127891323Y-85141662D01*
X127892323Y-85143662D01*
X127894323Y-85145662D01*
X127895323Y-85148662D01*
X127896323Y-85150662D01*
X127897323Y-85153662D01*
X127897323Y-85155662D01*
X127898323Y-85158662D01*
X127898323Y-85160662D01*
X127899323Y-85163662D01*
X127899323Y-85165662D01*
X127899323Y-85168662D01*
X127899323Y-86758662D01*
X127899323Y-86761662D01*
X127899323Y-86763662D01*
X127898323Y-86766662D01*
X127898323Y-86768662D01*
X127897323Y-86771662D01*
X127897323Y-86773662D01*
X127896323Y-86776662D01*
X127895323Y-86778662D01*
X127894323Y-86781662D01*
X127892323Y-86783662D01*
X127891323Y-86785662D01*
X127889323Y-86787662D01*
X127888323Y-86789662D01*
X127886323Y-86791662D01*
X127884323Y-86793662D01*
X127882323Y-86795662D01*
X127880323Y-86797662D01*
X127878323Y-86798662D01*
X127876323Y-86800662D01*
X127874323Y-86801662D01*
X127872323Y-86803662D01*
X127869323Y-86804662D01*
X127867323Y-86805662D01*
X127864323Y-86806662D01*
X127862323Y-86806662D01*
X127859323Y-86807662D01*
X127857323Y-86807662D01*
X127854323Y-86808662D01*
X127852323Y-86808662D01*
X127849323Y-86808662D01*
X127209323Y-86808662D01*
X127206323Y-86808662D01*
X127204323Y-86808662D01*
X127201323Y-86807662D01*
X127199323Y-86807662D01*
X127196323Y-86806662D01*
X127194323Y-86806662D01*
X127191323Y-86805662D01*
X127189323Y-86804662D01*
X127186323Y-86803662D01*
X127184323Y-86801662D01*
X127182323Y-86800662D01*
X127180323Y-86798662D01*
X127178323Y-86797662D01*
X127176323Y-86795662D01*
X127174323Y-86793662D01*
X127172323Y-86791662D01*
X127170323Y-86789662D01*
X127169323Y-86787662D01*
X127167323Y-86785662D01*
X127166323Y-86783662D01*
X127164323Y-86781662D01*
X127163323Y-86778662D01*
X127162323Y-86776662D01*
X127161323Y-86773662D01*
X127161323Y-86771662D01*
X127160323Y-86768662D01*
X127160323Y-86766662D01*
X127159323Y-86763662D01*
X127159323Y-86761662D01*
X127159323Y-86758662D01*
X127159323Y-85168662D01*
X127159323Y-85165662D01*
X127159323Y-85163662D01*
X127160323Y-85160662D01*
X127160323Y-85158662D01*
X127161323Y-85155662D01*
X127161323Y-85153662D01*
X127162323Y-85150662D01*
X127163323Y-85148662D01*
X127164323Y-85145662D01*
X127166323Y-85143662D01*
X127167323Y-85141662D01*
X127169323Y-85139662D01*
X127170323Y-85137662D01*
X127172323Y-85135662D01*
X127174323Y-85133662D01*
X127176323Y-85131662D01*
X127178323Y-85129662D01*
X127180323Y-85128662D01*
X127182323Y-85126662D01*
X127184323Y-85125662D01*
X127186323Y-85123662D01*
X127189323Y-85122662D01*
X127191323Y-85121662D01*
X127194323Y-85120662D01*
X127196323Y-85120662D01*
X127199323Y-85119662D01*
X127201323Y-85119662D01*
X127204323Y-85118662D01*
X127206323Y-85118662D01*
X127209323Y-85118662D01*
X127849323Y-85118662D01*
X127852323Y-85118662D01*
X127854323Y-85118662D01*
X127857323Y-85119662D01*
G37*
X129127323Y-79719662D02*
X129129323Y-79719662D01*
X129132323Y-79720662D01*
X129134323Y-79720662D01*
X129137323Y-79721662D01*
X129139323Y-79722662D01*
X129142323Y-79723662D01*
X129144323Y-79725662D01*
X129146323Y-79726662D01*
X129148323Y-79728662D01*
X129150323Y-79729662D01*
X129152323Y-79731662D01*
X129154323Y-79733662D01*
X129156323Y-79735662D01*
X129158323Y-79737662D01*
X129159323Y-79739662D01*
X129161323Y-79741662D01*
X129162323Y-79743662D01*
X129164323Y-79745662D01*
X129165323Y-79748662D01*
X129166323Y-79750662D01*
X129167323Y-79753662D01*
X129167323Y-79755662D01*
X129168323Y-79758662D01*
X129168323Y-79760662D01*
X129169323Y-79763662D01*
X129169323Y-79765662D01*
X129169323Y-79768662D01*
X129169323Y-81358662D01*
X129169323Y-81361662D01*
X129169323Y-81363662D01*
X129168323Y-81366662D01*
X129168323Y-81368662D01*
X129167323Y-81371662D01*
X129167323Y-81373662D01*
X129166323Y-81376662D01*
X129165323Y-81378662D01*
X129164323Y-81381662D01*
X129162323Y-81383662D01*
X129161323Y-81385662D01*
X129159323Y-81387662D01*
X129158323Y-81389662D01*
X129156323Y-81391662D01*
X129154323Y-81393662D01*
X129152323Y-81395662D01*
X129150323Y-81397662D01*
X129148323Y-81398662D01*
X129146323Y-81400662D01*
X129144323Y-81401662D01*
X129142323Y-81403662D01*
X129139323Y-81404662D01*
X129137323Y-81405662D01*
X129134323Y-81406662D01*
X129132323Y-81406662D01*
X129129323Y-81407662D01*
X129127323Y-81407662D01*
X129124323Y-81408662D01*
X129122323Y-81408662D01*
X129119323Y-81408662D01*
X128479323Y-81408662D01*
X128476323Y-81408662D01*
X128474323Y-81408662D01*
X128471323Y-81407662D01*
X128469323Y-81407662D01*
X128466323Y-81406662D01*
X128464323Y-81406662D01*
X128461323Y-81405662D01*
X128459323Y-81404662D01*
X128456323Y-81403662D01*
X128454323Y-81401662D01*
X128452323Y-81400662D01*
X128450323Y-81398662D01*
X128448323Y-81397662D01*
X128446323Y-81395662D01*
X128444323Y-81393662D01*
X128442323Y-81391662D01*
X128440323Y-81389662D01*
X128439323Y-81387662D01*
X128437323Y-81385662D01*
X128436323Y-81383662D01*
X128434323Y-81381662D01*
X128433323Y-81378662D01*
X128432323Y-81376662D01*
X128431323Y-81373662D01*
X128431323Y-81371662D01*
X128430323Y-81368662D01*
X128430323Y-81366662D01*
X128429323Y-81363662D01*
X128429323Y-81361662D01*
X128429323Y-81358662D01*
X128429323Y-79768662D01*
X128429323Y-79765662D01*
X128429323Y-79763662D01*
X128430323Y-79760662D01*
X128430323Y-79758662D01*
X128431323Y-79755662D01*
X128431323Y-79753662D01*
X128432323Y-79750662D01*
X128433323Y-79748662D01*
X128434323Y-79745662D01*
X128436323Y-79743662D01*
X128437323Y-79741662D01*
X128439323Y-79739662D01*
X128440323Y-79737662D01*
X128442323Y-79735662D01*
X128444323Y-79733662D01*
X128446323Y-79731662D01*
X128448323Y-79729662D01*
X128450323Y-79728662D01*
X128452323Y-79726662D01*
X128454323Y-79725662D01*
X128456323Y-79723662D01*
X128459323Y-79722662D01*
X128461323Y-79721662D01*
X128464323Y-79720662D01*
X128466323Y-79720662D01*
X128469323Y-79719662D01*
X128471323Y-79719662D01*
X128474323Y-79718662D01*
X128476323Y-79718662D01*
X128479323Y-79718662D01*
X129119323Y-79718662D01*
X129122323Y-79718662D01*
X129124323Y-79718662D01*
X129127323Y-79719662D01*
G36*
X129127323Y-79719662D02*
G01*
X129129323Y-79719662D01*
X129132323Y-79720662D01*
X129134323Y-79720662D01*
X129137323Y-79721662D01*
X129139323Y-79722662D01*
X129142323Y-79723662D01*
X129144323Y-79725662D01*
X129146323Y-79726662D01*
X129148323Y-79728662D01*
X129150323Y-79729662D01*
X129152323Y-79731662D01*
X129154323Y-79733662D01*
X129156323Y-79735662D01*
X129158323Y-79737662D01*
X129159323Y-79739662D01*
X129161323Y-79741662D01*
X129162323Y-79743662D01*
X129164323Y-79745662D01*
X129165323Y-79748662D01*
X129166323Y-79750662D01*
X129167323Y-79753662D01*
X129167323Y-79755662D01*
X129168323Y-79758662D01*
X129168323Y-79760662D01*
X129169323Y-79763662D01*
X129169323Y-79765662D01*
X129169323Y-79768662D01*
X129169323Y-81358662D01*
X129169323Y-81361662D01*
X129169323Y-81363662D01*
X129168323Y-81366662D01*
X129168323Y-81368662D01*
X129167323Y-81371662D01*
X129167323Y-81373662D01*
X129166323Y-81376662D01*
X129165323Y-81378662D01*
X129164323Y-81381662D01*
X129162323Y-81383662D01*
X129161323Y-81385662D01*
X129159323Y-81387662D01*
X129158323Y-81389662D01*
X129156323Y-81391662D01*
X129154323Y-81393662D01*
X129152323Y-81395662D01*
X129150323Y-81397662D01*
X129148323Y-81398662D01*
X129146323Y-81400662D01*
X129144323Y-81401662D01*
X129142323Y-81403662D01*
X129139323Y-81404662D01*
X129137323Y-81405662D01*
X129134323Y-81406662D01*
X129132323Y-81406662D01*
X129129323Y-81407662D01*
X129127323Y-81407662D01*
X129124323Y-81408662D01*
X129122323Y-81408662D01*
X129119323Y-81408662D01*
X128479323Y-81408662D01*
X128476323Y-81408662D01*
X128474323Y-81408662D01*
X128471323Y-81407662D01*
X128469323Y-81407662D01*
X128466323Y-81406662D01*
X128464323Y-81406662D01*
X128461323Y-81405662D01*
X128459323Y-81404662D01*
X128456323Y-81403662D01*
X128454323Y-81401662D01*
X128452323Y-81400662D01*
X128450323Y-81398662D01*
X128448323Y-81397662D01*
X128446323Y-81395662D01*
X128444323Y-81393662D01*
X128442323Y-81391662D01*
X128440323Y-81389662D01*
X128439323Y-81387662D01*
X128437323Y-81385662D01*
X128436323Y-81383662D01*
X128434323Y-81381662D01*
X128433323Y-81378662D01*
X128432323Y-81376662D01*
X128431323Y-81373662D01*
X128431323Y-81371662D01*
X128430323Y-81368662D01*
X128430323Y-81366662D01*
X128429323Y-81363662D01*
X128429323Y-81361662D01*
X128429323Y-81358662D01*
X128429323Y-79768662D01*
X128429323Y-79765662D01*
X128429323Y-79763662D01*
X128430323Y-79760662D01*
X128430323Y-79758662D01*
X128431323Y-79755662D01*
X128431323Y-79753662D01*
X128432323Y-79750662D01*
X128433323Y-79748662D01*
X128434323Y-79745662D01*
X128436323Y-79743662D01*
X128437323Y-79741662D01*
X128439323Y-79739662D01*
X128440323Y-79737662D01*
X128442323Y-79735662D01*
X128444323Y-79733662D01*
X128446323Y-79731662D01*
X128448323Y-79729662D01*
X128450323Y-79728662D01*
X128452323Y-79726662D01*
X128454323Y-79725662D01*
X128456323Y-79723662D01*
X128459323Y-79722662D01*
X128461323Y-79721662D01*
X128464323Y-79720662D01*
X128466323Y-79720662D01*
X128469323Y-79719662D01*
X128471323Y-79719662D01*
X128474323Y-79718662D01*
X128476323Y-79718662D01*
X128479323Y-79718662D01*
X129119323Y-79718662D01*
X129122323Y-79718662D01*
X129124323Y-79718662D01*
X129127323Y-79719662D01*
G37*
X129127323Y-85119662D02*
X129129323Y-85119662D01*
X129132323Y-85120662D01*
X129134323Y-85120662D01*
X129137323Y-85121662D01*
X129139323Y-85122662D01*
X129142323Y-85123662D01*
X129144323Y-85125662D01*
X129146323Y-85126662D01*
X129148323Y-85128662D01*
X129150323Y-85129662D01*
X129152323Y-85131662D01*
X129154323Y-85133662D01*
X129156323Y-85135662D01*
X129158323Y-85137662D01*
X129159323Y-85139662D01*
X129161323Y-85141662D01*
X129162323Y-85143662D01*
X129164323Y-85145662D01*
X129165323Y-85148662D01*
X129166323Y-85150662D01*
X129167323Y-85153662D01*
X129167323Y-85155662D01*
X129168323Y-85158662D01*
X129168323Y-85160662D01*
X129169323Y-85163662D01*
X129169323Y-85165662D01*
X129169323Y-85168662D01*
X129169323Y-86758662D01*
X129169323Y-86761662D01*
X129169323Y-86763662D01*
X129168323Y-86766662D01*
X129168323Y-86768662D01*
X129167323Y-86771662D01*
X129167323Y-86773662D01*
X129166323Y-86776662D01*
X129165323Y-86778662D01*
X129164323Y-86781662D01*
X129162323Y-86783662D01*
X129161323Y-86785662D01*
X129159323Y-86787662D01*
X129158323Y-86789662D01*
X129156323Y-86791662D01*
X129154323Y-86793662D01*
X129152323Y-86795662D01*
X129150323Y-86797662D01*
X129148323Y-86798662D01*
X129146323Y-86800662D01*
X129144323Y-86801662D01*
X129142323Y-86803662D01*
X129139323Y-86804662D01*
X129137323Y-86805662D01*
X129134323Y-86806662D01*
X129132323Y-86806662D01*
X129129323Y-86807662D01*
X129127323Y-86807662D01*
X129124323Y-86808662D01*
X129122323Y-86808662D01*
X129119323Y-86808662D01*
X128479323Y-86808662D01*
X128476323Y-86808662D01*
X128474323Y-86808662D01*
X128471323Y-86807662D01*
X128469323Y-86807662D01*
X128466323Y-86806662D01*
X128464323Y-86806662D01*
X128461323Y-86805662D01*
X128459323Y-86804662D01*
X128456323Y-86803662D01*
X128454323Y-86801662D01*
X128452323Y-86800662D01*
X128450323Y-86798662D01*
X128448323Y-86797662D01*
X128446323Y-86795662D01*
X128444323Y-86793662D01*
X128442323Y-86791662D01*
X128440323Y-86789662D01*
X128439323Y-86787662D01*
X128437323Y-86785662D01*
X128436323Y-86783662D01*
X128434323Y-86781662D01*
X128433323Y-86778662D01*
X128432323Y-86776662D01*
X128431323Y-86773662D01*
X128431323Y-86771662D01*
X128430323Y-86768662D01*
X128430323Y-86766662D01*
X128429323Y-86763662D01*
X128429323Y-86761662D01*
X128429323Y-86758662D01*
X128429323Y-85168662D01*
X128429323Y-85165662D01*
X128429323Y-85163662D01*
X128430323Y-85160662D01*
X128430323Y-85158662D01*
X128431323Y-85155662D01*
X128431323Y-85153662D01*
X128432323Y-85150662D01*
X128433323Y-85148662D01*
X128434323Y-85145662D01*
X128436323Y-85143662D01*
X128437323Y-85141662D01*
X128439323Y-85139662D01*
X128440323Y-85137662D01*
X128442323Y-85135662D01*
X128444323Y-85133662D01*
X128446323Y-85131662D01*
X128448323Y-85129662D01*
X128450323Y-85128662D01*
X128452323Y-85126662D01*
X128454323Y-85125662D01*
X128456323Y-85123662D01*
X128459323Y-85122662D01*
X128461323Y-85121662D01*
X128464323Y-85120662D01*
X128466323Y-85120662D01*
X128469323Y-85119662D01*
X128471323Y-85119662D01*
X128474323Y-85118662D01*
X128476323Y-85118662D01*
X128479323Y-85118662D01*
X129119323Y-85118662D01*
X129122323Y-85118662D01*
X129124323Y-85118662D01*
X129127323Y-85119662D01*
G36*
X129127323Y-85119662D02*
G01*
X129129323Y-85119662D01*
X129132323Y-85120662D01*
X129134323Y-85120662D01*
X129137323Y-85121662D01*
X129139323Y-85122662D01*
X129142323Y-85123662D01*
X129144323Y-85125662D01*
X129146323Y-85126662D01*
X129148323Y-85128662D01*
X129150323Y-85129662D01*
X129152323Y-85131662D01*
X129154323Y-85133662D01*
X129156323Y-85135662D01*
X129158323Y-85137662D01*
X129159323Y-85139662D01*
X129161323Y-85141662D01*
X129162323Y-85143662D01*
X129164323Y-85145662D01*
X129165323Y-85148662D01*
X129166323Y-85150662D01*
X129167323Y-85153662D01*
X129167323Y-85155662D01*
X129168323Y-85158662D01*
X129168323Y-85160662D01*
X129169323Y-85163662D01*
X129169323Y-85165662D01*
X129169323Y-85168662D01*
X129169323Y-86758662D01*
X129169323Y-86761662D01*
X129169323Y-86763662D01*
X129168323Y-86766662D01*
X129168323Y-86768662D01*
X129167323Y-86771662D01*
X129167323Y-86773662D01*
X129166323Y-86776662D01*
X129165323Y-86778662D01*
X129164323Y-86781662D01*
X129162323Y-86783662D01*
X129161323Y-86785662D01*
X129159323Y-86787662D01*
X129158323Y-86789662D01*
X129156323Y-86791662D01*
X129154323Y-86793662D01*
X129152323Y-86795662D01*
X129150323Y-86797662D01*
X129148323Y-86798662D01*
X129146323Y-86800662D01*
X129144323Y-86801662D01*
X129142323Y-86803662D01*
X129139323Y-86804662D01*
X129137323Y-86805662D01*
X129134323Y-86806662D01*
X129132323Y-86806662D01*
X129129323Y-86807662D01*
X129127323Y-86807662D01*
X129124323Y-86808662D01*
X129122323Y-86808662D01*
X129119323Y-86808662D01*
X128479323Y-86808662D01*
X128476323Y-86808662D01*
X128474323Y-86808662D01*
X128471323Y-86807662D01*
X128469323Y-86807662D01*
X128466323Y-86806662D01*
X128464323Y-86806662D01*
X128461323Y-86805662D01*
X128459323Y-86804662D01*
X128456323Y-86803662D01*
X128454323Y-86801662D01*
X128452323Y-86800662D01*
X128450323Y-86798662D01*
X128448323Y-86797662D01*
X128446323Y-86795662D01*
X128444323Y-86793662D01*
X128442323Y-86791662D01*
X128440323Y-86789662D01*
X128439323Y-86787662D01*
X128437323Y-86785662D01*
X128436323Y-86783662D01*
X128434323Y-86781662D01*
X128433323Y-86778662D01*
X128432323Y-86776662D01*
X128431323Y-86773662D01*
X128431323Y-86771662D01*
X128430323Y-86768662D01*
X128430323Y-86766662D01*
X128429323Y-86763662D01*
X128429323Y-86761662D01*
X128429323Y-86758662D01*
X128429323Y-85168662D01*
X128429323Y-85165662D01*
X128429323Y-85163662D01*
X128430323Y-85160662D01*
X128430323Y-85158662D01*
X128431323Y-85155662D01*
X128431323Y-85153662D01*
X128432323Y-85150662D01*
X128433323Y-85148662D01*
X128434323Y-85145662D01*
X128436323Y-85143662D01*
X128437323Y-85141662D01*
X128439323Y-85139662D01*
X128440323Y-85137662D01*
X128442323Y-85135662D01*
X128444323Y-85133662D01*
X128446323Y-85131662D01*
X128448323Y-85129662D01*
X128450323Y-85128662D01*
X128452323Y-85126662D01*
X128454323Y-85125662D01*
X128456323Y-85123662D01*
X128459323Y-85122662D01*
X128461323Y-85121662D01*
X128464323Y-85120662D01*
X128466323Y-85120662D01*
X128469323Y-85119662D01*
X128471323Y-85119662D01*
X128474323Y-85118662D01*
X128476323Y-85118662D01*
X128479323Y-85118662D01*
X129119323Y-85118662D01*
X129122323Y-85118662D01*
X129124323Y-85118662D01*
X129127323Y-85119662D01*
G37*
X130397323Y-79719662D02*
X130399323Y-79719662D01*
X130402323Y-79720662D01*
X130404323Y-79720662D01*
X130407323Y-79721662D01*
X130409323Y-79722662D01*
X130412323Y-79723662D01*
X130414323Y-79725662D01*
X130416323Y-79726662D01*
X130418323Y-79728662D01*
X130420323Y-79729662D01*
X130422323Y-79731662D01*
X130424323Y-79733662D01*
X130426323Y-79735662D01*
X130428323Y-79737662D01*
X130429323Y-79739662D01*
X130431323Y-79741662D01*
X130432323Y-79743662D01*
X130434323Y-79745662D01*
X130435323Y-79748662D01*
X130436323Y-79750662D01*
X130437323Y-79753662D01*
X130437323Y-79755662D01*
X130438323Y-79758662D01*
X130438323Y-79760662D01*
X130439323Y-79763662D01*
X130439323Y-79765662D01*
X130439323Y-79768662D01*
X130439323Y-81358662D01*
X130439323Y-81361662D01*
X130439323Y-81363662D01*
X130438323Y-81366662D01*
X130438323Y-81368662D01*
X130437323Y-81371662D01*
X130437323Y-81373662D01*
X130436323Y-81376662D01*
X130435323Y-81378662D01*
X130434323Y-81381662D01*
X130432323Y-81383662D01*
X130431323Y-81385662D01*
X130429323Y-81387662D01*
X130428323Y-81389662D01*
X130426323Y-81391662D01*
X130424323Y-81393662D01*
X130422323Y-81395662D01*
X130420323Y-81397662D01*
X130418323Y-81398662D01*
X130416323Y-81400662D01*
X130414323Y-81401662D01*
X130412323Y-81403662D01*
X130409323Y-81404662D01*
X130407323Y-81405662D01*
X130404323Y-81406662D01*
X130402323Y-81406662D01*
X130399323Y-81407662D01*
X130397323Y-81407662D01*
X130394323Y-81408662D01*
X130392323Y-81408662D01*
X130389323Y-81408662D01*
X129749323Y-81408662D01*
X129746323Y-81408662D01*
X129744323Y-81408662D01*
X129741323Y-81407662D01*
X129739323Y-81407662D01*
X129736323Y-81406662D01*
X129734323Y-81406662D01*
X129731323Y-81405662D01*
X129729323Y-81404662D01*
X129726323Y-81403662D01*
X129724323Y-81401662D01*
X129722323Y-81400662D01*
X129720323Y-81398662D01*
X129718323Y-81397662D01*
X129716323Y-81395662D01*
X129714323Y-81393662D01*
X129712323Y-81391662D01*
X129710323Y-81389662D01*
X129709323Y-81387662D01*
X129707323Y-81385662D01*
X129706323Y-81383662D01*
X129704323Y-81381662D01*
X129703323Y-81378662D01*
X129702323Y-81376662D01*
X129701323Y-81373662D01*
X129701323Y-81371662D01*
X129700323Y-81368662D01*
X129700323Y-81366662D01*
X129699323Y-81363662D01*
X129699323Y-81361662D01*
X129699323Y-81358662D01*
X129699323Y-79768662D01*
X129699323Y-79765662D01*
X129699323Y-79763662D01*
X129700323Y-79760662D01*
X129700323Y-79758662D01*
X129701323Y-79755662D01*
X129701323Y-79753662D01*
X129702323Y-79750662D01*
X129703323Y-79748662D01*
X129704323Y-79745662D01*
X129706323Y-79743662D01*
X129707323Y-79741662D01*
X129709323Y-79739662D01*
X129710323Y-79737662D01*
X129712323Y-79735662D01*
X129714323Y-79733662D01*
X129716323Y-79731662D01*
X129718323Y-79729662D01*
X129720323Y-79728662D01*
X129722323Y-79726662D01*
X129724323Y-79725662D01*
X129726323Y-79723662D01*
X129729323Y-79722662D01*
X129731323Y-79721662D01*
X129734323Y-79720662D01*
X129736323Y-79720662D01*
X129739323Y-79719662D01*
X129741323Y-79719662D01*
X129744323Y-79718662D01*
X129746323Y-79718662D01*
X129749323Y-79718662D01*
X130389323Y-79718662D01*
X130392323Y-79718662D01*
X130394323Y-79718662D01*
X130397323Y-79719662D01*
G36*
X130397323Y-79719662D02*
G01*
X130399323Y-79719662D01*
X130402323Y-79720662D01*
X130404323Y-79720662D01*
X130407323Y-79721662D01*
X130409323Y-79722662D01*
X130412323Y-79723662D01*
X130414323Y-79725662D01*
X130416323Y-79726662D01*
X130418323Y-79728662D01*
X130420323Y-79729662D01*
X130422323Y-79731662D01*
X130424323Y-79733662D01*
X130426323Y-79735662D01*
X130428323Y-79737662D01*
X130429323Y-79739662D01*
X130431323Y-79741662D01*
X130432323Y-79743662D01*
X130434323Y-79745662D01*
X130435323Y-79748662D01*
X130436323Y-79750662D01*
X130437323Y-79753662D01*
X130437323Y-79755662D01*
X130438323Y-79758662D01*
X130438323Y-79760662D01*
X130439323Y-79763662D01*
X130439323Y-79765662D01*
X130439323Y-79768662D01*
X130439323Y-81358662D01*
X130439323Y-81361662D01*
X130439323Y-81363662D01*
X130438323Y-81366662D01*
X130438323Y-81368662D01*
X130437323Y-81371662D01*
X130437323Y-81373662D01*
X130436323Y-81376662D01*
X130435323Y-81378662D01*
X130434323Y-81381662D01*
X130432323Y-81383662D01*
X130431323Y-81385662D01*
X130429323Y-81387662D01*
X130428323Y-81389662D01*
X130426323Y-81391662D01*
X130424323Y-81393662D01*
X130422323Y-81395662D01*
X130420323Y-81397662D01*
X130418323Y-81398662D01*
X130416323Y-81400662D01*
X130414323Y-81401662D01*
X130412323Y-81403662D01*
X130409323Y-81404662D01*
X130407323Y-81405662D01*
X130404323Y-81406662D01*
X130402323Y-81406662D01*
X130399323Y-81407662D01*
X130397323Y-81407662D01*
X130394323Y-81408662D01*
X130392323Y-81408662D01*
X130389323Y-81408662D01*
X129749323Y-81408662D01*
X129746323Y-81408662D01*
X129744323Y-81408662D01*
X129741323Y-81407662D01*
X129739323Y-81407662D01*
X129736323Y-81406662D01*
X129734323Y-81406662D01*
X129731323Y-81405662D01*
X129729323Y-81404662D01*
X129726323Y-81403662D01*
X129724323Y-81401662D01*
X129722323Y-81400662D01*
X129720323Y-81398662D01*
X129718323Y-81397662D01*
X129716323Y-81395662D01*
X129714323Y-81393662D01*
X129712323Y-81391662D01*
X129710323Y-81389662D01*
X129709323Y-81387662D01*
X129707323Y-81385662D01*
X129706323Y-81383662D01*
X129704323Y-81381662D01*
X129703323Y-81378662D01*
X129702323Y-81376662D01*
X129701323Y-81373662D01*
X129701323Y-81371662D01*
X129700323Y-81368662D01*
X129700323Y-81366662D01*
X129699323Y-81363662D01*
X129699323Y-81361662D01*
X129699323Y-81358662D01*
X129699323Y-79768662D01*
X129699323Y-79765662D01*
X129699323Y-79763662D01*
X129700323Y-79760662D01*
X129700323Y-79758662D01*
X129701323Y-79755662D01*
X129701323Y-79753662D01*
X129702323Y-79750662D01*
X129703323Y-79748662D01*
X129704323Y-79745662D01*
X129706323Y-79743662D01*
X129707323Y-79741662D01*
X129709323Y-79739662D01*
X129710323Y-79737662D01*
X129712323Y-79735662D01*
X129714323Y-79733662D01*
X129716323Y-79731662D01*
X129718323Y-79729662D01*
X129720323Y-79728662D01*
X129722323Y-79726662D01*
X129724323Y-79725662D01*
X129726323Y-79723662D01*
X129729323Y-79722662D01*
X129731323Y-79721662D01*
X129734323Y-79720662D01*
X129736323Y-79720662D01*
X129739323Y-79719662D01*
X129741323Y-79719662D01*
X129744323Y-79718662D01*
X129746323Y-79718662D01*
X129749323Y-79718662D01*
X130389323Y-79718662D01*
X130392323Y-79718662D01*
X130394323Y-79718662D01*
X130397323Y-79719662D01*
G37*
X130397323Y-85119662D02*
X130399323Y-85119662D01*
X130402323Y-85120662D01*
X130404323Y-85120662D01*
X130407323Y-85121662D01*
X130409323Y-85122662D01*
X130412323Y-85123662D01*
X130414323Y-85125662D01*
X130416323Y-85126662D01*
X130418323Y-85128662D01*
X130420323Y-85129662D01*
X130422323Y-85131662D01*
X130424323Y-85133662D01*
X130426323Y-85135662D01*
X130428323Y-85137662D01*
X130429323Y-85139662D01*
X130431323Y-85141662D01*
X130432323Y-85143662D01*
X130434323Y-85145662D01*
X130435323Y-85148662D01*
X130436323Y-85150662D01*
X130437323Y-85153662D01*
X130437323Y-85155662D01*
X130438323Y-85158662D01*
X130438323Y-85160662D01*
X130439323Y-85163662D01*
X130439323Y-85165662D01*
X130439323Y-85168662D01*
X130439323Y-86758662D01*
X130439323Y-86761662D01*
X130439323Y-86763662D01*
X130438323Y-86766662D01*
X130438323Y-86768662D01*
X130437323Y-86771662D01*
X130437323Y-86773662D01*
X130436323Y-86776662D01*
X130435323Y-86778662D01*
X130434323Y-86781662D01*
X130432323Y-86783662D01*
X130431323Y-86785662D01*
X130429323Y-86787662D01*
X130428323Y-86789662D01*
X130426323Y-86791662D01*
X130424323Y-86793662D01*
X130422323Y-86795662D01*
X130420323Y-86797662D01*
X130418323Y-86798662D01*
X130416323Y-86800662D01*
X130414323Y-86801662D01*
X130412323Y-86803662D01*
X130409323Y-86804662D01*
X130407323Y-86805662D01*
X130404323Y-86806662D01*
X130402323Y-86806662D01*
X130399323Y-86807662D01*
X130397323Y-86807662D01*
X130394323Y-86808662D01*
X130392323Y-86808662D01*
X130389323Y-86808662D01*
X129749323Y-86808662D01*
X129746323Y-86808662D01*
X129744323Y-86808662D01*
X129741323Y-86807662D01*
X129739323Y-86807662D01*
X129736323Y-86806662D01*
X129734323Y-86806662D01*
X129731323Y-86805662D01*
X129729323Y-86804662D01*
X129726323Y-86803662D01*
X129724323Y-86801662D01*
X129722323Y-86800662D01*
X129720323Y-86798662D01*
X129718323Y-86797662D01*
X129716323Y-86795662D01*
X129714323Y-86793662D01*
X129712323Y-86791662D01*
X129710323Y-86789662D01*
X129709323Y-86787662D01*
X129707323Y-86785662D01*
X129706323Y-86783662D01*
X129704323Y-86781662D01*
X129703323Y-86778662D01*
X129702323Y-86776662D01*
X129701323Y-86773662D01*
X129701323Y-86771662D01*
X129700323Y-86768662D01*
X129700323Y-86766662D01*
X129699323Y-86763662D01*
X129699323Y-86761662D01*
X129699323Y-86758662D01*
X129699323Y-85168662D01*
X129699323Y-85165662D01*
X129699323Y-85163662D01*
X129700323Y-85160662D01*
X129700323Y-85158662D01*
X129701323Y-85155662D01*
X129701323Y-85153662D01*
X129702323Y-85150662D01*
X129703323Y-85148662D01*
X129704323Y-85145662D01*
X129706323Y-85143662D01*
X129707323Y-85141662D01*
X129709323Y-85139662D01*
X129710323Y-85137662D01*
X129712323Y-85135662D01*
X129714323Y-85133662D01*
X129716323Y-85131662D01*
X129718323Y-85129662D01*
X129720323Y-85128662D01*
X129722323Y-85126662D01*
X129724323Y-85125662D01*
X129726323Y-85123662D01*
X129729323Y-85122662D01*
X129731323Y-85121662D01*
X129734323Y-85120662D01*
X129736323Y-85120662D01*
X129739323Y-85119662D01*
X129741323Y-85119662D01*
X129744323Y-85118662D01*
X129746323Y-85118662D01*
X129749323Y-85118662D01*
X130389323Y-85118662D01*
X130392323Y-85118662D01*
X130394323Y-85118662D01*
X130397323Y-85119662D01*
G36*
X130397323Y-85119662D02*
G01*
X130399323Y-85119662D01*
X130402323Y-85120662D01*
X130404323Y-85120662D01*
X130407323Y-85121662D01*
X130409323Y-85122662D01*
X130412323Y-85123662D01*
X130414323Y-85125662D01*
X130416323Y-85126662D01*
X130418323Y-85128662D01*
X130420323Y-85129662D01*
X130422323Y-85131662D01*
X130424323Y-85133662D01*
X130426323Y-85135662D01*
X130428323Y-85137662D01*
X130429323Y-85139662D01*
X130431323Y-85141662D01*
X130432323Y-85143662D01*
X130434323Y-85145662D01*
X130435323Y-85148662D01*
X130436323Y-85150662D01*
X130437323Y-85153662D01*
X130437323Y-85155662D01*
X130438323Y-85158662D01*
X130438323Y-85160662D01*
X130439323Y-85163662D01*
X130439323Y-85165662D01*
X130439323Y-85168662D01*
X130439323Y-86758662D01*
X130439323Y-86761662D01*
X130439323Y-86763662D01*
X130438323Y-86766662D01*
X130438323Y-86768662D01*
X130437323Y-86771662D01*
X130437323Y-86773662D01*
X130436323Y-86776662D01*
X130435323Y-86778662D01*
X130434323Y-86781662D01*
X130432323Y-86783662D01*
X130431323Y-86785662D01*
X130429323Y-86787662D01*
X130428323Y-86789662D01*
X130426323Y-86791662D01*
X130424323Y-86793662D01*
X130422323Y-86795662D01*
X130420323Y-86797662D01*
X130418323Y-86798662D01*
X130416323Y-86800662D01*
X130414323Y-86801662D01*
X130412323Y-86803662D01*
X130409323Y-86804662D01*
X130407323Y-86805662D01*
X130404323Y-86806662D01*
X130402323Y-86806662D01*
X130399323Y-86807662D01*
X130397323Y-86807662D01*
X130394323Y-86808662D01*
X130392323Y-86808662D01*
X130389323Y-86808662D01*
X129749323Y-86808662D01*
X129746323Y-86808662D01*
X129744323Y-86808662D01*
X129741323Y-86807662D01*
X129739323Y-86807662D01*
X129736323Y-86806662D01*
X129734323Y-86806662D01*
X129731323Y-86805662D01*
X129729323Y-86804662D01*
X129726323Y-86803662D01*
X129724323Y-86801662D01*
X129722323Y-86800662D01*
X129720323Y-86798662D01*
X129718323Y-86797662D01*
X129716323Y-86795662D01*
X129714323Y-86793662D01*
X129712323Y-86791662D01*
X129710323Y-86789662D01*
X129709323Y-86787662D01*
X129707323Y-86785662D01*
X129706323Y-86783662D01*
X129704323Y-86781662D01*
X129703323Y-86778662D01*
X129702323Y-86776662D01*
X129701323Y-86773662D01*
X129701323Y-86771662D01*
X129700323Y-86768662D01*
X129700323Y-86766662D01*
X129699323Y-86763662D01*
X129699323Y-86761662D01*
X129699323Y-86758662D01*
X129699323Y-85168662D01*
X129699323Y-85165662D01*
X129699323Y-85163662D01*
X129700323Y-85160662D01*
X129700323Y-85158662D01*
X129701323Y-85155662D01*
X129701323Y-85153662D01*
X129702323Y-85150662D01*
X129703323Y-85148662D01*
X129704323Y-85145662D01*
X129706323Y-85143662D01*
X129707323Y-85141662D01*
X129709323Y-85139662D01*
X129710323Y-85137662D01*
X129712323Y-85135662D01*
X129714323Y-85133662D01*
X129716323Y-85131662D01*
X129718323Y-85129662D01*
X129720323Y-85128662D01*
X129722323Y-85126662D01*
X129724323Y-85125662D01*
X129726323Y-85123662D01*
X129729323Y-85122662D01*
X129731323Y-85121662D01*
X129734323Y-85120662D01*
X129736323Y-85120662D01*
X129739323Y-85119662D01*
X129741323Y-85119662D01*
X129744323Y-85118662D01*
X129746323Y-85118662D01*
X129749323Y-85118662D01*
X130389323Y-85118662D01*
X130392323Y-85118662D01*
X130394323Y-85118662D01*
X130397323Y-85119662D01*
G37*
X131667323Y-79719662D02*
X131669323Y-79719662D01*
X131672323Y-79720662D01*
X131674323Y-79720662D01*
X131677323Y-79721662D01*
X131679323Y-79722662D01*
X131682323Y-79723662D01*
X131684323Y-79725662D01*
X131686323Y-79726662D01*
X131688323Y-79728662D01*
X131690323Y-79729662D01*
X131692323Y-79731662D01*
X131694323Y-79733662D01*
X131696323Y-79735662D01*
X131698323Y-79737662D01*
X131699323Y-79739662D01*
X131701323Y-79741662D01*
X131702323Y-79743662D01*
X131704323Y-79745662D01*
X131705323Y-79748662D01*
X131706323Y-79750662D01*
X131707323Y-79753662D01*
X131707323Y-79755662D01*
X131708323Y-79758662D01*
X131708323Y-79760662D01*
X131709323Y-79763662D01*
X131709323Y-79765662D01*
X131709323Y-79768662D01*
X131709323Y-81358662D01*
X131709323Y-81361662D01*
X131709323Y-81363662D01*
X131708323Y-81366662D01*
X131708323Y-81368662D01*
X131707323Y-81371662D01*
X131707323Y-81373662D01*
X131706323Y-81376662D01*
X131705323Y-81378662D01*
X131704323Y-81381662D01*
X131702323Y-81383662D01*
X131701323Y-81385662D01*
X131699323Y-81387662D01*
X131698323Y-81389662D01*
X131696323Y-81391662D01*
X131694323Y-81393662D01*
X131692323Y-81395662D01*
X131690323Y-81397662D01*
X131688323Y-81398662D01*
X131686323Y-81400662D01*
X131684323Y-81401662D01*
X131682323Y-81403662D01*
X131679323Y-81404662D01*
X131677323Y-81405662D01*
X131674323Y-81406662D01*
X131672323Y-81406662D01*
X131669323Y-81407662D01*
X131667323Y-81407662D01*
X131664323Y-81408662D01*
X131662323Y-81408662D01*
X131659323Y-81408662D01*
X131019323Y-81408662D01*
X131016323Y-81408662D01*
X131014323Y-81408662D01*
X131011323Y-81407662D01*
X131009323Y-81407662D01*
X131006323Y-81406662D01*
X131004323Y-81406662D01*
X131001323Y-81405662D01*
X130999323Y-81404662D01*
X130996323Y-81403662D01*
X130994323Y-81401662D01*
X130992323Y-81400662D01*
X130990323Y-81398662D01*
X130988323Y-81397662D01*
X130986323Y-81395662D01*
X130984323Y-81393662D01*
X130982323Y-81391662D01*
X130980323Y-81389662D01*
X130979323Y-81387662D01*
X130977323Y-81385662D01*
X130976323Y-81383662D01*
X130974323Y-81381662D01*
X130973323Y-81378662D01*
X130972323Y-81376662D01*
X130971323Y-81373662D01*
X130971323Y-81371662D01*
X130970323Y-81368662D01*
X130970323Y-81366662D01*
X130969323Y-81363662D01*
X130969323Y-81361662D01*
X130969323Y-81358662D01*
X130969323Y-79768662D01*
X130969323Y-79765662D01*
X130969323Y-79763662D01*
X130970323Y-79760662D01*
X130970323Y-79758662D01*
X130971323Y-79755662D01*
X130971323Y-79753662D01*
X130972323Y-79750662D01*
X130973323Y-79748662D01*
X130974323Y-79745662D01*
X130976323Y-79743662D01*
X130977323Y-79741662D01*
X130979323Y-79739662D01*
X130980323Y-79737662D01*
X130982323Y-79735662D01*
X130984323Y-79733662D01*
X130986323Y-79731662D01*
X130988323Y-79729662D01*
X130990323Y-79728662D01*
X130992323Y-79726662D01*
X130994323Y-79725662D01*
X130996323Y-79723662D01*
X130999323Y-79722662D01*
X131001323Y-79721662D01*
X131004323Y-79720662D01*
X131006323Y-79720662D01*
X131009323Y-79719662D01*
X131011323Y-79719662D01*
X131014323Y-79718662D01*
X131016323Y-79718662D01*
X131019323Y-79718662D01*
X131659323Y-79718662D01*
X131662323Y-79718662D01*
X131664323Y-79718662D01*
X131667323Y-79719662D01*
G36*
X131667323Y-79719662D02*
G01*
X131669323Y-79719662D01*
X131672323Y-79720662D01*
X131674323Y-79720662D01*
X131677323Y-79721662D01*
X131679323Y-79722662D01*
X131682323Y-79723662D01*
X131684323Y-79725662D01*
X131686323Y-79726662D01*
X131688323Y-79728662D01*
X131690323Y-79729662D01*
X131692323Y-79731662D01*
X131694323Y-79733662D01*
X131696323Y-79735662D01*
X131698323Y-79737662D01*
X131699323Y-79739662D01*
X131701323Y-79741662D01*
X131702323Y-79743662D01*
X131704323Y-79745662D01*
X131705323Y-79748662D01*
X131706323Y-79750662D01*
X131707323Y-79753662D01*
X131707323Y-79755662D01*
X131708323Y-79758662D01*
X131708323Y-79760662D01*
X131709323Y-79763662D01*
X131709323Y-79765662D01*
X131709323Y-79768662D01*
X131709323Y-81358662D01*
X131709323Y-81361662D01*
X131709323Y-81363662D01*
X131708323Y-81366662D01*
X131708323Y-81368662D01*
X131707323Y-81371662D01*
X131707323Y-81373662D01*
X131706323Y-81376662D01*
X131705323Y-81378662D01*
X131704323Y-81381662D01*
X131702323Y-81383662D01*
X131701323Y-81385662D01*
X131699323Y-81387662D01*
X131698323Y-81389662D01*
X131696323Y-81391662D01*
X131694323Y-81393662D01*
X131692323Y-81395662D01*
X131690323Y-81397662D01*
X131688323Y-81398662D01*
X131686323Y-81400662D01*
X131684323Y-81401662D01*
X131682323Y-81403662D01*
X131679323Y-81404662D01*
X131677323Y-81405662D01*
X131674323Y-81406662D01*
X131672323Y-81406662D01*
X131669323Y-81407662D01*
X131667323Y-81407662D01*
X131664323Y-81408662D01*
X131662323Y-81408662D01*
X131659323Y-81408662D01*
X131019323Y-81408662D01*
X131016323Y-81408662D01*
X131014323Y-81408662D01*
X131011323Y-81407662D01*
X131009323Y-81407662D01*
X131006323Y-81406662D01*
X131004323Y-81406662D01*
X131001323Y-81405662D01*
X130999323Y-81404662D01*
X130996323Y-81403662D01*
X130994323Y-81401662D01*
X130992323Y-81400662D01*
X130990323Y-81398662D01*
X130988323Y-81397662D01*
X130986323Y-81395662D01*
X130984323Y-81393662D01*
X130982323Y-81391662D01*
X130980323Y-81389662D01*
X130979323Y-81387662D01*
X130977323Y-81385662D01*
X130976323Y-81383662D01*
X130974323Y-81381662D01*
X130973323Y-81378662D01*
X130972323Y-81376662D01*
X130971323Y-81373662D01*
X130971323Y-81371662D01*
X130970323Y-81368662D01*
X130970323Y-81366662D01*
X130969323Y-81363662D01*
X130969323Y-81361662D01*
X130969323Y-81358662D01*
X130969323Y-79768662D01*
X130969323Y-79765662D01*
X130969323Y-79763662D01*
X130970323Y-79760662D01*
X130970323Y-79758662D01*
X130971323Y-79755662D01*
X130971323Y-79753662D01*
X130972323Y-79750662D01*
X130973323Y-79748662D01*
X130974323Y-79745662D01*
X130976323Y-79743662D01*
X130977323Y-79741662D01*
X130979323Y-79739662D01*
X130980323Y-79737662D01*
X130982323Y-79735662D01*
X130984323Y-79733662D01*
X130986323Y-79731662D01*
X130988323Y-79729662D01*
X130990323Y-79728662D01*
X130992323Y-79726662D01*
X130994323Y-79725662D01*
X130996323Y-79723662D01*
X130999323Y-79722662D01*
X131001323Y-79721662D01*
X131004323Y-79720662D01*
X131006323Y-79720662D01*
X131009323Y-79719662D01*
X131011323Y-79719662D01*
X131014323Y-79718662D01*
X131016323Y-79718662D01*
X131019323Y-79718662D01*
X131659323Y-79718662D01*
X131662323Y-79718662D01*
X131664323Y-79718662D01*
X131667323Y-79719662D01*
G37*
X131667323Y-85119662D02*
X131669323Y-85119662D01*
X131672323Y-85120662D01*
X131674323Y-85120662D01*
X131677323Y-85121662D01*
X131679323Y-85122662D01*
X131682323Y-85123662D01*
X131684323Y-85125662D01*
X131686323Y-85126662D01*
X131688323Y-85128662D01*
X131690323Y-85129662D01*
X131692323Y-85131662D01*
X131694323Y-85133662D01*
X131696323Y-85135662D01*
X131698323Y-85137662D01*
X131699323Y-85139662D01*
X131701323Y-85141662D01*
X131702323Y-85143662D01*
X131704323Y-85145662D01*
X131705323Y-85148662D01*
X131706323Y-85150662D01*
X131707323Y-85153662D01*
X131707323Y-85155662D01*
X131708323Y-85158662D01*
X131708323Y-85160662D01*
X131709323Y-85163662D01*
X131709323Y-85165662D01*
X131709323Y-85168662D01*
X131709323Y-86758662D01*
X131709323Y-86761662D01*
X131709323Y-86763662D01*
X131708323Y-86766662D01*
X131708323Y-86768662D01*
X131707323Y-86771662D01*
X131707323Y-86773662D01*
X131706323Y-86776662D01*
X131705323Y-86778662D01*
X131704323Y-86781662D01*
X131702323Y-86783662D01*
X131701323Y-86785662D01*
X131699323Y-86787662D01*
X131698323Y-86789662D01*
X131696323Y-86791662D01*
X131694323Y-86793662D01*
X131692323Y-86795662D01*
X131690323Y-86797662D01*
X131688323Y-86798662D01*
X131686323Y-86800662D01*
X131684323Y-86801662D01*
X131682323Y-86803662D01*
X131679323Y-86804662D01*
X131677323Y-86805662D01*
X131674323Y-86806662D01*
X131672323Y-86806662D01*
X131669323Y-86807662D01*
X131667323Y-86807662D01*
X131664323Y-86808662D01*
X131662323Y-86808662D01*
X131659323Y-86808662D01*
X131019323Y-86808662D01*
X131016323Y-86808662D01*
X131014323Y-86808662D01*
X131011323Y-86807662D01*
X131009323Y-86807662D01*
X131006323Y-86806662D01*
X131004323Y-86806662D01*
X131001323Y-86805662D01*
X130999323Y-86804662D01*
X130996323Y-86803662D01*
X130994323Y-86801662D01*
X130992323Y-86800662D01*
X130990323Y-86798662D01*
X130988323Y-86797662D01*
X130986323Y-86795662D01*
X130984323Y-86793662D01*
X130982323Y-86791662D01*
X130980323Y-86789662D01*
X130979323Y-86787662D01*
X130977323Y-86785662D01*
X130976323Y-86783662D01*
X130974323Y-86781662D01*
X130973323Y-86778662D01*
X130972323Y-86776662D01*
X130971323Y-86773662D01*
X130971323Y-86771662D01*
X130970323Y-86768662D01*
X130970323Y-86766662D01*
X130969323Y-86763662D01*
X130969323Y-86761662D01*
X130969323Y-86758662D01*
X130969323Y-85168662D01*
X130969323Y-85165662D01*
X130969323Y-85163662D01*
X130970323Y-85160662D01*
X130970323Y-85158662D01*
X130971323Y-85155662D01*
X130971323Y-85153662D01*
X130972323Y-85150662D01*
X130973323Y-85148662D01*
X130974323Y-85145662D01*
X130976323Y-85143662D01*
X130977323Y-85141662D01*
X130979323Y-85139662D01*
X130980323Y-85137662D01*
X130982323Y-85135662D01*
X130984323Y-85133662D01*
X130986323Y-85131662D01*
X130988323Y-85129662D01*
X130990323Y-85128662D01*
X130992323Y-85126662D01*
X130994323Y-85125662D01*
X130996323Y-85123662D01*
X130999323Y-85122662D01*
X131001323Y-85121662D01*
X131004323Y-85120662D01*
X131006323Y-85120662D01*
X131009323Y-85119662D01*
X131011323Y-85119662D01*
X131014323Y-85118662D01*
X131016323Y-85118662D01*
X131019323Y-85118662D01*
X131659323Y-85118662D01*
X131662323Y-85118662D01*
X131664323Y-85118662D01*
X131667323Y-85119662D01*
G36*
X131667323Y-85119662D02*
G01*
X131669323Y-85119662D01*
X131672323Y-85120662D01*
X131674323Y-85120662D01*
X131677323Y-85121662D01*
X131679323Y-85122662D01*
X131682323Y-85123662D01*
X131684323Y-85125662D01*
X131686323Y-85126662D01*
X131688323Y-85128662D01*
X131690323Y-85129662D01*
X131692323Y-85131662D01*
X131694323Y-85133662D01*
X131696323Y-85135662D01*
X131698323Y-85137662D01*
X131699323Y-85139662D01*
X131701323Y-85141662D01*
X131702323Y-85143662D01*
X131704323Y-85145662D01*
X131705323Y-85148662D01*
X131706323Y-85150662D01*
X131707323Y-85153662D01*
X131707323Y-85155662D01*
X131708323Y-85158662D01*
X131708323Y-85160662D01*
X131709323Y-85163662D01*
X131709323Y-85165662D01*
X131709323Y-85168662D01*
X131709323Y-86758662D01*
X131709323Y-86761662D01*
X131709323Y-86763662D01*
X131708323Y-86766662D01*
X131708323Y-86768662D01*
X131707323Y-86771662D01*
X131707323Y-86773662D01*
X131706323Y-86776662D01*
X131705323Y-86778662D01*
X131704323Y-86781662D01*
X131702323Y-86783662D01*
X131701323Y-86785662D01*
X131699323Y-86787662D01*
X131698323Y-86789662D01*
X131696323Y-86791662D01*
X131694323Y-86793662D01*
X131692323Y-86795662D01*
X131690323Y-86797662D01*
X131688323Y-86798662D01*
X131686323Y-86800662D01*
X131684323Y-86801662D01*
X131682323Y-86803662D01*
X131679323Y-86804662D01*
X131677323Y-86805662D01*
X131674323Y-86806662D01*
X131672323Y-86806662D01*
X131669323Y-86807662D01*
X131667323Y-86807662D01*
X131664323Y-86808662D01*
X131662323Y-86808662D01*
X131659323Y-86808662D01*
X131019323Y-86808662D01*
X131016323Y-86808662D01*
X131014323Y-86808662D01*
X131011323Y-86807662D01*
X131009323Y-86807662D01*
X131006323Y-86806662D01*
X131004323Y-86806662D01*
X131001323Y-86805662D01*
X130999323Y-86804662D01*
X130996323Y-86803662D01*
X130994323Y-86801662D01*
X130992323Y-86800662D01*
X130990323Y-86798662D01*
X130988323Y-86797662D01*
X130986323Y-86795662D01*
X130984323Y-86793662D01*
X130982323Y-86791662D01*
X130980323Y-86789662D01*
X130979323Y-86787662D01*
X130977323Y-86785662D01*
X130976323Y-86783662D01*
X130974323Y-86781662D01*
X130973323Y-86778662D01*
X130972323Y-86776662D01*
X130971323Y-86773662D01*
X130971323Y-86771662D01*
X130970323Y-86768662D01*
X130970323Y-86766662D01*
X130969323Y-86763662D01*
X130969323Y-86761662D01*
X130969323Y-86758662D01*
X130969323Y-85168662D01*
X130969323Y-85165662D01*
X130969323Y-85163662D01*
X130970323Y-85160662D01*
X130970323Y-85158662D01*
X130971323Y-85155662D01*
X130971323Y-85153662D01*
X130972323Y-85150662D01*
X130973323Y-85148662D01*
X130974323Y-85145662D01*
X130976323Y-85143662D01*
X130977323Y-85141662D01*
X130979323Y-85139662D01*
X130980323Y-85137662D01*
X130982323Y-85135662D01*
X130984323Y-85133662D01*
X130986323Y-85131662D01*
X130988323Y-85129662D01*
X130990323Y-85128662D01*
X130992323Y-85126662D01*
X130994323Y-85125662D01*
X130996323Y-85123662D01*
X130999323Y-85122662D01*
X131001323Y-85121662D01*
X131004323Y-85120662D01*
X131006323Y-85120662D01*
X131009323Y-85119662D01*
X131011323Y-85119662D01*
X131014323Y-85118662D01*
X131016323Y-85118662D01*
X131019323Y-85118662D01*
X131659323Y-85118662D01*
X131662323Y-85118662D01*
X131664323Y-85118662D01*
X131667323Y-85119662D01*
G37*
%TO.C,JP4*%
G36*
X140329365Y-85047577D02*
G01*
X141829365Y-85047577D01*
X141829365Y-85347577D01*
X140329365Y-85347577D01*
X140329365Y-85047577D01*
G37*
%TO.C,JP5*%
G36*
X135053484Y-90745875D02*
G01*
X135353484Y-90745875D01*
X135353484Y-89245875D01*
X135053484Y-89245875D01*
X135053484Y-90745875D01*
G37*
%TD*%
D11*
%TO.C,H1*%
X185000000Y-95000000D03*
%TD*%
D12*
%TO.C,U7*%
X114877049Y-84366123D03*
X114877049Y-88066123D03*
D13*
X114877049Y-92366123D03*
X114877049Y-96066123D03*
%TD*%
D11*
%TO.C,H4*%
X185000000Y-52000000D03*
%TD*%
D14*
%TO.C,J13*%
X168148000Y-84074000D03*
D15*
X170688000Y-84074000D03*
X173228000Y-84074000D03*
X175768000Y-84074000D03*
%TD*%
D16*
%TO.C,M2*%
X150448000Y-93980000D03*
D17*
X155448000Y-93980000D03*
%TD*%
D18*
%TO.C,J1*%
X187987988Y-39817150D03*
D19*
X187987988Y-42357150D03*
X187987988Y-44897150D03*
X187987988Y-47437150D03*
%TD*%
D18*
%TO.C,J5*%
X133985000Y-42672000D03*
D19*
X136525000Y-42672000D03*
X139065000Y-42672000D03*
X141605000Y-42672000D03*
%TD*%
D20*
%TO.C,J9*%
X120944000Y-43180000D03*
D21*
X123444000Y-43180000D03*
X125944000Y-43180000D03*
%TD*%
D20*
%TO.C,J12*%
X163743000Y-42528000D03*
D21*
X166243000Y-42528000D03*
X168743000Y-42528000D03*
%TD*%
D22*
%TO.C,J11*%
X117313143Y-75408302D03*
D23*
X111013143Y-75408302D03*
D24*
X114413143Y-80208302D03*
%TD*%
D18*
%TO.C,J20*%
X147330000Y-42647000D03*
D19*
X149870000Y-42647000D03*
X152410000Y-42647000D03*
X154950000Y-42647000D03*
%TD*%
D18*
%TO.C,J8*%
X174498000Y-65786000D03*
D19*
X171958000Y-65786000D03*
X169418000Y-65786000D03*
X166878000Y-65786000D03*
%TD*%
D18*
%TO.C,J6*%
X177546000Y-60198000D03*
D19*
X175006000Y-60198000D03*
X172466000Y-60198000D03*
X169926000Y-60198000D03*
X167386000Y-60198000D03*
%TD*%
D25*
%TO.C,U12*%
X184150000Y-40132000D03*
D26*
X184150000Y-42672000D03*
X184150000Y-45212000D03*
%TD*%
D18*
%TO.C,J4*%
X178308000Y-66553000D03*
D19*
X178308000Y-64013000D03*
%TD*%
D11*
%TO.C,H3*%
X105000000Y-52000000D03*
%TD*%
D27*
%TO.C,J15*%
X183642000Y-74295000D03*
D19*
X183642000Y-76835000D03*
X181102000Y-74295000D03*
X181102000Y-76835000D03*
X178562000Y-74295000D03*
X178562000Y-76835000D03*
X176022000Y-74295000D03*
X176022000Y-76835000D03*
X173482000Y-74295000D03*
X173482000Y-76835000D03*
%TD*%
D28*
%TO.C,J19*%
X136110000Y-50730000D03*
D19*
X136110000Y-48190000D03*
X138650000Y-50730000D03*
X138650000Y-48190000D03*
X141190000Y-50730000D03*
X141190000Y-48190000D03*
X143730000Y-50730000D03*
X143730000Y-48190000D03*
X146270000Y-50730000D03*
X146270000Y-48190000D03*
X148810000Y-50730000D03*
X148810000Y-48190000D03*
X151350000Y-50730000D03*
X151350000Y-48190000D03*
X153890000Y-50730000D03*
X153890000Y-48190000D03*
%TD*%
D16*
%TO.C,M1*%
X162132000Y-94109500D03*
D17*
X167132000Y-94109500D03*
%TD*%
D29*
%TO.C,J10*%
X106680000Y-83900000D03*
D17*
X106680000Y-88900000D03*
%TD*%
D18*
%TO.C,J17*%
X159258000Y-78486000D03*
D19*
X161798000Y-78486000D03*
X164338000Y-78486000D03*
%TD*%
D14*
%TO.C,J14*%
X179832000Y-84074000D03*
D15*
X182372000Y-84074000D03*
X184912000Y-84074000D03*
X187452000Y-84074000D03*
%TD*%
D11*
%TO.C,H2*%
X105000000Y-95000000D03*
%TD*%
D30*
%TO.C,SW1*%
X159040000Y-66548000D03*
X159040000Y-60048000D03*
X163540000Y-66548000D03*
X163540000Y-60048000D03*
%TD*%
D31*
%TO.C,SW2*%
X106426000Y-59937574D03*
X106426000Y-68137574D03*
D13*
X106426000Y-62037574D03*
D32*
X106426000Y-64037574D03*
X106426000Y-66037574D03*
%TD*%
D27*
%TO.C,J16*%
X176276000Y-51308000D03*
D19*
X176276000Y-53848000D03*
X173736000Y-51308000D03*
X173736000Y-53848000D03*
X171196000Y-51308000D03*
X171196000Y-53848000D03*
X168656000Y-51308000D03*
X168656000Y-53848000D03*
X166116000Y-51308000D03*
X166116000Y-53848000D03*
%TD*%
D18*
%TO.C,J18*%
X159019000Y-74422000D03*
D19*
X161559000Y-74422000D03*
X164099000Y-74422000D03*
%TD*%
D33*
%TO.C,C40*%
X127000000Y-69696500D03*
X127000000Y-67971500D03*
%TD*%
D34*
%TO.C,FB1*%
X148844000Y-73359500D03*
X148844000Y-75484500D03*
%TD*%
D35*
%TO.C,JP3*%
X154286265Y-83873346D03*
D36*
X154286265Y-85173346D03*
%TD*%
D37*
%TO.C,R79*%
X181864000Y-40743500D03*
X181864000Y-42568500D03*
%TD*%
D38*
%TO.C,R20*%
X144889365Y-90167577D03*
X144889365Y-84067577D03*
%TD*%
D39*
%TO.C,U2*%
X162433000Y-87041000D03*
D40*
X160528000Y-84166000D03*
X161798000Y-84166000D03*
X163068000Y-84166000D03*
X164338000Y-84166000D03*
X164338000Y-89916000D03*
X163068000Y-89916000D03*
X161798000Y-89916000D03*
X160528000Y-89916000D03*
D41*
X163733000Y-86391000D03*
X162433000Y-86391000D03*
X161133000Y-86391000D03*
X163733000Y-87691000D03*
X162433000Y-87691000D03*
X161133000Y-87691000D03*
%TD*%
D42*
%TO.C,R63*%
X125222000Y-69746500D03*
X125222000Y-67921500D03*
%TD*%
D43*
%TO.C,C25*%
X138430000Y-90985000D03*
X138430000Y-92710000D03*
%TD*%
D44*
%TO.C,R51*%
X119784500Y-59436000D03*
X117959500Y-59436000D03*
%TD*%
%TO.C,R47*%
X137056500Y-84800000D03*
X135231500Y-84800000D03*
%TD*%
D45*
%TO.C,C34*%
X114387500Y-65250000D03*
X116112500Y-65250000D03*
%TD*%
D46*
%TO.C,R83*%
X168759500Y-81534000D03*
X170584500Y-81534000D03*
%TD*%
D38*
%TO.C,R6*%
X157599261Y-89894546D03*
X157599261Y-83794546D03*
%TD*%
D37*
%TO.C,R55*%
X111800000Y-68087500D03*
X111800000Y-69912500D03*
%TD*%
D43*
%TO.C,C2*%
X150876000Y-73713000D03*
X150876000Y-75438000D03*
%TD*%
D47*
%TO.C,C1*%
X148590000Y-55901500D03*
X148590000Y-53826500D03*
%TD*%
D44*
%TO.C,R61*%
X134008500Y-66294000D03*
X132183500Y-66294000D03*
%TD*%
D46*
%TO.C,R81*%
X179681500Y-86360000D03*
X181506500Y-86360000D03*
%TD*%
D39*
%TO.C,U4*%
X149969365Y-87117577D03*
D40*
X148064365Y-84242577D03*
X149334365Y-84242577D03*
X150604365Y-84242577D03*
X151874365Y-84242577D03*
X151874365Y-89992577D03*
X150604365Y-89992577D03*
X149334365Y-89992577D03*
X148064365Y-89992577D03*
D41*
X151269365Y-86467577D03*
X149969365Y-86467577D03*
X148669365Y-86467577D03*
X151269365Y-87767577D03*
X149969365Y-87767577D03*
X148669365Y-87767577D03*
%TD*%
D48*
%TO.C,C46*%
X133958500Y-45085000D03*
X132233500Y-45085000D03*
%TD*%
D49*
%TO.C,U10*%
X132450000Y-72306506D03*
X131500000Y-72306506D03*
X130550000Y-72306506D03*
X130550000Y-70031506D03*
X131500000Y-70031506D03*
X132450000Y-70031506D03*
%TD*%
D50*
%TO.C,C20*%
X125760979Y-90020104D03*
X125760979Y-93145104D03*
%TD*%
D37*
%TO.C,R48*%
X133350000Y-84177500D03*
X133350000Y-86002500D03*
%TD*%
D51*
%TO.C,D18*%
X120142000Y-86712000D03*
X120142000Y-79912000D03*
%TD*%
D33*
%TO.C,C43*%
X147066000Y-71474500D03*
X147066000Y-69749500D03*
%TD*%
D52*
%TO.C,R2*%
X138446000Y-57150000D03*
X140446000Y-57150000D03*
%TD*%
D45*
%TO.C,C37*%
X128677500Y-75946000D03*
X130402500Y-75946000D03*
%TD*%
D43*
%TO.C,C6*%
X142800000Y-65937500D03*
X142800000Y-67662500D03*
%TD*%
D45*
%TO.C,C26*%
X114453500Y-59436000D03*
X116178500Y-59436000D03*
%TD*%
D33*
%TO.C,C7*%
X149098000Y-71474500D03*
X149098000Y-69749500D03*
%TD*%
D45*
%TO.C,C8*%
X150521500Y-56134000D03*
X152246500Y-56134000D03*
%TD*%
D42*
%TO.C,R9*%
X143891000Y-44854500D03*
X143891000Y-43029500D03*
%TD*%
%TO.C,R7*%
X137414000Y-80922500D03*
X137414000Y-79097500D03*
%TD*%
D48*
%TO.C,C44*%
X180086000Y-90678000D03*
X178361000Y-90678000D03*
%TD*%
D43*
%TO.C,C35*%
X134874000Y-68225500D03*
X134874000Y-69950500D03*
%TD*%
D53*
%TO.C,D1*%
X164338000Y-47131000D03*
X164338000Y-48881000D03*
%TD*%
D35*
%TO.C,JP4*%
X141079365Y-84547577D03*
D36*
X141079365Y-85847577D03*
%TD*%
D46*
%TO.C,R53*%
X117451500Y-57404000D03*
X119276500Y-57404000D03*
%TD*%
D43*
%TO.C,C5*%
X154800000Y-65585000D03*
X154800000Y-67310000D03*
%TD*%
D42*
%TO.C,R10*%
X145542000Y-44854500D03*
X145542000Y-43029500D03*
%TD*%
D54*
%TO.C,C45*%
X161505500Y-70104000D03*
X164630500Y-70104000D03*
%TD*%
D18*
%TO.C,J3*%
X115062000Y-46467000D03*
D19*
X115062000Y-43927000D03*
X115062000Y-41387000D03*
%TD*%
D37*
%TO.C,R8*%
X142240000Y-78335500D03*
X142240000Y-80160500D03*
%TD*%
D54*
%TO.C,C29*%
X118837500Y-67200000D03*
X121962500Y-67200000D03*
%TD*%
D45*
%TO.C,C33*%
X117501500Y-55626000D03*
X119226500Y-55626000D03*
%TD*%
D46*
%TO.C,R1*%
X135128000Y-86360000D03*
X136953000Y-86360000D03*
%TD*%
D42*
%TO.C,R62*%
X128778000Y-69850000D03*
X128778000Y-68025000D03*
%TD*%
D43*
%TO.C,C23*%
X125494659Y-80468275D03*
X125494659Y-82193275D03*
%TD*%
D52*
%TO.C,R4*%
X151400000Y-53848000D03*
X153400000Y-53848000D03*
%TD*%
D55*
%TO.C,C41*%
X174536500Y-69088000D03*
X171411500Y-69088000D03*
%TD*%
D46*
%TO.C,R82*%
X169013500Y-79502000D03*
X170838500Y-79502000D03*
%TD*%
D56*
%TO.C,D3*%
X139700000Y-79712000D03*
X139700000Y-74212000D03*
%TD*%
D57*
%TO.C,JP5*%
X134553484Y-89995875D03*
D58*
X135853484Y-89995875D03*
%TD*%
D46*
%TO.C,R80*%
X180189500Y-88138000D03*
X182014500Y-88138000D03*
%TD*%
D37*
%TO.C,R60*%
X128800000Y-64487500D03*
X128800000Y-66312500D03*
%TD*%
D47*
%TO.C,C3*%
X147828000Y-62251500D03*
X147828000Y-60176500D03*
%TD*%
D59*
%TO.C,C4*%
X139700000Y-59647000D03*
X139700000Y-61722000D03*
%TD*%
D45*
%TO.C,C30*%
X118771500Y-65000000D03*
X120496500Y-65000000D03*
%TD*%
D60*
%TO.C,Y1*%
X145048000Y-59033000D03*
X145048000Y-61933000D03*
X142748000Y-61933000D03*
X142748000Y-59033000D03*
%TD*%
D43*
%TO.C,C22*%
X131714719Y-90969662D03*
X131714719Y-92694662D03*
%TD*%
D54*
%TO.C,C36*%
X128485500Y-77978000D03*
X131610500Y-77978000D03*
%TD*%
D44*
%TO.C,R59*%
X133246500Y-68072000D03*
X131421500Y-68072000D03*
%TD*%
D33*
%TO.C,C9*%
X154033365Y-89504077D03*
X154033365Y-87779077D03*
%TD*%
D46*
%TO.C,R54*%
X114337500Y-67000000D03*
X116162500Y-67000000D03*
%TD*%
D18*
%TO.C,J7*%
X175768000Y-45451000D03*
D19*
X175768000Y-42911000D03*
X175768000Y-40371000D03*
%TD*%
D50*
%TO.C,C21*%
X128803209Y-90079523D03*
X128803209Y-93204523D03*
%TD*%
D46*
%TO.C,R52*%
X114337500Y-68750000D03*
X116162500Y-68750000D03*
%TD*%
D61*
%TO.C,D17*%
X122044705Y-90832550D03*
X122044705Y-94832550D03*
%TD*%
D62*
%TO.C,U9*%
X117464448Y-61293638D03*
X117464448Y-62243638D03*
X117464448Y-63193638D03*
X115189448Y-63193638D03*
X115189448Y-62243638D03*
X115189448Y-61293638D03*
%TD*%
D33*
%TO.C,C11*%
X166451199Y-89604577D03*
X166451199Y-87879577D03*
%TD*%
D42*
%TO.C,R49*%
X135382000Y-81684500D03*
X135382000Y-79859500D03*
%TD*%
D37*
%TO.C,R50*%
X133554389Y-80221352D03*
X133554389Y-82046352D03*
%TD*%
D50*
%TO.C,C38*%
X137000000Y-67437500D03*
X137000000Y-70562500D03*
%TD*%
M02*
