%TF.GenerationSoftware,KiCad,Pcbnew,9.0.5*%
%TF.CreationDate,2025-11-12T00:35:56+01:00*%
%TF.ProjectId,mobile_robot,6d6f6269-6c65-45f7-926f-626f742e6b69,rev?*%
%TF.SameCoordinates,Original*%
%TF.FileFunction,Paste,Bot*%
%TF.FilePolarity,Positive*%
%FSLAX46Y46*%
G04 Gerber Fmt 4.6, Leading zero omitted, Abs format (unit mm)*
G04 Created by KiCad (PCBNEW 9.0.5) date 2025-11-12 00:35:56*
%MOMM*%
%LPD*%
G01*
G04 APERTURE LIST*
G04 Aperture macros list*
%AMRoundRect*
0 Rectangle with rounded corners*
0 $1 Rounding radius*
0 $2 $3 $4 $5 $6 $7 $8 $9 X,Y pos of 4 corners*
0 Add a 4 corners polygon primitive as box body*
4,1,4,$2,$3,$4,$5,$6,$7,$8,$9,$2,$3,0*
0 Add four circle primitives for the rounded corners*
1,1,$1+$1,$2,$3*
1,1,$1+$1,$4,$5*
1,1,$1+$1,$6,$7*
1,1,$1+$1,$8,$9*
0 Add four rect primitives between the rounded corners*
20,1,$1+$1,$2,$3,$4,$5,0*
20,1,$1+$1,$4,$5,$6,$7,0*
20,1,$1+$1,$6,$7,$8,$9,0*
20,1,$1+$1,$8,$9,$2,$3,0*%
G04 Aperture macros list end*
%ADD10C,0.010000*%
%ADD11RoundRect,0.250000X-0.650000X0.800000X-0.650000X-0.800000X0.650000X-0.800000X0.650000X0.800000X0*%
%ADD12RoundRect,0.150000X0.150000X-0.512500X0.150000X0.512500X-0.150000X0.512500X-0.150000X-0.512500X0*%
%ADD13RoundRect,0.150000X0.512500X0.150000X-0.512500X0.150000X-0.512500X-0.150000X0.512500X-0.150000X0*%
%ADD14RoundRect,0.030000X-0.270000X0.745000X-0.270000X-0.745000X0.270000X-0.745000X0.270000X0.745000X0*%
%ADD15R,3.100000X2.400000*%
%ADD16R,0.500000X2.200000*%
%ADD17RoundRect,0.237500X-0.250000X-0.237500X0.250000X-0.237500X0.250000X0.237500X-0.250000X0.237500X0*%
%ADD18RoundRect,0.237500X-0.237500X0.250000X-0.237500X-0.250000X0.237500X-0.250000X0.237500X0.250000X0*%
%ADD19RoundRect,0.237500X0.237500X-0.250000X0.237500X0.250000X-0.237500X0.250000X-0.237500X-0.250000X0*%
%ADD20RoundRect,0.237500X0.250000X0.237500X-0.250000X0.237500X-0.250000X-0.237500X0.250000X-0.237500X0*%
%ADD21RoundRect,0.249999X1.425001X-0.450001X1.425001X0.450001X-1.425001X0.450001X-1.425001X-0.450001X0*%
%ADD22RoundRect,0.250000X-0.350000X-0.450000X0.350000X-0.450000X0.350000X0.450000X-0.350000X0.450000X0*%
%ADD23RoundRect,0.218750X-0.381250X0.218750X-0.381250X-0.218750X0.381250X-0.218750X0.381250X0.218750X0*%
%ADD24RoundRect,0.250000X-1.400000X-1.000000X1.400000X-1.000000X1.400000X1.000000X-1.400000X1.000000X0*%
%ADD25RoundRect,0.250000X-0.650000X1.000000X-0.650000X-1.000000X0.650000X-1.000000X0.650000X1.000000X0*%
%ADD26RoundRect,0.250000X0.600000X-1.400000X0.600000X1.400000X-0.600000X1.400000X-0.600000X-1.400000X0*%
%ADD27RoundRect,0.237500X-0.237500X0.287500X-0.237500X-0.287500X0.237500X-0.287500X0.237500X0.287500X0*%
%ADD28RoundRect,0.237500X0.300000X0.237500X-0.300000X0.237500X-0.300000X-0.237500X0.300000X-0.237500X0*%
%ADD29RoundRect,0.250000X-0.412500X-0.650000X0.412500X-0.650000X0.412500X0.650000X-0.412500X0.650000X0*%
%ADD30RoundRect,0.237500X0.237500X-0.300000X0.237500X0.300000X-0.237500X0.300000X-0.237500X-0.300000X0*%
%ADD31RoundRect,0.250000X0.412500X0.650000X-0.412500X0.650000X-0.412500X-0.650000X0.412500X-0.650000X0*%
%ADD32RoundRect,0.250000X-0.650000X0.412500X-0.650000X-0.412500X0.650000X-0.412500X0.650000X0.412500X0*%
%ADD33RoundRect,0.237500X-0.300000X-0.237500X0.300000X-0.237500X0.300000X0.237500X-0.300000X0.237500X0*%
%ADD34RoundRect,0.237500X-0.237500X0.300000X-0.237500X-0.300000X0.237500X-0.300000X0.237500X0.300000X0*%
%ADD35RoundRect,0.250000X-0.475000X0.337500X-0.475000X-0.337500X0.475000X-0.337500X0.475000X0.337500X0*%
%ADD36RoundRect,0.250000X0.475000X-0.337500X0.475000X0.337500X-0.475000X0.337500X-0.475000X-0.337500X0*%
G04 APERTURE END LIST*
D10*
%TO.C,U8*%
X130984323Y-84563662D02*
X127884323Y-84563662D01*
X127884323Y-81963662D01*
X130984323Y-81963662D01*
X130984323Y-84563662D01*
G36*
X130984323Y-84563662D02*
G01*
X127884323Y-84563662D01*
X127884323Y-81963662D01*
X130984323Y-81963662D01*
X130984323Y-84563662D01*
G37*
%TD*%
D11*
%TO.C,Y1*%
X145048000Y-59033000D03*
X145048000Y-61933000D03*
X142748000Y-61933000D03*
X142748000Y-59033000D03*
%TD*%
D12*
%TO.C,U10*%
X132450000Y-72306506D03*
X131500000Y-72306506D03*
X130550000Y-72306506D03*
X130550000Y-70031506D03*
X131500000Y-70031506D03*
X132450000Y-70031506D03*
%TD*%
D13*
%TO.C,U9*%
X117464448Y-61293638D03*
X117464448Y-62243638D03*
X117464448Y-63193638D03*
X115189448Y-63193638D03*
X115189448Y-62243638D03*
X115189448Y-61293638D03*
%TD*%
D14*
%TO.C,U8*%
X127529323Y-80563662D03*
X128799323Y-80563662D03*
X130069323Y-80563662D03*
X131339323Y-80563662D03*
X131339323Y-85963662D03*
X130069323Y-85963662D03*
X128799323Y-85963662D03*
X127529323Y-85963662D03*
%TD*%
D15*
%TO.C,U4*%
X149969365Y-87117577D03*
D16*
X148064365Y-84242577D03*
X149334365Y-84242577D03*
X150604365Y-84242577D03*
X151874365Y-84242577D03*
X151874365Y-89992577D03*
X150604365Y-89992577D03*
X149334365Y-89992577D03*
X148064365Y-89992577D03*
%TD*%
D15*
%TO.C,U2*%
X162433000Y-87041000D03*
D16*
X160528000Y-84166000D03*
X161798000Y-84166000D03*
X163068000Y-84166000D03*
X164338000Y-84166000D03*
X164338000Y-89916000D03*
X163068000Y-89916000D03*
X161798000Y-89916000D03*
X160528000Y-89916000D03*
%TD*%
D17*
%TO.C,R83*%
X168759500Y-81534000D03*
X170584500Y-81534000D03*
%TD*%
%TO.C,R82*%
X169013500Y-79502000D03*
X170838500Y-79502000D03*
%TD*%
%TO.C,R81*%
X179681500Y-86360000D03*
X181506500Y-86360000D03*
%TD*%
%TO.C,R80*%
X180189500Y-88138000D03*
X182014500Y-88138000D03*
%TD*%
D18*
%TO.C,R79*%
X181864000Y-40743500D03*
X181864000Y-42568500D03*
%TD*%
D19*
%TO.C,R63*%
X125222000Y-69746500D03*
X125222000Y-67921500D03*
%TD*%
%TO.C,R62*%
X128778000Y-69850000D03*
X128778000Y-68025000D03*
%TD*%
D20*
%TO.C,R61*%
X134008500Y-66294000D03*
X132183500Y-66294000D03*
%TD*%
D18*
%TO.C,R60*%
X128800000Y-64487500D03*
X128800000Y-66312500D03*
%TD*%
D20*
%TO.C,R59*%
X133246500Y-68072000D03*
X131421500Y-68072000D03*
%TD*%
D18*
%TO.C,R55*%
X111800000Y-68087500D03*
X111800000Y-69912500D03*
%TD*%
D17*
%TO.C,R54*%
X114337500Y-67000000D03*
X116162500Y-67000000D03*
%TD*%
%TO.C,R53*%
X117451500Y-57404000D03*
X119276500Y-57404000D03*
%TD*%
%TO.C,R52*%
X114337500Y-68750000D03*
X116162500Y-68750000D03*
%TD*%
D20*
%TO.C,R51*%
X119784500Y-59436000D03*
X117959500Y-59436000D03*
%TD*%
D18*
%TO.C,R50*%
X133554389Y-80221352D03*
X133554389Y-82046352D03*
%TD*%
D19*
%TO.C,R49*%
X135382000Y-81684500D03*
X135382000Y-79859500D03*
%TD*%
D18*
%TO.C,R48*%
X133350000Y-84177500D03*
X133350000Y-86002500D03*
%TD*%
D20*
%TO.C,R47*%
X137056500Y-84800000D03*
X135231500Y-84800000D03*
%TD*%
D21*
%TO.C,R20*%
X144889365Y-90167577D03*
X144889365Y-84067577D03*
%TD*%
D19*
%TO.C,R10*%
X145288000Y-44854500D03*
X145288000Y-43029500D03*
%TD*%
%TO.C,R9*%
X143637000Y-44854500D03*
X143637000Y-43029500D03*
%TD*%
D18*
%TO.C,R8*%
X142240000Y-78335500D03*
X142240000Y-80160500D03*
%TD*%
D19*
%TO.C,R7*%
X137414000Y-80922500D03*
X137414000Y-79097500D03*
%TD*%
D21*
%TO.C,R6*%
X157599261Y-89894546D03*
X157599261Y-83794546D03*
%TD*%
D22*
%TO.C,R4*%
X151400000Y-53848000D03*
X153400000Y-53848000D03*
%TD*%
%TO.C,R2*%
X138446000Y-57150000D03*
X140446000Y-57150000D03*
%TD*%
D17*
%TO.C,R1*%
X135128000Y-86360000D03*
X136953000Y-86360000D03*
%TD*%
D23*
%TO.C,FB1*%
X148844000Y-73359500D03*
X148844000Y-75484500D03*
%TD*%
D24*
%TO.C,D18*%
X120142000Y-86712000D03*
X120142000Y-79912000D03*
%TD*%
D25*
%TO.C,D17*%
X122044705Y-90832550D03*
X122044705Y-94832550D03*
%TD*%
D26*
%TO.C,D3*%
X139700000Y-79712000D03*
X139700000Y-74212000D03*
%TD*%
D27*
%TO.C,D1*%
X164338000Y-47131000D03*
X164338000Y-48881000D03*
%TD*%
D28*
%TO.C,C46*%
X133958500Y-45085000D03*
X132233500Y-45085000D03*
%TD*%
D29*
%TO.C,C45*%
X161505500Y-70104000D03*
X164630500Y-70104000D03*
%TD*%
D28*
%TO.C,C44*%
X180086000Y-90678000D03*
X178361000Y-90678000D03*
%TD*%
D30*
%TO.C,C43*%
X147066000Y-71474500D03*
X147066000Y-69749500D03*
%TD*%
D31*
%TO.C,C41*%
X174536500Y-69088000D03*
X171411500Y-69088000D03*
%TD*%
D30*
%TO.C,C40*%
X127000000Y-69696500D03*
X127000000Y-67971500D03*
%TD*%
D32*
%TO.C,C38*%
X137000000Y-67437500D03*
X137000000Y-70562500D03*
%TD*%
D33*
%TO.C,C37*%
X128677500Y-75946000D03*
X130402500Y-75946000D03*
%TD*%
D29*
%TO.C,C36*%
X128485500Y-77978000D03*
X131610500Y-77978000D03*
%TD*%
D34*
%TO.C,C35*%
X134874000Y-68225500D03*
X134874000Y-69950500D03*
%TD*%
D33*
%TO.C,C34*%
X114387500Y-65250000D03*
X116112500Y-65250000D03*
%TD*%
%TO.C,C33*%
X117501500Y-55626000D03*
X119226500Y-55626000D03*
%TD*%
%TO.C,C30*%
X118771500Y-65000000D03*
X120496500Y-65000000D03*
%TD*%
D29*
%TO.C,C29*%
X118837500Y-67200000D03*
X121962500Y-67200000D03*
%TD*%
D33*
%TO.C,C26*%
X114453500Y-59436000D03*
X116178500Y-59436000D03*
%TD*%
D34*
%TO.C,C25*%
X138430000Y-90985000D03*
X138430000Y-92710000D03*
%TD*%
%TO.C,C23*%
X125494659Y-80468275D03*
X125494659Y-82193275D03*
%TD*%
%TO.C,C22*%
X131714719Y-90969662D03*
X131714719Y-92694662D03*
%TD*%
D32*
%TO.C,C21*%
X128803209Y-90079523D03*
X128803209Y-93204523D03*
%TD*%
%TO.C,C20*%
X125760979Y-90020104D03*
X125760979Y-93145104D03*
%TD*%
D30*
%TO.C,C11*%
X166451199Y-89604577D03*
X166451199Y-87879577D03*
%TD*%
%TO.C,C9*%
X154033365Y-89504077D03*
X154033365Y-87779077D03*
%TD*%
D33*
%TO.C,C8*%
X150521500Y-56134000D03*
X152246500Y-56134000D03*
%TD*%
D30*
%TO.C,C7*%
X149098000Y-71474500D03*
X149098000Y-69749500D03*
%TD*%
D34*
%TO.C,C6*%
X142800000Y-65937500D03*
X142800000Y-67662500D03*
%TD*%
%TO.C,C5*%
X154800000Y-65585000D03*
X154800000Y-67310000D03*
%TD*%
D35*
%TO.C,C4*%
X139700000Y-59647000D03*
X139700000Y-61722000D03*
%TD*%
D36*
%TO.C,C3*%
X147828000Y-62251500D03*
X147828000Y-60176500D03*
%TD*%
D34*
%TO.C,C2*%
X150876000Y-73713000D03*
X150876000Y-75438000D03*
%TD*%
D36*
%TO.C,C1*%
X148590000Y-55901500D03*
X148590000Y-53826500D03*
%TD*%
M02*
